<?xml version="1.0" encoding="utf-8"?>
<!-- Generator: Adobe Illustrator 24.3.0, SVG Export Plug-In . SVG Version: 6.00 Build 0)  -->
<svg version="1.1" id="Calque_1" xmlns="http://www.w3.org/2000/svg" xmlns:xlink="http://www.w3.org/1999/xlink" x="0px" y="0px"
	 viewBox="0 0 791 1000" style="enable-background:new 0 0 791 1000;" xml:space="preserve">
<style type="text/css">
	.st0{fill:#688ED8;}
</style>
<path class="st0" d="M584,41v84H84v584H0V125c0-23.5,8.1-43.3,24.4-59.6S60.5,41,84,41H584z M709,209c22.1,0,41.3,8.1,57.6,24.4
	c16.3,16.3,24.4,35.5,24.4,57.6v584c0,23.5-8.1,43.3-24.4,59.6C750.3,950.9,731.1,959,709,959H250c-23.5,0-43.3-8.1-59.6-24.4
	C174.1,918.3,166,898.5,166,875V291c0-22.1,8.1-41.3,24.4-57.6c16.3-16.3,36.1-24.4,59.6-24.4H709z M709,875V291H250v584H709z"/>
</svg>
