<?xml version="1.0" encoding="utf-8"?>
<!-- Generator: Adobe Illustrator 23.0.6, SVG Export Plug-In . SVG Version: 6.00 Build 0)  -->
<svg version="1.1" id="Calque_1" xmlns="http://www.w3.org/2000/svg" xmlns:xlink="http://www.w3.org/1999/xlink" x="0px" y="0px"
	 viewBox="0 0 4096 2048" style="enable-background:new 0 0 4096 2048;" xml:space="preserve">
<style type="text/css">
	.st0{fill:url(#SVGID_1_);}
	.st1{fill:#DCDCDC;}
	.st2{fill:#333333;}
</style>
<g>
	
		<linearGradient id="SVGID_1_" gradientUnits="userSpaceOnUse" x1="2048" y1="1559.7756348" x2="2048" y2="3582.7756348" gradientTransform="matrix(1 0 0 -1 0 3595.2756348)">
		<stop  offset="0" style="stop-color:#E8E8E8"/>
		<stop  offset="1" style="stop-color:#F9F9F9"/>
	</linearGradient>
	<path class="st0" d="M50,2035.5c-20.7000008,0-37.5-16.8000488-37.5-37.5v-1948c0-20.6999989,16.7999992-37.5,37.5-37.5h3996
		c20.6999512,0,37.5,16.7999992,37.5,37.5v1948c0,20.6999512-16.8000488,37.5-37.5,37.5H50z"/>
	<path class="st1" d="M4046,25.0000172c13.8000488,0,25,11.1999989,25,24.9999981v1948c0,13.8000488-11.1999512,25-25,25H50
		c-13.7999992,0-25-11.1999512-25-25v-1948c0-13.7999992,11.2000008-24.9999981,25-24.9999981H4046 M4046,0.0000168H50
		c-27.5,0-50,22.5-50,50v1948c0,27.5,22.5,50,50,50h3996c27.5,0,50-22.5,50-50v-1948
		C4096,22.5000172,4073.5,0.0000168,4046,0.0000168L4046,0.0000168z"/>
</g>
<g>
	<path class="st2" d="M618.9338379,1624.2194824v27.8203125h-83.3300781v52.1298828h65.6499023v26.9101562h-65.6499023v53.1699219
		h83.3300781v27.9501953H500.3737793v-187.9804688H618.9338379z M611.5236816,1579.369873l-38.4799805,28.0800781
		c-0.9545898,0.6943359-1.8422852,1.2578125-2.6650391,1.6904297c-0.824707,0.4345703-1.6469727,0.7792969-2.4697266,1.0400391
		c-0.824707,0.2597656-1.6899414,0.4345703-2.6000977,0.5195312c-0.9101562,0.0869141-1.972168,0.1298828-3.1850586,0.1298828
		h-25.2202148l25.4804688-26.2597656c1.0395508-1.0400391,2.0146484-1.9052734,2.9248047-2.6005859
		c0.9101562-0.6923828,1.840332-1.234375,2.7949219-1.625c0.9526367-0.3896484,2.0351562-0.6494141,3.25-0.7792969
		c1.2128906-0.1298828,2.6855469-0.1953125,4.4199219-0.1953125H611.5236816z"/>
	<path class="st2" d="M741.1325684,1707.0300293c-0.9545898,1.2148438-1.8852539,2.1669922-2.7949219,2.8603516
		c-0.9101562,0.6943359-2.2324219,1.0400391-3.965332,1.0400391c-1.6474609,0-3.25-0.4980469-4.8100586-1.4951172
		c-1.5600586-0.9960938-3.4243164-2.1230469-5.5898438-3.3798828c-2.1674805-1.2558594-4.7451172-2.3828125-7.7348633-3.3808594
		c-2.9902344-0.9951172-6.6953125-1.4941406-11.1152344-1.4941406c-5.6347656,0-10.574707,1.0195312-14.8198242,3.0546875
		c-4.2475586,2.0371094-7.7797852,4.9619141-10.5952148,8.7744141c-2.8173828,3.8154297-4.9194336,8.4296875-6.3046875,13.8457031
		c-1.3876953,5.4169922-2.0800781,11.5498047-2.0800781,18.3945312c0,7.1074219,0.7578125,13.4345703,2.2749023,18.9804688
		c1.5151367,5.546875,3.7050781,10.2050781,6.5649414,13.9746094c2.8598633,3.7705078,6.3251953,6.6298828,10.3999023,8.5800781
		c4.0727539,1.9501953,8.6655273,2.9248047,13.7802734,2.9248047c5.112793,0,9.25-0.6269531,12.4150391-1.8847656
		c3.1625977-1.2548828,5.8276367-2.6425781,7.9946289-4.1601562c2.1655273-1.515625,4.0507812-2.9023438,5.6552734-4.1601562
		c1.6025391-1.2548828,3.4003906-1.8847656,5.3950195-1.8847656c2.6000977,0,4.5498047,0.9970703,5.8500977,2.9902344
		l9.2299805,11.7001953c-3.5546875,4.1591797-7.4101562,7.6494141-11.5703125,10.4648438
		c-4.159668,2.8173828-8.472168,5.0693359-12.9350586,6.7597656c-4.4643555,1.6904297-9.0795898,2.8798828-13.8447266,3.5751953
		c-4.7675781,0.6923828-9.4902344,1.0400391-14.1699219,1.0400391c-8.2348633,0-15.9902344-1.5400391-23.2700195-4.6152344
		c-7.2802734-3.0751953-13.6298828-7.5605469-19.0449219-13.4550781
		c-5.4174805-5.8925781-9.7075195-13.1074219-12.8701172-21.6445312c-3.1645508-8.5361328-4.7451172-18.265625-4.7451172-29.1855469
		c0-9.7919922,1.4077148-18.8701172,4.2250977-27.234375c2.8154297-8.3632812,6.9550781-15.6005859,12.4150391-21.7099609
		c5.4599609-6.1103516,12.2197266-10.8984375,20.2797852-14.3652344c8.0600586-3.4658203,17.3330078-5.2001953,27.8203125-5.2001953
		c9.965332,0,18.6972656,1.6044922,26.1948242,4.8095703c7.4951172,3.2080078,14.2348633,7.8007812,20.2148438,13.7802734
		L741.1325684,1707.0300293z"/>
	<path class="st2" d="M771.4196777,1812.1999512v-133.3798828h18.8496094c3.2929688,0,5.590332,0.6074219,6.8901367,1.8203125
		c1.300293,1.2138672,2.1655273,3.2939453,2.6000977,6.2392578l1.9501953,16.1201172
		c4.7651367-8.2324219,10.3549805-14.7324219,16.7700195-19.5c6.4125977-4.7646484,13.6049805-7.1494141,21.5795898-7.1494141
		c6.5854492,0,12.0454102,1.5166016,16.3803711,4.5498047l-4.1601562,24.0498047
		c-0.2602539,1.5595703-0.824707,2.6650391-1.6899414,3.3154297c-0.8671875,0.6494141-2.0375977,0.9746094-3.5102539,0.9746094
		c-1.2998047,0-3.0771484-0.3027344-5.3295898-0.9101562c-2.2548828-0.6054688-5.2451172-0.9101562-8.9702148-0.9101562
		c-6.6748047,0-12.3945312,1.8427734-17.1601562,5.5253906c-4.7670898,3.6845703-8.7973633,9.0791016-12.0898438,16.1845703
		v83.0703125H771.4196777z"/>
	<path class="st2" d="M916.6281738,1639.9499512c0,2.7744141-0.5649414,5.375-1.6899414,7.7998047
		c-1.1274414,2.4277344-2.6225586,4.5498047-4.4853516,6.3701172c-1.8647461,1.8203125-4.0522461,3.2724609-6.5649414,4.3554688
		c-2.5146484,1.0839844-5.199707,1.625-8.0600586,1.625c-2.7744141,0-5.3950195-0.5410156-7.8647461-1.625
		c-2.4702148-1.0830078-4.6152344-2.5351562-6.4350586-4.3554688s-3.2724609-3.9423828-4.3549805-6.3701172
		c-1.0849609-2.4248047-1.625-5.0253906-1.625-7.7998047c0-2.8603516,0.5400391-5.5449219,1.625-8.0595703
		c1.0825195-2.5126953,2.5351562-4.6806641,4.3549805-6.5c1.8198242-1.8203125,3.9648438-3.2705078,6.4350586-4.3554688
		c2.4697266-1.0830078,5.090332-1.625,7.8647461-1.625c2.8603516,0,5.5454102,0.5419922,8.0600586,1.625
		c2.5126953,1.0849609,4.7001953,2.5351562,6.5649414,4.3554688c1.862793,1.8193359,3.3579102,3.9873047,4.4853516,6.5
		C916.0632324,1634.4050293,916.6281738,1637.0895996,916.6281738,1639.9499512z M911.8181152,1678.8200684v133.3798828H879.708252
		v-133.3798828H911.8181152z"/>
	<path class="st2" d="M991.8972168,1814.2800293c-11.5273438,0-20.4101562-3.2705078-26.6503906-9.8154297
		c-6.2397461-6.5419922-9.3598633-15.5771484-9.3598633-27.1044922v-74.4902344h-13.5200195
		c-1.7348633,0-3.2294922-0.5625-4.4848633-1.6894531c-1.2573242-1.1259766-1.8852539-2.8154297-1.8852539-5.0703125v-12.7402344
		l21.4501953-3.5097656l6.7597656-36.4003906c0.3457031-1.7324219,1.1479492-3.0751953,2.4052734-4.0292969
		c1.2553711-0.953125,2.8374023-1.4306641,4.7451172-1.4306641h16.6396484v41.9902344h35.1000977v22.8798828h-35.1000977v72.2802734
		c0,4.1601562,1.0400391,7.4101562,3.1201172,9.75s4.8525391,3.5097656,8.3198242,3.5097656
		c1.9926758,0,3.6606445-0.2373047,5.0053711-0.7148438c1.3422852-0.4755859,2.5126953-0.9755859,3.5097656-1.4951172
		c0.9956055-0.5195312,1.8852539-1.0175781,2.6650391-1.4951172c0.7802734-0.4755859,1.5600586-0.7148438,2.3398438-0.7148438
		c0.9526367,0,1.7329102,0.2392578,2.340332,0.7148438c0.6049805,0.4775391,1.2553711,1.1923828,1.949707,2.1455078
		l9.6201172,15.5996094c-4.6801758,3.9003906-10.0546875,6.8476562-16.1201172,8.8398438
		C1004.6794434,1813.282959,998.3972168,1814.2800293,991.8972168,1814.2800293z"/>
	<path class="st2" d="M1078.0852051,1678.8200684v84.7597656c0,8.1474609,1.8847656,14.4521484,5.6547852,18.9150391
		c3.7700195,4.4648438,9.425293,6.6953125,16.965332,6.6953125c5.5449219,0,10.7451172-1.2353516,15.5996094-3.7050781
		c4.8530273-2.4697266,9.4453125-5.8701172,13.7802734-10.2050781v-96.4599609h32.1098633v133.3798828h-19.6298828
		c-4.1601562,0-6.8901367-1.9501953-8.1899414-5.8496094l-2.2099609-10.6601562
		c-2.7749023,2.7744141-5.6347656,5.3095703-8.5800781,7.6044922c-2.9472656,2.2978516-6.0898438,4.2480469-9.4248047,5.8505859
		c-3.3374023,1.6044922-6.9350586,2.859375-10.7900391,3.7695312c-3.8574219,0.9101562-7.9951172,1.3652344-12.4150391,1.3652344
		c-7.2802734,0-13.715332-1.2353516-19.3051758-3.7050781s-10.2924805-5.9580078-14.1049805-10.4648438
		c-3.8144531-4.5058594-6.6948242-9.8574219-8.6450195-16.0546875c-1.9501953-6.1953125-2.9248047-13.0205078-2.9248047-20.4755859
		v-84.7597656H1078.0852051z"/>
	<path class="st2" d="M1196.5144043,1812.1999512v-133.3798828h18.8496094c3.2929688,0,5.590332,0.6074219,6.8901367,1.8203125
		c1.300293,1.2138672,2.1655273,3.2939453,2.6000977,6.2392578l1.9501953,16.1201172
		c4.7651367-8.2324219,10.3549805-14.7324219,16.7700195-19.5c6.4125977-4.7646484,13.6049805-7.1494141,21.5795898-7.1494141
		c6.5854492,0,12.0454102,1.5166016,16.3803711,4.5498047l-4.1601562,24.0498047
		c-0.2602539,1.5595703-0.824707,2.6650391-1.6899414,3.3154297c-0.8671875,0.6494141-2.0375977,0.9746094-3.5102539,0.9746094
		c-1.2998047,0-3.0771484-0.3027344-5.3295898-0.9101562c-2.2548828-0.6054688-5.2451172-0.9101562-8.9702148-0.9101562
		c-6.6748047,0-12.3945312,1.8427734-17.1601562,5.5253906c-4.7670898,3.6845703-8.7973633,9.0791016-12.0898438,16.1845703
		v83.0703125H1196.5144043z"/>
	<path class="st2" d="M1357.8425293,1676.7399902c8.4057617,0,16.140625,1.3447266,23.2050781,4.0302734
		c7.0629883,2.6875,13.1503906,6.609375,18.2651367,11.7646484c5.112793,5.1572266,9.1000977,11.484375,11.9599609,18.9804688
		c2.8598633,7.4970703,4.2900391,16.0546875,4.2900391,25.6748047c0,2.4267578-0.1098633,4.4423828-0.3251953,6.0449219
		c-0.2172852,1.6044922-0.6069336,2.859375-1.1699219,3.7695312c-0.5644531,0.9101562-1.3222656,1.5605469-2.2749023,1.9501953
		c-0.9545898,0.3896484-2.1674805,0.5849609-3.6401367,0.5849609h-82.4199219
		c0.9526367,13.6953125,4.6352539,23.7470703,11.050293,30.1601562c6.4125977,6.4150391,14.9052734,9.6201172,25.4799805,9.6201172
		c5.199707,0,9.6845703-0.6054688,13.4545898-1.8203125c3.7700195-1.2128906,7.0629883-2.5546875,9.8803711-4.0302734
		c2.8149414-1.4726562,5.2851562-2.8144531,7.409668-4.0292969c2.1230469-1.2128906,4.1806641-1.8203125,6.175293-1.8203125
		c1.2998047,0,2.425293,0.2597656,3.3798828,0.7802734c0.9526367,0.5195312,1.7753906,1.2568359,2.4702148,2.2099609
		l9.3598633,11.7001953c-3.5546875,4.1591797-7.5400391,7.6494141-11.9599609,10.4648438
		c-4.4199219,2.8173828-9.0351562,5.0693359-13.8452148,6.7597656s-9.7070312,2.8798828-14.6899414,3.5751953
		c-4.9848633,0.6923828-9.8149414,1.0400391-14.4951172,1.0400391c-9.2744141,0-17.8969727-1.5400391-25.8696289-4.6152344
		c-7.9750977-3.0751953-14.9077148-7.625-20.800293-13.6503906c-5.8945312-6.0224609-10.5297852-13.4746094-13.9101562-22.359375
		c-3.3798828-8.8828125-5.0698242-19.1748047-5.0698242-30.875c0-9.1005859,1.4726562-17.6582031,4.4199219-25.6748047
		c2.9453125-8.015625,7.1704102-14.9931641,12.675293-20.9306641c5.5024414-5.9345703,12.2197266-10.6376953,20.1499023-14.1044922
		C1338.9279785,1678.4743652,1347.8752441,1676.7399902,1357.8425293,1676.7399902z M1358.4929199,1699.7497559
		c-9.3603516,0-16.6850586,2.6445312-21.9702148,7.9306641c-5.2871094,5.2871094-8.6674805,12.7841797-10.1401367,22.4892578
		h60.3203125c0-4.1601562-0.5649414-8.0800781-1.6899414-11.7646484c-1.1274414-3.6826172-2.8603516-6.9101562-5.2001953-9.6855469
		c-2.3398438-2.7724609-5.2871094-4.9599609-8.8398438-6.5644531
		C1367.4182129,1700.5524902,1363.2580566,1699.7497559,1358.4929199,1699.7497559z"/>
	<path class="st2" d="M1520.8586426,1704.8200684c-0.8671875,1.3876953-1.7773438,2.3623047-2.7304688,2.9248047
		c-0.9541016,0.5644531-2.1669922,0.8447266-3.6396484,0.8447266c-1.5595703,0-3.2294922-0.4326172-5.0048828-1.2998047
		c-1.7773438-0.8652344-3.8349609-1.8398438-6.1748047-2.9248047c-2.3398438-1.0830078-5.0048828-2.0576172-7.9951172-2.9248047
		c-2.9902344-0.8652344-6.5224609-1.2998047-10.5952148-1.2998047c-6.3271484,0-11.3100586,1.3447266-14.949707,4.0292969
		c-3.6401367,2.6875-5.4604492,6.1972656-5.4604492,10.5302734c0,2.8603516,0.9306641,5.2646484,2.7954102,7.2148438
		c1.8623047,1.9501953,4.3325195,3.6621094,7.409668,5.1347656c3.0756836,1.4746094,6.5649414,2.7949219,10.465332,3.9658203
		c3.8999023,1.1699219,7.8852539,2.4492188,11.9599609,3.8349609c4.0722656,1.3867188,8.0595703,2.9697266,11.9599609,4.7441406
		c3.8994141,1.7773438,7.3876953,4.0302734,10.4648438,6.7607422c3.0751953,2.7294922,5.5449219,6.0019531,7.4101562,9.8144531
		c1.8623047,3.8154297,2.7949219,8.4072266,2.7949219,13.7802734c0,6.4150391-1.1699219,12.3300781-3.5097656,17.7451172
		c-2.3398438,5.4169922-5.7646484,10.0976562-10.2705078,14.0400391
		c-4.5068359,3.9443359-10.0751953,7.0195312-16.7050781,9.2294922s-14.2348633,3.3154297-22.8144531,3.3154297
		c-4.5947266,0-9.0800781-0.4121094-13.4550781-1.2353516c-4.3774414-0.8242188-8.5800781-1.9697266-12.6103516-3.4443359
		c-4.0297852-1.4726562-7.7573242-3.2060547-11.1796875-5.2001953c-3.4248047-1.9931641-6.4350586-4.1601562-9.0351562-6.5
		l7.4101562-12.2197266c0.9526367-1.4726562,2.0800781-2.6005859,3.3798828-3.3808594
		c1.2998047-0.7792969,2.9453125-1.1699219,4.9399414-1.1699219c1.9926758,0,3.8779297,0.5654297,5.6552734,1.6904297
		c1.7749023,1.1269531,3.8349609,2.3398438,6.1748047,3.6396484s5.090332,2.5146484,8.2548828,3.640625
		c3.1625977,1.1269531,7.1704102,1.6894531,12.0249023,1.6894531c3.8129883,0,7.0849609-0.4550781,9.8154297-1.3652344
		c2.7299805-0.9091797,4.9824219-2.0996094,6.7597656-3.5742188c1.7753906-1.4726562,3.0751953-3.1855469,3.9003906-5.1357422
		c0.8222656-1.9492188,1.234375-3.9648438,1.234375-6.0449219c0-3.1201172-0.9316406-5.6748047-2.7949219-7.6699219
		c-1.8642578-1.9921875-4.3344727-3.7255859-7.409668-5.2001953c-3.0776367-1.4726562-6.5874023-2.7949219-10.5302734-3.9648438
		c-3.9448242-1.1699219-7.9746094-2.4472656-12.0898438-3.8349609c-4.1171875-1.3847656-8.1474609-3.0097656-12.0898438-4.875
		c-3.9448242-1.8623047-7.4550781-4.2246094-10.5302734-7.0849609c-3.0771484-2.859375-5.5473633-6.3701172-7.4101562-10.5302734
		c-1.8642578-4.1591797-2.7949219-9.1845703-2.7949219-15.0791016c0-5.4609375,1.0830078-10.6601562,3.25-15.6005859
		c2.1655273-4.9394531,5.3505859-9.25,9.5551758-12.9345703c4.2026367-3.6826172,9.4453125-6.6298828,15.7299805-8.8398438
		c6.2827148-2.2109375,13.5405273-3.3154297,21.7749023-3.3154297c9.1855469,0,17.5498047,1.5175781,25.0898438,4.5498047
		c7.5400391,3.0351562,13.8232422,7.0205078,18.8505859,11.9599609L1520.8586426,1704.8200684z"/>
	<path class="st2" d="M1699.2160645,1707.0300293c-0.9541016,1.2148438-1.8847656,2.1669922-2.7949219,2.8603516
		c-0.9101562,0.6943359-2.2324219,1.0400391-3.9648438,1.0400391c-1.6474609,0-3.25-0.4980469-4.8095703-1.4951172
		c-1.5605469-0.9960938-3.4248047-2.1230469-5.5898438-3.3798828c-2.1679688-1.2558594-4.7451172-2.3828125-7.7353516-3.3808594
		c-2.9902344-0.9951172-6.6953125-1.4941406-11.1152344-1.4941406c-5.6347656,0-10.5742188,1.0195312-14.8203125,3.0546875
		c-4.2470703,2.0371094-7.7792969,4.9619141-10.5947266,8.7744141c-2.8173828,3.8154297-4.9199219,8.4296875-6.3046875,13.8457031
		c-1.3876953,5.4169922-2.0800781,11.5498047-2.0800781,18.3945312c0,7.1074219,0.7578125,13.4345703,2.2753906,18.9804688
		c1.5146484,5.546875,3.7041016,10.2050781,6.5644531,13.9746094c2.8603516,3.7705078,6.3251953,6.6298828,10.4003906,8.5800781
		c4.0722656,1.9501953,8.6650391,2.9248047,13.7792969,2.9248047c5.1132812,0,9.2509766-0.6269531,12.4150391-1.8847656
		c3.1630859-1.2548828,5.828125-2.6425781,7.9951172-4.1601562c2.1660156-1.515625,4.0507812-2.9023438,5.6552734-4.1601562
		c1.6025391-1.2548828,3.4003906-1.8847656,5.3945312-1.8847656c2.6005859,0,4.5507812,0.9970703,5.8505859,2.9902344
		l9.2294922,11.7001953c-3.5546875,4.1591797-7.4091797,7.6494141-11.5693359,10.4648438
		c-4.1601562,2.8173828-8.4726562,5.0693359-12.9355469,6.7597656c-4.4648438,1.6904297-9.0791016,2.8798828-13.8447266,3.5751953
		c-4.7675781,0.6923828-9.4902344,1.0400391-14.1699219,1.0400391c-8.234375,0-15.9902344-1.5400391-23.2705078-4.6152344
		c-7.2792969-3.0751953-13.6289062-7.5605469-19.0449219-13.4550781
		c-5.4169922-5.8925781-9.7070312-13.1074219-12.8701172-21.6445312c-3.1640625-8.5361328-4.7441406-18.265625-4.7441406-29.1855469
		c0-9.7919922,1.4072266-18.8701172,4.2246094-27.234375c2.8154297-8.3632812,6.9550781-15.6005859,12.4150391-21.7099609
		c5.4599609-6.1103516,12.2197266-10.8984375,20.2802734-14.3652344c8.0595703-3.4658203,17.3320312-5.2001953,27.8193359-5.2001953
		c9.9658203,0,18.6982422,1.6044922,26.1953125,4.8095703c7.4951172,3.2080078,14.2353516,7.8007812,20.2148438,13.7802734
		L1699.2160645,1707.0300293z"/>
	<path class="st2" d="M1786.442627,1676.7399902c9.9658203,0,19.0009766,1.6044922,27.1054688,4.8095703
		c8.1025391,3.2080078,15.0146484,7.7578125,20.7353516,13.6503906
		c5.7197266,5.8945312,10.1396484,13.0869141,13.2597656,21.5800781c3.1201172,8.4941406,4.6796875,17.984375,4.6796875,28.4697266
		c0,10.5751953-1.5595703,20.1074219-4.6796875,28.6005859c-3.1201172,8.4941406-7.5400391,15.7294922-13.2597656,21.7099609
		c-5.7207031,5.9794922-12.6328125,10.5742188-20.7353516,13.7792969
		c-8.1044922,3.2060547-17.1396484,4.8105469-27.1054688,4.8105469c-9.9667969,0-19.0244141-1.6044922-27.1699219-4.8105469
		c-8.1474609-3.2050781-15.1015625-7.7998047-20.8642578-13.7792969
		c-5.7646484-5.9804688-10.2275391-13.2158203-13.390625-21.7099609
		c-3.1640625-8.4931641-4.7451172-18.0253906-4.7451172-28.6005859c0-10.4853516,1.5810547-19.9755859,4.7451172-28.4697266
		c3.1630859-8.4931641,7.6259766-15.6855469,13.390625-21.5800781c5.7626953-5.8925781,12.7167969-10.4423828,20.8642578-13.6503906
		C1767.4182129,1678.3444824,1776.4758301,1676.7399902,1786.442627,1676.7399902z M1786.442627,1789.4499512
		c11.0927734,0,19.3056641-3.7255859,24.6357422-11.1796875c5.3300781-7.453125,7.9951172-18.3730469,7.9951172-32.7607422
		c0-14.3847656-2.6650391-25.3496094-7.9951172-32.8896484s-13.5429688-11.3095703-24.6357422-11.3095703
		c-11.2666016,0-19.5869141,3.7919922-24.9599609,11.375c-5.3740234,7.5839844-8.0595703,18.5244141-8.0595703,32.8242188
		c0,14.3007812,2.6855469,25.2001953,8.0595703,32.6953125
		C1766.8557129,1785.7019043,1775.1760254,1789.4499512,1786.442627,1789.4499512z"/>
	<path class="st2" d="M1877.3127441,1812.1999512v-133.3798828h19.6298828c4.1601562,0,6.8896484,1.9501953,8.1904297,5.8496094
		l2.0791016,9.8798828c2.3408203-2.5996094,4.7880859-4.9824219,7.3457031-7.1494141
		c2.5546875-2.1650391,5.2851562-4.0302734,8.1894531-5.5898438c2.9033203-1.5605469,6.0224609-2.7949219,9.3603516-3.7050781
		c3.3349609-0.9101562,6.9980469-1.3652344,10.9853516-1.3652344c8.4052734,0,15.3173828,2.2753906,20.734375,6.8251953
		c5.4150391,4.5498047,9.4677734,10.5947266,12.1552734,18.1347656c2.0800781-4.4199219,4.6796875-8.2099609,7.7998047-11.375
		c3.1201172-3.1630859,6.5429688-5.7402344,10.2705078-7.7353516c3.7246094-1.9921875,7.6894531-3.4648438,11.8945312-4.4199219
		c4.203125-0.9521484,8.4277344-1.4296875,12.6748047-1.4296875c7.3652344,0,13.9101562,1.1269531,19.6298828,3.3798828
		c5.7207031,2.2548828,10.5302734,5.5478516,14.4306641,9.8798828c3.8994141,4.3349609,6.8671875,9.6201172,8.9042969,15.8603516
		c2.0361328,6.2402344,3.0556641,13.3896484,3.0556641,21.4501953v84.8896484h-32.1103516v-84.8896484
		c0-8.4931641-1.8642578-14.8857422-5.5898438-19.1757812c-3.7275391-4.2900391-9.1875-6.4345703-16.3798828-6.4345703
		c-3.2949219,0-6.3496094,0.5644531-9.1650391,1.6904297c-2.8173828,1.1269531-5.2871094,2.7519531-7.4101562,4.875
		c-2.125,2.1240234-3.7919922,4.7890625-5.0048828,7.9941406c-1.2148438,3.2080078-1.8203125,6.890625-1.8203125,11.0507812
		v84.8896484h-32.2402344v-84.8896484c0-8.9257812-1.7988281-15.4257812-5.3945312-19.5
		c-3.5976562-4.0732422-8.9052734-6.1103516-15.9248047-6.1103516c-4.5947266,0-8.9052734,1.1494141-12.9355469,3.4453125
		c-4.0292969,2.296875-7.7792969,5.4394531-11.2451172,9.4248047v97.6298828H1877.3127441z"/>
	<path class="st2" d="M2096.2307129,1855.7497559v-176.9296875h19.6298828c2.0800781,0,3.8554688,0.4775391,5.3300781,1.4296875
		c1.4726562,0.9550781,2.4248047,2.4277344,2.8603516,4.4199219l2.5996094,12.3505859
		c5.3730469-6.1533203,11.5478516-11.1357422,18.5253906-14.9501953c6.9746094-3.8125,15.1445312-5.7197266,24.5048828-5.7197266
		c7.2792969,0,13.9296875,1.5166016,19.9550781,4.5498047c6.0224609,3.0341797,11.2226562,7.4326172,15.5996094,13.1943359
		c4.375,5.765625,7.7548828,12.8701172,10.1396484,21.3203125c2.3828125,8.4501953,3.5751953,18.1347656,3.5751953,29.0546875
		c0,9.9677734-1.3447266,19.1982422-4.0302734,27.6904297c-2.6865234,8.4951172-6.5214844,15.8603516-11.5048828,22.0996094
		c-4.984375,6.2402344-11.0068359,11.1152344-18.0693359,14.625c-7.0654297,3.5107422-14.9726562,5.265625-23.7255859,5.265625
		c-7.5400391,0-13.9326172-1.1494141-19.1748047-3.4453125c-5.2451172-2.2949219-9.9453125-5.4804688-14.1054688-9.5546875
		v54.5996094H2096.2307129z M2158.630127,1701.6999512c-6.6738281,0-12.3720703,1.4101562-17.0947266,4.2246094
		c-4.7246094,2.8173828-9.1220703,6.7832031-13.1953125,11.8955078v59.7998047
		c3.640625,4.5078125,7.6054688,7.6494141,11.8955078,9.4248047c4.2900391,1.7773438,8.9052734,2.6650391,13.8447266,2.6650391
		c4.8525391,0,9.2509766-0.9101562,13.1953125-2.7294922c3.9423828-1.8203125,7.2802734-4.5927734,10.0097656-8.3203125
		c2.7304688-3.7255859,4.8300781-8.4277344,6.3046875-14.1044922c1.4726562-5.6757812,2.2109375-12.3710938,2.2109375-20.0859375
		c0-7.7998047-0.6298828-14.4072266-1.8857422-19.8242188c-1.2568359-5.4160156-3.0546875-9.8154297-5.3945312-13.1953125
		s-5.1796875-5.8496094-8.515625-7.4101562C2166.6682129,1702.4802246,2162.8762207,1701.6999512,2158.630127,1701.6999512z"/>
	<path class="st2" d="M2287.0686035,1814.2800293c-11.5273438,0-20.4101562-3.2705078-26.6494141-9.8154297
		c-6.2402344-6.5419922-9.3603516-15.5771484-9.3603516-27.1044922v-74.4902344h-13.5195312
		c-1.7353516,0-3.2304688-0.5625-4.4853516-1.6894531c-1.2578125-1.1259766-1.8847656-2.8154297-1.8847656-5.0703125v-12.7402344
		l21.4492188-3.5097656l6.7607422-36.4003906c0.3447266-1.7324219,1.1474609-3.0751953,2.4042969-4.0292969
		c1.2558594-0.953125,2.8378906-1.4306641,4.7451172-1.4306641h16.640625v41.9902344h35.0996094v22.8798828h-35.0996094v72.2802734
		c0,4.1601562,1.0400391,7.4101562,3.1201172,9.75c2.0791016,2.3398438,4.8525391,3.5097656,8.3193359,3.5097656
		c1.9931641,0,3.6601562-0.2373047,5.0048828-0.7148438c1.3427734-0.4755859,2.5126953-0.9755859,3.5107422-1.4951172
		c0.9951172-0.5195312,1.8847656-1.0175781,2.6650391-1.4951172c0.7792969-0.4755859,1.5595703-0.7148438,2.3398438-0.7148438
		c0.9521484,0,1.7324219,0.2392578,2.3398438,0.7148438c0.6054688,0.4775391,1.2548828,1.1923828,1.9501953,2.1455078
		l9.6201172,15.5996094c-4.6806641,3.9003906-10.0546875,6.8476562-16.1201172,8.8398438
		C2299.8518066,1813.282959,2293.5686035,1814.2800293,2287.0686035,1814.2800293z"/>
	<path class="st2" d="M2448.3967285,1812.1999512h-14.4296875c-3.0351562,0-5.4169922-0.4550781-7.1503906-1.3652344
		c-1.734375-0.9101562-3.0341797-2.75-3.8994141-5.5244141l-2.8603516-9.4902344
		c-3.3798828,3.0341797-6.6953125,5.6992188-9.9453125,7.9951172c-3.25,2.296875-6.609375,4.2246094-10.0742188,5.7851562
		c-3.4677734,1.5595703-7.1503906,2.7294922-11.0507812,3.5097656c-3.8994141,0.7802734-8.234375,1.1699219-13,1.1699219
		c-5.6337891,0-10.8339844-0.7617188-15.5996094-2.28125c-4.7675781-1.5214844-8.8623047-3.8046875-12.2851562-6.8476562
		c-3.4248047-3.0419922-6.0898438-6.8261719-7.9951172-11.3486328c-1.9072266-4.5214844-2.859375-9.7822266-2.859375-15.7822266
		c0-5.0439453,1.3203125-10.0224609,3.9648438-14.9355469c2.6425781-4.9121094,7.0400391-9.3457031,13.1953125-13.3027344
		c6.1523438-3.9570312,14.3417969-7.2392578,24.5693359-9.8476562c10.2255859-2.6083984,22.9228516-3.9140625,38.0898438-3.9140625
		v-7.859375c0-8.9941406-1.8847656-15.6542969-5.6542969-19.9775391c-3.7705078-4.3222656-9.2529297-6.4833984-16.4453125-6.4833984
		c-5.2001953,0-9.5351562,0.6074219-13,1.8203125c-3.4677734,1.2148438-6.4794922,2.5791016-9.0351562,4.0947266
		c-2.5576172,1.5175781-4.9199219,2.8818359-7.0849609,4.0947266c-2.1669922,1.2148438-4.5498047,1.8203125-7.1494141,1.8203125
		c-2.1679688,0-4.0302734-0.5625-5.5908203-1.6904297c-1.5595703-1.125-2.8173828-2.5126953-3.7695312-4.1591797
		l-5.8505859-10.2705078c15.3408203-14.0400391,33.8427734-21.0595703,55.5107422-21.0595703
		c7.7998047,0,14.7548828,1.2792969,20.8642578,3.8349609c6.1103516,2.5566406,11.2880859,6.109375,15.5351562,10.6591797
		c4.2460938,4.5507812,7.4755859,9.9902344,9.6855469,16.3154297c2.2099609,6.3271484,3.3144531,13.2597656,3.3144531,20.7998047
		V1812.1999512z M2385.9973145,1792.1804199c3.2919922,0,6.3251953-0.2988281,9.0996094-0.8964844
		c2.7724609-0.5966797,5.3955078-1.4931641,7.8652344-2.6875s4.8525391-2.6650391,7.1494141-4.4130859
		c2.2958984-1.7490234,4.6152344-3.8193359,6.9550781-6.2080078v-22.3251953c-9.359375,0-17.1816406,0.5888672-23.4648438,1.7666016
		c-6.2841797,1.1787109-11.3320312,2.6855469-15.1445312,4.5175781c-3.8144531,1.8349609-6.5224609,3.9736328-8.125,6.4169922
		c-1.6044922,2.4433594-2.4052734,5.1044922-2.4052734,7.9853516c0,5.6748047,1.6679688,9.7333984,5.0048828,12.1767578
		C2376.2678223,1790.9587402,2380.6223145,1792.1804199,2385.9973145,1792.1804199z"/>
	<path class="st2" d="M2480.3762207,1812.1999512v-193.1796875h32.1103516v76.1796875
		c5.2851562-5.6328125,11.265625-10.1171875,17.9394531-13.4550781c6.6728516-3.3349609,14.4726562-5.0048828,23.4003906-5.0048828
		c7.2802734,0,13.9306641,1.4951172,19.9550781,4.4853516c6.0224609,2.9892578,11.2226562,7.3447266,15.5996094,13.0644531
		c4.3759766,5.7197266,7.7558594,12.7851562,10.140625,21.1904297c2.3828125,8.4072266,3.5742188,18.0693359,3.5742188,28.9892578
		c0,9.9677734-1.34375,19.1982422-4.0292969,27.6904297c-2.6875,8.4951172-6.5224609,15.8603516-11.5048828,22.0996094
		c-4.9853516,6.2402344-11.0078125,11.1152344-18.0703125,14.625c-7.0644531,3.5107422-14.9726562,5.265625-23.7246094,5.265625
		c-4.0751953,0-7.8007812-0.4121094-11.1806641-1.2353516c-3.3798828-0.8222656-6.4570312-1.9697266-9.2294922-3.4453125
		c-2.7753906-1.4726562-5.3525391-3.2695312-7.7353516-5.3945312c-2.3847656-2.1230469-4.6591797-4.4853516-6.8251953-7.0849609
		l-1.4296875,8.9697266c-0.5205078,2.2548828-1.4101562,3.8574219-2.6650391,4.8105469
		c-1.2578125,0.9541016-2.9697266,1.4296875-5.1347656,1.4296875H2480.3762207z M2542.7766113,1701.6999512
		c-6.6748047,0-12.3720703,1.4101562-17.0947266,4.2246094c-4.7255859,2.8173828-9.1230469,6.7832031-13.1953125,11.8955078
		v59.7998047c3.6396484,4.5078125,7.6044922,7.6494141,11.8945312,9.4248047
		c4.2900391,1.7773438,8.9482422,2.6650391,13.9755859,2.6650391c4.8525391,0,9.2294922-0.9101562,13.1298828-2.7294922
		c3.8994141-1.8203125,7.2148438-4.5927734,9.9453125-8.3203125c2.7294922-3.7255859,4.8300781-8.4277344,6.3046875-14.1044922
		c1.4726562-5.6757812,2.2099609-12.3710938,2.2099609-20.0859375c0-7.7998047-0.6298828-14.4072266-1.8847656-19.8242188
		c-1.2578125-5.4160156-3.0556641-9.8154297-5.3955078-13.1953125s-5.1796875-5.8496094-8.5146484-7.4101562
		C2550.8137207,1702.4802246,2547.0217285,1701.6999512,2542.7766113,1701.6999512z"/>
	<path class="st2" d="M2662.3742676,1619.0202637v193.1796875h-32.109375v-193.1796875H2662.3742676z"/>
	<path class="st2" d="M2753.763916,1676.7399902c8.4052734,0,16.1396484,1.3447266,23.2050781,4.0302734
		c7.0625,2.6875,13.1503906,6.609375,18.2646484,11.7646484c5.1123047,5.1572266,9.0996094,11.484375,11.9599609,18.9804688
		c2.8603516,7.4970703,4.2900391,16.0546875,4.2900391,25.6748047c0,2.4267578-0.109375,4.4423828-0.3251953,6.0449219
		c-0.2167969,1.6044922-0.6074219,2.859375-1.1699219,3.7695312c-0.5644531,0.9101562-1.3222656,1.5605469-2.2744141,1.9501953
		c-0.9550781,0.3896484-2.1679688,0.5849609-3.640625,0.5849609h-82.4199219
		c0.953125,13.6953125,4.6357422,23.7470703,11.0498047,30.1601562c6.4130859,6.4150391,14.9052734,9.6201172,25.4804688,9.6201172
		c5.2001953,0,9.6845703-0.6054688,13.4550781-1.8203125c3.7695312-1.2128906,7.0625-2.5546875,9.8798828-4.0302734
		c2.8154297-1.4726562,5.2851562-2.8144531,7.4101562-4.0292969c2.1220703-1.2128906,4.1796875-1.8203125,6.1748047-1.8203125
		c1.2998047,0,2.4248047,0.2597656,3.3798828,0.7802734c0.953125,0.5195312,1.7753906,1.2568359,2.4697266,2.2099609
		l9.3603516,11.7001953c-3.5546875,4.1591797-7.5400391,7.6494141-11.9599609,10.4648438
		c-4.4199219,2.8173828-9.0351562,5.0693359-13.8447266,6.7597656c-4.8105469,1.6904297-9.7080078,2.8798828-14.6904297,3.5751953
		c-4.984375,0.6923828-9.8154297,1.0400391-14.4951172,1.0400391c-9.2744141,0-17.8974609-1.5400391-25.8701172-4.6152344
		c-7.9746094-3.0751953-14.9072266-7.625-20.7998047-13.6503906c-5.8945312-6.0224609-10.5302734-13.4746094-13.9101562-22.359375
		c-3.3798828-8.8828125-5.0693359-19.1748047-5.0693359-30.875c0-9.1005859,1.4726562-17.6582031,4.4199219-25.6748047
		c2.9453125-8.015625,7.1699219-14.9931641,12.6748047-20.9306641c5.5029297-5.9345703,12.2197266-10.6376953,20.1494141-14.1044922
		C2734.848877,1678.4743652,2743.7961426,1676.7399902,2753.763916,1676.7399902z M2754.4133301,1699.7497559
		c-9.359375,0-16.6845703,2.6445312-21.9697266,7.9306641c-5.2871094,5.2871094-8.6669922,12.7841797-10.1396484,22.4892578
		h60.3193359c0-4.1601562-0.5644531-8.0800781-1.6894531-11.7646484c-1.1279297-3.6826172-2.8603516-6.9101562-5.2001953-9.6855469
		c-2.3398438-2.7724609-5.2871094-4.9599609-8.8398438-6.5644531
		C2763.3391113,1700.5524902,2759.1789551,1699.7497559,2754.4133301,1699.7497559z"/>
	<path class="st2" d="M2916.779541,1704.8200684c-0.8671875,1.3876953-1.7773438,2.3623047-2.7304688,2.9248047
		c-0.9541016,0.5644531-2.1669922,0.8447266-3.6396484,0.8447266c-1.5595703,0-3.2294922-0.4326172-5.0048828-1.2998047
		c-1.7773438-0.8652344-3.8349609-1.8398438-6.1748047-2.9248047c-2.3398438-1.0830078-5.0048828-2.0576172-7.9951172-2.9248047
		c-2.9902344-0.8652344-6.5224609-1.2998047-10.5947266-1.2998047c-6.328125,0-11.3105469,1.3447266-14.9501953,4.0292969
		c-3.640625,2.6875-5.4599609,6.1972656-5.4599609,10.5302734c0,2.8603516,0.9296875,5.2646484,2.7949219,7.2148438
		c1.8623047,1.9501953,4.3320312,3.6621094,7.4101562,5.1347656c3.0751953,1.4746094,6.5644531,2.7949219,10.4648438,3.9658203
		c3.8994141,1.1699219,7.8847656,2.4492188,11.9599609,3.8349609c4.0722656,1.3867188,8.0595703,2.9697266,11.9599609,4.7441406
		c3.8994141,1.7773438,7.3876953,4.0302734,10.4648438,6.7607422c3.0751953,2.7294922,5.5449219,6.0019531,7.4101562,9.8144531
		c1.8623047,3.8154297,2.7949219,8.4072266,2.7949219,13.7802734c0,6.4150391-1.1699219,12.3300781-3.5097656,17.7451172
		c-2.3398438,5.4169922-5.7646484,10.0976562-10.2705078,14.0400391
		c-4.5068359,3.9443359-10.0751953,7.0195312-16.7050781,9.2294922s-14.234375,3.3154297-22.8144531,3.3154297
		c-4.5947266,0-9.0800781-0.4121094-13.4550781-1.2353516c-4.3779297-0.8242188-8.5800781-1.9697266-12.6103516-3.4443359
		c-4.0302734-1.4726562-7.7568359-3.2060547-11.1796875-5.2001953c-3.4248047-1.9931641-6.4355469-4.1601562-9.0351562-6.5
		l7.4101562-12.2197266c0.9521484-1.4726562,2.0800781-2.6005859,3.3798828-3.3808594
		c1.2998047-0.7792969,2.9453125-1.1699219,4.9404297-1.1699219c1.9921875,0,3.8769531,0.5654297,5.6542969,1.6904297
		c1.7753906,1.1269531,3.8349609,2.3398438,6.1748047,3.6396484c2.3408203,1.2998047,5.0908203,2.5146484,8.2558594,3.640625
		c3.1621094,1.1269531,7.1699219,1.6894531,12.0244141,1.6894531c3.8125,0,7.0849609-0.4550781,9.8154297-1.3652344
		c2.7294922-0.9091797,4.9824219-2.0996094,6.7597656-3.5742188c1.7753906-1.4726562,3.0751953-3.1855469,3.9003906-5.1357422
		c0.8222656-1.9492188,1.234375-3.9648438,1.234375-6.0449219c0-3.1201172-0.9316406-5.6748047-2.7949219-7.6699219
		c-1.8642578-1.9921875-4.3349609-3.7255859-7.4101562-5.2001953c-3.0771484-1.4726562-6.5869141-2.7949219-10.5292969-3.9648438
		c-3.9453125-1.1699219-7.9746094-2.4472656-12.0908203-3.8349609c-4.1171875-1.3847656-8.1464844-3.0097656-12.0898438-4.875
		c-3.9443359-1.8623047-7.4541016-4.2246094-10.5292969-7.0849609c-3.078125-2.859375-5.5478516-6.3701172-7.4101562-10.5302734
		c-1.8652344-4.1591797-2.7949219-9.1845703-2.7949219-15.0791016c0-5.4609375,1.0820312-10.6601562,3.25-15.6005859
		c2.1650391-4.9394531,5.3496094-9.25,9.5546875-12.9345703c4.2021484-3.6826172,9.4453125-6.6298828,15.7294922-8.8398438
		c6.2832031-2.2109375,13.5410156-3.3154297,21.7753906-3.3154297c9.1855469,0,17.5498047,1.5175781,25.0898438,4.5498047
		c7.5400391,3.0351562,13.8232422,7.0205078,18.8505859,11.9599609L2916.779541,1704.8200684z"/>
	<path class="st2" d="M3025.8459473,1730.6901855c0,17.8544922,2.1660156,35.4042969,6.5,52.6494141
		c4.3330078,17.2480469,10.5302734,33.453125,18.5908203,48.6201172c0.6044922,1.1259766,1.0175781,2.1660156,1.234375,3.1201172
		c0.2158203,0.953125,0.3251953,1.8203125,0.3251953,2.6005859c0,1.7324219-0.4345703,3.1396484-1.2998047,4.2246094
		c-0.8671875,1.0830078-1.9072266,1.9707031-3.1201172,2.6650391l-14.2998047,8.7099609
		c-6.4150391-9.8798828-11.875-19.8046875-16.3798828-29.7705078c-4.5078125-9.9667969-8.1904297-20.0195312-11.0507812-30.1591797
		c-2.859375-10.140625-4.9619141-20.4101562-6.3046875-30.8105469c-1.3447266-10.3994141-2.0146484-21.015625-2.0146484-31.8496094
		c0-10.8330078,0.6699219-21.4707031,2.0146484-31.9150391c1.3427734-10.4423828,3.4453125-20.7353516,6.3046875-30.875
		c2.8603516-10.140625,6.5429688-20.1708984,11.0507812-30.0947266c4.5048828-9.9228516,9.9648438-19.8251953,16.3798828-29.7050781
		l14.2998047,8.5800781c1.2128906,0.6943359,2.2529297,1.5820312,3.1201172,2.6640625
		c0.8652344,1.0849609,1.2998047,2.4501953,1.2998047,4.0957031c0,1.6474609-0.5644531,3.5966797-1.6904297,5.8496094
		c-7.9746094,15.1679688-14.1269531,31.3955078-18.4599609,48.6855469
		C3028.0119629,1695.2653809,3025.8459473,1712.8376465,3025.8459473,1730.6901855z"/>
	<path class="st2" d="M3199.7834473,1624.2194824v27.8203125h-83.3300781v55.640625h70.3300781v27.9492188h-70.3300781v76.5703125
		h-35.2294922v-187.9804688H3199.7834473z"/>
	<path class="st2" d="M3345.7717285,1624.2194824v27.8203125h-83.3300781v52.1298828h65.6503906v26.9101562h-65.6503906v53.1699219
		h83.3300781v27.9501953h-118.5595703v-187.9804688H3345.7717285z"/>
	<path class="st2" d="M3505.2805176,1767.869873c1.9052734,0,3.5527344,0.7373047,4.9394531,2.2099609l13.7802734,14.9501953
		c-7.6269531,9.4472656-17.0097656,16.6845703-28.1445312,21.7099609
		c-11.1376953,5.0273438-24.5058594,7.5400391-40.1054688,7.5400391c-13.9550781,0-26.5-2.3828125-37.6347656-7.1503906
		c-11.1376953-4.7646484-20.6494141-11.3945312-28.5351562-19.8896484
		c-7.8876953-8.4931641-13.9326172-18.6328125-18.1347656-30.4199219
		c-4.2050781-11.7851562-6.3056641-24.6552734-6.3056641-38.6103516c0-14.125,2.3408203-27.0605469,7.0205078-38.8046875
		c4.6796875-11.7431641,11.265625-21.8603516,19.7597656-30.3554688
		c8.4931641-8.4921875,18.6552734-15.0996094,30.4853516-19.8242188
		c11.8300781-4.7226562,24.8945312-7.0849609,39.1943359-7.0849609c13.953125,0,26.1503906,2.2314453,36.5957031,6.6943359
		c10.4423828,4.4648438,19.3896484,10.3798828,26.8447266,17.7451172l-11.7001953,16.25
		c-0.6943359,1.0400391-1.5820312,1.9501953-2.6650391,2.7304688c-1.0839844,0.7792969-2.5791016,1.1699219-4.484375,1.1699219
		c-1.9951172,0-4.0302734-0.7802734-6.1103516-2.3398438c-2.0800781-1.5605469-4.7246094-3.25-7.9296875-5.0703125
		c-3.2080078-1.8203125-7.2597656-3.5097656-12.1552734-5.0703125c-4.8974609-1.5595703-11.1152344-2.3398438-18.6552734-2.3398438
		c-8.8398438,0-16.9648438,1.5400391-24.375,4.6152344c-7.4101562,3.0771484-13.7792969,7.4746094-19.109375,13.1943359
		c-5.3300781,5.7207031-9.4902344,12.6757812-12.4804688,20.8652344c-2.9902344,8.1904297-4.4853516,17.4003906-4.4853516,27.625
		c0,10.5751953,1.4951172,19.9775391,4.4853516,28.2099609c2.9902344,8.2353516,7.0400391,15.1679688,12.1552734,20.7998047
		c5.1123047,5.6347656,11.1347656,9.9453125,18.0693359,12.9355469c6.9335938,2.9902344,14.3857422,4.4853516,22.3603516,4.4853516
		c4.765625,0,9.078125-0.2607422,12.9355469-0.7802734c3.8544922-0.5205078,7.4091797-1.3427734,10.6591797-2.4697266
		c3.25-1.1259766,6.3261719-2.578125,9.2304688-4.3554688c2.9023438-1.7753906,5.7851562-3.9648438,8.6445312-6.5654297
		c0.8652344-0.7792969,1.7753906-1.4072266,2.7304688-1.8847656
		C3503.1125488,1768.1101074,3504.1525879,1767.869873,3505.2805176,1767.869873z"/>
	<path class="st2" d="M3567.8068848,1730.6901855c0-17.8525391-2.1679688-35.4248047-6.5-52.7148438
		c-4.3349609-17.2900391-10.4873047-33.5175781-18.4599609-48.6855469
		c-1.1279297-2.2529297-1.6904297-4.2021484-1.6904297-5.8496094c0-1.6455078,0.4326172-3.0107422,1.2998047-4.0957031
		c0.8652344-1.0820312,1.9052734-1.9697266,3.1201172-2.6640625l14.2998047-8.5800781
		c6.4130859,9.8798828,11.8730469,19.7822266,16.3798828,29.7050781
		c4.5058594,9.9238281,8.1904297,19.9541016,11.0507812,30.0947266c2.859375,10.1396484,4.9599609,20.4326172,6.3046875,30.875
		c1.3427734,10.4443359,2.0146484,21.0820312,2.0146484,31.9150391c0,10.8339844-0.671875,21.4501953-2.0146484,31.8496094
		c-1.3447266,10.4003906-3.4453125,20.6699219-6.3046875,30.8105469
		c-2.8603516,10.1396484-6.5449219,20.1923828-11.0507812,30.1591797
		c-4.5068359,9.9658203-9.9667969,19.890625-16.3798828,29.7705078l-14.2998047-8.7099609
		c-1.2148438-0.6943359-2.2548828-1.5820312-3.1201172-2.6650391c-0.8671875-1.0849609-1.2998047-2.4921875-1.2998047-4.2246094
		c0-0.7802734,0.1074219-1.6474609,0.3251953-2.6005859c0.2148438-0.9541016,0.6279297-1.9941406,1.234375-3.1201172
		c8.0605469-15.1669922,14.2558594-31.3720703,18.5908203-48.6201172
		C3565.638916,1766.0944824,3567.8068848,1748.5446777,3567.8068848,1730.6901855z"/>
</g>
<path class="st2" d="M2205.1206055,598.2414551V308.527771c8.5793457,5.4995117,15.9487305,11.1090088,22.1081543,17.1584473
	l250.4472656,250.4472046c6.1594238,6.1594849,11.6586914,13.5288086,17.1582031,22.1080322H2205.1206055z
	 M2126.5878906,617.9296265c0,32.4470825,26.3974609,58.8446655,58.9545898,58.8446655h333.8195801v648.1711426
	c0,32.5570068-26.3974609,58.9545898-58.8444824,58.9545898h-824.9250488c-32.5571289,0-58.9547119-26.397583-58.9547119-58.9545898
	V342.9546814c0-32.5570374,26.397583-58.9546509,58.9547119-58.9546509h490.9953613v333.929657V617.9296265z"/>
</svg>
