<?xml version="1.0" encoding="utf-8"?>
<!-- Generator: Adobe Illustrator 23.0.6, SVG Export Plug-In . SVG Version: 6.00 Build 0)  -->
<svg version="1.1" id="Calque_1" xmlns="http://www.w3.org/2000/svg" xmlns:xlink="http://www.w3.org/1999/xlink" x="0px" y="0px"
	 viewBox="0 0 1000 1000" style="enable-background:new 0 0 1000 1000;" xml:space="preserve">
<style type="text/css">
	.st0{fill:#688ED8;}
</style>
<path class="st0" d="M946.4,214.3c29.6,0,53.6,24,53.6,53.6v678.5c0,29.6-24,53.6-53.6,53.6H410.7c-29.6,0-53.6-24-53.6-53.6V785.7
	H53.6C24,785.7,0,761.7,0,732.1v-375c0-29.5,17.3-70.8,37.9-91.5L265.6,37.9C286.3,17.3,327.6,0,357.1,0h232.2
	c29.6,0,53.6,24,53.6,53.6v183c21.7-12.8,49.6-22.3,71.4-22.3L946.4,214.3L946.4,214.3z M642.9,333.1L476,500h166.9V333.1z
	 M285.7,118.9L118.9,285.7h166.8V118.9z M395.1,479.9l176.3-176.3V71.4H357.1v232.2c0,29.5-24,53.5-53.5,53.5H71.4v357.2h285.7
	V571.4C357.1,541.9,374.4,500.6,395.1,479.9L395.1,479.9z M928.6,928.6V285.7H714.3v232.2c0,29.5-24,53.5-53.6,53.5H428.6v357.2
	H928.6z"/>
</svg>
