<?xml version="1.0" encoding="utf-8"?>
<!-- Generator: Adobe Illustrator 23.0.2, SVG Export Plug-In . SVG Version: 6.00 Build 0)  -->
<svg version="1.1" id="Calque_1" xmlns="http://www.w3.org/2000/svg" xmlns:xlink="http://www.w3.org/1999/xlink" x="0px" y="0px"
	 viewBox="0 0 4096 2048" style="enable-background:new 0 0 4096 2048;" xml:space="preserve">
<style type="text/css">
	.st0{fill:url(#SVGID_1_);}
	.st1{fill:#DCDCDC;}
	.st2{fill:#333333;}
</style>
<g>
	
		<linearGradient id="SVGID_1_" gradientUnits="userSpaceOnUse" x1="2048" y1="1560.5" x2="2048" y2="3583.5" gradientTransform="matrix(1 0 0 -1 0 3596)">
		<stop  offset="0" style="stop-color:#E8E8E8"/>
		<stop  offset="1" style="stop-color:#F9F9F9"/>
	</linearGradient>
	<path class="st0" d="M50,2035.5c-20.7,0-37.5-16.8-37.5-37.5V50c0-20.7,16.8-37.5,37.5-37.5h3996c20.7,0,37.5,16.8,37.5,37.5v1948
		c0,20.7-16.8,37.5-37.5,37.5H50z"/>
	<path class="st1" d="M4046,25c13.8,0,25,11.2,25,25v1948c0,13.8-11.2,25-25,25H50c-13.8,0-25-11.2-25-25V50c0-13.8,11.2-25,25-25
		H4046 M4046,0H50C22.5,0,0,22.5,0,50v1948c0,27.5,22.5,50,50,50h3996c27.5,0,50-22.5,50-50V50C4096,22.5,4073.5,0,4046,0L4046,0z"
		/>
</g>
<g>
	<path class="st2" d="M746.9,1739.3v72.9h-34.7v-186.5H769c12.7,0,23.6,1.3,32.7,3.9c9.1,2.6,16.5,6.3,22.3,11
		c5.8,4.7,10.1,10.4,12.8,17s4.1,13.8,4.1,21.7c0,6.3-0.9,12.2-2.8,17.8c-1.9,5.6-4.5,10.7-8,15.2c-3.5,4.6-7.8,8.6-12.9,12
		c-5.1,3.4-10.9,6.2-17.5,8.3c4.4,2.5,8.2,6.1,11.4,10.7l46.7,68.9h-31.2c-3,0-5.6-0.6-7.7-1.8c-2.1-1.2-3.9-2.9-5.4-5.2l-39.2-59.7
		c-1.5-2.2-3.1-3.8-4.8-4.8c-1.8-0.9-4.4-1.4-7.8-1.4H746.9z M746.9,1714.4h21.7c6.5,0,12.2-0.8,17.1-2.5c4.9-1.6,8.9-3.9,12-6.8
		c3.1-2.9,5.5-6.3,7-10.3c1.5-4,2.3-8.3,2.3-13c0-9.5-3.1-16.7-9.4-21.8c-6.2-5.1-15.8-7.6-28.6-7.6h-22.2V1714.4z"/>
	<path class="st2" d="M932.9,1677.8c8.3,0,16,1.3,23,4c7,2.7,13,6.6,18.1,11.7c5.1,5.1,9,11.4,11.9,18.8c2.8,7.4,4.3,15.9,4.3,25.5
		c0,2.4-0.1,4.4-0.3,6c-0.2,1.6-0.6,2.8-1.2,3.7c-0.6,0.9-1.3,1.5-2.3,1.9c-0.9,0.4-2.2,0.6-3.6,0.6H901c0.9,13.6,4.6,23.6,11,29.9
		c6.4,6.4,14.8,9.5,25.3,9.5c5.2,0,9.6-0.6,13.4-1.8c3.7-1.2,7-2.5,9.8-4c2.8-1.5,5.2-2.8,7.4-4c2.1-1.2,4.1-1.8,6.1-1.8
		c1.3,0,2.4,0.3,3.4,0.8c0.9,0.5,1.8,1.2,2.5,2.2l9.3,11.6c-3.5,4.1-7.5,7.6-11.9,10.4c-4.4,2.8-9,5-13.7,6.7s-9.6,2.9-14.6,3.5
		c-4.9,0.7-9.7,1-14.4,1c-9.2,0-17.8-1.5-25.7-4.6c-7.9-3.1-14.8-7.6-20.6-13.5c-5.8-6-10.4-13.4-13.8-22.2c-3.4-8.8-5-19-5-30.6
		c0-9,1.5-17.5,4.4-25.5c2.9-8,7.1-14.9,12.6-20.8c5.5-5.9,12.1-10.6,20-14C914.1,1679.5,923,1677.8,932.9,1677.8z M933.5,1700.6
		c-9.3,0-16.6,2.6-21.8,7.9c-5.2,5.2-8.6,12.7-10.1,22.3h59.9c0-4.1-0.6-8-1.7-11.7c-1.1-3.7-2.8-6.9-5.2-9.6
		c-2.3-2.8-5.2-4.9-8.8-6.5C942.4,1701.4,938.2,1700.6,933.5,1700.6z"/>
	<path class="st2" d="M1061.9,1677.5c5.7,0,11,0.6,16,1.7c5,1.2,9.5,2.9,13.7,5.1h38.1v11.9c0,2-0.5,3.5-1.5,4.6
		c-1,1.1-2.8,1.9-5.3,2.3l-11.9,2.2c0.9,2.2,1.5,4.6,2,7.1c0.5,2.5,0.7,5.1,0.7,7.9c0,6.5-1.3,12.4-3.9,17.7
		c-2.6,5.3-6.2,9.8-10.8,13.5c-4.6,3.7-10.1,6.6-16.4,8.6c-6.3,2-13.2,3-20.6,3c-5,0-9.8-0.5-14.6-1.4c-4.1,2.5-6.2,5.3-6.2,8.4
		c0,2.7,1.2,4.7,3.7,5.9c2.5,1.3,5.7,2.1,9.7,2.7c4,0.5,8.5,0.8,13.6,0.8c5.1,0,10.3,0.2,15.6,0.6c5.3,0.4,10.5,1.2,15.6,2.3
		c5.1,1.1,9.6,2.8,13.6,5.1c4,2.3,7.2,5.5,9.7,9.5c2.5,4,3.7,9.2,3.7,15.5c0,5.9-1.4,11.6-4.3,17.1c-2.9,5.5-7.1,10.4-12.5,14.8
		c-5.5,4.3-12.1,7.8-20.1,10.4c-7.9,2.6-16.9,3.9-27.1,3.9c-10.1,0-18.8-1-26.2-2.9c-7.4-1.9-13.5-4.5-18.4-7.7
		c-4.9-3.2-8.5-6.9-10.9-11.2c-2.4-4.2-3.6-8.6-3.6-13.2c0-6.2,1.9-11.4,5.7-15.6c3.8-4.2,9-7.6,15.7-10.1c-3.3-1.8-5.9-4.2-7.9-7.2
		c-2-3-3-6.9-3-11.7c0-2,0.3-4,1-6.1c0.7-2.1,1.7-4.2,3.2-6.3c1.4-2.1,3.2-4,5.4-5.9c2.1-1.8,4.7-3.5,7.6-5
		c-6.7-3.6-12-8.4-15.8-14.4c-3.8-6-5.7-13.1-5.7-21.2c0-6.5,1.3-12.4,3.9-17.7c2.6-5.3,6.3-9.8,11-13.5c4.7-3.7,10.2-6.6,16.6-8.6
		C1047.3,1678.5,1054.3,1677.5,1061.9,1677.5z M1096.8,1817.8c0-2.6-0.8-4.8-2.3-6.5c-1.5-1.7-3.7-3-6.3-3.9c-2.7-0.9-5.8-1.6-9.4-2
		c-3.6-0.4-7.4-0.7-11.4-0.7s-8.1,0-12.4,0c-4.3,0-8.4-0.5-12.3-1.4c-3.6,2-6.5,4.3-8.7,7s-3.3,5.8-3.3,9.4c0,2.3,0.6,4.5,1.7,6.5
		c1.2,2,3,3.8,5.5,5.2c2.5,1.5,5.8,2.6,9.9,3.4c4,0.8,9,1.2,14.8,1.2c5.9,0,11-0.5,15.4-1.4c4.3-0.9,7.8-2.2,10.6-3.8
		c2.8-1.6,4.8-3.6,6.1-5.8C1096.2,1822.8,1096.8,1820.4,1096.8,1817.8z M1061.9,1742.8c4,0,7.4-0.5,10.3-1.6
		c2.9-1.1,5.4-2.6,7.3-4.5c1.9-1.9,3.4-4.2,4.4-6.8c1-2.7,1.5-5.6,1.5-8.8c0-6.5-2-11.7-5.9-15.5c-3.9-3.8-9.8-5.7-17.6-5.7
		c-7.8,0-13.7,1.9-17.6,5.7c-3.9,3.8-5.9,9-5.9,15.5c0,3.1,0.5,6,1.5,8.6c1,2.7,2.5,5,4.4,6.9c1.9,1.9,4.4,3.4,7.4,4.5
		C1054.6,1742.3,1058,1742.8,1061.9,1742.8z"/>
	<path class="st2" d="M1188.3,1641.3c0,2.8-0.6,5.3-1.7,7.7c-1.1,2.4-2.6,4.5-4.5,6.3c-1.9,1.8-4,3.2-6.5,4.3
		c-2.5,1.1-5.2,1.6-8,1.6c-2.8,0-5.4-0.5-7.8-1.6c-2.5-1.1-4.6-2.5-6.4-4.3c-1.8-1.8-3.2-3.9-4.3-6.3c-1.1-2.4-1.6-5-1.6-7.7
		c0-2.8,0.5-5.5,1.6-8c1.1-2.5,2.5-4.6,4.3-6.5s3.9-3.2,6.4-4.3c2.5-1.1,5.1-1.6,7.8-1.6c2.8,0,5.5,0.5,8,1.6
		c2.5,1.1,4.7,2.5,6.5,4.3c1.8,1.8,3.3,4,4.5,6.5C1187.7,1635.8,1188.3,1638.4,1188.3,1641.3z M1183.5,1679.8v132.4h-31.9v-132.4
		H1183.5z"/>
	<path class="st2" d="M1298.1,1705.6c-0.9,1.4-1.8,2.3-2.7,2.9c-0.9,0.6-2.2,0.8-3.6,0.8c-1.5,0-3.2-0.4-5-1.3
		c-1.8-0.9-3.8-1.8-6.1-2.9c-2.3-1.1-5-2-7.9-2.9c-3-0.9-6.5-1.3-10.5-1.3c-6.3,0-11.2,1.3-14.8,4c-3.6,2.7-5.4,6.1-5.4,10.4
		c0,2.8,0.9,5.2,2.8,7.2c1.8,1.9,4.3,3.6,7.4,5.1c3.1,1.5,6.5,2.8,10.4,3.9c3.9,1.2,7.8,2.4,11.9,3.8c4,1.4,8,2.9,11.9,4.7
		c3.9,1.8,7.3,4,10.4,6.7c3.1,2.7,5.5,6,7.4,9.7c1.8,3.8,2.8,8.3,2.8,13.7c0,6.4-1.2,12.2-3.5,17.6c-2.3,5.4-5.7,10-10.2,13.9
		c-4.5,3.9-10,7-16.6,9.2s-14.1,3.3-22.6,3.3c-4.6,0-9-0.4-13.4-1.2c-4.3-0.8-8.5-2-12.5-3.4c-4-1.5-7.7-3.2-11.1-5.2
		c-3.4-2-6.4-4.1-9-6.5l7.4-12.1c0.9-1.5,2.1-2.6,3.4-3.4c1.3-0.8,2.9-1.2,4.9-1.2c2,0,3.8,0.6,5.6,1.7c1.8,1.1,3.8,2.3,6.1,3.6
		c2.3,1.3,5.1,2.5,8.2,3.6c3.1,1.1,7.1,1.7,11.9,1.7c3.8,0,7-0.5,9.7-1.4s4.9-2.1,6.7-3.5c1.8-1.5,3.1-3.2,3.9-5.1
		c0.8-1.9,1.2-3.9,1.2-6c0-3.1-0.9-5.6-2.8-7.6c-1.9-2-4.3-3.7-7.4-5.2c-3.1-1.5-6.5-2.8-10.4-3.9c-3.9-1.2-7.9-2.4-12-3.8
		c-4.1-1.4-8.1-3-12-4.8c-3.9-1.8-7.4-4.2-10.4-7c-3.1-2.8-5.5-6.3-7.4-10.4c-1.9-4.1-2.8-9.1-2.8-15c0-5.4,1.1-10.6,3.2-15.5
		c2.1-4.9,5.3-9.2,9.5-12.8c4.2-3.7,9.4-6.6,15.6-8.8c6.2-2.2,13.4-3.3,21.6-3.3c9.1,0,17.4,1.5,24.9,4.5c7.5,3,13.7,7,18.7,11.9
		L1298.1,1705.6z"/>
	<path class="st2" d="M1375.7,1814.3c-11.4,0-20.3-3.2-26.4-9.7c-6.2-6.5-9.3-15.5-9.3-26.9v-73.9h-13.4c-1.7,0-3.2-0.6-4.5-1.7
		c-1.2-1.1-1.9-2.8-1.9-5v-12.6l21.3-3.5l6.7-36.1c0.3-1.7,1.1-3.1,2.4-4c1.2-0.9,2.8-1.4,4.7-1.4h16.5v41.7h34.8v22.7h-34.8v71.7
		c0,4.1,1,7.4,3.1,9.7c2.1,2.3,4.8,3.5,8.3,3.5c2,0,3.6-0.2,5-0.7c1.3-0.5,2.5-1,3.5-1.5c1-0.5,1.9-1,2.6-1.5
		c0.8-0.5,1.5-0.7,2.3-0.7c0.9,0,1.7,0.2,2.3,0.7c0.6,0.5,1.2,1.2,1.9,2.1l9.5,15.5c-4.6,3.9-10,6.8-16,8.8
		C1388.4,1813.3,1382.2,1814.3,1375.7,1814.3z"/>
	<path class="st2" d="M1432.1,1812.2v-132.4h18.7c3.3,0,5.5,0.6,6.8,1.8c1.3,1.2,2.1,3.3,2.6,6.2l1.9,16
		c4.7-8.2,10.3-14.6,16.6-19.3c6.4-4.7,13.5-7.1,21.4-7.1c6.5,0,12,1.5,16.3,4.5l-4.1,23.9c-0.3,1.5-0.8,2.6-1.7,3.3
		c-0.9,0.6-2,1-3.5,1c-1.3,0-3.1-0.3-5.3-0.9c-2.2-0.6-5.2-0.9-8.9-0.9c-6.6,0-12.3,1.8-17,5.5c-4.7,3.7-8.7,9-12,16.1v82.4H1432.1z
		"/>
	<path class="st2" d="M1592.2,1677.8c8.3,0,16,1.3,23,4c7,2.7,13,6.6,18.1,11.7c5.1,5.1,9,11.4,11.9,18.8c2.8,7.4,4.3,15.9,4.3,25.5
		c0,2.4-0.1,4.4-0.3,6c-0.2,1.6-0.6,2.8-1.2,3.7c-0.6,0.9-1.3,1.5-2.3,1.9c-0.9,0.4-2.2,0.6-3.6,0.6h-81.8
		c0.9,13.6,4.6,23.6,11,29.9c6.4,6.4,14.8,9.5,25.3,9.5c5.2,0,9.6-0.6,13.4-1.8c3.7-1.2,7-2.5,9.8-4c2.8-1.5,5.2-2.8,7.4-4
		c2.1-1.2,4.1-1.8,6.1-1.8c1.3,0,2.4,0.3,3.4,0.8c0.9,0.5,1.8,1.2,2.5,2.2l9.3,11.6c-3.5,4.1-7.5,7.6-11.9,10.4
		c-4.4,2.8-9,5-13.7,6.7c-4.8,1.7-9.6,2.9-14.6,3.5c-4.9,0.7-9.7,1-14.4,1c-9.2,0-17.8-1.5-25.7-4.6c-7.9-3.1-14.8-7.6-20.6-13.5
		c-5.8-6-10.4-13.4-13.8-22.2c-3.4-8.8-5-19-5-30.6c0-9,1.5-17.5,4.4-25.5c2.9-8,7.1-14.9,12.6-20.8c5.5-5.9,12.1-10.6,20-14
		C1573.4,1679.5,1582.3,1677.8,1592.2,1677.8z M1592.8,1700.6c-9.3,0-16.6,2.6-21.8,7.9c-5.2,5.2-8.6,12.7-10.1,22.3h59.9
		c0-4.1-0.6-8-1.7-11.7c-1.1-3.7-2.8-6.9-5.2-9.6c-2.3-2.8-5.2-4.9-8.8-6.5C1601.7,1701.4,1597.6,1700.6,1592.8,1700.6z"/>
	<path class="st2" d="M1725.2,1855.4v-175.6h19.5c2.1,0,3.8,0.5,5.3,1.4c1.5,0.9,2.4,2.4,2.8,4.4l2.6,12.3
		c5.3-6.1,11.5-11,18.4-14.8c6.9-3.8,15-5.7,24.3-5.7c7.2,0,13.8,1.5,19.8,4.5c6,3,11.1,7.4,15.5,13.1c4.3,5.7,7.7,12.8,10.1,21.2
		c2.4,8.4,3.5,18,3.5,28.8c0,9.9-1.3,19-4,27.5c-2.7,8.4-6.5,15.7-11.4,21.9c-4.9,6.2-10.9,11-17.9,14.5c-7,3.5-14.9,5.2-23.5,5.2
		c-7.5,0-13.8-1.1-19-3.4c-5.2-2.3-9.9-5.4-14-9.5v54.2H1725.2z M1787.1,1702.5c-6.6,0-12.3,1.4-17,4.2c-4.7,2.8-9.1,6.7-13.1,11.8
		v59.3c3.6,4.5,7.5,7.6,11.8,9.4c4.3,1.8,8.8,2.6,13.7,2.6c4.8,0,9.2-0.9,13.1-2.7c3.9-1.8,7.2-4.6,9.9-8.3c2.7-3.7,4.8-8.4,6.3-14
		c1.5-5.6,2.2-12.3,2.2-19.9c0-7.7-0.6-14.3-1.9-19.7c-1.2-5.4-3-9.7-5.4-13.1c-2.3-3.4-5.1-5.8-8.4-7.4
		C1795.1,1703.3,1791.3,1702.5,1787.1,1702.5z"/>
	<path class="st2" d="M1871.1,1812.2v-191.7h31.9v73.7c5.2-4.9,10.8-8.9,17-11.9c6.2-3,13.5-4.5,21.8-4.5c7.2,0,13.6,1.2,19.2,3.7
		c5.6,2.5,10.3,5.9,14,10.3c3.7,4.4,6.6,9.7,8.5,15.9c1.9,6.1,2.9,12.9,2.9,20.3v84.2h-31.9V1728c0-8.1-1.9-14.3-5.6-18.8
		c-3.7-4.4-9.4-6.6-16.8-6.6c-5.5,0-10.7,1.2-15.5,3.7c-4.8,2.5-9.4,5.9-13.7,10.2v95.7H1871.1z"/>
	<path class="st2" d="M2060.1,1848.6c-0.9,2.2-2.2,3.9-3.7,5.1c-1.5,1.2-3.8,1.7-6.9,1.7h-23.7l24.8-53l-53.5-122.5h27.9
		c2.6,0,4.6,0.6,5.9,1.8c1.4,1.2,2.4,2.6,3.1,4.1l28.3,68.6c0.9,2.2,1.8,4.6,2.5,7c0.7,2.4,1.3,4.8,1.8,7.2c0.7-2.5,1.4-4.9,2.3-7.2
		c0.8-2.3,1.7-4.7,2.6-7.1l26.6-68.5c0.7-1.7,1.8-3.1,3.4-4.3c1.6-1.1,3.4-1.7,5.4-1.7h25.5L2060.1,1848.6z"/>
	<path class="st2" d="M2194.2,1814.3c-11.4,0-20.3-3.2-26.4-9.7c-6.2-6.5-9.3-15.5-9.3-26.9v-73.9h-13.4c-1.7,0-3.2-0.6-4.5-1.7
		c-1.2-1.1-1.9-2.8-1.9-5v-12.6l21.3-3.5l6.7-36.1c0.3-1.7,1.1-3.1,2.4-4c1.2-0.9,2.8-1.4,4.7-1.4h16.5v41.7h34.8v22.7h-34.8v71.7
		c0,4.1,1,7.4,3.1,9.7c2.1,2.3,4.8,3.5,8.3,3.5c2,0,3.6-0.2,5-0.7c1.3-0.5,2.5-1,3.5-1.5c1-0.5,1.9-1,2.6-1.5
		c0.8-0.5,1.5-0.7,2.3-0.7c0.9,0,1.7,0.2,2.3,0.7c0.6,0.5,1.2,1.2,1.9,2.1l9.5,15.5c-4.6,3.9-10,6.8-16,8.8
		C2206.9,1813.3,2200.7,1814.3,2194.2,1814.3z"/>
	<path class="st2" d="M2307.1,1677.8c9.9,0,18.9,1.6,26.9,4.8c8,3.2,14.9,7.7,20.6,13.5c5.7,5.8,10.1,13,13.2,21.4
		c3.1,8.4,4.6,17.8,4.6,28.3c0,10.5-1.5,20-4.6,28.4c-3.1,8.4-7.5,15.6-13.2,21.5c-5.7,5.9-12.5,10.5-20.6,13.7
		c-8,3.2-17,4.8-26.9,4.8c-9.9,0-18.9-1.6-27-4.8c-8.1-3.2-15-7.7-20.7-13.7c-5.7-5.9-10.1-13.1-13.3-21.5
		c-3.1-8.4-4.7-17.9-4.7-28.4c0-10.4,1.6-19.8,4.7-28.3c3.1-8.4,7.6-15.6,13.3-21.4c5.7-5.8,12.6-10.4,20.7-13.5
		C2288.2,1679.4,2297.2,1677.8,2307.1,1677.8z M2307.1,1789.6c11,0,19.2-3.7,24.4-11.1c5.3-7.4,7.9-18.2,7.9-32.5
		c0-14.3-2.6-25.2-7.9-32.6c-5.3-7.5-13.4-11.2-24.4-11.2c-11.2,0-19.4,3.8-24.8,11.3c-5.3,7.5-8,18.4-8,32.6c0,14.2,2.7,25,8,32.4
		C2287.7,1785.9,2295.9,1789.6,2307.1,1789.6z"/>
	<path class="st2" d="M2475.8,1705.6c-0.9,1.4-1.8,2.3-2.7,2.9c-0.9,0.6-2.2,0.8-3.6,0.8c-1.5,0-3.2-0.4-5-1.3
		c-1.8-0.9-3.8-1.8-6.1-2.9c-2.3-1.1-5-2-7.9-2.9c-3-0.9-6.5-1.3-10.5-1.3c-6.3,0-11.2,1.3-14.8,4c-3.6,2.7-5.4,6.1-5.4,10.4
		c0,2.8,0.9,5.2,2.8,7.2c1.8,1.9,4.3,3.6,7.4,5.1c3.1,1.5,6.5,2.8,10.4,3.9s7.8,2.4,11.9,3.8c4,1.4,8,2.9,11.9,4.7
		c3.9,1.8,7.3,4,10.4,6.7c3.1,2.7,5.5,6,7.4,9.7c1.8,3.8,2.8,8.3,2.8,13.7c0,6.4-1.2,12.2-3.5,17.6c-2.3,5.4-5.7,10-10.2,13.9
		c-4.5,3.9-10,7-16.6,9.2s-14.1,3.3-22.6,3.3c-4.6,0-9-0.4-13.4-1.2c-4.3-0.8-8.5-2-12.5-3.4c-4-1.5-7.7-3.2-11.1-5.2
		c-3.4-2-6.4-4.1-9-6.5l7.4-12.1c0.9-1.5,2.1-2.6,3.4-3.4c1.3-0.8,2.9-1.2,4.9-1.2c2,0,3.8,0.6,5.6,1.7c1.8,1.1,3.8,2.3,6.1,3.6
		c2.3,1.3,5.1,2.5,8.2,3.6c3.1,1.1,7.1,1.7,11.9,1.7c3.8,0,7-0.5,9.7-1.4s4.9-2.1,6.7-3.5c1.8-1.5,3.1-3.2,3.9-5.1
		c0.8-1.9,1.2-3.9,1.2-6c0-3.1-0.9-5.6-2.8-7.6c-1.8-2-4.3-3.7-7.4-5.2c-3.1-1.5-6.5-2.8-10.4-3.9c-3.9-1.2-7.9-2.4-12-3.8
		c-4.1-1.4-8.1-3-12-4.8c-3.9-1.8-7.4-4.2-10.4-7c-3.1-2.8-5.5-6.3-7.4-10.4c-1.9-4.1-2.8-9.1-2.8-15c0-5.4,1.1-10.6,3.2-15.5
		c2.1-4.9,5.3-9.2,9.5-12.8c4.2-3.7,9.4-6.6,15.6-8.8c6.2-2.2,13.4-3.3,21.6-3.3c9.1,0,17.4,1.5,24.9,4.5c7.5,3,13.7,7,18.7,11.9
		L2475.8,1705.6z"/>
	<path class="st2" d="M2613.7,1812.2h-14.3c-3,0-5.4-0.5-7.1-1.4c-1.7-0.9-3-2.7-3.9-5.5l-2.8-9.4c-3.4,3-6.6,5.7-9.9,7.9
		c-3.2,2.3-6.6,4.2-10,5.7c-3.4,1.5-7.1,2.7-11,3.5c-3.9,0.8-8.2,1.2-12.9,1.2c-5.6,0-10.8-0.8-15.5-2.3c-4.7-1.5-8.8-3.8-12.2-6.8
		c-3.4-3-6-6.8-7.9-11.3c-1.9-4.5-2.8-9.7-2.8-15.7c0-5,1.3-9.9,3.9-14.8c2.6-4.9,7-9.3,13.1-13.2c6.1-3.9,14.2-7.2,24.4-9.8
		c10.1-2.6,22.7-3.9,37.8-3.9v-7.8c0-8.9-1.9-15.5-5.6-19.8c-3.7-4.3-9.2-6.4-16.3-6.4c-5.2,0-9.5,0.6-12.9,1.8
		c-3.4,1.2-6.4,2.6-9,4.1c-2.5,1.5-4.9,2.9-7,4.1c-2.2,1.2-4.5,1.8-7.1,1.8c-2.2,0-4-0.6-5.5-1.7c-1.5-1.1-2.8-2.5-3.7-4.1
		l-5.8-10.2c15.2-13.9,33.6-20.9,55.1-20.9c7.7,0,14.6,1.3,20.7,3.8c6.1,2.5,11.2,6.1,15.4,10.6c4.2,4.5,7.4,9.9,9.6,16.2
		c2.2,6.3,3.3,13.2,3.3,20.6V1812.2z M2551.8,1792.3c3.3,0,6.3-0.3,9-0.9c2.8-0.6,5.4-1.5,7.8-2.7c2.5-1.2,4.8-2.6,7.1-4.4
		c2.3-1.7,4.6-3.8,6.9-6.2v-22.2c-9.3,0-17.1,0.6-23.3,1.8c-6.2,1.2-11.2,2.7-15,4.5c-3.8,1.8-6.5,3.9-8.1,6.4
		c-1.6,2.4-2.4,5.1-2.4,7.9c0,5.6,1.7,9.7,5,12.1C2542.1,1791.1,2546.5,1792.3,2551.8,1792.3z"/>
	<path class="st2" d="M2645.1,1812.2v-132.4h19.5c4.1,0,6.8,1.9,8.1,5.8l2.2,10.4c2.7-2.8,5.5-5.2,8.4-7.5c3-2.2,6.1-4.2,9.4-5.8
		c3.3-1.6,6.9-2.9,10.6-3.7c3.8-0.9,7.9-1.3,12.4-1.3c7.2,0,13.6,1.2,19.2,3.7c5.6,2.5,10.3,5.9,14,10.3c3.7,4.4,6.6,9.7,8.5,15.9
		c1.9,6.1,2.9,12.9,2.9,20.3v84.2h-31.9V1728c0-8.1-1.9-14.3-5.6-18.8c-3.7-4.4-9.4-6.6-16.8-6.6c-5.5,0-10.7,1.2-15.5,3.7
		c-4.8,2.5-9.4,5.9-13.7,10.2v95.7H2645.1z"/>
	<path class="st2" d="M2830.4,1641.3c0,2.8-0.6,5.3-1.7,7.7c-1.1,2.4-2.6,4.5-4.5,6.3c-1.9,1.8-4,3.2-6.5,4.3
		c-2.5,1.1-5.2,1.6-8,1.6c-2.8,0-5.4-0.5-7.8-1.6c-2.5-1.1-4.6-2.5-6.4-4.3c-1.8-1.8-3.2-3.9-4.3-6.3c-1.1-2.4-1.6-5-1.6-7.7
		c0-2.8,0.5-5.5,1.6-8c1.1-2.5,2.5-4.6,4.3-6.5c1.8-1.8,3.9-3.2,6.4-4.3c2.5-1.1,5.1-1.6,7.8-1.6c2.8,0,5.5,0.5,8,1.6
		c2.5,1.1,4.7,2.5,6.5,4.3c1.8,1.8,3.3,4,4.5,6.5C2829.9,1635.8,2830.4,1638.4,2830.4,1641.3z M2825.7,1679.8v132.4h-31.9v-132.4
		H2825.7z"/>
	<path class="st2" d="M2905.1,1814.3c-11.4,0-20.3-3.2-26.4-9.7c-6.2-6.5-9.3-15.5-9.3-26.9v-73.9H2856c-1.7,0-3.2-0.6-4.5-1.7
		c-1.2-1.1-1.9-2.8-1.9-5v-12.6l21.3-3.5l6.7-36.1c0.3-1.7,1.1-3.1,2.4-4c1.2-0.9,2.8-1.4,4.7-1.4h16.5v41.7h34.8v22.7h-34.8v71.7
		c0,4.1,1,7.4,3.1,9.7c2.1,2.3,4.8,3.5,8.3,3.5c2,0,3.6-0.2,5-0.7c1.3-0.5,2.5-1,3.5-1.5c1-0.5,1.9-1,2.6-1.5
		c0.8-0.5,1.5-0.7,2.3-0.7c0.9,0,1.7,0.2,2.3,0.7c0.6,0.5,1.2,1.2,1.9,2.1l9.5,15.5c-4.6,3.9-10,6.8-16,8.8
		C2917.8,1813.3,2911.6,1814.3,2905.1,1814.3z"/>
	<path class="st2" d="M3065.2,1812.2h-14.3c-3,0-5.4-0.5-7.1-1.4c-1.7-0.9-3-2.7-3.9-5.5l-2.8-9.4c-3.4,3-6.6,5.7-9.9,7.9
		c-3.2,2.3-6.6,4.2-10,5.7c-3.4,1.5-7.1,2.7-11,3.5c-3.9,0.8-8.2,1.2-12.9,1.2c-5.6,0-10.8-0.8-15.5-2.3c-4.7-1.5-8.8-3.8-12.2-6.8
		c-3.4-3-6-6.8-7.9-11.3c-1.9-4.5-2.8-9.7-2.8-15.7c0-5,1.3-9.9,3.9-14.8c2.6-4.9,7-9.3,13.1-13.2c6.1-3.9,14.2-7.2,24.4-9.8
		c10.1-2.6,22.7-3.9,37.8-3.9v-7.8c0-8.9-1.9-15.5-5.6-19.8c-3.7-4.3-9.2-6.4-16.3-6.4c-5.2,0-9.5,0.6-12.9,1.8
		c-3.4,1.2-6.4,2.6-9,4.1c-2.5,1.5-4.9,2.9-7,4.1c-2.2,1.2-4.5,1.8-7.1,1.8c-2.2,0-4-0.6-5.5-1.7c-1.5-1.1-2.8-2.5-3.7-4.1
		l-5.8-10.2c15.2-13.9,33.6-20.9,55.1-20.9c7.7,0,14.6,1.3,20.7,3.8c6.1,2.5,11.2,6.1,15.4,10.6c4.2,4.5,7.4,9.9,9.6,16.2
		c2.2,6.3,3.3,13.2,3.3,20.6V1812.2z M3003.3,1792.3c3.3,0,6.3-0.3,9-0.9c2.8-0.6,5.4-1.5,7.8-2.7c2.5-1.2,4.8-2.6,7.1-4.4
		c2.3-1.7,4.6-3.8,6.9-6.2v-22.2c-9.3,0-17.1,0.6-23.3,1.8c-6.2,1.2-11.2,2.7-15,4.5c-3.8,1.8-6.5,3.9-8.1,6.4
		c-1.6,2.4-2.4,5.1-2.4,7.9c0,5.6,1.7,9.7,5,12.1C2993.6,1791.1,2998,1792.3,3003.3,1792.3z"/>
	<path class="st2" d="M3135.3,1641.3c0,2.8-0.6,5.3-1.7,7.7c-1.1,2.4-2.6,4.5-4.5,6.3c-1.9,1.8-4,3.2-6.5,4.3
		c-2.5,1.1-5.2,1.6-8,1.6c-2.8,0-5.4-0.5-7.8-1.6c-2.5-1.1-4.6-2.5-6.4-4.3c-1.8-1.8-3.2-3.9-4.3-6.3c-1.1-2.4-1.6-5-1.6-7.7
		c0-2.8,0.5-5.5,1.6-8c1.1-2.5,2.5-4.6,4.3-6.5c1.8-1.8,3.9-3.2,6.4-4.3c2.5-1.1,5.1-1.6,7.8-1.6c2.8,0,5.5,0.5,8,1.6
		c2.5,1.1,4.7,2.5,6.5,4.3c1.8,1.8,3.3,4,4.5,6.5C3134.7,1635.8,3135.3,1638.4,3135.3,1641.3z M3130.5,1679.8v132.4h-31.9v-132.4
		H3130.5z"/>
	<path class="st2" d="M3166.5,1812.2v-132.4h18.7c3.3,0,5.5,0.6,6.8,1.8c1.3,1.2,2.1,3.3,2.6,6.2l1.9,16
		c4.7-8.2,10.3-14.6,16.6-19.3c6.4-4.7,13.5-7.1,21.4-7.1c6.5,0,12,1.5,16.3,4.5l-4.1,23.9c-0.3,1.5-0.8,2.6-1.7,3.3
		c-0.9,0.6-2,1-3.5,1c-1.3,0-3.1-0.3-5.3-0.9c-2.2-0.6-5.2-0.9-8.9-0.9c-6.6,0-12.3,1.8-17,5.5c-4.7,3.7-8.7,9-12,16.1v82.4H3166.5z
		"/>
	<path class="st2" d="M3326.6,1677.8c8.3,0,16,1.3,23,4c7,2.7,13,6.6,18.1,11.7c5.1,5.1,9,11.4,11.9,18.8c2.8,7.4,4.3,15.9,4.3,25.5
		c0,2.4-0.1,4.4-0.3,6c-0.2,1.6-0.6,2.8-1.2,3.7c-0.6,0.9-1.3,1.5-2.3,1.9c-0.9,0.4-2.2,0.6-3.6,0.6h-81.8
		c0.9,13.6,4.6,23.6,11,29.9c6.4,6.4,14.8,9.5,25.3,9.5c5.2,0,9.6-0.6,13.4-1.8c3.7-1.2,7-2.5,9.8-4c2.8-1.5,5.2-2.8,7.4-4
		c2.1-1.2,4.1-1.8,6.1-1.8c1.3,0,2.4,0.3,3.4,0.8c0.9,0.5,1.8,1.2,2.5,2.2l9.3,11.6c-3.5,4.1-7.5,7.6-11.9,10.4
		c-4.4,2.8-9,5-13.7,6.7c-4.8,1.7-9.6,2.9-14.6,3.5c-4.9,0.7-9.7,1-14.4,1c-9.2,0-17.8-1.5-25.7-4.6c-7.9-3.1-14.8-7.6-20.6-13.5
		c-5.8-6-10.4-13.4-13.8-22.2c-3.4-8.8-5-19-5-30.6c0-9,1.5-17.5,4.4-25.5c2.9-8,7.1-14.9,12.6-20.8c5.5-5.9,12.1-10.6,20-14
		C3307.8,1679.5,3316.7,1677.8,3326.6,1677.8z M3327.2,1700.6c-9.3,0-16.6,2.6-21.8,7.9c-5.2,5.2-8.6,12.7-10.1,22.3h59.9
		c0-4.1-0.6-8-1.7-11.7c-1.1-3.7-2.8-6.9-5.2-9.6c-2.3-2.8-5.2-4.9-8.8-6.5C3336.1,1701.4,3331.9,1700.6,3327.2,1700.6z"/>
</g>
<path class="st2" d="M2545.7,1229.1c53.8,85.2,15.8,154.8-85.2,154.8h-824.9c-101,0-139-69.6-85.2-154.8l360.1-567.8V375.7h-45.8
	c-25,0-45.8-20.8-45.8-45.9s20.8-45.8,45.8-45.8h366.6c25.2,0,45.9,20.8,45.9,45.8c0,25-20.8,45.9-45.9,45.9h-45.8v285.7
	L2545.7,1229.1z M1987.9,710.1l-194.8,307.2h509.8l-194.7-307.2l-14.4-22.2v-26.6V375.7h-91.6v285.7v26.6L1987.9,710.1z"/>
</svg>
