<?xml version="1.0" encoding="utf-8"?>
<!-- Generator: Adobe Illustrator 24.3.0, SVG Export Plug-In . SVG Version: 6.00 Build 0)  -->
<svg version="1.1" id="Calque_1" xmlns="http://www.w3.org/2000/svg" xmlns:xlink="http://www.w3.org/1999/xlink" x="0px" y="0px"
	 viewBox="0 0 2043.4 292" style="enable-background:new 0 0 2043.4 292;" xml:space="preserve">
<style type="text/css">
	.st0{fill:url(#SVGID_1_);}
	.st1{fill:url(#SVGID_2_);}
	.st2{fill:#FFFFFF;}
	.st3{fill:#333333;}
</style>
<g>
	
		<linearGradient id="SVGID_1_" gradientUnits="userSpaceOnUse" x1="1688.3" y1="-1140" x2="1688.3" y2="-848" gradientTransform="matrix(-1 0 0 -1 2710 -848)">
		<stop  offset="0" style="stop-color:#BBBBBB"/>
		<stop  offset="1" style="stop-color:#DCDCDC"/>
	</linearGradient>
	<path class="st0" d="M25,282c-8,0-15-7-15-15V25c0-8,7-15,15-15h1993.5c8,0,15,7,15,15v242c0,8-7,15-15,15H25z M2018.4,292
		c14,0,25-11,25-25V25c0-14-11-25-25-25H25C11,0,0,11,0,25v242c0,14,11,25,25,25H2018.4z"/>
</g>
<linearGradient id="SVGID_2_" gradientUnits="userSpaceOnUse" x1="1688.25" y1="900" x2="1688.25" y2="628" gradientTransform="matrix(-1 0 0 1 2710 -618)">
	<stop  offset="0" style="stop-color:#E8E8E8"/>
	<stop  offset="1" style="stop-color:#F9F9F9"/>
</linearGradient>
<path class="st1" d="M25,282c-8,0-15-7-15-15V25c0-8,7-15,15-15h1993.5c8,0,15,7,15,15v242c0,8-7,15-15,15H25z"/>
<path class="st2" d="M110.6,202.8h66.9v-19.1h-66.9V202.8L110.6,202.8z M110.6,155h66.9v-28.7h-11.9c-4,0-7.2-3.2-7.2-7.2v-11.9
	h-47.8L110.6,155L110.6,155z M196.6,159.8c0-2.6-2.2-4.8-4.8-4.8s-4.8,2.2-4.8,4.8s2.2,4.8,4.8,4.8
	C194.5,164.5,196.6,162.4,196.6,159.8z M206.2,159.8v31.1c0,1.3-1.1,2.4-2.4,2.4h-16.7v11.9c0,4-3.2,7.2-7.2,7.2h-71.7
	c-3.9,0-7.2-3.2-7.2-7.2v-11.9H84.3c-1.3,0-2.4-1.1-2.4-2.4v-31.1c0-7.8,6.5-14.3,14.3-14.3h4.8v-40.7c0-4,3.2-7.2,7.2-7.2h50.2
	c4,0,9.4,2.2,12.2,5.1L182,114c2.8,2.8,5.1,8.3,5.1,12.2v19.1h4.8C199.7,145.4,206.2,151.9,206.2,159.8L206.2,159.8z"/>
<path class="st2" d="M1984,134.6c0,1.4-0.6,2.7-1.6,3.7l-36.8,36.8c-1,1-2.3,1.6-3.7,1.6s-2.7-0.6-3.7-1.6l-36.8-36.8
	c-1-1-1.6-2.3-1.6-3.7c0-2.9,2.4-5.3,5.2-5.3h73.5C1981.6,129.4,1984,131.8,1984,134.6z"/>
<path class="st3" d="M100.6,192.8h66.9v-19.1h-66.9V192.8L100.6,192.8z M100.6,145h66.9v-28.7h-11.9c-4,0-7.2-3.2-7.2-7.2V97.2
	h-47.8L100.6,145L100.6,145z M186.6,149.8c0-2.6-2.2-4.8-4.8-4.8s-4.8,2.2-4.8,4.8s2.2,4.8,4.8,4.8
	C184.5,154.5,186.6,152.4,186.6,149.8z M196.2,149.8v31.1c0,1.3-1.1,2.4-2.4,2.4h-16.7v11.9c0,4-3.2,7.2-7.2,7.2H98.2
	c-3.9,0-7.2-3.2-7.2-7.2v-11.9H74.3c-1.3,0-2.4-1.1-2.4-2.4v-31.1c0-7.8,6.5-14.3,14.3-14.3H91V94.8c0-4,3.2-7.2,7.2-7.2h50.2
	c4,0,9.4,2.2,12.2,5.1L172,104c2.8,2.8,5.1,8.3,5.1,12.2v19.1h4.8C189.7,135.4,196.2,141.9,196.2,149.8L196.2,149.8z"/>
<path class="st3" d="M1974,124.6c0,1.4-0.6,2.7-1.6,3.7l-36.8,36.8c-1,1-2.3,1.6-3.7,1.6s-2.7-0.6-3.7-1.6l-36.8-36.8
	c-1-1-1.6-2.3-1.6-3.7c0-2.9,2.4-5.3,5.2-5.3h73.5C1971.6,119.4,1974,121.8,1974,124.6z"/>
<g>
	<path class="st2" d="M280.1,203.4V102.2H315c6.6,0,12.3,0.6,17,1.9s8.5,3.1,11.5,5.4c3,2.3,5.2,5.2,6.6,8.5s2.1,7,2.1,11.2
		c0,2.4-0.4,4.7-1.1,6.8c-0.7,2.2-1.8,4.2-3.3,6.1c-1.5,1.9-3.3,3.6-5.6,5.1c-2.3,1.5-5,2.8-8.1,3.9c13.9,3.1,20.9,10.6,20.9,22.5
		c0,4.3-0.8,8.3-2.4,11.9c-1.6,3.6-4,6.8-7.1,9.4c-3.1,2.6-7,4.7-11.5,6.2c-4.6,1.5-9.8,2.2-15.7,2.2H280.1z M298.9,146H314
		c6.4,0,11.2-1.2,14.6-3.5c3.3-2.3,5-6,5-11.1c0-5.3-1.5-9-4.5-11.3c-3-2.2-7.7-3.4-14-3.4h-16.1V146z M298.9,159v29.7H318
		c3.5,0,6.4-0.4,8.8-1.3c2.4-0.8,4.2-2,5.7-3.4c1.4-1.4,2.4-3,3.1-4.9c0.6-1.9,0.9-3.9,0.9-6c0-2.2-0.4-4.2-1.1-5.9
		c-0.7-1.8-1.8-3.2-3.3-4.5c-1.5-1.2-3.4-2.2-5.7-2.8c-2.3-0.7-5.2-1-8.5-1H298.9z"/>
	<path class="st2" d="M391.3,110.6c0,1.5-0.3,2.9-0.9,4.2c-0.6,1.3-1.4,2.5-2.4,3.4c-1,1-2.2,1.8-3.5,2.3c-1.4,0.6-2.8,0.9-4.3,0.9
		c-1.5,0-2.9-0.3-4.2-0.9c-1.3-0.6-2.5-1.4-3.5-2.3c-1-1-1.8-2.1-2.3-3.4c-0.6-1.3-0.9-2.7-0.9-4.2c0-1.5,0.3-3,0.9-4.3
		c0.6-1.4,1.4-2.5,2.3-3.5c1-1,2.1-1.8,3.5-2.3c1.3-0.6,2.7-0.9,4.2-0.9c1.5,0,3,0.3,4.3,0.9c1.4,0.6,2.5,1.4,3.5,2.3
		c1,1,1.8,2.1,2.4,3.5C391,107.7,391.3,109.1,391.3,110.6z M388.7,131.6v71.8h-17.3v-71.8H388.7z"/>
	<path class="st2" d="M426.7,99.4v104h-17.3v-104H426.7z"/>
	<path class="st2" d="M502.5,203.4h-7.8c-1.6,0-2.9-0.2-3.8-0.7c-0.9-0.5-1.6-1.5-2.1-3l-1.5-5.1c-1.8,1.6-3.6,3.1-5.4,4.3
		s-3.6,2.3-5.4,3.1c-1.9,0.8-3.9,1.5-6,1.9c-2.1,0.4-4.4,0.6-7,0.6c-3,0-5.8-0.4-8.4-1.2c-2.6-0.8-4.8-2-6.6-3.7
		c-1.8-1.6-3.3-3.7-4.3-6.1c-1-2.4-1.5-5.3-1.5-8.5c0-2.7,0.7-5.4,2.1-8c1.4-2.6,3.8-5,7.1-7.2c3.3-2.1,7.7-3.9,13.2-5.3
		c5.5-1.4,12.3-2.1,20.5-2.1v-4.2c0-4.8-1-8.4-3-10.8c-2-2.3-5-3.5-8.9-3.5c-2.8,0-5.1,0.3-7,1c-1.9,0.7-3.5,1.4-4.9,2.2
		c-1.4,0.8-2.6,1.6-3.8,2.2c-1.2,0.7-2.4,1-3.8,1c-1.2,0-2.2-0.3-3-0.9c-0.8-0.6-1.5-1.4-2-2.2l-3.2-5.5
		c8.3-7.6,18.2-11.3,29.9-11.3c4.2,0,7.9,0.7,11.2,2.1c3.3,1.4,6.1,3.3,8.4,5.7c2.3,2.5,4,5.4,5.2,8.8s1.8,7.1,1.8,11.2V203.4z
		 M468.9,192.6c1.8,0,3.4-0.2,4.9-0.5c1.5-0.3,2.9-0.8,4.2-1.4c1.3-0.6,2.6-1.4,3.8-2.4s2.5-2.1,3.7-3.3v-12c-5,0-9.3,0.3-12.6,1
		c-3.4,0.6-6.1,1.4-8.2,2.4c-2.1,1-3.5,2.1-4.4,3.5c-0.9,1.3-1.3,2.7-1.3,4.3c0,3.1,0.9,5.2,2.7,6.6
		C463.6,192,466,192.6,468.9,192.6z"/>
	<path class="st2" d="M519.5,203.4v-71.8h10.6c2.2,0,3.7,1.1,4.4,3.2l1.2,5.7c1.4-1.5,3-2.8,4.6-4.1s3.3-2.3,5.1-3.2
		c1.8-0.9,3.7-1.6,5.8-2c2.1-0.5,4.3-0.7,6.7-0.7c3.9,0,7.4,0.7,10.4,2c3,1.3,5.6,3.2,7.6,5.6s3.6,5.3,4.6,8.6c1,3.3,1.6,7,1.6,11
		v45.7h-17.3v-45.7c0-4.4-1-7.8-3-10.2c-2-2.4-5.1-3.6-9.1-3.6c-3,0-5.8,0.7-8.4,2c-2.6,1.4-5.1,3.2-7.4,5.5v51.9H519.5z"/>
	<path class="st2" d="M605.1,203.6c-0.4,1.1-1,2-1.6,2.8c-0.7,0.8-1.4,1.5-2.2,2c-0.8,0.5-1.7,0.9-2.7,1.2c-0.9,0.3-1.8,0.4-2.7,0.4
		h-7.3l40.9-104.6c0.8-2,1.9-3.5,3.4-4.5c1.5-1,3.3-1.6,5.4-1.6h7.3L605.1,203.6z"/>
	<path class="st2" d="M719.9,179.5c1,0,1.9,0.4,2.7,1.2l7.4,8c-4.1,5.1-9.2,9-15.2,11.7c-6,2.7-13.2,4.1-21.6,4.1
		c-7.5,0-14.3-1.3-20.3-3.9c-6-2.6-11.1-6.1-15.4-10.7c-4.2-4.6-7.5-10-9.8-16.4c-2.3-6.3-3.4-13.3-3.4-20.8
		c0-7.6,1.3-14.6,3.8-20.9c2.5-6.3,6.1-11.8,10.6-16.3c4.6-4.6,10-8.1,16.4-10.7c6.4-2.5,13.4-3.8,21.1-3.8c7.5,0,14.1,1.2,19.7,3.6
		c5.6,2.4,10.4,5.6,14.5,9.6l-6.3,8.8c-0.4,0.6-0.9,1-1.4,1.5c-0.6,0.4-1.4,0.6-2.4,0.6c-1.1,0-2.2-0.4-3.3-1.3s-2.5-1.8-4.3-2.7
		c-1.7-1-3.9-1.9-6.5-2.7s-6-1.3-10-1.3c-4.8,0-9.1,0.8-13.1,2.5c-4,1.7-7.4,4-10.3,7.1c-2.9,3.1-5.1,6.8-6.7,11.2
		c-1.6,4.4-2.4,9.4-2.4,14.9c0,5.7,0.8,10.8,2.4,15.2c1.6,4.4,3.8,8.2,6.5,11.2c2.8,3,6,5.4,9.7,7c3.7,1.6,7.7,2.4,12,2.4
		c2.6,0,4.9-0.1,7-0.4c2.1-0.3,4-0.7,5.7-1.3s3.4-1.4,5-2.3c1.6-1,3.1-2.1,4.7-3.5c0.5-0.4,1-0.8,1.5-1
		C718.7,179.7,719.3,179.5,719.9,179.5z"/>
	<path class="st2" d="M773.9,130.5c5.4,0,10.2,0.9,14.6,2.6c4.4,1.7,8.1,4.2,11.2,7.3c3.1,3.2,5.5,7,7.1,11.6
		c1.7,4.6,2.5,9.7,2.5,15.3c0,5.7-0.8,10.8-2.5,15.4c-1.7,4.6-4.1,8.5-7.1,11.7s-6.8,5.7-11.2,7.4c-4.4,1.7-9.2,2.6-14.6,2.6
		c-5.4,0-10.2-0.9-14.6-2.6s-8.1-4.2-11.2-7.4c-3.1-3.2-5.5-7.1-7.2-11.7c-1.7-4.6-2.6-9.7-2.6-15.4c0-5.6,0.9-10.8,2.6-15.3
		c1.7-4.6,4.1-8.4,7.2-11.6c3.1-3.2,6.8-5.6,11.2-7.3S768.5,130.5,773.9,130.5z M773.9,191.1c6,0,10.4-2,13.3-6s4.3-9.9,4.3-17.6
		c0-7.7-1.4-13.6-4.3-17.7c-2.9-4.1-7.3-6.1-13.3-6.1c-6.1,0-10.5,2-13.4,6.1c-2.9,4.1-4.3,10-4.3,17.7s1.4,13.6,4.3,17.6
		C763.3,189.1,767.8,191.1,773.9,191.1z"/>
	<path class="st2" d="M822.8,203.4v-71.8h10.6c2.2,0,3.7,1.1,4.4,3.2l1.1,5.3c1.3-1.4,2.6-2.7,4-3.9c1.4-1.2,2.8-2.2,4.4-3
		c1.6-0.8,3.2-1.5,5-2c1.8-0.5,3.8-0.7,5.9-0.7c4.5,0,8.2,1.2,11.2,3.7c2.9,2.4,5.1,5.7,6.5,9.8c1.1-2.4,2.5-4.4,4.2-6.1
		c1.7-1.7,3.5-3.1,5.5-4.2c2-1.1,4.1-1.9,6.4-2.4c2.3-0.5,4.5-0.8,6.8-0.8c4,0,7.5,0.6,10.6,1.8c3.1,1.2,5.7,3,7.8,5.3
		c2.1,2.3,3.7,5.2,4.8,8.5c1.1,3.4,1.6,7.2,1.6,11.5v45.7h-17.3v-45.7c0-4.6-1-8-3-10.3c-2-2.3-4.9-3.5-8.8-3.5
		c-1.8,0-3.4,0.3-4.9,0.9s-2.8,1.5-4,2.6c-1.1,1.1-2,2.6-2.7,4.3c-0.7,1.7-1,3.7-1,6v45.7h-17.4v-45.7c0-4.8-1-8.3-2.9-10.5
		c-1.9-2.2-4.8-3.3-8.6-3.3c-2.5,0-4.8,0.6-7,1.9s-4.2,2.9-6.1,5.1v52.6H822.8z"/>
	<path class="st2" d="M940.7,226.9v-95.3h10.6c1.1,0,2.1,0.3,2.9,0.8c0.8,0.5,1.3,1.3,1.5,2.4l1.4,6.7c2.9-3.3,6.2-6,10-8.1
		c3.8-2.1,8.2-3.1,13.2-3.1c3.9,0,7.5,0.8,10.7,2.5c3.2,1.6,6,4,8.4,7.1s4.2,6.9,5.5,11.5s1.9,9.8,1.9,15.6c0,5.4-0.7,10.3-2.2,14.9
		c-1.4,4.6-3.5,8.5-6.2,11.9c-2.7,3.4-5.9,6-9.7,7.9c-3.8,1.9-8.1,2.8-12.8,2.8c-4.1,0-7.5-0.6-10.3-1.9c-2.8-1.2-5.4-3-7.6-5.1
		v29.4H940.7z M974.3,143.9c-3.6,0-6.7,0.8-9.2,2.3c-2.5,1.5-4.9,3.7-7.1,6.4v32.2c2,2.4,4.1,4.1,6.4,5.1c2.3,1,4.8,1.4,7.5,1.4
		c2.6,0,5-0.5,7.1-1.5c2.1-1,3.9-2.5,5.4-4.5c1.5-2,2.6-4.5,3.4-7.6c0.8-3.1,1.2-6.7,1.2-10.8c0-4.2-0.3-7.8-1-10.7
		c-0.7-2.9-1.6-5.3-2.9-7.1s-2.8-3.2-4.6-4C978.6,144.3,976.6,143.9,974.3,143.9z"/>
	<path class="st2" d="M1043.4,204.5c-6.2,0-11-1.8-14.3-5.3c-3.4-3.5-5-8.4-5-14.6v-40.1h-7.3c-0.9,0-1.7-0.3-2.4-0.9
		c-0.7-0.6-1-1.5-1-2.7V134l11.5-1.9l3.6-19.6c0.2-0.9,0.6-1.7,1.3-2.2c0.7-0.5,1.5-0.8,2.6-0.8h9v22.6h18.9v12.3h-18.9v38.9
		c0,2.2,0.6,4,1.7,5.2s2.6,1.9,4.5,1.9c1.1,0,2-0.1,2.7-0.4c0.7-0.3,1.4-0.5,1.9-0.8c0.5-0.3,1-0.5,1.4-0.8c0.4-0.3,0.8-0.4,1.3-0.4
		c0.5,0,0.9,0.1,1.3,0.4c0.3,0.3,0.7,0.6,1.1,1.2l5.2,8.4c-2.5,2.1-5.4,3.7-8.7,4.8C1050.3,204,1046.9,204.5,1043.4,204.5z"/>
	<path class="st2" d="M1103.7,130.5c4.5,0,8.7,0.7,12.5,2.2c3.8,1.4,7.1,3.6,9.8,6.3c2.8,2.8,4.9,6.2,6.4,10.2
		c1.5,4,2.3,8.6,2.3,13.8c0,1.3-0.1,2.4-0.2,3.3c-0.1,0.9-0.3,1.5-0.6,2c-0.3,0.5-0.7,0.8-1.2,1.1s-1.2,0.3-2,0.3h-44.4
		c0.5,7.4,2.5,12.8,6,16.2c3.5,3.5,8,5.2,13.7,5.2c2.8,0,5.2-0.3,7.2-1c2-0.7,3.8-1.4,5.3-2.2c1.5-0.8,2.8-1.5,4-2.2
		c1.1-0.7,2.2-1,3.3-1c0.7,0,1.3,0.1,1.8,0.4c0.5,0.3,1,0.7,1.3,1.2l5,6.3c-1.9,2.2-4.1,4.1-6.4,5.6c-2.4,1.5-4.9,2.7-7.5,3.6
		c-2.6,0.9-5.2,1.6-7.9,1.9c-2.7,0.4-5.3,0.6-7.8,0.6c-5,0-9.6-0.8-13.9-2.5c-4.3-1.7-8-4.1-11.2-7.4c-3.2-3.2-5.7-7.3-7.5-12
		c-1.8-4.8-2.7-10.3-2.7-16.6c0-4.9,0.8-9.5,2.4-13.8c1.6-4.3,3.9-8.1,6.8-11.3c3-3.2,6.6-5.7,10.8-7.6
		C1093.5,131.4,1098.3,130.5,1103.7,130.5z M1104.1,142.9c-5,0-9,1.4-11.8,4.3c-2.8,2.8-4.7,6.9-5.5,12.1h32.5
		c0-2.2-0.3-4.4-0.9-6.3c-0.6-2-1.5-3.7-2.8-5.2c-1.3-1.5-2.8-2.7-4.8-3.5C1108.9,143.3,1106.6,142.9,1104.1,142.9z"/>
	<path class="st2" d="M1226.4,203.4c-2.2,0-3.7-1-4.4-3.2l-1.4-6.9c-1.5,1.7-3.1,3.2-4.7,4.5c-1.6,1.4-3.4,2.5-5.3,3.5
		c-1.9,1-3.9,1.7-6.1,2.3s-4.5,0.8-7,0.8c-3.9,0-7.5-0.8-10.8-2.5c-3.3-1.6-6.1-4-8.4-7.1c-2.4-3.1-4.2-6.9-5.5-11.5
		c-1.3-4.6-1.9-9.8-1.9-15.7c0-5.3,0.7-10.3,2.2-14.8c1.4-4.6,3.5-8.5,6.2-11.9c2.7-3.4,6-6,9.7-7.9c3.8-1.9,8-2.8,12.7-2.8
		c4,0,7.4,0.6,10.3,1.9s5.4,3,7.6,5.1V99.4h17.3v104H1226.4z M1203.4,190.7c3.6,0,6.7-0.7,9.2-2.2c2.5-1.5,4.9-3.6,7.1-6.4v-32.2
		c-2-2.4-4.1-4.1-6.4-5c-2.3-1-4.8-1.5-7.5-1.5c-2.6,0-5,0.5-7.1,1.5c-2.1,1-3.9,2.5-5.4,4.4c-1.5,2-2.6,4.5-3.4,7.6
		c-0.8,3.1-1.2,6.7-1.2,10.8c0,4.2,0.3,7.8,1,10.7c0.7,2.9,1.6,5.3,2.9,7.1c1.3,1.8,2.8,3.2,4.6,4S1201.1,190.7,1203.4,190.7z"/>
	<path class="st2" d="M1285.4,130.5c4.5,0,8.7,0.7,12.5,2.2c3.8,1.4,7.1,3.6,9.8,6.3c2.8,2.8,4.9,6.2,6.4,10.2
		c1.5,4,2.3,8.6,2.3,13.8c0,1.3-0.1,2.4-0.2,3.3c-0.1,0.9-0.3,1.5-0.6,2c-0.3,0.5-0.7,0.8-1.2,1.1s-1.2,0.3-2,0.3h-44.4
		c0.5,7.4,2.5,12.8,6,16.2c3.5,3.5,8,5.2,13.7,5.2c2.8,0,5.2-0.3,7.2-1c2-0.7,3.8-1.4,5.3-2.2c1.5-0.8,2.8-1.5,4-2.2
		c1.1-0.7,2.2-1,3.3-1c0.7,0,1.3,0.1,1.8,0.4c0.5,0.3,1,0.7,1.3,1.2l5,6.3c-1.9,2.2-4.1,4.1-6.4,5.6c-2.4,1.5-4.9,2.7-7.5,3.6
		c-2.6,0.9-5.2,1.6-7.9,1.9c-2.7,0.4-5.3,0.6-7.8,0.6c-5,0-9.6-0.8-13.9-2.5c-4.3-1.7-8-4.1-11.2-7.4c-3.2-3.2-5.7-7.3-7.5-12
		c-1.8-4.8-2.7-10.3-2.7-16.6c0-4.9,0.8-9.5,2.4-13.8c1.6-4.3,3.9-8.1,6.8-11.3c3-3.2,6.6-5.7,10.8-7.6
		C1275.2,131.4,1280,130.5,1285.4,130.5z M1285.7,142.9c-5,0-9,1.4-11.8,4.3c-2.8,2.8-4.7,6.9-5.5,12.1h32.5c0-2.2-0.3-4.4-0.9-6.3
		c-0.6-2-1.5-3.7-2.8-5.2c-1.3-1.5-2.8-2.7-4.8-3.5C1290.5,143.3,1288.3,142.9,1285.7,142.9z"/>
	<path class="st2" d="M1357.5,203.4v-71.8h10.1c1.8,0,3,0.3,3.7,1c0.7,0.7,1.2,1.8,1.4,3.4l1,8.7c2.6-4.4,5.6-7.9,9-10.5
		c3.5-2.6,7.3-3.9,11.6-3.9c3.5,0,6.5,0.8,8.8,2.5l-2.2,13c-0.1,0.8-0.4,1.4-0.9,1.8c-0.5,0.3-1.1,0.5-1.9,0.5
		c-0.7,0-1.7-0.2-2.9-0.5c-1.2-0.3-2.8-0.5-4.8-0.5c-3.6,0-6.7,1-9.2,3c-2.6,2-4.7,4.9-6.5,8.7v44.7H1357.5z"/>
	<path class="st2" d="M1444.4,130.5c4.5,0,8.7,0.7,12.5,2.2c3.8,1.4,7.1,3.6,9.8,6.3c2.8,2.8,4.9,6.2,6.4,10.2
		c1.5,4,2.3,8.6,2.3,13.8c0,1.3-0.1,2.4-0.2,3.3c-0.1,0.9-0.3,1.5-0.6,2c-0.3,0.5-0.7,0.8-1.2,1.1s-1.2,0.3-2,0.3h-44.4
		c0.5,7.4,2.5,12.8,6,16.2c3.5,3.5,8,5.2,13.7,5.2c2.8,0,5.2-0.3,7.2-1c2-0.7,3.8-1.4,5.3-2.2c1.5-0.8,2.8-1.5,4-2.2
		c1.1-0.7,2.2-1,3.3-1c0.7,0,1.3,0.1,1.8,0.4c0.5,0.3,1,0.7,1.3,1.2l5,6.3c-1.9,2.2-4.1,4.1-6.4,5.6c-2.4,1.5-4.9,2.7-7.5,3.6
		c-2.6,0.9-5.2,1.6-7.9,1.9c-2.7,0.4-5.3,0.6-7.8,0.6c-5,0-9.6-0.8-13.9-2.5c-4.3-1.7-8-4.1-11.2-7.4c-3.2-3.2-5.7-7.3-7.5-12
		c-1.8-4.8-2.7-10.3-2.7-16.6c0-4.9,0.8-9.5,2.4-13.8c1.6-4.3,3.9-8.1,6.8-11.3c3-3.2,6.6-5.7,10.8-7.6
		C1434.2,131.4,1439,130.5,1444.4,130.5z M1444.7,142.9c-5,0-9,1.4-11.8,4.3c-2.8,2.8-4.7,6.9-5.5,12.1h32.5c0-2.2-0.3-4.4-0.9-6.3
		c-0.6-2-1.5-3.7-2.8-5.2c-1.3-1.5-2.8-2.7-4.8-3.5C1449.5,143.3,1447.3,142.9,1444.7,142.9z M1469,101.1l-17.3,18.3
		c-0.9,0.9-1.7,1.6-2.6,1.9c-0.8,0.3-1.9,0.5-3.2,0.5h-10.4l9.9-17c0.7-1.2,1.5-2.1,2.4-2.8c0.9-0.6,2.3-0.9,4.2-0.9H1469z"/>
	<path class="st2" d="M1532.2,145.6c-0.5,0.7-1,1.3-1.5,1.6c-0.5,0.3-1.2,0.5-2,0.5c-0.8,0-1.7-0.2-2.7-0.7c-1-0.5-2.1-1-3.3-1.6
		c-1.3-0.6-2.7-1.1-4.3-1.6c-1.6-0.5-3.5-0.7-5.7-0.7c-3.4,0-6.1,0.7-8,2.2c-2,1.4-2.9,3.3-2.9,5.7c0,1.5,0.5,2.8,1.5,3.9
		c1,1,2.3,2,4,2.8c1.7,0.8,3.5,1.5,5.6,2.1c2.1,0.6,4.2,1.3,6.4,2.1c2.2,0.7,4.3,1.6,6.4,2.6c2.1,1,4,2.2,5.6,3.6
		c1.7,1.5,3,3.2,4,5.3c1,2.1,1.5,4.5,1.5,7.4c0,3.5-0.6,6.6-1.9,9.6c-1.3,2.9-3.1,5.4-5.5,7.6c-2.4,2.1-5.4,3.8-9,5
		c-3.6,1.2-7.7,1.8-12.3,1.8c-2.5,0-4.9-0.2-7.2-0.7c-2.4-0.4-4.6-1.1-6.8-1.9c-2.2-0.8-4.2-1.7-6-2.8c-1.8-1.1-3.5-2.2-4.9-3.5
		l4-6.6c0.5-0.8,1.1-1.4,1.8-1.8s1.6-0.6,2.7-0.6c1.1,0,2.1,0.3,3,0.9c1,0.6,2.1,1.3,3.3,2c1.3,0.7,2.7,1.4,4.4,2
		c1.7,0.6,3.9,0.9,6.5,0.9c2.1,0,3.8-0.2,5.3-0.7c1.5-0.5,2.7-1.1,3.6-1.9c1-0.8,1.7-1.7,2.1-2.8s0.7-2.1,0.7-3.3
		c0-1.7-0.5-3.1-1.5-4.1c-1-1.1-2.3-2-4-2.8c-1.7-0.8-3.5-1.5-5.7-2.1c-2.1-0.6-4.3-1.3-6.5-2.1c-2.2-0.7-4.4-1.6-6.5-2.6
		c-2.1-1-4-2.3-5.7-3.8c-1.7-1.5-3-3.4-4-5.7c-1-2.2-1.5-4.9-1.5-8.1c0-2.9,0.6-5.7,1.8-8.4c1.2-2.7,2.9-5,5.1-7s5.1-3.6,8.5-4.8
		c3.4-1.2,7.3-1.8,11.7-1.8c4.9,0,9.5,0.8,13.5,2.5c4.1,1.6,7.4,3.8,10.2,6.4L1532.2,145.6z"/>
	<path class="st2" d="M1566.5,131.6v45.6c0,4.4,1,7.8,3,10.2c2,2.4,5.1,3.6,9.1,3.6c3,0,5.8-0.7,8.4-2s5.1-3.2,7.4-5.5v-51.9h17.3
		v71.8h-10.6c-2.2,0-3.7-1-4.4-3.2l-1.2-5.7c-1.5,1.5-3,2.9-4.6,4.1c-1.6,1.2-3.3,2.3-5.1,3.2c-1.8,0.9-3.7,1.5-5.8,2
		c-2.1,0.5-4.3,0.7-6.7,0.7c-3.9,0-7.4-0.7-10.4-2c-3-1.3-5.5-3.2-7.6-5.6c-2.1-2.4-3.6-5.3-4.7-8.6c-1-3.3-1.6-7-1.6-11v-45.6
		H1566.5z"/>
	<path class="st2" d="M1648.7,99.4v104h-17.3v-104H1648.7z"/>
	<path class="st2" d="M1691.8,204.5c-6.2,0-11-1.8-14.3-5.3c-3.4-3.5-5-8.4-5-14.6v-40.1h-7.3c-0.9,0-1.7-0.3-2.4-0.9
		c-0.7-0.6-1-1.5-1-2.7V134l11.5-1.9l3.6-19.6c0.2-0.9,0.6-1.7,1.3-2.2c0.7-0.5,1.5-0.8,2.6-0.8h9v22.6h18.9v12.3h-18.9v38.9
		c0,2.2,0.6,4,1.7,5.2s2.6,1.9,4.5,1.9c1.1,0,2-0.1,2.7-0.4c0.7-0.3,1.4-0.5,1.9-0.8c0.5-0.3,1-0.5,1.4-0.8c0.4-0.3,0.8-0.4,1.3-0.4
		c0.5,0,0.9,0.1,1.3,0.4c0.3,0.3,0.7,0.6,1.1,1.2l5.2,8.4c-2.5,2.1-5.4,3.7-8.7,4.8C1698.7,204,1695.3,204.5,1691.8,204.5z"/>
	<path class="st2" d="M1778.7,203.4h-7.8c-1.6,0-2.9-0.2-3.8-0.7c-0.9-0.5-1.6-1.5-2.1-3l-1.5-5.1c-1.8,1.6-3.6,3.1-5.4,4.3
		s-3.6,2.3-5.4,3.1c-1.9,0.8-3.9,1.5-6,1.9c-2.1,0.4-4.4,0.6-7,0.6c-3,0-5.8-0.4-8.4-1.2c-2.6-0.8-4.8-2-6.6-3.7
		c-1.8-1.6-3.3-3.7-4.3-6.1c-1-2.4-1.5-5.3-1.5-8.5c0-2.7,0.7-5.4,2.1-8c1.4-2.6,3.8-5,7.1-7.2c3.3-2.1,7.7-3.9,13.2-5.3
		c5.5-1.4,12.3-2.1,20.5-2.1v-4.2c0-4.8-1-8.4-3-10.8c-2-2.3-5-3.5-8.9-3.5c-2.8,0-5.1,0.3-7,1c-1.9,0.7-3.5,1.4-4.9,2.2
		c-1.4,0.8-2.6,1.6-3.8,2.2c-1.2,0.7-2.5,1-3.9,1c-1.2,0-2.2-0.3-3-0.9c-0.8-0.6-1.5-1.4-2-2.2l-3.1-5.5
		c8.3-7.6,18.2-11.3,29.9-11.3c4.2,0,7.9,0.7,11.2,2.1c3.3,1.4,6.1,3.3,8.4,5.7s4,5.4,5.2,8.8c1.2,3.4,1.8,7.1,1.8,11.2V203.4z
		 M1745.1,192.6c1.8,0,3.4-0.2,4.9-0.5c1.5-0.3,2.9-0.8,4.2-1.4c1.3-0.6,2.6-1.4,3.9-2.4c1.2-0.9,2.5-2.1,3.7-3.3v-12
		c-5,0-9.3,0.3-12.6,1c-3.4,0.6-6.1,1.4-8.2,2.4c-2.1,1-3.5,2.1-4.4,3.5c-0.9,1.3-1.3,2.7-1.3,4.3c0,3.1,0.9,5.2,2.7,6.6
		C1739.9,192,1742.2,192.6,1745.1,192.6z"/>
	<path class="st2" d="M1819.3,204.5c-6.2,0-11-1.8-14.3-5.3c-3.4-3.5-5-8.4-5-14.6v-40.1h-7.3c-0.9,0-1.7-0.3-2.4-0.9
		c-0.7-0.6-1-1.5-1-2.7V134l11.5-1.9l3.6-19.6c0.2-0.9,0.6-1.7,1.3-2.2c0.7-0.5,1.5-0.8,2.6-0.8h9v22.6h18.9v12.3h-18.9v38.9
		c0,2.2,0.6,4,1.7,5.2s2.6,1.9,4.5,1.9c1.1,0,2-0.1,2.7-0.4c0.7-0.3,1.4-0.5,1.9-0.8c0.5-0.3,1-0.5,1.4-0.8c0.4-0.3,0.8-0.4,1.3-0.4
		c0.5,0,0.9,0.1,1.3,0.4c0.3,0.3,0.7,0.6,1.1,1.2l5.2,8.4c-2.5,2.1-5.4,3.7-8.7,4.8C1826.2,204,1822.8,204.5,1819.3,204.5z"/>
</g>
<g>
	<path class="st3" d="M270.1,193.4V92.2H305c6.6,0,12.3,0.6,17,1.9s8.5,3.1,11.5,5.4c3,2.3,5.2,5.2,6.6,8.5s2.1,7,2.1,11.2
		c0,2.4-0.4,4.7-1.1,6.8c-0.7,2.2-1.8,4.2-3.3,6.1c-1.5,1.9-3.3,3.6-5.6,5.1c-2.3,1.5-5,2.8-8.1,3.9c13.9,3.1,20.9,10.6,20.9,22.5
		c0,4.3-0.8,8.3-2.4,11.9c-1.6,3.6-4,6.8-7.1,9.4c-3.1,2.6-7,4.7-11.5,6.2c-4.6,1.5-9.8,2.2-15.7,2.2H270.1z M288.9,136H304
		c6.4,0,11.2-1.2,14.6-3.5c3.3-2.3,5-6,5-11.1c0-5.3-1.5-9-4.5-11.3c-3-2.2-7.7-3.4-14-3.4h-16.1V136z M288.9,149v29.7H308
		c3.5,0,6.4-0.4,8.8-1.3c2.4-0.8,4.2-2,5.7-3.4c1.4-1.4,2.4-3,3.1-4.9c0.6-1.9,0.9-3.9,0.9-6c0-2.2-0.4-4.2-1.1-5.9
		c-0.7-1.8-1.8-3.2-3.3-4.5c-1.5-1.2-3.4-2.2-5.7-2.8c-2.3-0.7-5.2-1-8.5-1H288.9z"/>
	<path class="st3" d="M381.3,100.6c0,1.5-0.3,2.9-0.9,4.2c-0.6,1.3-1.4,2.5-2.4,3.4c-1,1-2.2,1.8-3.5,2.3c-1.4,0.6-2.8,0.9-4.3,0.9
		c-1.5,0-2.9-0.3-4.2-0.9c-1.3-0.6-2.5-1.4-3.5-2.3c-1-1-1.8-2.1-2.3-3.4c-0.6-1.3-0.9-2.7-0.9-4.2c0-1.5,0.3-3,0.9-4.3
		c0.6-1.4,1.4-2.5,2.3-3.5c1-1,2.1-1.8,3.5-2.3c1.3-0.6,2.7-0.9,4.2-0.9c1.5,0,3,0.3,4.3,0.9c1.4,0.6,2.5,1.4,3.5,2.3
		c1,1,1.8,2.1,2.4,3.5C381,97.7,381.3,99.1,381.3,100.6z M378.7,121.6v71.8h-17.3v-71.8H378.7z"/>
	<path class="st3" d="M416.7,89.4v104h-17.3v-104H416.7z"/>
	<path class="st3" d="M492.5,193.4h-7.8c-1.6,0-2.9-0.2-3.8-0.7c-0.9-0.5-1.6-1.5-2.1-3l-1.5-5.1c-1.8,1.6-3.6,3.1-5.4,4.3
		s-3.6,2.3-5.4,3.1c-1.9,0.8-3.9,1.5-6,1.9c-2.1,0.4-4.4,0.6-7,0.6c-3,0-5.8-0.4-8.4-1.2c-2.6-0.8-4.8-2-6.6-3.7
		c-1.8-1.6-3.3-3.7-4.3-6.1c-1-2.4-1.5-5.3-1.5-8.5c0-2.7,0.7-5.4,2.1-8c1.4-2.6,3.8-5,7.1-7.2c3.3-2.1,7.7-3.9,13.2-5.3
		c5.5-1.4,12.3-2.1,20.5-2.1v-4.2c0-4.8-1-8.4-3-10.8c-2-2.3-5-3.5-8.9-3.5c-2.8,0-5.1,0.3-7,1c-1.9,0.7-3.5,1.4-4.9,2.2
		c-1.4,0.8-2.6,1.6-3.8,2.2c-1.2,0.7-2.4,1-3.8,1c-1.2,0-2.2-0.3-3-0.9c-0.8-0.6-1.5-1.4-2-2.2l-3.2-5.5
		c8.3-7.6,18.2-11.3,29.9-11.3c4.2,0,7.9,0.7,11.2,2.1c3.3,1.4,6.1,3.3,8.4,5.7c2.3,2.5,4,5.4,5.2,8.8s1.8,7.1,1.8,11.2V193.4z
		 M458.9,182.6c1.8,0,3.4-0.2,4.9-0.5c1.5-0.3,2.9-0.8,4.2-1.4c1.3-0.6,2.6-1.4,3.8-2.4s2.5-2.1,3.7-3.3v-12c-5,0-9.3,0.3-12.6,1
		c-3.4,0.6-6.1,1.4-8.2,2.4c-2.1,1-3.5,2.1-4.4,3.5c-0.9,1.3-1.3,2.7-1.3,4.3c0,3.1,0.9,5.2,2.7,6.6
		C453.6,182,456,182.6,458.9,182.6z"/>
	<path class="st3" d="M509.5,193.4v-71.8h10.6c2.2,0,3.7,1.1,4.4,3.2l1.2,5.7c1.4-1.5,3-2.8,4.6-4.1s3.3-2.3,5.1-3.2
		c1.8-0.9,3.7-1.6,5.8-2c2.1-0.5,4.3-0.7,6.7-0.7c3.9,0,7.4,0.7,10.4,2c3,1.3,5.6,3.2,7.6,5.6s3.6,5.3,4.6,8.6c1,3.3,1.6,7,1.6,11
		v45.7h-17.3v-45.7c0-4.4-1-7.8-3-10.2c-2-2.4-5.1-3.6-9.1-3.6c-3,0-5.8,0.7-8.4,2c-2.6,1.4-5.1,3.2-7.4,5.5v51.9H509.5z"/>
	<path class="st3" d="M595.1,193.6c-0.4,1.1-1,2-1.6,2.8c-0.7,0.8-1.4,1.5-2.2,2c-0.8,0.5-1.7,0.9-2.7,1.2c-0.9,0.3-1.8,0.4-2.7,0.4
		h-7.3l40.9-104.6c0.8-2,1.9-3.5,3.4-4.5c1.5-1,3.3-1.6,5.4-1.6h7.3L595.1,193.6z"/>
	<path class="st3" d="M709.9,169.5c1,0,1.9,0.4,2.7,1.2l7.4,8c-4.1,5.1-9.2,9-15.2,11.7c-6,2.7-13.2,4.1-21.6,4.1
		c-7.5,0-14.3-1.3-20.3-3.9c-6-2.6-11.1-6.1-15.4-10.7c-4.2-4.6-7.5-10-9.8-16.4c-2.3-6.3-3.4-13.3-3.4-20.8
		c0-7.6,1.3-14.6,3.8-20.9c2.5-6.3,6.1-11.8,10.6-16.3c4.6-4.6,10-8.1,16.4-10.7c6.4-2.5,13.4-3.8,21.1-3.8c7.5,0,14.1,1.2,19.7,3.6
		c5.6,2.4,10.4,5.6,14.5,9.6l-6.3,8.8c-0.4,0.6-0.9,1-1.4,1.5c-0.6,0.4-1.4,0.6-2.4,0.6c-1.1,0-2.2-0.4-3.3-1.3s-2.5-1.8-4.3-2.7
		c-1.7-1-3.9-1.9-6.5-2.7s-6-1.3-10-1.3c-4.8,0-9.1,0.8-13.1,2.5c-4,1.7-7.4,4-10.3,7.1c-2.9,3.1-5.1,6.8-6.7,11.2
		c-1.6,4.4-2.4,9.4-2.4,14.9c0,5.7,0.8,10.8,2.4,15.2c1.6,4.4,3.8,8.2,6.5,11.2c2.8,3,6,5.4,9.7,7c3.7,1.6,7.7,2.4,12,2.4
		c2.6,0,4.9-0.1,7-0.4c2.1-0.3,4-0.7,5.7-1.3s3.4-1.4,5-2.3c1.6-1,3.1-2.1,4.7-3.5c0.5-0.4,1-0.8,1.5-1
		C708.7,169.7,709.3,169.5,709.9,169.5z"/>
	<path class="st3" d="M763.9,120.5c5.4,0,10.2,0.9,14.6,2.6c4.4,1.7,8.1,4.2,11.2,7.3c3.1,3.2,5.5,7,7.1,11.6
		c1.7,4.6,2.5,9.7,2.5,15.3c0,5.7-0.8,10.8-2.5,15.4c-1.7,4.6-4.1,8.5-7.1,11.7s-6.8,5.7-11.2,7.4c-4.4,1.7-9.2,2.6-14.6,2.6
		c-5.4,0-10.2-0.9-14.6-2.6s-8.1-4.2-11.2-7.4c-3.1-3.2-5.5-7.1-7.2-11.7c-1.7-4.6-2.6-9.7-2.6-15.4c0-5.6,0.9-10.8,2.6-15.3
		c1.7-4.6,4.1-8.4,7.2-11.6c3.1-3.2,6.8-5.6,11.2-7.3S758.5,120.5,763.9,120.5z M763.9,181.1c6,0,10.4-2,13.3-6s4.3-9.9,4.3-17.6
		c0-7.7-1.4-13.6-4.3-17.7c-2.9-4.1-7.3-6.1-13.3-6.1c-6.1,0-10.5,2-13.4,6.1c-2.9,4.1-4.3,10-4.3,17.7s1.4,13.6,4.3,17.6
		C753.3,179.1,757.8,181.1,763.9,181.1z"/>
	<path class="st3" d="M812.8,193.4v-71.8h10.6c2.2,0,3.7,1.1,4.4,3.2l1.1,5.3c1.3-1.4,2.6-2.7,4-3.9c1.4-1.2,2.8-2.2,4.4-3
		c1.6-0.8,3.2-1.5,5-2c1.8-0.5,3.8-0.7,5.9-0.7c4.5,0,8.2,1.2,11.2,3.7c2.9,2.4,5.1,5.7,6.5,9.8c1.1-2.4,2.5-4.4,4.2-6.1
		c1.7-1.7,3.5-3.1,5.5-4.2c2-1.1,4.1-1.9,6.4-2.4c2.3-0.5,4.5-0.8,6.8-0.8c4,0,7.5,0.6,10.6,1.8c3.1,1.2,5.7,3,7.8,5.3
		c2.1,2.3,3.7,5.2,4.8,8.5c1.1,3.4,1.6,7.2,1.6,11.5v45.7h-17.3v-45.7c0-4.6-1-8-3-10.3c-2-2.3-4.9-3.5-8.8-3.5
		c-1.8,0-3.4,0.3-4.9,0.9s-2.8,1.5-4,2.6c-1.1,1.1-2,2.6-2.7,4.3c-0.7,1.7-1,3.7-1,6v45.7h-17.4v-45.7c0-4.8-1-8.3-2.9-10.5
		c-1.9-2.2-4.8-3.3-8.6-3.3c-2.5,0-4.8,0.6-7,1.9s-4.2,2.9-6.1,5.1v52.6H812.8z"/>
	<path class="st3" d="M930.7,216.9v-95.3h10.6c1.1,0,2.1,0.3,2.9,0.8c0.8,0.5,1.3,1.3,1.5,2.4l1.4,6.7c2.9-3.3,6.2-6,10-8.1
		c3.8-2.1,8.2-3.1,13.2-3.1c3.9,0,7.5,0.8,10.7,2.5c3.2,1.6,6,4,8.4,7.1s4.2,6.9,5.5,11.5s1.9,9.8,1.9,15.6c0,5.4-0.7,10.3-2.2,14.9
		c-1.4,4.6-3.5,8.5-6.2,11.9c-2.7,3.4-5.9,6-9.7,7.9c-3.8,1.9-8.1,2.8-12.8,2.8c-4.1,0-7.5-0.6-10.3-1.9c-2.8-1.2-5.4-3-7.6-5.1
		v29.4H930.7z M964.3,133.9c-3.6,0-6.7,0.8-9.2,2.3c-2.5,1.5-4.9,3.7-7.1,6.4v32.2c2,2.4,4.1,4.1,6.4,5.1c2.3,1,4.8,1.4,7.5,1.4
		c2.6,0,5-0.5,7.1-1.5c2.1-1,3.9-2.5,5.4-4.5c1.5-2,2.6-4.5,3.4-7.6c0.8-3.1,1.2-6.7,1.2-10.8c0-4.2-0.3-7.8-1-10.7
		c-0.7-2.9-1.6-5.3-2.9-7.1s-2.8-3.2-4.6-4C968.6,134.3,966.6,133.9,964.3,133.9z"/>
	<path class="st3" d="M1033.4,194.5c-6.2,0-11-1.8-14.3-5.3c-3.4-3.5-5-8.4-5-14.6v-40.1h-7.3c-0.9,0-1.7-0.3-2.4-0.9
		c-0.7-0.6-1-1.5-1-2.7V124l11.5-1.9l3.6-19.6c0.2-0.9,0.6-1.7,1.3-2.2c0.7-0.5,1.5-0.8,2.6-0.8h9v22.6h18.9v12.3h-18.9v38.9
		c0,2.2,0.6,4,1.7,5.2s2.6,1.9,4.5,1.9c1.1,0,2-0.1,2.7-0.4c0.7-0.3,1.4-0.5,1.9-0.8c0.5-0.3,1-0.5,1.4-0.8c0.4-0.3,0.8-0.4,1.3-0.4
		c0.5,0,0.9,0.1,1.3,0.4c0.3,0.3,0.7,0.6,1.1,1.2l5.2,8.4c-2.5,2.1-5.4,3.7-8.7,4.8C1040.3,194,1036.9,194.5,1033.4,194.5z"/>
	<path class="st3" d="M1093.7,120.5c4.5,0,8.7,0.7,12.5,2.2c3.8,1.4,7.1,3.6,9.8,6.3c2.8,2.8,4.9,6.2,6.4,10.2
		c1.5,4,2.3,8.6,2.3,13.8c0,1.3-0.1,2.4-0.2,3.3c-0.1,0.9-0.3,1.5-0.6,2c-0.3,0.5-0.7,0.8-1.2,1.1s-1.2,0.3-2,0.3h-44.4
		c0.5,7.4,2.5,12.8,6,16.2c3.5,3.5,8,5.2,13.7,5.2c2.8,0,5.2-0.3,7.2-1c2-0.7,3.8-1.4,5.3-2.2c1.5-0.8,2.8-1.5,4-2.2
		c1.1-0.7,2.2-1,3.3-1c0.7,0,1.3,0.1,1.8,0.4c0.5,0.3,1,0.7,1.3,1.2l5,6.3c-1.9,2.2-4.1,4.1-6.4,5.6c-2.4,1.5-4.9,2.7-7.5,3.6
		c-2.6,0.9-5.2,1.6-7.9,1.9c-2.7,0.4-5.3,0.6-7.8,0.6c-5,0-9.6-0.8-13.9-2.5c-4.3-1.7-8-4.1-11.2-7.4c-3.2-3.2-5.7-7.3-7.5-12
		c-1.8-4.8-2.7-10.3-2.7-16.6c0-4.9,0.8-9.5,2.4-13.8c1.6-4.3,3.9-8.1,6.8-11.3c3-3.2,6.6-5.7,10.8-7.6
		C1083.5,121.4,1088.3,120.5,1093.7,120.5z M1094.1,132.9c-5,0-9,1.4-11.8,4.3c-2.8,2.8-4.7,6.9-5.5,12.1h32.5
		c0-2.2-0.3-4.4-0.9-6.3c-0.6-2-1.5-3.7-2.8-5.2c-1.3-1.5-2.8-2.7-4.8-3.5C1098.9,133.3,1096.6,132.9,1094.1,132.9z"/>
	<path class="st3" d="M1216.4,193.4c-2.2,0-3.7-1-4.4-3.2l-1.4-6.9c-1.5,1.7-3.1,3.2-4.7,4.5c-1.6,1.4-3.4,2.5-5.3,3.5
		c-1.9,1-3.9,1.7-6.1,2.3s-4.5,0.8-7,0.8c-3.9,0-7.5-0.8-10.8-2.5c-3.3-1.6-6.1-4-8.4-7.1c-2.4-3.1-4.2-6.9-5.5-11.5
		c-1.3-4.6-1.9-9.8-1.9-15.7c0-5.3,0.7-10.3,2.2-14.8c1.4-4.6,3.5-8.5,6.2-11.9c2.7-3.4,6-6,9.7-7.9c3.8-1.9,8-2.8,12.7-2.8
		c4,0,7.4,0.6,10.3,1.9s5.4,3,7.6,5.1V89.4h17.3v104H1216.4z M1193.4,180.7c3.6,0,6.7-0.7,9.2-2.2c2.5-1.5,4.9-3.6,7.1-6.4v-32.2
		c-2-2.4-4.1-4.1-6.4-5c-2.3-1-4.8-1.5-7.5-1.5c-2.6,0-5,0.5-7.1,1.5c-2.1,1-3.9,2.5-5.4,4.4c-1.5,2-2.6,4.5-3.4,7.6
		c-0.8,3.1-1.2,6.7-1.2,10.8c0,4.2,0.3,7.8,1,10.7c0.7,2.9,1.6,5.3,2.9,7.1c1.3,1.8,2.8,3.2,4.6,4S1191.1,180.7,1193.4,180.7z"/>
	<path class="st3" d="M1275.4,120.5c4.5,0,8.7,0.7,12.5,2.2c3.8,1.4,7.1,3.6,9.8,6.3c2.8,2.8,4.9,6.2,6.4,10.2
		c1.5,4,2.3,8.6,2.3,13.8c0,1.3-0.1,2.4-0.2,3.3c-0.1,0.9-0.3,1.5-0.6,2c-0.3,0.5-0.7,0.8-1.2,1.1s-1.2,0.3-2,0.3h-44.4
		c0.5,7.4,2.5,12.8,6,16.2c3.5,3.5,8,5.2,13.7,5.2c2.8,0,5.2-0.3,7.2-1c2-0.7,3.8-1.4,5.3-2.2c1.5-0.8,2.8-1.5,4-2.2
		c1.1-0.7,2.2-1,3.3-1c0.7,0,1.3,0.1,1.8,0.4c0.5,0.3,1,0.7,1.3,1.2l5,6.3c-1.9,2.2-4.1,4.1-6.4,5.6c-2.4,1.5-4.9,2.7-7.5,3.6
		c-2.6,0.9-5.2,1.6-7.9,1.9c-2.7,0.4-5.3,0.6-7.8,0.6c-5,0-9.6-0.8-13.9-2.5c-4.3-1.7-8-4.1-11.2-7.4c-3.2-3.2-5.7-7.3-7.5-12
		c-1.8-4.8-2.7-10.3-2.7-16.6c0-4.9,0.8-9.5,2.4-13.8c1.6-4.3,3.9-8.1,6.8-11.3c3-3.2,6.6-5.7,10.8-7.6
		C1265.2,121.4,1270,120.5,1275.4,120.5z M1275.7,132.9c-5,0-9,1.4-11.8,4.3c-2.8,2.8-4.7,6.9-5.5,12.1h32.5c0-2.2-0.3-4.4-0.9-6.3
		c-0.6-2-1.5-3.7-2.8-5.2c-1.3-1.5-2.8-2.7-4.8-3.5C1280.5,133.3,1278.3,132.9,1275.7,132.9z"/>
	<path class="st3" d="M1347.5,193.4v-71.8h10.1c1.8,0,3,0.3,3.7,1c0.7,0.7,1.2,1.8,1.4,3.4l1,8.7c2.6-4.4,5.6-7.9,9-10.5
		c3.5-2.6,7.3-3.9,11.6-3.9c3.5,0,6.5,0.8,8.8,2.5l-2.2,13c-0.1,0.8-0.4,1.4-0.9,1.8c-0.5,0.3-1.1,0.5-1.9,0.5
		c-0.7,0-1.7-0.2-2.9-0.5c-1.2-0.3-2.8-0.5-4.8-0.5c-3.6,0-6.7,1-9.2,3c-2.6,2-4.7,4.9-6.5,8.7v44.7H1347.5z"/>
	<path class="st3" d="M1434.4,120.5c4.5,0,8.7,0.7,12.5,2.2c3.8,1.4,7.1,3.6,9.8,6.3c2.8,2.8,4.9,6.2,6.4,10.2
		c1.5,4,2.3,8.6,2.3,13.8c0,1.3-0.1,2.4-0.2,3.3c-0.1,0.9-0.3,1.5-0.6,2c-0.3,0.5-0.7,0.8-1.2,1.1s-1.2,0.3-2,0.3h-44.4
		c0.5,7.4,2.5,12.8,6,16.2c3.5,3.5,8,5.2,13.7,5.2c2.8,0,5.2-0.3,7.2-1c2-0.7,3.8-1.4,5.3-2.2c1.5-0.8,2.8-1.5,4-2.2
		c1.1-0.7,2.2-1,3.3-1c0.7,0,1.3,0.1,1.8,0.4c0.5,0.3,1,0.7,1.3,1.2l5,6.3c-1.9,2.2-4.1,4.1-6.4,5.6c-2.4,1.5-4.9,2.7-7.5,3.6
		c-2.6,0.9-5.2,1.6-7.9,1.9c-2.7,0.4-5.3,0.6-7.8,0.6c-5,0-9.6-0.8-13.9-2.5c-4.3-1.7-8-4.1-11.2-7.4c-3.2-3.2-5.7-7.3-7.5-12
		c-1.8-4.8-2.7-10.3-2.7-16.6c0-4.9,0.8-9.5,2.4-13.8c1.6-4.3,3.9-8.1,6.8-11.3c3-3.2,6.6-5.7,10.8-7.6
		C1424.2,121.4,1429,120.5,1434.4,120.5z M1434.7,132.9c-5,0-9,1.4-11.8,4.3c-2.8,2.8-4.7,6.9-5.5,12.1h32.5c0-2.2-0.3-4.4-0.9-6.3
		c-0.6-2-1.5-3.7-2.8-5.2c-1.3-1.5-2.8-2.7-4.8-3.5C1439.5,133.3,1437.3,132.9,1434.7,132.9z M1459,91.1l-17.3,18.3
		c-0.9,0.9-1.7,1.6-2.6,1.9c-0.8,0.3-1.9,0.5-3.2,0.5h-10.4l9.9-17c0.7-1.2,1.5-2.1,2.4-2.8c0.9-0.6,2.3-0.9,4.2-0.9H1459z"/>
	<path class="st3" d="M1522.2,135.6c-0.5,0.7-1,1.3-1.5,1.6c-0.5,0.3-1.2,0.5-2,0.5c-0.8,0-1.7-0.2-2.7-0.7c-1-0.5-2.1-1-3.3-1.6
		c-1.3-0.6-2.7-1.1-4.3-1.6c-1.6-0.5-3.5-0.7-5.7-0.7c-3.4,0-6.1,0.7-8,2.2c-2,1.4-2.9,3.3-2.9,5.7c0,1.5,0.5,2.8,1.5,3.9
		c1,1,2.3,2,4,2.8c1.7,0.8,3.5,1.5,5.6,2.1c2.1,0.6,4.2,1.3,6.4,2.1c2.2,0.7,4.3,1.6,6.4,2.6c2.1,1,4,2.2,5.6,3.6
		c1.7,1.5,3,3.2,4,5.3c1,2.1,1.5,4.5,1.5,7.4c0,3.5-0.6,6.6-1.9,9.6c-1.3,2.9-3.1,5.4-5.5,7.6c-2.4,2.1-5.4,3.8-9,5
		c-3.6,1.2-7.7,1.8-12.3,1.8c-2.5,0-4.9-0.2-7.2-0.7c-2.4-0.4-4.6-1.1-6.8-1.9c-2.2-0.8-4.2-1.7-6-2.8c-1.8-1.1-3.5-2.2-4.9-3.5
		l4-6.6c0.5-0.8,1.1-1.4,1.8-1.8s1.6-0.6,2.7-0.6c1.1,0,2.1,0.3,3,0.9c1,0.6,2.1,1.3,3.3,2c1.3,0.7,2.7,1.4,4.4,2
		c1.7,0.6,3.9,0.9,6.5,0.9c2.1,0,3.8-0.2,5.3-0.7c1.5-0.5,2.7-1.1,3.6-1.9c1-0.8,1.7-1.7,2.1-2.8s0.7-2.1,0.7-3.3
		c0-1.7-0.5-3.1-1.5-4.1c-1-1.1-2.3-2-4-2.8c-1.7-0.8-3.5-1.5-5.7-2.1c-2.1-0.6-4.3-1.3-6.5-2.1c-2.2-0.7-4.4-1.6-6.5-2.6
		c-2.1-1-4-2.3-5.7-3.8c-1.7-1.5-3-3.4-4-5.7c-1-2.2-1.5-4.9-1.5-8.1c0-2.9,0.6-5.7,1.8-8.4c1.2-2.7,2.9-5,5.1-7s5.1-3.6,8.5-4.8
		c3.4-1.2,7.3-1.8,11.7-1.8c4.9,0,9.5,0.8,13.5,2.5c4.1,1.6,7.4,3.8,10.2,6.4L1522.2,135.6z"/>
	<path class="st3" d="M1556.5,121.6v45.6c0,4.4,1,7.8,3,10.2c2,2.4,5.1,3.6,9.1,3.6c3,0,5.8-0.7,8.4-2s5.1-3.2,7.4-5.5v-51.9h17.3
		v71.8h-10.6c-2.2,0-3.7-1-4.4-3.2l-1.2-5.7c-1.5,1.5-3,2.9-4.6,4.1c-1.6,1.2-3.3,2.3-5.1,3.2c-1.8,0.9-3.7,1.5-5.8,2
		c-2.1,0.5-4.3,0.7-6.7,0.7c-3.9,0-7.4-0.7-10.4-2c-3-1.3-5.5-3.2-7.6-5.6c-2.1-2.4-3.6-5.3-4.7-8.6c-1-3.3-1.6-7-1.6-11v-45.6
		H1556.5z"/>
	<path class="st3" d="M1638.7,89.4v104h-17.3v-104H1638.7z"/>
	<path class="st3" d="M1681.8,194.5c-6.2,0-11-1.8-14.3-5.3c-3.4-3.5-5-8.4-5-14.6v-40.1h-7.3c-0.9,0-1.7-0.3-2.4-0.9
		c-0.7-0.6-1-1.5-1-2.7V124l11.5-1.9l3.6-19.6c0.2-0.9,0.6-1.7,1.3-2.2c0.7-0.5,1.5-0.8,2.6-0.8h9v22.6h18.9v12.3h-18.9v38.9
		c0,2.2,0.6,4,1.7,5.2s2.6,1.9,4.5,1.9c1.1,0,2-0.1,2.7-0.4c0.7-0.3,1.4-0.5,1.9-0.8c0.5-0.3,1-0.5,1.4-0.8c0.4-0.3,0.8-0.4,1.3-0.4
		c0.5,0,0.9,0.1,1.3,0.4c0.3,0.3,0.7,0.6,1.1,1.2l5.2,8.4c-2.5,2.1-5.4,3.7-8.7,4.8C1688.7,194,1685.3,194.5,1681.8,194.5z"/>
	<path class="st3" d="M1768.7,193.4h-7.8c-1.6,0-2.9-0.2-3.8-0.7c-0.9-0.5-1.6-1.5-2.1-3l-1.5-5.1c-1.8,1.6-3.6,3.1-5.4,4.3
		s-3.6,2.3-5.4,3.1c-1.9,0.8-3.9,1.5-6,1.9c-2.1,0.4-4.4,0.6-7,0.6c-3,0-5.8-0.4-8.4-1.2c-2.6-0.8-4.8-2-6.6-3.7
		c-1.8-1.6-3.3-3.7-4.3-6.1c-1-2.4-1.5-5.3-1.5-8.5c0-2.7,0.7-5.4,2.1-8c1.4-2.6,3.8-5,7.1-7.2c3.3-2.1,7.7-3.9,13.2-5.3
		c5.5-1.4,12.3-2.1,20.5-2.1v-4.2c0-4.8-1-8.4-3-10.8c-2-2.3-5-3.5-8.9-3.5c-2.8,0-5.1,0.3-7,1c-1.9,0.7-3.5,1.4-4.9,2.2
		c-1.4,0.8-2.6,1.6-3.8,2.2c-1.2,0.7-2.5,1-3.9,1c-1.2,0-2.2-0.3-3-0.9c-0.8-0.6-1.5-1.4-2-2.2l-3.1-5.5
		c8.3-7.6,18.2-11.3,29.9-11.3c4.2,0,7.9,0.7,11.2,2.1c3.3,1.4,6.1,3.3,8.4,5.7s4,5.4,5.2,8.8c1.2,3.4,1.8,7.1,1.8,11.2V193.4z
		 M1735.1,182.6c1.8,0,3.4-0.2,4.9-0.5c1.5-0.3,2.9-0.8,4.2-1.4c1.3-0.6,2.6-1.4,3.9-2.4c1.2-0.9,2.5-2.1,3.7-3.3v-12
		c-5,0-9.3,0.3-12.6,1c-3.4,0.6-6.1,1.4-8.2,2.4c-2.1,1-3.5,2.1-4.4,3.5c-0.9,1.3-1.3,2.7-1.3,4.3c0,3.1,0.9,5.2,2.7,6.6
		C1729.9,182,1732.2,182.6,1735.1,182.6z"/>
	<path class="st3" d="M1809.3,194.5c-6.2,0-11-1.8-14.3-5.3c-3.4-3.5-5-8.4-5-14.6v-40.1h-7.3c-0.9,0-1.7-0.3-2.4-0.9
		c-0.7-0.6-1-1.5-1-2.7V124l11.5-1.9l3.6-19.6c0.2-0.9,0.6-1.7,1.3-2.2c0.7-0.5,1.5-0.8,2.6-0.8h9v22.6h18.9v12.3h-18.9v38.9
		c0,2.2,0.6,4,1.7,5.2s2.6,1.9,4.5,1.9c1.1,0,2-0.1,2.7-0.4c0.7-0.3,1.4-0.5,1.9-0.8c0.5-0.3,1-0.5,1.4-0.8c0.4-0.3,0.8-0.4,1.3-0.4
		c0.5,0,0.9,0.1,1.3,0.4c0.3,0.3,0.7,0.6,1.1,1.2l5.2,8.4c-2.5,2.1-5.4,3.7-8.7,4.8C1816.2,194,1812.8,194.5,1809.3,194.5z"/>
</g>
</svg>
