<?xml version="1.0" encoding="utf-8"?>
<!-- Generator: Adobe Illustrator 24.3.0, SVG Export Plug-In . SVG Version: 6.00 Build 0)  -->
<svg version="1.1" id="Calque_1" xmlns="http://www.w3.org/2000/svg" xmlns:xlink="http://www.w3.org/1999/xlink" x="0px" y="0px"
	 viewBox="0 0 928.6 1000" style="enable-background:new 0 0 928.6 1000;" xml:space="preserve">
<style type="text/css">
	.st0{fill:#333333;}
</style>
<path class="st0" d="M914.6,266.7c14,20.1,17.9,46.4,10.1,72L771.2,844.3c-13.9,47.4-63.1,84.3-111,84.3H145.1
	c-56.9,0-117.8-45.2-138.4-103.3c-8.9-25.1-8.9-49.6-1.1-70.8c1.1-11.2,3.3-22.4,3.9-35.7c0.5-9-4.5-16.2-3.4-22.9
	c2.3-13.4,14-22.9,22.9-38c16.8-27.9,35.7-73.1,41.9-102.1c2.8-10.6-2.8-22.9,0-32.4c2.8-10.6,13.4-18.4,18.9-28.4
	c15.1-25.7,34.6-75.4,37.4-101.6c1.1-11.7-4.4-24.5-1.1-33.5c3.9-12.8,16.2-18.4,24.6-29.5c13.4-18.5,35.7-71.5,39-101
	c1.1-9.5-4.4-19-2.8-29.1c2.3-10.6,15.7-21.7,24.6-34.6c23.4-34.6,27.9-111,98.8-90.9l-0.6,1.7c9.5-2.3,19-5.1,28.5-5.1h424.6
	c26.3,0,49.7,11.7,63.7,31.3c14.5,20.1,17.8,46.3,10,72.5L683.6,680.8c-26.2,85.9-40.7,104.9-111.6,104.9H87.1
	c-7.3,0-16.2,1.7-21.3,8.4c-4.4,6.7-5,11.7-0.5,24c11.2,32.3,49.7,39,80.3,39h515.1c20.7,0,44.7-11.7,50.8-31.8l167.4-550.7
	c3.4-10.6,3.4-21.8,2.8-31.9C894.5,247.8,906.3,255.6,914.6,266.7L914.6,266.7z M320.9,267.9c-3.4,10,2.2,17.8,12.2,17.8h339.3
	c9.5,0,20.1-7.8,23.5-17.8l11.7-35.8c3.3-10-2.2-17.8-12.3-17.8H356c-9.5,0-20.1,7.8-23.4,17.8L320.9,267.9z M274.6,410.7
	c-3.4,10.1,2.2,17.9,12.2,17.9h339.3c9.5,0,20.1-7.8,23.5-17.9l11.7-35.7c3.3-10-2.3-17.9-12.3-17.9H309.7
	c-9.5,0-20.1,7.9-23.4,17.9L274.6,410.7z"/>
</svg>
