<?xml version="1.0" encoding="utf-8"?>
<!-- Generator: Adobe Illustrator 23.0.6, SVG Export Plug-In . SVG Version: 6.00 Build 0)  -->
<svg version="1.1" id="Calque_1" xmlns="http://www.w3.org/2000/svg" xmlns:xlink="http://www.w3.org/1999/xlink" x="0px" y="0px"
	 viewBox="0 0 1000 1000" style="enable-background:new 0 0 1000 1000;" xml:space="preserve">
<style type="text/css">
	.st0{fill:#688ED8;}
</style>
<path class="st0" d="M1000,396.2v443.1c0,49.1-40.2,89.3-89.3,89.3H89.3C40.2,928.6,0,888.4,0,839.3V396.2
	c16.7,18.4,35.7,34.6,56.4,48.6c92.6,63,186.3,126.1,277.3,192.5c46.9,34.6,104.9,77,165.7,77h0.6h0.6c60.8,0,118.8-42.4,165.7-77
	c91-65.9,184.7-129.5,277.9-192.5C964.3,430.8,983.3,414.6,1000,396.2L1000,396.2z M1000,232.1c0,62.5-46.3,118.9-95.4,152.9
	c-87.1,60.3-174.7,120.6-261.2,181.4c-36.3,25.1-97.6,76.5-142.8,76.5H500h-0.6c-45.2,0-106.5-51.4-142.8-76.5
	C270.1,505.6,182.5,445.3,96,385C56.4,358.3,0,295.2,0,244.4c0-54.7,29.6-101.5,89.3-101.5h821.4C959.3,142.9,1000,183,1000,232.1
	L1000,232.1z"/>
</svg>
