<?xml version="1.0" encoding="utf-8"?>
<!-- Generator: Adobe Illustrator 24.3.0, SVG Export Plug-In . SVG Version: 6.00 Build 0)  -->
<svg version="1.1" id="Calque_1" xmlns="http://www.w3.org/2000/svg" xmlns:xlink="http://www.w3.org/1999/xlink" x="0px" y="0px"
	 viewBox="0 0 1163.4 292" style="enable-background:new 0 0 1163.4 292;" xml:space="preserve">
<style type="text/css">
	.st0{fill:url(#SVGID_1_);}
	.st1{fill:url(#SVGID_2_);}
	.st2{fill:#FFFFFF;}
	.st3{fill:#333333;}
</style>
<g>
	
		<linearGradient id="SVGID_1_" gradientUnits="userSpaceOnUse" x1="726.2" y1="1352" x2="726.2" y2="1060" gradientTransform="matrix(-1 0 0 1 1307.9 -1060)">
		<stop  offset="0" style="stop-color:#BBBBBB"/>
		<stop  offset="1" style="stop-color:#DCDCDC"/>
	</linearGradient>
	<path class="st0" d="M25,282c-8,0-15-7-15-15V25c0-8,7-15,15-15h1103.5c8,0,25,7,25,15v242c0,8-17,15-25,15H25z M1128.4,292
		c14,0,35-11,35-25V25c0-14-21-25-35-25H25C11,0,0,11,0,25v242c0,14,11,25,25,25H1128.4z"/>
</g>
<linearGradient id="SVGID_2_" gradientUnits="userSpaceOnUse" x1="726.15" y1="-400" x2="726.15" y2="-128" gradientTransform="matrix(-1 0 0 -1 1307.9 -118)">
	<stop  offset="0" style="stop-color:#E8E8E8"/>
	<stop  offset="1" style="stop-color:#F9F9F9"/>
</linearGradient>
<path class="st1" d="M25,282c-8,0-15-7-15-15V25c0-8,7-15,15-15h1103.5c8,0,25,7,25,15v242c0,8-17,15-25,15H25z"/>
<path class="st2" d="M1114,134.6c0,1.4-0.6,2.7-1.6,3.7l-36.8,36.8c-1,1-2.3,1.6-3.7,1.6s-2.7-0.6-3.7-1.6l-36.8-36.8
	c-1-1-1.6-2.3-1.6-3.7c0-2.9,2.4-5.3,5.2-5.3h73.5C1111.6,129.4,1114,131.8,1114,134.6z"/>
<path class="st3" d="M1104,124.6c0,1.4-0.6,2.7-1.6,3.7l-36.8,36.8c-1,1-2.3,1.6-3.7,1.6s-2.7-0.6-3.7-1.6l-36.8-36.8
	c-1-1-1.6-2.3-1.6-3.7c0-2.9,2.4-5.3,5.2-5.3h73.5C1101.6,119.4,1104,121.8,1104,124.6z"/>
<g>
	<path class="st2" d="M343.9,102.2v15h-44.9v28.1h35.4v14.5h-35.4v28.6h44.9v15h-63.8V102.2H343.9z"/>
	<path class="st2" d="M376.3,166.4l-23.6-34.8h16.7c1.3,0,2.2,0.2,2.8,0.5c0.6,0.4,1.1,0.9,1.6,1.7l15,24c0.2-0.8,0.5-1.6,0.9-2.4
		c0.4-0.8,0.8-1.6,1.3-2.4l12.1-18.9c0.6-0.9,1.1-1.5,1.8-2c0.6-0.4,1.4-0.6,2.2-0.6H423l-23.7,34l24.6,37.8h-16.7
		c-1.3,0-2.3-0.3-3-1c-0.8-0.7-1.4-1.4-1.9-2.2l-15.3-25c-0.4,1.7-1,3.1-1.8,4.2l-13.4,20.8c-0.5,0.8-1.1,1.5-1.9,2.2
		c-0.7,0.7-1.7,1-2.8,1h-15.5L376.3,166.4z"/>
	<path class="st2" d="M434.9,226.9v-95.3h10.6c1.1,0,2.1,0.3,2.9,0.8c0.8,0.5,1.3,1.3,1.5,2.4l1.4,6.6c2.9-3.3,6.2-6,10-8
		c3.8-2.1,8.2-3.1,13.2-3.1c3.9,0,7.5,0.8,10.7,2.4c3.2,1.6,6,4,8.4,7.1c2.4,3.1,4.2,6.9,5.5,11.5c1.3,4.6,1.9,9.8,1.9,15.6
		c0,5.4-0.7,10.3-2.2,14.9c-1.4,4.6-3.5,8.5-6.2,11.9c-2.7,3.4-5.9,6-9.7,7.9c-3.8,1.9-8.1,2.8-12.8,2.8c-4.1,0-7.5-0.6-10.3-1.9
		c-2.8-1.2-5.4-3-7.6-5.1v29.4H434.9z M468.5,143.9c-3.6,0-6.7,0.8-9.2,2.3c-2.5,1.5-4.9,3.7-7.1,6.4v32.2c2,2.4,4.1,4.1,6.4,5.1
		c2.3,1,4.8,1.4,7.5,1.4c2.6,0,5-0.5,7.1-1.5c2.1-1,3.9-2.5,5.4-4.5c1.5-2,2.6-4.5,3.4-7.6c0.8-3.1,1.2-6.7,1.2-10.8
		c0-4.2-0.3-7.8-1-10.7c-0.7-2.9-1.6-5.3-2.9-7.1c-1.3-1.8-2.8-3.1-4.6-4C472.8,144.3,470.8,143.9,468.5,143.9z"/>
	<path class="st2" d="M544.7,130.5c5.4,0,10.2,0.9,14.6,2.6c4.4,1.7,8.1,4.2,11.2,7.4c3.1,3.2,5.5,7,7.1,11.6
		c1.7,4.6,2.5,9.7,2.5,15.3c0,5.7-0.8,10.8-2.5,15.4c-1.7,4.6-4.1,8.5-7.1,11.7c-3.1,3.2-6.8,5.7-11.2,7.4
		c-4.4,1.7-9.2,2.6-14.6,2.6c-5.4,0-10.2-0.9-14.6-2.6c-4.4-1.7-8.1-4.2-11.2-7.4c-3.1-3.2-5.5-7.1-7.2-11.7
		c-1.7-4.6-2.6-9.7-2.6-15.4c0-5.6,0.9-10.8,2.6-15.3c1.7-4.6,4.1-8.4,7.2-11.6c3.1-3.2,6.8-5.6,11.2-7.4
		C534.5,131.3,539.3,130.5,544.7,130.5z M544.7,191.1c6,0,10.4-2,13.3-6c2.9-4,4.3-9.9,4.3-17.6c0-7.7-1.4-13.6-4.3-17.7
		s-7.3-6.1-13.3-6.1c-6.1,0-10.5,2-13.4,6.1c-2.9,4.1-4.3,10-4.3,17.7c0,7.7,1.4,13.6,4.3,17.6C534.1,189.1,538.6,191.1,544.7,191.1
		z"/>
	<path class="st2" d="M593.6,203.4v-71.8h10.1c1.8,0,3,0.3,3.7,1c0.7,0.7,1.2,1.8,1.4,3.4l1,8.7c2.6-4.4,5.6-7.9,9-10.5
		c3.5-2.6,7.3-3.9,11.6-3.9c3.5,0,6.5,0.8,8.8,2.4l-2.2,13c-0.1,0.8-0.4,1.4-0.9,1.8c-0.5,0.3-1.1,0.5-1.9,0.5
		c-0.7,0-1.7-0.2-2.9-0.5c-1.2-0.3-2.8-0.5-4.8-0.5c-3.6,0-6.7,1-9.2,3c-2.6,2-4.7,4.9-6.5,8.7v44.7H593.6z"/>
	<path class="st2" d="M674.4,204.5c-6.2,0-11-1.8-14.4-5.3c-3.4-3.5-5-8.4-5-14.6v-40.1h-7.3c-0.9,0-1.7-0.3-2.4-0.9
		c-0.7-0.6-1-1.5-1-2.7V134l11.5-1.9l3.6-19.6c0.2-0.9,0.6-1.7,1.3-2.2c0.7-0.5,1.5-0.8,2.6-0.8h9v22.6h18.9v12.3h-18.9v38.9
		c0,2.2,0.6,4,1.7,5.2c1.1,1.3,2.6,1.9,4.5,1.9c1.1,0,2-0.1,2.7-0.4c0.7-0.3,1.4-0.5,1.9-0.8c0.5-0.3,1-0.5,1.4-0.8
		c0.4-0.3,0.8-0.4,1.3-0.4c0.5,0,0.9,0.1,1.3,0.4c0.3,0.3,0.7,0.6,1,1.2l5.2,8.4c-2.5,2.1-5.4,3.7-8.7,4.8
		C681.3,204,677.9,204.5,674.4,204.5z"/>
	<path class="st2" d="M796.8,102.2v15H752v30h37.9v15H752v41.2h-19V102.2H796.8z"/>
	<path class="st2" d="M875.4,102.2v15h-44.9v28.1h35.3v14.5h-35.3v28.6h44.9v15h-63.8V102.2H875.4z"/>
	<path class="st2" d="M961.3,179.5c1,0,1.9,0.4,2.7,1.2l7.4,8.1c-4.1,5.1-9.2,9-15.2,11.7c-6,2.7-13.2,4.1-21.6,4.1
		c-7.5,0-14.3-1.3-20.3-3.9c-6-2.6-11.1-6.1-15.4-10.7c-4.2-4.6-7.5-10-9.8-16.4c-2.3-6.3-3.4-13.3-3.4-20.8
		c0-7.6,1.3-14.6,3.8-20.9c2.5-6.3,6.1-11.8,10.6-16.3c4.6-4.6,10-8.1,16.4-10.7c6.4-2.5,13.4-3.8,21.1-3.8c7.5,0,14.1,1.2,19.7,3.6
		c5.6,2.4,10.4,5.6,14.5,9.6l-6.3,8.8c-0.4,0.6-0.9,1.1-1.4,1.5c-0.6,0.4-1.4,0.6-2.4,0.6c-1.1,0-2.2-0.4-3.3-1.3
		c-1.1-0.8-2.5-1.8-4.3-2.7c-1.7-1-3.9-1.9-6.5-2.7c-2.6-0.8-6-1.3-10-1.3c-4.8,0-9.1,0.8-13.1,2.5c-4,1.7-7.4,4-10.3,7.1
		c-2.9,3.1-5.1,6.8-6.7,11.2c-1.6,4.4-2.4,9.4-2.4,14.9c0,5.7,0.8,10.8,2.4,15.2c1.6,4.4,3.8,8.2,6.5,11.2c2.8,3,6,5.4,9.7,7
		c3.7,1.6,7.7,2.4,12,2.4c2.6,0,4.9-0.1,7-0.4c2.1-0.3,4-0.7,5.7-1.3c1.8-0.6,3.4-1.4,5-2.3c1.6-1,3.1-2.1,4.7-3.5
		c0.5-0.4,1-0.8,1.5-1C960.2,179.7,960.7,179.5,961.3,179.5z"/>
</g>
<path class="st2" d="M177.5,191.1c0-2.6-2.2-4.8-4.8-4.8c-2.6,0-4.8,2.2-4.8,4.8s2.2,4.8,4.8,4.8
	C175.4,195.8,177.5,193.7,177.5,191.1z M196.7,191.1c0-2.6-2.2-4.8-4.8-4.8s-4.8,2.2-4.8,4.8s2.2,4.8,4.8,4.8
	S196.7,193.7,196.7,191.1z M206.2,174.3v23.9c0,4-3.2,7.2-7.2,7.2H89c-4,0-7.2-3.2-7.2-7.2v-23.9c0-4,3.2-7.2,7.2-7.2h34.8
	l10.1,10.2c2.8,2.7,6.3,4.2,10.2,4.2s7.4-1.5,10.2-4.2l10.2-10.2h34.7C203,167.1,206.2,170.3,206.2,174.3z M181.9,131.8
	c0.8,1.8,0.4,3.9-1,5.2l-33.5,33.5c-0.9,1-2.2,1.4-3.4,1.4c-1.2,0-2.5-0.4-3.4-1.4L107.2,137c-1.4-1.3-1.8-3.4-1-5.2
	c0.7-1.7,2.5-2.9,4.4-2.9h19.1V95.4c0-2.6,2.2-4.8,4.8-4.8h19.1c2.6,0,4.8,2.2,4.8,4.8v33.5h19.1
	C179.5,128.9,181.2,130.1,181.9,131.8z"/>
<path class="st3" d="M167.5,181.1c0-2.6-2.2-4.8-4.8-4.8c-2.6,0-4.8,2.2-4.8,4.8s2.2,4.8,4.8,4.8
	C165.4,185.8,167.5,183.7,167.5,181.1z M186.7,181.1c0-2.6-2.2-4.8-4.8-4.8s-4.8,2.2-4.8,4.8s2.2,4.8,4.8,4.8
	S186.7,183.7,186.7,181.1z M196.2,164.3v23.9c0,4-3.2,7.2-7.2,7.2H79c-4,0-7.2-3.2-7.2-7.2v-23.9c0-4,3.2-7.2,7.2-7.2h34.8
	l10.1,10.2c2.8,2.7,6.3,4.2,10.2,4.2s7.4-1.5,10.2-4.2l10.2-10.2h34.7C193,157.1,196.2,160.3,196.2,164.3z M171.9,121.8
	c0.8,1.8,0.4,3.9-1,5.2l-33.5,33.5c-0.9,1-2.2,1.4-3.4,1.4c-1.2,0-2.5-0.4-3.4-1.4L97.2,127c-1.4-1.3-1.8-3.4-1-5.2
	c0.7-1.7,2.5-2.9,4.4-2.9h19.1V85.4c0-2.6,2.2-4.8,4.8-4.8h19.1c2.6,0,4.8,2.2,4.8,4.8v33.5h19.1
	C169.5,118.9,171.2,120.1,171.9,121.8z"/>
<g>
	<path class="st3" d="M333.9,92.2v15h-44.9v28.1h35.4v14.5h-35.4v28.6h44.9v15h-63.8V92.2H333.9z"/>
	<path class="st3" d="M366.3,156.4l-23.6-34.8h16.7c1.3,0,2.2,0.2,2.8,0.5c0.6,0.4,1.1,0.9,1.6,1.7l15,24c0.2-0.8,0.5-1.6,0.9-2.4
		c0.4-0.8,0.8-1.6,1.3-2.4l12.1-18.9c0.6-0.9,1.1-1.5,1.8-2c0.6-0.4,1.4-0.6,2.2-0.6H413l-23.7,34l24.6,37.8h-16.7
		c-1.3,0-2.3-0.3-3-1c-0.8-0.7-1.4-1.4-1.9-2.2l-15.3-25c-0.4,1.7-1,3.1-1.8,4.2l-13.4,20.8c-0.5,0.8-1.1,1.5-1.9,2.2
		c-0.7,0.7-1.7,1-2.8,1h-15.5L366.3,156.4z"/>
	<path class="st3" d="M424.9,216.9v-95.3h10.6c1.1,0,2.1,0.3,2.9,0.8c0.8,0.5,1.3,1.3,1.5,2.4l1.4,6.6c2.9-3.3,6.2-6,10-8
		c3.8-2.1,8.2-3.1,13.2-3.1c3.9,0,7.5,0.8,10.7,2.4c3.2,1.6,6,4,8.4,7.1c2.4,3.1,4.2,6.9,5.5,11.5c1.3,4.6,1.9,9.8,1.9,15.6
		c0,5.4-0.7,10.3-2.2,14.9c-1.4,4.6-3.5,8.5-6.2,11.9c-2.7,3.4-5.9,6-9.7,7.9c-3.8,1.9-8.1,2.8-12.8,2.8c-4.1,0-7.5-0.6-10.3-1.9
		c-2.8-1.2-5.4-3-7.6-5.1v29.4H424.9z M458.5,133.9c-3.6,0-6.7,0.8-9.2,2.3c-2.5,1.5-4.9,3.7-7.1,6.4v32.2c2,2.4,4.1,4.1,6.4,5.1
		c2.3,1,4.8,1.4,7.5,1.4c2.6,0,5-0.5,7.1-1.5c2.1-1,3.9-2.5,5.4-4.5c1.5-2,2.6-4.5,3.4-7.6c0.8-3.1,1.2-6.7,1.2-10.8
		c0-4.2-0.3-7.8-1-10.7c-0.7-2.9-1.6-5.3-2.9-7.1c-1.3-1.8-2.8-3.1-4.6-4C462.8,134.3,460.8,133.9,458.5,133.9z"/>
	<path class="st3" d="M534.7,120.5c5.4,0,10.2,0.9,14.6,2.6c4.4,1.7,8.1,4.2,11.2,7.4c3.1,3.2,5.5,7,7.1,11.6
		c1.7,4.6,2.5,9.7,2.5,15.3c0,5.7-0.8,10.8-2.5,15.4c-1.7,4.6-4.1,8.5-7.1,11.7c-3.1,3.2-6.8,5.7-11.2,7.4
		c-4.4,1.7-9.2,2.6-14.6,2.6c-5.4,0-10.2-0.9-14.6-2.6c-4.4-1.7-8.1-4.2-11.2-7.4c-3.1-3.2-5.5-7.1-7.2-11.7
		c-1.7-4.6-2.6-9.7-2.6-15.4c0-5.6,0.9-10.8,2.6-15.3c1.7-4.6,4.1-8.4,7.2-11.6c3.1-3.2,6.8-5.6,11.2-7.4
		C524.5,121.3,529.3,120.5,534.7,120.5z M534.7,181.1c6,0,10.4-2,13.3-6c2.9-4,4.3-9.9,4.3-17.6c0-7.7-1.4-13.6-4.3-17.7
		s-7.3-6.1-13.3-6.1c-6.1,0-10.5,2-13.4,6.1c-2.9,4.1-4.3,10-4.3,17.7c0,7.7,1.4,13.6,4.3,17.6C524.1,179.1,528.6,181.1,534.7,181.1
		z"/>
	<path class="st3" d="M583.6,193.4v-71.8h10.1c1.8,0,3,0.3,3.7,1c0.7,0.7,1.2,1.8,1.4,3.4l1,8.7c2.6-4.4,5.6-7.9,9-10.5
		c3.5-2.6,7.3-3.9,11.6-3.9c3.5,0,6.5,0.8,8.8,2.4l-2.2,13c-0.1,0.8-0.4,1.4-0.9,1.8c-0.5,0.3-1.1,0.5-1.9,0.5
		c-0.7,0-1.7-0.2-2.9-0.5c-1.2-0.3-2.8-0.5-4.8-0.5c-3.6,0-6.7,1-9.2,3c-2.6,2-4.7,4.9-6.5,8.7v44.7H583.6z"/>
	<path class="st3" d="M664.4,194.5c-6.2,0-11-1.8-14.4-5.3c-3.4-3.5-5-8.4-5-14.6v-40.1h-7.3c-0.9,0-1.7-0.3-2.4-0.9
		c-0.7-0.6-1-1.5-1-2.7V124l11.5-1.9l3.6-19.6c0.2-0.9,0.6-1.7,1.3-2.2c0.7-0.5,1.5-0.8,2.6-0.8h9v22.6h18.9v12.3h-18.9v38.9
		c0,2.2,0.6,4,1.7,5.2c1.1,1.3,2.6,1.9,4.5,1.9c1.1,0,2-0.1,2.7-0.4c0.7-0.3,1.4-0.5,1.9-0.8c0.5-0.3,1-0.5,1.4-0.8
		c0.4-0.3,0.8-0.4,1.3-0.4c0.5,0,0.9,0.1,1.3,0.4c0.3,0.3,0.7,0.6,1,1.2l5.2,8.4c-2.5,2.1-5.4,3.7-8.7,4.8
		C671.3,194,667.9,194.5,664.4,194.5z"/>
	<path class="st3" d="M786.8,92.2v15H742v30h37.9v15H742v41.2h-19V92.2H786.8z"/>
	<path class="st3" d="M865.4,92.2v15h-44.9v28.1h35.3v14.5h-35.3v28.6h44.9v15h-63.8V92.2H865.4z"/>
	<path class="st3" d="M951.3,169.5c1,0,1.9,0.4,2.7,1.2l7.4,8.1c-4.1,5.1-9.2,9-15.2,11.7c-6,2.7-13.2,4.1-21.6,4.1
		c-7.5,0-14.3-1.3-20.3-3.9c-6-2.6-11.1-6.1-15.4-10.7c-4.2-4.6-7.5-10-9.8-16.4c-2.3-6.3-3.4-13.3-3.4-20.8
		c0-7.6,1.3-14.6,3.8-20.9c2.5-6.3,6.1-11.8,10.6-16.3c4.6-4.6,10-8.1,16.4-10.7c6.4-2.5,13.4-3.8,21.1-3.8c7.5,0,14.1,1.2,19.7,3.6
		c5.6,2.4,10.4,5.6,14.5,9.6l-6.3,8.8c-0.4,0.6-0.9,1.1-1.4,1.5c-0.6,0.4-1.4,0.6-2.4,0.6c-1.1,0-2.2-0.4-3.3-1.3
		c-1.1-0.8-2.5-1.8-4.3-2.7c-1.7-1-3.9-1.9-6.5-2.7c-2.6-0.8-6-1.3-10-1.3c-4.8,0-9.1,0.8-13.1,2.5c-4,1.7-7.4,4-10.3,7.1
		c-2.9,3.1-5.1,6.8-6.7,11.2c-1.6,4.4-2.4,9.4-2.4,14.9c0,5.7,0.8,10.8,2.4,15.2c1.6,4.4,3.8,8.2,6.5,11.2c2.8,3,6,5.4,9.7,7
		c3.7,1.6,7.7,2.4,12,2.4c2.6,0,4.9-0.1,7-0.4c2.1-0.3,4-0.7,5.7-1.3c1.8-0.6,3.4-1.4,5-2.3c1.6-1,3.1-2.1,4.7-3.5
		c0.5-0.4,1-0.8,1.5-1C950.2,169.7,950.7,169.5,951.3,169.5z"/>
</g>
</svg>
