<?xml version="1.0" encoding="utf-8"?>
<!-- Generator: Adobe Illustrator 21.1.0, SVG Export Plug-In . SVG Version: 6.00 Build 0)  -->
<svg version="1.1" id="Calque_1" xmlns="http://www.w3.org/2000/svg" xmlns:xlink="http://www.w3.org/1999/xlink" x="0px" y="0px"
	 viewBox="0 0 195 292" style="enable-background:new 0 0 195 292;" xml:space="preserve">
<style type="text/css">
	.st0{fill:url(#SVGID_1_);}
	.st1{fill:url(#SVGID_2_);}
	.st2{fill:#333333;}
</style>
<linearGradient id="SVGID_1_" gradientUnits="userSpaceOnUse" x1="97.4996" y1="1012" x2="97.4996" y2="740" gradientTransform="matrix(1 0 0 1 0 -730)">
	<stop  offset="0" style="stop-color:#E8E8E8"/>
	<stop  offset="1" style="stop-color:#F9F9F9"/>
</linearGradient>
<path class="st0" d="M185,10v272H25c-8,0-15-7-15-15V25c0-8,7-15,15-15H185z"/>
<linearGradient id="SVGID_2_" gradientUnits="userSpaceOnUse" x1="97.4996" y1="1022" x2="97.4996" y2="730" gradientTransform="matrix(1 0 0 1 0 -730)">
	<stop  offset="0" style="stop-color:#BBBBBB"/>
	<stop  offset="1" style="stop-color:#DCDCDC"/>
</linearGradient>
<path class="st1" d="M185,10v272H25c-8,0-15-7-15-15V25c0-8,7-15,15-15H185z M25,0C11,0,0,11,0,25v242c0,14,11,25,25,25h170V0H25z"
	/>
<path class="st2" d="M137.9,85.7c0,1.1-0.5,2.3-1.4,3.1L82,143.5l54.6,54.6c0.8,0.8,1.4,2.1,1.4,3.2c0,1.1-0.5,2.3-1.4,3.1l-6.9,6.9
	c-0.8,0.8-2.1,1.4-3.1,1.4s-2.3-0.5-3.2-1.4l-64.6-64.7c-0.8-0.8-1.4-2.1-1.4-3.1c0-1.1,0.5-2.3,1.4-3.1l64.6-64.7
	c0.8-0.8,2.1-1.3,3.2-1.3c1.1,0,2.3,0.5,3.1,1.3l6.9,6.9C137.4,83.3,137.9,84.5,137.9,85.7z"/>
</svg>
