<?xml version="1.0" encoding="utf-8"?>
<!-- Generator: Adobe Illustrator 24.3.0, SVG Export Plug-In . SVG Version: 6.00 Build 0)  -->
<svg version="1.1" id="Calque_1" xmlns="http://www.w3.org/2000/svg" xmlns:xlink="http://www.w3.org/1999/xlink" x="0px" y="0px"
	 viewBox="0 0 928.6 1000" style="enable-background:new 0 0 928.6 1000;" xml:space="preserve">
<style type="text/css">
	.st0{fill:#333333;}
</style>
<path class="st0" d="M785.7,553.6v267.8c0,19.6-16.2,35.7-35.7,35.7H535.7V642.9H392.9v214.2H178.6c-19.6,0-35.7-16.1-35.7-35.7
	V553.6c0-1.1,0.5-2.3,0.5-3.4l320.9-264.5l320.9,264.5C785.7,551.3,785.7,552.5,785.7,553.6z M910.2,515.1l-34.6,41.3
	c-2.8,3.3-7.3,5.5-11.8,6.1h-1.6c-4.5,0-8.4-1.1-11.8-3.9l-386.1-322l-386.2,322c-3.9,2.8-8.3,4.5-13.4,3.9
	c-4.4-0.6-8.9-2.8-11.7-6.1l-34.6-41.3c-6.1-7.3-5-19,2.2-25.1l401.3-334.3c23.4-19.5,61.4-19.5,84.8,0l136.2,113.8V160.7
	c0-10,7.8-17.8,17.8-17.8h107.2c10,0,17.8,7.8,17.8,17.8v227.7L907.9,490C915.2,496.1,916.3,507.8,910.2,515.1L910.2,515.1z"/>
</svg>
