<?xml version="1.0" encoding="utf-8"?>
<!-- Generator: Adobe Illustrator 24.3.0, SVG Export Plug-In . SVG Version: 6.00 Build 0)  -->
<svg version="1.1" id="Calque_1" xmlns="http://www.w3.org/2000/svg" xmlns:xlink="http://www.w3.org/1999/xlink" x="0px" y="0px"
	 viewBox="0 0 743.4 292" style="enable-background:new 0 0 743.4 292;" xml:space="preserve">
<style type="text/css">
	.st0{fill:url(#SVGID_1_);}
	.st1{fill:url(#SVGID_2_);}
	.st2{fill:#FFFFFF;}
	.st3{fill:#333333;}
</style>
<g>
	
		<linearGradient id="SVGID_1_" gradientUnits="userSpaceOnUse" x1="2124.3" y1="1434" x2="2124.3" y2="1142" gradientTransform="matrix(-1 0 0 1 2496 -1142)">
		<stop  offset="0" style="stop-color:#BBBBBB"/>
		<stop  offset="1" style="stop-color:#DCDCDC"/>
	</linearGradient>
	<path class="st0" d="M25,282c-8,0-15-7-15-15V25c0-8,7-15,15-15h693.5c8,0,15,7,15,15v242c0,8-7,15-15,15H25z M718.4,292
		c14,0,25-11,25-25V25c0-14-11-25-25-25H25C11,0,0,11,0,25v242c0,14,11,25,25,25H718.4z"/>
</g>
<linearGradient id="SVGID_2_" gradientUnits="userSpaceOnUse" x1="2124.25" y1="-400" x2="2124.25" y2="-128" gradientTransform="matrix(-1 0 0 -1 2496 -118)">
	<stop  offset="0" style="stop-color:#E8E8E8"/>
	<stop  offset="1" style="stop-color:#F9F9F9"/>
</linearGradient>
<path class="st1" d="M25,282c-8,0-15-7-15-15V25c0-8,7-15,15-15h693.5c8,0,15,7,15,15v242c0,8-7,15-15,15H25z"/>
<g>
	<g>
		<path class="st2" d="M125.3,102.5c0.6,0.1,1.1,0.2,1.5,0.4c0.4,0.2,0.9,0.5,1.3,0.9s0.9,0.9,1.4,1.6l53.1,67.7
			c-0.2-1.6-0.3-3.2-0.4-4.8s-0.1-3-0.1-4.4v-61.5h16.6v101.2H189c-1.5,0-2.7-0.2-3.7-0.7s-1.9-1.3-2.9-2.5L129.5,133
			c0.1,1.5,0.2,3,0.3,4.4c0.1,1.5,0.1,2.8,0.1,4v62.2h-16.6V102.4h9.9C124,102.4,124.7,102.5,125.3,102.5z"/>
		<path class="st2" d="M248.8,130.7c5.4,0,10.2,0.9,14.6,2.6c4.4,1.7,8.1,4.2,11.2,7.3c3.1,3.2,5.5,7,7.1,11.6
			c1.7,4.6,2.5,9.7,2.5,15.3c0,5.7-0.8,10.8-2.5,15.4c-1.7,4.6-4.1,8.5-7.1,11.7s-6.8,5.7-11.2,7.4c-4.4,1.7-9.2,2.6-14.6,2.6
			s-10.2-0.9-14.6-2.6c-4.4-1.7-8.1-4.2-11.2-7.4s-5.5-7.1-7.2-11.7c-1.7-4.6-2.6-9.7-2.6-15.4c0-5.6,0.9-10.8,2.6-15.3
			c1.7-4.6,4.1-8.4,7.2-11.6c3.1-3.2,6.8-5.6,11.2-7.3S243.4,130.7,248.8,130.7z M248.8,191.4c6,0,10.4-2,13.3-6s4.3-9.9,4.3-17.6
			c0-7.7-1.4-13.7-4.3-17.7s-7.3-6.1-13.3-6.1c-6.1,0-10.5,2-13.4,6.1s-4.3,10-4.3,17.7s1.4,13.6,4.3,17.6S242.7,191.4,248.8,191.4z
			"/>
		<path class="st2" d="M313.5,131.8v45.6c0,4.4,1,7.8,3,10.2s5.1,3.6,9.1,3.6c3,0,5.8-0.7,8.4-2s5.1-3.2,7.4-5.5v-51.9h17.3v71.8
			h-10.6c-2.2,0-3.7-1-4.4-3.2l-1.2-5.7c-1.5,1.5-3,2.9-4.6,4.1c-1.6,1.2-3.3,2.3-5.1,3.2s-3.7,1.5-5.8,2s-4.3,0.7-6.7,0.7
			c-3.9,0-7.4-0.7-10.4-2s-5.5-3.2-7.6-5.6c-2.1-2.4-3.6-5.3-4.7-8.6s-1.6-7-1.6-11v-45.6L313.5,131.8L313.5,131.8z"/>
		<path class="st2" d="M413.3,203.7h-15.7L369,131.9h14.4c1.3,0,2.3,0.3,3.2,0.9c0.9,0.6,1.5,1.4,1.8,2.3l13.9,38.4
			c0.8,2.2,1.5,4.4,2,6.6c0.5,2.1,1,4.3,1.4,6.4c0.4-2.1,0.9-4.3,1.4-6.4c0.5-2.1,1.2-4.3,2.1-6.6l14.2-38.4
			c0.3-0.9,0.9-1.7,1.8-2.3c0.8-0.6,1.8-0.9,3-0.9h13.7L413.3,203.7z"/>
		<path class="st2" d="M479.4,130.7c4.5,0,8.7,0.7,12.5,2.2c3.8,1.4,7.1,3.6,9.8,6.3c2.8,2.8,4.9,6.2,6.4,10.2s2.3,8.6,2.3,13.8
			c0,1.3-0.1,2.4-0.2,3.3c-0.1,0.9-0.3,1.5-0.6,2s-0.7,0.8-1.2,1.1c-0.5,0.2-1.2,0.3-2,0.3H462c0.5,7.4,2.5,12.8,6,16.2
			c3.5,3.5,8,5.2,13.7,5.2c2.8,0,5.2-0.3,7.2-1s3.8-1.4,5.3-2.2s2.8-1.5,4-2.2c1.1-0.7,2.2-1,3.3-1c0.7,0,1.3,0.1,1.8,0.4
			c0.5,0.3,1,0.7,1.3,1.2l5,6.3c-1.9,2.2-4.1,4.1-6.4,5.6c-2.4,1.5-4.9,2.7-7.5,3.6s-5.2,1.6-7.9,1.9c-2.7,0.4-5.3,0.6-7.8,0.6
			c-5,0-9.6-0.8-13.9-2.5c-4.3-1.7-8-4.1-11.2-7.3s-5.7-7.3-7.5-12c-1.8-4.8-2.7-10.3-2.7-16.6c0-4.9,0.8-9.5,2.4-13.8
			c1.6-4.3,3.9-8.1,6.8-11.3c3-3.2,6.6-5.7,10.8-7.6C469.2,131.6,474,130.7,479.4,130.7z M479.7,143.1c-5,0-9,1.4-11.8,4.3
			c-2.8,2.8-4.7,6.9-5.5,12.1h32.5c0-2.2-0.3-4.4-0.9-6.3s-1.5-3.7-2.8-5.2s-2.8-2.7-4.8-3.5C484.5,143.5,482.3,143.1,479.7,143.1z"
			/>
		<path class="st2" d="M580.8,203.7H573c-1.6,0-2.9-0.2-3.8-0.7c-0.9-0.5-1.6-1.5-2.1-3l-1.5-5.1c-1.8,1.6-3.6,3.1-5.4,4.3
			c-1.8,1.2-3.6,2.3-5.4,3.1c-1.9,0.8-3.9,1.5-6,1.9s-4.4,0.6-7,0.6c-3,0-5.8-0.4-8.4-1.2c-2.6-0.8-4.8-2-6.6-3.7s-3.3-3.7-4.3-6.1
			c-1-2.4-1.5-5.3-1.5-8.5c0-2.7,0.7-5.4,2.1-8c1.4-2.6,3.8-5,7.1-7.2c3.3-2.1,7.7-3.9,13.2-5.3c5.5-1.4,12.3-2.1,20.5-2.1v-4.2
			c0-4.8-1-8.4-3-10.8c-2-2.3-5-3.5-8.9-3.5c-2.8,0-5.1,0.3-7,1s-3.5,1.4-4.9,2.2s-2.6,1.6-3.8,2.2c-1.2,0.7-2.5,1-3.9,1
			c-1.2,0-2.2-0.3-3-0.9s-1.5-1.4-2-2.2l-3.1-5.5c8.3-7.6,18.2-11.3,29.9-11.3c4.2,0,7.9,0.7,11.2,2.1c3.3,1.4,6.1,3.3,8.4,5.7
			c2.3,2.5,4,5.4,5.2,8.8c1.2,3.4,1.8,7.1,1.8,11.2V203.7z M547.2,192.9c1.8,0,3.4-0.2,4.9-0.5s2.9-0.8,4.2-1.4
			c1.3-0.6,2.6-1.4,3.9-2.4c1.2-0.9,2.5-2.1,3.7-3.3v-12c-5,0-9.3,0.3-12.6,1c-3.4,0.6-6.1,1.4-8.2,2.4c-2.1,1-3.5,2.1-4.4,3.5
			c-0.9,1.3-1.3,2.7-1.3,4.3c0,3.1,0.9,5.2,2.7,6.6C542,192.2,544.3,192.9,547.2,192.9z"/>
		<path class="st2" d="M613.6,131.8v45.6c0,4.4,1,7.8,3,10.2s5.1,3.6,9.1,3.6c3,0,5.8-0.7,8.4-2s5.1-3.2,7.4-5.5v-51.9h17.3v71.8
			h-10.6c-2.2,0-3.7-1-4.4-3.2l-1.2-5.7c-1.5,1.5-3,2.9-4.6,4.1c-1.6,1.2-3.3,2.3-5.1,3.2s-3.7,1.5-5.8,2s-4.3,0.7-6.7,0.7
			c-3.9,0-7.4-0.7-10.4-2s-5.5-3.2-7.6-5.6c-2.1-2.4-3.6-5.3-4.7-8.6s-1.6-7-1.6-11v-45.6L613.6,131.8L613.6,131.8z"/>
	</g>
	<g>
		<path class="st3" d="M115.3,92.5c0.6,0.1,1.1,0.2,1.5,0.4c0.4,0.2,0.9,0.5,1.3,0.9s0.9,0.9,1.4,1.6l53.1,67.7
			c-0.2-1.6-0.3-3.2-0.4-4.8s-0.1-3-0.1-4.4V92.4h16.6v101.2H179c-1.5,0-2.7-0.2-3.7-0.7s-1.9-1.3-2.9-2.5L119.5,123
			c0.1,1.5,0.2,3,0.3,4.4c0.1,1.5,0.1,2.8,0.1,4v62.2h-16.6V92.4h9.9C114,92.4,114.7,92.5,115.3,92.5z"/>
		<path class="st3" d="M238.8,120.7c5.4,0,10.2,0.9,14.6,2.6s8.1,4.2,11.2,7.3c3.1,3.2,5.5,7,7.1,11.6s2.5,9.7,2.5,15.3
			c0,5.7-0.8,10.8-2.5,15.4c-1.7,4.6-4.1,8.5-7.1,11.7s-6.8,5.7-11.2,7.4c-4.4,1.7-9.2,2.6-14.6,2.6s-10.2-0.9-14.6-2.6
			c-4.4-1.7-8.1-4.2-11.2-7.4s-5.5-7.1-7.2-11.7c-1.7-4.6-2.6-9.7-2.6-15.4c0-5.6,0.9-10.8,2.6-15.3c1.7-4.6,4.1-8.4,7.2-11.6
			c3.1-3.2,6.8-5.6,11.2-7.3C228.6,121.6,233.4,120.7,238.8,120.7z M238.8,181.4c6,0,10.4-2,13.3-6s4.3-9.9,4.3-17.6
			c0-7.7-1.4-13.7-4.3-17.7s-7.3-6.1-13.3-6.1c-6.1,0-10.5,2-13.4,6.1s-4.3,10-4.3,17.7s1.4,13.6,4.3,17.6S232.7,181.4,238.8,181.4z
			"/>
		<path class="st3" d="M303.5,121.8v45.6c0,4.4,1,7.8,3,10.2s5.1,3.6,9.1,3.6c3,0,5.8-0.7,8.4-2s5.1-3.2,7.4-5.5v-51.9h17.3v71.8
			h-10.6c-2.2,0-3.7-1-4.4-3.2l-1.2-5.7c-1.5,1.5-3,2.9-4.6,4.1s-3.3,2.3-5.1,3.2s-3.7,1.5-5.8,2s-4.3,0.7-6.7,0.7
			c-3.9,0-7.4-0.7-10.4-2s-5.5-3.2-7.6-5.6c-2.1-2.4-3.6-5.3-4.7-8.6c-1-3.3-1.6-7-1.6-11v-45.6L303.5,121.8L303.5,121.8z"/>
		<path class="st3" d="M403.3,193.7h-15.7L359,121.9h14.3c1.3,0,2.3,0.3,3.2,0.9s1.5,1.4,1.8,2.3l13.9,38.4c0.8,2.2,1.5,4.4,2,6.6
			s1,4.3,1.4,6.4c0.4-2.1,0.9-4.3,1.4-6.4c0.5-2.1,1.2-4.3,2.1-6.6l14.2-38.4c0.3-0.9,0.9-1.7,1.8-2.3c0.8-0.6,1.8-0.9,3-0.9h13.7
			L403.3,193.7z"/>
		<path class="st3" d="M469.4,120.7c4.5,0,8.7,0.7,12.5,2.2c3.8,1.4,7.1,3.6,9.8,6.3c2.8,2.8,4.9,6.2,6.4,10.2s2.3,8.6,2.3,13.8
			c0,1.3-0.1,2.4-0.2,3.3s-0.3,1.5-0.6,2s-0.7,0.8-1.2,1.1c-0.5,0.2-1.2,0.3-2,0.3H452c0.5,7.4,2.5,12.8,6,16.2
			c3.5,3.5,8,5.2,13.7,5.2c2.8,0,5.2-0.3,7.2-1s3.8-1.4,5.3-2.2s2.8-1.5,4-2.2c1.1-0.7,2.3-1,3.3-1c0.7,0,1.3,0.1,1.8,0.4
			c0.5,0.3,1,0.7,1.3,1.2l5,6.3c-1.9,2.2-4.1,4.1-6.4,5.6c-2.4,1.5-4.9,2.7-7.5,3.6s-5.2,1.6-7.9,1.9c-2.7,0.4-5.3,0.6-7.8,0.6
			c-5,0-9.6-0.8-13.9-2.5c-4.3-1.7-8-4.1-11.2-7.3s-5.7-7.3-7.5-12c-1.8-4.8-2.7-10.3-2.7-16.6c0-4.9,0.8-9.5,2.4-13.8
			c1.6-4.3,3.9-8.1,6.8-11.3c3-3.2,6.6-5.7,10.8-7.6C459.2,121.6,464,120.7,469.4,120.7z M469.7,133.1c-5,0-9,1.4-11.8,4.3
			c-2.8,2.8-4.7,6.9-5.5,12.1h32.5c0-2.2-0.3-4.4-0.9-6.3s-1.5-3.7-2.8-5.2s-2.8-2.7-4.8-3.5C474.5,133.5,472.3,133.1,469.7,133.1z"
			/>
		<path class="st3" d="M570.8,193.7H563c-1.6,0-2.9-0.2-3.8-0.7c-0.9-0.5-1.6-1.5-2.1-3l-1.5-5.1c-1.8,1.6-3.6,3.1-5.4,4.3
			c-1.8,1.2-3.6,2.3-5.4,3.1c-1.9,0.8-3.9,1.5-6,1.9s-4.4,0.6-7,0.6c-3,0-5.8-0.4-8.4-1.2c-2.6-0.8-4.8-2-6.6-3.7s-3.3-3.7-4.3-6.1
			c-1-2.4-1.5-5.3-1.5-8.5c0-2.7,0.7-5.4,2.1-8c1.4-2.6,3.8-5,7.1-7.2c3.3-2.1,7.7-3.9,13.2-5.3s12.3-2.1,20.5-2.1v-4.2
			c0-4.8-1-8.4-3-10.8c-2-2.3-5-3.5-8.9-3.5c-2.8,0-5.1,0.3-7,1s-3.5,1.4-4.9,2.2s-2.6,1.6-3.8,2.2c-1.2,0.7-2.5,1-3.9,1
			c-1.2,0-2.2-0.3-3-0.9s-1.5-1.4-2-2.2l-3.2-5.5c8.3-7.6,18.2-11.3,29.9-11.3c4.2,0,7.9,0.7,11.2,2.1s6.1,3.3,8.4,5.7
			c2.3,2.5,4,5.4,5.2,8.8c1.2,3.4,1.8,7.1,1.8,11.2v45.2H570.8z M537.2,182.9c1.8,0,3.4-0.2,4.9-0.5s2.9-0.8,4.2-1.4
			c1.3-0.6,2.6-1.4,3.8-2.4s2.5-2.1,3.7-3.3v-12c-5,0-9.3,0.3-12.6,1c-3.4,0.6-6.1,1.4-8.2,2.4c-2.1,1-3.5,2.1-4.4,3.5
			c-0.9,1.3-1.3,2.7-1.3,4.3c0,3.1,0.9,5.2,2.7,6.6C532,182.2,534.3,182.9,537.2,182.9z"/>
		<path class="st3" d="M603.6,121.8v45.6c0,4.4,1,7.8,3,10.2s5.1,3.6,9.1,3.6c3,0,5.8-0.7,8.4-2s5.1-3.2,7.4-5.5v-51.9h17.3v71.8
			h-10.6c-2.2,0-3.7-1-4.4-3.2l-1.2-5.7c-1.5,1.5-3,2.9-4.6,4.1s-3.3,2.3-5.1,3.2s-3.7,1.5-5.8,2s-4.3,0.7-6.7,0.7
			c-3.9,0-7.4-0.7-10.4-2s-5.5-3.2-7.6-5.6c-2.1-2.4-3.6-5.3-4.7-8.6c-1-3.3-1.6-7-1.6-11v-45.6L603.6,121.8L603.6,121.8z"/>
	</g>
</g>
</svg>
