<?xml version="1.0" encoding="utf-8"?>
<!-- Generator: Adobe Illustrator 26.0.2, SVG Export Plug-In . SVG Version: 6.00 Build 0)  -->
<svg version="1.1" id="Calque_1" xmlns="http://www.w3.org/2000/svg" xmlns:xlink="http://www.w3.org/1999/xlink" x="0px" y="0px"
	 viewBox="0 0 840 1000" style="enable-background:new 0 0 840 1000;" xml:space="preserve">
<style type="text/css">
	.st0{fill:#333333;}
</style>
<path class="st0" d="M700,710c0-38.3-31.8-70-70-70S560,671.7,560,710s31.8,70,70.1,70S700,748.2,700,710z M280,290
	c0-38.2-31.8-70-70-70s-70,31.8-70,70s31.7,70,70,70S280,328.3,280,290z M840,710c0,115.9-94,210-209.9,210S420,826,420,710
	s94.1-210,210-210S840,594.1,840,710z M787.6,114.9c0,7.7-2.7,14.8-7.2,20.8L202.9,905.8c-6.6,8.7-17,14.2-27.8,14.2H87.5
	c-19.1,0-35-15.9-35-35c0-7.7,2.7-14.8,7.1-20.8L637.1,94.2c6.6-8.7,17-14.2,27.9-14.2h87.5C771.7,80,787.6,95.8,787.6,114.9
	L787.6,114.9z M420,290c0,115.9-94.1,210-210,210S0,405.9,0,290S94.1,80,210,80S420,174,420,290L420,290z"/>
</svg>
