<?xml version="1.0" encoding="utf-8"?>
<!-- Generator: Adobe Illustrator 21.1.0, SVG Export Plug-In . SVG Version: 6.00 Build 0)  -->
<svg version="1.1" id="Calque_1" xmlns="http://www.w3.org/2000/svg" xmlns:xlink="http://www.w3.org/1999/xlink" x="0px" y="0px"
	 viewBox="0 0 579 292" style="enable-background:new 0 0 579 292;" xml:space="preserve">
<style type="text/css">
	.st0{fill:url(#SVGID_1_);}
	.st1{fill:url(#SVGID_2_);}
	.st2{fill:#333333;}
</style>
<linearGradient id="SVGID_1_" gradientUnits="userSpaceOnUse" x1="289.5" y1="2" x2="289.5" y2="294" gradientTransform="matrix(1 0 0 -1 0 294)">
	<stop  offset="0" style="stop-color:#BBBBBB"/>
	<stop  offset="1" style="stop-color:#DCDCDC"/>
</linearGradient>
<rect class="st0" width="579" height="292"/>
<linearGradient id="SVGID_2_" gradientUnits="userSpaceOnUse" x1="289.5" y1="12" x2="289.5" y2="284" gradientTransform="matrix(1 0 0 -1 0 294)">
	<stop  offset="0" style="stop-color:#E8E8E8"/>
	<stop  offset="1" style="stop-color:#F9F9F9"/>
</linearGradient>
<rect x="10" y="10" class="st1" width="559" height="272"/>
<g>
	<path class="st2" d="M128.6,97v13.7h-41v25.7h32.3v13.2H87.6v26.2h41v13.8H70.3V97H128.6z"/>
	<path class="st2" d="M165.8,142L136.3,97h17.2c1.2,0,2.1,0.2,2.6,0.5c0.5,0.3,1,0.8,1.4,1.6l21.1,34c0.2-0.6,0.4-1.1,0.7-1.6
		c0.3-0.5,0.6-1.1,0.9-1.6l19.3-30.4c0.9-1.6,2.2-2.4,3.6-2.4h16.5l-29.8,44.2l30.7,48.3h-17.2c-1.2,0-2.1-0.3-2.8-0.9
		c-0.7-0.6-1.3-1.3-1.8-2l-21.4-35.5c-0.2,0.5-0.4,1-0.6,1.4c-0.2,0.4-0.4,0.9-0.6,1.2l-20.5,32.8c-0.5,0.7-1,1.4-1.7,2
		c-0.7,0.6-1.5,0.9-2.6,0.9H135L165.8,142z"/>
	<path class="st2" d="M259.6,96c4.3,0,8.2,0.6,11.7,1.9c3.5,1.3,6.6,3,9.1,5.3c2.5,2.3,4.5,5.1,5.9,8.3c1.4,3.2,2.1,6.8,2.1,10.8
		c0,3.4-0.5,6.6-1.5,9.5c-1,2.9-2.3,5.7-4,8.3c-1.7,2.6-3.7,5.2-5.9,7.7c-2.3,2.5-4.6,5-7.1,7.6L249,176.7c2-0.6,4.1-1.1,6-1.4
		c2-0.3,3.8-0.5,5.6-0.5h23.7c1.7,0,3.1,0.5,4.1,1.4c1,1,1.5,2.2,1.5,3.8v9.5h-63.5v-5.2c0-1.1,0.2-2.2,0.7-3.3
		c0.4-1.2,1.2-2.2,2.1-3.2l28.1-28.2c2.3-2.4,4.4-4.7,6.3-6.8c1.9-2.2,3.4-4.3,4.7-6.5c1.3-2.1,2.2-4.3,2.9-6.5c0.7-2.2,1-4.5,1-6.9
		c0-2.2-0.3-4.2-1-5.9c-0.6-1.7-1.6-3.1-2.8-4.3c-1.2-1.2-2.6-2-4.3-2.6c-1.6-0.6-3.5-0.9-5.5-0.9c-3.8,0-6.9,1-9.4,2.9
		c-2.5,1.9-4.2,4.5-5.2,7.7c-0.5,1.6-1.2,2.8-2.1,3.5c-0.9,0.7-2.1,1.1-3.6,1.1c-0.6,0-1.3-0.1-2.1-0.2l-8.3-1.5
		c0.6-4.4,1.9-8.3,3.7-11.7c1.8-3.3,4.1-6.1,6.9-8.4c2.8-2.2,5.9-3.9,9.5-5.1C251.7,96.6,255.6,96,259.6,96z"/>
	<path class="st2" d="M366.4,143.3c0,8.1-0.9,15.1-2.6,21c-1.7,6-4.1,10.9-7.2,14.8c-3.1,3.9-6.7,6.8-10.8,8.7s-8.7,2.8-13.5,2.8
		c-4.8,0-9.3-0.9-13.4-2.8c-4.1-1.9-7.7-4.8-10.7-8.7c-3-3.9-5.4-8.8-7.1-14.8s-2.6-13-2.6-21c0-8.1,0.9-15.1,2.6-21.1
		c1.7-5.9,4.1-10.8,7.1-14.7c3-3.9,6.6-6.8,10.7-8.7c4.1-1.9,8.6-2.8,13.4-2.8c4.8,0,9.3,0.9,13.5,2.8c4.2,1.9,7.8,4.8,10.8,8.7
		c3,3.9,5.4,8.8,7.2,14.7C365.5,128.2,366.4,135.2,366.4,143.3z M350.1,143.3c0-6.7-0.5-12.2-1.5-16.6c-1-4.4-2.3-7.9-3.9-10.5
		c-1.6-2.6-3.5-4.4-5.7-5.5c-2.1-1-4.4-1.6-6.7-1.6c-2.3,0-4.4,0.5-6.6,1.6c-2.1,1-4,2.9-5.6,5.5c-1.6,2.6-2.9,6.1-3.9,10.5
		c-1,4.4-1.4,9.9-1.4,16.6c0,6.7,0.5,12.2,1.4,16.6c1,4.4,2.2,7.9,3.9,10.5c1.6,2.6,3.5,4.4,5.6,5.5c2.1,1,4.3,1.6,6.6,1.6
		c2.3,0,4.5-0.5,6.7-1.6c2.1-1,4-2.9,5.7-5.5c1.6-2.6,3-6.1,3.9-10.5C349.6,155.6,350.1,150,350.1,143.3z"/>
	<path class="st2" d="M386.8,177.7h18.8v-54c0-2.1,0.1-4.3,0.2-6.6l-13.3,11.1c-0.6,0.5-1.1,0.8-1.7,1c-0.6,0.2-1.1,0.3-1.7,0.3
		c-0.9,0-1.6-0.2-2.3-0.5c-0.7-0.4-1.2-0.8-1.6-1.2l-5-6.8l28.2-24h13v80.8H438v11.8h-51.2V177.7z"/>
	<path class="st2" d="M514,97v6.8c0,2-0.2,3.7-0.7,5c-0.4,1.3-0.9,2.3-1.3,3.2l-35,72.2c-0.7,1.5-1.8,2.8-3.1,3.8
		c-1.3,1-3.1,1.6-5.4,1.6h-11.5l35.8-70.7c1.5-2.9,3.2-5.4,5-7.5h-44.3c-1,0-1.8-0.4-2.6-1.1c-0.7-0.7-1.1-1.6-1.1-2.6V97H514z"/>
</g>
</svg>
