<?xml version="1.0" encoding="utf-8"?>
<!-- Generator: Adobe Illustrator 22.1.0, SVG Export Plug-In . SVG Version: 6.00 Build 0)  -->
<svg version="1.1" id="Calque_1" xmlns="http://www.w3.org/2000/svg" xmlns:xlink="http://www.w3.org/1999/xlink" x="0px" y="0px"
	 viewBox="0 0 847 293" style="enable-background:new 0 0 847 293;" xml:space="preserve">
<style type="text/css">
	.st0{fill:#D81E08;}
	.st1{fill:#F7D2CE;}
</style>
<g>
	<path class="st0" d="M0,267V26C0,11.6,11.6,0,26,0h795c14.4,0,26,11.6,26,26v241c0,14.4-11.6,26-26,26H26C11.6,293,0,281.4,0,267z"
		/>
	<path class="st1" d="M823.1,274.6H23.9c-3.3,0-6-2.7-6-6V24.4c0-3.3,2.7-6,6-6h799.3c3.3,0,6,2.7,6,6v244.3
		C829.1,271.9,826.4,274.6,823.1,274.6z"/>
</g>
<g>
	<path class="st0" d="M226.9,189.4h-12.5c-1.4,0-2.5-0.3-3.5-1c-0.9-0.7-1.6-1.6-1.9-2.6l-6.5-17.7h-35.9l-6.5,17.7
		c-0.3,0.9-1,1.8-1.9,2.5c-0.9,0.8-2.1,1.1-3.5,1.1h-12.5l34.1-86.8h16.5L226.9,189.4z M170.7,156.7h27.7l-10.6-28.9
		c-0.5-1.3-1-2.8-1.6-4.5s-1.2-3.6-1.7-5.7c-0.6,2-1.1,3.9-1.7,5.7c-0.5,1.8-1.1,3.3-1.6,4.6L170.7,156.7z"/>
	<path class="st0" d="M246.1,102.8c0.5,0.1,0.9,0.2,1.3,0.4c0.4,0.2,0.8,0.4,1.1,0.8s0.8,0.8,1.2,1.3l45.5,58
		c-0.2-1.4-0.3-2.8-0.3-4.1c-0.1-1.3-0.1-2.6-0.1-3.8v-52.7H309v86.8h-8.3c-1.3,0-2.3-0.2-3.2-0.6c-0.8-0.4-1.7-1.1-2.5-2.2
		l-45.4-57.8c0.1,1.3,0.2,2.5,0.3,3.8s0.1,2.4,0.1,3.5v53.3h-14.2v-86.8h8.5C245,102.7,245.6,102.7,246.1,102.8z"/>
	<path class="st0" d="M336.8,102.8c0.5,0.1,0.9,0.2,1.3,0.4c0.4,0.2,0.8,0.4,1.1,0.8s0.8,0.8,1.2,1.3l45.5,58
		c-0.2-1.4-0.3-2.8-0.3-4.1c-0.1-1.3-0.1-2.6-0.1-3.8v-52.7h14.2v86.8h-8.3c-1.3,0-2.3-0.2-3.2-0.6c-0.8-0.4-1.7-1.1-2.5-2.2
		l-45.4-57.8c0.1,1.3,0.2,2.5,0.3,3.8c0.1,1.3,0.1,2.4,0.1,3.5v53.3h-14.2v-86.8h8.5C335.7,102.7,336.3,102.7,336.8,102.8z"/>
	<path class="st0" d="M452.2,176.4c3.1,0,5.9-0.5,8.4-1.6c2.5-1,4.5-2.5,6.2-4.4s3-4.2,3.9-6.8c0.9-2.7,1.3-5.7,1.3-9v-52h16.1v52
		c0,5.2-0.8,9.9-2.5,14.3c-1.7,4.4-4.1,8.2-7.2,11.3c-3.1,3.2-6.9,5.7-11.3,7.4c-4.4,1.8-9.4,2.7-15,2.7s-10.6-0.9-15-2.7
		s-8.2-4.3-11.3-7.4c-3.1-3.2-5.5-7-7.1-11.3c-1.7-4.4-2.5-9.1-2.5-14.3v-52h16.1v51.9c0,3.3,0.5,6.3,1.4,9s2.2,5,3.9,6.9
		c1.7,1.9,3.8,3.4,6.2,4.4C446.2,175.9,449,176.4,452.2,176.4z"/>
	<path class="st0" d="M520.7,176.1h34.7v13.3h-50.9v-86.8h16.1L520.7,176.1L520.7,176.1z"/>
	<path class="st0" d="M621.3,102.7v12.8h-38.5v24.1h30.3V152h-30.3v24.5h38.5v12.9h-54.7v-86.8h54.7V102.7z"/>
	<path class="st0" d="M652,155.5v33.9h-16.1v-86.8h26.5c5.9,0,11,0.6,15.2,1.8c4.2,1.2,7.7,2.9,10.4,5.1s4.7,4.8,5.9,7.9
		c1.3,3.1,1.9,6.4,1.9,10.1c0,2.9-0.4,5.7-1.3,8.3c-0.9,2.6-2.1,5-3.7,7.1s-3.6,4-6,5.6s-5.1,2.9-8.1,3.8c2,1.2,3.8,2.8,5.3,5
		l21.7,32h-14.5c-1.4,0-2.6-0.3-3.6-0.8c-1-0.6-1.8-1.4-2.5-2.4l-18.2-27.8c-0.7-1-1.4-1.8-2.2-2.2s-2-0.7-3.6-0.7L652,155.5
		L652,155.5z M652,144h10.1c3,0,5.7-0.4,8-1.1c2.3-0.8,4.1-1.8,5.6-3.1s2.5-2.9,3.3-4.8c0.7-1.8,1.1-3.9,1.1-6.1
		c0-4.4-1.5-7.8-4.4-10.1c-2.9-2.4-7.3-3.5-13.3-3.5H652V144z"/>
</g>
</svg>
