<?xml version="1.0" encoding="utf-8"?>
<!-- Generator: Adobe Illustrator 22.0.1, SVG Export Plug-In . SVG Version: 6.00 Build 0)  -->
<svg version="1.1" id="Calque_1" xmlns="http://www.w3.org/2000/svg" xmlns:xlink="http://www.w3.org/1999/xlink" x="0px" y="0px"
	 viewBox="0 0 71 71" style="enable-background:new 0 0 71 71;" xml:space="preserve">
<style type="text/css">
	.st0{fill:#FF0000;}
	.st1{fill:#FEFEFE;}
</style>
<g>
	<g id="Ellipse_1_copie_2_">
		<g>
			<circle class="st0" cx="35.5" cy="35.5" r="35.5"/>
		</g>
	</g>
	<g>
		<path class="st1" d="M36.6,49.5H24.3v-28h10.9c1.9,0,3.5,0.2,4.9,0.7s2.4,1.1,3.1,1.8c1.3,1.4,1.9,3.1,1.9,4.9
			c0,2.2-0.7,3.8-2.1,4.9c-0.5,0.4-0.8,0.6-1,0.7c-0.2,0.1-0.5,0.2-1,0.5c1.7,0.4,3.1,1.2,4.1,2.3c1,1.2,1.5,2.7,1.5,4.4
			c0,1.9-0.7,3.7-2,5.2C43.1,48.6,40.4,49.5,36.6,49.5z M30.6,32.8h3c1.7,0,3-0.2,3.9-0.6c0.8-0.4,1.3-1.2,1.3-2.4
			c0-1.2-0.4-2.1-1.2-2.5s-2.1-0.6-3.9-0.6h-3L30.6,32.8L30.6,32.8z M30.6,44.2h4.3c1.8,0,3.1-0.2,4-0.7c0.9-0.4,1.3-1.3,1.3-2.6
			s-0.5-2.1-1.4-2.6c-0.9-0.4-2.5-0.6-4.5-0.6h-3.7C30.6,37.7,30.6,44.2,30.6,44.2z"/>
	</g>
</g>
</svg>
