<?xml version="1.0" encoding="utf-8"?>
<!-- Generator: Adobe Illustrator 21.1.0, SVG Export Plug-In . SVG Version: 6.00 Build 0)  -->
<svg version="1.1" id="Calque_1" xmlns="http://www.w3.org/2000/svg" xmlns:xlink="http://www.w3.org/1999/xlink" x="0px" y="0px"
	 viewBox="0 0 1000 1000" style="enable-background:new 0 0 1000 1000;" xml:space="preserve">
<style type="text/css">
	.st0{fill:#FF0000;stroke:#000000;stroke-miterlimit:10;}
	.st1{fill:#FFFFFF;}
</style>
<rect class="st0" width="1000" height="1000"/>
<path class="st1" d="M507.3,866.9c0-4.1-3.2-7.3-7.3-7.3c-36.2,0-66.1-29.8-66.1-66.1c0-4.1-3.2-7.3-7.3-7.3s-7.3,3.2-7.3,7.3
	c0,44.5,36.2,80.8,80.7,80.8C504.1,874.2,507.3,871,507.3,866.9L507.3,866.9z M201.9,734.8h596.1c-82.1-92.6-122-218.3-122-381.6
	c0-59.2-56-146.7-176.1-146.7s-176.1,87.5-176.1,146.7C323.9,516.5,284,642.2,201.9,734.8L201.9,734.8z M881.6,734.8
	c0,32.1-26.6,58.7-58.7,58.7H617.4c0,64.7-52.8,117.4-117.4,117.4s-117.4-52.8-117.4-117.4H177.1c-32.1,0-58.7-26.5-58.7-58.7
	c67.9-57.3,146.8-160,146.8-381.6c0-88,72.9-184.3,194.4-202.2c-2.3-5.5-3.7-11.4-3.7-17.8c0-24.3,19.7-44,44-44
	c24.3,0,44,19.7,44,44c0,6.4-1.4,12.3-3.7,17.8c121.5,17.9,194.4,114.2,194.4,202.2C734.8,574.8,813.7,677.5,881.6,734.8
	L881.6,734.8z"/>
</svg>
