<?xml version="1.0" encoding="utf-8"?>
<!-- Generator: Adobe Illustrator 24.3.0, SVG Export Plug-In . SVG Version: 6.00 Build 0)  -->
<svg version="1.1" id="Calque_1" xmlns="http://www.w3.org/2000/svg" xmlns:xlink="http://www.w3.org/1999/xlink" x="0px" y="0px"
	 viewBox="0 0 928.6 1000" style="enable-background:new 0 0 928.6 1000;" xml:space="preserve">
<style type="text/css">
	.st0{fill:#333333;}
</style>
<path class="st0" d="M885,558.9c0,18.4-15.3,33.6-33.6,33.6H733.6c0,65.8-14.2,115.2-35.2,152.6L807.7,855
	c13.1,13.1,13.1,34.2,0,47.3c-6.3,6.9-15.3,10-23.7,10s-17.3-3.1-23.7-10l-104-103.6c0,0-68.9,63-158.3,63V390.6h-67.3v471.2
	c-95.2,0-164.6-69.4-164.6-69.4l-96.2,108.9c-6.9,7.4-15.8,11-25.3,11c-7.9,0-15.7-2.6-22.6-8.4c-13.7-12.6-14.7-33.6-2.6-47.9
	l106.2-119.4c-18.4-36.3-30.4-83-30.4-144.1h-118c-18.5,0-33.6-15.3-33.6-33.6c0-18.4,15.2-33.6,33.6-33.6H195V370.6l-91-90.9
	c-13.1-13.2-13.1-34.2,0-47.3s34.2-13.2,47.4,0l90.9,90.9h443.9l90.9-90.9c13.2-13.2,34.2-13.2,47.3,0s13.2,34.1,0,47.3l-90.9,90.9
	v154.7h117.8C869.7,525.3,885,540.5,885,558.9z M632.6,256H296c0-93.1,75.2-168.3,168.3-168.3S632.6,162.9,632.6,256z"/>
</svg>
