<?xml version="1.0" encoding="utf-8"?>
<!-- Generator: Adobe Illustrator 24.3.0, SVG Export Plug-In . SVG Version: 6.00 Build 0)  -->
<svg version="1.1" id="Calque_1" xmlns="http://www.w3.org/2000/svg" xmlns:xlink="http://www.w3.org/1999/xlink" x="0px" y="0px"
	 viewBox="0 0 663.4 292" style="enable-background:new 0 0 663.4 292;" xml:space="preserve">
<style type="text/css">
	.st0{fill:url(#SVGID_1_);}
	.st1{fill:url(#SVGID_2_);}
	.st2{opacity:0.8;}
	.st3{fill:#FFFFFF;}
	.st4{fill:#333333;}
</style>
<g>
	
		<linearGradient id="SVGID_1_" gradientUnits="userSpaceOnUse" x1="442.3" y1="-934" x2="442.3" y2="-642" gradientTransform="matrix(-1 0 0 -1 774 -642)">
		<stop  offset="0" style="stop-color:#BBBBBB"/>
		<stop  offset="1" style="stop-color:#DCDCDC"/>
	</linearGradient>
	<path class="st0" d="M25,282c-8,0-15-7-15-15V25c0-8,7-15,15-15h613.5c8,0,15,7,15,15v242c0,8-7,15-15,15H25z M638.4,292
		c14,0,25-11,25-25V25c0-14-11-25-25-25H25C11,0,0,11,0,25v242c0,14,11,25,25,25H638.4z"/>
</g>
<linearGradient id="SVGID_2_" gradientUnits="userSpaceOnUse" x1="442.25" y1="694" x2="442.25" y2="422" gradientTransform="matrix(-1 0 0 1 774 -412)">
	<stop  offset="0" style="stop-color:#E8E8E8"/>
	<stop  offset="1" style="stop-color:#F9F9F9"/>
</linearGradient>
<path class="st1" d="M25,282c-8,0-15-7-15-15V25c0-8,7-15,15-15h613.5c8,0,15,7,15,15v242c0,8-7,15-15,15H25z"/>
<g>
	<g class="st2">
		<g>
			<path class="st3" d="M320.9,179.8c1,0,1.9,0.4,2.7,1.2l7.4,8c-4.1,5.1-9.2,9-15.2,11.7s-13.2,4.1-21.6,4.1
				c-7.5,0-14.3-1.3-20.3-3.9c-6-2.6-11.1-6.1-15.4-10.7c-4.2-4.6-7.5-10-9.8-16.4c-2.3-6.3-3.4-13.3-3.4-20.8
				c0-7.6,1.3-14.6,3.8-20.9c2.5-6.3,6.1-11.8,10.6-16.3c4.6-4.6,10-8.1,16.4-10.7c6.4-2.5,13.4-3.8,21.1-3.8
				c7.5,0,14.1,1.2,19.7,3.6s10.4,5.6,14.5,9.6l-6.3,8.8c-0.4,0.6-0.9,1.1-1.4,1.5c-0.6,0.4-1.4,0.6-2.4,0.6c-1.1,0-2.2-0.4-3.3-1.3
				c-1.1-0.8-2.5-1.8-4.3-2.7c-1.7-1-3.9-1.9-6.5-2.7c-2.6-0.8-6-1.3-10-1.3c-4.8,0-9.1,0.8-13.1,2.5s-7.4,4-10.3,7.1
				c-2.9,3.1-5.1,6.8-6.7,11.2s-2.4,9.4-2.4,14.9c0,5.7,0.8,10.8,2.4,15.2s3.8,8.2,6.5,11.2c2.8,3,6,5.4,9.7,7s7.7,2.4,12,2.4
				c2.6,0,4.9-0.1,7-0.4c2.1-0.3,4-0.7,5.7-1.3s3.4-1.4,5-2.3c1.6-1,3.1-2.1,4.7-3.5c0.5-0.4,1-0.8,1.5-1
				C319.8,179.9,320.3,179.8,320.9,179.8z"/>
			<path class="st3" d="M400.5,203.7h-7.8c-1.6,0-2.9-0.2-3.9-0.7c-0.9-0.5-1.6-1.5-2.1-3l-1.5-5.1c-1.8,1.6-3.6,3.1-5.4,4.3
				s-3.6,2.3-5.4,3.1c-1.9,0.8-3.9,1.5-6,1.9s-4.4,0.6-7,0.6c-3,0-5.8-0.4-8.4-1.2s-4.8-2-6.6-3.7c-1.8-1.6-3.3-3.7-4.3-6.1
				c-1-2.4-1.5-5.3-1.5-8.5c0-2.7,0.7-5.4,2.1-8s3.8-5,7.1-7.2c3.3-2.1,7.7-3.9,13.2-5.3c5.5-1.4,12.3-2.1,20.5-2.1v-4.2
				c0-4.8-1-8.4-3-10.8c-2-2.3-5-3.5-8.9-3.5c-2.8,0-5.1,0.3-7,1s-3.5,1.4-4.9,2.2s-2.6,1.6-3.8,2.2c-1.2,0.7-2.4,1-3.8,1
				c-1.2,0-2.2-0.3-3-0.9c-0.8-0.6-1.5-1.4-2-2.2l-3.2-5.5c8.3-7.6,18.2-11.3,29.9-11.3c4.2,0,7.9,0.7,11.2,2.1
				c3.3,1.4,6.1,3.3,8.4,5.7c2.3,2.5,4,5.4,5.2,8.8c1.2,3.4,1.8,7.1,1.8,11.2L400.5,203.7L400.5,203.7z M366.9,192.9
				c1.8,0,3.4-0.2,4.9-0.5s2.9-0.8,4.2-1.4c1.3-0.6,2.6-1.4,3.8-2.4c1.2-0.9,2.5-2.1,3.7-3.3v-12c-5,0-9.3,0.3-12.6,1
				c-3.4,0.6-6.1,1.4-8.2,2.4s-3.5,2.1-4.4,3.5c-0.9,1.3-1.3,2.7-1.3,4.3c0,3.1,0.9,5.2,2.7,6.6C361.7,192.2,364,192.9,366.9,192.9z
				"/>
			<path class="st3" d="M417.5,203.7v-71.8h10.1c1.8,0,3,0.3,3.7,1s1.2,1.8,1.4,3.4l1,8.7c2.6-4.4,5.6-7.9,9-10.5
				c3.5-2.6,7.3-3.9,11.6-3.9c3.5,0,6.5,0.8,8.8,2.4l-2.2,13c-0.1,0.8-0.4,1.4-0.9,1.8c-0.5,0.3-1.1,0.5-1.9,0.5
				c-0.7,0-1.7-0.2-2.9-0.5c-1.2-0.3-2.8-0.5-4.8-0.5c-3.6,0-6.7,1-9.2,3c-2.6,2-4.7,4.9-6.5,8.7v44.7L417.5,203.7L417.5,203.7z"/>
			<path class="st3" d="M498.3,204.8c-6.2,0-11-1.8-14.3-5.3c-3.4-3.5-5-8.4-5-14.6v-40.1h-7.3c-0.9,0-1.7-0.3-2.4-0.9
				c-0.7-0.6-1-1.5-1-2.7v-6.9l11.5-1.9l3.6-19.6c0.2-0.9,0.6-1.7,1.3-2.2c0.7-0.5,1.5-0.8,2.6-0.8h9v22.6h18.9v12.3h-18.9v38.9
				c0,2.2,0.6,4,1.7,5.2s2.6,1.9,4.5,1.9c1.1,0,2-0.1,2.7-0.4c0.7-0.3,1.4-0.5,1.9-0.8s1-0.5,1.4-0.8s0.8-0.4,1.3-0.4
				s0.9,0.1,1.3,0.4c0.3,0.3,0.7,0.6,1.1,1.2l5.2,8.4c-2.5,2.1-5.4,3.7-8.7,4.8C505.2,204.3,501.8,204.8,498.3,204.8z"/>
			<path class="st3" d="M558.6,130.7c4.5,0,8.7,0.7,12.5,2.2c3.8,1.4,7.1,3.6,9.8,6.3c2.8,2.8,4.9,6.2,6.4,10.2s2.3,8.6,2.3,13.8
				c0,1.3-0.1,2.4-0.2,3.3c-0.1,0.9-0.3,1.5-0.6,2s-0.7,0.8-1.2,1s-1.2,0.3-2,0.3h-44.4c0.5,7.4,2.5,12.8,6,16.2
				c3.5,3.5,8,5.2,13.7,5.2c2.8,0,5.2-0.3,7.2-1s3.8-1.4,5.3-2.2s2.8-1.5,4-2.2c1.1-0.7,2.2-1,3.3-1c0.7,0,1.3,0.1,1.8,0.4
				c0.5,0.3,1,0.7,1.3,1.2l5,6.3c-1.9,2.2-4.1,4.1-6.4,5.6c-2.4,1.5-4.9,2.7-7.5,3.6c-2.6,0.9-5.2,1.6-7.9,1.9
				c-2.7,0.4-5.3,0.6-7.8,0.6c-5,0-9.6-0.8-13.9-2.5c-4.3-1.7-8-4.1-11.2-7.4c-3.2-3.2-5.7-7.3-7.5-12c-1.8-4.8-2.7-10.3-2.7-16.6
				c0-4.9,0.8-9.5,2.4-13.8c1.6-4.3,3.9-8.1,6.8-11.3c3-3.2,6.6-5.7,10.8-7.6C548.4,131.7,553.2,130.7,558.6,130.7z M558.9,143.1
				c-5,0-9,1.4-11.8,4.3c-2.8,2.8-4.7,6.9-5.5,12.1h32.5c0-2.2-0.3-4.4-0.9-6.3c-0.6-2-1.5-3.7-2.8-5.2s-2.8-2.7-4.8-3.5
				C563.7,143.6,561.5,143.1,558.9,143.1z"/>
		</g>
	</g>
	<g>
		<g>
			<path class="st4" d="M310.9,169.8c1,0,1.9,0.4,2.7,1.2l7.4,8c-4.1,5.1-9.2,9-15.2,11.7s-13.2,4.1-21.6,4.1
				c-7.5,0-14.3-1.3-20.3-3.9c-6-2.6-11.1-6.1-15.4-10.7c-4.2-4.6-7.5-10-9.8-16.4c-2.3-6.3-3.4-13.3-3.4-20.8
				c0-7.6,1.3-14.6,3.8-20.9c2.5-6.3,6.1-11.8,10.6-16.3c4.6-4.6,10-8.1,16.4-10.7c6.4-2.5,13.4-3.8,21.1-3.8
				c7.5,0,14.1,1.2,19.7,3.6s10.4,5.6,14.5,9.6l-6.3,8.8c-0.4,0.6-0.9,1.1-1.4,1.5c-0.6,0.4-1.4,0.6-2.4,0.6c-1.1,0-2.2-0.4-3.3-1.3
				c-1.1-0.8-2.5-1.8-4.3-2.7c-1.7-1-3.9-1.9-6.5-2.7c-2.6-0.8-6-1.3-10-1.3c-4.8,0-9.1,0.8-13.1,2.5s-7.4,4-10.3,7.1
				s-5.1,6.8-6.7,11.2s-2.4,9.4-2.4,14.9c0,5.7,0.8,10.8,2.4,15.2c1.6,4.4,3.8,8.2,6.5,11.2c2.8,3,6,5.4,9.7,7s7.7,2.4,12,2.4
				c2.6,0,4.9-0.1,7-0.4c2.1-0.3,4-0.7,5.7-1.3s3.4-1.4,5-2.3c1.6-1,3.1-2.1,4.7-3.5c0.5-0.4,1-0.8,1.5-1
				C309.8,169.9,310.3,169.8,310.9,169.8z"/>
			<path class="st4" d="M390.5,193.7h-7.8c-1.6,0-2.9-0.2-3.9-0.7c-0.9-0.5-1.6-1.5-2.1-3l-1.5-5.1c-1.8,1.6-3.6,3.1-5.4,4.3
				s-3.6,2.3-5.4,3.1c-1.9,0.8-3.9,1.5-6,1.9s-4.4,0.6-7,0.6c-3,0-5.8-0.4-8.4-1.2s-4.8-2-6.6-3.7c-1.8-1.6-3.3-3.7-4.3-6.1
				c-1-2.4-1.5-5.3-1.5-8.5c0-2.7,0.7-5.4,2.1-8s3.8-5,7.1-7.2c3.3-2.1,7.7-3.9,13.2-5.3c5.5-1.4,12.3-2.1,20.5-2.1v-4.2
				c0-4.8-1-8.4-3-10.8s-5-3.5-8.9-3.5c-2.8,0-5.1,0.3-7,1s-3.5,1.4-4.9,2.2s-2.6,1.6-3.8,2.2c-1.2,0.7-2.4,1-3.8,1
				c-1.2,0-2.2-0.3-3-0.9c-0.8-0.6-1.5-1.4-2-2.2l-3.2-5.5c8.3-7.6,18.2-11.3,29.9-11.3c4.2,0,7.9,0.7,11.2,2.1
				c3.3,1.4,6.1,3.3,8.4,5.7c2.3,2.5,4,5.4,5.2,8.8c1.2,3.4,1.8,7.1,1.8,11.2L390.5,193.7L390.5,193.7z M356.9,182.9
				c1.8,0,3.4-0.2,4.9-0.5s2.9-0.8,4.2-1.4c1.3-0.6,2.6-1.4,3.8-2.4c1.2-0.9,2.5-2.1,3.7-3.3v-12c-5,0-9.3,0.3-12.6,1
				c-3.4,0.6-6.1,1.4-8.2,2.4s-3.5,2.1-4.4,3.5c-0.9,1.3-1.3,2.7-1.3,4.3c0,3.1,0.9,5.2,2.7,6.6C351.7,182.2,354,182.9,356.9,182.9z
				"/>
			<path class="st4" d="M407.5,193.7v-71.8h10.1c1.8,0,3,0.3,3.7,1s1.2,1.8,1.4,3.4l1,8.7c2.6-4.4,5.6-7.9,9-10.5
				c3.5-2.6,7.3-3.9,11.6-3.9c3.5,0,6.5,0.8,8.8,2.4l-2.2,13c-0.1,0.8-0.4,1.4-0.9,1.8c-0.5,0.3-1.1,0.5-1.9,0.5
				c-0.7,0-1.7-0.2-2.9-0.5c-1.2-0.3-2.8-0.5-4.8-0.5c-3.6,0-6.7,1-9.2,3c-2.6,2-4.7,4.9-6.5,8.7v44.7H407.5z"/>
			<path class="st4" d="M488.3,194.8c-6.2,0-11-1.8-14.3-5.3c-3.4-3.5-5-8.4-5-14.6v-40.1h-7.3c-0.9,0-1.7-0.3-2.4-0.9
				c-0.7-0.6-1-1.5-1-2.7v-6.9l11.5-1.9l3.6-19.6c0.2-0.9,0.6-1.7,1.3-2.2c0.7-0.5,1.5-0.8,2.6-0.8h9v22.6h18.9v12.3h-18.9v38.9
				c0,2.2,0.6,4,1.7,5.2s2.6,1.9,4.5,1.9c1.1,0,2-0.1,2.7-0.4c0.7-0.3,1.4-0.5,1.9-0.8s1-0.5,1.4-0.8s0.8-0.4,1.3-0.4
				s0.9,0.1,1.3,0.4c0.3,0.3,0.7,0.6,1.1,1.2l5.2,8.4c-2.5,2.1-5.4,3.7-8.7,4.8C495.2,194.3,491.8,194.8,488.3,194.8z"/>
			<path class="st4" d="M548.6,120.7c4.5,0,8.7,0.7,12.5,2.2c3.8,1.4,7.1,3.6,9.8,6.3c2.8,2.8,4.9,6.2,6.4,10.2s2.3,8.6,2.3,13.8
				c0,1.3-0.1,2.4-0.2,3.3c-0.1,0.9-0.3,1.5-0.6,2s-0.7,0.8-1.2,1s-1.2,0.3-2,0.3h-44.4c0.5,7.4,2.5,12.8,6,16.2
				c3.5,3.5,8,5.2,13.7,5.2c2.8,0,5.2-0.3,7.2-1s3.8-1.4,5.3-2.2s2.8-1.5,4-2.2c1.1-0.7,2.2-1,3.3-1c0.7,0,1.3,0.1,1.8,0.4
				c0.5,0.3,1,0.7,1.3,1.2l5,6.3c-1.9,2.2-4.1,4.1-6.4,5.6c-2.4,1.5-4.9,2.7-7.5,3.6c-2.6,0.9-5.2,1.6-7.9,1.9
				c-2.7,0.4-5.3,0.6-7.8,0.6c-5,0-9.6-0.8-13.9-2.5c-4.3-1.7-8-4.1-11.2-7.4c-3.2-3.2-5.7-7.3-7.5-12c-1.8-4.8-2.7-10.3-2.7-16.6
				c0-4.9,0.8-9.5,2.4-13.8c1.6-4.3,3.9-8.1,6.8-11.3c3-3.2,6.6-5.7,10.8-7.6C538.4,121.7,543.2,120.7,548.6,120.7z M548.9,133.1
				c-5,0-9,1.4-11.8,4.3c-2.8,2.8-4.7,6.9-5.5,12.1h32.5c0-2.2-0.3-4.4-0.9-6.3c-0.6-2-1.5-3.7-2.8-5.2s-2.8-2.7-4.8-3.5
				C553.7,133.6,551.5,133.1,548.9,133.1z"/>
		</g>
	</g>
</g>
<path class="st3" d="M182.1,126.9c0-13.8-11.3-25.2-25.2-25.2s-25.2,11.3-25.2,25.2c0,13.9,11.3,25.2,25.2,25.2
	C170.7,152,182.1,140.8,182.1,126.9z M207.3,126.9c0,6-0.7,12.2-3.2,17.6l-35.9,76.2c-2.1,4.4-6.7,7-11.3,7s-9.3-2.6-11.2-7
	l-35.9-76.2c-2.5-5.4-3.2-11.6-3.2-17.6c0-27.8,22.5-50.4,50.4-50.4S207.3,99,207.3,126.9z"/>
<path class="st4" d="M170.6,115.4c0-13.8-11.3-25.2-25.2-25.2s-25.2,11.3-25.2,25.2s11.3,25.2,25.2,25.2
	C159.2,140.5,170.6,129.3,170.6,115.4z M195.8,115.4c0,6-0.7,12.2-3.2,17.6l-35.9,76.2c-2.1,4.4-6.7,7-11.3,7s-9.3-2.6-11.2-7
	L98.4,133c-2.5-5.4-3.2-11.6-3.2-17.6c0-27.8,22.5-50.4,50.4-50.4S195.8,87.5,195.8,115.4z"/>
</svg>
