<?xml version="1.0" encoding="utf-8"?>
<!-- Generator: Adobe Illustrator 24.3.0, SVG Export Plug-In . SVG Version: 6.00 Build 0)  -->
<svg version="1.1" id="Calque_1" xmlns="http://www.w3.org/2000/svg" xmlns:xlink="http://www.w3.org/1999/xlink" x="0px" y="0px"
	 viewBox="0 0 1113.4 292" style="enable-background:new 0 0 1113.4 292;" xml:space="preserve">
<style type="text/css">
	.st0{fill:url(#SVGID_1_);}
	.st1{fill:url(#SVGID_2_);}
	.st2{opacity:0.8;}
	.st3{fill:#FFFFFF;}
	.st4{fill:#333333;}
</style>
<g>
	
		<linearGradient id="SVGID_1_" gradientUnits="userSpaceOnUse" x1="1341.3" y1="1228" x2="1341.3" y2="936" gradientTransform="matrix(-1 0 0 1 1898 -936)">
		<stop  offset="0" style="stop-color:#BBBBBB"/>
		<stop  offset="1" style="stop-color:#DCDCDC"/>
	</linearGradient>
	<path class="st0" d="M25,282c-8,0-15-7-15-15V25c0-8,7-15,15-15h1063.5c8,0,15,7,15,15v242c0,8-7,15-15,15H25z M1088.4,292
		c14,0,25-11,25-25V25c0-14-11-25-25-25H25C11,0,0,11,0,25v242c0,14,11,25,25,25H1088.4z"/>
</g>
<linearGradient id="SVGID_2_" gradientUnits="userSpaceOnUse" x1="1341.25" y1="-194" x2="1341.25" y2="78" gradientTransform="matrix(-1 0 0 -1 1898 88)">
	<stop  offset="0" style="stop-color:#E8E8E8"/>
	<stop  offset="1" style="stop-color:#F9F9F9"/>
</linearGradient>
<path class="st1" d="M25,282c-8,0-15-7-15-15V25c0-8,7-15,15-15h1063.5c8,0,15,7,15,15v242c0,8-7,15-15,15H25z"/>
<g>
	<g class="st2">
		<g>
			<path class="st3" d="M353.1,179.8c1,0,1.9,0.4,2.7,1.2l7.4,8c-4.1,5.1-9.2,9-15.2,11.7s-13.2,4.1-21.6,4.1
				c-7.5,0-14.3-1.3-20.3-3.9c-6-2.6-11.1-6.1-15.4-10.7c-4.2-4.6-7.5-10-9.8-16.4c-2.3-6.3-3.4-13.3-3.4-20.8
				c0-7.6,1.3-14.6,3.8-20.9c2.5-6.3,6.1-11.8,10.6-16.3c4.6-4.6,10-8.1,16.4-10.7c6.4-2.5,13.4-3.8,21.1-3.8
				c7.5,0,14.1,1.2,19.7,3.6s10.4,5.6,14.5,9.6l-6.3,8.8c-0.4,0.6-0.9,1.1-1.4,1.5c-0.6,0.4-1.4,0.6-2.4,0.6c-1.1,0-2.2-0.4-3.3-1.3
				c-1.1-0.8-2.5-1.8-4.3-2.7c-1.7-1-3.9-1.9-6.5-2.7c-2.6-0.8-6-1.3-10-1.3c-4.8,0-9.1,0.8-13.1,2.5s-7.4,4-10.3,7.1
				c-2.9,3.1-5.1,6.8-6.7,11.2s-2.4,9.4-2.4,14.9c0,5.7,0.8,10.8,2.4,15.2s3.8,8.2,6.5,11.2c2.8,3,6,5.4,9.7,7s7.7,2.4,12,2.4
				c2.6,0,4.9-0.1,7-0.4c2.1-0.3,4-0.7,5.7-1.3s3.4-1.4,5-2.3c1.6-1,3.1-2.1,4.7-3.5c0.5-0.4,1-0.8,1.5-1
				C351.9,179.9,352.5,179.8,353.1,179.8z"/>
			<path class="st3" d="M376.4,203.6v-104h17.3v40c2.8-2.7,5.9-4.8,9.2-6.4c3.4-1.6,7.3-2.4,11.8-2.4c3.9,0,7.4,0.7,10.4,2
				s5.6,3.2,7.6,5.6c2,2.4,3.6,5.3,4.6,8.6s1.6,7,1.6,11v45.7h-17.3V158c0-4.4-1-7.8-3-10.2s-5.1-3.6-9.1-3.6c-3,0-5.8,0.7-8.4,2
				c-2.6,1.4-5.1,3.2-7.4,5.5v51.9H376.4L376.4,203.6z"/>
			<path class="st3" d="M456,203.6v-71.8h10.2c1.8,0,3,0.3,3.7,1s1.2,1.8,1.4,3.4l1.1,8.7c2.6-4.4,5.6-7.9,9-10.5
				c3.5-2.6,7.3-3.9,11.6-3.9c3.5,0,6.5,0.8,8.8,2.4l-2.2,13c-0.1,0.8-0.4,1.4-0.9,1.8c-0.5,0.3-1.1,0.5-1.9,0.5
				c-0.7,0-1.7-0.2-2.9-0.5c-1.2-0.3-2.8-0.5-4.8-0.5c-3.6,0-6.7,1-9.2,3c-2.6,2-4.7,4.9-6.5,8.7v44.7L456,203.6L456,203.6z"/>
			<path class="st3" d="M543.8,130.7c5.4,0,10.2,0.9,14.6,2.6c4.4,1.7,8.1,4.2,11.2,7.4c3.1,3.2,5.5,7,7.1,11.6
				c1.7,4.6,2.5,9.7,2.5,15.3c0,5.7-0.8,10.8-2.5,15.4c-1.7,4.6-4.1,8.5-7.1,11.7s-6.8,5.7-11.2,7.4s-9.2,2.6-14.6,2.6
				c-5.4,0-10.2-0.9-14.6-2.6s-8.1-4.2-11.2-7.4c-3.1-3.2-5.5-7.1-7.2-11.7c-1.7-4.6-2.6-9.7-2.6-15.4c0-5.6,0.9-10.8,2.6-15.3
				c1.7-4.6,4.1-8.4,7.2-11.6c3.1-3.2,6.8-5.6,11.2-7.4C533.6,131.6,538.5,130.7,543.8,130.7z M543.8,191.4c6,0,10.4-2,13.3-6
				s4.3-9.9,4.3-17.6c0-7.7-1.4-13.7-4.3-17.7c-2.9-4.1-7.3-6.1-13.3-6.1c-6.1,0-10.5,2-13.4,6.1s-4.3,10-4.3,17.7
				s1.4,13.6,4.3,17.6C533.3,189.4,537.8,191.4,543.8,191.4z"/>
			<path class="st3" d="M592.8,203.6v-71.8h10.6c2.2,0,3.7,1,4.4,3.1l1.2,5.7c1.4-1.5,3-2.8,4.6-4.1c1.6-1.2,3.3-2.3,5.1-3.1
				c1.8-0.9,3.7-1.6,5.8-2c2.1-0.5,4.3-0.7,6.7-0.7c3.9,0,7.4,0.7,10.4,2s5.6,3.2,7.6,5.6c2,2.4,3.6,5.3,4.6,8.6s1.6,7,1.6,11v45.7
				h-17.3v-45.7c0-4.4-1-7.8-3-10.2s-5.1-3.6-9.1-3.6c-3,0-5.8,0.7-8.4,2c-2.6,1.4-5.1,3.2-7.4,5.5v51.9h-17.4L592.8,203.6
				L592.8,203.6z"/>
			<path class="st3" d="M703,130.7c5.4,0,10.2,0.9,14.6,2.6c4.4,1.7,8.1,4.2,11.2,7.4c3.1,3.2,5.5,7,7.1,11.6
				c1.7,4.6,2.5,9.7,2.5,15.3c0,5.7-0.8,10.8-2.5,15.4c-1.7,4.6-4.1,8.5-7.1,11.7s-6.8,5.7-11.2,7.4s-9.2,2.6-14.6,2.6
				c-5.4,0-10.2-0.9-14.6-2.6s-8.1-4.2-11.2-7.4c-3.1-3.2-5.5-7.1-7.2-11.7c-1.7-4.6-2.6-9.7-2.6-15.4c0-5.6,0.9-10.8,2.6-15.3
				c1.7-4.6,4.1-8.4,7.2-11.6c3.1-3.2,6.8-5.6,11.2-7.4C692.8,131.6,697.6,130.7,703,130.7z M703,191.4c6,0,10.4-2,13.3-6
				s4.3-9.9,4.3-17.6c0-7.7-1.4-13.7-4.3-17.7c-2.9-4.1-7.3-6.1-13.3-6.1c-6.1,0-10.5,2-13.4,6.1s-4.3,10-4.3,17.7
				s1.4,13.6,4.3,17.6C692.5,189.4,696.9,191.4,703,191.4z"/>
			<path class="st3" d="M770.3,99.6v104H753v-104C753,99.6,770.3,99.6,770.3,99.6z"/>
			<path class="st3" d="M820.5,130.7c5.4,0,10.2,0.9,14.6,2.6c4.4,1.7,8.1,4.2,11.2,7.4c3.1,3.2,5.5,7,7.1,11.6
				c1.7,4.6,2.5,9.7,2.5,15.3c0,5.7-0.8,10.8-2.5,15.4c-1.7,4.6-4.1,8.5-7.1,11.7s-6.8,5.7-11.2,7.4s-9.2,2.6-14.6,2.6
				c-5.4,0-10.2-0.9-14.6-2.6s-8.1-4.2-11.2-7.4c-3.1-3.2-5.5-7.1-7.2-11.7c-1.7-4.6-2.6-9.7-2.6-15.4c0-5.6,0.9-10.8,2.6-15.3
				c1.7-4.6,4.1-8.4,7.2-11.6c3.1-3.2,6.8-5.6,11.2-7.4C810.3,131.6,815.2,130.7,820.5,130.7z M820.5,191.4c6,0,10.4-2,13.3-6
				s4.3-9.9,4.3-17.6c0-7.7-1.4-13.7-4.3-17.7c-2.9-4.1-7.3-6.1-13.3-6.1c-6.1,0-10.5,2-13.4,6.1s-4.3,10-4.3,17.7
				s1.4,13.6,4.3,17.6C810,189.4,814.5,191.4,820.5,191.4z"/>
			<path class="st3" d="M894.3,130.6c3.1,0,6,0.3,8.7,0.9c2.7,0.6,5.2,1.6,7.4,2.8H931v6.4c0,1.1-0.3,1.9-0.8,2.5
				c-0.6,0.6-1.5,1-2.9,1.3l-6.4,1.2c0.5,1.2,0.8,2.5,1.1,3.9s0.4,2.8,0.4,4.3c0,3.5-0.7,6.8-2.1,9.6c-1.4,2.9-3.4,5.3-5.9,7.3
				s-5.5,3.6-8.9,4.7c-3.4,1.1-7.2,1.6-11.2,1.6c-2.7,0-5.3-0.3-7.9-0.8c-2.2,1.4-3.4,2.9-3.4,4.6c0,1.5,0.7,2.5,2,3.2
				s3.1,1.2,5.2,1.4c2.2,0.3,4.6,0.4,7.4,0.4c2.8,0,5.6,0.1,8.5,0.4c2.9,0.2,5.7,0.6,8.5,1.2c2.8,0.6,5.2,1.5,7.4,2.8s3.9,3,5.2,5.2
				s2,5,2,8.4c0,3.2-0.8,6.3-2.3,9.3c-1.6,3-3.8,5.7-6.8,8s-6.6,4.2-10.9,5.7c-4.3,1.4-9.2,2.1-14.7,2.1s-10.2-0.5-14.2-1.6
				s-7.3-2.5-10-4.2c-2.6-1.8-4.6-3.8-5.9-6.1c-1.3-2.3-2-4.7-2-7.1c0-3.4,1-6.2,3.1-8.5s4.9-4.1,8.5-5.5c-1.8-1-3.2-2.3-4.3-3.9
				c-1.1-1.6-1.6-3.8-1.6-6.4c0-1.1,0.2-2.2,0.6-3.3c0.4-1.1,0.9-2.3,1.7-3.4c0.8-1.1,1.7-2.2,2.9-3.2s2.5-1.9,4.1-2.7
				c-3.6-2-6.5-4.6-8.6-7.8c-2.1-3.3-3.1-7.1-3.1-11.5c0-3.5,0.7-6.8,2.1-9.6c1.4-2.9,3.4-5.3,5.9-7.4c2.5-2,5.6-3.6,9-4.7
				C886.4,131.1,890.2,130.6,894.3,130.6z M913.3,206.7c0-1.4-0.4-2.6-1.3-3.5c-0.8-0.9-2-1.6-3.4-2.1s-3.1-0.9-5.1-1.1
				c-1.9-0.2-4-0.4-6.2-0.4s-4.4,0-6.7,0s-4.5-0.3-6.7-0.8c-2,1.1-3.5,2.3-4.7,3.8s-1.8,3.2-1.8,5.1c0,1.3,0.3,2.4,0.9,3.5
				s1.6,2,3,2.8s3.2,1.4,5.4,1.9c2.2,0.4,4.9,0.7,8,0.7c3.2,0,6-0.3,8.3-0.8s4.3-1.2,5.8-2.1s2.6-1.9,3.3-3.1
				C912.9,209.4,913.3,208.1,913.3,206.7z M894.3,166c2.1,0,4-0.3,5.6-0.9c1.6-0.6,2.9-1.4,4-2.4s1.8-2.3,2.4-3.7
				c0.5-1.4,0.8-3,0.8-4.8c0-3.5-1.1-6.4-3.2-8.4c-2.1-2.1-5.3-3.1-9.6-3.1c-4.2,0-7.4,1-9.6,3.1c-2.1,2.1-3.2,4.9-3.2,8.4
				c0,1.7,0.3,3.2,0.8,4.7c0.5,1.4,1.3,2.7,2.4,3.7c1,1,2.4,1.9,4,2.4C890.4,165.7,892.2,166,894.3,166z"/>
			<path class="st3" d="M962.9,110.9c0,1.5-0.3,2.9-0.9,4.2c-0.6,1.3-1.4,2.4-2.4,3.4s-2.2,1.8-3.5,2.3c-1.4,0.6-2.8,0.9-4.3,0.9
				s-2.9-0.3-4.2-0.9s-2.5-1.4-3.5-2.3c-1-1-1.8-2.1-2.3-3.4c-0.6-1.3-0.9-2.7-0.9-4.2s0.3-3,0.9-4.3c0.6-1.4,1.4-2.5,2.3-3.5
				c1-1,2.1-1.8,3.5-2.3c1.3-0.6,2.7-0.9,4.2-0.9s3,0.3,4.3,0.9c1.4,0.6,2.5,1.4,3.5,2.3c1,1,1.8,2.1,2.4,3.5
				C962.6,107.9,962.9,109.3,962.9,110.9z M960.3,131.8v71.8H943v-71.8H960.3z"/>
			<path class="st3" d="M1009.5,130.7c4.5,0,8.7,0.7,12.5,2.2c3.8,1.4,7.1,3.6,9.8,6.3c2.8,2.8,4.9,6.2,6.4,10.2s2.3,8.6,2.3,13.8
				c0,1.3-0.1,2.4-0.2,3.3c-0.1,0.9-0.3,1.5-0.6,2c-0.3,0.5-0.7,0.8-1.2,1.1c-0.5,0.2-1.2,0.3-2,0.3h-44.3c0.5,7.4,2.5,12.8,6,16.2
				c3.5,3.5,8,5.2,13.7,5.2c2.8,0,5.2-0.3,7.2-1s3.8-1.4,5.3-2.2s2.8-1.5,4-2.2c1.1-0.7,2.2-1,3.3-1c0.7,0,1.3,0.1,1.8,0.4
				c0.5,0.3,1,0.7,1.3,1.2l5,6.3c-1.9,2.2-4.1,4.1-6.4,5.6c-2.4,1.5-4.9,2.7-7.5,3.6c-2.6,0.9-5.2,1.6-7.9,1.9
				c-2.7,0.4-5.3,0.6-7.8,0.6c-5,0-9.6-0.8-13.9-2.5c-4.3-1.7-8-4.1-11.2-7.4c-3.2-3.2-5.7-7.3-7.5-12c-1.8-4.8-2.7-10.3-2.7-16.6
				c0-4.9,0.8-9.5,2.4-13.8c1.6-4.3,3.9-8.1,6.8-11.3c3-3.2,6.6-5.7,10.8-7.6C999.4,131.6,1004.2,130.7,1009.5,130.7z M1009.9,143.1
				c-5,0-9,1.4-11.8,4.3c-2.8,2.8-4.7,6.9-5.5,12.1h32.5c0-2.2-0.3-4.4-0.9-6.3c-0.6-1.9-1.5-3.7-2.8-5.2s-2.8-2.7-4.8-3.5
				C1014.7,143.5,1012.5,143.1,1009.9,143.1z"/>
		</g>
	</g>
	<g>
		<g>
			<path class="st4" d="M343.1,169.8c1,0,1.9,0.4,2.7,1.2l7.4,8c-4.1,5.1-9.2,9-15.2,11.7s-13.2,4.1-21.6,4.1
				c-7.5,0-14.3-1.3-20.3-3.9c-6-2.6-11.1-6.1-15.4-10.7c-4.2-4.6-7.5-10-9.8-16.4c-2.3-6.3-3.4-13.3-3.4-20.8
				c0-7.6,1.3-14.6,3.8-20.9c2.5-6.3,6.1-11.8,10.6-16.3c4.6-4.6,10-8.1,16.4-10.7c6.4-2.5,13.4-3.8,21.1-3.8
				c7.5,0,14.1,1.2,19.7,3.6s10.4,5.6,14.5,9.6l-6.3,8.8c-0.4,0.6-0.9,1.1-1.4,1.5c-0.6,0.4-1.4,0.6-2.4,0.6c-1.1,0-2.2-0.4-3.3-1.3
				c-1.1-0.8-2.5-1.8-4.3-2.7c-1.7-1-3.9-1.9-6.5-2.7c-2.6-0.8-6-1.3-10-1.3c-4.8,0-9.1,0.8-13.1,2.5s-7.4,4-10.3,7.1
				s-5.1,6.8-6.7,11.2s-2.4,9.4-2.4,14.9c0,5.7,0.8,10.8,2.4,15.2s3.8,8.2,6.5,11.2c2.8,3,6,5.4,9.7,7s7.7,2.4,12,2.4
				c2.6,0,4.9-0.1,7-0.4c2.1-0.3,4-0.7,5.7-1.3s3.4-1.4,5-2.3c1.6-1,3.1-2.1,4.7-3.5c0.5-0.4,1-0.8,1.5-1
				C341.9,169.9,342.5,169.8,343.1,169.8z"/>
			<path class="st4" d="M366.4,193.6v-104h17.3v40c2.8-2.7,5.9-4.8,9.2-6.4c3.4-1.6,7.3-2.4,11.8-2.4c3.9,0,7.4,0.7,10.4,2
				s5.6,3.2,7.6,5.6c2,2.4,3.6,5.3,4.6,8.6s1.6,7,1.6,11v45.7h-17.3V148c0-4.4-1-7.8-3-10.2s-5.1-3.6-9.1-3.6c-3,0-5.8,0.7-8.4,2
				c-2.6,1.4-5.1,3.2-7.4,5.5v51.9H366.4z"/>
			<path class="st4" d="M446,193.6v-71.8h10.1c1.8,0,3,0.3,3.7,1s1.2,1.8,1.4,3.4l1.1,8.7c2.6-4.4,5.6-7.9,9-10.5
				c3.5-2.6,7.3-3.9,11.6-3.9c3.5,0,6.5,0.8,8.8,2.4l-2.2,13c-0.1,0.8-0.4,1.4-0.9,1.8c-0.5,0.3-1.1,0.5-1.9,0.5
				c-0.7,0-1.7-0.2-2.9-0.5c-1.2-0.3-2.8-0.5-4.8-0.5c-3.6,0-6.7,1-9.2,3c-2.6,2-4.7,4.9-6.5,8.7v44.7H446z"/>
			<path class="st4" d="M533.8,120.7c5.4,0,10.2,0.9,14.6,2.6c4.4,1.7,8.1,4.2,11.2,7.4c3.1,3.2,5.5,7,7.1,11.6
				c1.7,4.6,2.5,9.7,2.5,15.3c0,5.7-0.8,10.8-2.5,15.4c-1.7,4.6-4.1,8.5-7.1,11.7s-6.8,5.7-11.2,7.4s-9.2,2.6-14.6,2.6
				c-5.4,0-10.2-0.9-14.6-2.6c-4.4-1.7-8.1-4.2-11.2-7.4s-5.5-7.1-7.2-11.7c-1.7-4.6-2.6-9.7-2.6-15.4c0-5.6,0.9-10.8,2.6-15.3
				c1.7-4.6,4.1-8.4,7.2-11.6c3.1-3.2,6.8-5.6,11.2-7.4C523.6,121.6,528.5,120.7,533.8,120.7z M533.8,181.4c6,0,10.4-2,13.3-6
				s4.3-9.9,4.3-17.6c0-7.7-1.4-13.6-4.3-17.7s-7.3-6.1-13.3-6.1c-6.1,0-10.5,2-13.4,6.1s-4.3,10-4.3,17.7s1.4,13.6,4.3,17.6
				C523.3,179.4,527.8,181.4,533.8,181.4z"/>
			<path class="st4" d="M582.8,193.6v-71.8h10.6c2.2,0,3.7,1,4.4,3.1l1.2,5.7c1.4-1.5,3-2.8,4.6-4.1c1.6-1.2,3.3-2.3,5.1-3.1
				c1.8-0.9,3.7-1.6,5.8-2c2.1-0.5,4.3-0.7,6.7-0.7c3.9,0,7.4,0.7,10.4,2s5.6,3.2,7.6,5.6c2,2.4,3.6,5.3,4.6,8.6s1.6,7,1.6,11v45.7
				h-17.3v-45.7c0-4.4-1-7.8-3-10.2s-5.1-3.6-9.1-3.6c-3,0-5.8,0.7-8.4,2c-2.6,1.4-5.1,3.2-7.4,5.5v51.9L582.8,193.6L582.8,193.6z"
				/>
			<path class="st4" d="M693,120.7c5.4,0,10.2,0.9,14.6,2.6c4.4,1.7,8.1,4.2,11.2,7.4c3.1,3.2,5.5,7,7.1,11.6
				c1.7,4.6,2.5,9.7,2.5,15.3c0,5.7-0.8,10.8-2.5,15.4c-1.7,4.6-4.1,8.5-7.1,11.7s-6.8,5.7-11.2,7.4s-9.2,2.6-14.6,2.6
				c-5.4,0-10.2-0.9-14.6-2.6s-8.1-4.2-11.2-7.4c-3.1-3.2-5.5-7.1-7.2-11.7c-1.7-4.6-2.6-9.7-2.6-15.4c0-5.6,0.9-10.8,2.6-15.3
				c1.7-4.6,4.1-8.4,7.2-11.6c3.1-3.2,6.8-5.6,11.2-7.4C682.8,121.6,687.6,120.7,693,120.7z M693,181.4c6,0,10.4-2,13.3-6
				s4.3-9.9,4.3-17.6c0-7.7-1.4-13.6-4.3-17.7S699,134,693,134c-6.1,0-10.5,2-13.4,6.1s-4.3,10-4.3,17.7s1.4,13.6,4.3,17.6
				C682.5,179.4,686.9,181.4,693,181.4z"/>
			<path class="st4" d="M760.3,89.6v104H743v-104C743,89.6,760.3,89.6,760.3,89.6z"/>
			<path class="st4" d="M810.5,120.7c5.4,0,10.2,0.9,14.6,2.6c4.4,1.7,8.1,4.2,11.2,7.4c3.1,3.2,5.5,7,7.1,11.6
				c1.7,4.6,2.5,9.7,2.5,15.3c0,5.7-0.8,10.8-2.5,15.4c-1.7,4.6-4.1,8.5-7.1,11.7s-6.8,5.7-11.2,7.4s-9.2,2.6-14.6,2.6
				c-5.4,0-10.2-0.9-14.6-2.6s-8.1-4.2-11.2-7.4c-3.1-3.2-5.5-7.1-7.2-11.7c-1.7-4.6-2.6-9.7-2.6-15.4c0-5.6,0.9-10.8,2.6-15.3
				c1.7-4.6,4.1-8.4,7.2-11.6c3.1-3.2,6.8-5.6,11.2-7.4C800.3,121.6,805.2,120.7,810.5,120.7z M810.5,181.4c6,0,10.4-2,13.3-6
				s4.3-9.9,4.3-17.6c0-7.7-1.4-13.6-4.3-17.7s-7.3-6.1-13.3-6.1c-6.1,0-10.5,2-13.4,6.1s-4.3,10-4.3,17.7s1.4,13.6,4.3,17.6
				C800,179.4,804.5,181.4,810.5,181.4z"/>
			<path class="st4" d="M884.3,120.6c3.1,0,6,0.3,8.7,0.9s5.2,1.6,7.4,2.8H921v6.4c0,1.1-0.3,1.9-0.8,2.5c-0.6,0.6-1.5,1-2.9,1.3
				l-6.4,1.2c0.5,1.2,0.8,2.5,1.1,3.9s0.4,2.8,0.4,4.3c0,3.5-0.7,6.8-2.1,9.6c-1.4,2.9-3.4,5.3-5.9,7.3s-5.5,3.6-8.9,4.7
				c-3.4,1.1-7.2,1.6-11.2,1.6c-2.7,0-5.3-0.3-7.9-0.8c-2.2,1.4-3.4,2.9-3.4,4.6c0,1.5,0.7,2.5,2,3.2s3.1,1.2,5.2,1.4
				c2.2,0.3,4.6,0.4,7.4,0.4c2.8,0,5.6,0.1,8.5,0.4c2.9,0.2,5.7,0.6,8.5,1.2c2.8,0.6,5.2,1.5,7.4,2.8s3.9,3,5.2,5.2s2,5,2,8.4
				c0,3.2-0.8,6.3-2.3,9.3c-1.6,3-3.8,5.7-6.8,8s-6.6,4.2-10.9,5.7c-4.3,1.4-9.2,2.1-14.7,2.1s-10.2-0.5-14.2-1.6s-7.3-2.5-10-4.2
				c-2.6-1.8-4.6-3.8-5.9-6.1c-1.3-2.3-2-4.7-2-7.1c0-3.4,1-6.2,3.1-8.5s4.9-4.1,8.5-5.5c-1.8-1-3.2-2.3-4.3-3.9
				c-1.1-1.6-1.6-3.8-1.6-6.4c0-1.1,0.2-2.2,0.6-3.3c0.4-1.1,0.9-2.3,1.7-3.4c0.8-1.1,1.7-2.2,2.9-3.2s2.5-1.9,4.1-2.7
				c-3.6-2-6.5-4.6-8.6-7.8c-2.1-3.3-3.1-7.1-3.1-11.5c0-3.5,0.7-6.8,2.1-9.6c1.4-2.9,3.4-5.3,5.9-7.4c2.5-2,5.6-3.6,9-4.7
				C876.4,121.1,880.2,120.6,884.3,120.6z M903.3,196.7c0-1.4-0.4-2.6-1.3-3.5c-0.8-0.9-2-1.6-3.4-2.1s-3.1-0.9-5.1-1.1
				c-1.9-0.2-4-0.4-6.2-0.4s-4.4,0-6.7,0s-4.5-0.3-6.7-0.8c-2,1.1-3.5,2.3-4.7,3.8s-1.8,3.2-1.8,5.1c0,1.3,0.3,2.4,0.9,3.5
				s1.6,2,3,2.8s3.2,1.4,5.4,1.9c2.2,0.4,4.9,0.7,8,0.7c3.2,0,6-0.3,8.3-0.8s4.3-1.2,5.8-2.1s2.6-1.9,3.3-3.1
				C902.9,199.4,903.3,198.1,903.3,196.7z M884.3,156c2.1,0,4-0.3,5.6-0.9c1.6-0.6,2.9-1.4,4-2.4s1.8-2.3,2.4-3.7
				c0.5-1.4,0.8-3,0.8-4.8c0-3.5-1.1-6.4-3.2-8.4c-2.1-2.1-5.3-3.1-9.6-3.1c-4.2,0-7.4,1-9.6,3.1c-2.1,2.1-3.2,4.9-3.2,8.4
				c0,1.7,0.3,3.2,0.8,4.7c0.5,1.4,1.3,2.7,2.4,3.7c1,1,2.4,1.9,4,2.4C880.4,155.7,882.2,156,884.3,156z"/>
			<path class="st4" d="M952.9,100.9c0,1.5-0.3,2.9-0.9,4.2c-0.6,1.3-1.4,2.4-2.4,3.4s-2.2,1.8-3.5,2.3c-1.4,0.6-2.8,0.9-4.3,0.9
				s-2.9-0.3-4.2-0.9s-2.5-1.4-3.5-2.3c-1-1-1.8-2.1-2.3-3.4c-0.6-1.3-0.9-2.7-0.9-4.2s0.3-3,0.9-4.3c0.6-1.4,1.4-2.5,2.3-3.5
				c1-1,2.1-1.8,3.5-2.3c1.3-0.6,2.7-0.9,4.2-0.9s3,0.3,4.3,0.9c1.4,0.6,2.5,1.4,3.5,2.3c1,1,1.8,2.1,2.4,3.5
				C952.6,97.9,952.9,99.3,952.9,100.9z M950.3,121.8v71.8H933v-71.8H950.3z"/>
			<path class="st4" d="M999.5,120.7c4.5,0,8.7,0.7,12.5,2.2c3.8,1.4,7.1,3.6,9.8,6.3c2.8,2.8,4.9,6.2,6.4,10.2s2.3,8.6,2.3,13.8
				c0,1.3-0.1,2.4-0.2,3.3c-0.1,0.9-0.3,1.5-0.6,2c-0.3,0.5-0.7,0.8-1.2,1.1c-0.5,0.2-1.2,0.3-2,0.3h-44.3c0.5,7.4,2.5,12.8,6,16.2
				c3.5,3.5,8,5.2,13.7,5.2c2.8,0,5.2-0.3,7.2-1s3.8-1.4,5.3-2.2s2.8-1.5,4-2.2c1.1-0.7,2.2-1,3.3-1c0.7,0,1.3,0.1,1.8,0.4
				c0.5,0.3,1,0.7,1.3,1.2l5,6.3c-1.9,2.2-4.1,4.1-6.4,5.6c-2.4,1.5-4.9,2.7-7.5,3.6c-2.6,0.9-5.2,1.6-7.9,1.9
				c-2.7,0.4-5.3,0.6-7.8,0.6c-5,0-9.6-0.8-13.9-2.5c-4.3-1.7-8-4.1-11.2-7.4c-3.2-3.2-5.7-7.3-7.5-12c-1.8-4.8-2.7-10.3-2.7-16.6
				c0-4.9,0.8-9.5,2.4-13.8c1.6-4.3,3.9-8.1,6.8-11.3c3-3.2,6.6-5.7,10.8-7.6C989.4,121.6,994.2,120.7,999.5,120.7z M999.9,133.1
				c-5,0-9,1.4-11.8,4.3c-2.8,2.8-4.7,6.9-5.5,12.1h32.5c0-2.2-0.3-4.4-0.9-6.3c-0.6-2-1.5-3.7-2.8-5.2s-2.8-2.7-4.8-3.5
				C1004.7,133.5,1002.5,133.1,999.9,133.1z"/>
		</g>
	</g>
</g>
<path class="st3" d="M234.6,156c0,36.9-30.1,67-67,67c-20,0-38.8-8.9-51.6-24.2c-0.9-1.1-0.8-2.8,0.2-3.8l11.9-12
	c0.6-0.5,1.4-0.8,2.2-0.8c0.8,0.1,1.6,0.4,2,1.1c8.5,11,21.4,17.4,35.3,17.4c24.6,0,44.6-20.1,44.6-44.6s-20.1-44.6-44.6-44.6
	c-11.4,0-22.3,4.4-30.3,11.9l11.9,12c1.7,1.6,2.1,4,1.2,6.1c-0.9,2.1-2.9,3.5-5.2,3.5h-39c-3.1,0-5.6-2.5-5.6-5.6v-39
	c0-2.3,1.4-4.3,3.5-5.2c2-0.9,4.5-0.4,6.1,1.2l11.3,11.2C133.7,95.9,150.4,89,167.6,89C204.5,89,234.6,119.1,234.6,156L234.6,156z
	 M178.8,130.9V170c0,1.6-1.2,2.8-2.8,2.8h-27.9c-1.6,0-2.8-1.2-2.8-2.8v-5.6c0-1.6,1.2-2.8,2.8-2.8h19.6v-30.7
	c0-1.6,1.2-2.8,2.8-2.8h5.6C177.6,128.1,178.8,129.3,178.8,130.9L178.8,130.9z"/>
<path class="st4" d="M224.6,146c0,36.9-30.1,67-67,67c-20,0-38.8-8.9-51.6-24.2c-0.9-1.1-0.8-2.8,0.2-3.8l11.9-12
	c0.6-0.5,1.4-0.8,2.2-0.8c0.8,0.1,1.6,0.4,2,1.1c8.5,11,21.4,17.4,35.3,17.4c24.6,0,44.6-20.1,44.6-44.6s-20.1-44.6-44.6-44.6
	c-11.4,0-22.3,4.4-30.3,11.9l11.9,12c1.7,1.6,2.1,4,1.2,6.1c-0.9,2.1-2.9,3.5-5.2,3.5h-39c-3.1,0-5.6-2.5-5.6-5.6v-39
	c0-2.3,1.4-4.3,3.5-5.2c2-0.9,4.5-0.4,6.1,1.2l11.3,11.2C123.7,85.9,140.4,79,157.6,79C194.5,79,224.6,109.1,224.6,146L224.6,146z
	 M168.8,120.9V160c0,1.6-1.2,2.8-2.8,2.8h-27.9c-1.6,0-2.8-1.2-2.8-2.8v-5.6c0-1.6,1.2-2.8,2.8-2.8h19.6v-30.7
	c0-1.6,1.2-2.8,2.8-2.8h5.6C167.6,118.1,168.8,119.3,168.8,120.9L168.8,120.9z"/>
</svg>
