<?xml version="1.0" encoding="utf-8"?>
<!-- Generator: Adobe Illustrator 23.0.2, SVG Export Plug-In . SVG Version: 6.00 Build 0)  -->
<svg version="1.1" id="Calque_1" xmlns="http://www.w3.org/2000/svg" xmlns:xlink="http://www.w3.org/1999/xlink" x="0px" y="0px"
	 viewBox="0 0 834 1000" style="enable-background:new 0 0 834 1000;" xml:space="preserve">
<style type="text/css">
	.st0{fill:#D81E08;}
</style>
<path class="st0" d="M417,84c115.2,0,213.5,40.7,294.9,122.1S834,385.5,834,500s-40.7,212.5-122.1,293.9S532.2,916,417,916
	s-213.5-40.7-294.9-122.1S0,614.5,0,500s40.7-212.5,122.1-293.9S301.8,84,417,84L417,84z M625,650.4L474.6,500L625,349.6L566.4,291
	L416,441.4L267.6,291L209,349.6L357.4,500L209,650.4l58.6,58.6L416,558.6L566.4,709L625,650.4z"/>
</svg>
