<?xml version="1.0" encoding="utf-8"?>
<!-- Generator: Adobe Illustrator 24.3.0, SVG Export Plug-In . SVG Version: 6.00 Build 0)  -->
<svg version="1.1" id="Calque_1" xmlns="http://www.w3.org/2000/svg" xmlns:xlink="http://www.w3.org/1999/xlink" x="0px" y="0px"
	 viewBox="0 0 1000 1000" style="enable-background:new 0 0 1000 1000;" xml:space="preserve">
<style type="text/css">
	.st0{fill:#008F46;}
</style>
<path class="st0" d="M1000,500c0,197.5-223.8,357.1-500,357.1c-27.3,0-54.7-1.6-80.9-4.4c-73.1,64.7-160.2,110.5-256.7,135
	c-20.1,5.6-41.9,9.5-63.6,12.3c-12.3,1.1-24-7.8-26.8-21.2v-0.6c-2.8-13.9,6.7-22.3,15.1-32.3c35.1-39.6,75.3-73.1,101.5-166.3
	C73.7,714.3,0,613.3,0,500c0-197,223.8-357.1,500-357.1S1000,302.5,1000,500L1000,500z"/>
</svg>
