<?xml version="1.0" encoding="utf-8"?>
<!-- Generator: Adobe Illustrator 22.0.1, SVG Export Plug-In . SVG Version: 6.00 Build 0)  -->
<svg version="1.1" id="Calque_1" xmlns="http://www.w3.org/2000/svg" xmlns:xlink="http://www.w3.org/1999/xlink" x="0px" y="0px"
	 viewBox="0 0 1000 1000" style="enable-background:new 0 0 1000 1000;" xml:space="preserve">
<style type="text/css">
	.st0{fill:#688ED8;stroke:#000000;stroke-miterlimit:10;}
	.st1{fill:#FFFFFF;}
</style>
<rect class="st0" width="1000" height="1000"/>
<path class="st1" d="M500,141c198.3,0,359,160.7,359,359S698.3,859,500,859S141,698.3,141,500S301.7,141,500,141z M500,192.3
	c-52.1,0-101.4,13.2-144.7,36.1l77.8,77.7c21.3-7.2,43.7-11.2,66.9-11.2c23.6,0,45.7,4,66.9,11.2l77.8-77.7
	C601.4,205.5,552.1,192.3,500,192.3z M228.4,644.7l77.7-77.8c-7.2-21.3-11.2-43.7-11.2-66.9c0-23.6,4-45.7,11.2-66.9l-77.7-77.8
	c-22.9,43.3-36.1,92.6-36.1,144.7S205.5,601.4,228.4,644.7z M500,807.7c52.1,0,101.4-13.2,144.7-36.1l-77.8-77.7
	c-21.3,7.2-43.3,11.2-66.9,11.2c-23.3,0-45.7-4-66.9-11.2l-77.8,77.7C398.6,794.5,447.9,807.7,500,807.7z M500,653.9
	c84.9,0,153.9-68.9,153.9-153.9S584.9,346.1,500,346.1S346.1,415.1,346.1,500S415.1,653.9,500,653.9z M693.9,566.9l77.7,77.8
	c22.9-43.3,36.1-92.6,36.1-144.7s-13.2-101.4-36.1-144.7l-77.7,77.8c7.2,21.3,11.2,43.7,11.2,66.9
	C705.1,523.3,701.1,545.7,693.9,566.9z"/>
</svg>
