<?xml version="1.0" encoding="utf-8"?>
<!-- Generator: Adobe Illustrator 24.3.0, SVG Export Plug-In . SVG Version: 6.00 Build 0)  -->
<svg version="1.1" id="Calque_1" xmlns="http://www.w3.org/2000/svg" xmlns:xlink="http://www.w3.org/1999/xlink" x="0px" y="0px"
	 viewBox="0 0 1000 1000" style="enable-background:new 0 0 1000 1000;" xml:space="preserve">
<style type="text/css">
	.st0{fill:#333333;}
</style>
<path class="st0" d="M916.2,604.1v89.2c0,7.8-7,14.8-14.9,14.8H262.2v89.2c0,7.8-6.5,14.8-14.9,14.8c-4.2,0-7.9-1.8-11.2-4.7
	L87.9,658.9c-2.7-2.8-4.2-6.5-4.2-10.2c0-4.2,1.4-7.9,4.2-10.7l148.7-148.7c2.7-2.8,7-4.2,10.7-4.2c7.9,0,14.9,6.5,14.9,14.8v89.2
	h639.1C909.2,589.2,916.2,595.7,916.2,604.1z M916.2,351.3c0,3.7-1.4,7.9-4.2,10.7L763.4,510.7c-2.7,2.8-7,4.2-10.7,4.2
	c-7.9,0-14.9-7-14.9-14.9v-89.2H98.7c-7.9,0-14.9-7-14.9-14.9v-89.2c0-7.9,7-14.9,14.9-14.9h639.1v-89.2c0-8.4,6.5-14.9,14.9-14.9
	c4.2,0,7.9,1.8,11.2,4.7l148.2,148.2C914.8,343.5,916.2,347.7,916.2,351.3L916.2,351.3z"/>
</svg>
