<?xml version="1.0" encoding="utf-8"?>
<!-- Generator: Adobe Illustrator 22.1.0, SVG Export Plug-In . SVG Version: 6.00 Build 0)  -->
<svg version="1.1" id="Calque_1" xmlns="http://www.w3.org/2000/svg" xmlns:xlink="http://www.w3.org/1999/xlink" x="0px" y="0px"
	 viewBox="0 0 847 293" style="enable-background:new 0 0 847 293;" xml:space="preserve">
<style type="text/css">
	.st0{fill:#FF8811;}
	.st1{fill:#FFE7CF;}
</style>
<g>
	<path class="st0" d="M0,267V26C0,11.6,11.6,0,26,0h795c14.4,0,26,11.6,26,26v241c0,14.4-11.6,26-26,26H26C11.6,293,0,281.4,0,267z"
		/>
	<path class="st1" d="M823.1,274.6H23.9c-3.3,0-6-2.7-6-6V24.4c0-3.3,2.7-6,6-6h799.3c3.3,0,6,2.7,6,6v244.3
		C829.1,271.9,826.4,274.6,823.1,274.6z"/>
</g>
<g>
	<path class="st0" d="M184.3,102.7v12.8h-38.5v24.1h30.3V152h-30.3v24.5h38.5v12.9h-54.7v-86.8h54.7V102.7z"/>
	<path class="st0" d="M219.1,144.8l-27.7-42.1h16.1c1.1,0,1.9,0.2,2.4,0.5s0.9,0.8,1.3,1.5l19.7,31.9c0.2-0.5,0.4-1,0.7-1.5
		c0.2-0.5,0.5-1,0.8-1.5l18.1-28.5c0.9-1.5,2-2.2,3.4-2.2h15.5l-28,41.5l28.7,45.3H254c-1.1,0-2-0.3-2.6-0.8
		c-0.7-0.6-1.2-1.2-1.6-1.9l-20.1-33.2c-0.2,0.5-0.3,0.9-0.5,1.4c-0.2,0.4-0.4,0.8-0.6,1.2l-19.3,30.7c-0.4,0.7-1,1.3-1.6,1.9
		c-0.6,0.6-1.4,0.9-2.4,0.9h-15.1L219.1,144.8z"/>
	<path class="st0" d="M334.5,102.7v12.8H296v24.1h30.3V152H296v24.5h38.5v12.9h-54.7v-86.8h54.7V102.7z M331,82l-17.8,13
		c-0.4,0.3-0.9,0.6-1.2,0.8c-0.4,0.2-0.8,0.4-1.1,0.5c-0.4,0.1-0.8,0.2-1.2,0.2c-0.4,0-0.9,0.1-1.5,0.1h-11.6l11.8-12.1
		c0.5-0.5,0.9-0.9,1.4-1.2c0.4-0.3,0.8-0.6,1.3-0.8c0.4-0.2,0.9-0.3,1.5-0.4s1.2-0.1,2-0.1H331z"/>
	<path class="st0" d="M408.1,169c0.9,0,1.6,0.3,2.3,1l6.4,6.9c-3.5,4.4-7.9,7.7-13,10s-11.3,3.5-18.5,3.5c-6.4,0-12.2-1.1-17.4-3.3
		c-5.1-2.2-9.5-5.3-13.2-9.2c-3.6-3.9-6.4-8.6-8.4-14c-1.9-5.4-2.9-11.4-2.9-17.8c0-6.5,1.1-12.5,3.2-17.9c2.2-5.4,5.2-10.1,9.1-14
		s8.6-7,14.1-9.2s11.5-3.3,18.1-3.3c6.4,0,12.1,1,16.9,3.1s8.9,4.8,12.4,8.2l-5.4,7.5c-0.3,0.5-0.7,0.9-1.2,1.3s-1.2,0.5-2.1,0.5
		s-1.9-0.4-2.8-1.1s-2.2-1.5-3.7-2.3s-3.4-1.6-5.6-2.3c-2.3-0.7-5.1-1.1-8.6-1.1c-4.1,0-7.8,0.7-11.2,2.1s-6.4,3.5-8.8,6.1
		s-4.4,5.8-5.8,9.6s-2.1,8-2.1,12.8c0,4.9,0.7,9.2,2.1,13s3.2,7,5.6,9.6s5.1,4.6,8.3,6c3.2,1.4,6.6,2.1,10.3,2.1
		c2.2,0,4.2-0.1,6-0.4c1.8-0.2,3.4-0.6,4.9-1.1s2.9-1.2,4.3-2c1.3-0.8,2.7-1.8,4-3c0.4-0.4,0.8-0.6,1.3-0.9
		C407.1,169.1,407.6,169,408.1,169z"/>
	<path class="st0" d="M463.8,176.4c3.1,0,5.9-0.5,8.4-1.6c2.5-1,4.5-2.5,6.2-4.4s3-4.2,3.9-6.8c0.9-2.7,1.4-5.7,1.4-9v-52h16.1v52
		c0,5.2-0.8,9.9-2.5,14.3c-1.7,4.4-4,8.2-7.2,11.3c-3.1,3.2-6.9,5.7-11.3,7.4s-9.4,2.7-15,2.7s-10.6-0.9-15-2.7s-8.2-4.3-11.3-7.4
		c-3.1-3.2-5.5-7-7.1-11.3c-1.7-4.4-2.5-9.1-2.5-14.3v-52H444v51.9c0,3.3,0.4,6.3,1.3,9s2.2,5,3.9,6.9c1.7,1.9,3.8,3.4,6.2,4.4
		C457.9,175.9,460.7,176.4,463.8,176.4z"/>
	<path class="st0" d="M577.4,102.7V116h-26.1v73.5h-16.1V116H509v-13.3H577.4z"/>
	<path class="st0" d="M642.4,102.7v12.8h-38.5v24.1h30.3V152h-30.3v24.5h38.5v12.9h-54.7v-86.8h54.7V102.7z"/>
	<path class="st0" d="M673,155.5v33.9h-16.1v-86.8h26.5c5.9,0,11,0.6,15.2,1.8c4.2,1.2,7.7,2.9,10.4,5.1s4.7,4.8,5.9,7.9
		c1.3,3.1,1.9,6.4,1.9,10.1c0,2.9-0.4,5.7-1.3,8.3c-0.9,2.6-2.1,5-3.7,7.1c-1.6,2.1-3.6,4-6,5.6s-5.1,2.9-8.1,3.8
		c2,1.2,3.8,2.8,5.3,5l21.7,32h-14.5c-1.4,0-2.6-0.3-3.6-0.8c-1-0.6-1.8-1.4-2.5-2.4l-18.2-27.8c-0.7-1-1.4-1.8-2.2-2.2
		s-2-0.7-3.6-0.7L673,155.5L673,155.5z M673,144h10.1c3,0,5.7-0.4,8-1.1c2.3-0.8,4.1-1.8,5.6-3.1s2.5-2.9,3.3-4.8
		c0.7-1.8,1.1-3.9,1.1-6.1c0-4.4-1.5-7.8-4.3-10.1c-2.9-2.4-7.3-3.5-13.3-3.5H673V144z"/>
</g>
</svg>
