<?xml version="1.0" encoding="utf-8"?>
<!-- Generator: Adobe Illustrator 26.0.2, SVG Export Plug-In . SVG Version: 6.00 Build 0)  -->
<svg version="1.1" id="Calque_1" xmlns="http://www.w3.org/2000/svg" xmlns:xlink="http://www.w3.org/1999/xlink" x="0px" y="0px"
	 viewBox="0 0 710 800" style="enable-background:new 0 0 710 800;" xml:space="preserve">
<style type="text/css">
	.st0{fill:#333333;}
</style>
<path class="st0" d="M273,167.5l0.4-0.3C259.2,92.5,186.9,43.4,112.1,57.7C47,70.2-0.1,127,0,193.3v493.1h157.8v-310
	c0-12.2,2.8-24.3,8.3-35.2l68.4-136.8C242.6,188,256.3,175,273,167.5L273,167.5z M705.8,358.7l-68.4-136.8
	c-4.1-8.2-10.9-14.6-19.3-18.4l-148.5-65.8c-10.2-4.5-21.8-4.5-32,0L289,203.6c-8.3,3.7-15.2,10.3-19.3,18.4l-68.4,136.7
	c-2.8,5.4-4.2,11.5-4.2,17.6v310H355V568h197.2v118.3H710V376.4C710,370.3,708.6,364.2,705.8,358.7z M512.8,449.7H394.4V331.4h118.3
	L512.8,449.7L512.8,449.7z"/>
</svg>
