<?xml version="1.0" encoding="utf-8"?>
<!-- Generator: Adobe Illustrator 24.3.0, SVG Export Plug-In . SVG Version: 6.00 Build 0)  -->
<svg version="1.1" id="Calque_1" xmlns="http://www.w3.org/2000/svg" xmlns:xlink="http://www.w3.org/1999/xlink" x="0px" y="0px"
	 viewBox="0 0 753.4 292" style="enable-background:new 0 0 753.4 292;" xml:space="preserve">
<style type="text/css">
	.st0{fill:url(#SVGID_1_);}
	.st1{fill:url(#SVGID_2_);}
	.st2{fill:#FFFFFF;}
	.st3{fill:#333333;}
</style>
<g>
	
		<linearGradient id="SVGID_1_" gradientUnits="userSpaceOnUse" x1="2363.3" y1="-1142" x2="2363.3" y2="-850" gradientTransform="matrix(-1 0 0 -1 2740 -850)">
		<stop  offset="0" style="stop-color:#BBBBBB"/>
		<stop  offset="1" style="stop-color:#DCDCDC"/>
	</linearGradient>
	<path class="st0" d="M25,282c-8,0-15-7-15-15V25c0-8,7-15,15-15h703.5c8,0,15,7,15,15v242c0,8-7,15-15,15H25z M728.4,292
		c14,0,25-11,25-25V25c0-14-11-25-25-25H25C11,0,0,11,0,25v242c0,14,11,25,25,25H728.4z"/>
</g>
<linearGradient id="SVGID_2_" gradientUnits="userSpaceOnUse" x1="2363.25" y1="600" x2="2363.25" y2="328" gradientTransform="matrix(-1 0 0 1 2740 -318)">
	<stop  offset="0" style="stop-color:#E8E8E8"/>
	<stop  offset="1" style="stop-color:#F9F9F9"/>
</linearGradient>
<path class="st1" d="M25,282c-8,0-15-7-15-15V25c0-8,7-15,15-15h703.5c8,0,15,7,15,15v242c0,8-7,15-15,15H25z"/>
<g>
	<path class="st2" d="M158,199.7h32.4v-16.2H158V199.7L158,199.7z M101.2,102.3v16.2h146v-16.2L101.2,102.3L101.2,102.3z
		 M125.5,159.1h97.3v-16.2h-97.3V159.1z"/>
	<path class="st3" d="M148,189.7h32.4v-16.2H148V189.7L148,189.7z M91.2,92.3v16.2h146V92.3H91.2L91.2,92.3z M115.5,149.1h97.3
		v-16.2h-97.3V149.1z"/>
</g>
<g>
	<g>
		<path class="st2" d="M335.9,117.5v28.1h36.5v16.5h-36.5v40.5h-21.1V101.1h64.7v16.4H335.9z"/>
		<path class="st2" d="M413.4,110c0,1.6-0.3,3.2-1,4.6c-0.7,1.4-1.5,2.6-2.6,3.7c-1.1,1.1-2.4,1.9-3.9,2.5c-1.5,0.6-3,0.9-4.7,0.9
			c-1.6,0-3.1-0.3-4.5-0.9c-1.4-0.6-2.7-1.4-3.7-2.5c-1.1-1.1-1.9-2.3-2.6-3.7s-0.9-2.9-0.9-4.6c0-1.6,0.3-3.2,0.9-4.6
			c0.6-1.4,1.5-2.7,2.6-3.7c1.1-1.1,2.3-1.9,3.7-2.5c1.4-0.6,2.9-0.9,4.5-0.9c1.7,0,3.3,0.3,4.7,0.9c1.5,0.6,2.8,1.4,3.9,2.5
			c1.1,1.1,2,2.3,2.6,3.7C413.1,106.8,413.4,108.3,413.4,110z M411.1,130.5v72.2h-19.3v-72.2H411.1z"/>
		<path class="st2" d="M447.1,98.3v104.4h-19.3V98.3H447.1z"/>
		<path class="st2" d="M488.1,203.8c-3.3,0-6.2-0.5-8.7-1.4c-2.5-1-4.6-2.3-6.4-4.1c-1.7-1.8-3-3.9-3.9-6.4s-1.3-5.4-1.3-8.5v-38.9
			H461c-1,0-1.9-0.3-2.6-1c-0.7-0.7-1.1-1.6-1.1-2.9v-7.6l11.6-2.1l3.9-18.7c0.5-2.1,1.9-3.1,4.3-3.1h10.1v22h18.6v13.4h-18.6V182
			c0,2,0.5,3.6,1.4,4.8c1,1.2,2.3,1.8,4.1,1.8c0.9,0,1.7-0.1,2.4-0.3c0.7-0.2,1.2-0.4,1.7-0.7c0.5-0.3,0.9-0.5,1.3-0.7
			s0.8-0.3,1.2-0.3c0.6,0,1,0.1,1.4,0.4c0.4,0.3,0.7,0.7,1.1,1.3l5.8,9.2c-2.7,2.1-5.7,3.7-9,4.8
			C495.2,203.2,491.7,203.8,488.1,203.8z"/>
		<path class="st2" d="M534.2,142.4c2.3-4.1,4.9-7.4,7.9-9.7s6.5-3.6,10.5-3.6c3.3,0,5.9,0.8,8,2.3l-1.3,14.3
			c-0.2,0.9-0.6,1.6-1.1,1.9c-0.5,0.4-1.2,0.5-2,0.5c-0.7,0-1.8-0.1-3.2-0.3c-1.4-0.2-2.7-0.3-3.9-0.3c-1.8,0-3.3,0.3-4.7,0.8
			c-1.4,0.5-2.6,1.2-3.7,2.2c-1.1,0.9-2,2.1-2.9,3.4c-0.9,1.4-1.7,2.9-2.4,4.6v44.2h-19.3v-72.2h11.4c2,0,3.3,0.4,4.1,1
			c0.7,0.7,1.3,1.9,1.6,3.6L534.2,142.4z"/>
		<path class="st2" d="M582.6,169.6c0.6,6.8,2.5,11.7,5.8,14.8c3.2,3.1,7.5,4.7,12.7,4.7c2.7,0,5-0.3,6.9-0.9s3.6-1.3,5.1-2.1
			c1.5-0.8,2.8-1.5,4-2.1c1.2-0.6,2.4-0.9,3.5-0.9c1.5,0,2.7,0.6,3.5,1.7l5.6,7c-2.1,2.4-4.3,4.4-6.8,5.9c-2.5,1.6-5,2.8-7.7,3.7
			c-2.7,0.9-5.3,1.5-8,1.9c-2.7,0.4-5.3,0.5-7.8,0.5c-5,0-9.7-0.8-14.1-2.5c-4.4-1.7-8.2-4.1-11.4-7.4c-3.2-3.2-5.8-7.3-7.7-12.1
			c-1.9-4.8-2.8-10.4-2.8-16.7c0-4.9,0.8-9.5,2.4-13.9c1.6-4.3,3.9-8.1,7-11.3c3-3.2,6.7-5.8,11.1-7.7s9.2-2.8,14.7-2.8
			c4.6,0,8.9,0.7,12.8,2.2c3.9,1.5,7.3,3.6,10.1,6.4c2.8,2.8,5,6.2,6.6,10.3c1.6,4.1,2.3,8.7,2.3,14c0,1.4-0.1,2.6-0.2,3.6
			c-0.1,0.9-0.4,1.7-0.7,2.2c-0.3,0.6-0.8,0.9-1.3,1.2c-0.6,0.2-1.3,0.3-2.2,0.3H582.6z M612.9,158.1c0-2-0.3-3.9-0.8-5.7
			c-0.5-1.8-1.4-3.4-2.6-4.8c-1.2-1.4-2.6-2.5-4.4-3.3c-1.8-0.8-3.9-1.2-6.4-1.2c-4.6,0-8.2,1.3-10.9,3.9c-2.6,2.6-4.3,6.3-5.1,11.2
			H612.9z"/>
		<path class="st2" d="M660.3,142.4c2.3-4.1,4.9-7.4,7.9-9.7s6.5-3.6,10.5-3.6c3.3,0,5.9,0.8,8,2.3l-1.3,14.3
			c-0.2,0.9-0.6,1.6-1.1,1.9c-0.5,0.4-1.2,0.5-2,0.5c-0.7,0-1.8-0.1-3.2-0.3c-1.4-0.2-2.7-0.3-3.9-0.3c-1.8,0-3.3,0.3-4.7,0.8
			c-1.4,0.5-2.6,1.2-3.7,2.2c-1.1,0.9-2,2.1-2.9,3.4c-0.9,1.4-1.7,2.9-2.4,4.6v44.2h-19.3v-72.2h11.4c2,0,3.3,0.4,4.1,1
			c0.7,0.7,1.3,1.9,1.6,3.6L660.3,142.4z"/>
	</g>
	<g>
		<path class="st3" d="M325.9,107.5v28.1h36.5v16.5h-36.5v40.5h-21.1V91.1h64.7v16.4H325.9z"/>
		<path class="st3" d="M403.4,100c0,1.6-0.3,3.2-1,4.6c-0.7,1.4-1.5,2.6-2.6,3.7c-1.1,1.1-2.4,1.9-3.9,2.5c-1.5,0.6-3,0.9-4.7,0.9
			c-1.6,0-3.1-0.3-4.5-0.9c-1.4-0.6-2.7-1.4-3.7-2.5c-1.1-1.1-1.9-2.3-2.6-3.7s-0.9-2.9-0.9-4.6c0-1.6,0.3-3.2,0.9-4.6
			c0.6-1.4,1.5-2.7,2.6-3.7c1.1-1.1,2.3-1.9,3.7-2.5c1.4-0.6,2.9-0.9,4.5-0.9c1.7,0,3.3,0.3,4.7,0.9c1.5,0.6,2.8,1.4,3.9,2.5
			c1.1,1.1,2,2.3,2.6,3.7C403.1,96.8,403.4,98.3,403.4,100z M401.1,120.5v72.2h-19.3v-72.2H401.1z"/>
		<path class="st3" d="M437.1,88.3v104.4h-19.3V88.3H437.1z"/>
		<path class="st3" d="M478.1,193.8c-3.3,0-6.2-0.5-8.7-1.4c-2.5-1-4.6-2.3-6.4-4.1c-1.7-1.8-3-3.9-3.9-6.4s-1.3-5.4-1.3-8.5v-38.9
			H451c-1,0-1.9-0.3-2.6-1c-0.7-0.7-1.1-1.6-1.1-2.9v-7.6l11.6-2.1l3.9-18.7c0.5-2.1,1.9-3.1,4.3-3.1h10.1v22h18.6v13.4h-18.6V172
			c0,2,0.5,3.6,1.4,4.8c1,1.2,2.3,1.8,4.1,1.8c0.9,0,1.7-0.1,2.4-0.3c0.7-0.2,1.2-0.4,1.7-0.7c0.5-0.3,0.9-0.5,1.3-0.7
			s0.8-0.3,1.2-0.3c0.6,0,1,0.1,1.4,0.4c0.4,0.3,0.7,0.7,1.1,1.3l5.8,9.2c-2.7,2.1-5.7,3.7-9,4.8
			C485.2,193.2,481.7,193.8,478.1,193.8z"/>
		<path class="st3" d="M524.2,132.4c2.3-4.1,4.9-7.4,7.9-9.7s6.5-3.6,10.5-3.6c3.3,0,5.9,0.8,8,2.3l-1.3,14.3
			c-0.2,0.9-0.6,1.6-1.1,1.9c-0.5,0.4-1.2,0.5-2,0.5c-0.7,0-1.8-0.1-3.2-0.3c-1.4-0.2-2.7-0.3-3.9-0.3c-1.8,0-3.3,0.3-4.7,0.8
			c-1.4,0.5-2.6,1.2-3.7,2.2c-1.1,0.9-2,2.1-2.9,3.4c-0.9,1.4-1.7,2.9-2.4,4.6v44.2h-19.3v-72.2h11.4c2,0,3.3,0.4,4.1,1
			c0.7,0.7,1.3,1.9,1.6,3.6L524.2,132.4z"/>
		<path class="st3" d="M572.6,159.6c0.6,6.8,2.5,11.7,5.8,14.8c3.2,3.1,7.5,4.7,12.7,4.7c2.7,0,5-0.3,6.9-0.9s3.6-1.3,5.1-2.1
			c1.5-0.8,2.8-1.5,4-2.1c1.2-0.6,2.4-0.9,3.5-0.9c1.5,0,2.7,0.6,3.5,1.7l5.6,7c-2.1,2.4-4.3,4.4-6.8,5.9c-2.5,1.6-5,2.8-7.7,3.7
			c-2.7,0.9-5.3,1.5-8,1.9c-2.7,0.4-5.3,0.5-7.8,0.5c-5,0-9.7-0.8-14.1-2.5c-4.4-1.7-8.2-4.1-11.4-7.4c-3.2-3.2-5.8-7.3-7.7-12.1
			c-1.9-4.8-2.8-10.4-2.8-16.7c0-4.9,0.8-9.5,2.4-13.9c1.6-4.3,3.9-8.1,7-11.3c3-3.2,6.7-5.8,11.1-7.7s9.2-2.8,14.7-2.8
			c4.6,0,8.9,0.7,12.8,2.2c3.9,1.5,7.3,3.6,10.1,6.4c2.8,2.8,5,6.2,6.6,10.3c1.6,4.1,2.3,8.7,2.3,14c0,1.4-0.1,2.6-0.2,3.6
			c-0.1,0.9-0.4,1.7-0.7,2.2c-0.3,0.6-0.8,0.9-1.3,1.2c-0.6,0.2-1.3,0.3-2.2,0.3H572.6z M602.9,148.1c0-2-0.3-3.9-0.8-5.7
			c-0.5-1.8-1.4-3.4-2.6-4.8c-1.2-1.4-2.6-2.5-4.4-3.3c-1.8-0.8-3.9-1.2-6.4-1.2c-4.6,0-8.2,1.3-10.9,3.9c-2.6,2.6-4.3,6.3-5.1,11.2
			H602.9z"/>
		<path class="st3" d="M650.3,132.4c2.3-4.1,4.9-7.4,7.9-9.7s6.5-3.6,10.5-3.6c3.3,0,5.9,0.8,8,2.3l-1.3,14.3
			c-0.2,0.9-0.6,1.6-1.1,1.9c-0.5,0.4-1.2,0.5-2,0.5c-0.7,0-1.8-0.1-3.2-0.3c-1.4-0.2-2.7-0.3-3.9-0.3c-1.8,0-3.3,0.3-4.7,0.8
			c-1.4,0.5-2.6,1.2-3.7,2.2c-1.1,0.9-2,2.1-2.9,3.4c-0.9,1.4-1.7,2.9-2.4,4.6v44.2h-19.3v-72.2h11.4c2,0,3.3,0.4,4.1,1
			c0.7,0.7,1.3,1.9,1.6,3.6L650.3,132.4z"/>
	</g>
</g>
</svg>
