<?xml version="1.0" encoding="utf-8"?>
<!-- Generator: Adobe Illustrator 24.3.0, SVG Export Plug-In . SVG Version: 6.00 Build 0)  -->
<svg version="1.1" id="Calque_1" xmlns="http://www.w3.org/2000/svg" xmlns:xlink="http://www.w3.org/1999/xlink" x="0px" y="0px"
	 viewBox="0 0 1033.4 292" style="enable-background:new 0 0 1033.4 292;" xml:space="preserve">
<style type="text/css">
	.st0{fill:url(#SVGID_1_);}
	.st1{fill:url(#SVGID_2_);}
	.st2{fill:#FFFFFF;}
	.st3{fill:#333333;}
</style>
<g>
	
		<linearGradient id="SVGID_1_" gradientUnits="userSpaceOnUse" x1="-1572.7113" y1="-1140" x2="-1572.7113" y2="-848" gradientTransform="matrix(-1 0 0 -1 -1056 -848)">
		<stop  offset="0" style="stop-color:#BBBBBB"/>
		<stop  offset="1" style="stop-color:#DCDCDC"/>
	</linearGradient>
	<path class="st0" d="M25,282c-8,0-15-7-15-15V25c0-8,7-15,15-15h983.5c8,0,15,7,15,15v242c0,8-7,15-15,15H25z M1008.4,292
		c14,0,25-11,25-25V25c0-14-11-25-25-25H25C11,0,0,11,0,25v242c0,14,11,25,25,25H1008.4z"/>
</g>
<linearGradient id="SVGID_2_" gradientUnits="userSpaceOnUse" x1="-1572.7614" y1="2004" x2="-1572.7614" y2="1732" gradientTransform="matrix(-1 0 0 1 -1056 -1722)">
	<stop  offset="0" style="stop-color:#E8E8E8"/>
	<stop  offset="1" style="stop-color:#F9F9F9"/>
</linearGradient>
<path class="st1" d="M25,282c-8,0-15-7-15-15V25c0-8,7-15,15-15h983.5c8,0,15,7,15,15v242c0,8-7,15-15,15H25z"/>
<path class="st2" d="M152.2,156v37.4h-18.7V156H152.2z M180.3,118.6v74.8h-18.7v-74.8H180.3z M255.1,202.7v9.4H105.5V99.9h9.3v102.8
	H255.1z M208.3,137.3v56.1h-18.7v-56.1H208.3L208.3,137.3z M236.4,109.3v84.1h-18.7v-84.1H236.4L236.4,109.3z"/>
<path class="st3" d="M142.2,146v37.4h-18.7V146H142.2z M170.3,108.6v74.8h-18.7v-74.8H170.3z M245.1,192.7v9.4H95.5V89.9h9.3v102.8
	H245.1z M198.3,127.3v56.1h-18.7v-56.1H198.3L198.3,127.3z M226.4,99.3v84.1h-18.7V99.3H226.4L226.4,99.3z"/>
<g>
	<path class="st2" d="M353.9,189.8c4.2,0,7.9-0.4,11.1-1.2s6.1-1.8,9-3.2v-18.4h-12.7c-1.2,0-2.2-0.3-2.9-1c-0.7-0.7-1-1.5-1-2.5
		v-10.6H391v41c-2.6,1.9-5.2,3.5-8,4.9c-2.8,1.4-5.7,2.5-8.9,3.4c-3.1,0.9-6.5,1.6-10.1,2c-3.6,0.4-7.5,0.7-11.6,0.7
		c-7.4,0-14.2-1.3-20.4-3.9c-6.2-2.6-11.6-6.1-16.1-10.7c-4.5-4.6-8.1-10-10.6-16.4c-2.5-6.3-3.8-13.3-3.8-20.8
		c0-7.6,1.2-14.6,3.7-20.9c2.5-6.3,6-11.8,10.5-16.4c4.5-4.6,10.1-8.1,16.6-10.6c6.5-2.5,13.8-3.8,21.8-3.8c8.3,0,15.4,1.2,21.5,3.7
		c6,2.5,11.2,5.6,15.4,9.6l-5.5,8.5c-1.1,1.7-2.5,2.6-4.3,2.6c-1.1,0-2.3-0.4-3.4-1.1c-1.5-0.9-3-1.8-4.6-2.7
		c-1.6-0.9-3.3-1.7-5.2-2.3c-1.9-0.7-4-1.2-6.4-1.6c-2.4-0.4-5.1-0.6-8.2-0.6c-5,0-9.5,0.8-13.5,2.5c-4,1.7-7.5,4.1-10.3,7.2
		c-2.8,3.1-5,6.9-6.6,11.3c-1.5,4.4-2.3,9.3-2.3,14.7c0,5.8,0.8,11,2.5,15.6c1.6,4.6,3.9,8.4,6.9,11.5c2.9,3.1,6.4,5.5,10.5,7.2
		C344.6,189,349,189.8,353.9,189.8z"/>
	<path class="st2" d="M407.6,203.7v-71.8h10.1c1.8,0,3,0.3,3.7,1c0.7,0.7,1.2,1.8,1.4,3.4l1,8.7c2.6-4.4,5.6-7.9,9-10.5
		c3.5-2.6,7.3-3.9,11.6-3.9c3.5,0,6.5,0.8,8.8,2.4l-2.2,13c-0.1,0.8-0.4,1.4-0.9,1.8c-0.5,0.3-1.1,0.5-1.9,0.5
		c-0.7,0-1.7-0.2-2.9-0.5c-1.2-0.3-2.8-0.5-4.8-0.5c-3.6,0-6.7,1-9.2,3c-2.6,2-4.7,4.9-6.5,8.7v44.7H407.6z"/>
	<path class="st2" d="M519.1,203.7h-7.8c-1.6,0-2.9-0.2-3.8-0.7c-0.9-0.5-1.6-1.5-2.1-3l-1.5-5.1c-1.8,1.6-3.6,3.1-5.4,4.3
		c-1.8,1.2-3.6,2.3-5.4,3.1c-1.9,0.8-3.9,1.5-6,1.9c-2.1,0.4-4.4,0.6-7,0.6c-3,0-5.8-0.4-8.4-1.2c-2.6-0.8-4.8-2-6.6-3.7
		c-1.8-1.6-3.3-3.7-4.3-6.1c-1-2.4-1.5-5.3-1.5-8.5c0-2.7,0.7-5.4,2.1-8c1.4-2.6,3.8-5,7.1-7.2c3.3-2.1,7.7-3.9,13.2-5.3
		c5.5-1.4,12.3-2.1,20.5-2.1v-4.2c0-4.8-1-8.4-3-10.8c-2-2.3-5-3.5-8.9-3.5c-2.8,0-5.1,0.3-7,1c-1.9,0.7-3.5,1.4-4.9,2.2
		c-1.4,0.8-2.6,1.6-3.8,2.2c-1.2,0.7-2.5,1-3.9,1c-1.2,0-2.2-0.3-3-0.9c-0.8-0.6-1.5-1.4-2-2.2l-3.1-5.5
		c8.3-7.6,18.2-11.3,29.9-11.3c4.2,0,7.9,0.7,11.2,2.1c3.3,1.4,6.1,3.3,8.4,5.7c2.3,2.5,4,5.4,5.2,8.8c1.2,3.4,1.8,7.1,1.8,11.2
		V203.7z M485.5,192.9c1.8,0,3.4-0.2,4.9-0.5c1.5-0.3,2.9-0.8,4.2-1.4s2.6-1.4,3.9-2.4c1.2-0.9,2.5-2.1,3.7-3.3v-12
		c-5,0-9.3,0.3-12.6,1s-6.1,1.4-8.2,2.4c-2.1,1-3.5,2.1-4.4,3.5c-0.9,1.3-1.3,2.7-1.3,4.3c0,3.1,0.9,5.2,2.7,6.6
		C480.2,192.3,482.6,192.9,485.5,192.9z"/>
	<path class="st2" d="M536.1,227.2v-95.3h10.6c1.1,0,2.1,0.3,2.9,0.8c0.8,0.5,1.3,1.3,1.5,2.4l1.4,6.6c2.9-3.3,6.2-6,10-8
		c3.8-2.1,8.2-3.1,13.2-3.1c3.9,0,7.5,0.8,10.7,2.4c3.2,1.6,6,4,8.4,7.1c2.4,3.1,4.2,6.9,5.5,11.5c1.3,4.6,1.9,9.8,1.9,15.6
		c0,5.4-0.7,10.3-2.2,14.9c-1.4,4.6-3.5,8.5-6.2,11.9c-2.7,3.4-5.9,6-9.7,7.9c-3.8,1.9-8.1,2.8-12.8,2.8c-4.1,0-7.5-0.6-10.3-1.9
		c-2.8-1.2-5.4-3-7.6-5.1v29.4H536.1z M569.7,144.2c-3.6,0-6.7,0.8-9.2,2.3c-2.5,1.5-4.9,3.7-7.1,6.4v32.2c2,2.4,4.1,4.1,6.4,5.1
		c2.3,1,4.8,1.4,7.5,1.4c2.6,0,5-0.5,7.1-1.5c2.1-1,3.9-2.5,5.4-4.5c1.5-2,2.6-4.5,3.4-7.6c0.8-3.1,1.2-6.7,1.2-10.8
		c0-4.2-0.3-7.8-1-10.7c-0.7-2.9-1.6-5.3-2.9-7.1s-2.8-3.1-4.6-4C574,144.6,571.9,144.2,569.7,144.2z"/>
	<path class="st2" d="M615.2,203.7v-104h17.3v40c2.8-2.7,5.9-4.8,9.2-6.4c3.4-1.6,7.3-2.4,11.8-2.4c3.9,0,7.4,0.7,10.4,2
		c3,1.3,5.6,3.2,7.6,5.6c2,2.4,3.6,5.3,4.6,8.6c1,3.3,1.6,7,1.6,11v45.7h-17.3V158c0-4.4-1-7.8-3-10.2c-2-2.4-5.1-3.6-9.1-3.6
		c-3,0-5.8,0.7-8.4,2c-2.6,1.4-5.1,3.2-7.4,5.5v51.9H615.2z"/>
	<path class="st2" d="M715.8,110.9c0,1.5-0.3,2.9-0.9,4.2c-0.6,1.3-1.4,2.4-2.4,3.4c-1,1-2.2,1.8-3.5,2.3c-1.4,0.6-2.8,0.9-4.3,0.9
		c-1.5,0-2.9-0.3-4.2-0.9c-1.3-0.6-2.5-1.4-3.5-2.3c-1-1-1.8-2.1-2.3-3.4c-0.6-1.3-0.9-2.7-0.9-4.2c0-1.5,0.3-3,0.9-4.3
		c0.6-1.4,1.4-2.5,2.3-3.5c1-1,2.1-1.8,3.5-2.3c1.3-0.6,2.7-0.9,4.2-0.9c1.5,0,3,0.3,4.3,0.9c1.4,0.6,2.5,1.4,3.5,2.3
		c1,1,1.8,2.1,2.4,3.5C715.5,108,715.8,109.4,715.8,110.9z M713.2,131.9v71.8h-17.3v-71.8H713.2z"/>
	<path class="st2" d="M793.9,131.9v95.3h-17.3v-32.5c-1.4,1.5-3,2.9-4.6,4.2c-1.6,1.2-3.3,2.3-5.1,3.2c-1.8,0.9-3.8,1.5-5.8,2
		c-2.1,0.5-4.3,0.7-6.6,0.7c-3.9,0-7.5-0.8-10.8-2.4c-3.3-1.6-6.1-4-8.4-7.1c-2.4-3.1-4.2-6.9-5.5-11.5c-1.3-4.6-1.9-9.8-1.9-15.7
		c0-5.3,0.7-10.3,2.2-14.8c1.4-4.6,3.5-8.5,6.2-11.9c2.7-3.4,6-6,9.7-7.9c3.8-1.9,8-2.8,12.7-2.8c2.2,0,4.3,0.2,6.1,0.6
		c1.8,0.4,3.5,1,5.1,1.7c1.6,0.7,3,1.6,4.3,2.7c1.3,1,2.6,2.2,3.8,3.5l0.9-4c0.2-1.1,0.7-1.9,1.5-2.4c0.8-0.5,1.8-0.8,2.9-0.8H793.9
		z M760.3,191c3.6,0,6.7-0.7,9.2-2.2c2.5-1.5,4.9-3.6,7.1-6.4v-32.2c-2-2.4-4.1-4.1-6.4-5c-2.3-1-4.8-1.5-7.5-1.5
		c-2.6,0-5,0.5-7.1,1.5c-2.1,1-3.9,2.5-5.4,4.4c-1.5,2-2.6,4.5-3.4,7.6c-0.8,3.1-1.2,6.7-1.2,10.8c0,4.2,0.3,7.8,1,10.7
		c0.7,2.9,1.6,5.3,2.9,7.1c1.3,1.8,2.8,3.2,4.6,4C756,190.6,758,191,760.3,191z"/>
	<path class="st2" d="M828.4,131.9v45.6c0,4.4,1,7.8,3,10.2c2,2.4,5.1,3.6,9.1,3.6c3,0,5.8-0.7,8.4-2c2.6-1.3,5.1-3.2,7.4-5.5v-51.9
		h17.3v71.8h-10.6c-2.2,0-3.7-1-4.4-3.1l-1.2-5.7c-1.5,1.5-3,2.9-4.6,4.1c-1.6,1.2-3.3,2.3-5.1,3.1c-1.8,0.9-3.7,1.5-5.8,2
		c-2.1,0.5-4.3,0.7-6.7,0.7c-3.9,0-7.4-0.7-10.4-2c-3-1.3-5.5-3.2-7.6-5.6c-2.1-2.4-3.6-5.3-4.7-8.6c-1-3.3-1.6-7-1.6-11v-45.6
		H828.4z"/>
	<path class="st2" d="M921.8,130.8c4.5,0,8.7,0.7,12.5,2.2c3.8,1.4,7.1,3.6,9.8,6.3c2.8,2.8,4.9,6.2,6.4,10.2
		c1.5,4,2.3,8.6,2.3,13.8c0,1.3-0.1,2.4-0.2,3.3c-0.1,0.9-0.3,1.5-0.6,2c-0.3,0.5-0.7,0.8-1.2,1s-1.2,0.3-2,0.3h-44.4
		c0.5,7.4,2.5,12.8,6,16.2c3.5,3.5,8,5.2,13.7,5.2c2.8,0,5.2-0.3,7.2-1c2-0.7,3.8-1.4,5.3-2.2c1.5-0.8,2.8-1.5,4-2.2
		c1.1-0.7,2.2-1,3.3-1c0.7,0,1.3,0.1,1.8,0.4c0.5,0.3,1,0.7,1.3,1.2l5,6.3c-1.9,2.2-4.1,4.1-6.4,5.6c-2.4,1.5-4.9,2.7-7.5,3.6
		c-2.6,0.9-5.2,1.6-7.9,1.9c-2.7,0.4-5.3,0.6-7.8,0.6c-5,0-9.6-0.8-13.9-2.5c-4.3-1.7-8-4.1-11.2-7.4c-3.2-3.2-5.7-7.3-7.5-12
		c-1.8-4.8-2.7-10.3-2.7-16.6c0-4.9,0.8-9.5,2.4-13.8c1.6-4.3,3.9-8.1,6.8-11.3c3-3.2,6.6-5.7,10.8-7.6
		C911.6,131.7,916.5,130.8,921.8,130.8z M922.2,143.2c-5,0-9,1.4-11.8,4.3c-2.8,2.8-4.7,6.9-5.5,12.1h32.5c0-2.2-0.3-4.4-0.9-6.3
		c-0.6-2-1.5-3.7-2.8-5.2c-1.3-1.5-2.8-2.7-4.8-3.5C927,143.6,924.7,143.2,922.2,143.2z"/>
</g>
<g>
	<path class="st3" d="M343.9,179.8c4.2,0,7.9-0.4,11.1-1.2s6.1-1.8,9-3.2v-18.4h-12.7c-1.2,0-2.2-0.3-2.9-1c-0.7-0.7-1-1.5-1-2.5
		V143H381v41c-2.6,1.9-5.2,3.5-8,4.9c-2.8,1.4-5.7,2.5-8.9,3.4c-3.1,0.9-6.5,1.6-10.1,2c-3.6,0.4-7.5,0.7-11.6,0.7
		c-7.4,0-14.2-1.3-20.4-3.9c-6.2-2.6-11.6-6.1-16.1-10.7c-4.5-4.6-8.1-10-10.6-16.4c-2.5-6.3-3.8-13.3-3.8-20.8
		c0-7.6,1.2-14.6,3.7-20.9c2.5-6.3,6-11.8,10.5-16.4c4.5-4.6,10.1-8.1,16.6-10.6c6.5-2.5,13.8-3.8,21.8-3.8c8.3,0,15.4,1.2,21.5,3.7
		c6,2.5,11.2,5.6,15.4,9.6l-5.5,8.5c-1.1,1.7-2.5,2.6-4.3,2.6c-1.1,0-2.3-0.4-3.4-1.1c-1.5-0.9-3-1.8-4.6-2.7
		c-1.6-0.9-3.3-1.7-5.2-2.3c-1.9-0.7-4-1.2-6.4-1.6c-2.4-0.4-5.1-0.6-8.2-0.6c-5,0-9.5,0.8-13.5,2.5c-4,1.7-7.5,4.1-10.3,7.2
		c-2.8,3.1-5,6.9-6.6,11.3c-1.5,4.4-2.3,9.3-2.3,14.7c0,5.8,0.8,11,2.5,15.6c1.6,4.6,3.9,8.4,6.9,11.5c2.9,3.1,6.4,5.5,10.5,7.2
		C334.6,179,339,179.8,343.9,179.8z"/>
	<path class="st3" d="M397.6,193.7v-71.8h10.1c1.8,0,3,0.3,3.7,1c0.7,0.7,1.2,1.8,1.4,3.4l1,8.7c2.6-4.4,5.6-7.9,9-10.5
		c3.5-2.6,7.3-3.9,11.6-3.9c3.5,0,6.5,0.8,8.8,2.4l-2.2,13c-0.1,0.8-0.4,1.4-0.9,1.8c-0.5,0.3-1.1,0.5-1.9,0.5
		c-0.7,0-1.7-0.2-2.9-0.5c-1.2-0.3-2.8-0.5-4.8-0.5c-3.6,0-6.7,1-9.2,3c-2.6,2-4.7,4.9-6.5,8.7v44.7H397.6z"/>
	<path class="st3" d="M509.1,193.7h-7.8c-1.6,0-2.9-0.2-3.8-0.7c-0.9-0.5-1.6-1.5-2.1-3l-1.5-5.1c-1.8,1.6-3.6,3.1-5.4,4.3
		c-1.8,1.2-3.6,2.3-5.4,3.1c-1.9,0.8-3.9,1.5-6,1.9c-2.1,0.4-4.4,0.6-7,0.6c-3,0-5.8-0.4-8.4-1.2c-2.6-0.8-4.8-2-6.6-3.7
		c-1.8-1.6-3.3-3.7-4.3-6.1c-1-2.4-1.5-5.3-1.5-8.5c0-2.7,0.7-5.4,2.1-8c1.4-2.6,3.8-5,7.1-7.2c3.3-2.1,7.7-3.9,13.2-5.3
		c5.5-1.4,12.3-2.1,20.5-2.1v-4.2c0-4.8-1-8.4-3-10.8c-2-2.3-5-3.5-8.9-3.5c-2.8,0-5.1,0.3-7,1c-1.9,0.7-3.5,1.4-4.9,2.2
		c-1.4,0.8-2.6,1.6-3.8,2.2c-1.2,0.7-2.5,1-3.9,1c-1.2,0-2.2-0.3-3-0.9c-0.8-0.6-1.5-1.4-2-2.2l-3.1-5.5
		c8.3-7.6,18.2-11.3,29.9-11.3c4.2,0,7.9,0.7,11.2,2.1c3.3,1.4,6.1,3.3,8.4,5.7c2.3,2.5,4,5.4,5.2,8.8c1.2,3.4,1.8,7.1,1.8,11.2
		V193.7z M475.5,182.9c1.8,0,3.4-0.2,4.9-0.5c1.5-0.3,2.9-0.8,4.2-1.4s2.6-1.4,3.9-2.4c1.2-0.9,2.5-2.1,3.7-3.3v-12
		c-5,0-9.3,0.3-12.6,1s-6.1,1.4-8.2,2.4c-2.1,1-3.5,2.1-4.4,3.5c-0.9,1.3-1.3,2.7-1.3,4.3c0,3.1,0.9,5.2,2.7,6.6
		C470.2,182.3,472.6,182.9,475.5,182.9z"/>
	<path class="st3" d="M526.1,217.2v-95.3h10.6c1.1,0,2.1,0.3,2.9,0.8c0.8,0.5,1.3,1.3,1.5,2.4l1.4,6.6c2.9-3.3,6.2-6,10-8
		c3.8-2.1,8.2-3.1,13.2-3.1c3.9,0,7.5,0.8,10.7,2.4c3.2,1.6,6,4,8.4,7.1c2.4,3.1,4.2,6.9,5.5,11.5c1.3,4.6,1.9,9.8,1.9,15.6
		c0,5.4-0.7,10.3-2.2,14.9c-1.4,4.6-3.5,8.5-6.2,11.9c-2.7,3.4-5.9,6-9.7,7.9c-3.8,1.9-8.1,2.8-12.8,2.8c-4.1,0-7.5-0.6-10.3-1.9
		c-2.8-1.2-5.4-3-7.6-5.1v29.4H526.1z M559.7,134.2c-3.6,0-6.7,0.8-9.2,2.3c-2.5,1.5-4.9,3.7-7.1,6.4v32.2c2,2.4,4.1,4.1,6.4,5.1
		c2.3,1,4.8,1.4,7.5,1.4c2.6,0,5-0.5,7.1-1.5c2.1-1,3.9-2.5,5.4-4.5c1.5-2,2.6-4.5,3.4-7.6c0.8-3.1,1.2-6.7,1.2-10.8
		c0-4.2-0.3-7.8-1-10.7c-0.7-2.9-1.6-5.3-2.9-7.1s-2.8-3.1-4.6-4C564,134.6,561.9,134.2,559.7,134.2z"/>
	<path class="st3" d="M605.2,193.7v-104h17.3v40c2.8-2.7,5.9-4.8,9.2-6.4c3.4-1.6,7.3-2.4,11.8-2.4c3.9,0,7.4,0.7,10.4,2
		c3,1.3,5.6,3.2,7.6,5.6c2,2.4,3.6,5.3,4.6,8.6c1,3.3,1.6,7,1.6,11v45.7h-17.3V148c0-4.4-1-7.8-3-10.2c-2-2.4-5.1-3.6-9.1-3.6
		c-3,0-5.8,0.7-8.4,2c-2.6,1.4-5.1,3.2-7.4,5.5v51.9H605.2z"/>
	<path class="st3" d="M705.8,101c0,1.5-0.3,2.9-0.9,4.2c-0.6,1.3-1.4,2.4-2.4,3.4c-1,1-2.2,1.8-3.5,2.3c-1.4,0.6-2.8,0.9-4.3,0.9
		c-1.5,0-2.9-0.3-4.2-0.9c-1.3-0.6-2.5-1.4-3.5-2.3c-1-1-1.8-2.1-2.3-3.4c-0.6-1.3-0.9-2.7-0.9-4.2c0-1.5,0.3-3,0.9-4.3
		c0.6-1.4,1.4-2.5,2.3-3.5c1-1,2.1-1.8,3.5-2.3c1.3-0.6,2.7-0.9,4.2-0.9c1.5,0,3,0.3,4.3,0.9c1.4,0.6,2.5,1.4,3.5,2.3
		c1,1,1.8,2.1,2.4,3.5C705.5,98,705.8,99.4,705.8,101z M703.2,121.9v71.8h-17.3v-71.8H703.2z"/>
	<path class="st3" d="M783.9,121.9v95.3h-17.3v-32.5c-1.4,1.5-3,2.9-4.6,4.2c-1.6,1.2-3.3,2.3-5.1,3.2c-1.8,0.9-3.8,1.5-5.8,2
		c-2.1,0.5-4.3,0.7-6.6,0.7c-3.9,0-7.5-0.8-10.8-2.4c-3.3-1.6-6.1-4-8.4-7.1c-2.4-3.1-4.2-6.9-5.5-11.5c-1.3-4.6-1.9-9.8-1.9-15.7
		c0-5.3,0.7-10.3,2.2-14.8c1.4-4.6,3.5-8.5,6.2-11.9c2.7-3.4,6-6,9.7-7.9c3.8-1.9,8-2.8,12.7-2.8c2.2,0,4.3,0.2,6.1,0.6
		c1.8,0.4,3.5,1,5.1,1.7c1.6,0.7,3,1.6,4.3,2.7c1.3,1,2.6,2.2,3.8,3.5l0.9-4c0.2-1.1,0.7-1.9,1.5-2.4c0.8-0.5,1.8-0.8,2.9-0.8H783.9
		z M750.3,181c3.6,0,6.7-0.7,9.2-2.2c2.5-1.5,4.9-3.6,7.1-6.4v-32.2c-2-2.4-4.1-4.1-6.4-5c-2.3-1-4.8-1.5-7.5-1.5
		c-2.6,0-5,0.5-7.1,1.5c-2.1,1-3.9,2.5-5.4,4.4c-1.5,2-2.6,4.5-3.4,7.6c-0.8,3.1-1.2,6.7-1.2,10.8c0,4.2,0.3,7.8,1,10.7
		c0.7,2.9,1.6,5.3,2.9,7.1c1.3,1.8,2.8,3.2,4.6,4C746,180.6,748,181,750.3,181z"/>
	<path class="st3" d="M818.4,121.9v45.6c0,4.4,1,7.8,3,10.2c2,2.4,5.1,3.6,9.1,3.6c3,0,5.8-0.7,8.4-2c2.6-1.3,5.1-3.2,7.4-5.5v-51.9
		h17.3v71.8h-10.6c-2.2,0-3.7-1-4.4-3.1l-1.2-5.7c-1.5,1.5-3,2.9-4.6,4.1c-1.6,1.2-3.3,2.3-5.1,3.1c-1.8,0.9-3.7,1.5-5.8,2
		c-2.1,0.5-4.3,0.7-6.7,0.7c-3.9,0-7.4-0.7-10.4-2c-3-1.3-5.5-3.2-7.6-5.6c-2.1-2.4-3.6-5.3-4.7-8.6c-1-3.3-1.6-7-1.6-11v-45.6
		H818.4z"/>
	<path class="st3" d="M911.8,120.8c4.5,0,8.7,0.7,12.5,2.2c3.8,1.4,7.1,3.6,9.8,6.3c2.8,2.8,4.9,6.2,6.4,10.2
		c1.5,4,2.3,8.6,2.3,13.8c0,1.3-0.1,2.4-0.2,3.3c-0.1,0.9-0.3,1.5-0.6,2c-0.3,0.5-0.7,0.8-1.2,1s-1.2,0.3-2,0.3h-44.4
		c0.5,7.4,2.5,12.8,6,16.2c3.5,3.5,8,5.2,13.7,5.2c2.8,0,5.2-0.3,7.2-1c2-0.7,3.8-1.4,5.3-2.2c1.5-0.8,2.8-1.5,4-2.2
		c1.1-0.7,2.2-1,3.3-1c0.7,0,1.3,0.1,1.8,0.4c0.5,0.3,1,0.7,1.3,1.2l5,6.3c-1.9,2.2-4.1,4.1-6.4,5.6c-2.4,1.5-4.9,2.7-7.5,3.6
		c-2.6,0.9-5.2,1.6-7.9,1.9c-2.7,0.4-5.3,0.6-7.8,0.6c-5,0-9.6-0.8-13.9-2.5c-4.3-1.7-8-4.1-11.2-7.4c-3.2-3.2-5.7-7.3-7.5-12
		c-1.8-4.8-2.7-10.3-2.7-16.6c0-4.9,0.8-9.5,2.4-13.8c1.6-4.3,3.9-8.1,6.8-11.3c3-3.2,6.6-5.7,10.8-7.6
		C901.6,121.7,906.5,120.8,911.8,120.8z M912.2,133.2c-5,0-9,1.4-11.8,4.3c-2.8,2.8-4.7,6.9-5.5,12.1h32.5c0-2.2-0.3-4.4-0.9-6.3
		c-0.6-2-1.5-3.7-2.8-5.2c-1.3-1.5-2.8-2.7-4.8-3.5C917,133.6,914.7,133.2,912.2,133.2z"/>
</g>
</svg>
