<?xml version="1.0" encoding="utf-8"?>
<!-- Generator: Adobe Illustrator 24.3.0, SVG Export Plug-In . SVG Version: 6.00 Build 0)  -->
<svg version="1.1" id="Calque_1" xmlns="http://www.w3.org/2000/svg" xmlns:xlink="http://www.w3.org/1999/xlink" x="0px" y="0px"
	 viewBox="0 0 571.4 1000" style="enable-background:new 0 0 571.4 1000;" xml:space="preserve">
<style type="text/css">
	.st0{fill:#333333;}
</style>
<path class="st0" d="M571.4,392.9V625c0,29.6-24,53.6-53.5,53.6s-53.6-24-53.6-53.6V428.6h-35.7v508.9c0,34.6-27.9,62.5-62.5,62.5
	s-62.5-27.9-62.5-62.5V678.6h-35.7v258.9c0,34.6-27.9,62.5-62.5,62.5s-62.5-27.9-62.5-62.5V428.6h-35.8V625
	c0,29.6-24,53.6-53.5,53.6S0,654.6,0,625V392.9c0-59.2,48-107.2,107.1-107.2h357.2C523.4,285.7,571.4,333.7,571.4,392.9L571.4,392.9
	z M410.7,142.9c0,69.2-55.8,125-125,125s-125-55.8-125-125s55.8-125,125-125S410.7,73.7,410.7,142.9z"/>
</svg>
