<?xml version="1.0" encoding="utf-8"?>
<!-- Generator: Adobe Illustrator 23.0.2, SVG Export Plug-In . SVG Version: 6.00 Build 0)  -->
<svg version="1.1" id="Capa_1" xmlns="http://www.w3.org/2000/svg" xmlns:xlink="http://www.w3.org/1999/xlink" x="0px" y="0px"
	 viewBox="0 0 350 350" style="enable-background:new 0 0 350 350;" xml:space="preserve">
<style type="text/css">
	.st0{fill:#453C9E;}
	.st1{fill:#F0F6FF;}
	.st2{fill:#C4CCD6;}
	.st3{fill:#24126A;}
	.st4{fill:#FCD1C5;}
	.st5{fill:#E2B1A6;}
	.st6{fill:#AA8383;}
	.st7{fill:#936D6D;}
</style>
<g>
	<path class="st0" d="M226.1312866,151.6840057c-3.238327-3.0320587-11.8144531-16.4331512-14.4437408-20.5922241
		c-0.510025,1.1383362-0.9104767,2.0392914-1.0817566,2.5817108c-0.3384705,1.0719757-0.9871216,2.3522949-1.6658478,3.5343628
		c5.9789886,6.4079742,3.6534424,19.0837708-2.7419434,36.9335327c-1.173584,3.2756348-4.1282196,9.6725464-8.1530457,17.9050751
		l0.0023193-0.0015564c-0.0010376,0.0018005-0.0041199,0.0054016-0.0051422,0.0072021
		c-10.7332153,21.954071-29.124115,57.0365906-42.159729,81.6649628c-0.4436646,1.4207458-0.7319794,2.3103638-0.7319794,2.3103638
		l-6.5646057,11.4412842c-4.7238922,8.8803711-7.7433472,14.5142212-7.7433472,14.5142212
		s-10.9261017-32.1389465-7.3361969-64.4208984c0.0028381-0.0246887,0.0082397-0.0485992,0.0110626-0.073288
		c0.8273926-29.2727814,6.4478455-50.0411835,6.4478455-50.0411835l0.0046387-0.0108032
		c-2.8808289-0.723999-5.9386139-2.0773468-8.6141968-4.2853546c-5.6124802-4.6310425-6.1178665-18.4858093-7.6167908-21.1793976
		c-1.4984131-2.6933441-3.5706253-2.6311035-5.1678009-4.396225c-1.5969162-1.7651062-0.430542-7.4627228-0.430542-7.4627228
		c-1.1301041-3.7774048-3.0060806-12.9003296-3.7061615-19.8101044l-1.4117355,0.0069427
		c-10.5071411,0.052475-20.5953064,4.2876892-27.8692627,11.8705292
		c-3.7059097,3.8633118-8.1484146,8.2062836-12.9129333,12.2671204
		c0.7934418,37.6724548,8.2924423,74.3542175,22.9406586,104.3594818
		c36.8049545,75.3924866,104.6537094,80.1107178,151.5442505,10.5385132
		c13.7215576-20.3587036,24.1003418-44.8373718,31.0343018-71.1503601
		c-1.0395813-1.1167297-2.0930481-2.2226715-3.1966858-3.2846222
		C255.5128479,176.5829315,228.9542542,154.3274384,226.1312866,151.6840057z M214.9050293,223.5362396l-9.9150696-1.0496063
		l2.586853,13.1395111l-65.2973938,74.9583588l58.8094177-77.5223236l-1.9670105-14.7490387l10.9163361,1.1555786
		c2.8286133-8.9832611,16.3991852-55.5939941,16.3991852-55.5939941L214.9050293,223.5362396z"/>
	<path class="st1" d="M174.271759,211.4465942l-4.4654083-9.2595062l-10.1272583,9.3425751
		c0,0,2.7908173,7.9313354,4.7460022,19.0289917c1.6537476,9.3883514-6.1057892,35.3572083-8.5426941,43.1584167
		c13.035614-24.6283722,31.4265137-59.7108917,42.159729-81.6649628
		C196.537796,195.1116943,174.271759,211.4465942,174.271759,211.4465942z"/>
	<path class="st1" d="M145.2898712,188.0887604c0.0254669-0.0105438,0.0493774-0.0131226,0.0748444-0.023407
		c-1.6056671,0.0478363-3.4471741-0.1391449-5.3948975-0.6285858l-0.0046387,0.0108032
		c0,0-5.6204529,20.7684021-6.4478455,50.0411835c1.3052673-11.5066071,8.521347-21.9304047,11.429184-25.7258148
		C143.2135468,209.7732849,145.2898712,188.0887604,145.2898712,188.0887604z"/>
	<path class="st1" d="M148.5433655,287.5427856l-7.7008972,14.440155c0,0,3.019455-5.6338501,7.7433472-14.5142212
		L148.5433655,287.5427856L148.5433655,287.5427856z"/>
	<path class="st1" d="M206.6149139,143.7706604h0.0002441l0.0033569,0.3716431
		c1.3708344,30.8143921-42.4740295,43.2306824-42.4740295,43.2306824l-8.4521484-3.5238037
		c0,0-2.6735382,1.9698334-5.7341461,3.2205811c10.6378021-0.2875519,18.2957458,13.2243805,18.2957458,13.2243805
		c3.5341034,1.5009918,6.1963043,5.9139252,6.1963043,5.9139252c5.636673-1.842804,23.5679626-14.1436157,23.5947113-14.1616058
		c4.024826-8.2325287,6.9794617-14.6294403,8.1530457-17.9050751c6.3953857-17.849762,8.720932-30.5255585,2.7419434-36.9335327
		c-1.1339722,1.9749908-2.3520355,3.6763153-2.3520355,3.6763153L206.6149139,143.7706604z"/>
	<path class="st2" d="M155.1504211,276.0274353c0,0,0.2883148-0.8896179,0.7319794-2.3103638
		c-2.7025909,5.1058044-5.1732025,9.7597351-7.2965851,13.7516479L155.1504211,276.0274353z"/>
	<polygon class="st2" points="198.0472717,192.0449066 198.0449524,192.046463 198.0421295,192.0521088 	"/>
	<path class="st2" d="M168.2539368,200.2941437c0,0-6.3267059,7.4825439-10.0171814,10.4875946
		c1.4220123,5.4671783,3.5865631,17.9639587-0.6681976,33.6977997c-5.7588196,21.2974396-7.967865,41.0805206-7.967865,41.0805206
		l-1.0573273,1.9827271l0,0l0.04245-0.0740662c2.1233826-3.9919128,4.5939941-8.6458435,7.2965851-13.7516479
		c2.4369049-7.8012085,10.1964417-33.7700653,8.5426941-43.1584167
		c-1.9551849-11.0976562-4.7460022-19.0289917-4.7460022-19.0289917l10.1272583-9.3425751l4.4654083,9.2595062
		c0,0,22.266037-16.3348999,23.7703705-19.3944855c0.0010223-0.0020447,0.0018005-0.0038452,0.0028229-0.0056458
		c-0.0267487,0.0179901-17.9580383,12.3188019-23.5947113,14.1616058
		C174.4502411,206.2080688,171.7880402,201.7951355,168.2539368,200.2941437z"/>
	<path class="st3" d="M145.3647156,188.0653534c-0.0254669,0.0102844-0.0493774,0.0128632-0.0748444,0.023407
		c0,0-2.0763245,21.6845245-0.3433533,23.6741791c0.7484283-0.9770813,1.2257843-1.5375061,1.2257843-1.5375061
		l11.1498718-2.4502869c0,0,0.119339,0.3155823,0.2993622,0.8706055c2.7244568-3.3880157,8.0609741-9.4431305,10.6324005-8.3516083
		c0,0-7.6579437-13.5119324-18.2957458-13.2243805c-0.6278076,0.2564087-1.2651367,0.4932861-1.9065704,0.6651001
		C147.2944336,187.9377899,146.3657074,188.0352631,145.3647156,188.0653534z"/>
	<path class="st3" d="M157.6215363,208.645752c0.1630707,0.5022888,0.3762817,1.217804,0.6152191,2.1359863
		c3.6904755-3.0050507,10.0171814-10.4875946,10.0171814-10.4875946
		C165.6825104,199.2026215,160.345993,205.2577362,157.6215363,208.645752z"/>
	<path class="st3" d="M133.517334,237.4887543c-0.0028229,0.0246887-0.0082245,0.0485992-0.0110626,0.073288
		c-3.5899048,32.2819519,7.3361969,64.4208984,7.3361969,64.4208984
		C134.4607239,279.1186523,132.979538,256.5126038,133.517334,237.4887543z"/>
	<path class="st3" d="M145.4825134,280.316925l8.8094025-48.6415253l1.5351868-19.4749756
		c-3.4577179,1.2772217-9.1746216,1.068634-10.8288879-0.3466949c-0.0198059-0.016983-0.0329285-0.0691833-0.0516968-0.0907898
		c-2.9078369,3.7954102-10.1239166,14.2192078-11.429184,25.7258148
		c-0.537796,19.0238495,0.9433899,41.6298981,7.3251343,64.4941864l7.7008972-14.440155L145.4825134,280.316925z"/>
	<path class="st3" d="M155.8271027,212.2004242l-1.5351868,19.4749756l-8.8094025,48.6415253l3.0608521,7.2258606
		l1.0573273-1.9827271c0,0,2.2090454-19.7830811,7.967865-41.0805206c4.2547607-15.7338409,2.09021-28.2306213,0.6681976-33.6977997
		c-0.4969025,0.4048309-0.9547119,0.7425232-1.3338165,0.9549561
		C156.5855713,211.9146729,156.2087708,212.0594788,155.8271027,212.2004242z"/>
	<path class="st3" d="M157.6215363,208.645752c-0.1800232-0.5550232-0.2993622-0.8706055-0.2993622-0.8706055l-11.1498718,2.4502869
		c0,0-0.477356,0.5604248-1.2257843,1.5375061c0.0187683,0.0216064,0.0318909,0.0738068,0.0516968,0.0907898
		c1.6542664,1.415329,7.37117,1.6239166,10.8288879,0.3466949l0.1087952-1.3798523
		C155.9358978,210.8205719,156.6012573,209.9144897,157.6215363,208.645752z"/>
	<path class="st3" d="M155.9358978,210.8205719l-0.1087952,1.3798523c0.3816681-0.1409454,0.7584686-0.2857513,1.0758362-0.4637299
		c0.3791046-0.2124329,0.8369141-0.5501251,1.3338165-0.9549561c-0.2389374-0.9181824-0.4521484-1.6336975-0.6152191-2.1359863
		C156.6012573,209.9144897,155.9358978,210.8205719,155.9358978,210.8205719z"/>
	<path class="st4" d="M197.1529999,129.8909454l13.7351837-0.0684204c0,0,0.3076019,0.4915009,0.7993622,1.2692566
		c2.1825409-4.8704834,6.3894653-14.1238022,3.413208-18.5992279
		C201.5049744,111.6530685,198.0128021,124.6104965,197.1529999,129.8909454z"/>
	<path class="st4" d="M188.9608612,129.359314l-1.5768433-9.2846909l-7.9552765-3.3867264
		c-1.7123871-0.7291412-2.9600372-2.1876907-3.4487-3.9178314c-0.1630707-0.5766296-0.2415161-1.183609-0.2250519-1.8037033
		l0.2546234-9.5457458c0.0812683-3.0667801-1.8255615-5.82827-4.7336578-6.806633
		c-6.2924957-2.1169662-17.8237762-4.4903488-29.3591766,0.8700867
		c-17.1152267,7.9529419-26.1188126,5.4977722-26.1188126,5.4977722c-1.3314896-1.0899887-2.4580002-2.2471008-3.403183-3.4574585
		c-0.2924347,1.512558-2.6146317,13.7418671-1.6995392,16.1867523c0.9760513,2.6066589,4.4527969,4.3517151,3.6045685,9.7075195
		c-0.2474213,1.5614243-0.1535416,4.0402603,0.1345139,6.8843079l74.6908875-0.3721619
		C189.0665741,129.7420197,188.9950714,129.5604401,188.9608612,129.359314z"/>
	<path class="st4" d="M118.5710297,157.5757904c1.5971756,1.7651215,3.6693878,1.7028809,5.1678009,4.396225
		c1.4989243,2.6935883,2.0043106,16.5483551,7.6167908,21.1793976c2.6755829,2.2080078,5.7333679,3.5613556,8.6141968,4.2853546
		l9.7278442-23.5314331c0,0,26.1280518-16.2350922,43.8389435-23.7623901
		c0.8032074-3.7388306,1.3831787-6.0741425,1.7736053-7.4871674l-0.446228,0.1594543
		c-0.3269043,0.1167755-0.657135,0.193161-0.985321,0.2319946c-0.6566162,0.0779266-1.3062744,0.005661-1.9088898-0.193161
		c-0.6026001-0.1985474-1.1581421-0.5238953-1.626236-0.9521332c-0.5647888-0.5164337-0.9778442-1.1961975-1.2183228-1.9711304
		l-74.6908875,0.3721619c0.7000809,6.9097748,2.5760574,16.0326996,3.7061615,19.8101044
		C118.1404877,150.1130676,116.9741135,155.8106842,118.5710297,157.5757904z"/>
	<path class="st4" d="M197.1529999,129.8909454c-0.2178345,1.3368835-0.2751923,2.2044067-0.2751923,2.2044067l-1.0223541,0.3654633
		c-0.0560608,1.7584381,0.0097809,4.3977661,0.6859436,6.4586639c6.1315002-2.3721008,10.8522949-3.3695068,12.3982849-1.7121429
		l0.0002594,0.0005188c0.6787262-1.1820679,1.3273773-2.4623871,1.6658478-3.5343628
		c0.1712799-0.5424194,0.5717316-1.4433746,1.0817566-2.5817108c-0.4917603-0.7777557-0.7993622-1.2692566-0.7993622-1.2692566
		L197.1529999,129.8909454z"/>
	<path class="st4" d="M196.5413971,138.9194794c0.645813,1.9690704,1.8481903,3.4083252,4.0513153,3.0204773
		c1.7015991-0.2996368,3.8378448,0.5236511,6.0222015,1.8307037l-0.0270081-2.8864899c0,0,1.2180634-1.7013245,2.3520355-3.6763153
		l-0.0002594-0.0005188C207.393692,135.5499725,202.6728973,136.5473785,196.5413971,138.9194794z"/>
	<path class="st4" d="M145.3647156,188.0653534c1.5802002-0.6460724,3.1156464-0.9554749,4.5934753-0.9955902
		c3.0606079-1.2507477,5.7341461-3.2205811,5.7341461-3.2205811s33.048111-19.2481384,36.1097565-35.1409149
		c0.6705017-3.4800873,1.2422333-6.273468,1.7345123-8.5653229c-17.7108917,7.527298-43.8389435,23.7623901-43.8389435,23.7623901
		l-9.7278442,23.5314331C141.9175415,187.9262085,143.7590485,188.1131897,145.3647156,188.0653534z"/>
	<path class="st4" d="M148.0516205,187.7348633c0.6414337-0.171814,1.2787628-0.4086914,1.9065704-0.6651001
		c-1.477829,0.0401154-3.0132751,0.3495178-4.5934753,0.9955902
		C146.3657074,188.0352631,147.2944336,187.9377899,148.0516205,187.7348633z"/>
	<polygon class="st5" points="206.6151581,143.7706604 206.6149139,143.7706604 206.618515,144.1423035 	"/>
	<path class="st5" d="M195.8554535,132.4608154l-0.5452423,0.1949615c-0.3904266,1.4130249-0.9703979,3.7483368-1.7736053,7.4871674
		c1.0323792-0.4387665,2.0361938-0.848999,3.0047913-1.223465
		C195.8652344,136.8585815,195.7993927,134.2192535,195.8554535,132.4608154z"/>
	<path class="st5" d="M155.692337,183.8491821l8.4521484,3.5238037c0,0,43.8448639-12.4162903,42.4740295-43.2306824
		l-0.0036011-0.3716431c-2.1843567-1.3070526-4.3206024-2.1303406-6.0222015-1.8307037
		c-2.203125,0.3878479-3.4055023-1.0514069-4.0513153-3.0204773c-0.9685974,0.3744659-1.9724121,0.7846985-3.0047913,1.223465
		c-0.4922791,2.2918549-1.0640106,5.0852356-1.7345123,8.5653229
		C188.740448,164.6010437,155.692337,183.8491821,155.692337,183.8491821z"/>
	<path class="st6" d="M216.5091553,108.9077835c-0.2024078,0.566597-0.3924866,1.0791855-0.5614624,1.517189
		C216.1195068,109.9818268,216.3026276,109.4846725,216.5091553,108.9077835z"/>
	<path class="st6" d="M218.4566193,102.5844193c-0.2715912,1.0274887-0.5457611,1.9976196-0.8158112,2.8867416
		C217.9123993,104.5797272,218.1834869,103.6157608,218.4566193,102.5844193z"/>
	<path class="st6" d="M220.8323212,89.0398178c-0.1219025,1.3873062-0.2780304,2.7344818-0.4613953,4.0376892
		C220.555069,91.7719879,220.7104187,90.4294357,220.8323212,89.0398178z"/>
	<path class="st6" d="M215.2751312,112.0957031c-0.0977325,0.2260742-0.1743774,0.3968506-0.1743774,0.3968506
		S215.1671143,112.3459473,215.2751312,112.0957031z"/>
	<path class="st6" d="M215.775116,110.8735123c-0.1612549,0.4076538-0.2983398,0.7427826-0.4053345,0.9953461
		C215.4783173,111.613205,215.6084595,111.2937698,215.775116,110.8735123z"/>
	<path class="st6" d="M217.418335,106.182045c-0.2358551,0.7494583-0.4662933,1.4541702-0.6836243,2.0817261
		C216.954361,107.6315842,217.1799164,106.9387054,217.418335,106.182045z"/>
	<path class="st6" d="M179.6872253,41.3969765c32.6504974,2.5194702,38.3581543,29.5006447,38.0250854,49.4825478
		c1.0537109-0.7291412,2.1071777-1.4690933,3.1516418-2.2959671c0.8119659-9.9410553-0.1831207-21.7858582-6.1024323-33.2096405
		c-14.1371765-27.2838898-52.8821411-25.3400192-61.1444855-22.2439194
		c-10.8713226,4.0739479-9.3569641,3.4687729-15.589798,7.3217926c-10.885994,6.7305069-19.9145203,16.2289314-25.369606,27.8070221
		c-4.4890594,9.5277481-6.9218521,20.7367706-0.2628479,29.2655716c0.0192871-0.1003036,0.0298309-0.1540604,0.0298309-0.1540604
		C119.3966217,74.072937,127.28862,37.3538895,179.6872253,41.3969765z"/>
	<path class="st6" d="M220.292984,93.6901398c-0.4619141,3.1081848-1.0701752,5.9470901-1.7085266,8.4246368
		C219.2253723,99.6341476,219.8295288,96.8044968,220.292984,93.6901398z"/>
	<path class="st6" d="M115.797966,100.981842c0,0,9.0035858,2.4551697,26.1188126-5.4977722
		c11.5354004-5.3604355,23.0666809-2.9870529,29.3591766-0.8700867c2.9080963,0.978363,4.8149261,3.7398529,4.7336578,6.806633
		c0,0,21.3990479,3.5101776,41.7026978-10.5410919c0.3330688-19.9819031-5.374588-46.9630775-38.0250854-49.4825478
		c-52.3986053-4.043087-60.2906036,32.6759605-67.2626114,55.9733467c0,0-0.0105438,0.0537567-0.0298309,0.1540604
		C113.3399658,98.7347412,114.4664764,99.8918533,115.797966,100.981842z"/>
	<path class="st6" d="M175.9800415,112.7700653c0.4886627,1.7301407,1.7363129,3.1886902,3.4487,3.9178314l7.9552765,3.3867264
		l-7.9552765-3.3872375C177.7163544,115.9582367,176.4687042,114.500206,175.9800415,112.7700653z"/>
	<path class="st6" d="M191.9697723,132.8540649c-0.6026001-0.1985474-1.1581421-0.5238953-1.626236-0.9521332
		C190.8116302,132.3301697,191.3671722,132.6555176,191.9697723,132.8540649z"/>
	<path class="st6" d="M191.9697723,132.8540649c0.6026154,0.198822,1.2522736,0.2710876,1.9088898,0.193161
		C193.2220459,133.1248932,192.5723877,133.052887,191.9697723,132.8540649z"/>
	<path class="st7" d="M218.5844574,102.1147766c-0.04245,0.1638336-0.0853882,0.3086395-0.1278381,0.4696426
		C218.4995728,102.4221268,218.5417633,102.2804108,218.5844574,102.1147766z"/>
	<path class="st7" d="M217.6408081,105.4711609c-0.0751038,0.2466507-0.148407,0.4758072-0.2224731,0.7108841
		C217.4936981,105.9420776,217.5644226,105.7226944,217.6408081,105.4711609z"/>
	<path class="st7" d="M220.3709259,93.077507c-0.0283051,0.2006073-0.0483551,0.4138184-0.0779419,0.6126328
		C220.3228302,93.4908142,220.3423767,93.2791443,220.3709259,93.077507z"/>
	<path class="st7" d="M220.8863373,88.5670929c-0.0074615,0.0059204-0.0149231,0.0105438-0.0223846,0.0164642
		c-0.0123444,0.1504593-0.0185089,0.306572-0.0316315,0.4562607
		C220.8464661,88.8775253,220.8729553,88.7304153,220.8863373,88.5670929z"/>
	<path class="st7" d="M215.3697815,111.8688583c-0.027771,0.0653229-0.0712433,0.1725769-0.0946503,0.2268448
		C215.304718,112.0272903,215.332489,111.9573288,215.3697815,111.8688583z"/>
	<path class="st7" d="M216.7347107,108.2637711c-0.0763855,0.2201538-0.1522522,0.4397964-0.2255554,0.6440125
		C216.585022,108.6958542,216.6555023,108.4929276,216.7347107,108.2637711z"/>
	<path class="st7" d="M215.9476929,110.4249725c-0.0570831,0.1476288-0.1201019,0.3166046-0.1725769,0.4485397
		C215.8314514,110.7315445,215.8859711,110.5849457,215.9476929,110.4249725z"/>
	<path class="st7" d="M215.1007538,112.4925537c0,0,0.0766449-0.1707764,0.1743774-0.3968506
		c0.023407-0.0542679,0.0668793-0.1615219,0.0946503-0.2268448c0.1069946-0.2525635,0.2440796-0.5876923,0.4053345-0.9953461
		c0.052475-0.1319351,0.1154938-0.3009109,0.1725769-0.4485397c0.1689758-0.4380035,0.3590546-0.950592,0.5614624-1.517189
		c0.0733032-0.204216,0.1491699-0.4238586,0.2255554-0.6440125c0.2173309-0.6275558,0.4477692-1.3322678,0.6836243-2.0817261
		c0.0740662-0.2350769,0.1473694-0.4642334,0.2224731-0.7108841c0.27005-0.889122,0.54422-1.8592529,0.8158112-2.8867416
		c0.04245-0.1610031,0.0853882-0.305809,0.1278381-0.4696426c0.6383514-2.4775467,1.2466125-5.316452,1.7085266-8.4246368
		c0.0295868-0.1988144,0.0496368-0.4120255,0.0779419-0.6126328c0.1833649-1.3032074,0.3394928-2.650383,0.4613953-4.0376892
		c0.0131226-0.1496887,0.0192871-0.3058014,0.0316315-0.4562607c-1.0444641,0.8268738-2.0979309,1.5668259-3.1516418,2.2959671
		C217.5106659,102.9653168,215.1007538,112.4925537,215.1007538,112.4925537z"/>
	<path class="st7" d="M176.009613,101.4206161l-0.2546234,9.5457458c-0.0164642,0.6200943,0.0619812,1.2270737,0.2250519,1.8037033
		c0.4886627,1.7301407,1.7363129,3.1881714,3.4487,3.9173203l7.9552765,3.3872375l1.5768433,9.2846909
		c0.0342102,0.2011261,0.1057129,0.3827057,0.1643524,0.5714874l8.0277863-0.039856
		c0.8598022-5.2804489,4.3519745-18.2378769,17.9477539-17.3983917c0,0,2.4099121-9.5272369,2.611557-21.6130295
		C197.4086609,104.9307938,176.009613,101.4206161,176.009613,101.4206161z"/>
	<path class="st7" d="M195.8554535,132.4608154l1.0223541-0.3654633c0,0,0.0573578-0.8675232,0.2751923-2.2044067
		l-8.0277863,0.039856c0.2404785,0.7749329,0.6535339,1.4546967,1.2183228,1.9711304
		c0.4680939,0.4282379,1.0236359,0.7535858,1.626236,0.9521332c0.6026154,0.198822,1.2522736,0.2708282,1.9088898,0.193161
		c0.328186-0.0388336,0.6584167-0.1152191,0.985321-0.2319946l0.446228-0.1594543
		c0.4632111-1.6763916,0.6658783-2.095108,0.6658783-2.095108S195.8917236,131.3273621,195.8554535,132.4608154z"/>
	<path class="st7" d="M195.9760895,130.5606689c0,0-0.2026672,0.4187164-0.6658783,2.095108l0.5452423-0.1949615
		C195.8917236,131.3273621,195.9760895,130.5606689,195.9760895,130.5606689z"/>
	<path class="st3" d="M199.1218262,218.3131409l1.9670105,14.7490387l-58.8094177,77.5223236l65.2973938-74.9583588
		l-2.586853-13.1395111l9.9150696,1.0496063l11.5323181-59.6615143c0,0-13.5705719,46.610733-16.3991852,55.5939941
		L199.1218262,218.3131409z"/>
</g>
</svg>
