<?xml version="1.0" encoding="utf-8"?>
<!-- Generator: Adobe Illustrator 24.3.0, SVG Export Plug-In . SVG Version: 6.00 Build 0)  -->
<svg version="1.1" id="Calque_1" xmlns="http://www.w3.org/2000/svg" xmlns:xlink="http://www.w3.org/1999/xlink" x="0px" y="0px"
	 viewBox="0 0 1873.4 292" style="enable-background:new 0 0 1873.4 292;" xml:space="preserve">
<style type="text/css">
	.st0{fill:url(#SVGID_1_);}
	.st1{fill:url(#SVGID_2_);}
	.st2{fill:#FFFFFF;}
	.st3{fill:#333333;}
</style>
<g>
	
		<linearGradient id="SVGID_1_" gradientUnits="userSpaceOnUse" x1="2265.3" y1="-934" x2="2265.3" y2="-642" gradientTransform="matrix(-1 0 0 -1 3202 -642)">
		<stop  offset="0" style="stop-color:#BBBBBB"/>
		<stop  offset="1" style="stop-color:#DCDCDC"/>
	</linearGradient>
	<path class="st0" d="M25,282c-8,0-15-7-15-15V25c0-8,7-15,15-15h1823.5c8,0,15,7,15,15v242c0,8-7,15-15,15H25z M1848.4,292
		c14,0,25-11,25-25V25c0-14-11-25-25-25H25C11,0,0,11,0,25v242c0,14,11,25,25,25H1848.4z"/>
</g>
<linearGradient id="SVGID_2_" gradientUnits="userSpaceOnUse" x1="2266.1499" y1="694" x2="2266.1499" y2="422" gradientTransform="matrix(-1 0 0 1 3202 -412)">
	<stop  offset="0" style="stop-color:#E8E8E8"/>
	<stop  offset="1" style="stop-color:#F9F9F9"/>
</linearGradient>
<path class="st1" d="M24.1,282c-8,0-15-7-15-15V25c0-8,7-15,15-15h1823.5c8,0,15,7,15,15v242c0,8-7,15-15,15H24.1z"/>
<g>
	<path class="st2" d="M403.7,102.3v15.5h-30.4v85.8h-18.8v-85.8h-30.6v-15.5H403.7z"/>
	<path class="st2" d="M431.1,130.6c5.4,0,10.2,0.9,14.6,2.6c4.4,1.7,8.1,4.2,11.2,7.3c3.1,3.2,5.5,7,7.1,11.6
		c1.7,4.6,2.5,9.7,2.5,15.3c0,5.7-0.8,10.8-2.5,15.4c-1.7,4.6-4.1,8.5-7.1,11.7s-6.8,5.7-11.2,7.4c-4.4,1.7-9.2,2.6-14.6,2.6
		s-10.2-0.9-14.6-2.6s-8.1-4.2-11.2-7.4s-5.5-7.1-7.2-11.7c-1.7-4.6-2.6-9.7-2.6-15.4c0-5.6,0.9-10.8,2.6-15.3
		c1.7-4.6,4.1-8.4,7.2-11.6c3.1-3.2,6.8-5.6,11.2-7.3S425.7,130.6,431.1,130.6z M431.1,191.3c6,0,10.4-2,13.3-6s4.3-9.9,4.3-17.6
		c0-7.7-1.4-13.6-4.3-17.7c-2.9-4.1-7.3-6.1-13.3-6.1c-6.1,0-10.5,2-13.4,6.1s-4.3,10-4.3,17.7s1.4,13.6,4.3,17.6
		C420.6,189.2,425,191.3,431.1,191.3z"/>
	<path class="st2" d="M495.9,131.7v45.6c0,4.4,1,7.8,3,10.2s5.1,3.6,9.1,3.6c3,0,5.8-0.7,8.4-2s5.1-3.2,7.4-5.5v-51.9h17.3v71.8
		h-10.6c-2.2,0-3.7-1-4.4-3.2l-1.2-5.7c-1.5,1.5-3,2.9-4.6,4.1c-1.6,1.2-3.3,2.3-5.1,3.2s-3.7,1.5-5.8,2c-2.1,0.5-4.3,0.7-6.7,0.7
		c-3.9,0-7.4-0.7-10.4-2s-5.5-3.2-7.6-5.6c-2.1-2.4-3.6-5.3-4.7-8.6c-1-3.3-1.6-7-1.6-11v-45.6L495.9,131.7L495.9,131.7z"/>
	<path class="st2" d="M583.2,204.6c-6.2,0-11-1.8-14.3-5.3c-3.4-3.5-5-8.4-5-14.6v-40.1h-7.3c-0.9,0-1.7-0.3-2.4-0.9
		c-0.7-0.6-1-1.5-1-2.7v-6.9l11.5-1.9l3.6-19.6c0.2-0.9,0.6-1.7,1.3-2.2s1.5-0.8,2.6-0.8h9v22.6H600v12.3h-18.9v38.9
		c0,2.2,0.6,4,1.7,5.2s2.6,1.9,4.5,1.9c1.1,0,2-0.1,2.7-0.4c0.7-0.3,1.4-0.5,1.9-0.8s1-0.5,1.4-0.8s0.8-0.4,1.3-0.4s0.9,0.1,1.3,0.4
		c0.3,0.3,0.7,0.6,1.1,1.2l5.2,8.4c-2.5,2.1-5.4,3.7-8.7,4.8C590.1,204.1,586.7,204.6,583.2,204.6z"/>
	<path class="st2" d="M640.8,203.5v-71.8h10.6c2.2,0,3.7,1.1,4.4,3.2l1.1,5.3c1.3-1.4,2.6-2.7,4-3.9s2.8-2.2,4.4-3
		c1.6-0.8,3.2-1.5,5-2s3.8-0.7,5.9-0.7c4.5,0,8.2,1.2,11.2,3.7c2.9,2.4,5.1,5.7,6.5,9.8c1.1-2.4,2.5-4.4,4.2-6.1
		c1.7-1.7,3.5-3.1,5.5-4.2c2-1.1,4.1-1.9,6.4-2.4c2.3-0.5,4.5-0.8,6.8-0.8c4,0,7.5,0.6,10.6,1.8s5.7,3,7.8,5.3s3.7,5.2,4.8,8.5
		c1.1,3.4,1.6,7.2,1.6,11.5v45.7h-17.3v-45.7c0-4.6-1-8-3-10.3s-4.9-3.5-8.8-3.5c-1.8,0-3.4,0.3-4.9,0.9s-2.8,1.5-4,2.6
		c-1.1,1.1-2,2.6-2.7,4.3s-1,3.7-1,6v45.7h-17.4v-45.7c0-4.8-1-8.3-2.9-10.5s-4.8-3.3-8.6-3.3c-2.5,0-4.8,0.6-7,1.9
		s-4.2,2.9-6.1,5.1v52.6H640.8z"/>
	<path class="st2" d="M815,203.5h-7.8c-1.6,0-2.9-0.2-3.8-0.7c-0.9-0.5-1.6-1.5-2.1-3l-1.5-5.1c-1.8,1.6-3.6,3.1-5.4,4.3
		s-3.6,2.3-5.4,3.1c-1.9,0.8-3.9,1.5-6,1.9s-4.4,0.6-7,0.6c-3,0-5.8-0.4-8.4-1.2c-2.6-0.8-4.8-2-6.6-3.7c-1.8-1.6-3.3-3.7-4.3-6.1
		c-1-2.4-1.5-5.3-1.5-8.5c0-2.7,0.7-5.4,2.1-8c1.4-2.6,3.8-5,7.1-7.2c3.3-2.1,7.7-3.9,13.2-5.3c5.5-1.4,12.3-2.1,20.5-2.1v-4.2
		c0-4.8-1-8.4-3-10.8c-2-2.3-5-3.5-8.9-3.5c-2.8,0-5.1,0.3-7,1s-3.5,1.4-4.9,2.2s-2.6,1.6-3.8,2.2c-1.2,0.7-2.5,1-3.9,1
		c-1.2,0-2.2-0.3-3-0.9c-0.8-0.6-1.5-1.4-2-2.2l-3.1-5.5c8.3-7.6,18.2-11.3,29.9-11.3c4.2,0,7.9,0.7,11.2,2.1
		c3.3,1.4,6.1,3.3,8.4,5.7s4,5.4,5.2,8.8c1.2,3.4,1.8,7.1,1.8,11.2V203.5z M781.4,192.7c1.8,0,3.4-0.2,4.9-0.5s2.9-0.8,4.2-1.4
		c1.3-0.6,2.6-1.4,3.9-2.4c1.2-0.9,2.5-2.1,3.7-3.3v-12c-5,0-9.3,0.3-12.6,1c-3.4,0.6-6.1,1.4-8.2,2.4c-2.1,1-3.5,2.1-4.4,3.5
		c-0.9,1.3-1.3,2.7-1.3,4.3c0,3.1,0.9,5.2,2.7,6.6C776.1,192.1,778.5,192.7,781.4,192.7z"/>
	<path class="st2" d="M832,203.5v-71.8h10.1c1.8,0,3,0.3,3.7,1s1.2,1.8,1.4,3.4l1,8.7c2.6-4.4,5.6-7.9,9-10.5
		c3.5-2.6,7.3-3.9,11.6-3.9c3.5,0,6.5,0.8,8.8,2.5l-2.2,13c-0.1,0.8-0.4,1.4-0.9,1.8c-0.5,0.3-1.1,0.5-1.9,0.5
		c-0.7,0-1.7-0.2-2.9-0.5s-2.8-0.5-4.8-0.5c-3.6,0-6.7,1-9.2,3c-2.6,2-4.7,4.9-6.5,8.7v44.7L832,203.5L832,203.5z"/>
	<path class="st2" d="M950.3,131.7V227H933v-32.5c-1.4,1.5-3,2.9-4.6,4.2c-1.6,1.2-3.3,2.3-5.1,3.2s-3.8,1.5-5.8,2
		c-2.1,0.5-4.3,0.7-6.6,0.7c-3.9,0-7.5-0.8-10.8-2.5c-3.3-1.6-6.1-4-8.4-7.1c-2.4-3.1-4.2-6.9-5.5-11.5s-1.9-9.8-1.9-15.7
		c0-5.3,0.7-10.3,2.2-14.8c1.4-4.6,3.5-8.5,6.2-11.9s6-6,9.7-7.9c3.8-1.9,8-2.8,12.7-2.8c2.2,0,4.3,0.2,6.1,0.6s3.5,1,5.1,1.7
		s3,1.6,4.3,2.7s2.6,2.2,3.8,3.5l0.9-4c0.2-1.1,0.7-1.9,1.5-2.4s1.8-0.8,2.9-0.8H950.3z M916.7,190.8c3.6,0,6.7-0.7,9.2-2.2
		s4.9-3.6,7.1-6.4V150c-2-2.4-4.1-4.1-6.4-5c-2.3-1-4.8-1.5-7.5-1.5c-2.6,0-5,0.5-7.1,1.5s-3.9,2.5-5.4,4.4c-1.5,2-2.6,4.5-3.4,7.6
		c-0.8,3.1-1.2,6.7-1.2,10.8c0,4.2,0.3,7.8,1,10.7s1.6,5.3,2.9,7.1c1.3,1.8,2.8,3.2,4.6,4S914.5,190.8,916.7,190.8z"/>
	<path class="st2" d="M984.8,131.7v45.6c0,4.4,1,7.8,3,10.2s5.1,3.6,9.1,3.6c3,0,5.8-0.7,8.4-2s5.1-3.2,7.4-5.5v-51.9h17.3v71.8
		h-10.6c-2.2,0-3.7-1-4.4-3.2l-1.2-5.7c-1.5,1.5-3,2.9-4.6,4.1c-1.6,1.2-3.3,2.3-5.1,3.2s-3.7,1.5-5.8,2s-4.3,0.7-6.7,0.7
		c-3.9,0-7.4-0.7-10.4-2s-5.5-3.2-7.6-5.6c-2.1-2.4-3.6-5.3-4.7-8.6c-1-3.3-1.6-7-1.6-11v-45.6L984.8,131.7L984.8,131.7z"/>
	<path class="st2" d="M1078.2,130.6c4.5,0,8.7,0.7,12.5,2.2c3.8,1.4,7.1,3.6,9.8,6.3c2.8,2.8,4.9,6.2,6.4,10.2s2.3,8.6,2.3,13.8
		c0,1.3-0.1,2.4-0.2,3.3c-0.1,0.9-0.3,1.5-0.6,2c-0.3,0.5-0.7,0.8-1.2,1.1s-1.2,0.3-2,0.3H1061c0.5,7.4,2.5,12.8,6,16.2
		c3.5,3.5,8,5.2,13.7,5.2c2.8,0,5.2-0.3,7.2-1s3.8-1.4,5.3-2.2s2.8-1.5,4-2.2c1.1-0.7,2.2-1,3.3-1c0.7,0,1.3,0.1,1.8,0.4
		c0.5,0.3,1,0.7,1.3,1.2l5,6.3c-1.9,2.2-4.1,4.1-6.4,5.6c-2.4,1.5-4.9,2.7-7.5,3.6c-2.6,0.9-5.2,1.6-7.9,1.9
		c-2.7,0.4-5.3,0.6-7.8,0.6c-5,0-9.6-0.8-13.9-2.5s-8-4.1-11.2-7.4c-3.2-3.2-5.7-7.3-7.5-12c-1.8-4.8-2.7-10.3-2.7-16.6
		c0-4.9,0.8-9.5,2.4-13.8s3.9-8.1,6.8-11.3c3-3.2,6.6-5.7,10.8-7.6C1068.1,131.5,1072.9,130.6,1078.2,130.6z M1078.6,143
		c-5,0-9,1.4-11.8,4.3c-2.8,2.8-4.7,6.9-5.5,12.1h32.5c0-2.2-0.3-4.4-0.9-6.3c-0.6-2-1.5-3.7-2.8-5.2s-2.8-2.7-4.8-3.5
		C1083.4,143.4,1081.2,143,1078.6,143z"/>
	<path class="st2" d="M1123.4,203.5v-71.8h10.1c1.8,0,3,0.3,3.7,1s1.2,1.8,1.4,3.4l1,8.7c2.6-4.4,5.6-7.9,9-10.5
		c3.5-2.6,7.3-3.9,11.6-3.9c3.5,0,6.5,0.8,8.8,2.5l-2.2,13c-0.1,0.8-0.4,1.4-0.9,1.8c-0.5,0.3-1.1,0.5-1.9,0.5
		c-0.7,0-1.7-0.2-2.9-0.5c-1.2-0.3-2.8-0.5-4.8-0.5c-3.6,0-6.7,1-9.2,3c-2.6,2-4.7,4.9-6.5,8.7v44.7L1123.4,203.5L1123.4,203.5z"/>
	<path class="st2" d="M1258.1,146.9c-0.5,0.7-1,1.2-1.5,1.5c-0.5,0.4-1.2,0.6-2.1,0.6s-1.8-0.3-2.6-0.8c-0.8-0.5-1.8-1.1-3-1.8
		s-2.6-1.3-4.2-1.8s-3.6-0.8-6-0.8c-3,0-5.7,0.5-8,1.6s-4.2,2.7-5.7,4.7c-1.5,2.1-2.6,4.5-3.4,7.5c-0.7,2.9-1.1,6.2-1.1,9.9
		c0,3.8,0.4,7.2,1.2,10.2c0.8,3,2,5.5,3.5,7.5s3.4,3.6,5.6,4.6s4.7,1.6,7.4,1.6c2.8,0,5-0.3,6.7-1s3.1-1.4,4.3-2.2
		c1.2-0.8,2.2-1.6,3-2.2c0.9-0.7,1.8-1,2.9-1c1.4,0,2.5,0.5,3.2,1.6l5,6.3c-1.9,2.2-4,4.1-6.2,5.6s-4.6,2.7-7,3.6
		c-2.4,0.9-4.9,1.6-7.5,1.9c-2.6,0.4-5.1,0.6-7.6,0.6c-4.4,0-8.6-0.8-12.5-2.5s-7.3-4.1-10.3-7.2c-2.9-3.2-5.2-7.1-6.9-11.7
		c-1.7-4.6-2.6-9.8-2.6-15.7c0-5.3,0.8-10.2,2.3-14.7s3.7-8.4,6.7-11.7c2.9-3.3,6.6-5.9,10.9-7.7s9.3-2.8,15-2.8
		c5.4,0,10.1,0.9,14.1,2.6c4,1.7,7.7,4.2,10.9,7.4L1258.1,146.9z"/>
	<path class="st2" d="M1305,130.6c5.4,0,10.2,0.9,14.6,2.6c4.4,1.7,8.1,4.2,11.2,7.3c3.1,3.2,5.5,7,7.1,11.6
		c1.7,4.6,2.5,9.7,2.5,15.3c0,5.7-0.8,10.8-2.5,15.4c-1.7,4.6-4.1,8.5-7.1,11.7s-6.8,5.7-11.2,7.4c-4.4,1.7-9.2,2.6-14.6,2.6
		s-10.2-0.9-14.6-2.6s-8.1-4.2-11.2-7.4s-5.5-7.1-7.2-11.7c-1.7-4.6-2.6-9.7-2.6-15.4c0-5.6,0.9-10.8,2.6-15.3
		c1.7-4.6,4.1-8.4,7.2-11.6c3.1-3.2,6.8-5.6,11.2-7.3S1299.7,130.6,1305,130.6z M1305,191.3c6,0,10.4-2,13.3-6s4.3-9.9,4.3-17.6
		c0-7.7-1.4-13.6-4.3-17.7c-2.9-4.1-7.3-6.1-13.3-6.1c-6.1,0-10.5,2-13.4,6.1s-4.3,10-4.3,17.7s1.4,13.6,4.3,17.6
		C1294.5,189.2,1299,191.3,1305,191.3z"/>
	<path class="st2" d="M1354,203.5v-71.8h10.6c2.2,0,3.7,1.1,4.4,3.2l1.1,5.3c1.3-1.4,2.6-2.7,4-3.9s2.8-2.2,4.4-3s3.2-1.5,5-2
		s3.8-0.7,5.9-0.7c4.5,0,8.2,1.2,11.2,3.7c2.9,2.4,5.1,5.7,6.5,9.8c1.1-2.4,2.5-4.4,4.2-6.1c1.7-1.7,3.5-3.1,5.5-4.2
		c2-1.1,4.1-1.9,6.4-2.4s4.5-0.8,6.8-0.8c4,0,7.5,0.6,10.6,1.8s5.7,3,7.8,5.3c2.1,2.3,3.7,5.2,4.8,8.5c1.1,3.4,1.6,7.2,1.6,11.5
		v45.7h-17.3v-45.7c0-4.6-1-8-3-10.3s-4.9-3.5-8.8-3.5c-1.8,0-3.4,0.3-4.9,0.9s-2.8,1.5-4,2.6c-1.1,1.1-2,2.6-2.7,4.3s-1,3.7-1,6
		v45.7h-17.4v-45.7c0-4.8-1-8.3-2.9-10.5s-4.8-3.3-8.6-3.3c-2.5,0-4.8,0.6-7,1.9s-4.2,2.9-6.1,5.1v52.6H1354z"/>
	<path class="st2" d="M1471.9,203.5v-71.8h10.6c2.2,0,3.7,1.1,4.4,3.2l1.1,5.3c1.3-1.4,2.6-2.7,4-3.9s2.8-2.2,4.4-3s3.2-1.5,5-2
		s3.8-0.7,5.9-0.7c4.5,0,8.2,1.2,11.2,3.7c2.9,2.4,5.1,5.7,6.5,9.8c1.1-2.4,2.5-4.4,4.2-6.1c1.7-1.7,3.5-3.1,5.5-4.2
		c2-1.1,4.1-1.9,6.4-2.4s4.5-0.8,6.8-0.8c4,0,7.5,0.6,10.6,1.8s5.7,3,7.8,5.3c2.1,2.3,3.7,5.2,4.8,8.5c1.1,3.4,1.6,7.2,1.6,11.5
		v45.7h-17.3v-45.7c0-4.6-1-8-3-10.3s-4.9-3.5-8.8-3.5c-1.8,0-3.4,0.3-4.9,0.9s-2.8,1.5-4,2.6c-1.1,1.1-2,2.6-2.7,4.3s-1,3.7-1,6
		v45.7h-17.4v-45.7c0-4.8-1-8.3-2.9-10.5s-4.8-3.3-8.6-3.3c-2.5,0-4.8,0.6-7,1.9s-4.2,2.9-6.1,5.1v52.6H1471.9z"/>
	<path class="st2" d="M1619.4,130.6c4.5,0,8.7,0.7,12.5,2.2c3.8,1.4,7.1,3.6,9.8,6.3c2.8,2.8,4.9,6.2,6.4,10.2s2.3,8.6,2.3,13.8
		c0,1.3-0.1,2.4-0.2,3.3c-0.1,0.9-0.3,1.5-0.6,2c-0.3,0.5-0.7,0.8-1.2,1.1s-1.2,0.3-2,0.3H1602c0.5,7.4,2.5,12.8,6,16.2
		c3.5,3.5,8,5.2,13.7,5.2c2.8,0,5.2-0.3,7.2-1s3.8-1.4,5.3-2.2s2.8-1.5,4-2.2c1.1-0.7,2.2-1,3.3-1c0.7,0,1.3,0.1,1.8,0.4
		c0.5,0.3,1,0.7,1.3,1.2l5,6.3c-1.9,2.2-4.1,4.1-6.4,5.6c-2.4,1.5-4.9,2.7-7.5,3.6c-2.6,0.9-5.2,1.6-7.9,1.9
		c-2.7,0.4-5.3,0.6-7.8,0.6c-5,0-9.6-0.8-13.9-2.5s-8-4.1-11.2-7.4c-3.2-3.2-5.7-7.3-7.5-12c-1.8-4.8-2.7-10.3-2.7-16.6
		c0-4.9,0.8-9.5,2.4-13.8s3.9-8.1,6.8-11.3c3-3.2,6.6-5.7,10.8-7.6C1609.2,131.5,1614,130.6,1619.4,130.6z M1619.8,143
		c-5,0-9,1.4-11.8,4.3c-2.8,2.8-4.7,6.9-5.5,12.1h32.5c0-2.2-0.3-4.4-0.9-6.3c-0.6-2-1.5-3.7-2.8-5.2s-2.8-2.7-4.8-3.5
		C1624.6,143.4,1622.3,143,1619.8,143z"/>
	<path class="st2" d="M1710,99.5v104h-17.3v-104H1710z"/>
	<path class="st2" d="M1745.3,131.7v45.6c0,4.4,1,7.8,3,10.2s5.1,3.6,9.1,3.6c3,0,5.8-0.7,8.4-2s5.1-3.2,7.4-5.5v-51.9h17.3v71.8
		h-10.6c-2.2,0-3.7-1-4.4-3.2l-1.2-5.7c-1.5,1.5-3,2.9-4.6,4.1c-1.6,1.2-3.3,2.3-5.1,3.2c-1.8,0.9-3.7,1.5-5.8,2
		c-2.1,0.5-4.3,0.7-6.7,0.7c-3.9,0-7.4-0.7-10.4-2s-5.5-3.2-7.6-5.6c-2.1-2.4-3.6-5.3-4.7-8.6c-1-3.3-1.6-7-1.6-11v-45.6
		L1745.3,131.7L1745.3,131.7z"/>
</g>
<g>
	<path class="st3" d="M393.7,92.3v15.5h-30.4v85.8h-18.8v-85.8h-30.6V92.3H393.7z"/>
	<path class="st3" d="M421.1,120.6c5.4,0,10.2,0.9,14.6,2.6s8.1,4.2,11.2,7.3c3.1,3.2,5.5,7,7.1,11.6c1.7,4.6,2.5,9.7,2.5,15.3
		c0,5.7-0.8,10.8-2.5,15.4c-1.7,4.6-4.1,8.5-7.1,11.7s-6.8,5.7-11.2,7.4c-4.4,1.7-9.2,2.6-14.6,2.6s-10.2-0.9-14.6-2.6
		s-8.1-4.2-11.2-7.4s-5.5-7.1-7.2-11.7c-1.7-4.6-2.6-9.7-2.6-15.4c0-5.6,0.9-10.8,2.6-15.3c1.7-4.6,4.1-8.4,7.2-11.6
		c3.1-3.2,6.8-5.6,11.2-7.3S415.7,120.6,421.1,120.6z M421.1,181.3c6,0,10.4-2,13.3-6s4.3-9.9,4.3-17.6c0-7.7-1.4-13.6-4.3-17.7
		c-2.9-4.1-7.3-6.1-13.3-6.1c-6.1,0-10.5,2-13.4,6.1s-4.3,10-4.3,17.7s1.4,13.6,4.3,17.6C410.6,179.2,415,181.3,421.1,181.3z"/>
	<path class="st3" d="M485.9,121.7v45.6c0,4.4,1,7.8,3,10.2s5.1,3.6,9.1,3.6c3,0,5.8-0.7,8.4-2s5.1-3.2,7.4-5.5v-51.9h17.3v71.8
		h-10.6c-2.2,0-3.7-1-4.4-3.2l-1.2-5.7c-1.5,1.5-3,2.9-4.6,4.1c-1.6,1.2-3.3,2.3-5.1,3.2c-1.8,0.9-3.7,1.5-5.8,2
		c-2.1,0.5-4.3,0.7-6.7,0.7c-3.9,0-7.4-0.7-10.4-2s-5.5-3.2-7.6-5.6c-2.1-2.4-3.6-5.3-4.7-8.6c-1-3.3-1.6-7-1.6-11v-45.6
		L485.9,121.7L485.9,121.7z"/>
	<path class="st3" d="M573.2,194.6c-6.2,0-11-1.8-14.3-5.3c-3.4-3.5-5-8.4-5-14.6v-40.1h-7.3c-0.9,0-1.7-0.3-2.4-0.9
		c-0.7-0.6-1-1.5-1-2.7v-6.9l11.5-1.9l3.6-19.6c0.2-0.9,0.6-1.7,1.3-2.2s1.5-0.8,2.6-0.8h9v22.6H590v12.3h-18.9v38.9
		c0,2.2,0.6,4,1.7,5.2s2.6,1.9,4.5,1.9c1.1,0,2-0.1,2.7-0.4c0.7-0.3,1.4-0.5,1.9-0.8s1-0.5,1.4-0.8s0.8-0.4,1.3-0.4s0.9,0.1,1.3,0.4
		c0.3,0.3,0.7,0.6,1.1,1.2l5.2,8.4c-2.5,2.1-5.4,3.7-8.7,4.8C580.1,194.1,576.7,194.6,573.2,194.6z"/>
	<path class="st3" d="M630.8,193.5v-71.8h10.6c2.2,0,3.7,1.1,4.4,3.2l1.1,5.3c1.3-1.4,2.6-2.7,4-3.9c1.4-1.2,2.8-2.2,4.4-3
		c1.6-0.8,3.2-1.5,5-2s3.8-0.7,5.9-0.7c4.5,0,8.2,1.2,11.2,3.7c2.9,2.4,5.1,5.7,6.5,9.8c1.1-2.4,2.5-4.4,4.2-6.1
		c1.7-1.7,3.5-3.1,5.5-4.2s4.1-1.9,6.4-2.4c2.3-0.5,4.5-0.8,6.8-0.8c4,0,7.5,0.6,10.6,1.8c3.1,1.2,5.7,3,7.8,5.3s3.7,5.2,4.8,8.5
		c1.1,3.4,1.6,7.2,1.6,11.5v45.7h-17.3v-45.7c0-4.6-1-8-3-10.3s-4.9-3.5-8.8-3.5c-1.8,0-3.4,0.3-4.9,0.9s-2.8,1.5-4,2.6
		c-1.1,1.1-2,2.6-2.7,4.3s-1,3.7-1,6v45.7h-17.4v-45.7c0-4.8-1-8.3-2.9-10.5s-4.8-3.3-8.6-3.3c-2.5,0-4.8,0.6-7,1.9
		s-4.2,2.9-6.1,5.1v52.6H630.8z"/>
	<path class="st3" d="M805,193.5h-7.8c-1.6,0-2.9-0.2-3.8-0.7c-0.9-0.5-1.6-1.5-2.1-3l-1.5-5.1c-1.8,1.6-3.6,3.1-5.4,4.3
		s-3.6,2.3-5.4,3.1c-1.9,0.8-3.9,1.5-6,1.9s-4.4,0.6-7,0.6c-3,0-5.8-0.4-8.4-1.2c-2.6-0.8-4.8-2-6.6-3.7c-1.8-1.6-3.3-3.7-4.3-6.1
		c-1-2.4-1.5-5.3-1.5-8.5c0-2.7,0.7-5.4,2.1-8c1.4-2.6,3.8-5,7.1-7.2c3.3-2.1,7.7-3.9,13.2-5.3c5.5-1.4,12.3-2.1,20.5-2.1v-4.2
		c0-4.8-1-8.4-3-10.8c-2-2.3-5-3.5-8.9-3.5c-2.8,0-5.1,0.3-7,1s-3.5,1.4-4.9,2.2s-2.6,1.6-3.8,2.2c-1.2,0.7-2.5,1-3.9,1
		c-1.2,0-2.2-0.3-3-0.9c-0.8-0.6-1.5-1.4-2-2.2l-3.1-5.5c8.3-7.6,18.2-11.3,29.9-11.3c4.2,0,7.9,0.7,11.2,2.1s6.1,3.3,8.4,5.7
		c2.3,2.4,4,5.4,5.2,8.8c1.2,3.4,1.8,7.1,1.8,11.2V193.5z M771.4,182.7c1.8,0,3.4-0.2,4.9-0.5s2.9-0.8,4.2-1.4
		c1.3-0.6,2.6-1.4,3.9-2.4c1.2-0.9,2.5-2.1,3.7-3.3v-12c-5,0-9.3,0.3-12.6,1c-3.4,0.6-6.1,1.4-8.2,2.4c-2.1,1-3.5,2.1-4.4,3.5
		c-0.9,1.3-1.3,2.7-1.3,4.3c0,3.1,0.9,5.2,2.7,6.6C766.1,182.1,768.5,182.7,771.4,182.7z"/>
	<path class="st3" d="M822,193.5v-71.8h10.1c1.8,0,3,0.3,3.7,1s1.2,1.8,1.4,3.4l1,8.7c2.6-4.4,5.6-7.9,9-10.5
		c3.5-2.6,7.3-3.9,11.6-3.9c3.5,0,6.5,0.8,8.8,2.5l-2.2,13c-0.1,0.8-0.4,1.4-0.9,1.8c-0.5,0.3-1.1,0.5-1.9,0.5
		c-0.7,0-1.7-0.2-2.9-0.5s-2.8-0.5-4.8-0.5c-3.6,0-6.7,1-9.2,3c-2.6,2-4.7,4.9-6.5,8.7v44.7L822,193.5L822,193.5z"/>
	<path class="st3" d="M940.3,121.7V217H923v-32.5c-1.4,1.5-3,2.9-4.6,4.2c-1.6,1.2-3.3,2.3-5.1,3.2s-3.8,1.5-5.8,2
		c-2.1,0.5-4.3,0.7-6.6,0.7c-3.9,0-7.5-0.8-10.8-2.5c-3.3-1.6-6.1-4-8.4-7.1c-2.4-3.1-4.2-6.9-5.5-11.5s-1.9-9.8-1.9-15.7
		c0-5.3,0.7-10.3,2.2-14.8c1.4-4.6,3.5-8.5,6.2-11.9c2.7-3.4,6-6,9.7-7.9c3.8-1.9,8-2.8,12.7-2.8c2.2,0,4.3,0.2,6.1,0.6
		s3.5,1,5.1,1.7s3,1.6,4.3,2.7s2.6,2.2,3.8,3.5l0.9-4c0.2-1.1,0.7-1.9,1.5-2.4s1.8-0.8,2.9-0.8L940.3,121.7L940.3,121.7z
		 M906.7,180.8c3.6,0,6.7-0.7,9.2-2.2s4.9-3.6,7.1-6.4V140c-2-2.4-4.1-4.1-6.4-5c-2.3-1-4.8-1.5-7.5-1.5c-2.6,0-5,0.5-7.1,1.5
		s-3.9,2.5-5.4,4.4c-1.5,2-2.6,4.5-3.4,7.6c-0.8,3.1-1.2,6.7-1.2,10.8c0,4.2,0.3,7.8,1,10.7s1.6,5.3,2.9,7.1c1.3,1.8,2.8,3.2,4.6,4
		S904.5,180.8,906.7,180.8z"/>
	<path class="st3" d="M974.8,121.7v45.6c0,4.4,1,7.8,3,10.2s5.1,3.6,9.1,3.6c3,0,5.8-0.7,8.4-2s5.1-3.2,7.4-5.5v-51.9h17.3v71.8
		h-10.6c-2.2,0-3.7-1-4.4-3.2l-1.2-5.7c-1.5,1.5-3,2.9-4.6,4.1c-1.6,1.2-3.3,2.3-5.1,3.2s-3.7,1.5-5.8,2s-4.3,0.7-6.7,0.7
		c-3.9,0-7.4-0.7-10.4-2s-5.5-3.2-7.6-5.6c-2.1-2.4-3.6-5.3-4.7-8.6c-1-3.3-1.6-7-1.6-11v-45.6L974.8,121.7L974.8,121.7z"/>
	<path class="st3" d="M1068.2,120.6c4.5,0,8.7,0.7,12.5,2.2c3.8,1.4,7.1,3.6,9.8,6.3c2.8,2.8,4.9,6.2,6.4,10.2s2.3,8.6,2.3,13.8
		c0,1.3-0.1,2.4-0.2,3.3c-0.1,0.9-0.3,1.5-0.6,2c-0.3,0.5-0.7,0.8-1.2,1.1s-1.2,0.3-2,0.3H1051c0.5,7.4,2.5,12.8,6,16.2
		c3.5,3.5,8,5.2,13.7,5.2c2.8,0,5.2-0.3,7.2-1s3.8-1.4,5.3-2.2s2.8-1.5,4-2.2c1.1-0.7,2.2-1,3.3-1c0.7,0,1.3,0.1,1.8,0.4
		c0.5,0.3,1,0.7,1.3,1.2l5,6.3c-1.9,2.2-4.1,4.1-6.4,5.6c-2.4,1.5-4.9,2.7-7.5,3.6c-2.6,0.9-5.2,1.6-7.9,1.9
		c-2.7,0.4-5.3,0.6-7.8,0.6c-5,0-9.6-0.8-13.9-2.5s-8-4.1-11.2-7.4c-3.2-3.2-5.7-7.3-7.5-12c-1.8-4.8-2.7-10.3-2.7-16.6
		c0-4.9,0.8-9.5,2.4-13.8s3.9-8.1,6.8-11.3c3-3.2,6.6-5.7,10.8-7.6C1058.1,121.5,1062.9,120.6,1068.2,120.6z M1068.6,133
		c-5,0-9,1.4-11.8,4.3c-2.8,2.8-4.7,6.9-5.5,12.1h32.5c0-2.2-0.3-4.4-0.9-6.3c-0.6-2-1.5-3.7-2.8-5.2s-2.8-2.7-4.8-3.5
		C1073.4,133.4,1071.2,133,1068.6,133z"/>
	<path class="st3" d="M1113.4,193.5v-71.8h10.1c1.8,0,3,0.3,3.7,1s1.2,1.8,1.4,3.4l1,8.7c2.6-4.4,5.6-7.9,9-10.5
		c3.5-2.6,7.3-3.9,11.6-3.9c3.5,0,6.5,0.8,8.8,2.5l-2.2,13c-0.1,0.8-0.4,1.4-0.9,1.8c-0.5,0.3-1.1,0.5-1.9,0.5
		c-0.7,0-1.7-0.2-2.9-0.5c-1.2-0.3-2.8-0.5-4.8-0.5c-3.6,0-6.7,1-9.2,3c-2.6,2-4.7,4.9-6.5,8.7v44.7L1113.4,193.5L1113.4,193.5z"/>
	<path class="st3" d="M1248.1,136.9c-0.5,0.7-1,1.2-1.5,1.5c-0.5,0.4-1.2,0.6-2.1,0.6s-1.8-0.3-2.6-0.8c-0.8-0.5-1.8-1.1-3-1.8
		s-2.6-1.3-4.2-1.8s-3.6-0.8-6-0.8c-3,0-5.7,0.5-8,1.6s-4.2,2.7-5.7,4.7c-1.5,2.1-2.6,4.5-3.4,7.5c-0.7,2.9-1.1,6.2-1.1,9.9
		c0,3.8,0.4,7.2,1.2,10.2c0.8,3,2,5.5,3.5,7.5s3.4,3.6,5.6,4.6s4.7,1.6,7.4,1.6c2.8,0,5-0.3,6.7-1s3.1-1.4,4.3-2.2
		c1.2-0.8,2.2-1.6,3-2.2c0.9-0.7,1.8-1,2.9-1c1.4,0,2.5,0.5,3.2,1.6l5,6.3c-1.9,2.2-4,4.1-6.2,5.6s-4.6,2.7-7,3.6
		c-2.4,0.9-4.9,1.6-7.5,1.9c-2.6,0.4-5.1,0.6-7.6,0.6c-4.4,0-8.6-0.8-12.5-2.5s-7.3-4.1-10.3-7.2c-2.9-3.2-5.2-7.1-6.9-11.7
		c-1.7-4.6-2.6-9.8-2.6-15.7c0-5.3,0.8-10.2,2.3-14.7s3.7-8.4,6.7-11.7c2.9-3.3,6.6-5.9,10.9-7.7s9.3-2.8,15-2.8
		c5.4,0,10.1,0.9,14.1,2.6s7.7,4.2,10.9,7.4L1248.1,136.9z"/>
	<path class="st3" d="M1295,120.6c5.4,0,10.2,0.9,14.6,2.6s8.1,4.2,11.2,7.3c3.1,3.2,5.5,7,7.1,11.6c1.7,4.6,2.5,9.7,2.5,15.3
		c0,5.7-0.8,10.8-2.5,15.4c-1.7,4.6-4.1,8.5-7.1,11.7s-6.8,5.7-11.2,7.4c-4.4,1.7-9.2,2.6-14.6,2.6s-10.2-0.9-14.6-2.6
		s-8.1-4.2-11.2-7.4s-5.5-7.1-7.2-11.7c-1.7-4.6-2.6-9.7-2.6-15.4c0-5.6,0.9-10.8,2.6-15.3c1.7-4.6,4.1-8.4,7.2-11.6
		c3.1-3.2,6.8-5.6,11.2-7.3S1289.7,120.6,1295,120.6z M1295,181.3c6,0,10.4-2,13.3-6s4.3-9.9,4.3-17.6c0-7.7-1.4-13.6-4.3-17.7
		c-2.9-4.1-7.3-6.1-13.3-6.1c-6.1,0-10.5,2-13.4,6.1s-4.3,10-4.3,17.7s1.4,13.6,4.3,17.6C1284.5,179.2,1289,181.3,1295,181.3z"/>
	<path class="st3" d="M1344,193.5v-71.8h10.6c2.2,0,3.7,1.1,4.4,3.2l1.1,5.3c1.3-1.4,2.6-2.7,4-3.9c1.4-1.2,2.8-2.2,4.4-3
		s3.2-1.5,5-2s3.8-0.7,5.9-0.7c4.5,0,8.2,1.2,11.2,3.7c2.9,2.4,5.1,5.7,6.5,9.8c1.1-2.4,2.5-4.4,4.2-6.1c1.7-1.7,3.5-3.1,5.5-4.2
		s4.1-1.9,6.4-2.4s4.5-0.8,6.8-0.8c4,0,7.5,0.6,10.6,1.8c3.1,1.2,5.7,3,7.8,5.3c2.1,2.3,3.7,5.2,4.8,8.5c1.1,3.4,1.6,7.2,1.6,11.5
		v45.7h-17.3v-45.7c0-4.6-1-8-3-10.3s-4.9-3.5-8.8-3.5c-1.8,0-3.4,0.3-4.9,0.9s-2.8,1.5-4,2.6c-1.1,1.1-2,2.6-2.7,4.3s-1,3.7-1,6
		v45.7h-17.4v-45.7c0-4.8-1-8.3-2.9-10.5s-4.8-3.3-8.6-3.3c-2.5,0-4.8,0.6-7,1.9s-4.2,2.9-6.1,5.1v52.6H1344z"/>
	<path class="st3" d="M1461.9,193.5v-71.8h10.6c2.2,0,3.7,1.1,4.4,3.2l1.1,5.3c1.3-1.4,2.6-2.7,4-3.9c1.4-1.2,2.8-2.2,4.4-3
		s3.2-1.5,5-2s3.8-0.7,5.9-0.7c4.5,0,8.2,1.2,11.2,3.7c2.9,2.4,5.1,5.7,6.5,9.8c1.1-2.4,2.5-4.4,4.2-6.1c1.7-1.7,3.5-3.1,5.5-4.2
		s4.1-1.9,6.4-2.4s4.5-0.8,6.8-0.8c4,0,7.5,0.6,10.6,1.8c3.1,1.2,5.7,3,7.8,5.3c2.1,2.3,3.7,5.2,4.8,8.5c1.1,3.4,1.6,7.2,1.6,11.5
		v45.7h-17.3v-45.7c0-4.6-1-8-3-10.3s-4.9-3.5-8.8-3.5c-1.8,0-3.4,0.3-4.9,0.9s-2.8,1.5-4,2.6c-1.1,1.1-2,2.6-2.7,4.3s-1,3.7-1,6
		v45.7h-17.4v-45.7c0-4.8-1-8.3-2.9-10.5s-4.8-3.3-8.6-3.3c-2.5,0-4.8,0.6-7,1.9s-4.2,2.9-6.1,5.1v52.6H1461.9z"/>
	<path class="st3" d="M1609.4,120.6c4.5,0,8.7,0.7,12.5,2.2c3.8,1.4,7.1,3.6,9.8,6.3c2.8,2.8,4.9,6.2,6.4,10.2s2.3,8.6,2.3,13.8
		c0,1.3-0.1,2.4-0.2,3.3c-0.1,0.9-0.3,1.5-0.6,2c-0.3,0.5-0.7,0.8-1.2,1.1s-1.2,0.3-2,0.3H1592c0.5,7.4,2.5,12.8,6,16.2
		c3.5,3.5,8,5.2,13.7,5.2c2.8,0,5.2-0.3,7.2-1s3.8-1.4,5.3-2.2s2.8-1.5,4-2.2c1.1-0.7,2.2-1,3.3-1c0.7,0,1.3,0.1,1.8,0.4
		c0.5,0.3,1,0.7,1.3,1.2l5,6.3c-1.9,2.2-4.1,4.1-6.4,5.6c-2.4,1.5-4.9,2.7-7.5,3.6c-2.6,0.9-5.2,1.6-7.9,1.9
		c-2.7,0.4-5.3,0.6-7.8,0.6c-5,0-9.6-0.8-13.9-2.5s-8-4.1-11.2-7.4c-3.2-3.2-5.7-7.3-7.5-12c-1.8-4.8-2.7-10.3-2.7-16.6
		c0-4.9,0.8-9.5,2.4-13.8s3.9-8.1,6.8-11.3c3-3.2,6.6-5.7,10.8-7.6C1599.2,121.5,1604,120.6,1609.4,120.6z M1609.8,133
		c-5,0-9,1.4-11.8,4.3c-2.8,2.8-4.7,6.9-5.5,12.1h32.5c0-2.2-0.3-4.4-0.9-6.3c-0.6-2-1.5-3.7-2.8-5.2s-2.8-2.7-4.8-3.5
		C1614.6,133.4,1612.3,133,1609.8,133z"/>
	<path class="st3" d="M1700,89.5v104h-17.3v-104H1700z"/>
	<path class="st3" d="M1735.3,121.7v45.6c0,4.4,1,7.8,3,10.2s5.1,3.6,9.1,3.6c3,0,5.8-0.7,8.4-2s5.1-3.2,7.4-5.5v-51.9h17.3v71.8
		h-10.6c-2.2,0-3.7-1-4.4-3.2l-1.2-5.7c-1.5,1.5-3,2.9-4.6,4.1c-1.6,1.2-3.3,2.3-5.1,3.2c-1.8,0.9-3.7,1.5-5.8,2
		c-2.1,0.5-4.3,0.7-6.7,0.7c-3.9,0-7.4-0.7-10.4-2s-5.5-3.2-7.6-5.6c-2.1-2.4-3.6-5.3-4.7-8.6c-1-3.3-1.6-7-1.6-11v-45.6
		L1735.3,121.7L1735.3,121.7z"/>
</g>
<path class="st2" d="M217.2,118.9l-44.4,44.7l-9.9-9.9l44.5-44.7L217.2,118.9z M247.1,109l9.9,9.9L172.9,203l-39.1-39.1l9.9-9.9
	l29.3,29.2L247.1,109z M94,163.9l9.9-9.9l39.1,39.1l-9.9,9.9L94,163.9z"/>
<path class="st3" d="M207.2,108.9l-44.4,44.7l-9.9-9.9L197.4,99L207.2,108.9z M237.1,99l9.9,9.9L162.9,193l-39.1-39.1l9.9-9.9
	l29.3,29.2L237.1,99z M84,153.9l9.9-9.9l39.1,39.1l-9.9,9.9L84,153.9z"/>
</svg>
