<?xml version="1.0" encoding="utf-8"?>
<!-- Generator: Adobe Illustrator 24.3.0, SVG Export Plug-In . SVG Version: 6.00 Build 0)  -->
<svg version="1.1" id="Calque_1" xmlns="http://www.w3.org/2000/svg" xmlns:xlink="http://www.w3.org/1999/xlink" x="0px" y="0px"
	 viewBox="0 0 1000 1000" style="enable-background:new 0 0 1000 1000;" xml:space="preserve">
<style type="text/css">
	.st0{fill:#333333;}
</style>
<path class="st0" d="M593.8,59.2c-98.6,0.5-192.3,25.5-284.2,59.4c-32.9-8.2-66-17.6-96.7-0.7c-2.1,26.9,8.4,48.7,17.6,71.1
	c-54.3,110-74,231.6-43.9,369.8c55.7,24.5,111.4,42.4,167.1,52.9c-62.2-2-115.6-23.5-166.4-41.5c-70,88.9-69.9,194.1-71,296.7
	c-9.7,11.6-24.1,19.4-22.9,39.6c21.8,12.8,53.6,3.2,84.5-4.4c259.1,85.6,405.1,6.1,589.2-17.6c21.6,19.6,46.2,31.9,77.2,28.2
	c-0.9-30.4-13.7-63.6-33.2-98.6c33.5-83,51.1-171.2,26.4-273C768,580,697.7,599.4,626.1,596c94.5-11.4,153.5-28.6,211.9-67.9
	c70.4-105.7,54.1-268.1,29-399.9c24.3-19.5,21.5-41,30.1-67.2c-41.5,1.9-70.1,13-107,31.2C722.2,68.5,656.9,58.9,593.8,59.2
	L593.8,59.2z M669.5,232.7c4.8,67.6-0.9,138.5-18.4,198.6c-99.6,11.1-192.4,32.7-321.3,0c-4.5-105.5,19.9-152.9,45.5-198.1
	C467.9,262.4,561.9,240.8,669.5,232.7L669.5,232.7z M497,285.3c-37.2,19.6-24.8,11.1-45.4,11.1c-7.8,0-15.5,0.1-23.4,0
	c-5.5-0.1-11.1,0-16.5-1.1c-3.7-1.3-5.4-5-9.2-6.4l-35.7,23.9c3.6,1.1,5.9,4.1,9,6c5.6,2.6,11.9,2.3,18,2.5
	c7.8,0.1,15.6,0.1,23.5,0.1c7.4-0.1,14.9,0,22.4-0.1c29.5,0.5,16.3-27.8,44.5-0.4c2.6,4.2,5.7,8.2,9.7,11.3c4.1,2,7.4,5,12.1,5.4
	c7-0.5,12.9-4.7,19.3-7.2c6-2.1,12.4-2.8,18.7-3.2c6,0,11.9,0.1,17.7-1.7c7.1-2,13.7-5.6,20.6-8.5c4.9-1.4,10.9-4.8,16.1-2.7
	l0.8,1.1l36.8-22l-1.6-2.2c-6-4.8-12.1-2.3-18.8-0.3c-6.9,2.5-13.2,6.2-20.2,8.5c-1.9,0.6-3.6,1.5-5.5,2.1
	c-3.7,1.1-7.7,0.2-11.6,0.5c-6.5,0.2-13.1,0.5-19.5,2.3c-6.5,2-12.3,5.1-18.4,8c-1.1,0.2-2.3,0.8-3.4,0.7c-2.6-0.3-4.1-4.1-7.1-4
	c-4.1-2.3-6.8-6.4-9.4-10.3c-4.6-5.1-10.5-9.2-16.6-12.4C501.6,285.6,499.3,285.3,497,285.3L497,285.3z M525.8,400.8
	c4.1,5.2,9,9.1,15.3,11.4c6.9,1.8,14,1.6,21.1,1.7c7.3,0.4,14.5-1.1,21.4-3.3c16.2-6.4,33.4-13.4,44.9-26.7
	c-29.4,9.9-56.4,28.7-11.4,0.6c-6.5,2.6-13.6,4.5-20.7,4.4c-6.7,0-13.5,0.1-20.2-0.8c-6.4-1.4-11-4.9-14.8-10.1
	C533.6,345.1,544.3,378,525.8,400.8L525.8,400.8z M506.3,390.6c7.3-17.4,0.2-1.9-10.7-15.3c-4.7-4.1-10.4-4.2-16.4-3.5
	c-7.1,0.7-14.4,1.8-21,4.8c-5.7,2.7-11.6,3.9-18,2.7c-6-1-11.8-2.6-17.9-3.3c-6.9-1.6-13.2-4.4-19.8-6.9l-35,24.5
	c6.9,1.3,13.1,4.5,19.9,6.4c6,1.1,11.9,2.5,18,3.6c6.6,1.2,13.1,1.1,19.5-0.9c6.4-3,13.2-4.7,20.3-5.6c4.7-0.4,10-1.4,14.3,1.1
	c4,4.1,7.8,8.5,11.7,12.7c4,4.5,9.1,6.9,14.9,7.9C539.7,411.2,506.9,402.3,506.3,390.6z"/>
</svg>
