<?xml version="1.0" encoding="utf-8"?>
<!-- Generator: Adobe Illustrator 24.3.0, SVG Export Plug-In . SVG Version: 6.00 Build 0)  -->
<svg version="1.1" id="Calque_1" xmlns="http://www.w3.org/2000/svg" xmlns:xlink="http://www.w3.org/1999/xlink" x="0px" y="0px"
	 viewBox="0 0 928.6 1000" style="enable-background:new 0 0 928.6 1000;" xml:space="preserve">
<style type="text/css">
	.st0{fill:#333333;}
</style>
<path class="st0" d="M266,783.3h396.6V670H266V783.3L266,783.3z M266,500h396.6V330h-70.8c-23.5,0-42.5-19-42.5-42.5v-70.8H266
	L266,500L266,500z M775.9,528.3c0-15.5-12.8-28.3-28.3-28.3c-15.5,0-28.3,12.9-28.3,28.3s12.9,28.3,28.3,28.3
	C763,556.6,775.9,543.8,775.9,528.3z M832.6,528.3v184.2c0,7.5-6.7,14.1-14.2,14.1h-99.2v70.8c0,23.5-19,42.5-42.5,42.5h-425
	c-23.4,0-42.4-19-42.4-42.5v-70.8h-99.2c-7.5,0-14.2-6.7-14.2-14.1V528.3c0-46.5,38.5-85,85-85h28.4V202.5c0-23.5,19-42.5,42.4-42.5
	h297.5c23.5,0,55.8,13.3,72.6,30.1l67.3,67.3c16.8,16.8,30.1,49.1,30.1,72.6v113.4h28.3C794.1,443.4,832.6,481.8,832.6,528.3
	L832.6,528.3z"/>
</svg>
