<?xml version="1.0" encoding="utf-8"?>
<!-- Generator: Adobe Illustrator 22.0.1, SVG Export Plug-In . SVG Version: 6.00 Build 0)  -->
<svg version="1.1" id="Calque_1" xmlns="http://www.w3.org/2000/svg" xmlns:xlink="http://www.w3.org/1999/xlink" x="0px" y="0px"
	 viewBox="0 0 837.6 785.7" style="enable-background:new 0 0 837.6 785.7;" xml:space="preserve">
<style type="text/css">
	.st0{fill:#7499DD;}
</style>
<path class="st0" d="M836.7,264.3v128.6c0,17.6-14.6,32.1-32.1,32.1h-32.2c-17.5,0-32.1-14.6-32.1-32.1V264.3
	c0-70.8-57.7-128.5-128.5-128.5c-70.8,0-128.6,57.7-128.6,128.5v96.5h48.2c26.6,0,48.2,21.6,48.2,48.1v289.4
	c0,26.5-21.6,48.2-48.2,48.2H49.1c-26.6,0-48.2-21.6-48.2-48.2V408.9c0-26.5,21.6-48.1,48.2-48.1h337.5v-96.5
	c0-124,100.9-225,225-225S836.7,140.3,836.7,264.3L836.7,264.3z"/>
</svg>
