<?xml version="1.0" encoding="utf-8"?>
<!-- Generator: Adobe Illustrator 21.1.0, SVG Export Plug-In . SVG Version: 6.00 Build 0)  -->
<svg version="1.1" id="Calque_1" xmlns="http://www.w3.org/2000/svg" xmlns:xlink="http://www.w3.org/1999/xlink" x="0px" y="0px"
	 viewBox="0 0 352 153.2" style="enable-background:new 0 0 352 153.2;" xml:space="preserve">
<style type="text/css">
	.st0{fill:#5176B2;}
	.st1{fill:#FFFFFF;}
</style>
<path class="st0" d="M275.4,153.2H76.6C34.5,153.2,0,118.7,0,76.6l0,0C0,34.5,34.5,0,76.6,0h198.8C317.5,0,352,34.5,352,76.6l0,0
	C352,118.7,317.5,153.2,275.4,153.2z"/>
<g>
	<path class="st1" d="M112.5,89.7v7c0,0.8-0.6,1.4-1.4,1.4h-7c-0.8,0-1.4-0.6-1.4-1.4v-7c0-0.8,0.6-1.4,1.4-1.4h7l0,0
		C111.9,88.3,112.5,88.9,112.5,89.7z M123.7,67.9c0,6.2-4.3,8.7-7.5,10.5c-2.3,1.3-3.7,2.2-3.7,3.5v1.4c0,0.8-0.6,1.4-1.4,1.4h-7
		c-0.8,0-1.4-0.6-1.4-1.4v-3c0-5.4,3.9-7.1,7-8.5c2.6-1.2,4.2-2.1,4.2-4c0-2.5-3.2-4.4-6.1-4.4c-1.5,0-3.2,0.5-4.2,1.2
		s-1.9,1.6-3.5,3.6c-0.3,0.3-0.7,0.5-1.1,0.5c-0.3,0-0.6-0.1-0.8-0.3l-4.7-3.6c-0.6-0.4-0.7-1.3-0.3-1.9c3.6-5.7,8.6-8.4,15.3-8.4
		l0,0C115.7,54.6,123.7,60.3,123.7,67.9L123.7,67.9z M107.6,48.3c-15.5,0-28,12.6-28,28s12.6,28,28,28s28-12.6,28-28
		S123.1,48.3,107.6,48.3L107.6,48.3z M141.2,76.3c0,18.6-15.1,33.7-33.6,33.7S73.9,94.9,73.9,76.3S89,42.7,107.6,42.7l0,0
		C126.2,42.7,141.2,57.8,141.2,76.3z"/>
	<g>
		<path class="st1" d="M204.4,96.8h-5.7c-0.6,0-1.2-0.2-1.6-0.5c-0.4-0.3-0.7-0.7-0.9-1.2l-3-8.1h-16.5l-3,8.1
			c-0.1,0.4-0.4,0.8-0.9,1.2c-0.4,0.3-1,0.5-1.6,0.5h-5.7L181.2,57h7.6L204.4,96.8z M178.7,81.8h12.7l-4.8-13.2
			c-0.2-0.6-0.5-1.3-0.7-2.1s-0.5-1.7-0.8-2.6c-0.3,0.9-0.5,1.8-0.8,2.6c-0.2,0.8-0.5,1.5-0.7,2.1L178.7,81.8z"/>
		<path class="st1" d="M216.4,60.4c0,0.6-0.1,1.1-0.4,1.6c-0.2,0.5-0.6,1-0.9,1.3c-0.4,0.4-0.9,0.7-1.4,0.9s-1.1,0.3-1.7,0.3
			c-0.6,0-1.1-0.1-1.7-0.3c-0.5-0.2-1-0.5-1.4-0.9s-0.7-0.8-0.9-1.3s-0.3-1.1-0.3-1.6c0-0.6,0.1-1.2,0.3-1.7s0.5-1,0.9-1.4
			s0.8-0.7,1.4-0.9c0.5-0.2,1.1-0.3,1.7-0.3c0.6,0,1.2,0.1,1.7,0.3s1,0.5,1.4,0.9s0.7,0.8,0.9,1.4C216.2,59.2,216.4,59.8,216.4,60.4
			z M215.2,68.6v28.2h-6.8V68.6H215.2z"/>
		<path class="st1" d="M242.9,96.8c-0.9,0-1.5-0.4-1.7-1.2l-0.6-2.7c-0.6,0.7-1.2,1.3-1.8,1.8s-1.3,1-2.1,1.4
			c-0.7,0.4-1.5,0.7-2.4,0.9c-0.9,0.2-1.8,0.3-2.8,0.3c-1.5,0-3-0.3-4.2-1s-2.4-1.6-3.3-2.8c-0.9-1.2-1.6-2.7-2.1-4.5
			s-0.8-3.8-0.8-6.2c0-2.1,0.3-4,0.9-5.8c0.6-1.8,1.4-3.4,2.4-4.7c1.1-1.3,2.3-2.4,3.8-3.1s3.2-1.1,5-1.1c1.6,0,2.9,0.3,4,0.8
			s2.1,1.2,3,2v-15h6.8v40.9H242.9z M233.8,91.8c1.4,0,2.6-0.3,3.6-0.9s1.9-1.4,2.8-2.5V75.8c-0.8-0.9-1.6-1.6-2.5-2
			s-1.9-0.6-2.9-0.6s-2,0.2-2.8,0.6s-1.5,1-2.1,1.7s-1,1.8-1.3,3s-0.5,2.6-0.5,4.2s0.1,3,0.4,4.2c0.3,1.1,0.6,2.1,1.1,2.8
			c0.5,0.7,1.1,1.2,1.8,1.6S232.9,91.8,233.8,91.8z"/>
		<path class="st1" d="M266,68.1c1.8,0,3.4,0.3,4.9,0.9s2.8,1.4,3.9,2.5s1.9,2.4,2.5,4s0.9,3.4,0.9,5.4c0,0.5,0,0.9-0.1,1.3
			c0,0.3-0.1,0.6-0.2,0.8s-0.3,0.3-0.5,0.4s-0.5,0.1-0.8,0.1h-17.4c0.2,2.9,1,5,2.3,6.4c1.4,1.4,3.2,2,5.4,2c1.1,0,2-0.1,2.8-0.4
			s1.5-0.5,2.1-0.9s1.1-0.6,1.6-0.9s0.9-0.4,1.3-0.4c0.3,0,0.5,0.1,0.7,0.2s0.4,0.3,0.5,0.5l2,2.5c-0.8,0.9-1.6,1.6-2.5,2.2
			s-1.9,1.1-2.9,1.4s-2.1,0.6-3.1,0.8c-1.1,0.1-2.1,0.2-3.1,0.2c-2,0-3.8-0.3-5.5-1s-3.2-1.6-4.4-2.9c-1.2-1.3-2.2-2.9-2.9-4.7
			s-1.1-4.1-1.1-6.5c0-1.9,0.3-3.7,0.9-5.4c0.6-1.7,1.5-3.2,2.7-4.4c1.2-1.3,2.6-2.2,4.3-3C262,68.5,263.9,68.1,266,68.1z M266.1,73
			c-2,0-3.5,0.6-4.6,1.7s-1.8,2.7-2.1,4.8h12.8c0-0.9-0.1-1.7-0.4-2.5c-0.2-0.8-0.6-1.5-1.1-2c-0.5-0.6-1.1-1-1.9-1.4
			C268.1,73.2,267.1,73,266.1,73z"/>
	</g>
</g>
</svg>
