<?xml version="1.0" encoding="utf-8"?>
<!-- Generator: Adobe Illustrator 23.0.2, SVG Export Plug-In . SVG Version: 6.00 Build 0)  -->
<svg version="1.1" id="Calque_1" xmlns="http://www.w3.org/2000/svg" xmlns:xlink="http://www.w3.org/1999/xlink" x="0px" y="0px"
	 viewBox="0 0 1000 1000" style="enable-background:new 0 0 1000 1000;" xml:space="preserve">
<style type="text/css">
	.st0{fill:#3F70CE;}
</style>
<path class="st0" d="M1000,750v71.4000244c0,19.5999756-16.2000122,35.7000122-35.7000122,35.7000122H35.7000122
	c-19.5,0-35.7000008-16.0999756-35.7000008-35.7000122V750c0-19.5,16.2000008-35.7000122,35.7000008-35.7000122h928.5999756
	C983.7999878,714.2999878,1000,730.5,1000,750z M1000,535.7000122v71.4000244
	c0,19.5999756-16.2000122,35.7999878-35.7000122,35.7999878H35.7000122c-19.5,0-35.7000008-16.2000122-35.7000008-35.7999878
	v-71.4000244c0-19.5,16.2000008-35.7000122,35.7000008-35.7000122h928.5999756C983.7999878,500,1000,516.2000122,1000,535.7000122z
	 M1000,321.4000244v71.5c0,19.5-16.2000122,35.7000122-35.7000122,35.7000122H35.7000122
	c-19.5,0-35.7000008-16.2000122-35.7000008-35.7000122v-71.5c0-19.5,16.2000008-35.7000122,35.7000008-35.7000122h928.5999756
	C983.7999878,285.7000122,1000,301.9000244,1000,321.4000244z M1000,107.1000214v71.5
	c0,19.5-16.2000122,35.6999969-35.7000122,35.6999969H35.7000122c-19.5,0-35.7000008-16.1999969-35.7000008-35.6999969v-71.5
	c0-19.5,16.2000008-35.6999969,35.7000008-35.6999969h928.5999756C983.7999878,71.4000244,1000,87.6000214,1000,107.1000214z"/>
</svg>
