<?xml version="1.0" encoding="utf-8"?>
<!-- Generator: Adobe Illustrator 22.0.1, SVG Export Plug-In . SVG Version: 6.00 Build 0)  -->
<svg version="1.1" id="Calque_1" xmlns="http://www.w3.org/2000/svg" xmlns:xlink="http://www.w3.org/1999/xlink" x="0px" y="0px"
	 viewBox="0 0 278.4 535.4" style="enable-background:new 0 0 278.4 535.4;" xml:space="preserve">
<path d="M4.7,278.6l223-223c2.9-2.8,7.1-4.7,11-4.7s8.2,1.9,11.1,4.7l23.9,23.9c2.8,3,4.7,7.3,4.7,11.1s-1.9,8.1-4.7,11l-188,188
	l188,188c2.8,3,4.7,7.2,4.7,11.1c0,4.3-1.9,8.1-4.7,11l-23.9,23.9c-3,2.8-7.3,4.8-11.1,4.8s-8.2-2-11-4.8l-223-223
	c-2.8-2.9-4.7-7.1-4.7-11C0,285.8,1.9,281.5,4.7,278.6z"/>
</svg>
