<?xml version="1.0" encoding="utf-8"?>
<!-- Generator: Adobe Illustrator 22.0.1, SVG Export Plug-In . SVG Version: 6.00 Build 0)  -->
<svg version="1.1" id="Calque_1" xmlns="http://www.w3.org/2000/svg" xmlns:xlink="http://www.w3.org/1999/xlink" x="0px" y="0px"
	 viewBox="0 0 278.4 535.4" style="enable-background:new 0 0 278.4 535.4;" xml:space="preserve">
<path d="M278.4,289.6c0,3.9-1.9,8.1-4.7,11l-223,223c-2.8,2.8-7.2,4.8-11,4.8c-3.8,0-8.1-2-11.1-4.8L4.7,499.7
	c-2.8-2.9-4.7-6.7-4.7-11c0-3.9,1.9-8.1,4.7-11.1l188-188l-188-188C1.9,98.7,0,94.4,0,90.6s1.9-8.1,4.7-11.1l23.9-23.9
	c2.9-2.8,7.2-4.7,11.1-4.7s8.1,1.9,11,4.7l223,223C276.5,281.5,278.4,285.8,278.4,289.6z"/>
</svg>
