<?xml version="1.0" encoding="utf-8"?>
<!-- Generator: Adobe Illustrator 24.3.0, SVG Export Plug-In . SVG Version: 6.00 Build 0)  -->
<svg version="1.1" id="Calque_1" xmlns="http://www.w3.org/2000/svg" xmlns:xlink="http://www.w3.org/1999/xlink" x="0px" y="0px"
	 viewBox="0 0 918 1000" style="enable-background:new 0 0 918 1000;" xml:space="preserve">
<style type="text/css">
	.st0{fill:#333333;}
</style>
<path class="st0" d="M556.7999878,467.3999939c0-17.7999878-14.7000122-32.6000061-32.5999756-32.6000061H393.7999878
	c-17.8999939,0-32.6000061,14.7999878-32.6000061,32.6000061S375.8999939,500,393.7999878,500h130.3999634
	C542.0999756,500,556.7999878,485.2000122,556.7999878,467.3999939z M850.4000244,369.5v489.2999878
	c0,17.7999878-14.7999878,32.5999756-32.5999756,32.5999756H100.1999969c-17.8000031,0-32.5999985-14.7999878-32.5999985-32.5999756
	V369.5c0-17.7999878,14.8000031-32.6000061,32.5999985-32.6000061h717.5999756
	C835.5999756,336.8999939,850.4000244,351.7000122,850.4000244,369.5z M883,141.1999969v130.5000153
	c0,17.7999878-14.7999878,32.6000061-32.5999756,32.6000061H67.5999985C49.7999992,304.3000183,35,289.5000305,35,271.7000122
	V141.1999969c0-17.8000031,14.7999992-32.5999985,32.5999985-32.5999985h782.7999878
	C868.2000122,108.5999985,883,123.4000015,883,141.1999969L883,141.1999969z"/>
</svg>
