<?xml version="1.0" encoding="utf-8"?>
<!-- Generator: Adobe Illustrator 21.1.0, SVG Export Plug-In . SVG Version: 6.00 Build 0)  -->
<svg version="1.1" id="Capa_1" xmlns="http://www.w3.org/2000/svg" xmlns:xlink="http://www.w3.org/1999/xlink" x="0px" y="0px"
	 viewBox="0 0 512 512" style="enable-background:new 0 0 512 512;" xml:space="preserve">
<style type="text/css">
	.st0{fill:#DDDDDD;}
</style>
<g>
	<path class="st0" d="M512,256C512,114.6,397.4,0,256,0S0,114.6,0,256s114.6,256,256,256S512,397.4,512,256z M472,256
		c0,119.3-96.7,216-216,216S40,375.3,40,256S136.7,40,256,40S472,136.7,472,256z"/>
	<path class="st0" d="M357.1,237.9l-148.8-89.6c-16.8-10-24.7-1.9-24.7,17.8v179.8c0,19.8,7.8,27.8,24.7,17.8l145.9-89.6
		C371.1,264.2,374,247.8,357.1,237.9z"/>
</g>
</svg>
