<?xml version="1.0" encoding="utf-8"?>
<!-- Generator: Adobe Illustrator 20.0.0, SVG Export Plug-In . SVG Version: 6.00 Build 0)  -->
<svg version="1.1" id="Calque_1" xmlns="http://www.w3.org/2000/svg" xmlns:xlink="http://www.w3.org/1999/xlink" x="0px" y="0px"
	 viewBox="0 0 394.6 334.2" style="enable-background:new 0 0 394.6 334.2;" xml:space="preserve">
<style type="text/css">
	.st0{fill:#FCD79E;}
</style>
<g>
	<path class="st0" d="M386.1,282.2L222.4,16.1c-13.8-21.4-35.2-21.4-49,0L8.2,282.2c-18.4,29-4.6,52,29,52h319.8
		C392.3,334.3,404.5,311.4,386.1,282.2z M198,301.3c-11.5,0-20.8-9.3-20.8-20.8c0-11.5,9.3-20.9,20.8-20.9s20.9,9.3,20.9,20.9
		C218.9,292,209.5,301.3,198,301.3z M223.2,119.5l-10.4,119.3c-0.7,8.1-7.9,14.2-16,13.5c-7.3-0.6-12.8-6.4-13.5-13.5l-10.4-119.3
		c-1.2-13.9,9.1-26.1,23-27.4c13.9-1.2,26.1,9.1,27.4,23C223.3,116.5,223.3,118.1,223.2,119.5z"/>
</g>
</svg>
