<?xml version="1.0" encoding="utf-8"?>
<!-- Generator: Adobe Illustrator 26.0.2, SVG Export Plug-In . SVG Version: 6.00 Build 0)  -->
<svg version="1.1" id="Calque_1" xmlns="http://www.w3.org/2000/svg" xmlns:xlink="http://www.w3.org/1999/xlink" x="0px" y="0px"
	 viewBox="0 0 832.0106201 896" style="enable-background:new 0 0 832.0106201 896;" xml:space="preserve">
<style type="text/css">
	.st0{fill:#FCD79E;}
</style>
<path class="st0" d="M192.0422974,767.9472046c0-35.508606-28.4808502-63.9894409-63.9894409-63.9894409
	s-64.063385,28.480835-64.063385,63.9894409c0,35.5085449,28.4808426,64.0633545,64.063385,64.0633545
	S192.0422974,803.5297241,192.0422974,767.9472046L192.0422974,767.9472046z M384.0845337,767.9472046
	c0-35.508606-28.480835-63.9894409-64.063385-63.9894409s-63.9894409,28.480835-63.9894409,63.9894409
	c0,35.5085449,28.4808655,64.0633545,63.9894409,64.0633545S384.0845337,803.5297241,384.0845337,767.9472046z
	 M192.0422974,576.0528564c0-35.5825806-28.4808502-64.0634155-63.9894409-64.0634155s-64.063385,28.480835-64.063385,64.0634155
	c0,35.5825195,28.4808426,63.9894409,64.063385,63.9894409S192.0422974,611.4874878,192.0422974,576.0528564
	L192.0422974,576.0528564z M576.0528564,767.9472046c0-35.508606-28.5547485-63.9894409-64.0633545-63.9894409
	s-63.9894409,28.480835-63.9894409,63.9894409c0,35.5085449,28.480835,64.0633545,63.9894409,64.0633545
	S576.0528564,803.5297241,576.0528564,767.9472046z M384.0845337,576.0528564
	c0-35.5825806-28.480835-64.0634155-64.063385-64.0634155s-63.9894409,28.480835-63.9894409,64.0634155
	c0,35.5825195,28.4808655,63.9894409,63.9894409,63.9894409S384.0845337,611.4874878,384.0845337,576.0528564z
	 M192.0422974,384.0105896c0-35.5085754-28.4808502-64.063385-63.9894409-64.063385s-64.063385,28.5548096-64.063385,64.063385
	s28.4808426,63.9894409,64.063385,63.9894409S192.0422974,419.519165,192.0422974,384.0105896L192.0422974,384.0105896z
	 M576.0528564,576.0528564c0-35.5825806-28.5547485-64.0634155-64.0633545-64.0634155s-63.9894409,28.480835-63.9894409,64.0634155
	c0,35.5825195,28.480835,63.9894409,63.9894409,63.9894409S576.0528564,611.4874878,576.0528564,576.0528564z
	 M384.0845337,384.0105896c0-35.5085754-28.480835-64.063385-64.063385-64.063385s-63.9894409,28.5548096-63.9894409,64.063385
	s28.4808655,63.9894409,63.9894409,63.9894409S384.0845337,419.519165,384.0845337,384.0105896z M767.9471436,767.9472046
	V576.0528564c0-35.0647583-28.9246826-64.0634155-63.9894409-64.0634155l0,0
	c-34.916748,0-63.9894409,28.9987183-63.9894409,64.0634155v191.8943481c0,35.0646973,28.9986572,64.0633545,63.9894409,64.0633545
	l0,0C739.0224609,832.0105591,767.9471436,802.9378662,767.9471436,767.9472046z M576.0528564,384.0105896
	c0-35.5085754-28.5547485-64.063385-64.0633545-64.063385s-63.9894409,28.5548096-63.9894409,64.063385
	s28.480835,63.9894409,63.9894409,63.9894409S576.0528564,419.519165,576.0528564,384.0105896z M767.9471436,223.9999847V95.9471664
	c0-17.4583893-14.425354-31.957737-31.9577026-31.957737H96.0211639c-17.4583664,0-31.9577332,14.4993477-31.9577332,31.957737
	v128.0528259c0,17.458374,14.499321,31.9577332,31.9577332,31.9577332h639.9682617
	C753.5217896,255.9577179,767.9471436,241.4584045,767.9471436,223.9999847L767.9471436,223.9999847z M767.9471436,384.0105896
	c0-35.5085754-28.480835-64.063385-63.9894409-64.063385s-63.9894409,28.5548096-63.9894409,64.063385
	s28.480835,63.9894409,63.9894409,63.9894409S767.9471436,419.519165,767.9471436,384.0105896z M832.0106201,63.9894295v768.0211182
	c0,34.916748-28.9986572,63.9894409-64.0634155,63.9894409H63.9894257c-34.9167862,0-63.9894333-28.9986572-63.9894333-63.9894409
	V63.9894295C-0.0000069,29.0726566,28.9986801,0,63.9894257,0h703.9577026
	C803.0119019,0.0000113,832.0106201,29.0726681,832.0106201,63.9894295z"/>
</svg>
