<?xml version="1.0" encoding="utf-8"?>
<!-- Generator: Adobe Illustrator 23.0.2, SVG Export Plug-In . SVG Version: 6.00 Build 0)  -->
<svg version="1.1" id="Calque_1" xmlns="http://www.w3.org/2000/svg" xmlns:xlink="http://www.w3.org/1999/xlink" x="0px" y="0px"
	 viewBox="0 0 928.5999756 1000" style="enable-background:new 0 0 928.5999756 1000;" xml:space="preserve">
<style type="text/css">
	.st0{fill:#FCD79E;}
</style>
<path class="st0" d="M357.1000061,857.0999756c0,39.0999756-32.2999878,71.5-71.3999939,71.5
	s-71.3999939-32.4000244-71.3999939-71.5s32.3999939-71.4000244,71.3999939-71.4000244
	S357.1000061,818.0999756,357.1000061,857.0999756z M857.0999756,857.0999756c0,39.0999756-32.2999878,71.5-71.4000244,71.5
	s-71.4000244-32.4000244-71.4000244-71.5s32.4000244-71.4000244,71.4000244-71.4000244
	S857.0999756,818.0999756,857.0999756,857.0999756z M928.5999756,250v285.7000122c0,17.9000244-14,33.5-31.7999878,35.7000122
	L314.2000122,639.5c2.7999878,12.7999878,7.2000122,25.7000122,7.2000122,39.0999756
	c0,12.7999878-7.7999878,24.5-13.3999939,35.7000122h513.4000244C841,714.2999878,857.1000366,730.5,857.1000366,750
	s-16.0999756,35.7000122-35.7000122,35.7000122H250c-19.5,0-35.6999969-16.2000122-35.6999969-35.7000122
	c0-17.2999878,25.1000061-59.2000122,34-76.5l-98.6999969-459.2000122H35.7000046
	c-19.5,0-35.7000008-16.1999969-35.7000008-35.6999969s16.2000008-35.6999969,35.7000008-35.6999969h142.8999939
	c37.3999939,0,38.5,44.6000061,44.1000061,71.3999939h670.2000122c19.5,0,35.7000122,16.1999969,35.7000122,35.6999969
	L928.5999756,250z"/>
</svg>
