<?xml version="1.0" encoding="utf-8"?>
<!-- Generator: Adobe Illustrator 21.1.0, SVG Export Plug-In . SVG Version: 6.00 Build 0)  -->
<svg version="1.1" id="Calque_1" xmlns="http://www.w3.org/2000/svg" xmlns:xlink="http://www.w3.org/1999/xlink" x="0px" y="0px"
	 viewBox="0 0 352 153.2" style="enable-background:new 0 0 352 153.2;" xml:space="preserve">
<style type="text/css">
	.st0{fill:#5176B2;}
	.st1{fill:#FFFFFF;}
</style>
<path class="st0" d="M275.4,153.2H76.6C34.5,153.2,0,118.7,0,76.6l0,0C0,34.5,34.5,0,76.6,0h198.8C317.5,0,352,34.5,352,76.6l0,0
	C352,118.7,317.5,153.2,275.4,153.2z"/>
<g>
	<g>
		<path class="st1" d="M193.2,87.2c0.4,0,0.7,0.2,1,0.5l2.9,3.1c-1.6,2-3.5,3.5-5.8,4.5c-2.3,1-5.1,1.6-8.3,1.6
			c-2.9,0-5.5-0.5-7.8-1.5c-2.3-1-4.3-2.4-5.9-4.1c-1.6-1.8-2.9-3.9-3.8-6.3c-0.9-2.4-1.3-5.1-1.3-8c0-2.9,0.5-5.6,1.5-8.1
			c1-2.4,2.3-4.5,4.1-6.3c1.8-1.8,3.9-3.1,6.3-4.1c2.5-1,5.2-1.5,8.1-1.5c2.9,0,5.4,0.5,7.6,1.4c2.2,0.9,4,2.2,5.6,3.7l-2.4,3.4
			c-0.1,0.2-0.3,0.4-0.6,0.6c-0.3,0.2-0.5,0.2-0.9,0.2s-0.8-0.2-1.3-0.5c-0.4-0.3-1-0.7-1.6-1.1c-0.7-0.4-1.5-0.7-2.5-1.1
			c-1-0.3-2.3-0.5-3.9-0.5c-1.8,0-3.5,0.3-5.1,1c-1.5,0.6-2.9,1.6-4,2.7c-1.1,1.2-2,2.6-2.6,4.3c-0.6,1.7-0.9,3.6-0.9,5.7
			c0,2.2,0.3,4.1,0.9,5.9c0.6,1.7,1.5,3.2,2.5,4.3c1.1,1.2,2.3,2.1,3.8,2.7c1.4,0.6,3,0.9,4.6,0.9c1,0,1.9-0.1,2.7-0.2
			c0.8-0.1,1.5-0.3,2.2-0.5c0.7-0.2,1.3-0.5,1.9-0.9c0.6-0.4,1.2-0.8,1.8-1.4c0.2-0.2,0.4-0.3,0.6-0.4
			C192.8,87.1,192.9,87.2,193.2,87.2z"/>
		<path class="st1" d="M202.2,96.4V56.3h6.7v15.4c1.1-1,2.3-1.9,3.6-2.5c1.3-0.6,2.8-0.9,4.6-0.9c1.5,0,2.9,0.3,4,0.8
			c1.2,0.5,2.1,1.2,2.9,2.2c0.8,0.9,1.4,2,1.8,3.3c0.4,1.3,0.6,2.7,0.6,4.3v17.5h-6.7V78.7c0-1.7-0.4-3-1.2-3.9
			c-0.8-0.9-2-1.4-3.5-1.4c-1.2,0-2.2,0.3-3.2,0.8s-2,1.2-2.9,2.1v20L202.2,96.4L202.2,96.4z"/>
		<path class="st1" d="M254.6,96.4h-3c-0.6,0-1.1-0.1-1.5-0.3c-0.4-0.2-0.6-0.6-0.8-1.1l-0.6-2c-0.7,0.6-1.4,1.2-2.1,1.7
			s-1.4,0.9-2.1,1.2s-1.5,0.6-2.3,0.7c-0.8,0.1-1.7,0.2-2.7,0.2c-1.2,0-2.2-0.2-3.2-0.5s-1.8-0.8-2.6-1.4c-0.7-0.6-1.3-1.4-1.7-2.4
			s-0.6-2-0.6-3.3c0-1,0.3-2.1,0.8-3.1s1.5-1.9,2.7-2.8c1.3-0.8,3-1.5,5.1-2s4.8-0.8,7.9-0.8v-1.6c0-1.9-0.4-3.3-1.2-4.1
			c-0.8-0.9-1.9-1.3-3.4-1.3c-1.1,0-2,0.1-2.7,0.4c-0.7,0.3-1.3,0.5-1.9,0.9c-0.5,0.3-1,0.6-1.5,0.9s-0.9,0.4-1.5,0.4
			c-0.5,0-0.8-0.1-1.2-0.4c-0.3-0.2-0.6-0.5-0.8-0.9l-1.2-2.1c3.2-2.9,7-4.4,11.5-4.4c1.6,0,3.1,0.3,4.3,0.8
			c1.3,0.5,2.3,1.3,3.2,2.2c0.9,0.9,1.6,2.1,2,3.4c0.5,1.3,0.7,2.8,0.7,4.3v17.4H254.6z M241.6,92.2c0.7,0,1.3-0.1,1.9-0.2
			c0.6-0.1,1.1-0.3,1.6-0.6c0.5-0.3,1-0.6,1.5-0.9s1-0.8,1.4-1.3v-4.6c-1.9,0-3.6,0.1-4.9,0.4c-1.3,0.2-2.4,0.6-3.1,0.9
			c-0.8,0.4-1.4,0.8-1.7,1.3c-0.3,0.5-0.5,1.1-0.5,1.7c0,1.2,0.3,2,1,2.5C239.6,92,240.5,92.2,241.6,92.2z"/>
		<path class="st1" d="M270.2,96.8c-2.4,0-4.2-0.7-5.5-2s-1.9-3.2-1.9-5.6V73.7H260c-0.4,0-0.7-0.1-0.9-0.4
			c-0.3-0.2-0.4-0.6-0.4-1.1v-2.6l4.5-0.7l1.4-7.6c0.1-0.4,0.2-0.6,0.5-0.8s0.6-0.3,1-0.3h3.5v8.7h7.3v4.8h-7.5v15
			c0,0.9,0.2,1.5,0.6,2s1,0.7,1.7,0.7c0.4,0,0.8,0,1-0.1c0.3-0.1,0.5-0.2,0.7-0.3c0.2-0.1,0.4-0.2,0.6-0.3c0.2-0.1,0.3-0.1,0.5-0.1
			s0.4,0,0.5,0.1c0.1,0.1,0.3,0.2,0.4,0.4l2,3.2c-1,0.8-2.1,1.4-3.3,1.8C272.9,96.6,271.6,96.8,270.2,96.8z"/>
	</g>
	<path class="st1" d="M80.1,110.2c-2.9,0-4.6-1.3-5-3.4c-1.3-3.4,2.1-5.5,3.4-6.3c2.5-1.7,3.8-2.9,4.2-4.2c0-0.8-0.4-1.7-1.3-2.9
		c0,0,0-0.4-0.4-0.4c-4.2-5.5-6.3-12.2-6.3-18.9c0-17.2,14.3-31.1,31.5-31.1s31.5,13.9,31.5,31.1s-14.3,31.1-31.5,31.1
		c-2.1,0-4.2-0.4-6.3-0.8c-10.9,5.5-18.9,5.9-18.9,5.9C80.5,110.2,80.5,110.2,80.1,110.2z M88.5,88.8c2.1,2.9,2.9,6.3,2.5,9.2
		c0,0.4-0.4,1.3-0.4,1.7c2.1-0.8,4.2-1.7,6.7-2.9c0.8-0.4,1.7-0.8,2.5-0.4h0.4c1.7,0.4,3.8,0.8,5.9,0.8c12.6,0,23.1-10.1,23.1-22.7
		s-10.5-23.1-23.1-23.1S83,61.5,83,74.1c0,5,1.7,10.1,5,13.9C88.1,88.4,88.5,88.4,88.5,88.8z"/>
</g>
</svg>
