<?xml version="1.0" encoding="utf-8"?>
<!-- Generator: Adobe Illustrator 22.0.1, SVG Export Plug-In . SVG Version: 6.00 Build 0)  -->
<svg version="1.1" id="Calque_1" xmlns="http://www.w3.org/2000/svg" xmlns:xlink="http://www.w3.org/1999/xlink" x="0px" y="0px"
	 viewBox="0 0 857.1 1000" style="enable-background:new 0 0 857.1 1000;" xml:space="preserve">
<style type="text/css">
	.st0{fill:#1195F6;}
</style>
<path class="st0" d="M382.3,724.9l342.6-342.6c13.9-14,13.9-36.3,0-50.3L668,275.1c-14-13.9-36.3-13.9-50.3,0L357.1,535.7L239.4,418
	c-14-14-36.3-14-50.2,0l-56.9,56.9c-14,13.9-14,36.3,0,50.2L332,724.9C346,738.8,368.3,738.8,382.3,724.9z M857.1,232.1v535.8
	c0,88.7-71.9,160.7-160.7,160.7H160.7C72,928.6,0,856.6,0,767.9V232.1C0,143.4,72,71.4,160.7,71.4h535.7
	C785.2,71.4,857.1,143.4,857.1,232.1z"/>
</svg>
