<?xml version="1.0" encoding="utf-8"?>
<!-- Generator: Adobe Illustrator 26.2.1, SVG Export Plug-In . SVG Version: 6.00 Build 0)  -->
<svg version="1.1" id="Calque_1" xmlns="http://www.w3.org/2000/svg" xmlns:xlink="http://www.w3.org/1999/xlink" x="0px" y="0px"
	 viewBox="0 0 512 512" style="enable-background:new 0 0 512 512;" xml:space="preserve">
<style type="text/css">
	.st0{fill:#FFFFFF;}
	.st1{fill:#A31F46;}
	.st2{fill:#781628;}
	.st3{fill:#8E1A37;}
</style>
<circle class="st0" cx="256" cy="256" r="256"/>
<g id="e4a06493-15a0-4bd9-9d4c-f375ea92d0b8_1_">
	<g id="a08fb54a-4564-4f81-991c-735ebbfe3dc5_1_">
		<path d="M219.2,141c-13.4,0.3-23.9,11.4-23.6,24.8l0,0c0,13.1,10.6,23.6,23.6,23.6c13.1,0,23.6-10.6,23.6-23.6l0,0
			C243.1,152.4,232.6,141.3,219.2,141L219.2,141z M225.2,170.2c-5.5-0.2-9.8-4.9-9.6-10.4c-0.6-5.3,3.3-10.1,8.6-10.7
			c5.3-0.6,10.1,3.3,10.7,8.6c0.1,0.7,0.1,1.4,0,2.1C235.1,165.3,230.8,170,225.2,170.2L225.2,170.2z"/>
		<path d="M301.1,141c-13.4,0.3-23.9,11.4-23.6,24.8l0,0c0,13.1,10.6,23.6,23.6,23.6s23.6-10.6,23.6-23.6
			C325,152.4,314.4,141.3,301.1,141L301.1,141z M307.1,170.2c-5.7,0.4-10.7-4-11.1-9.7s4-10.7,9.7-11.1c5.7-0.4,10.7,4,11.1,9.7
			c0,0.2,0,0.4,0,0.7C317,165.3,312.6,170,307.1,170.2L307.1,170.2z"/>
		<path d="M305.1,369.7c-0.8,3.7-2.1,7.2-4,10.5c-0.8,1.2-2.4,1.6-3.6,0.8c-0.6-0.4-1-1-1.2-1.6v-0.6c-0.5-1.3-2-2-3.4-1.5
			c-0.7,0.3-1.2,0.8-1.5,1.5c-0.7,2.2-1.7,4.2-3.1,6.1c-0.8,1.2-2.4,1.5-3.6,0.7c-0.3-0.2-0.5-0.4-0.7-0.7
			c-2.4-4.7-4.3-9.8-5.5-14.9l0,0c-0.9,3.4-1.6,6.9-2.1,10.4c-0.1,1.4-1.3,2.4-2.7,2.3c-0.6-0.1-1.2-0.3-1.6-0.8
			c-3-3.3-4.9-7.4-5.3-11.9h-18c-0.5,4.2-2.3,8.2-5.2,11.3c-0.9,1-2.5,1.1-3.5,0.1c-0.4-0.4-0.7-0.9-0.8-1.5
			c-0.5-3.5-1.2-7-2.1-10.4l0,0c-1.2,5.2-3.1,10.2-5.5,14.9c-0.7,1.2-2.2,1.6-3.4,0.9c-0.4-0.2-0.7-0.5-0.9-0.9
			c-1.2-1.9-2.2-3.9-2.9-6c-0.3-1.3-1.6-2.2-3-1.9c-1,0.2-1.7,1-1.9,1.9l0,0c-0.3,1.4-1.7,2.3-3.1,2c-0.7-0.2-1.3-0.6-1.6-1.2
			c-1.8-3.3-3.1-6.8-4-10.4H104.5v20.9h303v-20.1H305.1V369.7z"/>
		<path d="M328.7,120.5c8.1-2.8,16.1-6,23.9-9.7c0.7-0.3,1.2-0.8,1.4-1.5l5.1-15.2c0.4-1.3-0.3-2.7-1.6-3.2
			c-0.7-0.2-1.4-0.2-2.1,0.2c-14.2,7.4-29.1,13.4-44.4,17.8c-16.3-7.8-34.3-11.7-52.4-11.3c-17.1-0.3-33.9,3.3-49.4,10.5
			C193.8,103.3,179,96.9,165,89c-0.9-1.1-2.5-1.2-3.6-0.3s-1.2,2.5-0.3,3.6l4.7,15.2c0.2,0.7,0.7,1.2,1.2,1.6
			c7.8,3.8,15.8,7.2,24,10.1c-23.1,19.1-37.9,51.3-37.9,98.7c0,59.5,24.1,110.8,59,135.7c1.1-2.6,2.6-4.5,4.7-4.5
			c1.5-0.1,3.1,0.3,4.3,1.2c0.9,1,2.5,1,3.5,0.1l0.1-0.1c1.3-1.8,3.3-2.9,5.5-2.8c2.3-0.2,4.5,1.2,5.3,3.4c0.7,1.2,2.2,1.6,3.4,1
			c0,0,0.1,0,0.1-0.1c1.6-0.7,3.4-1,5.1-0.8c4.4,0,5.2,5.3,4.7,18l0,0c3.7,0.5,7.5,0.8,11.3,0.8c2.1,0,4.3,0,6.4,0
			c-0.1-0.3-0.1-0.5,0-0.8c0-12.7,0-18,4.7-18c1.8-0.2,3.6,0.1,5.2,0.8c1.2,0.7,2.7,0.4,3.4-0.8l0.1-0.1c0.8-2.2,3.1-3.6,5.4-3.4
			c2.2,0,4.3,1,5.7,2.8c0.9,1,2.5,1,3.5,0.1l0.1-0.1c1.3-0.9,2.8-1.3,4.3-1.2c2.8,0,4.6,3.1,5.7,6.9c36.9-24,62.5-76.8,62.5-138.2
			C367.1,171.5,352.1,139.8,328.7,120.5z M219,315.2c-0.3,1.3-1.6,2.2-3,1.9c-1-0.2-1.7-1-1.9-1.9l-3.3-13.7l3.6,4.9
			c0.8,1.1,2.3,1.4,3.5,0.6c0.2-0.2,0.4-0.4,0.6-0.6l4-5.3L219,315.2z M230.8,278.9c-0.4,1.4-1.9,2.1-3.2,1.7
			c-0.8-0.3-1.5-0.9-1.7-1.7l-3.2-14.1l3.6,5c0.9,1.1,2.5,1.3,3.7,0.4c0.2-0.1,0.3-0.3,0.4-0.4l4-5.3L230.8,278.9z M262.8,258.6
			c-0.4,1.4-1.9,2.1-3.2,1.7c-0.8-0.3-1.5-0.9-1.7-1.7l-3.2-14.1l3.6,4.9c0.8,1.1,2.3,1.4,3.5,0.6c0.2-0.2,0.4-0.4,0.6-0.6l4-5.3
			L262.8,258.6z M294.5,279.2c-0.4,1.4-1.9,2.1-3.2,1.7c-0.8-0.3-1.5-0.9-1.7-1.7l-3.2-14.1l3.5,5c1,1.2,2.7,1.3,3.8,0.4
			c0.1-0.1,0.3-0.2,0.4-0.4l3.8-5.3L294.5,279.2z M305.8,315.5c-0.3,1.3-1.6,2.2-3,1.9c-1-0.2-1.7-1-1.9-1.9l-3.3-14.1l3.6,4.9
			c0.8,1.1,2.3,1.4,3.5,0.6c0.2-0.2,0.4-0.4,0.6-0.6l4-5.3L305.8,315.5z M332.8,212.4c-22.6,9.7-44.4,0-62.5-19.5
			c-1.4,6.2-3.9,12.1-7.5,17.4c-0.7,1.2-2.3,1.5-3.4,0.7c-0.3-0.2-0.6-0.4-0.7-0.7c-3.2-4.3-5.7-9.1-7.6-14.1
			c-19.6,19.3-42.9,28.5-65.7,17.2c-26.5-12.8-19.6-60.6,12.2-90.5c0.8-0.5,1.7-0.5,2.5,0l0,0c4.5,1.5,9.2,2.7,13.9,3.8l2.6,0.7
			l11.3,2.3l3.4,0.6c4,0.7,7.9,1.1,11.3,1.5h2c4.6,0,9.4,0.7,14.1,0.8h1.9c4,0,8,0,12.1,0h3.5c3.8,0,7.6-0.7,11.3-1.1h2.9
			c4.9-0.7,9.6-1.6,14.5-2.6l0,0c4.5-1,9.2-2.3,13.7-3.6h1.5c0.7-0.4,1.6-0.4,2.4,0c36.8,27.9,35.6,76.9,10.4,87.3L332.8,212.4z"/>
	</g>
</g>
<g>
	<g>
		<path class="st1" d="M256,51.2c75.7,0,141.7,41.4,177.2,102.5l44.4-25.6C433.3,51.6,350.8,0.1,256,0.1S78.7,51.6,34.4,128.2
			l44.4,25.6C114.3,92.6,180.3,51.2,256,51.2z"/>
	</g>
	<g>
		<path class="st2" d="M78.6,358.4c-37.8-65.5-35.1-143.4,0.2-204.7l-44.4-25.6c-44.1,76.6-47.6,173.9-0.2,256
			S167.6,511.8,256,511.9v-51.2C185.3,460.5,116.4,424,78.6,358.4z"/>
	</g>
	<g>
		<path class="st3" d="M433.4,358.4c37.8-65.5,35.1-143.4-0.2-204.7l44.4-25.6c44.1,76.6,47.6,173.9,0.2,256S344.4,511.8,256,511.9
			v-51.2C326.7,460.5,395.6,424,433.4,358.4z"/>
	</g>
</g>
</svg>
