<?xml version="1.0" encoding="utf-8"?>
<!-- Generator: Adobe Illustrator 24.0.2, SVG Export Plug-In . SVG Version: 6.00 Build 0)  -->
<svg version="1.1" id="Calque_1" xmlns="http://www.w3.org/2000/svg" xmlns:xlink="http://www.w3.org/1999/xlink" x="0px" y="0px"
	 viewBox="0 0 694.5 909" style="enable-background:new 0 0 694.5 909;" xml:space="preserve">
<style type="text/css">
	.st0{fill:#688ED8;}
</style>
<path class="st0" d="M166.4,743l41.6-41.6L100.4,593.6l-41.7,41.7v49h58.7V743H166.4L166.4,743z M406.1,317.7
	c0-6-4.1-10.1-10.1-10.1c-2.7,0-5.5,0.9-7.7,3.2L139.8,559.3c-2.3,2.3-3.2,5-3.2,7.8c0,5.9,4.1,10,10.1,10c2.7,0,5.5-0.9,7.8-3.2
	l248.4-248.4C405.2,323.2,406.1,320.4,406.1,317.7L406.1,317.7z M381.4,229.6l190.7,190.8L190.7,801.8H0V611L381.4,229.6z
	 M694.5,273.6c0,15.6-6.4,30.7-16.9,41.2L601.4,391L410.7,200.3l76.1-75.6c10.6-11,25.7-17.5,41.3-17.5c15.6,0,30.6,6.5,41.6,17.5
	l107.8,107.2C688.1,242.9,694.5,258,694.5,273.6z"/>
</svg>
