<?xml version="1.0" encoding="utf-8"?>
<!-- Generator: Adobe Illustrator 21.1.0, SVG Export Plug-In . SVG Version: 6.00 Build 0)  -->
<svg version="1.1" id="Calque_1" xmlns="http://www.w3.org/2000/svg" xmlns:xlink="http://www.w3.org/1999/xlink" x="0px" y="0px"
	 viewBox="0 0 1792 1792" style="enable-background:new 0 0 1792 1792;" xml:space="preserve">
<style type="text/css">
	.st0{fill:#F8F8F8;}
	.st1{fill:#E3E3E3;}
	.st2{fill:#487BD4;}
</style>
<g>
	<rect x="25" y="25" class="st0" width="1742" height="1742"/>
	<path class="st1" d="M1742,50v1692H50V50H1742 M1792,0H0v1792h1792V0L1792,0z"/>
</g>
<path class="st2" d="M1187.2,1270.4c0-11.3-4.1-21-12.3-29.2s-18-12.3-29.2-12.3s-21,4.1-29.2,12.3s-12.3,18-12.3,29.2
	s4.1,21,12.3,29.2s18,12.3,29.2,12.3s21-4.1,29.2-12.3S1187.2,1281.7,1187.2,1270.4z M1353.6,1270.4c0-11.3-4.1-21-12.3-29.2
	s-18-12.3-29.2-12.3s-21,4.1-29.2,12.3s-12.3,18-12.3,29.2s4.1,21,12.3,29.2s18,12.3,29.2,12.3s21-4.1,29.2-12.3
	S1353.6,1281.7,1353.6,1270.4z M1436.8,1124.8v208c0,17.3-6.1,32.1-18.2,44.2s-26.9,18.2-44.2,18.2H417.6
	c-17.3,0-32.1-6.1-44.2-18.2s-18.2-26.9-18.2-44.2v-208c0-17.3,6.1-32.1,18.2-44.2s26.9-18.2,44.2-18.2h302.2l87.8,88.4
	c25.1,24.3,54.6,36.4,88.4,36.4s63.3-12.1,88.4-36.4l88.4-88.4h301.6c17.3,0,32.1,6.1,44.2,18.2S1436.8,1107.5,1436.8,1124.8z
	 M1225.6,755c7.4,17.8,4.3,32.9-9.1,45.5l-291.2,291.2c-7.8,8.2-17.5,12.3-29.2,12.3s-21.5-4.1-29.2-12.3L575.5,800.5
	c-13.4-12.6-16.5-27.7-9.1-45.5c7.4-16.9,20.1-25.4,38.3-25.4h166.4V438.4c0-11.3,4.1-21,12.3-29.2s18-12.4,29.2-12.4h166.4
	c11.3,0,21,4.1,29.2,12.4c8.2,8.2,12.3,18,12.3,29.2v291.2h166.4C1205.4,729.6,1218.2,738,1225.6,755z"/>
</svg>
