<?xml version="1.0" encoding="utf-8"?>
<!-- Generator: Adobe Illustrator 26.0.2, SVG Export Plug-In . SVG Version: 6.00 Build 0)  -->
<svg version="1.1" id="Calque_1" xmlns="http://www.w3.org/2000/svg" xmlns:xlink="http://www.w3.org/1999/xlink" x="0px" y="0px"
	 viewBox="0 0 983.4 292" style="enable-background:new 0 0 983.4 292;" xml:space="preserve">
<style type="text/css">
	.st0{fill:url(#SVGID_1_);}
	.st1{fill:url(#SVGID_00000126286085290791710960000000040058654308464005_);}
	.st2{fill:#FFFFFF;}
	.st3{fill:#333333;}
</style>
<g>
	
		<linearGradient id="SVGID_1_" gradientUnits="userSpaceOnUse" x1="1838.3" y1="1640" x2="1838.3" y2="1348" gradientTransform="matrix(-1 0 0 1 2330 -1348)">
		<stop  offset="0" style="stop-color:#BBBBBB"/>
		<stop  offset="1" style="stop-color:#DCDCDC"/>
	</linearGradient>
	<path class="st0" d="M25,282c-8,0-15-7-15-15V25c0-8,7-15,15-15h933.5c8,0,15,7,15,15v242c0,8-7,15-15,15H25z M958.4,292
		c14,0,25-11,25-25V25c0-14-11-25-25-25H25C11,0,0,11,0,25v242c0,14,11,25,25,25H958.4z"/>
</g>
<linearGradient id="SVGID_00000065040166850021739400000004175115372290293950_" gradientUnits="userSpaceOnUse" x1="1838.25" y1="-606" x2="1838.25" y2="-334" gradientTransform="matrix(-1 0 0 -1 2330 -324)">
	<stop  offset="0" style="stop-color:#E8E8E8"/>
	<stop  offset="1" style="stop-color:#F9F9F9"/>
</linearGradient>
<path style="fill:url(#SVGID_00000065040166850021739400000004175115372290293950_);" d="M25,282c-8,0-15-7-15-15V25c0-8,7-15,15-15
	h933.5c8,0,15,7,15,15v242c0,8-7,15-15,15H25z"/>
<g>
	<path class="st2" d="M393.2,153c0,7.4-1.2,14.2-3.7,20.4s-6,11.5-10.4,16c-4.5,4.5-9.9,8-16.2,10.4c-6.3,2.5-13.3,3.7-20.9,3.7
		h-38.6V102.4H342c7.7,0,14.6,1.2,20.9,3.7s11.7,6,16.2,10.4c4.5,4.5,8,9.8,10.4,16C391.9,138.8,393.2,145.6,393.2,153z M373.9,153
		c0-5.6-0.7-10.5-2.2-14.9s-3.6-8.1-6.4-11.2c-2.8-3.1-6.1-5.4-10-7s-8.4-2.5-13.3-2.5h-19.7v71.3H342c4.9,0,9.4-0.8,13.3-2.4
		c3.9-1.6,7.3-4,10-7c2.8-3.1,4.9-6.8,6.4-11.2C373.2,163.5,373.9,158.5,373.9,153z"/>
	<path class="st2" d="M422.8,131.8v45.6c0,4.4,1,7.8,3,10.2s5.1,3.6,9.1,3.6c3,0,5.8-0.7,8.4-2s5.1-3.2,7.4-5.5v-51.9H468v71.8
		h-10.6c-2.2,0-3.7-1-4.4-3.2l-1.2-5.7c-1.5,1.5-3,2.9-4.6,4.1c-1.6,1.2-3.3,2.3-5.1,3.2c-1.8,0.9-3.7,1.5-5.8,2
		c-2.1,0.5-4.3,0.7-6.7,0.7c-3.9,0-7.4-0.7-10.4-2s-5.5-3.2-7.6-5.6c-2.1-2.4-3.6-5.3-4.7-8.6s-1.6-7-1.6-11v-45.6L422.8,131.8
		L422.8,131.8z"/>
	<path class="st2" d="M486.6,227.1v-95.3h10.6c1.1,0,2.1,0.3,2.9,0.8s1.3,1.3,1.5,2.4l1.4,6.7c2.9-3.3,6.2-6,10-8.1
		s8.2-3.1,13.2-3.1c3.9,0,7.5,0.8,10.7,2.5c3.2,1.6,6,4,8.4,7.1s4.2,6.9,5.5,11.5s1.9,9.8,1.9,15.6c0,5.4-0.7,10.3-2.2,14.9
		c-1.4,4.6-3.5,8.5-6.2,11.9s-5.9,6-9.7,7.9s-8.1,2.8-12.8,2.8c-4.1,0-7.5-0.6-10.3-1.9c-2.8-1.2-5.4-3-7.6-5.1v29.4L486.6,227.1
		L486.6,227.1z M520.2,144.1c-3.6,0-6.7,0.8-9.2,2.3s-4.9,3.7-7.1,6.4V185c2,2.4,4.1,4.1,6.4,5.1s4.8,1.4,7.5,1.4
		c2.6,0,5-0.5,7.1-1.5s3.9-2.5,5.4-4.5s2.6-4.5,3.4-7.6c0.8-3.1,1.2-6.7,1.2-10.8c0-4.2-0.3-7.8-1-10.7s-1.6-5.3-2.9-7.1
		s-2.8-3.2-4.6-4C524.5,144.5,522.4,144.1,520.2,144.1z"/>
	<path class="st2" d="M584.1,99.6v104h-17.3v-104C566.8,99.6,584.1,99.6,584.1,99.6z"/>
	<path class="st2" d="M624.7,110.8c0,1.5-0.3,2.9-0.9,4.2c-0.6,1.3-1.4,2.5-2.4,3.4c-1,1-2.2,1.8-3.5,2.3c-1.4,0.6-2.8,0.9-4.3,0.9
		s-2.9-0.3-4.2-0.9s-2.5-1.4-3.5-2.3c-1-1-1.8-2.1-2.3-3.4c-0.6-1.3-0.9-2.7-0.9-4.2s0.3-3,0.9-4.3s1.4-2.5,2.3-3.5
		c1-1,2.1-1.8,3.5-2.3c1.3-0.6,2.7-0.9,4.2-0.9s3,0.3,4.3,0.9c1.4,0.6,2.5,1.4,3.5,2.3c1,1,1.8,2.1,2.4,3.5S624.7,109.3,624.7,110.8
		z M622.1,131.8v71.8h-17.3v-71.8H622.1z"/>
	<path class="st2" d="M702.7,131.8v95.3h-17.3v-32.5c-1.4,1.5-3,2.9-4.6,4.2c-1.6,1.2-3.3,2.3-5.1,3.2s-3.8,1.5-5.8,2
		c-2.1,0.5-4.3,0.7-6.7,0.7c-3.9,0-7.5-0.8-10.8-2.5c-3.3-1.6-6.1-4-8.4-7.1c-2.4-3.1-4.2-6.9-5.5-11.5s-1.9-9.8-1.9-15.7
		c0-5.3,0.7-10.3,2.2-14.8c1.4-4.6,3.5-8.5,6.2-11.9s5.9-6,9.7-7.9s8-2.8,12.7-2.8c2.2,0,4.3,0.2,6.1,0.6s3.5,1,5.1,1.7
		s3,1.6,4.3,2.7s2.6,2.2,3.8,3.5l0.9-4c0.2-1.1,0.7-1.9,1.5-2.4s1.8-0.8,2.9-0.8H702.7z M669.1,190.9c3.6,0,6.7-0.7,9.2-2.2
		s4.9-3.6,7.1-6.4v-32.2c-2-2.4-4.1-4.1-6.4-5c-2.3-1-4.8-1.5-7.5-1.5c-2.6,0-5,0.5-7.1,1.5s-3.9,2.5-5.4,4.4
		c-1.5,2-2.6,4.5-3.4,7.6s-1.2,6.7-1.2,10.8c0,4.2,0.3,7.8,1,10.7s1.6,5.3,2.9,7.1c1.3,1.8,2.8,3.2,4.6,4S666.9,190.9,669.1,190.9z"
		/>
	<path class="st2" d="M737.2,131.8v45.6c0,4.4,1,7.8,3,10.2s5.1,3.6,9.1,3.6c3,0,5.8-0.7,8.4-2s5.1-3.2,7.4-5.5v-51.9h17.3v71.8
		h-10.6c-2.2,0-3.7-1-4.4-3.2l-1.2-5.7c-1.5,1.5-3,2.9-4.6,4.1c-1.6,1.2-3.3,2.3-5.1,3.2s-3.7,1.5-5.8,2s-4.3,0.7-6.7,0.7
		c-3.9,0-7.4-0.7-10.4-2s-5.5-3.2-7.6-5.6c-2.1-2.4-3.6-5.3-4.7-8.6c-1-3.3-1.6-7-1.6-11v-45.6L737.2,131.8L737.2,131.8z"/>
	<path class="st2" d="M830.7,130.7c4.5,0,8.7,0.7,12.5,2.2c3.8,1.4,7.1,3.6,9.8,6.3s4.9,6.2,6.4,10.2s2.3,8.6,2.3,13.8
		c0,1.3-0.1,2.4-0.2,3.3c-0.1,0.9-0.3,1.5-0.6,2s-0.7,0.8-1.2,1.1s-1.2,0.3-2,0.3h-44.4c0.5,7.4,2.5,12.8,5.9,16.2
		c3.5,3.5,8,5.2,13.7,5.2c2.8,0,5.2-0.3,7.2-1s3.8-1.4,5.3-2.2s2.8-1.5,4-2.2c1.1-0.7,2.2-1,3.3-1c0.7,0,1.3,0.1,1.8,0.4
		s1,0.7,1.3,1.2l5,6.3c-1.9,2.2-4.1,4.1-6.4,5.6c-2.4,1.5-4.9,2.7-7.5,3.6c-2.6,0.9-5.2,1.6-7.9,1.9c-2.7,0.4-5.3,0.6-7.8,0.6
		c-5,0-9.6-0.8-13.9-2.5c-4.3-1.7-8-4.1-11.2-7.4c-3.2-3.2-5.7-7.3-7.5-12c-1.8-4.8-2.7-10.3-2.7-16.6c0-4.9,0.8-9.5,2.4-13.8
		c1.6-4.3,3.9-8.1,6.8-11.3c3-3.2,6.6-5.7,10.8-7.6C820.5,131.6,825.3,130.7,830.7,130.7z M831,143.1c-5,0-9,1.4-11.8,4.3
		c-2.8,2.8-4.7,6.9-5.5,12.1h32.5c0-2.2-0.3-4.4-0.9-6.3c-0.6-2-1.5-3.7-2.8-5.2s-2.8-2.7-4.8-3.5
		C835.8,143.5,833.6,143.1,831,143.1z"/>
	<path class="st2" d="M875.8,203.6v-71.8H886c1.8,0,3,0.3,3.7,1s1.2,1.8,1.4,3.4l1.1,8.7c2.6-4.4,5.6-7.9,9-10.5s7.3-3.9,11.6-3.9
		c3.5,0,6.5,0.8,8.8,2.5l-2.2,13c-0.1,0.8-0.4,1.4-0.9,1.8c-0.5,0.3-1.1,0.5-1.9,0.5c-0.7,0-1.7-0.2-2.9-0.5s-2.8-0.5-4.8-0.5
		c-3.6,0-6.7,1-9.2,3c-2.6,2-4.7,4.9-6.5,8.7v44.7L875.8,203.6L875.8,203.6z"/>
</g>
<g>
	<path class="st3" d="M383.2,143c0,7.4-1.2,14.2-3.7,20.4s-6,11.5-10.4,16c-4.5,4.5-9.9,8-16.2,10.4c-6.3,2.5-13.3,3.7-20.9,3.7
		h-38.6V92.4H332c7.7,0,14.6,1.2,20.9,3.7s11.7,6,16.2,10.4c4.5,4.5,8,9.8,10.4,16C381.9,128.8,383.2,135.6,383.2,143z M363.9,143
		c0-5.6-0.7-10.5-2.2-14.9c-1.5-4.4-3.6-8.1-6.4-11.2s-6.1-5.4-10-7s-8.4-2.5-13.3-2.5h-19.7v71.3H332c4.9,0,9.4-0.8,13.3-2.4
		c3.9-1.6,7.3-4,10-7c2.8-3.1,4.9-6.8,6.4-11.2C363.2,153.5,363.9,148.5,363.9,143z"/>
	<path class="st3" d="M412.8,121.8v45.6c0,4.4,1,7.8,3,10.2s5.1,3.6,9.1,3.6c3,0,5.8-0.7,8.4-2s5.1-3.2,7.4-5.5v-51.9H458v71.8
		h-10.6c-2.2,0-3.7-1-4.4-3.2l-1.2-5.7c-1.5,1.5-3,2.9-4.6,4.1c-1.6,1.2-3.3,2.3-5.1,3.2c-1.8,0.9-3.7,1.5-5.8,2
		c-2.1,0.5-4.3,0.7-6.7,0.7c-3.9,0-7.4-0.7-10.4-2s-5.5-3.2-7.6-5.6c-2.1-2.4-3.6-5.3-4.7-8.6s-1.6-7-1.6-11v-45.6L412.8,121.8
		L412.8,121.8z"/>
	<path class="st3" d="M476.6,217.1v-95.3h10.6c1.1,0,2.1,0.3,2.9,0.8s1.3,1.3,1.5,2.4l1.4,6.7c2.9-3.3,6.2-6,10-8.1
		s8.2-3.1,13.2-3.1c3.9,0,7.5,0.8,10.7,2.5c3.2,1.6,6,4,8.4,7.1s4.2,6.9,5.5,11.5s1.9,9.8,1.9,15.6c0,5.4-0.7,10.3-2.2,14.9
		c-1.4,4.6-3.5,8.5-6.2,11.9s-5.9,6-9.7,7.9s-8.1,2.8-12.8,2.8c-4.1,0-7.5-0.6-10.3-1.9c-2.8-1.2-5.4-3-7.6-5.1v29.4H476.6z
		 M510.2,134.1c-3.6,0-6.7,0.8-9.2,2.3s-4.9,3.7-7.1,6.4V175c2,2.4,4.1,4.1,6.4,5.1s4.8,1.4,7.5,1.4c2.6,0,5-0.5,7.1-1.5
		s3.9-2.5,5.4-4.5s2.6-4.5,3.4-7.6c0.8-3.1,1.2-6.7,1.2-10.8c0-4.2-0.3-7.8-1-10.7s-1.6-5.3-2.9-7.1s-2.8-3.2-4.6-4
		C514.5,134.5,512.4,134.1,510.2,134.1z"/>
	<path class="st3" d="M574.1,89.6v104h-17.3v-104C556.8,89.6,574.1,89.6,574.1,89.6z"/>
	<path class="st3" d="M614.7,100.8c0,1.5-0.3,2.9-0.9,4.2c-0.6,1.3-1.4,2.5-2.4,3.4c-1,1-2.2,1.8-3.5,2.3c-1.4,0.6-2.8,0.9-4.3,0.9
		s-2.9-0.3-4.2-0.9s-2.5-1.4-3.5-2.3c-1-1-1.8-2.1-2.3-3.4c-0.6-1.3-0.9-2.7-0.9-4.2s0.3-3,0.9-4.3c0.6-1.4,1.4-2.5,2.3-3.5
		c1-1,2.1-1.8,3.5-2.3c1.3-0.6,2.7-0.9,4.2-0.9s3,0.3,4.3,0.9c1.4,0.6,2.5,1.4,3.5,2.3c1,1,1.8,2.1,2.4,3.5S614.7,99.3,614.7,100.8z
		 M612.1,121.8v71.8h-17.3v-71.8H612.1z"/>
	<path class="st3" d="M692.7,121.8v95.3h-17.3v-32.5c-1.4,1.5-3,2.9-4.6,4.2c-1.6,1.2-3.3,2.3-5.1,3.2s-3.8,1.5-5.8,2
		c-2.1,0.5-4.3,0.7-6.6,0.7c-3.9,0-7.5-0.8-10.8-2.5c-3.3-1.6-6.1-4-8.4-7.1c-2.4-3.1-4.2-6.9-5.5-11.5s-1.9-9.8-1.9-15.7
		c0-5.3,0.7-10.3,2.2-14.8c1.4-4.6,3.5-8.5,6.2-11.9c2.7-3.4,6-6,9.7-7.9c3.8-1.9,8-2.8,12.7-2.8c2.2,0,4.3,0.2,6.1,0.6
		s3.5,1,5.1,1.7s3,1.6,4.3,2.7s2.6,2.2,3.8,3.5l0.9-4c0.2-1.1,0.7-1.9,1.5-2.4s1.8-0.8,2.9-0.8L692.7,121.8L692.7,121.8z
		 M659.1,180.9c3.6,0,6.7-0.7,9.2-2.2s4.9-3.6,7.1-6.4v-32.2c-2-2.4-4.1-4.1-6.4-5c-2.3-1-4.8-1.5-7.5-1.5c-2.6,0-5,0.5-7.1,1.5
		s-3.9,2.5-5.4,4.4c-1.5,2-2.6,4.5-3.4,7.6c-0.8,3.1-1.2,6.7-1.2,10.8c0,4.2,0.3,7.8,1,10.7s1.6,5.3,2.9,7.1c1.3,1.8,2.8,3.2,4.6,4
		S656.9,180.9,659.1,180.9z"/>
	<path class="st3" d="M727.2,121.8v45.6c0,4.4,1,7.8,3,10.2s5.1,3.6,9.1,3.6c3,0,5.8-0.7,8.4-2s5.1-3.2,7.4-5.5v-51.9h17.3v71.8
		h-10.6c-2.2,0-3.7-1-4.4-3.2l-1.2-5.7c-1.5,1.5-3,2.9-4.6,4.1c-1.6,1.2-3.3,2.3-5.1,3.2s-3.7,1.5-5.8,2s-4.3,0.7-6.7,0.7
		c-3.9,0-7.4-0.7-10.4-2s-5.5-3.2-7.6-5.6c-2.1-2.4-3.6-5.3-4.7-8.6c-1-3.3-1.6-7-1.6-11v-45.6L727.2,121.8L727.2,121.8z"/>
	<path class="st3" d="M820.7,120.7c4.5,0,8.7,0.7,12.5,2.2c3.8,1.4,7.1,3.6,9.8,6.3c2.8,2.8,4.9,6.2,6.4,10.2s2.3,8.6,2.3,13.8
		c0,1.3-0.1,2.4-0.2,3.3c-0.1,0.9-0.3,1.5-0.6,2s-0.7,0.8-1.2,1.1s-1.2,0.3-2,0.3h-44.4c0.5,7.4,2.5,12.8,6,16.2
		c3.5,3.5,8,5.2,13.7,5.2c2.8,0,5.2-0.3,7.2-1s3.8-1.4,5.3-2.2s2.8-1.5,4-2.2c1.1-0.7,2.2-1,3.3-1c0.7,0,1.3,0.1,1.8,0.4
		c0.5,0.3,1,0.7,1.3,1.2l5,6.3c-1.9,2.2-4.1,4.1-6.4,5.6c-2.4,1.5-4.9,2.7-7.5,3.6c-2.6,0.9-5.2,1.6-7.9,1.9
		c-2.7,0.4-5.3,0.6-7.8,0.6c-5,0-9.6-0.8-13.9-2.5c-4.3-1.7-8-4.1-11.2-7.4c-3.2-3.2-5.7-7.3-7.5-12c-1.8-4.8-2.7-10.3-2.7-16.6
		c0-4.9,0.8-9.5,2.4-13.8c1.6-4.3,3.9-8.1,6.8-11.3c3-3.2,6.6-5.7,10.8-7.6C810.5,121.6,815.3,120.7,820.7,120.7z M821,133.1
		c-5,0-9,1.4-11.8,4.3c-2.8,2.8-4.7,6.9-5.5,12.1h32.5c0-2.2-0.3-4.4-0.9-6.3c-0.6-2-1.5-3.7-2.8-5.2s-2.8-2.7-4.8-3.5
		C825.8,133.5,823.6,133.1,821,133.1z"/>
	<path class="st3" d="M865.8,193.6v-71.8H876c1.8,0,3,0.3,3.7,1s1.2,1.8,1.4,3.4l1,8.7c2.6-4.4,5.6-7.9,9-10.5
		c3.5-2.6,7.3-3.9,11.6-3.9c3.5,0,6.5,0.8,8.8,2.5l-2.2,13c-0.1,0.8-0.4,1.4-0.9,1.8c-0.5,0.3-1.1,0.5-1.9,0.5
		c-0.7,0-1.7-0.2-2.9-0.5s-2.8-0.5-4.8-0.5c-3.6,0-6.7,1-9.2,3c-2.6,2-4.7,4.9-6.5,8.7v44.7L865.8,193.6L865.8,193.6z"/>
</g>
<g>
	<path class="st2" d="M192.7,80h-82.2c-7.5,0-13.7,6.2-13.7,13.7v95.9h13.7V93.7h82.2V80z M213.3,107.4h-75.4
		c-7.5,0-13.7,6.2-13.7,13.7v95.9c0,7.5,6.2,13.7,13.7,13.7h75.4c7.5,0,13.7-6.2,13.7-13.7v-95.9
		C226.9,113.5,220.8,107.4,213.3,107.4L213.3,107.4z M213.3,216.9h-75.4v-95.9h75.4V216.9L213.3,216.9z"/>
	<path class="st3" d="M184.1,71.4h-82.2c-7.5,0-13.7,6.2-13.7,13.7v95.9h13.7V85.1h82.2V71.4z M204.6,98.7h-75.4
		c-7.5,0-13.7,6.2-13.7,13.7v95.9c0,7.5,6.2,13.7,13.7,13.7h75.4c7.5,0,13.7-6.2,13.7-13.7v-95.9C218.2,104.8,212.2,98.7,204.6,98.7
		L204.6,98.7z M204.6,208.3h-75.4v-95.9h75.4V208.3z"/>
</g>
</svg>
