<?xml version="1.0" encoding="utf-8"?>
<!-- Generator: Adobe Illustrator 26.5.0, SVG Export Plug-In . SVG Version: 6.00 Build 0)  -->
<svg version="1.1" id="Calque_1" xmlns="http://www.w3.org/2000/svg" xmlns:xlink="http://www.w3.org/1999/xlink" x="0px" y="0px"
	 viewBox="0 0 1070 292" style="enable-background:new 0 0 1070 292;" xml:space="preserve">
<style type="text/css">
	.st0{fill:url(#SVGID_1_);}
	.st1{fill:url(#SVGID_00000111894013836877360080000007355500070554602930_);}
	.st2{fill:#FFFFFF;}
	.st3{fill:#333333;}
	.st4{fill:#3A3A3A;}
</style>
<g>
	
		<linearGradient id="SVGID_1_" gradientUnits="userSpaceOnUse" x1="1722.2" y1="-934" x2="1722.2" y2="-642" gradientTransform="matrix(-1 0 0 -1 2258 -642)">
		<stop  offset="0" style="stop-color:#BBBBBB"/>
		<stop  offset="1" style="stop-color:#DCDCDC"/>
	</linearGradient>
	<path class="st0" d="M25.8,282c-8,0-15-7-15-15V25c0-8,7-15,15-15h1020.1c8,0,15,7,15,15v242c0,8-7,15-15,15H25.8z M1045.8,292
		c14,0,25-11,25-25V25c0-14-11-25-25-25H25.8c-14,0-25,11-25,25v242c0,14,11,25,25,25H1045.8z"/>
</g>
<linearGradient id="SVGID_00000005227305476688991470000002445793348596564096_" gradientUnits="userSpaceOnUse" x1="1723.05" y1="694" x2="1723.05" y2="422" gradientTransform="matrix(-1 0 0 1 2258 -412)">
	<stop  offset="0" style="stop-color:#E8E8E8"/>
	<stop  offset="1" style="stop-color:#F9F9F9"/>
</linearGradient>
<path style="fill:url(#SVGID_00000005227305476688991470000002445793348596564096_);" d="M24.9,282c-8,0-15-7-15-15V25
	c0-8,7-15,15-15H1045c8,0,15,7,15,15v242c0,8-7,15-15,15H24.9z"/>
<g>
	<path class="st2" d="M388.1,102.4v15h-44.9v28.1h35.4V160h-35.4v28.6h44.9v15h-63.8V102.4H388.1z"/>
	<path class="st2" d="M420.5,166.6l-23.6-34.8h16.7c1.3,0,2.2,0.2,2.8,0.5c0.6,0.3,1.1,0.9,1.6,1.7l15,24c0.2-0.8,0.5-1.6,0.9-2.4
		c0.4-0.8,0.8-1.6,1.3-2.4l12.1-18.9c0.6-0.9,1.1-1.5,1.8-2c0.6-0.4,1.4-0.6,2.2-0.6h15.9l-23.7,34l24.6,37.8h-16.7
		c-1.3,0-2.3-0.3-3-1c-0.8-0.7-1.4-1.4-1.9-2.2l-15.3-25c-0.4,1.7-1,3.1-1.8,4.2L416,200.3c-0.5,0.8-1.1,1.5-1.9,2.2
		c-0.7,0.7-1.7,1-2.8,1h-15.5L420.5,166.6z"/>
	<path class="st2" d="M479.1,227.1v-95.3h10.6c1.1,0,2.1,0.3,2.9,0.8s1.3,1.3,1.5,2.4l1.4,6.7c2.9-3.3,6.2-6,10-8.1
		s8.2-3.1,13.2-3.1c3.9,0,7.5,0.8,10.7,2.5c3.2,1.6,6,4,8.4,7.1s4.2,6.9,5.5,11.5c1.3,4.5,1.9,9.8,1.9,15.6c0,5.4-0.7,10.3-2.2,14.9
		c-1.4,4.6-3.5,8.5-6.2,11.9s-5.9,6-9.7,7.9s-8.1,2.8-12.8,2.8c-4.1,0-7.5-0.6-10.3-1.9c-2.8-1.2-5.4-3-7.6-5.1v29.4L479.1,227.1
		L479.1,227.1z M512.7,144.1c-3.6,0-6.7,0.8-9.2,2.3s-4.9,3.7-7.1,6.4V185c2,2.4,4.1,4.1,6.4,5.1s4.8,1.4,7.5,1.4
		c2.6,0,5-0.5,7.1-1.5s3.9-2.5,5.4-4.5s2.6-4.5,3.4-7.6c0.8-3.1,1.2-6.7,1.2-10.8c0-4.2-0.3-7.8-1-10.7s-1.6-5.3-2.9-7.1
		c-1.3-1.8-2.8-3.2-4.6-4C517,144.5,515,144.1,512.7,144.1z"/>
	<path class="st2" d="M588.9,130.7c5.4,0,10.2,0.9,14.6,2.6c4.4,1.7,8.1,4.2,11.2,7.3c3.1,3.2,5.5,7,7.1,11.6
		c1.7,4.6,2.5,9.7,2.5,15.3c0,5.7-0.8,10.8-2.5,15.4c-1.7,4.6-4.1,8.5-7.1,11.7s-6.8,5.7-11.2,7.4s-9.2,2.6-14.6,2.6
		c-5.4,0-10.2-0.9-14.6-2.6c-4.4-1.7-8.1-4.2-11.2-7.4c-3.1-3.2-5.5-7.1-7.2-11.7c-1.7-4.6-2.6-9.7-2.6-15.4
		c0-5.6,0.9-10.8,2.6-15.3c1.7-4.6,4.1-8.4,7.2-11.6c3.1-3.2,6.8-5.6,11.2-7.3C578.7,131.5,583.5,130.7,588.9,130.7z M588.9,191.4
		c6,0,10.4-2,13.3-6s4.3-9.9,4.3-17.6c0-7.7-1.4-13.6-4.3-17.7c-2.9-4.1-7.3-6.1-13.3-6.1c-6.1,0-10.5,2-13.4,6.1s-4.3,10-4.3,17.7
		s1.4,13.6,4.3,17.6C578.3,189.3,582.8,191.4,588.9,191.4z"/>
	<path class="st2" d="M637.8,203.6v-71.8H648c1.8,0,3,0.3,3.7,1s1.2,1.8,1.4,3.4l1,8.7c2.6-4.4,5.6-7.9,9-10.5
		c3.5-2.6,7.3-3.9,11.6-3.9c3.5,0,6.5,0.8,8.8,2.5l-2.2,13c-0.1,0.8-0.4,1.4-0.9,1.8c-0.5,0.3-1.1,0.5-1.9,0.5
		c-0.7,0-1.7-0.2-2.9-0.5s-2.8-0.5-4.8-0.5c-3.6,0-6.7,1-9.2,3c-2.6,2-4.7,4.9-6.5,8.7v44.7L637.8,203.6L637.8,203.6z"/>
	<path class="st2" d="M718.6,204.7c-6.2,0-11-1.8-14.4-5.3s-5-8.4-5-14.6v-40.1h-7.3c-0.9,0-1.7-0.3-2.4-0.9c-0.7-0.6-1-1.5-1-2.7
		v-6.9l11.5-1.9l3.6-19.6c0.2-0.9,0.6-1.7,1.3-2.2s1.5-0.8,2.6-0.8h9v22.6h18.9v12.3h-18.9v38.9c0,2.2,0.6,4,1.7,5.2
		c1.1,1.3,2.6,1.9,4.5,1.9c1.1,0,2-0.1,2.7-0.4c0.7-0.3,1.4-0.5,1.9-0.8s1-0.5,1.4-0.8s0.8-0.4,1.3-0.4s0.9,0.1,1.3,0.4
		c0.3,0.3,0.7,0.6,1,1.2l5.2,8.4c-2.5,2.1-5.4,3.7-8.7,4.8C725.5,204.2,722.1,204.7,718.6,204.7z"/>
	<path class="st2" d="M778.9,130.7c4.5,0,8.7,0.7,12.5,2.2s7.1,3.6,9.8,6.3c2.8,2.8,4.9,6.2,6.4,10.2s2.3,8.6,2.3,13.8
		c0,1.3-0.1,2.4-0.2,3.3c-0.1,0.9-0.3,1.5-0.6,2s-0.7,0.8-1.2,1.1s-1.2,0.3-2,0.3h-44.4c0.5,7.4,2.5,12.8,6,16.2
		c3.5,3.5,8,5.2,13.7,5.2c2.8,0,5.2-0.3,7.2-1s3.8-1.4,5.3-2.2s2.8-1.5,4-2.2c1.1-0.7,2.2-1,3.3-1c0.7,0,1.3,0.1,1.8,0.4
		c0.5,0.3,1,0.7,1.3,1.2l5,6.3c-1.9,2.2-4.1,4.1-6.4,5.6c-2.4,1.5-4.9,2.7-7.5,3.6c-2.6,0.9-5.2,1.6-7.9,1.9
		c-2.7,0.4-5.3,0.6-7.8,0.6c-5,0-9.6-0.8-13.9-2.5c-4.3-1.7-8-4.1-11.2-7.4c-3.2-3.2-5.7-7.3-7.5-12c-1.8-4.8-2.7-10.3-2.7-16.6
		c0-4.9,0.8-9.5,2.4-13.8c1.6-4.3,3.9-8.1,6.8-11.3c3-3.2,6.6-5.7,10.8-7.6S773.5,130.7,778.9,130.7z M779.2,143.1
		c-5,0-9,1.4-11.8,4.3c-2.8,2.8-4.7,6.9-5.5,12.1h32.5c0-2.2-0.3-4.4-0.9-6.3c-0.6-2-1.5-3.7-2.8-5.2s-2.8-2.7-4.8-3.5
		C784,143.5,781.8,143.1,779.2,143.1z"/>
	<path class="st2" d="M824,203.6v-71.8h10.1c1.8,0,3,0.3,3.7,1s1.2,1.8,1.4,3.4l1,8.7c2.6-4.4,5.6-7.9,9-10.5
		c3.5-2.6,7.3-3.9,11.6-3.9c3.5,0,6.5,0.8,8.8,2.5l-2.2,13c-0.1,0.8-0.4,1.4-0.9,1.8c-0.5,0.3-1.1,0.5-1.9,0.5
		c-0.7,0-1.7-0.2-2.9-0.5s-2.8-0.5-4.8-0.5c-3.6,0-6.7,1-9.2,3c-2.6,2-4.7,4.9-6.5,8.7v44.7L824,203.6L824,203.6z"/>
</g>
<g>
	<path class="st3" d="M378.1,92.4v15h-44.9v28.1h35.4V150h-35.4v28.6h44.9v15h-63.8V92.4H378.1z"/>
	<path class="st3" d="M410.5,156.6l-23.6-34.8h16.7c1.3,0,2.2,0.2,2.8,0.5c0.6,0.3,1.1,0.9,1.6,1.7l15,24c0.2-0.8,0.5-1.6,0.9-2.4
		c0.4-0.8,0.8-1.6,1.3-2.4l12.1-18.9c0.6-0.9,1.1-1.5,1.8-2c0.6-0.4,1.4-0.6,2.2-0.6h15.9l-23.7,34l24.6,37.8h-16.7
		c-1.3,0-2.3-0.3-3-1c-0.8-0.7-1.4-1.4-1.9-2.2l-15.3-25c-0.4,1.7-1,3.1-1.8,4.2L406,190.3c-0.5,0.8-1.1,1.5-1.9,2.2
		c-0.7,0.7-1.7,1-2.8,1h-15.5L410.5,156.6z"/>
	<path class="st3" d="M469.1,217.1v-95.3h10.6c1.1,0,2.1,0.3,2.9,0.8s1.3,1.3,1.5,2.4l1.4,6.7c2.9-3.3,6.2-6,10-8.1
		s8.2-3.1,13.2-3.1c3.9,0,7.5,0.8,10.7,2.5c3.2,1.6,6,4,8.4,7.1s4.2,6.9,5.5,11.5c1.3,4.5,1.9,9.8,1.9,15.6c0,5.4-0.7,10.3-2.2,14.9
		c-1.4,4.6-3.5,8.5-6.2,11.9s-5.9,6-9.7,7.9s-8.1,2.8-12.8,2.8c-4.1,0-7.5-0.6-10.3-1.9c-2.8-1.2-5.4-3-7.6-5.1v29.4H469.1z
		 M502.7,134.1c-3.6,0-6.7,0.8-9.2,2.3s-4.9,3.7-7.1,6.4V175c2,2.4,4.1,4.1,6.4,5.1s4.8,1.4,7.5,1.4c2.6,0,5-0.5,7.1-1.5
		s3.9-2.5,5.4-4.5s2.6-4.5,3.4-7.6c0.8-3.1,1.2-6.7,1.2-10.8c0-4.2-0.3-7.8-1-10.7s-1.6-5.3-2.9-7.1c-1.3-1.8-2.8-3.2-4.6-4
		C507,134.5,505,134.1,502.7,134.1z"/>
	<path class="st3" d="M578.9,120.7c5.4,0,10.2,0.9,14.6,2.6c4.4,1.7,8.1,4.2,11.2,7.3c3.1,3.2,5.5,7,7.1,11.6
		c1.7,4.6,2.5,9.7,2.5,15.3c0,5.7-0.8,10.8-2.5,15.4c-1.7,4.6-4.1,8.5-7.1,11.7s-6.8,5.7-11.2,7.4s-9.2,2.6-14.6,2.6
		c-5.4,0-10.2-0.9-14.6-2.6c-4.4-1.7-8.1-4.2-11.2-7.4c-3.1-3.2-5.5-7.1-7.2-11.7c-1.7-4.6-2.6-9.7-2.6-15.4
		c0-5.6,0.9-10.8,2.6-15.3c1.7-4.6,4.1-8.4,7.2-11.6c3.1-3.2,6.8-5.6,11.2-7.3C568.7,121.5,573.5,120.7,578.9,120.7z M578.9,181.4
		c6,0,10.4-2,13.3-6s4.3-9.9,4.3-17.6c0-7.7-1.4-13.6-4.3-17.7c-2.9-4.1-7.3-6.1-13.3-6.1c-6.1,0-10.5,2-13.4,6.1s-4.3,10-4.3,17.7
		s1.4,13.6,4.3,17.6C568.3,179.3,572.8,181.4,578.9,181.4z"/>
	<path class="st3" d="M627.8,193.6v-71.8H638c1.8,0,3,0.3,3.7,1s1.2,1.8,1.4,3.4l1,8.7c2.6-4.4,5.6-7.9,9-10.5
		c3.5-2.6,7.3-3.9,11.6-3.9c3.5,0,6.5,0.8,8.8,2.5l-2.2,13c-0.1,0.8-0.4,1.4-0.9,1.8c-0.5,0.3-1.1,0.5-1.9,0.5
		c-0.7,0-1.7-0.2-2.9-0.5s-2.8-0.5-4.8-0.5c-3.6,0-6.7,1-9.2,3c-2.6,2-4.7,4.9-6.5,8.7v44.7L627.8,193.6L627.8,193.6z"/>
	<path class="st3" d="M708.6,194.7c-6.2,0-11-1.8-14.4-5.3s-5-8.4-5-14.6v-40.1h-7.3c-0.9,0-1.7-0.3-2.4-0.9c-0.7-0.6-1-1.5-1-2.7
		v-6.9l11.5-1.9l3.6-19.6c0.2-0.9,0.6-1.7,1.3-2.2s1.5-0.8,2.6-0.8h9v22.6h18.9v12.3h-18.9v38.9c0,2.2,0.6,4,1.7,5.2
		c1.1,1.3,2.6,1.9,4.5,1.9c1.1,0,2-0.1,2.7-0.4c0.7-0.3,1.4-0.5,1.9-0.8s1-0.5,1.4-0.8s0.8-0.4,1.3-0.4s0.9,0.1,1.3,0.4
		c0.3,0.3,0.7,0.6,1,1.2l5.2,8.4c-2.5,2.1-5.4,3.7-8.7,4.8C715.5,194.2,712.1,194.7,708.6,194.7z"/>
	<path class="st3" d="M768.9,120.7c4.5,0,8.7,0.7,12.5,2.2s7.1,3.6,9.8,6.3c2.8,2.8,4.9,6.2,6.4,10.2s2.3,8.6,2.3,13.8
		c0,1.3-0.1,2.4-0.2,3.3c-0.1,0.9-0.3,1.5-0.6,2s-0.7,0.8-1.2,1.1s-1.2,0.3-2,0.3h-44.4c0.5,7.4,2.5,12.8,6,16.2
		c3.5,3.5,8,5.2,13.7,5.2c2.8,0,5.2-0.3,7.2-1s3.8-1.4,5.3-2.2s2.8-1.5,4-2.2c1.1-0.7,2.2-1,3.3-1c0.7,0,1.3,0.1,1.8,0.4
		c0.5,0.3,1,0.7,1.3,1.2l5,6.3c-1.9,2.2-4.1,4.1-6.4,5.6c-2.4,1.5-4.9,2.7-7.5,3.6c-2.6,0.9-5.2,1.6-7.9,1.9
		c-2.7,0.4-5.3,0.6-7.8,0.6c-5,0-9.6-0.8-13.9-2.5c-4.3-1.7-8-4.1-11.2-7.4c-3.2-3.2-5.7-7.3-7.5-12c-1.8-4.8-2.7-10.3-2.7-16.6
		c0-4.9,0.8-9.5,2.4-13.8c1.6-4.3,3.9-8.1,6.8-11.3c3-3.2,6.6-5.7,10.8-7.6S763.5,120.7,768.9,120.7z M769.2,133.1
		c-5,0-9,1.4-11.8,4.3c-2.8,2.8-4.7,6.9-5.5,12.1h32.5c0-2.2-0.3-4.4-0.9-6.3c-0.6-2-1.5-3.7-2.8-5.2s-2.8-2.7-4.8-3.5
		C774,133.5,771.8,133.1,769.2,133.1z"/>
	<path class="st3" d="M814,193.6v-71.8h10.1c1.8,0,3,0.3,3.7,1s1.2,1.8,1.4,3.4l1,8.7c2.6-4.4,5.6-7.9,9-10.5
		c3.5-2.6,7.3-3.9,11.6-3.9c3.5,0,6.5,0.8,8.8,2.5l-2.2,13c-0.1,0.8-0.4,1.4-0.9,1.8c-0.5,0.3-1.1,0.5-1.9,0.5
		c-0.7,0-1.7-0.2-2.9-0.5s-2.8-0.5-4.8-0.5c-3.6,0-6.7,1-9.2,3c-2.6,2-4.7,4.9-6.5,8.7v44.7L814,193.6L814,193.6z"/>
</g>
<path class="st2" d="M218,213.3c0-3.5-2.9-6.4-6.4-6.4s-6.4,2.9-6.4,6.4s2.9,6.4,6.4,6.4S218,216.8,218,213.3z M243.4,213.3
	c0-3.5-2.9-6.4-6.4-6.4s-6.4,2.9-6.4,6.4s2.9,6.4,6.4,6.4S243.4,216.8,243.4,213.3z M256.2,191v31.8c0,5.3-4.3,9.5-9.6,9.5H100.2
	c-5.3,0-9.6-4.3-9.6-9.5V191c0-5.3,4.3-9.6,9.6-9.6h46.3l13.4,13.5c3.7,3.6,8.5,5.6,13.5,5.6s9.8-2,13.5-5.6l13.5-13.5h46.2
	C251.9,181.5,256.2,185.7,256.2,191z M223.8,134.4c1,2.4,0.5,5.2-1.4,7L177.8,186c-1.2,1.3-2.9,1.9-4.5,1.9s-3.3-0.6-4.5-1.9
	l-44.6-44.6c-1.9-1.8-2.4-4.6-1.4-7c1-2.3,3.3-3.9,5.9-3.9h25.5V86c0-3.5,2.9-6.4,6.4-6.4h25.5c3.5,0,6.4,2.9,6.4,6.4v44.6H218
	C220.6,130.5,222.8,132.1,223.8,134.4z"/>
<path class="st4" d="M208,203.3c0-3.5-2.9-6.4-6.4-6.4s-6.4,2.9-6.4,6.4s2.9,6.4,6.4,6.4S208,206.8,208,203.3z M233.4,203.3
	c0-3.5-2.9-6.4-6.4-6.4s-6.4,2.9-6.4,6.4s2.9,6.4,6.4,6.4S233.4,206.8,233.4,203.3z M246.2,181v31.8c0,5.3-4.3,9.5-9.6,9.5H90.2
	c-5.3,0-9.6-4.3-9.6-9.5V181c0-5.3,4.3-9.6,9.6-9.6h46.3l13.4,13.5c3.7,3.6,8.5,5.6,13.5,5.6s9.8-2,13.5-5.6l13.5-13.5h46.2
	C241.9,171.5,246.2,175.7,246.2,181z M213.8,124.4c1,2.4,0.5,5.2-1.4,7L167.8,176c-1.2,1.3-2.9,1.9-4.5,1.9s-3.3-0.6-4.5-1.9
	l-44.6-44.6c-1.9-1.8-2.4-4.6-1.4-7c1-2.3,3.3-3.9,5.9-3.9h25.5V76c0-3.5,2.9-6.4,6.4-6.4h25.5c3.5,0,6.4,2.9,6.4,6.4v44.6H208
	C210.6,120.5,212.8,122.1,213.8,124.4z"/>
<path class="st2" d="M1012.3,134.8c0,1.4-0.6,2.7-1.6,3.7l-36.8,36.8c-1,1-2.3,1.6-3.7,1.6s-2.7-0.6-3.7-1.6l-36.8-36.8
	c-1-1-1.6-2.3-1.6-3.7c0-2.9,2.4-5.3,5.2-5.3h73.5C1009.9,129.6,1012.3,132,1012.3,134.8z"/>
<path class="st3" d="M1002.3,124.8c0,1.4-0.6,2.7-1.6,3.7l-36.8,36.8c-1,1-2.3,1.6-3.7,1.6s-2.7-0.6-3.7-1.6l-36.8-36.8
	c-1-1-1.6-2.3-1.6-3.7c0-2.9,2.4-5.3,5.2-5.3h73.5C999.9,119.6,1002.3,122,1002.3,124.8z"/>
</svg>
