<?xml version="1.0" encoding="utf-8"?>
<!-- Generator: Adobe Illustrator 26.0.2, SVG Export Plug-In . SVG Version: 6.00 Build 0)  -->
<svg version="1.1" id="Calque_1" xmlns="http://www.w3.org/2000/svg" xmlns:xlink="http://www.w3.org/1999/xlink" x="0px" y="0px"
	 viewBox="0 0 800 711.1868896" style="enable-background:new 0 0 800 711.1868896;" xml:space="preserve">
<style type="text/css">
	.st0{fill:#FCD79E;}
</style>
<path class="st0" d="M307.6000061,125.5934525l0.5-0.3000031c-16.1000061-84.1999969-97.5-139.5-181.8000031-123.4000015
	C53,15.9934511-0.1,79.993454,0,154.6934509V710.293396h177.8000031V360.9934387
	c0-13.7999878,3.1999969-27.3999939,9.3999939-39.7000122l77.0999908-154.1000061
	C273.3999939,148.6934509,288.7999878,134.0934448,307.6000061,125.5934525L307.6000061,125.5934525z M795.2999878,341.0934448
	l-77.0999756-154.1000061c-4.5999756-9.1999969-12.2999878-16.5-21.7000122-20.6999969L529.0999756,91.9934464
	c-11.5-5.1000061-24.6000061-5.1000061-36.1000061,0l-167.3999939,74.2999954
	c-9.3999939,4.1999969-17.1000061,11.6000061-21.7000122,20.6999969l-77.1000061,154.1000061
	c-3.1000061,6.1000061-4.6999969,13-4.6999969,19.7999878v349.2999878H400V576.8934326h222.2000122v133.2999878H800V360.9934387
	C800,354.0934448,798.4000244,347.293457,795.2999878,341.0934448z M577.7999878,443.5934448H444.3999939V310.293457h133.3000183
	v133.2999878H577.7999878z"/>
</svg>
