<?xml version="1.0" encoding="utf-8"?>
<!-- Generator: Adobe Illustrator 24.3.0, SVG Export Plug-In . SVG Version: 6.00 Build 0)  -->
<svg version="1.1" id="Calque_1" xmlns="http://www.w3.org/2000/svg" xmlns:xlink="http://www.w3.org/1999/xlink" x="0px" y="0px"
	 viewBox="0 0 1000 1000" style="enable-background:new 0 0 1000 1000;" xml:space="preserve">
<style type="text/css">
	.st0{fill:#FFFFFF;}
</style>
<path class="st0" d="M782.2,0c-98,28.2-237.8,147.5-272.3,249.3l17.1,11.2c4.2-18.1,21.9-46.1,40.4-67.6
	c22.8,6.6,18.5,34.9,27.6,52.5c-13.2,19.6-37.1,40.4-39.6,51.7c21.3,31.1,14.2,63.7,13.4,76.5c48.2-12.4,84.2-21.7,129.3,20.6
	c40.9,38.4,29.6,68.8,27.3,112.4l44.2,24.8c0,0,23.3-60.3,17-81.9c-11.4-39.7-21.2-60.6-26.8-70.6c11.4,17.1,40.1,57.6,65.5,68.8
	c52.7,23.3,174.7,3.5,174.7,3.5s-6.1-137.3-55.7-177.9c-37.8-30.9-148.7-20.9-148.7-20.9c71.4-10.3,99.9-35.9,141.2-73.2
	c0,0-103.5-83.7-185.7-76.8c-82.3,6.9-136.9,117.2-136.9,117.2L594.8,172c39-65.7,102-124,207.9-117.9L782.2,0L782.2,0z M340.9,83.7
	c-25.5,0.1-51.3,10.5-77.5,34.9c-50.6,49-58.4,121.9-17.4,162.7c34.9,34.9,93.9,35.2,141.9,4.2c-15,14.4-27.5,32.7-35.7,53.9
	c-3.3,8.4-5.7,16.9-7.4,25.3c-4.5-19.4-13.6-36.7-26.7-49.9c-6.8-0.4-14.2-1.4-21.9-3c-24.8-5.1-44.2-14.8-47.5-23.2
	c-45.2,2.6-90.2,36.9-110.2,88.5c-25.2,65.2-1.1,133.4,54.1,152.4c32.9,11.3,69.5,2.5,98.9-20.4c-15.1,14.4-27.7,32.8-36,54.2
	c-2.5,6.4-4.5,12.8-6,19.2c-4.9-16.8-13.4-31.8-25.1-43.5c-6.8-0.5-14.2-1.4-21.9-3c-24.8-5.2-44.2-14.9-47.5-23.3
	c-45.2,2.7-90.2,36.9-110.2,88.5c-25.2,65.2-1,133.4,54.1,152.4c55.1,18.9,120.2-18.5,145.5-83.7c2.5-6.4,4.5-12.9,6-19.3
	c8.9,30.5,29.6,54.9,59.1,65.1c38.7,13.2,82.2-1.2,113.5-33.4c-0.4,1-0.8,2-1.2,3.1c-25.3,65.2-1.1,133.4,54,152.3
	c55.1,19,120.2-18.5,145.5-83.7c19.2-49.5,9.8-100.8-19.9-130.9c-6.8-0.4-14.2-1.4-22-3c-24.7-5.1-44.2-14.9-47.5-23.2
	c-28.1,1.6-56.1,15.5-78.1,38.1c0.5-1,0.9-2,1.3-3c19.2-49.6,9.8-100.9-20-131c-6.8-0.4-14.2-1.4-21.9-3
	c-24.8-5.1-44.2-14.8-47.5-23.2c-22.2,1.3-44.3,10.2-63.5,25.1c15.1-14.4,27.6-32.8,35.9-54.1c3.3-8.5,5.7-17,7.3-25.4
	c7.8,33.4,29.2,60.5,60.8,71.4c33.9,11.6,71.6,2,101.4-22.3c-18.7,61.7,5.7,123.6,57.8,141.5c28.6,9.9,59.9,4.5,86.9-12
	c-12,20.3-19,45-19,71.7c0.1,69.4,47.7,125.7,106.4,125.8c58.7,0,106.3-56.1,106.2-125.5c-0.1-52.7-27.6-97.9-66.6-116.6
	c-6.5,1.8-13.8,3.3-21.7,4.3c-25.1,3.1-46.9,0.3-53.1-6.6c-2.8,1.2-5.6,2.5-8.4,4c5.8-8.8,10.8-18.4,14.8-28.8
	c19.2-49.5,9.9-100.8-19.9-130.9c-18.3-25.2-53.5-21.9-69.4-26.2c-23.2,1.3-46.4,11-66.1,27.1c14-46,3.9-92.2-23.7-120.1
	c-10.4-18.9-35.7-24.5-69.4-26.3c-18.2,1.1-36.3,7.3-52.7,17.6c0.6-0.6,1.3-1.2,1.9-1.9c38.4-37.2,52.1-88.2,38.5-128.5
	C414.6,105.6,378.2,83.6,340.9,83.7L340.9,83.7z M367.8,93.2c3.1,0,4.8,0.1,4.8,0.1s-41.6,13.4-73.8,33.2
	c-42.6,26.2-63.1,83.8-63.1,83.8s4.1-57.2,50.2-92C315.9,95.8,354.4,93.3,367.8,93.2L367.8,93.2z M441.5,270.3
	c0,0-32.4,29.7-53.4,61c-27.8,41.6-21.8,101.6-21.8,101.6s-20.9-52.7,6.5-103.3C394.6,289.1,441.5,270.3,441.5,270.3z M227.8,308
	c0,0-32.4,29.6-53.4,61c-27.8,41.5-21.8,101.6-21.8,101.6s-20.9-52.7,6.5-103.4C181,326.8,227.8,308,227.8,308L227.8,308z
	 M600.7,389.5c0,0-32.4,29.7-53.4,61.1c-27.8,41.5-21.9,101.5-21.9,101.5s-20.8-52.7,6.5-103.3C553.8,408.3,600.7,389.5,600.7,389.5
	L600.7,389.5z M344.8,494.2c0,0-32.4,29.6-53.4,61c-27.8,41.5-21.8,101.6-21.8,101.6s-20.9-52.7,6.5-103.4
	C297.9,513,344.8,494.2,344.8,494.2L344.8,494.2z M134.1,532.1c0,0-32.4,29.7-53.4,61c-27.8,41.6-21.8,101.6-21.8,101.6
	S38.1,642,65.4,591.4C87.3,550.9,134.1,532.1,134.1,532.1z M692,577c0,0-19.7,38.4-27.9,74.6C653.2,699.5,680.7,754,680.7,754
	s-38.8-42.8-31.6-99.2C654.8,609.8,692,577,692,577z M511.1,616.2c0,0-32.5,29.7-53.4,61.1c-27.8,41.5-21.9,101.6-21.9,101.6
	s-20.8-52.7,6.5-103.4C464.2,635,511.1,616.2,511.1,616.2L511.1,616.2z M292.9,717.8c-42.5,14.7-75.1,59.7-78.5,114.5
	c-4.2,69.2,39.8,128.1,98.4,131.4c58.6,3.3,109.5-50.2,113.8-119.4c3.2-52.7-21.4-99.3-59.2-120.1c-6.6,1.5-14,2.5-21.9,3.1
	C320.2,729,298.6,724.9,292.9,717.8L292.9,717.8z M278.8,742c0,0-22,37.2-32.5,72.9C232.4,862.1,256.5,918,256.5,918
	s-36.1-44.8-25.4-100.7C239.7,772.6,278.8,742,278.8,742L278.8,742z M86.2,753C42.9,765.4,7.7,808.6,1.1,863.1
	c-8.4,69,32.1,130,90.4,136.4c58.3,6.3,112.3-44.4,120.7-113.3c6.3-52.4-15.5-100.2-52-122.9c-6.7,1.1-14.1,1.7-22,1.9
	C112.8,765.6,91.5,760.4,86.2,753z M70.7,776.4c0,0-24.1,35.9-36.7,71C17.3,893.9,38,951,38,951S4.6,904.3,18.6,849.1
	C29.8,804.9,70.7,776.4,70.7,776.4L70.7,776.4z"/>
</svg>
