<?xml version="1.0" encoding="utf-8"?>
<!-- Generator: Adobe Illustrator 22.0.1, SVG Export Plug-In . SVG Version: 6.00 Build 0)  -->
<svg version="1.1" id="Calque_1" xmlns="http://www.w3.org/2000/svg" xmlns:xlink="http://www.w3.org/1999/xlink" x="0px" y="0px"
	 viewBox="0 0 159.8 163.5" style="enable-background:new 0 0 159.8 163.5;" xml:space="preserve">
<style type="text/css">
	.st0{fill:none;stroke:#000000;stroke-width:7.5;stroke-linecap:round;stroke-linejoin:round;}
	.st1{fill:none;stroke:#000000;stroke-width:7.5;stroke-linecap:round;}
</style>
<g>
	<path id="hand-border" class="st0" d="M44.6,85.4c-1-3.8-2-8.5-4.1-15.5c-1.7-5.6-3.4-8.6-4.7-12.3c-1.5-4.5-3-7.2-5-11.8
		c-1.4-3.3-3.6-10.5-4.6-14.4c-1.2-5.1,0.3-9.2,2.4-12.1c2.5-3.4,9.6-4.9,13.6-3.5c3.7,1.3,7.4,5.1,9.2,7.9
		c2.9,4.6,3.6,6.3,7.2,15.4c3.9,9.9,5.6,19.2,6.1,22.3l0.8,4.5c0-0.4-0.4-11.2-0.4-11.6c-0.4-10.3-0.6-18.2-0.4-29.4
		c0-1.3,0.6-5.9,0.8-7.2c0.8-5,3.1-8,6.7-9.8c4.1-2,9.3-2.2,14-0.2c4.2,1.7,6.3,5.5,6.9,10.2c0.1,1.1,0.9,9.9,0.9,11.1
		c-0.1,10.2,0.1,16.4,0.2,21.7c0,2.3,0,16.2,0.2,14.7c0.6-6.6,0.9-31.9,3.4-39.4c1.4-4.3,4-7.5,7.9-9.3c4.3-2,11.1-0.7,14,2.4
		c2.8,3.1,4.5,6.9,4.8,11.5c0.3,4.1-0.2,9-0.2,12.5c0,8.7-0.2,13.2-0.4,21.2c0,0.4-0.1,3,0.2,1.8c0.9-2.8,1.9-5.4,2.7-7.4
		c0.5-1.2,2.4-6.1,3.6-8.6c1.1-2.3,2.1-3.7,4.1-6.9c2-3.1,4.2-4.5,6.7-5.6c5.4-2.4,11.1,1.1,13,5.9c0.9,2.2,0.1,7.1-0.3,11.1
		c-0.6,6.5-2.5,13.1-3.5,16.5c-1.3,4.5-2.7,12.4-3.4,16c-0.7,3.9-2.3,13.8-3.6,18.2c-0.9,3-3.7,9.8-6.5,13.8
		c0,0-10.7,12.5-11.9,18.1c-1.2,5.6-0.8,5.7-1,9.6c-0.2,4,1.2,9.2,1.2,9.2s-8,1-12.3,0.3c-3.9-0.6-8.8-8.4-10-10.8
		c-1.7-3.3-5.4-2.6-6.8-0.2c-2.3,3.8-7.1,10.7-10.5,11.1c-6.7,0.8-20.5,0.3-31.4,0.2c0,0,1.8-10.1-2.3-13.6
		c-3.1-2.6-8.3-7.8-11.4-10.6l-8.3-9.2c-2.8-3.6-6.3-10.9-12.4-19.8C16.4,98.6,9.6,92.8,7,87.8c-2.2-4.3-3.3-9.5-1.9-13.3
		c2.2-5.9,6.7-9,13.6-8.3c5.2,0.5,8.5,2.1,12.4,5.4c2.3,1.9,5.7,5.3,7.5,7.5c1.6,1.9,2,2.8,3.8,5.1C44.7,87.3,45.4,88.8,44.6,85.4"
		/>
	<path id="line3" class="st1" d="M114.7,127V92.4"/>
	<path id="line2" class="st1" d="M94.5,127.1l-0.2-34.7"/>
	<path id="line1" class="st1" d="M74.5,92.7l0.2,34.3"/>
</g>
</svg>
