<?xml version="1.0" encoding="utf-8"?>
<!-- Generator: Adobe Illustrator 24.3.0, SVG Export Plug-In . SVG Version: 6.00 Build 0)  -->
<svg version="1.1" id="Calque_1" xmlns="http://www.w3.org/2000/svg" xmlns:xlink="http://www.w3.org/1999/xlink" x="0px" y="0px"
	 viewBox="0 0 1053.4 292" style="enable-background:new 0 0 1053.4 292;" xml:space="preserve">
<style type="text/css">
	.st0{fill:url(#SVGID_1_);}
	.st1{fill:url(#SVGID_2_);}
	.st2{fill:#FFFFFF;}
	.st3{fill:#333333;}
</style>
<g>
	
		<linearGradient id="SVGID_1_" gradientUnits="userSpaceOnUse" x1="2129.3" y1="1434" x2="2129.3" y2="1142" gradientTransform="matrix(-1 0 0 1 2656 -1142)">
		<stop  offset="0" style="stop-color:#BBBBBB"/>
		<stop  offset="1" style="stop-color:#DCDCDC"/>
	</linearGradient>
	<path class="st0" d="M25,282c-8,0-15-7-15-15V25c0-8,7-15,15-15h1003.5c8,0,15,7,15,15v242c0,8-7,15-15,15H25z M1028.4,292
		c14,0,25-11,25-25V25c0-14-11-25-25-25H25C11,0,0,11,0,25v242c0,14,11,25,25,25H1028.4z"/>
</g>
<linearGradient id="SVGID_2_" gradientUnits="userSpaceOnUse" x1="2129.25" y1="-400" x2="2129.25" y2="-128" gradientTransform="matrix(-1 0 0 -1 2656 -118)">
	<stop  offset="0" style="stop-color:#E8E8E8"/>
	<stop  offset="1" style="stop-color:#F9F9F9"/>
</linearGradient>
<path class="st1" d="M25,282c-8,0-15-7-15-15V25c0-8,7-15,15-15h1003.5c8,0,15,7,15,15v242c0,8-7,15-15,15H25z"/>
<g>
	<g>
		<path class="st2" d="M299,203.4h-18.9V102.1H299V203.4z"/>
		<path class="st2" d="M320.8,203.4v-71.8h10.6c2.2,0,3.7,1,4.4,3.1l1.1,5.3c1.3-1.4,2.6-2.7,4-3.9s2.8-2.2,4.4-3s3.2-1.5,5-2
			s3.8-0.7,5.9-0.7c4.5,0,8.2,1.2,11.2,3.7c2.9,2.5,5.1,5.7,6.5,9.8c1.1-2.4,2.5-4.4,4.2-6.1c1.7-1.7,3.5-3.1,5.5-4.2
			c2-1.1,4.1-1.9,6.4-2.4s4.5-0.8,6.8-0.8c4,0,7.5,0.6,10.6,1.8s5.7,3,7.8,5.3c2.1,2.3,3.7,5.2,4.8,8.5c1.1,3.4,1.6,7.2,1.6,11.5
			v45.7h-17.3v-45.7c0-4.6-1-8-3-10.3s-4.9-3.5-8.8-3.5c-1.8,0-3.4,0.3-4.9,0.9c-1.5,0.6-2.8,1.5-4,2.6c-1.1,1.1-2,2.6-2.7,4.3
			s-1,3.7-1,6v45.7h-17.4v-45.7c0-4.8-1-8.3-2.9-10.5s-4.8-3.3-8.6-3.3c-2.5,0-4.8,0.6-7,1.9c-2.2,1.2-4.2,2.9-6.1,5.1v52.6
			L320.8,203.4L320.8,203.4z"/>
		<path class="st2" d="M438.7,226.8v-95.3h10.6c1.1,0,2.1,0.3,2.9,0.8s1.3,1.3,1.5,2.4l1.4,6.6c2.9-3.3,6.2-6,10-8
			c3.8-2.1,8.2-3.1,13.2-3.1c3.9,0,7.5,0.8,10.7,2.4c3.2,1.6,6,4,8.4,7.1s4.2,6.9,5.5,11.5s1.9,9.8,1.9,15.6
			c0,5.4-0.7,10.3-2.2,14.9c-1.4,4.6-3.5,8.5-6.2,11.9s-5.9,6-9.7,7.9c-3.8,1.9-8.1,2.8-12.8,2.8c-4.1,0-7.5-0.6-10.3-1.9
			c-2.8-1.2-5.4-3-7.6-5.1v29.4h-17.3V226.8z M472.3,143.9c-3.6,0-6.7,0.8-9.2,2.3s-4.9,3.7-7.1,6.4v32.2c2,2.4,4.1,4.1,6.4,5.1
			s4.8,1.4,7.5,1.4c2.6,0,5-0.5,7.1-1.5s3.9-2.5,5.4-4.5s2.6-4.5,3.4-7.6s1.2-6.7,1.2-10.8c0-4.2-0.3-7.8-1-10.7s-1.6-5.3-2.9-7.1
			s-2.8-3.1-4.6-4C476.6,144.3,474.6,143.9,472.3,143.9z"/>
		<path class="st2" d="M517.9,203.4v-71.8H528c1.8,0,3,0.3,3.7,1s1.2,1.8,1.4,3.4l1,8.7c2.6-4.4,5.6-7.9,9-10.5
			c3.5-2.6,7.3-3.9,11.6-3.9c3.5,0,6.5,0.8,8.8,2.4l-2.2,13c-0.1,0.8-0.4,1.4-0.9,1.8c-0.5,0.3-1.1,0.5-1.9,0.5
			c-0.7,0-1.7-0.2-2.9-0.5s-2.8-0.5-4.8-0.5c-3.6,0-6.7,1-9.2,3c-2.6,2-4.7,4.9-6.5,8.7v44.7L517.9,203.4L517.9,203.4z"/>
		<path class="st2" d="M596,110.6c0,1.5-0.3,2.9-0.9,4.2c-0.6,1.3-1.4,2.4-2.4,3.4s-2.2,1.8-3.5,2.3c-1.4,0.6-2.8,0.9-4.3,0.9
			s-2.9-0.3-4.2-0.9s-2.5-1.4-3.5-2.3c-1-1-1.8-2.1-2.3-3.4c-0.6-1.3-0.9-2.7-0.9-4.2s0.3-3,0.9-4.3c0.6-1.4,1.4-2.5,2.3-3.5
			c1-1,2.1-1.8,3.5-2.3c1.3-0.6,2.7-0.9,4.2-0.9s3,0.3,4.3,0.9c1.4,0.6,2.5,1.4,3.5,2.3c1,1,1.8,2.1,2.4,3.5
			C595.7,107.6,596,109.1,596,110.6z M593.5,131.5v71.8h-17.3v-71.8H593.5z"/>
		<path class="st2" d="M613,203.4v-71.8h10.6c2.2,0,3.7,1,4.4,3.1l1.1,5.3c1.3-1.4,2.6-2.7,4-3.9s2.8-2.2,4.4-3c1.6-0.8,3.2-1.5,5-2
			s3.8-0.7,5.9-0.7c4.5,0,8.2,1.2,11.2,3.7c2.9,2.5,5.1,5.7,6.5,9.8c1.1-2.4,2.5-4.4,4.2-6.1c1.7-1.7,3.5-3.1,5.5-4.2
			c2-1.1,4.1-1.9,6.4-2.4c2.3-0.5,4.5-0.8,6.8-0.8c4,0,7.5,0.6,10.6,1.8s5.7,3,7.8,5.3s3.7,5.2,4.8,8.5c1.1,3.4,1.6,7.2,1.6,11.5
			v45.7h-17.3v-45.7c0-4.6-1-8-3-10.3s-4.9-3.5-8.8-3.5c-1.8,0-3.4,0.3-4.9,0.9c-1.5,0.6-2.8,1.5-4,2.6c-1.1,1.1-2,2.6-2.7,4.3
			s-1,3.7-1,6v45.7h-17.4v-45.7c0-4.8-1-8.3-2.9-10.5s-4.8-3.3-8.6-3.3c-2.5,0-4.8,0.6-7,1.9c-2.2,1.2-4.2,2.9-6.1,5.1v52.6
			L613,203.4L613,203.4z"/>
		<path class="st2" d="M760.5,130.4c4.5,0,8.7,0.7,12.5,2.2c3.8,1.4,7.1,3.6,9.8,6.3c2.8,2.8,4.9,6.2,6.4,10.2s2.3,8.6,2.3,13.8
			c0,1.3-0.1,2.4-0.2,3.3c-0.1,0.9-0.3,1.5-0.6,2s-0.7,0.8-1.2,1s-1.2,0.3-2,0.3h-44.4c0.5,7.4,2.5,12.8,6,16.2
			c3.5,3.5,8,5.2,13.7,5.2c2.8,0,5.2-0.3,7.2-1s3.8-1.4,5.3-2.2s2.8-1.5,4-2.2c1.1-0.7,2.2-1,3.3-1c0.7,0,1.3,0.1,1.8,0.4
			c0.5,0.3,1,0.7,1.3,1.2l5,6.3c-1.9,2.2-4.1,4.1-6.4,5.6c-2.4,1.5-4.9,2.7-7.5,3.6c-2.6,0.9-5.2,1.6-7.9,1.9
			c-2.7,0.4-5.3,0.6-7.8,0.6c-5,0-9.6-0.8-13.9-2.5c-4.3-1.7-8-4.1-11.2-7.4c-3.2-3.2-5.7-7.3-7.5-12c-1.8-4.8-2.7-10.3-2.7-16.6
			c0-4.9,0.8-9.5,2.4-13.8c1.6-4.3,3.9-8.1,6.8-11.3c3-3.2,6.6-5.7,10.8-7.6C750.4,131.3,755.2,130.4,760.5,130.4z M760.9,142.8
			c-5,0-9,1.4-11.8,4.3c-2.8,2.8-4.7,6.9-5.5,12.1h32.5c0-2.2-0.3-4.4-0.9-6.3c-0.6-2-1.5-3.7-2.8-5.2s-2.8-2.7-4.8-3.5
			C765.7,143.2,763.5,142.8,760.9,142.8z"/>
		<path class="st2" d="M805.7,203.4v-71.8h10.1c1.8,0,3,0.3,3.7,1s1.2,1.8,1.4,3.4l1,8.7c2.6-4.4,5.6-7.9,9-10.5
			c3.5-2.6,7.3-3.9,11.6-3.9c3.5,0,6.5,0.8,8.8,2.4l-2.2,13c-0.1,0.8-0.4,1.4-0.9,1.8c-0.5,0.3-1.1,0.5-1.9,0.5
			c-0.7,0-1.7-0.2-2.9-0.5s-2.8-0.5-4.8-0.5c-3.6,0-6.7,1-9.2,3c-2.6,2-4.7,4.9-6.5,8.7v44.7L805.7,203.4L805.7,203.4z"/>
	</g>
	<g>
		<g>
			<path class="st3" d="M289,193.4h-18.9V92.1H289V193.4z"/>
			<path class="st3" d="M310.8,193.4v-71.8h10.6c2.2,0,3.7,1,4.4,3.1l1.1,5.3c1.3-1.4,2.6-2.7,4-3.9c1.4-1.2,2.8-2.2,4.4-3
				s3.2-1.5,5-2s3.8-0.7,5.9-0.7c4.5,0,8.2,1.2,11.2,3.7c2.9,2.5,5.1,5.7,6.5,9.8c1.1-2.4,2.5-4.4,4.2-6.1c1.7-1.7,3.5-3.1,5.5-4.2
				s4.1-1.9,6.4-2.4s4.5-0.8,6.8-0.8c4,0,7.5,0.6,10.6,1.8c3.1,1.2,5.7,3,7.8,5.3c2.1,2.3,3.7,5.2,4.8,8.5c1.1,3.4,1.6,7.2,1.6,11.5
				v45.7h-17.3v-45.7c0-4.6-1-8-3-10.3s-4.9-3.5-8.8-3.5c-1.8,0-3.4,0.3-4.9,0.9c-1.5,0.6-2.8,1.5-4,2.6c-1.1,1.1-2,2.6-2.7,4.3
				s-1,3.7-1,6v45.7h-17.4v-45.7c0-4.8-1-8.3-2.9-10.5s-4.8-3.3-8.6-3.3c-2.5,0-4.8,0.6-7,1.9c-2.2,1.2-4.2,2.9-6.1,5.1v52.6h-17.1
				V193.4z"/>
			<path class="st3" d="M428.7,216.8v-95.3h10.6c1.1,0,2.1,0.3,2.9,0.8s1.3,1.3,1.5,2.4l1.4,6.6c2.9-3.3,6.2-6,10-8
				c3.8-2.1,8.2-3.1,13.2-3.1c3.9,0,7.5,0.8,10.7,2.4s6,4,8.4,7.1s4.2,6.9,5.5,11.5s1.9,9.8,1.9,15.6c0,5.4-0.7,10.3-2.2,14.9
				c-1.4,4.6-3.5,8.5-6.2,11.9s-5.9,6-9.7,7.9c-3.8,1.9-8.1,2.8-12.8,2.8c-4.1,0-7.5-0.6-10.3-1.9c-2.8-1.2-5.4-3-7.6-5.1v29.4
				h-17.3V216.8z M462.3,133.9c-3.6,0-6.7,0.8-9.2,2.3s-4.9,3.7-7.1,6.4v32.2c2,2.4,4.1,4.1,6.4,5.1s4.8,1.4,7.5,1.4
				c2.6,0,5-0.5,7.1-1.5s3.9-2.5,5.4-4.5s2.6-4.5,3.4-7.6s1.2-6.7,1.2-10.8c0-4.2-0.3-7.8-1-10.7s-1.6-5.3-2.9-7.1s-2.8-3.1-4.6-4
				C466.6,134.3,464.6,133.9,462.3,133.9z"/>
			<path class="st3" d="M507.9,193.4v-71.8H518c1.8,0,3,0.3,3.7,1s1.2,1.8,1.4,3.4l1,8.7c2.6-4.4,5.6-7.9,9-10.5
				c3.5-2.6,7.3-3.9,11.6-3.9c3.5,0,6.5,0.8,8.8,2.4l-2.2,13c-0.1,0.8-0.4,1.4-0.9,1.8c-0.5,0.3-1.1,0.5-1.9,0.5
				c-0.7,0-1.7-0.2-2.9-0.5s-2.8-0.5-4.8-0.5c-3.6,0-6.7,1-9.2,3c-2.6,2-4.7,4.9-6.5,8.7v44.7H507.9z"/>
			<path class="st3" d="M586,100.6c0,1.5-0.3,2.9-0.9,4.2c-0.6,1.3-1.4,2.4-2.4,3.4s-2.2,1.8-3.5,2.3c-1.4,0.6-2.8,0.9-4.3,0.9
				s-2.9-0.3-4.2-0.9s-2.5-1.4-3.5-2.3c-1-1-1.8-2.1-2.3-3.4c-0.6-1.3-0.9-2.7-0.9-4.2s0.3-3,0.9-4.3c0.6-1.4,1.4-2.5,2.3-3.5
				c1-1,2.1-1.8,3.5-2.3c1.3-0.6,2.7-0.9,4.2-0.9s3,0.3,4.3,0.9c1.4,0.6,2.5,1.4,3.5,2.3c1,1,1.8,2.1,2.4,3.5
				C585.7,97.6,586,99.1,586,100.6z M583.5,121.5v71.8h-17.3v-71.8H583.5z"/>
			<path class="st3" d="M603,193.4v-71.8h10.6c2.2,0,3.7,1,4.4,3.1l1.1,5.3c1.3-1.4,2.6-2.7,4-3.9c1.4-1.2,2.8-2.2,4.4-3
				c1.6-0.8,3.2-1.5,5-2s3.8-0.7,5.9-0.7c4.5,0,8.2,1.2,11.2,3.7c2.9,2.5,5.1,5.7,6.5,9.8c1.1-2.4,2.5-4.4,4.2-6.1
				c1.7-1.7,3.5-3.1,5.5-4.2s4.1-1.9,6.4-2.4c2.3-0.5,4.5-0.8,6.8-0.8c4,0,7.5,0.6,10.6,1.8c3.1,1.2,5.7,3,7.8,5.3s3.7,5.2,4.8,8.5
				c1.1,3.4,1.6,7.2,1.6,11.5v45.7h-17.3v-45.7c0-4.6-1-8-3-10.3s-4.9-3.5-8.8-3.5c-1.8,0-3.4,0.3-4.9,0.9c-1.5,0.6-2.8,1.5-4,2.6
				c-1.1,1.1-2,2.6-2.7,4.3s-1,3.7-1,6v45.7h-17.4v-45.7c0-4.8-1-8.3-2.9-10.5s-4.8-3.3-8.6-3.3c-2.5,0-4.8,0.6-7,1.9
				c-2.2,1.2-4.2,2.9-6.1,5.1v52.6H603V193.4z"/>
			<path class="st3" d="M750.5,120.4c4.5,0,8.7,0.7,12.5,2.2c3.8,1.4,7.1,3.6,9.8,6.3c2.8,2.8,4.9,6.2,6.4,10.2s2.3,8.6,2.3,13.8
				c0,1.3-0.1,2.4-0.2,3.3c-0.1,0.9-0.3,1.5-0.6,2s-0.7,0.8-1.2,1s-1.2,0.3-2,0.3h-44.4c0.5,7.4,2.5,12.8,6,16.2
				c3.5,3.5,8,5.2,13.7,5.2c2.8,0,5.2-0.3,7.2-1s3.8-1.4,5.3-2.2s2.8-1.5,4-2.2c1.1-0.7,2.2-1,3.3-1c0.7,0,1.3,0.1,1.8,0.4
				c0.5,0.3,1,0.7,1.3,1.2l5,6.3c-1.9,2.2-4.1,4.1-6.4,5.6c-2.4,1.5-4.9,2.7-7.5,3.6c-2.6,0.9-5.2,1.6-7.9,1.9
				c-2.7,0.4-5.3,0.6-7.8,0.6c-5,0-9.6-0.8-13.9-2.5c-4.3-1.7-8-4.1-11.2-7.4c-3.2-3.2-5.7-7.3-7.5-12c-1.8-4.8-2.7-10.3-2.7-16.6
				c0-4.9,0.8-9.5,2.4-13.8c1.6-4.3,3.9-8.1,6.8-11.3c3-3.2,6.6-5.7,10.8-7.6C740.4,121.3,745.2,120.4,750.5,120.4z M750.9,132.8
				c-5,0-9,1.4-11.8,4.3c-2.8,2.8-4.7,6.9-5.5,12.1h32.5c0-2.2-0.3-4.4-0.9-6.3c-0.6-2-1.5-3.7-2.8-5.2s-2.8-2.7-4.8-3.5
				C755.7,133.2,753.5,132.8,750.9,132.8z"/>
			<path class="st3" d="M795.7,193.4v-71.8h10.1c1.8,0,3,0.3,3.7,1s1.2,1.8,1.4,3.4l1,8.7c2.6-4.4,5.6-7.9,9-10.5
				c3.5-2.6,7.3-3.9,11.6-3.9c3.5,0,6.5,0.8,8.8,2.4l-2.2,13c-0.1,0.8-0.4,1.4-0.9,1.8c-0.5,0.3-1.1,0.5-1.9,0.5
				c-0.7,0-1.7-0.2-2.9-0.5s-2.8-0.5-4.8-0.5c-3.6,0-6.7,1-9.2,3c-2.6,2-4.7,4.9-6.5,8.7v44.7H795.7z"/>
		</g>
	</g>
</g>
<path class="st2" d="M110.6,202.8h66.9v-19.1h-66.9V202.8L110.6,202.8z M110.6,155h66.9v-28.7h-11.9c-4,0-7.2-3.2-7.2-7.2v-11.9
	h-47.8L110.6,155L110.6,155z M196.6,159.8c0-2.6-2.2-4.8-4.8-4.8s-4.8,2.2-4.8,4.8s2.2,4.8,4.8,4.8
	C194.5,164.5,196.6,162.4,196.6,159.8z M206.2,159.8v31.1c0,1.3-1.1,2.4-2.4,2.4h-16.7v11.9c0,4-3.2,7.2-7.2,7.2h-71.7
	c-3.9,0-7.2-3.2-7.2-7.2v-11.9H84.3c-1.3,0-2.4-1.1-2.4-2.4v-31.1c0-7.8,6.5-14.3,14.3-14.3h4.8v-40.7c0-4,3.2-7.2,7.2-7.2h50.2
	c4,0,9.4,2.2,12.2,5.1L182,114c2.8,2.8,5.1,8.3,5.1,12.2v19.1h4.8C199.7,145.4,206.2,151.9,206.2,159.8L206.2,159.8z"/>
<path class="st2" d="M994,134.6c0,1.4-0.6,2.7-1.6,3.7l-36.8,36.8c-1,1-2.3,1.6-3.7,1.6s-2.7-0.6-3.7-1.6l-36.8-36.8
	c-1-1-1.6-2.3-1.6-3.7c0-2.9,2.4-5.3,5.2-5.3h73.5C991.6,129.4,994,131.8,994,134.6z"/>
<path class="st3" d="M100.6,192.8h66.9v-19.1h-66.9V192.8L100.6,192.8z M100.6,145h66.9v-28.7h-11.9c-4,0-7.2-3.2-7.2-7.2V97.2
	h-47.8L100.6,145L100.6,145z M186.6,149.8c0-2.6-2.2-4.8-4.8-4.8s-4.8,2.2-4.8,4.8s2.2,4.8,4.8,4.8
	C184.5,154.5,186.6,152.4,186.6,149.8z M196.2,149.8v31.1c0,1.3-1.1,2.4-2.4,2.4h-16.7v11.9c0,4-3.2,7.2-7.2,7.2H98.2
	c-3.9,0-7.2-3.2-7.2-7.2v-11.9H74.3c-1.3,0-2.4-1.1-2.4-2.4v-31.1c0-7.8,6.5-14.3,14.3-14.3H91V94.8c0-4,3.2-7.2,7.2-7.2h50.2
	c4,0,9.4,2.2,12.2,5.1L172,104c2.8,2.8,5.1,8.3,5.1,12.2v19.1h4.8C189.7,135.4,196.2,141.9,196.2,149.8L196.2,149.8z"/>
<path class="st3" d="M984,124.6c0,1.4-0.6,2.7-1.6,3.7l-36.8,36.8c-1,1-2.3,1.6-3.7,1.6s-2.7-0.6-3.7-1.6l-36.8-36.8
	c-1-1-1.6-2.3-1.6-3.7c0-2.9,2.4-5.3,5.2-5.3h73.5C981.6,119.4,984,121.8,984,124.6z"/>
</svg>
