<?xml version="1.0" encoding="utf-8"?>
<!-- Generator: Adobe Illustrator 20.0.0, SVG Export Plug-In . SVG Version: 6.00 Build 0)  -->
<svg version="1.1" id="Calque_1" xmlns="http://www.w3.org/2000/svg" xmlns:xlink="http://www.w3.org/1999/xlink" x="0px" y="0px"
	 viewBox="0 0 391 313" style="enable-background:new 0 0 391 313;" xml:space="preserve">
<style type="text/css">
	.st0{clip-path:url(#SVGID_2_);fill:#C3E0C6;}
</style>
<g>
	<g>
		<defs>
			<rect id="SVGID_1_" width="391" height="313"/>
		</defs>
		<clipPath id="SVGID_2_">
			<use xlink:href="#SVGID_1_"  style="overflow:visible;"/>
		</clipPath>
		<path class="st0" d="M277.8,249.1C241.1,219,201.5,199,193.5,195c-0.9-0.5-1.5-1.4-1.5-2.4v-57.1c7.2-4.8,11.9-13,11.9-22.2V53.9
			c0-29.5-23.9-53.4-53.4-53.4h-12.8c-29.5,0-53.4,23.9-53.4,53.4v59.3c0,9.3,4.7,17.4,11.9,22.2v57.2c0,1-0.6,1.9-1.5,2.4
			c-8.1,3.9-47.7,23.9-84.3,54.2C3.8,254.6,0,262.8,0,271.4V312h288.2v-40.6C288.2,262.7,284.5,254.6,277.8,249.1L277.8,249.1z
			 M277.8,249.1"/>
		<path class="st0" d="M367.4,24.2c-31.6-31.6-82.8-31.6-114.3,0c-30.4,30.4-31.5,79-3.4,110.7l0.8,0.6c-3,6.6-8.3,14.7-16.6,18.8
			c-2.7,1.4-2.1,5.4,0.9,5.9c9.1,1.4,22.2-0.2,34.4-9.4l0.2,0.2c31,18.2,71.5,14,98.1-12.6C398.9,107,398.9,55.8,367.4,24.2
			L367.4,24.2z M313.6,31.4c7.3,0,13,6,13,13.4c-0.1,7.3-5.9,13.2-13,13.2c-7.4-0.1-13.3-6.1-13.2-13.4
			C300.4,37.3,306.3,31.4,313.6,31.4L313.6,31.4z M332.3,120.3c-0.3,1.1-1,2.3-1.8,3.1c-4.8,4.8-10.5,7.8-17.4,7.8
			c-3.2,0.1-6.4-0.1-9.6-0.6c-5.3-0.7-12-7.3-11-14.2c0.6-4.7,1.4-9.5,2.2-14.2c1.4-8.2,2.9-16.5,4.3-24.7c0.1-0.5,0.2-1,0.2-1.6
			c0-3.4-1.1-4.6-4.5-5.1c-1.4-0.2-3-0.3-4.3-0.8c-1.7-0.6-2.5-1.9-2.3-3.3c0.2-1.4,1-2.3,3-2.7c1-0.2,2-0.2,3-0.2h24.9
			c3,0,5,1.4,5,4.6c0.1,2.6-0.4,5.1-0.8,7.7c-1.7,9.4-3.4,18.8-5.1,28.2c-0.6,3.1-1.2,6.2-1.6,9.4c-0.2,1.5,0,3.1,0.4,4.6
			c0.5,2,2,3,4,2.8c1.7-0.2,3.4-0.8,4.9-1.4c1.3-0.5,2.4-1.4,3.7-1.9C331.2,117,332.8,118.3,332.3,120.3L332.3,120.3z M332.3,120.3"
			/>
	</g>
</g>
</svg>
