<?xml version="1.0" encoding="utf-8"?>
<!-- Generator: Adobe Illustrator 21.1.0, SVG Export Plug-In . SVG Version: 6.00 Build 0)  -->
<svg version="1.1" id="Calque_1" xmlns="http://www.w3.org/2000/svg" xmlns:xlink="http://www.w3.org/1999/xlink" x="0px" y="0px"
	 viewBox="0 0 1792 1792" style="enable-background:new 0 0 1792 1792;" xml:space="preserve">
<style type="text/css">
	.st0{fill:#F8F8F8;}
	.st1{fill:#E3E3E3;}
	.st2{fill:#487BD4;}
</style>
<g>
	<rect x="25" y="25" class="st0" width="1742" height="1742"/>
	<path class="st1" d="M1742,50v1692H50V50H1742 M1792,0H0v1792h1792V0L1792,0z"/>
</g>
<path id="path3084-4-1-3" class="st2" d="M896,348.8L348.8,581l547.2,236l547.2-236L896,348.8z M552.9,703.2l-204,86.6L896,1025.7
	l547.2-236l-204.2-86.5L896,851.1L552.9,703.2z M552.9,911.9l-204,86.6L896,1234.4l547.2-236l-204.2-86.5L896,1059.8L552.9,911.9z
	 M552.9,1120.6l-204,86.6l547.1,236l547.2-236l-204-86.6l-343.1,147.9L552.9,1120.6z"/>
</svg>
