<?xml version="1.0" encoding="utf-8"?>
<!-- Generator: Adobe Illustrator 23.0.6, SVG Export Plug-In . SVG Version: 6.00 Build 0)  -->
<svg version="1.1" id="Calque_1" xmlns="http://www.w3.org/2000/svg" xmlns:xlink="http://www.w3.org/1999/xlink" x="0px" y="0px"
	 viewBox="0 0 500 500" style="enable-background:new 0 0 500 500;" xml:space="preserve">
<style type="text/css">
	.st0{fill:#476BA8;}
	.st1{fill:#E9E9E0;}
	.st2{fill:#D9D7CA;}
	.st3{fill:#CC4B4C;}
	.st4{fill:#FFFFFF;}
</style>
<circle class="st0" cx="250" cy="250" r="250"/>
<g>
	<path class="st1" d="M313.4665833,52.214447H108.4891434c-5.7299728,0-10.3479004,4.6176605-10.3479004,13.5886383v374.9100952
		c0,2.4458313,4.6179276,7.0723877,10.3479004,7.0723877h283.0570374c5.6949158,0,10.3125916-4.6265564,10.3125916-7.0723877
		V143.8912811c0-4.9358978-0.6534424-6.515976-1.7924194-7.6549683l-82.1849976-82.1941528
		C316.7067871,52.8676071,315.1175537,52.214447,313.4665833,52.214447L313.4665833,52.214447z"/>
	<path class="st2" d="M317.1220398,53.2828407v83.7125397h83.668335L317.1220398,53.2828407z"/>
	<path class="st3" d="M190.0562744,287.609375c-2.4455872,0-4.7941589-0.7946167-6.8250427-2.3135376
		c-7.3461609-5.5181885-8.3528442-11.6547546-7.8672943-15.8313293
		c1.2801819-11.5132751,15.4872284-23.5479736,42.2848358-35.7947235
		c10.6216736-23.283371,20.7316284-51.9792938,26.7267456-75.9514008
		c-7.0281982-15.3457642-13.8977051-35.247467-8.8912201-46.9022293c1.7568512-4.10569,3.9289246-7.2491531,7.999588-8.5913162
		c1.6245575-0.5472641,5.6863251-1.2095871,7.1694031-1.2095871c3.5937347,0,6.692749,4.5912552,8.9356995,7.4167633
		c2.0747986,2.6576385,6.7986145,8.2822571-2.6579285,48.0501022c9.5185242,19.6546173,23.0451965,39.6977997,35.9450989,53.3831635
		c9.2711487-1.6509552,17.2440796-2.5161743,23.7250061-2.5161743c11.0719299,0,17.7649231,2.5867767,20.4842834,7.9025879
		c2.2782288,4.3791962,1.3510437,9.5179749-2.7193604,15.2395935c-3.9644775,5.5184479-9.3859253,8.4231873-15.6901245,8.4231873
		c-8.5913086,0-18.5951233-5.4211731-29.7729187-16.1490173c-20.0343018,4.2115936-43.4149475,11.6636505-62.3541565,19.9370117
		c-5.8981171,12.5202484-11.5577545,22.6299591-16.8291168,30.0467072
		C202.5059204,282.8855591,196.2281494,287.609375,190.0562744,287.609375L190.0562744,287.609375z M208.8545532,251.3996887
		c-15.0722504,8.4851379-21.243866,15.4516602-21.6588287,19.3805847c-0.1061554,0.6534119-0.2737579,2.3488464,3.0373077,4.9002991
		C191.2658539,275.3362122,197.4026947,272.537384,208.8545532,251.3996887L208.8545532,251.3996887z M305.1843262,220.0108185
		c5.7658081,4.4497833,7.1785889,6.6927338,10.9399109,6.6927338c1.6512146,0,6.3750305-0.0705872,8.5471191-3.1434631
		c1.0328369-1.4833527,1.4480591-2.410553,1.6242676-2.9314117c-0.8652039-0.4502563-2.0394897-1.3774567-8.3169861-1.3774567
		C314.428833,219.2512207,309.9434509,219.4279938,305.1843262,220.0108185L305.1843262,220.0108185z M252.4193115,173.5141296
		c-5.0415192,17.4916992-11.6992188,36.3511505-18.8686218,53.4276276
		c14.7629242-5.721344,30.7973938-10.727829,45.8691406-14.2420654
		C269.9018555,201.6274872,260.3480225,187.7917633,252.4193115,173.5141296L252.4193115,173.5141296z M248.1368561,113.7472916
		c-0.6884613,0.238739-9.3770599,12.4143524,0.6887207,22.7272263
		C255.5183105,121.5439835,248.4461823,113.6413956,248.1368561,113.7472916L248.1368561,113.7472916z"/>
	<path class="st3" d="M391.5461731,447.785553H108.4891434c-5.7299728,0-10.3479004-4.6265564-10.3479004-10.348175V327.686554
		h303.7175293v109.750824C401.8587646,443.1589966,397.2410889,447.785553,391.5461731,447.785553L391.5461731,447.785553z"/>
	<path class="st4" d="M175.0198517,426.5683594h-11.5844421v-71.1483765h20.4842834
		c3.0022736,0,6.0042725,0.4858398,8.9623566,1.4480591c2.9664307,0.9624939,5.6243439,2.410553,7.9729156,4.3441772
		c2.3396759,1.9335938,4.2379913,4.2471619,5.6860504,7.0020752c1.4480438,2.7282104,2.172348,5.7919312,2.172348,9.2088928
		c0,3.6201477-0.58284,6.8605957-1.8279877,9.791748c-1.2006989,2.9316711-2.9314117,5.4214478-5.1034851,7.416748
		c-2.2071075,1.9691772-4.8297119,3.523407-7.9290009,4.6268311c-3.0723267,1.1036987-6.5159607,1.6512146-10.2419891,1.6512146
		h-8.5910492V426.5683594z M175.0198517,364.2142029v28.1750793H185.64151c1.4130249,0,2.8255157-0.2384644,4.211853-0.7240295
		c1.3774567-0.4769287,2.6576385-1.2715454,3.8233032-2.3752441c1.1389923-1.0681152,2.0748138-2.622345,2.7988434-4.5559387
		c0.6884613-1.9602966,1.0683899-4.4147644,1.0683899-7.3108826c0-1.1389771-0.1767731-2.4811401-0.4855652-3.9997864
		c-0.344635-1.5186462-0.9977875-2.9667053-1.9955902-4.3439026c-1.0066833-1.3863525-2.3838654-2.552002-4.2115784-3.4878235
		c-1.7924194-0.9272156-4.1765594-1.3774719-7.1432648-1.3774719H175.0198517z"/>
	<path class="st4" d="M279.799469,389.01651c0,5.8625488-0.6178589,10.8601379-1.8630066,15.0366821
		c-1.2713013,4.1321106-2.8605347,7.6196594-4.7941589,10.4098816c-1.9249878,2.7988281-4.1056824,5.0064697-6.51651,6.6221313
		c-2.4102783,1.6245422-4.7591248,2.8344116-7.0018005,3.6290283c-2.2424011,0.7857361-4.3088531,1.3065796-6.1718597,1.5450745
		c-1.8627472,0.211792-3.2402039,0.3090515-4.1763,0.3090515h-26.938797v-71.1483765h21.455658
		c5.9689789,0,11.2489471,0.9272156,15.7607117,2.825531c4.5559692,1.8983154,8.3175659,4.4500427,11.3106689,7.5935059
		c3.0022583,3.1343079,5.2446899,6.7544556,6.728302,10.7542419C279.07547,380.6283569,279.799469,384.7696228,279.799469,389.01651
		L279.799469,389.01651z M245.417511,418.0921021c7.8583984,0,13.5180359-2.5253296,16.9969788-7.5229187
		c3.4872742-5.0328979,5.2091064-12.3170776,5.2091064-21.8353271c0-2.9667053-0.3443604-5.8981018-1.0328064-8.79422
		c-0.7240295-2.8961182-2.1015015-5.5184631-4.1057129-7.8581238c-2.0308838-2.3485718-4.7946777-4.2471619-8.2733459-5.6952209
		c-3.4878387-1.4480591-7.9731903-2.1720886-13.5180511-2.1720886h-6.7635956v53.8778992H245.417511z"/>
	<path class="st4" d="M308.3895264,364.2142029v22.3828735h29.7378845v7.9376221h-29.7378845v32.0336609h-11.7873535v-71.1483765
		h44.5272522v8.79422H308.3895264z"/>
</g>
</svg>
