<?xml version="1.0" encoding="utf-8"?>
<!-- Generator: Adobe Illustrator 24.3.0, SVG Export Plug-In . SVG Version: 6.00 Build 0)  -->
<svg version="1.1" id="Calque_1" xmlns="http://www.w3.org/2000/svg" xmlns:xlink="http://www.w3.org/1999/xlink" x="0px" y="0px"
	 viewBox="0 0 500 212.8108978" style="enable-background:new 0 0 500 212.8108978;" xml:space="preserve">
<style type="text/css">
	.st0{fill:#FFFFFF;}
</style>
<g>
	<path d="M142.1392975,1.1491014l1.651535,5.2994003c0.0756378,0.2356901,0.2444763,0.4344378,0.4678497,0.5434933
		c20.6154327,10.0711422,42.4286194,11.1475544,64.7940979,0.6578088c0.2251282-0.1055398,0.3974915-0.2990136,0.474884-0.5346904
		l1.7553253-5.285337c0.2532806-0.7633352-0.5540314-1.4316915-1.2663727-1.0570621
		c-23.4524384,12.3277473-45.16362,11.015646-66.5951385-0.6595668
		C142.7161865-0.270285,141.9000854,0.3822503,142.1392975,1.1491014"/>
	<g>
		<path d="M46.2611351,150.6093292c-0.8811798-7.5436859-5.2800522-12.3189545-11.8176765-12.3189545
			c-6.2843533,0-10.5583458,4.9019012-11.8159199,12.3189545H46.2611351z M0,156.5172882v-0.2515106
			c0-19.8626404,14.2044315-35.5761566,34.3185768-35.5761566c23.5069618,0,34.3185768,17.2226105,34.3185768,37.2101135
			c0,1.5090942,0,3.2679443-0.1266327,4.9019012H23.003933c1.8872395,7.4170532,7.2921696,11.1880188,14.7074585,11.1880188
			c5.6582069,0,10.183712-2.1369934,15.0856133-6.912262l13.2001266,10.9364929
			c-6.5376244,8.2964783-15.9650345,13.8262787-29.5415573,13.8262787C15.0856113,191.8401642,0,177.6357422,0,156.5172882"/>
		<polygon points="78.2200546,98.2544937 103.0303116,98.2544937 103.0303116,144.5121155 122.2281036,120.8767624 
			150.3045349,120.8767624 125.7528305,149.213501 150.957077,191.5242767 123.6650696,191.5242767 109.430748,167.4966888 
			103.0303116,174.9401245 103.0303116,191.5242767 78.2200546,191.5242767 		"/>
		<path d="M152.7841644,206.6725006l7.7055054-17.3685913c3.9169312,2.3515778,8.0959473,3.7868042,10.8379974,3.7868042
			c2.4799652,0,4.1772614-0.6525421,5.7461395-2.8721924l-27.6842041-69.3424606h25.9851685l14.1041718,42.5710678
			l13.3197327-42.5710678h25.4645538l-25.856781,68.9502335c-6.1365967,16.4539948-12.797348,22.9845734-26.9015198,22.9845734
			C166.756424,212.8108673,159.3130035,210.3291473,152.7841644,206.6725006"/>
		<rect x="242.7557678" y="98.2546768" width="6.3986816" height="93.269783"/>
		<path d="M275.2697754,121.1302109h6.3986511v70.394249h-6.3986511V121.1302109z M275.2944031,98.2546768h6.3564453v6.731102
			h-6.3564453V98.2546768z"/>
		<path d="M367.394165,156.5992584v-0.2655945c0-17.8645782-12.3980713-29.3287354-26.662323-29.3287354
			c-14.1323242,0-27.7281799,11.8651733-27.7281799,29.1950684v0.2655792c0,17.465332,13.5958557,29.1950684,27.7281799,29.1950684
			C355.5289917,185.6606445,367.394165,174.8630981,367.394165,156.5992584 M313.4029236,175.6633759v16.2640381h-6.5323486
			V98.2548523h6.5323486v39.2820435c5.8657227-8.9331818,14.5297852-16.7987366,27.9955139-16.7987366
			c16.3977051,0,33.0610046,13.1983795,33.0610046,35.3281708v0.267334c0,22.1280365-16.6632996,35.59375-33.0610046,35.59375
			C327.8008118,191.9274139,319.0013123,184.1955261,313.4029236,175.6633759"/>
		<path d="M393.0550232,120.6901474h6.6889038v21.0041275c5.4611816-12.4244843,17.0660706-21.5511246,30.8536377-21.0041275
			v7.4891739h-0.6824036c-16.1092834,0-30.1712341,12.1500854-30.1712341,34.8128052v28.9347534h-6.6889038V120.6901474z"/>
		<path d="M492.9382019,153.0703125c-0.9321899-13.7225189-8.79245-26.379158-24.3811035-26.379158
			c-13.4551392,0-23.8481445,11.3252029-25.0476685,26.379158H492.9382019z M436.5813599,156.4015503v-0.2655792
			c0-19.7184143,13.8561096-35.4407196,32.243103-35.4407196C487.8762817,120.6952515,500,136.1502228,500,156.2696533
			c0,1.1977692,0,1.5970154-0.1336975,2.6628876h-56.3568726c1.1995239,16.9218445,13.3232422,26.7801666,26.6464539,26.7801666
			c10.5249634,0,17.7203979-4.6627045,23.3152771-10.6585999l4.5307617,3.9978485
			c-6.9280701,7.4610291-15.0556946,12.788559-28.1116333,12.788559
			C452.0362549,191.8405151,436.5813599,177.585083,436.5813599,156.4015503"/>
		<path d="M214.1509705,45.0832939c0,29.4043694-16.7653198,53.2402382-37.4475708,53.2402382
			c-20.6805115,0-37.445816-23.8358688-37.445816-53.2402382s16.2253418-42.1084938,36.9058533-42.1084938
			C196.8456879,2.9747992,214.1509705,15.6789351,214.1509705,45.0832939"/>
		<path class="st0" d="M155.6779938,11.5908337c-0.3095703-0.0984955-0.6507874-0.0246239-0.8864746,0.198761
			c-11.0877533,10.5442657-13.5272675,27.277914-4.2528839,31.8051777c9.36409,4.5730057,18.8829651-0.5733757,26.0572968-9.7492752
			c0.3552704-0.4537735,1.0306702-0.4608078,1.3930054-0.0105476c6.7363739,8.3562698,15.4127502,13.2353096,24.2052155,9.3939972
			c8.8293915-3.8553925,9.2093201-20.7666798-3.3242188-31.1632175c-0.2304077-0.1917162-0.5469971-0.2515106-0.8336792-0.1635771
			C183.5767822,16.3010216,169.3987274,15.9598064,155.6779938,11.5908337"/>
		<path class="st0" d="M174.6666565,54.4528275l1.2646027,1.7131271c0.3535309,0.4783974,1.0693817,0.4819107,1.4281921,0.0052719
			l1.3824463-1.8450356l-1.2153625,5.0813026c-0.2180939,0.9163666-1.5231628,0.9093323-1.7324524-0.0087891L174.6666565,54.4528275
			z"/>
		<path class="st0" d="M185.7479095,61.6491394l1.2646027,1.7131271c0.3535309,0.4783974,1.0693817,0.4819107,1.4264374,0.0052719
			l1.384201-1.8450356l-1.2153625,5.0813026c-0.2180939,0.9163666-1.5231628,0.9093323-1.7324524-0.0087891L185.7479095,61.6491394z
			"/>
		<path class="st0" d="M163.5854034,61.6491394l1.2646027,1.7131271c0.3535309,0.4783974,1.0693817,0.4819107,1.4264374,0.0052719
			l1.384201-1.8450356l-1.2153473,5.0813026c-0.2181091,0.9163666-1.5231781,0.9093323-1.7324677-0.0087891L163.5854034,61.6491394z
			"/>
		<path class="st0" d="M159.4459686,74.3861618l1.2646027,1.7131271c0.3535309,0.4784012,1.0693817,0.4819183,1.4281921,0.0052719
			l1.382431-1.8450317l-1.2153473,5.0813065c-0.2180939,0.9163589-1.5231628,0.9093323-1.7324677-0.0087967L159.4459686,74.3861618z
			"/>
		<path class="st0" d="M189.8869934,74.3861618l1.2646027,1.7131271c0.3535309,0.4784012,1.0693817,0.4819183,1.4281769,0.0052719
			l1.3824463-1.8450317l-1.2153473,5.0813065c-0.2180939,0.9163589-1.5231628,0.9093323-1.7324677-0.0087967L189.8869934,74.3861618
			z"/>
		<path d="M191.0154724,18.1995182c-4.5730133,0-8.259552,3.8853016-8.259552,8.6693478
			c0,4.7823009,3.6865387,8.6675911,8.259552,8.6675911c4.5729828,0,8.2911835-3.8852901,8.2911835-8.6675911
			C199.3066559,22.0848198,195.5884552,18.1995182,191.0154724,18.1995182 M162.3621216,18.1995182
			c-4.572998,0-8.2595367,3.8853016-8.2595367,8.6693478c0,4.7823009,3.6865387,8.6675911,8.2595367,8.6675911
			s8.289444-3.8852901,8.289444-8.6675911C170.6515656,22.0848198,166.9351196,18.1995182,162.3621216,18.1995182"/>
		<path class="st0" d="M164.4868164,21.1262379c1.8766785,0,3.3980865,1.6374969,3.3980865,3.6566429
			c0,2.020916-1.5214081,3.6583996-3.3980865,3.6583996c-1.8766937,0-3.3981018-1.6374836-3.3981018-3.6583996
			C161.0887146,22.7637348,162.6101227,21.1262379,164.4868164,21.1262379"/>
		<path class="st0" d="M193.1371613,21.1262379c1.8766785,0,3.3980865,1.6374969,3.3980865,3.6566429
			c0,2.020916-1.5214081,3.6583996-3.3980865,3.6583996c-1.8766937,0-3.3981018-1.6374836-3.3981018-3.6583996
			C189.7390594,22.7637348,191.2604675,21.1262379,193.1371613,21.1262379"/>
		<path class="st0" d="M173.0108795,35.5032158c0.2145691-1.8766747,0.735199-5.0390854,3.693573-5.0672245
			c2.9566193-0.028141,3.4772339,3.1905499,3.693573,5.0672245c0.2321625,2.020916-1.8221588,5.3222656-2.9636383,6.9755859
			c-0.3535461,0.5135803-1.1063232,0.5135803-1.4598541,0C174.8330383,40.8254814,172.778717,37.5241318,173.0108795,35.5032158"/>
		<g>
			<rect x="122.2325592" y="98.2640686" width="106.0371552" height="7.2936401"/>
		</g>
		<path class="st0" d="M166.2790833,90.3656311c-0.9585876,0.0474854-1.5583344,0.481926-1.9347382,0.9849625
			c-0.3025208,0.4080505-0.8776703,0.4502563-1.2716522,0.1283875c-0.3148346-0.2585526-0.7826843-0.443222-1.4739075-0.434433
			c-1.8626099,0.0211029-2.4465485,3.8008652-2.3181458,6.2280655c0.0844116,1.6128616,0.8125763,3.3189468,1.5073242,4.6099396
			c0.3922272,0.7246399,1.4633636,0.5522766,1.6480408-0.2497559c0.0035095-0.0175934,0.007019-0.0351791,0.0123138-0.0527573
			c0.2022552-0.8636017,1.4193878-0.9673767,1.7025452-0.1266479c0.239212,0.7088089,0.5769196,1.438736,1.046524,2.110611
			c0.3728638,0.5294113,1.1924896,0.4748917,1.5020599-0.0932236c0.5346832-0.9902267,1.3015442-2.7138824,1.9558258-5.3715057
			c0.3746338,1.2487793,0.6314392,2.7174149,0.7879639,3.7903137c0.1055298,0.7299194,1.0166168,1.0271606,1.5231628,0.4924698
			c1.3402405-1.4176254,1.8080902-3.4508514,1.8590851-4.5026398c0.1389618-4.4340363-0.1143036-6.2755585-1.6533051-6.2966614
			c-0.6630707-0.0386887-1.2980194,0.0017548-1.7834625,0.2796631c-0.4414673,0.2532654-1.0218964,0.174118-1.2276764-0.2902145
			C167.8004761,90.7648926,167.2323761,90.3181534,166.2790833,90.3656311"/>
		<path class="st0" d="M185.5280609,90.3656311c0.9761353,0.0474854,1.5864563,0.4889679,1.9646149,0.9972687
			c0.3025208,0.404541,0.8759155,0.4467545,1.2646179,0.1266479c0.3201141-0.2638321,0.7949829-0.4537888,1.5055542-0.4449997
			c1.885498,0.0211029,2.4747162,3.8008652,2.3462982,6.2280655c-0.0879211,1.6251831-0.8336792,3.3453293-1.5424957,4.6398392
			c-0.3939819,0.719368-1.4616089,0.5452347-1.644516-0.253273c-0.0140839-0.063324-0.0281372-0.1248779-0.0439758-0.1864395
			c-0.2145844-0.8583145-1.4105988-0.8600769-1.6955261-0.0228653c-0.2444763,0.7158585-0.5909576,1.4545593-1.0728912,2.1317139
			c-0.374649,0.522377-1.1872253,0.4696198-1.4967651-0.0932159c-0.541748-0.9849548-1.3226776-2.7138901-1.9875183-5.3890991
			c-0.3816528,1.2558136-0.6437225,2.7332458-0.8002625,3.8078995c-0.1072845,0.7246475-1.0113373,1.0218887-1.5214081,0.4942322
			c-1.3701324-1.4176254-1.8467712-3.46492-1.8995514-4.5219879c-0.1407013-4.4340363,0.1160889-6.2755585,1.6744232-6.2966614
			c0.6701202-0.0386887,1.3121033,0.0017548,1.8045807,0.2796631c0.4467468,0.2532654,1.0324402,0.1723633,1.2434998-0.2954865
			C183.9908295,90.7631378,184.5659637,90.3199081,185.5280609,90.3656311"/>
	</g>
</g>
</svg>
