<?xml version="1.0" encoding="utf-8"?>
<!-- Generator: Adobe Illustrator 22.0.1, SVG Export Plug-In . SVG Version: 6.00 Build 0)  -->
<svg version="1.1" id="Calque_1" xmlns="http://www.w3.org/2000/svg" xmlns:xlink="http://www.w3.org/1999/xlink" x="0px" y="0px"
	 viewBox="0 0 725 293" style="enable-background:new 0 0 725 293;" xml:space="preserve">
<style type="text/css">
	.st0{fill:url(#SVGID_1_);}
	.st1{fill:url(#SVGID_2_);}
	.st2{fill:url(#SVGID_3_);}
	.st3{opacity:0.5;}
	.st4{fill:#222222;}
	.st5{fill:#FFFFFF;}
</style>
<linearGradient id="SVGID_1_" gradientUnits="userSpaceOnUse" x1="362.75" y1="1016.8" x2="362.75" y2="736.2" gradientTransform="matrix(1 0 0 1 0 -730)">
	<stop  offset="0" style="stop-color:#678FDA"/>
	<stop  offset="1" style="stop-color:#7EA0DF"/>
</linearGradient>
<path class="st0" d="M25,286.8c-10.5,0-19-8.5-19-19V25.2c0-10.5,8.5-19,19-19h675.5c10.5,0,19,8.5,19,19v242.5c0,10.5-8.5,19-19,19
	L25,286.8L25,286.8z"/>
<linearGradient id="SVGID_2_" gradientUnits="userSpaceOnUse" x1="362.75" y1="1012.8" x2="362.75" y2="740.3" gradientTransform="matrix(1 0 0 1 0 -730)">
	<stop  offset="0" style="stop-color:#678FDA"/>
	<stop  offset="1" style="stop-color:#7EA0DF"/>
</linearGradient>
<path class="st1" d="M25,10.3c-8.3,0-15,6.7-15,15v242.5c0,8.3,6.7,15,15,15h675.5c8.3,0,15-6.7,15-15V25.3c0-8.3-6.7-15-15-15
	C700.5,10.3,25,10.3,25,10.3z"/>
<linearGradient id="SVGID_3_" gradientUnits="userSpaceOnUse" x1="362.25" y1="1022.8" x2="362.25" y2="730.3" gradientTransform="matrix(1 0 0 1 0 -730)">
	<stop  offset="0" style="stop-color:#5976AC"/>
	<stop  offset="1" style="stop-color:#688BC9"/>
</linearGradient>
<path class="st2" d="M700,292.8H24.5c-13.8,0-25-11.2-25-25V25.3c0-13.8,11.2-25,25-25H700c13.8,0,25,11.2,25,25v242.5
	C725,281.6,713.8,292.8,700,292.8z M24.5,10.3c-8.3,0-15,6.7-15,15v242.5c0,8.3,6.7,15,15,15H700c8.3,0,15-6.7,15-15V25.3
	c0-8.3-6.7-15-15-15C700,10.3,24.5,10.3,24.5,10.3z"/>
<g>
	<g class="st3">
		<path class="st4" d="M158.4,167.8c0.7,1.6,1.3,3.2,2,4.9c0.7-1.7,1.3-3.3,2-5c0.7-1.6,1.4-3.2,2.2-4.7l30-56.1
			c0.4-0.7,0.8-1.3,1.2-1.7c0.4-0.4,0.8-0.7,1.3-0.9c0.5-0.2,1-0.3,1.6-0.4c0.6,0,1.3-0.1,2.2-0.1h14.2v101.2h-16.6v-65.4
			c0-1.2,0-2.5,0.1-4c0.1-1.4,0.2-2.9,0.3-4.4l-30.6,57.4c-0.7,1.3-1.6,2.3-2.7,3c-1.1,0.7-2.4,1.1-3.9,1.1h-2.6
			c-1.5,0-2.8-0.4-3.9-1.1c-1.1-0.7-2-1.7-2.7-3l-31-57.6c0.2,1.5,0.3,3,0.4,4.5c0.1,1.5,0.1,2.8,0.1,4.1v65.4h-16.6V104h14.2
			c0.8,0,1.6,0,2.2,0.1c0.6,0,1.2,0.2,1.6,0.4c0.5,0.2,0.9,0.5,1.4,0.9s0.8,1,1.2,1.7l30.2,56.2C157,164.7,157.8,166.2,158.4,167.8z
			"/>
		<path class="st4" d="M265.3,132.2c5.4,0,10.2,0.9,14.6,2.6c4.4,1.7,8.1,4.2,11.2,7.3c3.1,3.2,5.5,7,7.1,11.6s2.5,9.7,2.5,15.3
			c0,5.7-0.8,10.8-2.5,15.4c-1.7,4.6-4.1,8.5-7.1,11.7s-6.8,5.7-11.2,7.4c-4.4,1.7-9.2,2.6-14.6,2.6s-10.2-0.9-14.6-2.6
			c-4.4-1.7-8.1-4.2-11.2-7.4c-3.1-3.2-5.5-7.1-7.2-11.7c-1.7-4.6-2.6-9.7-2.6-15.4c0-5.6,0.9-10.8,2.6-15.3
			c1.7-4.6,4.1-8.4,7.2-11.6c3.1-3.2,6.8-5.6,11.2-7.3C255.1,133.1,259.9,132.2,265.3,132.2z M265.3,192.9c6,0,10.4-2,13.3-6
			s4.3-9.9,4.3-17.6c0-7.7-1.4-13.7-4.3-17.7s-7.3-6.1-13.3-6.1c-6.1,0-10.5,2-13.4,6.1c-2.9,4.1-4.3,10-4.3,17.7
			c0,7.7,1.4,13.6,4.3,17.6C254.8,190.9,259.2,192.9,265.3,192.9z"/>
		<path class="st4" d="M364.8,205.2c-2.2,0-3.7-1-4.4-3.2l-1.4-6.9c-1.5,1.7-3.1,3.2-4.7,4.5c-1.6,1.4-3.4,2.5-5.3,3.5
			c-1.9,1-3.9,1.7-6.1,2.3s-4.5,0.8-7,0.8c-3.9,0-7.5-0.8-10.8-2.5c-3.3-1.6-6.1-4-8.4-7.1c-2.4-3.1-4.2-6.9-5.5-11.5
			c-1.3-4.6-1.9-9.8-1.9-15.7c0-5.3,0.7-10.3,2.2-14.8c1.4-4.6,3.5-8.5,6.2-11.9c2.7-3.4,6-6,9.7-7.9c3.8-1.9,8-2.8,12.7-2.8
			c4,0,7.4,0.6,10.3,1.9c2.8,1.3,5.4,3,7.6,5.1v-37.9h17.3v104H364.8z M341.7,192.5c3.6,0,6.7-0.7,9.2-2.2c2.5-1.5,4.9-3.6,7.1-6.4
			v-32.2c-2-2.4-4.1-4.1-6.4-5c-2.3-1-4.8-1.5-7.5-1.5c-2.6,0-5,0.5-7.1,1.5c-2.1,1-3.9,2.5-5.4,4.4c-1.5,2-2.6,4.5-3.4,7.6
			c-0.8,3.1-1.2,6.7-1.2,10.8c0,4.2,0.3,7.8,1,10.7c0.7,2.9,1.6,5.3,2.9,7.1c1.3,1.8,2.8,3.2,4.6,4S339.5,192.5,341.7,192.5z"/>
		<path class="st4" d="M415,112.4c0,1.5-0.3,2.9-0.9,4.2c-0.6,1.3-1.4,2.5-2.4,3.4c-1,1-2.2,1.8-3.5,2.3c-1.4,0.6-2.8,0.9-4.3,0.9
			c-1.5,0-2.9-0.3-4.2-0.9c-1.3-0.6-2.5-1.4-3.5-2.3c-1-1-1.8-2.1-2.3-3.4c-0.6-1.3-0.9-2.7-0.9-4.2c0-1.5,0.3-3,0.9-4.3
			c0.6-1.4,1.4-2.5,2.3-3.5c1-1,2.1-1.8,3.5-2.3c1.3-0.6,2.7-0.9,4.2-0.9c1.5,0,3,0.3,4.3,0.9c1.4,0.6,2.5,1.4,3.5,2.3
			c1,1,1.8,2.1,2.4,3.5C414.7,109.4,415,110.9,415,112.4z M412.4,133.4v71.8h-17.3v-71.8H412.4z"/>
		<path class="st4" d="M435,205.2v-58.8l-6.2-1c-1.4-0.2-2.4-0.7-3.3-1.4c-0.8-0.7-1.2-1.7-1.2-2.9V134H435v-5.3
			c0-4.1,0.6-7.8,1.9-11.1c1.2-3.3,3-6,5.3-8.3c2.3-2.3,5.1-4,8.4-5.2c3.3-1.2,7-1.8,11.2-1.8c3.3,0,6.4,0.4,9.2,1.3l-0.4,8.7
			c-0.1,1.4-0.7,2.2-1.9,2.5c-1.2,0.3-2.5,0.5-4.1,0.5c-2.1,0-3.9,0.2-5.5,0.7c-1.6,0.4-3,1.2-4.1,2.3c-1.1,1.1-2,2.5-2.6,4.3
			c-0.6,1.8-0.9,4-0.9,6.7v4.8h18.7v12.3h-18.1v58.9H435z"/>
		<path class="st4" d="M502,112.4c0,1.5-0.3,2.9-0.9,4.2c-0.6,1.3-1.4,2.5-2.4,3.4c-1,1-2.2,1.8-3.5,2.3c-1.4,0.6-2.8,0.9-4.3,0.9
			c-1.5,0-2.9-0.3-4.2-0.9c-1.3-0.6-2.5-1.4-3.5-2.3c-1-1-1.8-2.1-2.3-3.4c-0.6-1.3-0.9-2.7-0.9-4.2c0-1.5,0.3-3,0.9-4.3
			c0.6-1.4,1.4-2.5,2.3-3.5c1-1,2.1-1.8,3.5-2.3c1.3-0.6,2.7-0.9,4.2-0.9c1.5,0,3,0.3,4.3,0.9c1.4,0.6,2.5,1.4,3.5,2.3
			c1,1,1.8,2.1,2.4,3.5C501.7,109.4,502,110.9,502,112.4z M499.4,133.4v71.8h-17.3v-71.8H499.4z"/>
		<path class="st4" d="M548.7,132.2c4.5,0,8.7,0.7,12.5,2.2c3.8,1.4,7.1,3.6,9.8,6.3c2.8,2.8,4.9,6.2,6.4,10.2
			c1.5,4,2.3,8.6,2.3,13.8c0,1.3-0.1,2.4-0.2,3.3c-0.1,0.9-0.3,1.5-0.6,2c-0.3,0.5-0.7,0.8-1.2,1.1c-0.5,0.2-1.2,0.3-2,0.3h-44.4
			c0.5,7.4,2.5,12.8,6,16.2c3.5,3.5,8,5.2,13.7,5.2c2.8,0,5.2-0.3,7.2-1c2-0.7,3.8-1.4,5.3-2.2c1.5-0.8,2.8-1.5,4-2.2
			c1.1-0.7,2.2-1,3.3-1c0.7,0,1.3,0.1,1.8,0.4c0.5,0.3,1,0.7,1.3,1.2l5,6.3c-1.9,2.2-4.1,4.1-6.4,5.6c-2.4,1.5-4.9,2.7-7.5,3.6
			c-2.6,0.9-5.2,1.6-7.9,1.9c-2.7,0.4-5.3,0.6-7.8,0.6c-5,0-9.6-0.8-13.9-2.5c-4.3-1.7-8-4.1-11.2-7.4c-3.2-3.2-5.7-7.3-7.5-12
			c-1.8-4.8-2.7-10.3-2.7-16.6c0-4.9,0.8-9.5,2.4-13.8c1.6-4.3,3.9-8.1,6.8-11.3c3-3.2,6.6-5.7,10.8-7.6
			C538.5,133.2,543.3,132.2,548.7,132.2z M549,144.6c-5,0-9,1.4-11.8,4.3c-2.8,2.8-4.7,6.9-5.5,12.1h32.5c0-2.2-0.3-4.4-0.9-6.3
			s-1.5-3.7-2.8-5.2c-1.3-1.5-2.8-2.7-4.8-3.5C553.8,145.1,551.6,144.6,549,144.6z"/>
		<path class="st4" d="M593.8,205.2v-71.8H604c1.8,0,3,0.3,3.7,1c0.7,0.7,1.2,1.8,1.4,3.4l1,8.7c2.6-4.4,5.6-7.9,9-10.5
			c3.5-2.6,7.3-3.9,11.6-3.9c3.5,0,6.5,0.8,8.8,2.5l-2.2,13c-0.1,0.8-0.4,1.4-0.9,1.8c-0.5,0.3-1.1,0.5-1.9,0.5
			c-0.7,0-1.7-0.2-2.9-0.5c-1.2-0.3-2.8-0.5-4.8-0.5c-3.6,0-6.7,1-9.2,3c-2.6,2-4.7,4.9-6.5,8.7v44.7H593.8z"/>
	</g>
	<g>
		<g>
			<path class="st5" d="M148.4,157.8c0.7,1.6,1.3,3.2,2,4.9c0.7-1.7,1.3-3.3,2-5c0.7-1.6,1.4-3.2,2.2-4.7l30-56.1
				c0.4-0.7,0.8-1.3,1.2-1.7c0.4-0.4,0.8-0.7,1.3-0.9c0.5-0.2,1-0.3,1.6-0.4c0.6,0,1.3-0.1,2.2-0.1h14.2v101.2h-16.6v-65.4
				c0-1.2,0-2.5,0.1-4c0.1-1.4,0.2-2.9,0.3-4.4l-30.6,57.4c-0.7,1.3-1.6,2.3-2.7,3c-1.1,0.7-2.4,1.1-3.9,1.1h-2.6
				c-1.5,0-2.8-0.4-3.9-1.1c-1.1-0.7-2-1.7-2.7-3l-31-57.6c0.2,1.5,0.3,3,0.4,4.5c0.1,1.5,0.1,2.8,0.1,4.1v65.4H95.4V94h14.2
				c0.8,0,1.6,0,2.2,0.1c0.6,0,1.2,0.2,1.6,0.4c0.5,0.2,0.9,0.5,1.4,0.9s0.8,1,1.2,1.7l30.2,56.2C147,154.7,147.8,156.2,148.4,157.8
				z"/>
			<path class="st5" d="M255.3,122.2c5.4,0,10.2,0.9,14.6,2.6c4.4,1.7,8.1,4.2,11.2,7.3c3.1,3.2,5.5,7,7.1,11.6s2.5,9.7,2.5,15.3
				c0,5.7-0.8,10.8-2.5,15.4c-1.7,4.6-4.1,8.5-7.1,11.7s-6.8,5.7-11.2,7.4c-4.4,1.7-9.2,2.6-14.6,2.6s-10.2-0.9-14.6-2.6
				c-4.4-1.7-8.1-4.2-11.2-7.4c-3.1-3.2-5.5-7.1-7.2-11.7c-1.7-4.6-2.6-9.7-2.6-15.4c0-5.6,0.9-10.8,2.6-15.3
				c1.7-4.6,4.1-8.4,7.2-11.6c3.1-3.2,6.8-5.6,11.2-7.3C245.1,123.1,249.9,122.2,255.3,122.2z M255.3,182.9c6,0,10.4-2,13.3-6
				s4.3-9.9,4.3-17.6c0-7.7-1.4-13.7-4.3-17.7s-7.3-6.1-13.3-6.1c-6.1,0-10.5,2-13.4,6.1c-2.9,4.1-4.3,10-4.3,17.7
				c0,7.7,1.4,13.6,4.3,17.6C244.8,180.9,249.2,182.9,255.3,182.9z"/>
			<path class="st5" d="M354.8,195.2c-2.2,0-3.7-1-4.4-3.2l-1.4-6.9c-1.5,1.7-3.1,3.2-4.7,4.5c-1.6,1.4-3.4,2.5-5.3,3.5
				c-1.9,1-3.9,1.7-6.1,2.3s-4.5,0.8-7,0.8c-3.9,0-7.5-0.8-10.8-2.5c-3.3-1.6-6.1-4-8.4-7.1c-2.4-3.1-4.2-6.9-5.5-11.5
				c-1.3-4.6-1.9-9.8-1.9-15.7c0-5.3,0.7-10.3,2.2-14.8c1.4-4.6,3.5-8.5,6.2-11.9c2.7-3.4,6-6,9.7-7.9c3.8-1.9,8-2.8,12.7-2.8
				c4,0,7.4,0.6,10.3,1.9c2.8,1.3,5.4,3,7.6,5.1V91.2h17.3v104H354.8z M331.7,182.5c3.6,0,6.7-0.7,9.2-2.2c2.5-1.5,4.9-3.6,7.1-6.4
				v-32.2c-2-2.4-4.1-4.1-6.4-5c-2.3-1-4.8-1.5-7.5-1.5c-2.6,0-5,0.5-7.1,1.5c-2.1,1-3.9,2.5-5.4,4.4c-1.5,2-2.6,4.5-3.4,7.6
				c-0.8,3.1-1.2,6.7-1.2,10.8c0,4.2,0.3,7.8,1,10.7c0.7,2.9,1.6,5.3,2.9,7.1c1.3,1.8,2.8,3.2,4.6,4S329.5,182.5,331.7,182.5z"/>
			<path class="st5" d="M405,102.4c0,1.5-0.3,2.9-0.9,4.2c-0.6,1.3-1.4,2.5-2.4,3.4c-1,1-2.2,1.8-3.5,2.3c-1.4,0.6-2.8,0.9-4.3,0.9
				c-1.5,0-2.9-0.3-4.2-0.9c-1.3-0.6-2.5-1.4-3.5-2.3c-1-1-1.8-2.1-2.3-3.4c-0.6-1.3-0.9-2.7-0.9-4.2c0-1.5,0.3-3,0.9-4.3
				c0.6-1.4,1.4-2.5,2.3-3.5c1-1,2.1-1.8,3.5-2.3c1.3-0.6,2.7-0.9,4.2-0.9c1.5,0,3,0.3,4.3,0.9c1.4,0.6,2.5,1.4,3.5,2.3
				c1,1,1.8,2.1,2.4,3.5C404.7,99.4,405,100.9,405,102.4z M402.4,123.4v71.8h-17.3v-71.8H402.4z"/>
			<path class="st5" d="M425,195.2v-58.8l-6.2-1c-1.4-0.2-2.4-0.7-3.3-1.4c-0.8-0.7-1.2-1.7-1.2-2.9V124H425v-5.3
				c0-4.1,0.6-7.8,1.9-11.1c1.2-3.3,3-6,5.3-8.3c2.3-2.3,5.1-4,8.4-5.2c3.3-1.2,7-1.8,11.2-1.8c3.3,0,6.4,0.4,9.2,1.3l-0.4,8.7
				c-0.1,1.4-0.7,2.2-1.9,2.5c-1.2,0.3-2.5,0.5-4.1,0.5c-2.1,0-3.9,0.2-5.5,0.7c-1.6,0.4-3,1.2-4.1,2.3c-1.1,1.1-2,2.5-2.6,4.3
				c-0.6,1.8-0.9,4-0.9,6.7v4.8h18.7v12.3h-18.1v58.9H425z"/>
			<path class="st5" d="M492,102.4c0,1.5-0.3,2.9-0.9,4.2c-0.6,1.3-1.4,2.5-2.4,3.4c-1,1-2.2,1.8-3.5,2.3c-1.4,0.6-2.8,0.9-4.3,0.9
				c-1.5,0-2.9-0.3-4.2-0.9c-1.3-0.6-2.5-1.4-3.5-2.3c-1-1-1.8-2.1-2.3-3.4c-0.6-1.3-0.9-2.7-0.9-4.2c0-1.5,0.3-3,0.9-4.3
				c0.6-1.4,1.4-2.5,2.3-3.5c1-1,2.1-1.8,3.5-2.3c1.3-0.6,2.7-0.9,4.2-0.9c1.5,0,3,0.3,4.3,0.9c1.4,0.6,2.5,1.4,3.5,2.3
				c1,1,1.8,2.1,2.4,3.5C491.7,99.4,492,100.9,492,102.4z M489.4,123.4v71.8h-17.3v-71.8H489.4z"/>
			<path class="st5" d="M538.7,122.2c4.5,0,8.7,0.7,12.5,2.2c3.8,1.4,7.1,3.6,9.8,6.3c2.8,2.8,4.9,6.2,6.4,10.2
				c1.5,4,2.3,8.6,2.3,13.8c0,1.3-0.1,2.4-0.2,3.3c-0.1,0.9-0.3,1.5-0.6,2c-0.3,0.5-0.7,0.8-1.2,1.1c-0.5,0.2-1.2,0.3-2,0.3h-44.4
				c0.5,7.4,2.5,12.8,6,16.2c3.5,3.5,8,5.2,13.7,5.2c2.8,0,5.2-0.3,7.2-1c2-0.7,3.8-1.4,5.3-2.2c1.5-0.8,2.8-1.5,4-2.2
				c1.1-0.7,2.2-1,3.3-1c0.7,0,1.3,0.1,1.8,0.4c0.5,0.3,1,0.7,1.3,1.2l5,6.3c-1.9,2.2-4.1,4.1-6.4,5.6c-2.4,1.5-4.9,2.7-7.5,3.6
				c-2.6,0.9-5.2,1.6-7.9,1.9c-2.7,0.4-5.3,0.6-7.8,0.6c-5,0-9.6-0.8-13.9-2.5c-4.3-1.7-8-4.1-11.2-7.4c-3.2-3.2-5.7-7.3-7.5-12
				c-1.8-4.8-2.7-10.3-2.7-16.6c0-4.9,0.8-9.5,2.4-13.8c1.6-4.3,3.9-8.1,6.8-11.3c3-3.2,6.6-5.7,10.8-7.6
				C528.5,123.2,533.3,122.2,538.7,122.2z M539,134.6c-5,0-9,1.4-11.8,4.3c-2.8,2.8-4.7,6.9-5.5,12.1h32.5c0-2.2-0.3-4.4-0.9-6.3
				s-1.5-3.7-2.8-5.2c-1.3-1.5-2.8-2.7-4.8-3.5C543.8,135.1,541.6,134.6,539,134.6z"/>
			<path class="st5" d="M583.8,195.2v-71.8H594c1.8,0,3,0.3,3.7,1c0.7,0.7,1.2,1.8,1.4,3.4l1,8.7c2.6-4.4,5.6-7.9,9-10.5
				c3.5-2.6,7.3-3.9,11.6-3.9c3.5,0,6.5,0.8,8.8,2.5l-2.2,13c-0.1,0.8-0.4,1.4-0.9,1.8c-0.5,0.3-1.1,0.5-1.9,0.5
				c-0.7,0-1.7-0.2-2.9-0.5c-1.2-0.3-2.8-0.5-4.8-0.5c-3.6,0-6.7,1-9.2,3c-2.6,2-4.7,4.9-6.5,8.7v44.7H583.8z"/>
		</g>
	</g>
</g>
</svg>
