<?xml version="1.0" encoding="utf-8"?>
<!-- Generator: Adobe Illustrator 23.0.2, SVG Export Plug-In . SVG Version: 6.00 Build 0)  -->
<svg version="1.1" id="Calque_1" xmlns="http://www.w3.org/2000/svg" xmlns:xlink="http://www.w3.org/1999/xlink" x="0px" y="0px"
	 viewBox="0 0 1344 896" style="enable-background:new 0 0 1344 896;" xml:space="preserve">
<style type="text/css">
	.st0{fill:#C3E0C6;}
</style>
<path class="st0" d="M537.5999756,627.2999878h268.7999878v-67.2000122h-89.5999756V246.3999939H637l-103.5999756,95.8999939
	l53.9000244,56c19.5999756-17.2999878,32.4000244-30.6000061,38.5-39.8999939h1.4000244V560h-89.5999756L537.5999756,627.2999878
	L537.5999756,627.2999878z M896,448c0,32.7000122-4.9000244,65.7999878-14.7000122,99.4000244
	C871.5,581,857.5999756,612.3000488,839.5999756,641.2000122c-18,28.9000244-41.7000122,52.5-71.0999756,70.7000122
	s-61.5999756,27.2999878-96.5999756,27.2999878s-67.2000122-9.0999756-96.5999756-27.2999878
	c-29.4000244-18.2000122-53.0999756-41.7999878-71.1000061-70.7000122S472.4000549,581,462.6000366,547.4000244
	s-14.7000122-66.7000122-14.7000122-99.3999939s4.8999939-65.8000183,14.7000122-99.3999939
	c9.7999878-33.6000061,23.7000122-64.8999939,41.6000061-93.8000031c18.0000305-28.8999939,41.6999817-52.5,71.1000061-70.6999969
	c29.5-18.1999969,61.7000122-27.3000031,96.7000122-27.3000031s67.2000122,9.1000061,96.5999756,27.3000031
	c29.4000244,18.1999969,53.0999756,41.8000031,71.0999756,70.6999969S871.5,315.0000305,881.4000244,348.6000366
	C891.0999756,382.2999878,896,415.3999939,896,448z M1254.4000244,627.2999878v-358.5c-49.5,0-91.6999512-17.5-126.6999512-52.5
	s-52.5-77.1999969-52.5-126.6999969H268.7999878c0,49.5-17.5,91.6999969-52.5,126.6999969s-77.1999969,52.5-126.6999969,52.5
	v358.3999634c49.5,0,91.6999969,17.5,126.6999969,52.5s52.5,77.2000122,52.5,126.7000122h806.3999634
	c0-49.5,17.5-91.7000122,52.5-126.7000122C1162.6999512,644.7999878,1204.9000244,627.2999878,1254.4000244,627.2999878z
	 M1344,44.7999992v806.4000244c0,12.0999756-4.4000244,22.5999756-13.3000488,31.5S1311.2999268,896,1299.1999512,896H44.7999992
	c-12.1000023,0-22.6000004-4.4000244-31.5-13.2999878S0,863.2999878,0,851.2000122V44.7999992
	c0-12.1000023,4.4000001-22.6000004,13.3000002-31.5S32.7000008,0,44.7999992,0h1254.4000244
	c12.0999756,0,22.5999756,4.4000001,31.5,13.3000002S1344,32.7000008,1344,44.7999992z"/>
</svg>
