<?xml version="1.0" encoding="utf-8"?>
<!-- Generator: Adobe Illustrator 22.1.0, SVG Export Plug-In . SVG Version: 6.00 Build 0)  -->
<svg version="1.1" id="Calque_1" xmlns="http://www.w3.org/2000/svg" xmlns:xlink="http://www.w3.org/1999/xlink" x="0px" y="0px"
	 viewBox="0 0 16.5 16.5" style="enable-background:new 0 0 16.5 16.5;" xml:space="preserve">
<style type="text/css">
	.st0{fill:#FFFFFF;}
</style>
<g id="Page-1">
	<g id="move">
		<path id="resize-border" class="st0" d="M10.2,5.2h1v1h-1V5.2z M11.2,11.2h-1v-1h1V11.2z M6.2,6.2h-1v-1h1V6.2z M6.2,11.2h-1v-1h1
			V11.2z M8.2,0.2l-8,8l5.2,5.2l2.8,2.8l8-8L8.2,0.2z"/>
		<path id="resize-horizontal" d="M14.8,8.2l-2.6-2.8v1.8h-4h-4V5.4L1.7,8.2L4.2,11l0-1.8h4h4l0,1.8L14.8,8.2z"/>
		<path id="resize-vertical" d="M9.2,8.2L9.2,8.2l0-4l1.8,0L8.2,1.7L5.4,4.2h1.8v4h0v4l-1.8,0l2.8,2.6l2.8-2.6H9.2V8.2z"/>
	</g>
</g>
</svg>
