<?xml version="1.0" encoding="utf-8"?>
<!-- Generator: Adobe Illustrator 23.0.2, SVG Export Plug-In . SVG Version: 6.00 Build 0)  -->
<svg version="1.1" id="Calque_1" xmlns="http://www.w3.org/2000/svg" xmlns:xlink="http://www.w3.org/1999/xlink" x="0px" y="0px"
	 viewBox="0 0 500 500" style="enable-background:new 0 0 500 500;" xml:space="preserve">
<style type="text/css">
	.st0{fill:#476BA8;}
	.st1{fill:#FFFFFF;}
	.st2{fill:#E9E9E0;}
	.st3{fill:#CC4B4C;}
</style>
<circle class="st0" cx="250" cy="250" r="250"/>
<g>
	<path class="st1" d="M21.3286133,202.4116211c0.0942383-0.2314453,0.2119141-0.4296875,0.3525391-0.5952148
		c0.1411133-0.1655273,0.3208008-0.3149414,0.5385742-0.4492188c0.2177734-0.1337891,0.4960938-0.2724609,0.8344727-0.4174805
		l35.0620117-14.9291992c-0.7197266-0.1079102-1.4179688-0.2373047-2.0947266-0.387207
		c-0.6762695-0.1499023-1.3041992-0.3027344-1.8828125-0.4589844l-26.3129883-7.0820312l1.909668-7.0942383l43.2856445,11.6503906
		l-1.1201172,4.1606445c-0.171875,0.6391602-0.4135742,1.140625-0.7260742,1.5058594
		c-0.3120117,0.3657227-0.7817383,0.6782227-1.4082031,0.9375l-34.9179688,14.871582
		c0.6547852,0.1123047,1.300293,0.237793,1.9370117,0.3769531c0.6367188,0.1396484,1.2143555,0.2788086,1.7333984,0.418457
		l26.5820312,7.1547852l-1.909668,7.0942383l-43.2856445-11.6503906l1.1362305-4.2207031
		C21.1386719,202.9384766,21.2338867,202.6430664,21.3286133,202.4116211z"/>
	<path class="st1" d="M75.8720703,129.0639648c2.8833008,1.5766602,5.2905273,3.5175781,7.2216797,5.8222656
		c1.9311523,2.3051758,3.3183594,4.8183594,4.1616211,7.5405273c0.8427734,2.7226562,1.0981445,5.5830078,0.765625,8.5810547
		s-1.3115234,5.984375-2.9379883,8.9575195c-1.6264648,2.9741211-3.6147461,5.4140625-5.9643555,7.3203125
		c-2.3505859,1.9067383-4.9013672,3.2441406-7.6533203,4.0117188c-2.7524414,0.7685547-5.6191406,0.9609375-8.6015625,0.578125
		c-2.9829102-0.3823242-5.9155273-1.3623047-8.7983398-2.9394531c-2.8833008-1.5766602-5.2900391-3.5166016-7.2216797-5.8217773
		c-1.9311523-2.3046875-3.315918-4.8227539-4.1538086-7.5546875c-0.8383789-2.730957-1.0888672-5.6005859-0.7509766-8.6079102
		c0.3369141-3.0073242,1.3188477-5.9975586,2.9453125-8.9711914s3.6166992-5.4067383,5.9707031-7.2993164
		c2.3544922-1.8925781,4.9003906-3.2207031,7.6381836-3.9848633c2.7382812-0.7636719,5.5981445-0.9541016,8.5810547-0.5717773
		C70.0566406,126.5078125,72.9892578,127.4873047,75.8720703,129.0639648z M71.7666016,136.5708008
		c-2.1577148-1.1801758-4.2495117-1.953125-6.2753906-2.3193359c-2.0258789-0.3657227-3.9296875-0.3413086-5.7114258,0.0742188
		s-3.4086914,1.215332-4.8813477,2.4003906c-1.4726562,1.1855469-2.7348633,2.7387695-3.7856445,4.6606445
		c-1.0512695,1.921875-1.6811523,3.8276367-1.8891602,5.715332c-0.2084961,1.8886719-0.0092773,3.6992188,0.597168,5.4326172
		c0.6069336,1.7333984,1.6083984,3.3588867,3.0043945,4.8759766c1.3959961,1.5175781,3.1733398,2.8662109,5.3305664,4.0463867
		c2.1582031,1.1801758,4.2519531,1.9487305,6.2832031,2.3051758c2.0307617,0.3569336,3.9350586,0.3212891,5.7124023-0.1083984
		c1.777832-0.4291992,3.4057617-1.2407227,4.8828125-2.4355469c1.4780273-1.1933594,2.7421875-2.7519531,3.793457-4.6738281
		c1.0507812-1.921875,1.6782227-3.8222656,1.8813477-5.7021484c0.2036133-1.8789062,0.0039062-3.6782227-0.5986328-5.3974609
		s-1.6044922-3.3334961-3.0053711-4.8417969C75.7036133,139.0947266,73.9248047,137.7509766,71.7666016,136.5708008z"/>
	<path class="st1" d="M83.1591797,86.1542969l5.2348633,4.4194336l-8.6992188,10.3041992l29.0166016,24.4975586l-5.3793945,6.371582
		l-29.0166016-24.4975586l-8.7392578,10.3510742l-5.2348633-4.4194336L83.1591797,86.1542969z"/>
	<path class="st1" d="M112.9584961,60.7304688l4.230957,5.1098633l-15.3046875,12.6738281l7.9287109,9.5742188l12.0576172-9.9848633
		l4.0927734,4.9423828L113.90625,93.0307617l8.0869141,9.7651367l15.3046875-12.6738281l4.2509766,5.1337891l-21.7753906,18.0317383
		L91.1835938,78.7626953L112.9584961,60.7304688z"/>
	<path class="st1" d="M148.3540039,48.8383789c0.0292969,0.5078125-0.0395508,0.9169922-0.2060547,1.2270508
		c-0.1674805,0.3110352-0.4301758,0.5693359-0.7885742,0.7749023c-0.3583984,0.206543-0.8413086,0.2993164-1.4487305,0.2788086
		c-0.6074219-0.0200195-1.3139648-0.0253906-2.1186523-0.0161133c-0.8046875,0.0102539-1.6948242,0.1103516-2.6699219,0.3012695
		s-2.0175781,0.6054688-3.128418,1.2436523c-1.0039062,0.5771484-1.8076172,1.2001953-2.4121094,1.8691406
		c-0.6044922,0.6694336-1.0385742,1.3657227-1.3017578,2.0893555c-0.2636719,0.7236328-0.3486328,1.4575195-0.2543945,2.2016602
		c0.0942383,0.7451172,0.3476562,1.4755859,0.7592773,2.1918945c0.5253906,0.9140625,1.2182617,1.5288086,2.0791016,1.8442383
		c0.8608398,0.315918,1.8354492,0.4467773,2.925293,0.3925781c1.0888672-0.0537109,2.2695312-0.2192383,3.5400391-0.4970703
		c1.2705078-0.2773438,2.5766602-0.5454102,3.9179688-0.8037109s2.6962891-0.4414062,4.0649414-0.5488281
		s2.6972656-0.0131836,3.987793,0.2822266c1.2900391,0.2954102,2.5151367,0.8608398,3.6743164,1.6962891
		c1.159668,0.8349609,2.2026367,2.059082,3.1298828,3.671875c1.0092773,1.7558594,1.6538086,3.5722656,1.934082,5.4492188
		s0.1699219,3.7167969-0.3320312,5.5185547c-0.5014648,1.8022461-1.3979492,3.5092773-2.6884766,5.1206055
		c-1.2905273,1.6118164-3.0107422,3.0356445-5.1606445,4.2714844c-1.2363281,0.7104492-2.5249023,1.2900391-3.8642578,1.7382812
		s-2.6884766,0.7646484-4.0483398,0.9501953c-1.3588867,0.1855469-2.6987305,0.2402344-4.0175781,0.1640625
		s-2.5761719-0.2832031-3.7714844-0.621582l0.1035156-4.671875c0.0527344-0.3637695,0.1689453-0.7104492,0.3491211-1.0410156
		c0.1796875-0.3295898,0.4399414-0.5922852,0.7807617-0.7880859c0.4472656-0.2573242,1.0371094-0.3515625,1.7675781-0.2832031
		c0.730957,0.0688477,1.5786133,0.1240234,2.5439453,0.1645508c0.965332,0.0415039,2.0327148-0.0297852,3.2026367-0.2138672
		c1.1694336-0.1831055,2.4267578-0.6616211,3.7705078-1.434082c2.0600586-1.184082,3.3745117-2.5888672,3.9418945-4.2143555
		c0.5678711-1.625,0.3261719-3.3515625-0.7241211-5.1791992c-0.5869141-1.0214844-1.3212891-1.7080078-2.2026367-2.0595703
		s-1.8696289-0.5043945-2.9638672-0.4594727c-1.0947266,0.0449219-2.2666016,0.2241211-3.5170898,0.5371094
		c-1.25,0.3134766-2.5336914,0.6108398-3.8505859,0.890625c-1.3168945,0.2802734-2.6567383,0.4785156-4.0205078,0.5942383
		c-1.3632812,0.1166992-2.6977539,0.0131836-4.003418-0.309082c-1.3056641-0.3217773-2.5610352-0.9414062-3.7670898-1.8574219
		c-1.2055664-0.9155273-2.3183594-2.2607422-3.3378906-4.034668c-0.8134766-1.4150391-1.3242188-2.9570312-1.5322266-4.6254883
		s-0.0688477-3.3330078,0.4179688-4.9956055c0.4868164-1.6621094,1.3383789-3.2597656,2.5546875-4.7939453
		c1.2158203-1.5327148,2.8364258-2.8818359,4.8613281-4.0454102c2.293457-1.3183594,4.6142578-2.1748047,6.9609375-2.5708008
		c2.347168-0.3955078,4.5722656-0.3393555,6.675293,0.1679688L148.3540039,48.8383789z"/>
	<path class="st1" d="M216.1601562,40.8603516c0.8442383,3.175293,1.0898438,6.2324219,0.7373047,9.1699219
		c-0.3525391,2.9379883-1.2324219,5.6206055-2.6401367,8.0473633c-1.4077148,2.4272461-3.3188477,4.5288086-5.7338867,6.3037109
		c-2.4150391,1.7758789-5.2607422,3.0986328-8.5361328,3.9692383L183.449707,72.746582l-11.515625-43.3217773l16.5375977-4.3959961
		c3.2753906-0.8706055,6.4038086-1.1298828,9.3842773-0.7783203c2.9804688,0.3520508,5.6826172,1.2270508,8.1069336,2.6245117
		c2.4248047,1.3979492,4.519043,3.2841797,6.2836914,5.6591797S215.315918,37.6845703,216.1601562,40.8603516z
		 M207.9213867,43.050293c-0.6318359-2.3769531-1.5185547-4.4238281-2.6591797-6.1416016
		c-1.1411133-1.7172852-2.4746094-3.0737305-4.0004883-4.0688477c-1.5263672-0.9946289-3.2260742-1.6171875-5.0996094-1.8681641
		c-1.8740234-0.25-3.8691406-0.0942383-5.9858398,0.46875l-8.4189453,2.237793l8.1074219,30.4985352l8.418457-2.237793
		c2.1166992-0.5625,3.9262695-1.4174805,5.4287109-2.5654297c1.5014648-1.1474609,2.6679688-2.5322266,3.4985352-4.1538086
		c0.8305664-1.6210938,1.3144531-3.4609375,1.4521484-5.5185547
		C208.7998047,47.644043,208.5532227,45.4272461,207.9213867,43.050293z"/>
	<path class="st1" d="M251.3261719,16.3491211l0.3837891,6.6230469l-19.8374023,1.1508789l0.7202148,12.4101562l15.628418-0.9067383
		l0.3720703,6.40625l-15.6289062,0.9067383l0.734375,12.6577148l19.8374023-1.1508789l0.3867188,6.6538086l-28.2246094,1.6376953
		l-2.597168-44.7504883L251.3261719,16.3491211z"/>
	<path class="st1" d="M275.1191406,17.1303711l6.5927734,1.3369141c0.7089844,0.144043,1.2509766,0.4331055,1.6269531,0.8676758
		c0.3759766,0.4350586,0.6201172,0.9482422,0.7314453,1.5405273l4.8964844,28.8911133
		c0.1669922,0.940918,0.3017578,1.9648438,0.4042969,3.0712891c0.1025391,1.1069336,0.1787109,2.2661133,0.2285156,3.4780273
		c0.9375-2.234375,1.9316406-4.1733398,2.9824219-5.815918l15.7333984-24.7080078
		c0.2763672-0.4287109,0.6865234-0.7885742,1.2304688-1.0791016c0.5439453-0.2900391,1.1601562-0.3657227,1.8496094-0.2260742
		l6.5927734,1.3369141l-26.6523438,40.3339844l-7.3828125-1.4975586L275.1191406,17.1303711z"/>
	<path class="st1" d="M354.0947266,40.7519531l-2.5693359,6.1166992l-18.3212891-7.6933594l-4.8125,11.4614258l14.4345703,6.0610352
		l-2.4853516,5.9165039l-14.4335938-6.0610352l-4.9091797,11.6904297l18.3212891,7.6933594l-2.5800781,6.1450195
		L310.671875,71.1362305l17.3554688-41.3300781L354.0947266,40.7519531z"/>
	<path class="st1" d="M357.7148438,74.3828125l-9.6845703,14.5942383l-6.9482422-4.6113281l24.7861328-37.3496094
		l11.390625,7.559082c2.5488281,1.6914062,4.5566406,3.4023438,6.0253906,5.1333008
		c1.4677734,1.730957,2.46875,3.4555664,3.0029297,5.1738281c0.5332031,1.71875,0.6347656,3.4165039,0.3027344,5.09375
		s-1.0234375,3.3081055-2.0742188,4.8920898c-0.8349609,1.2573242-1.8085938,2.3222656-2.9208984,3.1958008
		c-1.1132812,0.8740234-2.3212891,1.5356445-3.6240234,1.9853516c-1.3037109,0.4501953-2.6962891,0.6791992-4.1777344,0.6879883
		s-3.0136719-0.2143555-4.5966797-0.6694336c0.546875,1.0825195,0.8300781,2.2993164,0.8505859,3.6523438l0.1962891,19.9980469
		l-6.25-4.1479492c-0.6035156-0.4003906-1.0361328-0.8603516-1.296875-1.3818359
		c-0.2626953-0.5209961-0.3916016-1.1020508-0.3867188-1.7446289l0.0839844-17.1699219
		c0.0039062-0.6420898-0.1074219-1.1748047-0.3339844-1.5986328c-0.2275391-0.4233398-0.6855469-0.8642578-1.3740234-1.3208008
		L357.7148438,74.3828125z M361.0234375,69.3979492l4.3388672,2.8798828
		c1.3085938,0.8681641,2.5576172,1.4619141,3.7480469,1.7802734c1.1894531,0.3183594,2.2900391,0.3979492,3.3027344,0.2382812
		c1.0107422-0.1601562,1.9345703-0.5327148,2.7695312-1.1196289c0.8359375-0.5859375,1.5683594-1.3530273,2.1962891-2.300293
		c1.2568359-1.894043,1.5986328-3.7631836,1.0244141-5.6079102c-0.5742188-1.8442383-2.1445312-3.6181641-4.7099609-5.3208008
		l-4.4423828-2.9482422L361.0234375,69.3979492z"/>
	<path class="st1" d="M414.8349609,96.3564453c-0.4794922,0.1689453-0.8916016,0.2163086-1.2363281,0.1420898
		s-0.6660156-0.2548828-0.9628906-0.5419922c-0.2978516-0.2871094-0.5214844-0.7250977-0.6708984-1.3144531
		s-0.3398438-1.269043-0.5732422-2.0395508c-0.2324219-0.7705078-0.5761719-1.5976562-1.0302734-2.480957
		c-0.4541016-0.8837891-1.1416016-1.7705078-2.0634766-2.6601562c-0.8330078-0.8041992-1.6552734-1.4033203-2.4658203-1.7983398
		s-1.6005859-0.6181641-2.3681641-0.6704102c-0.7685547-0.0522461-1.4970703,0.0703125-2.1865234,0.3676758
		c-0.6894531,0.296875-1.3203125,0.7431641-1.8945312,1.3378906c-0.7314453,0.7583008-1.1298828,1.5952148-1.1943359,2.5092773
		c-0.0644531,0.9150391,0.0810547,1.8876953,0.4355469,2.9194336c0.3544922,1.03125,0.8408203,2.1191406,1.4609375,3.2626953
		c0.6191406,1.1435547,1.2392578,2.3237305,1.8603516,3.5405273c0.6201172,1.2167969,1.1728516,2.4677734,1.65625,3.7524414
		c0.4824219,1.2851562,0.7617188,2.5878906,0.8359375,3.909668c0.0742188,1.3212891-0.1279297,2.6547852-0.6083984,4.0009766
		c-0.4804688,1.3457031-1.3671875,2.6879883-2.6582031,4.0258789c-1.4072266,1.4575195-2.9726562,2.5810547-4.6982422,3.3720703
		c-1.7255859,0.7900391-3.5234375,1.1948242-5.3935547,1.2133789c-1.8710938,0.0185547-3.7587891-0.3681641-5.6660156-1.1601562
		c-1.90625-0.7924805-3.7519531-2.0493164-5.5361328-3.7714844c-1.0263672-0.9907227-1.9414062-2.0668945-2.7431641-3.2294922
		c-0.8027344-1.1621094-1.4814453-2.3706055-2.0371094-3.625c-0.5566406-1.2543945-0.9804688-2.5258789-1.2734375-3.8139648
		c-0.2939453-1.2885742-0.4433594-2.5537109-0.4511719-3.7958984l4.5175781-1.1982422
		c0.3642578-0.050293,0.7294922-0.034668,1.0966797,0.0463867c0.3662109,0.081543,0.6914062,0.2583008,0.9736328,0.5307617
		c0.3720703,0.3588867,0.6259766,0.8989258,0.7636719,1.6201172c0.1367188,0.7211914,0.3193359,1.5507812,0.5478516,2.4897461
		c0.2285156,0.9384766,0.59375,1.9443359,1.0947266,3.0166016c0.5009766,1.0727539,1.3095703,2.1474609,2.4248047,3.2241211
		c1.7099609,1.6503906,3.4248047,2.5229492,5.1435547,2.6162109c1.7197266,0.0942383,3.3105469-0.6176758,4.7744141-2.1342773
		c0.8183594-0.8476562,1.2744141-1.7436523,1.3671875-2.6879883s-0.0351562-1.9355469-0.3818359-2.9746094
		c-0.3476562-1.0390625-0.8447266-2.1152344-1.4931641-3.2294922c-0.6484375-1.1137695-1.2900391-2.2641602-1.9248047-3.4516602
		s-1.1972656-2.4194336-1.6875-3.6972656c-0.4902344-1.2773438-0.7617188-2.5883789-0.8154297-3.9316406
		c-0.0527344-1.3442383,0.1933594-2.722168,0.7382812-4.1347656c0.5449219-1.4130859,1.5283203-2.8554688,2.9492188-4.3276367
		c1.1337891-1.1743164,2.4726562-2.0932617,4.0175781-2.7563477s3.1835938-0.9921875,4.9160156-0.9858398
		c1.7314453,0.0058594,3.5029297,0.3798828,5.3144531,1.1225586c1.8105469,0.7421875,3.5556641,1.9243164,5.2363281,3.5463867
		c1.9033203,1.8374023,3.3710938,3.8286133,4.4033203,5.9731445c1.03125,2.1450195,1.5957031,4.2978516,1.6923828,6.4594727
		L414.8349609,96.3564453z"/>
	<path class="st1" d="M400.1533203,136.1992188l-5.2070312-6.5532227l35.0947266-27.8881836l5.2070312,6.5527344
		L400.1533203,136.1992188z"/>
	<path class="st1" d="M445.9501953,168.9633789c-2.8828125,1.5766602-5.8164062,2.5566406-8.7978516,2.9389648
		c-2.9833984,0.3828125-5.8476562,0.1948242-8.5947266-0.5639648c-2.7470703-0.7592773-5.2929688-2.0874023-7.6386719-3.9848633
		c-2.3447266-1.8974609-4.3300781-4.3330078-5.9570312-7.3066406c-1.6259766-2.9736328-2.6083984-5.9638672-2.9453125-8.9711914
		c-0.3378906-3.0073242-0.0869141-5.8769531,0.7509766-8.6079102c0.8378906-2.7319336,2.2226562-5.25,4.1542969-7.5546875
		c1.9306641-2.3046875,4.3378906-4.2451172,7.2216797-5.8222656c2.8828125-1.5766602,5.8154297-2.5566406,8.7978516-2.9389648
		c2.9824219-0.3828125,5.8496094-0.1904297,8.6015625,0.578125c2.7519531,0.7675781,5.3027344,2.1044922,7.6533203,4.0117188
		c2.3496094,1.90625,4.3378906,4.3461914,5.9648438,7.3198242c1.6259766,2.9736328,2.6005859,5.9624023,2.9238281,8.965332
		c0.3232422,3.003418,0.0683594,5.8637695-0.765625,8.5810547s-2.2167969,5.2285156-4.1474609,7.5332031
		C451.2402344,165.4458008,448.8330078,167.3867188,445.9501953,168.9633789z M441.8447266,161.456543
		c2.1572266-1.1796875,3.9365234-2.5239258,5.3378906-4.0322266s2.4072266-3.125,3.0195312-4.8491211
		c0.6113281-1.7246094,0.8154297-3.5258789,0.6123047-5.4052734c-0.2041016-1.8793945-0.8310547-3.7802734-1.8818359-5.7016602
		c-1.0517578-1.9223633-2.3164062-3.4804688-3.7929688-4.6743164c-1.4785156-1.1943359-3.1103516-2.0039062-4.8964844-2.4277344
		c-1.7871094-0.4243164-3.6953125-0.4580078-5.7265625-0.1010742c-2.03125,0.3564453-4.125,1.1254883-6.2832031,2.3051758
		c-2.1572266,1.1806641-3.9345703,2.5288086-5.3300781,4.0463867c-1.3964844,1.5170898-2.3935547,3.1401367-2.9912109,4.8686523
		c-0.5976562,1.7280273-0.7919922,3.5366211-0.5839844,5.4248047s0.8378906,3.793457,1.8896484,5.7158203
		c1.0507812,1.9213867,2.3125,3.4750977,3.7851562,4.6606445c1.4726562,1.1845703,3.0957031,1.9873047,4.8681641,2.4077148
		s3.671875,0.4472656,5.6982422,0.081543C437.5947266,163.409668,439.6865234,162.6367188,441.8447266,161.456543z"/>
	<path class="st1" d="M471.5976562,176.1289062c0.0341797,0.2475586,0.0322266,0.4780273-0.0068359,0.6918945
		c-0.0380859,0.2138672-0.1191406,0.4335938-0.2402344,0.6586914c-0.1210938,0.2255859-0.2919922,0.4848633-0.5117188,0.7802734
		l-22.8320312,30.5112305c0.6767578-0.2680664,1.3457031-0.5068359,2.0058594-0.7167969
		c0.6611328-0.2094727,1.2802734-0.3925781,1.859375-0.5483398l26.3125-7.0820312l1.9091797,7.0947266l-43.2851562,11.6499023
		l-1.1201172-4.1606445c-0.171875-0.6391602-0.2148438-1.1943359-0.1279297-1.6669922
		c0.0869141-0.4731445,0.3359375-0.9790039,0.7470703-1.5175781l22.7363281-30.3891602
		c-0.6220703,0.2314453-1.2441406,0.4467773-1.8642578,0.6459961s-1.1904297,0.3686523-1.7089844,0.5083008l-26.5820312,7.1542969
		l-1.9091797-7.0942383l43.2851562-11.6503906l1.1357422,4.2207031
		C471.4970703,175.578125,471.5625,175.8813477,471.5976562,176.1289062z"/>
</g>
<g>
	<path class="st1" d="M152.3041992,411.7666016l-3.8759766,5.3847656l-16.1269531-11.6103516l-7.2626953,10.0888672
		l12.7050781,9.1464844l-3.7495117,5.2080078l-12.7050781-9.1474609l-7.4077148,10.2900391l16.1264648,11.6103516
		l-3.894043,5.4091797l-22.9443359-16.5185547l26.1899414-36.3789062L152.3041992,411.7666016z"/>
	<path class="st1" d="M156.1054688,434.8769531l1.7758789,0.8134766c0.7138672,0.3271484,1.3505859,0.5,1.9111328,0.5175781
		c0.5595703,0.0185547,1.1079102-0.1113281,1.644043-0.3886719l17.765625-9.0810547
		c0.7446289-0.3857422,1.4291992-0.578125,2.0541992-0.5761719c0.6240234,0.0019531,1.3310547,0.1835938,2.1201172,0.5449219
		l6.5385742,2.9951172l-21.4848633,10.6503906c-0.6738281,0.328125-1.2890625,0.5810547-1.847168,0.7568359
		c-0.5581055,0.1767578-1.1142578,0.2734375-1.668457,0.2929688c0.5166016,0.5087891,0.9291992,1.0849609,1.237793,1.7265625
		c0.3085938,0.640625,0.5512695,1.3886719,0.7285156,2.2431641l5.4072266,25.5615234l-6.7075195-3.0732422
		c-0.9018555-0.4130859-1.515625-0.8476562-1.8408203-1.3037109c-0.3256836-0.4560547-0.5268555-0.9970703-0.6035156-1.6230469
		l-4.6323242-20.3310547c-0.1523438-0.6601562-0.4135742-1.2060547-0.7841797-1.6376953
		c-0.3706055-0.4306641-0.9882812-0.8447266-1.8525391-1.2402344l-2.3955078-1.0976562l-8.2114258,17.9248047l-7.5810547-3.4736328
		l18.6821289-40.78125l7.581543,3.4736328L156.1054688,434.8769531z"/>
	<path class="st1" d="M206.4086914,461.3876953l-3.8325195,16.9960938l-8.1347656-1.8349609l3.8325195-16.9951172
		l-9.9086914-30.3261719l7.1669922,1.6162109c0.7055664,0.1591797,1.2265625,0.4560547,1.5625,0.8925781
		c0.3354492,0.4355469,0.5859375,0.9472656,0.75,1.5351562l4.7202148,16.4130859
		c0.2680664,0.9716797,0.4858398,1.8847656,0.6538086,2.7373047c0.1674805,0.8544922,0.3081055,1.6855469,0.4228516,2.4951172
		c0.434082-0.7070312,0.9057617-1.4111328,1.4135742-2.1123047s1.0883789-1.4228516,1.7436523-2.1650391l11.246582-12.8125
		c0.3217773-0.3935547,0.7475586-0.7324219,1.277832-1.0146484c0.5292969-0.2832031,1.137207-0.3476562,1.8227539-0.1933594
		l7.1972656,1.6230469L206.4086914,461.3876953z"/>
	<path class="st1" d="M237.1083984,475.953125l17.9326172,0.7597656L254.75,483.5888672l-26.2646484-1.1132812l1.8974609-44.7851562
		l8.331543,0.3525391L237.1083984,475.953125z"/>
	<path class="st1" d="M274.2802734,481.9628906l-8.3388672,0.7138672l-3.8203125-44.6630859l8.3388672-0.7128906
		L274.2802734,481.9628906z"/>
	<path class="st1" d="M289.2490234,480.4199219l-10.4404297-43.59375l15.0439453-3.6025391
		c2.8535156-0.6835938,5.3554688-0.9960938,7.5058594-0.9375c2.1494141,0.0595703,3.9931641,0.4365234,5.5302734,1.1308594
		s2.7773438,1.6826172,3.7226562,2.9648438c0.9443359,1.2832031,1.6308594,2.8183594,2.0595703,4.6074219
		c0.2451172,1.0244141,0.3291016,2.0410156,0.2519531,3.0478516c-0.078125,1.0068359-0.3359375,1.9921875-0.7744141,2.9580078
		c-0.4375,0.9658203-1.0654297,1.8974609-1.8808594,2.7939453c-0.8164062,0.8964844-1.8417969,1.7373047-3.078125,2.5214844
		c6.3115234-0.0869141,10.0820312,2.4316406,11.3095703,7.5566406c0.4423828,1.8486328,0.5,3.6416016,0.171875,5.3779297
		c-0.328125,1.7353516-1.0292969,3.3330078-2.1035156,4.7910156c-1.0751953,1.4580078-2.5205078,2.7441406-4.3359375,3.859375
		s-3.9892578,1.9755859-6.5214844,2.5820312L289.2490234,480.4199219z M291.4384766,453.7568359l6.4814453-1.5527344
		c2.7539062-0.6591797,4.7236328-1.6621094,5.9101562-3.0087891c1.1855469-1.3466797,1.5166016-3.1152344,0.9921875-5.3066406
		c-0.5439453-2.2705078-1.5751953-3.734375-3.0917969-4.3916016c-1.5175781-0.65625-3.6435547-0.6572266-6.3759766-0.0029297
		l-6.9345703,1.6601562L291.4384766,453.7568359z M292.78125,459.3642578l3.0615234,12.7822266l8.2304688-1.9716797
		c1.5068359-0.3603516,2.7246094-0.84375,3.6533203-1.4482422c0.9277344-0.6044922,1.6259766-1.2822266,2.0957031-2.0322266
		c0.4677734-0.7490234,0.7421875-1.5585938,0.8203125-2.4277344c0.0791016-0.8691406,0.0097656-1.7558594-0.2060547-2.6601562
		c-0.2265625-0.9443359-0.5810547-1.7578125-1.0625-2.4394531c-0.4824219-0.6806641-1.1083984-1.2109375-1.8789062-1.5898438
		c-0.7714844-0.3779297-1.6923828-0.5878906-2.7646484-0.6289062c-1.0722656-0.0400391-2.3222656,0.1103516-3.7490234,0.4521484
		L292.78125,459.3642578z"/>
	<path class="st1" d="M334.4589844,448.6230469L341.8535156,464.5l-7.5595703,3.5214844l-18.9257812-40.6347656
		l12.3925781-5.7724609c2.7724609-1.2910156,5.2802734-2.1113281,7.5234375-2.4609375
		c2.2421875-0.3486328,4.2363281-0.3027344,5.9804688,0.1386719c1.7451172,0.4414062,3.2460938,1.2412109,4.5029297,2.3994141
		c1.2578125,1.1582031,2.2880859,2.5996094,3.0908203,4.3232422c0.6367188,1.3671875,1.0380859,2.7539062,1.2021484,4.1591797
		s0.0986328,2.78125-0.1982422,4.1269531c-0.2958984,1.3466797-0.8271484,2.6542969-1.5927734,3.9228516
		s-1.7558594,2.4589844-2.9697266,3.5722656c1.2080078,0.0986328,2.3945312,0.4912109,3.5585938,1.1806641l17.1621094,10.2675781
		l-6.7998047,3.1679688c-0.65625,0.3046875-1.2744141,0.4335938-1.8554688,0.3847656
		c-0.5820312-0.0478516-1.1445312-0.2412109-1.6904297-0.5810547l-14.6025391-9.0322266
		c-0.5449219-0.3378906-1.0576172-0.5205078-1.5380859-0.5488281c-0.4794922-0.0263672-1.0947266,0.1337891-1.84375,0.4833984
		L334.4589844,448.6230469z M331.9326172,443.1992188l4.7207031-2.1982422
		c1.4238281-0.6630859,2.5820312-1.4189453,3.4746094-2.2685547c0.8925781-0.8486328,1.5351562-1.7460938,1.9267578-2.6923828
		s0.5556641-1.9287109,0.4912109-2.9472656s-0.3359375-2.0439453-0.8164062-3.0742188
		c-0.9599609-2.0605469-2.3759766-3.3271484-4.2490234-3.7998047s-4.2060547-0.0595703-6.9970703,1.2412109l-4.8330078,2.2509766
		L331.9326172,443.1992188z"/>
	<path class="st1" d="M372.125,394.1796875l3.8759766,5.3837891L359.875,411.1738281l7.2626953,10.0888672l12.7050781-9.1474609
		l3.7490234,5.2080078l-12.7050781,9.1464844l7.4082031,10.2900391l16.1269531-11.6103516l3.8935547,5.4091797
		l-22.9443359,16.5185547l-26.1904297-36.3789062L372.125,394.1796875z"/>
</g>
<circle class="st2" cx="250" cy="250" r="175"/>
<path class="st3" d="M381.5720215,186.5081177c0-25.0566101-20.2947083-45.3513336-45.3513184-45.3513336
	c-25.0566406,0-45.3513489,20.2947235-45.3513489,45.3513336c0,20.6348572,13.7754822,38.0384369,32.596283,43.5372925
	c-0.3401489,9.1269531-2.3809509,16.1564178-6.2358093,20.9183044
	c-8.7301331,10.8843384-27.9477844,12.6983643-48.2991943,14.5691223
	c-15.9863434,1.473938-32.5395813,3.0612183-46.0882874,9.5804749V193.480896
	c18.4239807-5.7822876,31.7459259-22.9591217,31.7459259-43.2538452c0-25.0566101-20.2947235-45.3513336-45.3513336-45.3513336
	s-45.3513489,20.2947159-45.3513489,45.3513336c0,20.2947235,13.3219604,37.4715424,31.7459412,43.2538452v112.9815369
	c-18.4239807,5.8389587-31.7459412,23.0158081-31.7459412,43.3105164c0,25.0566101,20.2947235,45.3513489,45.3513489,45.3513489
	s45.3513336-20.2947388,45.3513336-45.3513489c0-19.2743225-12.0180969-35.770874-29.0248566-42.2901306
	c1.75737-2.9478455,4.4217682-5.555542,8.446701-7.596344c9.1836395-4.6485291,22.90242-5.8956604,37.4715424-7.2562256
	c23.922821-2.2108459,51.0202332-4.7618713,67.0065918-24.6030884c7.9364929-9.8639221,11.9614258-22.5622864,12.244873-38.4919434
	c17.9137878-6.1224365,30.8388977-23.0724945,30.8388977-43.0270844V186.5081177z M209.2369385,141.1567841
	c4.9886475,0,9.0702667,4.0816193,9.0702667,9.0702667s-4.0816193,9.0702667-9.0702667,9.0702667
	s-9.0702667-4.0816193-9.0702667-9.0702667S204.248291,141.1567841,209.2369385,141.1567841z M209.2369385,358.8432007
	c-4.9886475,0-9.0702667-4.081604-9.0702667-9.0702515s4.0816193-9.070282,9.0702667-9.070282
	s9.0702667,4.0816345,9.0702667,9.070282S214.2255859,358.8432007,209.2369385,358.8432007z M336.2207031,177.437851
	c4.9886169,0,9.0702515,4.0816193,9.0702515,9.0702667s-4.0816345,9.0702667-9.0702515,9.0702667
	c-4.9886475,0-9.070282-4.0816193-9.070282-9.0702667S331.2320557,177.437851,336.2207031,177.437851z"/>
</svg>
