<?xml version="1.0" encoding="utf-8"?>
<!-- Generator: Adobe Illustrator 21.1.0, SVG Export Plug-In . SVG Version: 6.00 Build 0)  -->
<svg version="1.1" id="Calque_1" xmlns="http://www.w3.org/2000/svg" xmlns:xlink="http://www.w3.org/1999/xlink" x="0px" y="0px"
	 viewBox="0 0 341 249.3" style="enable-background:new 0 0 341 249.3;" xml:space="preserve">
<style type="text/css">
	.st0{fill:#FFFFFF;}
</style>
<path class="st0" d="M335.7,71.2l-118-50.6V8.8c0-4.9-3.9-8.8-8.8-8.8c-4.9,0-8.8,3.9-8.8,8.8v17.6v105.7v42.3
	c-0.9,0.2-1.9,0.5-2.8,0.8l-37.7-37.7c1.2-3.7,1.8-7.5,1.8-11.6c0-21-17-38-38-38s-38,17-38,38c0,4,0.6,7.9,1.8,11.6l-37.7,37.7
	c-13.1-4.2-28-1.1-38.5,9.3c-14.8,14.8-14.8,38.9,0,53.7c14.8,14.8,38.9,14.8,53.7,0c10.4-10.4,13.5-25.3,9.3-38.5l37.7-37.7
	c3.7,1.2,7.5,1.8,11.6,1.8s7.9-0.6,11.6-1.8l37.7,37.7c-4.2,13.1-1.1,28,9.3,38.5c14.8,14.8,38.9,14.8,53.7,0
	c14.8-14.8,14.8-38.9,0-53.7c-5.2-5.2-11.4-8.5-18.1-10.1v-36.5l118-50.6c3.2-1.4,5.3-4.6,5.3-8.1C341,75.7,338.9,72.6,335.7,71.2z
	 M250,111.4l-25.8-25.6l9.3-9.4l16.4,16.3l34-34.2l9.4,9.3L250,111.4z"/>
</svg>
