<?xml version="1.0" encoding="utf-8"?>
<!-- Generator: Adobe Illustrator 24.3.0, SVG Export Plug-In . SVG Version: 6.00 Build 0)  -->
<svg version="1.1" id="Calque_1" xmlns="http://www.w3.org/2000/svg" xmlns:xlink="http://www.w3.org/1999/xlink" x="0px" y="0px"
	 viewBox="0 0 414 500" style="enable-background:new 0 0 414 500;" xml:space="preserve">
<style type="text/css">
	.st0{fill:#1195F6;}
</style>
<path class="st0" d="M207,146.5c-57.1,0-103.5,46.3-103.5,103.5S149.9,353.5,207,353.5S310.5,307.1,310.5,250S264.1,146.5,207,146.5
	z M207,43C92.6,43,0,135.6,0,250s92.6,207,207,207s207-92.6,207-207S321.4,43,207,43L207,43z M207,415.6
	c-91.5,0-165.6-74.1-165.6-165.6S115.5,84.4,207,84.4S372.6,158.5,372.6,250S298.5,415.6,207,415.6z"/>
</svg>
