<?xml version="1.0" encoding="utf-8"?>
<!-- Generator: Adobe Illustrator 24.3.0, SVG Export Plug-In . SVG Version: 6.00 Build 0)  -->
<svg version="1.1" id="Calque_1" xmlns="http://www.w3.org/2000/svg" xmlns:xlink="http://www.w3.org/1999/xlink" x="0px" y="0px"
	 viewBox="0 0 953.4 292" style="enable-background:new 0 0 953.4 292;" xml:space="preserve">
<style type="text/css">
	.st0{fill:url(#SVGID_1_);}
	.st1{fill:url(#SVGID_2_);}
	.st2{fill:#FFFFFF;}
	.st3{fill:#333333;}
</style>
<g>
	
		<linearGradient id="SVGID_1_" gradientUnits="userSpaceOnUse" x1="2019.3" y1="1434" x2="2019.3" y2="1142" gradientTransform="matrix(-1 0 0 1 2496 -1142)">
		<stop  offset="0" style="stop-color:#BBBBBB"/>
		<stop  offset="1" style="stop-color:#DCDCDC"/>
	</linearGradient>
	<path class="st0" d="M25,282c-8,0-15-7-15-15V25c0-8,7-15,15-15h903.5c8,0,15,7,15,15v242c0,8-7,15-15,15H25z M928.4,292
		c14,0,25-11,25-25V25c0-14-11-25-25-25H25C11,0,0,11,0,25v242c0,14,11,25,25,25H928.4z"/>
</g>
<linearGradient id="SVGID_2_" gradientUnits="userSpaceOnUse" x1="2019.25" y1="-400" x2="2019.25" y2="-128" gradientTransform="matrix(-1 0 0 -1 2496 -118)">
	<stop  offset="0" style="stop-color:#E8E8E8"/>
	<stop  offset="1" style="stop-color:#F9F9F9"/>
</linearGradient>
<path class="st1" d="M25,282c-8,0-15-7-15-15V25c0-8,7-15,15-15h903.5c8,0,15,7,15,15v242c0,8-7,15-15,15H25z"/>
<g>
	<path class="st2" d="M302.1,164.1v39.5h-18.8V102.4h30.9c6.9,0,12.8,0.7,17.7,2.1c4.9,1.4,9,3.4,12.1,6c3.1,2.6,5.5,5.6,6.9,9.2
		c1.5,3.6,2.2,7.5,2.2,11.8c0,3.4-0.5,6.6-1.5,9.7c-1,3-2.5,5.8-4.3,8.3c-1.9,2.5-4.2,4.6-7,6.5c-2.8,1.9-5.9,3.4-9.5,4.5
		c2.4,1.4,4.4,3.3,6.2,5.8l25.3,37.4h-16.9c-1.6,0-3-0.3-4.2-1c-1.1-0.7-2.1-1.6-2.9-2.8L317,167.4c-0.8-1.2-1.7-2.1-2.6-2.6
		c-1-0.5-2.4-0.8-4.2-0.8H302.1z M302.1,150.5h11.8c3.5,0,6.6-0.4,9.3-1.3c2.6-0.9,4.8-2.1,6.5-3.7c1.7-1.6,3-3.4,3.8-5.6
		c0.8-2.1,1.3-4.5,1.3-7.1c0-5.1-1.7-9.1-5.1-11.8c-3.4-2.8-8.6-4.1-15.5-4.1h-12V150.5z"/>
	<path class="st2" d="M429.7,203.6h-7.8c-1.6,0-2.9-0.2-3.8-0.7c-0.9-0.5-1.6-1.5-2.1-3l-1.5-5.1c-1.8,1.6-3.6,3.1-5.4,4.3
		c-1.8,1.2-3.6,2.3-5.4,3.1c-1.9,0.8-3.8,1.5-5.9,1.9c-2.1,0.4-4.4,0.6-7,0.6c-3,0-5.8-0.4-8.4-1.2c-2.6-0.8-4.8-2-6.6-3.7
		c-1.8-1.6-3.3-3.7-4.3-6.1c-1-2.4-1.5-5.3-1.5-8.5c0-2.7,0.7-5.4,2.1-8c1.4-2.6,3.8-5,7.1-7.2c3.3-2.1,7.7-3.9,13.2-5.3
		c5.5-1.4,12.3-2.1,20.5-2.1v-4.2c0-4.8-1-8.4-3-10.8s-5-3.5-8.9-3.5c-2.8,0-5.1,0.3-7,1c-1.9,0.7-3.5,1.4-4.9,2.2
		c-1.4,0.8-2.6,1.6-3.8,2.2c-1.2,0.7-2.4,1-3.8,1c-1.2,0-2.2-0.3-3-0.9c-0.8-0.6-1.5-1.4-2-2.2l-3.2-5.5
		c8.3-7.6,18.2-11.3,29.9-11.3c4.2,0,7.9,0.7,11.2,2.1c3.3,1.4,6.1,3.3,8.4,5.7c2.3,2.5,4,5.4,5.2,8.8c1.2,3.4,1.8,7.1,1.8,11.2
		V203.6z M396.1,192.8c1.8,0,3.4-0.2,4.9-0.5c1.5-0.3,2.9-0.8,4.2-1.4s2.6-1.4,3.9-2.4c1.2-0.9,2.5-2.1,3.7-3.3v-12
		c-5,0-9.3,0.3-12.6,1c-3.4,0.6-6.1,1.4-8.2,2.4c-2.1,1-3.5,2.1-4.4,3.5c-0.9,1.3-1.3,2.7-1.3,4.3c0,3.1,0.9,5.2,2.7,6.6
		C390.8,192.2,393.2,192.8,396.1,192.8z"/>
	<path class="st2" d="M449.8,203.6v-58.8l-6.2-1c-1.4-0.2-2.4-0.7-3.3-1.4c-0.8-0.7-1.2-1.7-1.2-2.9v-7.1h10.7v-5.3
		c0-4.1,0.6-7.8,1.9-11.1c1.2-3.3,3-6,5.3-8.3c2.3-2.3,5.1-4,8.4-5.2c3.3-1.2,7-1.8,11.2-1.8c3.3,0,6.4,0.4,9.2,1.3l-0.4,8.7
		c-0.1,1.4-0.7,2.2-1.9,2.5c-1.2,0.3-2.5,0.5-4.1,0.5c-2.1,0-3.9,0.2-5.5,0.7c-1.6,0.4-3,1.2-4.1,2.3c-1.1,1.1-2,2.5-2.6,4.3
		c-0.6,1.8-0.9,4-0.9,6.7v4.8h18.7v12.3H467v58.9H449.8z"/>
	<path class="st2" d="M495.7,203.6v-71.8h10.1c1.8,0,3,0.3,3.7,1c0.7,0.7,1.2,1.8,1.4,3.4l1,8.7c2.6-4.4,5.6-7.9,9-10.5
		c3.5-2.6,7.3-3.9,11.6-3.9c3.5,0,6.5,0.8,8.8,2.4l-2.2,13c-0.1,0.8-0.4,1.4-0.9,1.8c-0.5,0.3-1.1,0.5-1.9,0.5
		c-0.7,0-1.7-0.2-2.9-0.5c-1.2-0.3-2.8-0.5-4.8-0.5c-3.6,0-6.7,1-9.2,3c-2.6,2-4.7,4.9-6.5,8.7v44.7H495.7z"/>
	<path class="st2" d="M607.2,203.6h-7.8c-1.6,0-2.9-0.2-3.8-0.7c-0.9-0.5-1.6-1.5-2.1-3l-1.5-5.1c-1.8,1.6-3.6,3.1-5.4,4.3
		c-1.8,1.2-3.6,2.3-5.4,3.1c-1.9,0.8-3.9,1.5-6,1.9c-2.1,0.4-4.4,0.6-7,0.6c-3,0-5.8-0.4-8.4-1.2c-2.6-0.8-4.8-2-6.6-3.7
		c-1.8-1.6-3.3-3.7-4.3-6.1c-1-2.4-1.5-5.3-1.5-8.5c0-2.7,0.7-5.4,2.1-8c1.4-2.6,3.8-5,7.1-7.2c3.3-2.1,7.7-3.9,13.2-5.3
		c5.5-1.4,12.3-2.1,20.5-2.1v-4.2c0-4.8-1-8.4-3-10.8c-2-2.3-5-3.5-8.9-3.5c-2.8,0-5.1,0.3-7,1c-1.9,0.7-3.5,1.4-4.9,2.2
		c-1.4,0.8-2.6,1.6-3.8,2.2c-1.2,0.7-2.5,1-3.9,1c-1.2,0-2.2-0.3-3-0.9c-0.8-0.6-1.5-1.4-2-2.2l-3.2-5.5
		c8.3-7.6,18.2-11.3,29.9-11.3c4.2,0,7.9,0.7,11.2,2.1c3.3,1.4,6.1,3.3,8.4,5.7c2.3,2.5,4,5.4,5.2,8.8c1.2,3.4,1.8,7.1,1.8,11.2
		V203.6z M573.6,192.8c1.8,0,3.4-0.2,4.9-0.5c1.5-0.3,2.9-0.8,4.2-1.4s2.6-1.4,3.8-2.4c1.2-0.9,2.5-2.1,3.7-3.3v-12
		c-5,0-9.3,0.3-12.6,1c-3.4,0.6-6.1,1.4-8.2,2.4c-2.1,1-3.5,2.1-4.4,3.5s-1.3,2.7-1.3,4.3c0,3.1,0.9,5.2,2.7,6.6
		C568.3,192.2,570.7,192.8,573.6,192.8z"/>
	<path class="st2" d="M658.6,121.8h-11.6c-1.4,0-2.6-0.4-3.5-1.3l-7.3-6.6c-0.2-0.2-0.5-0.5-0.7-0.7c-0.3-0.2-0.5-0.5-0.7-0.8
		c-0.2,0.3-0.5,0.6-0.7,0.8c-0.3,0.2-0.5,0.5-0.7,0.7l-7.5,6.6c-0.4,0.3-0.9,0.6-1.5,0.9c-0.6,0.3-1.3,0.4-2,0.4h-12l16-19.5h16.2
		L658.6,121.8z M642.6,131.8v71.8h-17.3v-71.8H642.6z"/>
	<path class="st2" d="M712.6,147c-0.5,0.7-1,1.2-1.5,1.5c-0.5,0.4-1.2,0.6-2.1,0.6c-0.9,0-1.8-0.3-2.6-0.8c-0.8-0.5-1.8-1.1-3-1.8
		c-1.2-0.7-2.6-1.3-4.2-1.8c-1.6-0.5-3.6-0.8-6-0.8c-3,0-5.7,0.5-8,1.6c-2.3,1.1-4.2,2.7-5.7,4.7c-1.5,2.1-2.6,4.5-3.4,7.5
		c-0.7,2.9-1.1,6.2-1.1,9.9c0,3.8,0.4,7.2,1.2,10.2c0.8,3,2,5.5,3.5,7.5c1.5,2,3.4,3.6,5.6,4.6c2.2,1.1,4.7,1.6,7.4,1.6
		c2.8,0,5-0.3,6.7-1c1.7-0.7,3.1-1.4,4.3-2.2c1.2-0.8,2.2-1.6,3-2.2c0.9-0.7,1.8-1,2.9-1c1.4,0,2.4,0.5,3.2,1.6l5,6.3
		c-1.9,2.2-4,4.1-6.2,5.6c-2.2,1.5-4.6,2.7-7,3.6c-2.4,0.9-4.9,1.6-7.5,1.9c-2.6,0.4-5.1,0.6-7.6,0.6c-4.4,0-8.6-0.8-12.5-2.5
		s-7.3-4.1-10.3-7.2c-2.9-3.2-5.2-7.1-6.9-11.7c-1.7-4.6-2.6-9.8-2.6-15.7c0-5.3,0.8-10.2,2.3-14.7c1.5-4.5,3.7-8.4,6.7-11.7
		c2.9-3.3,6.6-5.9,10.9-7.7c4.3-1.9,9.3-2.8,15-2.8c5.4,0,10.1,0.9,14.1,2.6c4,1.7,7.7,4.2,10.9,7.4L712.6,147z"/>
	<path class="st2" d="M728.9,203.6v-104h17.3v40c2.8-2.7,5.9-4.8,9.2-6.4c3.4-1.6,7.3-2.4,11.8-2.4c3.9,0,7.4,0.7,10.4,2
		c3,1.3,5.6,3.2,7.6,5.6c2,2.4,3.6,5.3,4.6,8.6c1.1,3.3,1.6,7,1.6,11v45.7h-17.3v-45.7c0-4.4-1-7.8-3-10.2c-2-2.4-5.1-3.6-9.1-3.6
		c-3,0-5.8,0.7-8.4,2c-2.6,1.4-5.1,3.2-7.4,5.5v51.9H728.9z"/>
	<path class="st2" d="M829.5,110.8c0,1.5-0.3,2.9-0.9,4.2c-0.6,1.3-1.4,2.4-2.4,3.4c-1,1-2.2,1.8-3.5,2.3c-1.4,0.6-2.8,0.9-4.3,0.9
		c-1.5,0-2.9-0.3-4.2-0.9c-1.3-0.6-2.5-1.4-3.5-2.3c-1-1-1.8-2.1-2.3-3.4c-0.6-1.3-0.9-2.7-0.9-4.2c0-1.5,0.3-3,0.9-4.3
		c0.6-1.4,1.4-2.5,2.3-3.5c1-1,2.1-1.8,3.5-2.3c1.3-0.6,2.7-0.9,4.2-0.9c1.5,0,3,0.3,4.3,0.9c1.4,0.6,2.5,1.4,3.5,2.3
		c1,1,1.8,2.1,2.4,3.5C829.2,107.9,829.5,109.3,829.5,110.8z M826.9,131.8v71.8h-17.3v-71.8H826.9z"/>
	<path class="st2" d="M846.4,203.6v-71.8h10.2c1.8,0,3,0.3,3.7,1c0.7,0.7,1.2,1.8,1.4,3.4l1.1,8.7c2.6-4.4,5.6-7.9,9-10.5
		c3.5-2.6,7.3-3.9,11.6-3.9c3.5,0,6.5,0.8,8.8,2.4l-2.2,13c-0.1,0.8-0.4,1.4-0.9,1.8c-0.5,0.3-1.1,0.5-1.9,0.5
		c-0.7,0-1.7-0.2-2.9-0.5c-1.2-0.3-2.8-0.5-4.8-0.5c-3.6,0-6.7,1-9.2,3c-2.6,2-4.7,4.9-6.5,8.7v44.7H846.4z"/>
</g>
<g>
	<path class="st3" d="M292.1,154.1v39.5h-18.8V92.4h30.9c6.9,0,12.8,0.7,17.7,2.1c4.9,1.4,9,3.4,12.1,6c3.1,2.6,5.5,5.6,6.9,9.2
		c1.5,3.6,2.2,7.5,2.2,11.8c0,3.4-0.5,6.6-1.5,9.7c-1,3-2.5,5.8-4.3,8.3c-1.9,2.5-4.2,4.6-7,6.5c-2.8,1.9-5.9,3.4-9.5,4.5
		c2.4,1.4,4.4,3.3,6.2,5.8l25.3,37.4h-16.9c-1.6,0-3-0.3-4.2-1c-1.1-0.7-2.1-1.6-2.9-2.8L307,157.4c-0.8-1.2-1.7-2.1-2.6-2.6
		c-1-0.5-2.4-0.8-4.2-0.8H292.1z M292.1,140.5h11.8c3.5,0,6.6-0.4,9.3-1.3c2.6-0.9,4.8-2.1,6.5-3.7c1.7-1.6,3-3.4,3.8-5.6
		c0.8-2.1,1.3-4.5,1.3-7.1c0-5.1-1.7-9.1-5.1-11.8c-3.4-2.8-8.6-4.1-15.5-4.1h-12V140.5z"/>
	<path class="st3" d="M419.7,193.6h-7.8c-1.6,0-2.9-0.2-3.8-0.7c-0.9-0.5-1.6-1.5-2.1-3l-1.5-5.1c-1.8,1.6-3.6,3.1-5.4,4.3
		c-1.8,1.2-3.6,2.3-5.4,3.1c-1.9,0.8-3.8,1.5-5.9,1.9c-2.1,0.4-4.4,0.6-7,0.6c-3,0-5.8-0.4-8.4-1.2c-2.6-0.8-4.8-2-6.6-3.7
		c-1.8-1.6-3.3-3.7-4.3-6.1c-1-2.4-1.5-5.3-1.5-8.5c0-2.7,0.7-5.4,2.1-8c1.4-2.6,3.8-5,7.1-7.2c3.3-2.1,7.7-3.9,13.2-5.3
		c5.5-1.4,12.3-2.1,20.5-2.1v-4.2c0-4.8-1-8.4-3-10.8s-5-3.5-8.9-3.5c-2.8,0-5.1,0.3-7,1c-1.9,0.7-3.5,1.4-4.9,2.2
		c-1.4,0.8-2.6,1.6-3.8,2.2c-1.2,0.7-2.4,1-3.8,1c-1.2,0-2.2-0.3-3-0.9c-0.8-0.6-1.5-1.4-2-2.2l-3.2-5.5
		c8.3-7.6,18.2-11.3,29.9-11.3c4.2,0,7.9,0.7,11.2,2.1c3.3,1.4,6.1,3.3,8.4,5.7c2.3,2.5,4,5.4,5.2,8.8c1.2,3.4,1.8,7.1,1.8,11.2
		V193.6z M386.1,182.8c1.8,0,3.4-0.2,4.9-0.5c1.5-0.3,2.9-0.8,4.2-1.4s2.6-1.4,3.9-2.4c1.2-0.9,2.5-2.1,3.7-3.3v-12
		c-5,0-9.3,0.3-12.6,1c-3.4,0.6-6.1,1.4-8.2,2.4c-2.1,1-3.5,2.1-4.4,3.5c-0.9,1.3-1.3,2.7-1.3,4.3c0,3.1,0.9,5.2,2.7,6.6
		C380.8,182.2,383.2,182.8,386.1,182.8z"/>
	<path class="st3" d="M439.8,193.6v-58.8l-6.2-1c-1.4-0.2-2.4-0.7-3.3-1.4c-0.8-0.7-1.2-1.7-1.2-2.9v-7.1h10.7v-5.3
		c0-4.1,0.6-7.8,1.9-11.1c1.2-3.3,3-6,5.3-8.3c2.3-2.3,5.1-4,8.4-5.2c3.3-1.2,7-1.8,11.2-1.8c3.3,0,6.4,0.4,9.2,1.3l-0.4,8.7
		c-0.1,1.4-0.7,2.2-1.9,2.5c-1.2,0.3-2.5,0.5-4.1,0.5c-2.1,0-3.9,0.2-5.5,0.7c-1.6,0.4-3,1.2-4.1,2.3c-1.1,1.1-2,2.5-2.6,4.3
		c-0.6,1.8-0.9,4-0.9,6.7v4.8h18.7v12.3H457v58.9H439.8z"/>
	<path class="st3" d="M485.7,193.6v-71.8h10.1c1.8,0,3,0.3,3.7,1c0.7,0.7,1.2,1.8,1.4,3.4l1,8.7c2.6-4.4,5.6-7.9,9-10.5
		c3.5-2.6,7.3-3.9,11.6-3.9c3.5,0,6.5,0.8,8.8,2.4l-2.2,13c-0.1,0.8-0.4,1.4-0.9,1.8c-0.5,0.3-1.1,0.5-1.9,0.5
		c-0.7,0-1.7-0.2-2.9-0.5c-1.2-0.3-2.8-0.5-4.8-0.5c-3.6,0-6.7,1-9.2,3c-2.6,2-4.7,4.9-6.5,8.7v44.7H485.7z"/>
	<path class="st3" d="M597.2,193.6h-7.8c-1.6,0-2.9-0.2-3.8-0.7c-0.9-0.5-1.6-1.5-2.1-3l-1.5-5.1c-1.8,1.6-3.6,3.1-5.4,4.3
		c-1.8,1.2-3.6,2.3-5.4,3.1c-1.9,0.8-3.9,1.5-6,1.9c-2.1,0.4-4.4,0.6-7,0.6c-3,0-5.8-0.4-8.4-1.2c-2.6-0.8-4.8-2-6.6-3.7
		c-1.8-1.6-3.3-3.7-4.3-6.1c-1-2.4-1.5-5.3-1.5-8.5c0-2.7,0.7-5.4,2.1-8c1.4-2.6,3.8-5,7.1-7.2c3.3-2.1,7.7-3.9,13.2-5.3
		c5.5-1.4,12.3-2.1,20.5-2.1v-4.2c0-4.8-1-8.4-3-10.8c-2-2.3-5-3.5-8.9-3.5c-2.8,0-5.1,0.3-7,1c-1.9,0.7-3.5,1.4-4.9,2.2
		c-1.4,0.8-2.6,1.6-3.8,2.2c-1.2,0.7-2.5,1-3.9,1c-1.2,0-2.2-0.3-3-0.9c-0.8-0.6-1.5-1.4-2-2.2l-3.2-5.5
		c8.3-7.6,18.2-11.3,29.9-11.3c4.2,0,7.9,0.7,11.2,2.1c3.3,1.4,6.1,3.3,8.4,5.7c2.3,2.5,4,5.4,5.2,8.8c1.2,3.4,1.8,7.1,1.8,11.2
		V193.6z M563.6,182.8c1.8,0,3.4-0.2,4.9-0.5c1.5-0.3,2.9-0.8,4.2-1.4s2.6-1.4,3.8-2.4c1.2-0.9,2.5-2.1,3.7-3.3v-12
		c-5,0-9.3,0.3-12.6,1c-3.4,0.6-6.1,1.4-8.2,2.4c-2.1,1-3.5,2.1-4.4,3.5s-1.3,2.7-1.3,4.3c0,3.1,0.9,5.2,2.7,6.6
		C558.3,182.2,560.7,182.8,563.6,182.8z"/>
	<path class="st3" d="M648.6,111.8h-11.6c-1.4,0-2.6-0.4-3.5-1.3l-7.3-6.6c-0.2-0.2-0.5-0.5-0.7-0.7c-0.3-0.2-0.5-0.5-0.7-0.8
		c-0.2,0.3-0.5,0.6-0.7,0.8c-0.3,0.2-0.5,0.5-0.7,0.7l-7.5,6.6c-0.4,0.3-0.9,0.6-1.5,0.9c-0.6,0.3-1.3,0.4-2,0.4h-12l16-19.5h16.2
		L648.6,111.8z M632.6,121.8v71.8h-17.3v-71.8H632.6z"/>
	<path class="st3" d="M702.6,137c-0.5,0.7-1,1.2-1.5,1.5c-0.5,0.4-1.2,0.6-2.1,0.6c-0.9,0-1.8-0.3-2.6-0.8c-0.8-0.5-1.8-1.1-3-1.8
		c-1.2-0.7-2.6-1.3-4.2-1.8c-1.6-0.5-3.6-0.8-6-0.8c-3,0-5.7,0.5-8,1.6c-2.3,1.1-4.2,2.7-5.7,4.7c-1.5,2.1-2.6,4.5-3.4,7.5
		c-0.7,2.9-1.1,6.2-1.1,9.9c0,3.8,0.4,7.2,1.2,10.2c0.8,3,2,5.5,3.5,7.5c1.5,2,3.4,3.6,5.6,4.6c2.2,1.1,4.7,1.6,7.4,1.6
		c2.8,0,5-0.3,6.7-1c1.7-0.7,3.1-1.4,4.3-2.2c1.2-0.8,2.2-1.6,3-2.2c0.9-0.7,1.8-1,2.9-1c1.4,0,2.4,0.5,3.2,1.6l5,6.3
		c-1.9,2.2-4,4.1-6.2,5.6c-2.2,1.5-4.6,2.7-7,3.6c-2.4,0.9-4.9,1.6-7.5,1.9c-2.6,0.4-5.1,0.6-7.6,0.6c-4.4,0-8.6-0.8-12.5-2.5
		s-7.3-4.1-10.3-7.2c-2.9-3.2-5.2-7.1-6.9-11.7c-1.7-4.6-2.6-9.8-2.6-15.7c0-5.3,0.8-10.2,2.3-14.7c1.5-4.5,3.7-8.4,6.7-11.7
		c2.9-3.3,6.6-5.9,10.9-7.7c4.3-1.9,9.3-2.8,15-2.8c5.4,0,10.1,0.9,14.1,2.6c4,1.7,7.7,4.2,10.9,7.4L702.6,137z"/>
	<path class="st3" d="M718.9,193.6v-104h17.3v40c2.8-2.7,5.9-4.8,9.2-6.4c3.4-1.6,7.3-2.4,11.8-2.4c3.9,0,7.4,0.7,10.4,2
		c3,1.3,5.6,3.2,7.6,5.6c2,2.4,3.6,5.3,4.6,8.6c1.1,3.3,1.6,7,1.6,11v45.7h-17.3v-45.7c0-4.4-1-7.8-3-10.2c-2-2.4-5.1-3.6-9.1-3.6
		c-3,0-5.8,0.7-8.4,2c-2.6,1.4-5.1,3.2-7.4,5.5v51.9H718.9z"/>
	<path class="st3" d="M819.5,100.8c0,1.5-0.3,2.9-0.9,4.2c-0.6,1.3-1.4,2.4-2.4,3.4c-1,1-2.2,1.8-3.5,2.3c-1.4,0.6-2.8,0.9-4.3,0.9
		c-1.5,0-2.9-0.3-4.2-0.9c-1.3-0.6-2.5-1.4-3.5-2.3c-1-1-1.8-2.1-2.3-3.4c-0.6-1.3-0.9-2.7-0.9-4.2c0-1.5,0.3-3,0.9-4.3
		c0.6-1.4,1.4-2.5,2.3-3.5c1-1,2.1-1.8,3.5-2.3c1.3-0.6,2.7-0.9,4.2-0.9c1.5,0,3,0.3,4.3,0.9c1.4,0.6,2.5,1.4,3.5,2.3
		c1,1,1.8,2.1,2.4,3.5C819.2,97.9,819.5,99.3,819.5,100.8z M816.9,121.8v71.8h-17.3v-71.8H816.9z"/>
	<path class="st3" d="M836.4,193.6v-71.8h10.2c1.8,0,3,0.3,3.7,1c0.7,0.7,1.2,1.8,1.4,3.4l1.1,8.7c2.6-4.4,5.6-7.9,9-10.5
		c3.5-2.6,7.3-3.9,11.6-3.9c3.5,0,6.5,0.8,8.8,2.4l-2.2,13c-0.1,0.8-0.4,1.4-0.9,1.8c-0.5,0.3-1.1,0.5-1.9,0.5
		c-0.7,0-1.7-0.2-2.9-0.5c-1.2-0.3-2.8-0.5-4.8-0.5c-3.6,0-6.7,1-9.2,3c-2.6,2-4.7,4.9-6.5,8.7v44.7H836.4z"/>
</g>
<path class="st2" d="M214.5,169.3c0,0.2,0,0.4-0.1,0.6c-7.1,29.5-31.4,50.1-62.2,50.1c-16.2,0-32-6.4-43.8-17.7l-10.8,10.8
	c-1,1-2.3,1.6-3.7,1.6c-2.9,0-5.3-2.4-5.3-5.3V172c0-2.9,2.4-5.3,5.3-5.3h37.3c2.9,0,5.3,2.4,5.3,5.3c0,1.4-0.6,2.8-1.6,3.8
	l-11.4,11.4c7.8,7.3,18.2,11.5,29,11.5c14.8,0,28.6-7.7,36.3-20.3c2-3.3,3-6.4,4.4-9.8c0.4-1.2,1.2-1.9,2.5-1.9h16
	C213.3,166.7,214.5,167.9,214.5,169.3z M216.5,102.7V140c0,2.9-2.4,5.3-5.3,5.3h-37.3c-2.9,0-5.3-2.4-5.3-5.3c0-1.4,0.6-2.8,1.6-3.8
	l11.5-11.5c-7.9-7.3-18.3-11.4-29.1-11.4c-14.8,0-28.6,7.7-36.3,20.3c-2,3.3-3,6.4-4.4,9.8c-0.4,1.2-1.3,1.9-2.5,1.9H92.7
	c-1.5,0-2.7-1.3-2.7-2.7v-0.6c7.2-29.6,31.8-50.1,62.5-50.1c16.3,0,32.2,6.5,44.1,17.7l10.8-10.8c1-1,2.3-1.6,3.7-1.6
	C214.1,97.3,216.5,99.7,216.5,102.7L216.5,102.7z"/>
<path class="st3" d="M204.5,159.3c0,0.2,0,0.4-0.1,0.6c-7.1,29.5-31.4,50.1-62.2,50.1c-16.2,0-32-6.4-43.8-17.7l-10.8,10.8
	c-1,1-2.3,1.6-3.7,1.6c-2.9,0-5.3-2.4-5.3-5.3V162c0-2.9,2.4-5.3,5.3-5.3h37.3c2.9,0,5.3,2.4,5.3,5.3c0,1.4-0.6,2.8-1.6,3.8
	l-11.4,11.4c7.8,7.3,18.2,11.5,29,11.5c14.8,0,28.6-7.7,36.3-20.3c2-3.3,3-6.4,4.4-9.8c0.4-1.2,1.2-1.9,2.5-1.9h16
	C203.3,156.7,204.5,157.9,204.5,159.3z M206.5,92.7V130c0,2.9-2.4,5.3-5.3,5.3h-37.3c-2.9,0-5.3-2.4-5.3-5.3c0-1.4,0.6-2.8,1.6-3.8
	l11.5-11.5c-7.9-7.3-18.3-11.4-29.1-11.4c-14.8,0-28.6,7.7-36.3,20.3c-2,3.3-3,6.4-4.4,9.8c-0.4,1.2-1.3,1.9-2.5,1.9H82.7
	c-1.5,0-2.7-1.3-2.7-2.7v-0.6c7.2-29.6,31.8-50.1,62.5-50.1c16.3,0,32.2,6.5,44.1,17.7l10.8-10.8c1-1,2.3-1.6,3.7-1.6
	C204.1,87.3,206.5,89.7,206.5,92.7L206.5,92.7z"/>
</svg>
