<?xml version="1.0" encoding="utf-8"?>
<!-- Generator: Adobe Illustrator 21.1.0, SVG Export Plug-In . SVG Version: 6.00 Build 0)  -->
<svg version="1.1" id="Calque_1" xmlns="http://www.w3.org/2000/svg" xmlns:xlink="http://www.w3.org/1999/xlink" x="0px" y="0px"
	 viewBox="0 0 1792 1792" style="enable-background:new 0 0 1792 1792;" xml:space="preserve">
<style type="text/css">
	.st0{fill:#F8F8F8;}
	.st1{fill:#E3E3E3;}
	.st2{fill:#487BD4;}
</style>
<g>
	<rect x="25" y="25" class="st0" width="1742" height="1742"/>
	<path class="st1" d="M1742,50v1692H50V50H1742 M1792,0H0v1792h1792V0L1792,0z"/>
</g>
<path class="st2" d="M1094.2,1012L1293.2,819l-274.3-40.3L896,530.4L773.2,778.7L498.9,819L697.8,1012l-47.5,273.7L896,1156.3
	l245.1,129.4L1094.2,1012z M1436.8,780c0,9.5-5.6,19.9-16.9,31.2l-236,230.1l55.9,325c0.4,3,0.7,7.4,0.7,13
	c0,21.7-8.9,32.5-26.7,32.5c-8.2,0-16.9-2.6-26-7.8L896,1250.6L604.2,1404c-9.5,5.2-18.2,7.8-26,7.8c-9.1,0-15.9-3.1-20.5-9.4
	s-6.8-14-6.8-23.1c0-2.6,0.4-6.9,1.3-13l55.9-325L371.5,811.2c-10.8-11.7-16.2-22.1-16.2-31.2c0-16,12.1-26,36.4-29.9l326.3-47.5
	l146.2-295.8c8.2-17.8,18.8-26.6,31.8-26.6s23.6,8.9,31.8,26.6l146.2,295.8l326.3,47.5C1424.7,754,1436.8,763.9,1436.8,780z"/>
</svg>
