<?xml version="1.0" encoding="utf-8"?>
<!-- Generator: Adobe Illustrator 21.1.0, SVG Export Plug-In . SVG Version: 6.00 Build 0)  -->
<svg version="1.1" id="Calque_1" xmlns="http://www.w3.org/2000/svg" xmlns:xlink="http://www.w3.org/1999/xlink" x="0px" y="0px"
	 viewBox="0 0 500 500" style="enable-background:new 0 0 500 500;" xml:space="preserve">
<style type="text/css">
	.st0{fill:#EEEEEE;}
</style>
<g>
	<circle class="st0" cx="250" cy="250" r="250"/>
</g>
<g>
	<path d="M281.2,222.8c8-10.9,12-22,12-33.2c0-11.2-4.3-20.7-12.8-28.6c-8.5-7.9-19.3-11.8-32.4-11.8c-22.9,0-42,11.7-57.2,35.2
		l-38-22c12.3-18.4,25.8-32.3,40.6-41.6c14.8-9.3,33.9-14,57.2-14c23.3,0,43.8,7.4,61.4,22.2c17.6,14.8,26.4,35,26.4,60.6
		c0,14.4-3.7,28.1-11.2,41.2c-7.5,13.1-21.2,29.9-41.2,50.4L220.4,348h126.8v45.2H156v-40l84.8-85.2
		C259.7,248.8,273.2,233.7,281.2,222.8z"/>
</g>
</svg>
