<?xml version="1.0" encoding="utf-8"?>
<!-- Generator: Adobe Illustrator 23.0.6, SVG Export Plug-In . SVG Version: 6.00 Build 0)  -->
<svg version="1.1" id="Calque_1" xmlns="http://www.w3.org/2000/svg" xmlns:xlink="http://www.w3.org/1999/xlink" x="0px" y="0px"
	 viewBox="0 0 500 500" style="enable-background:new 0 0 500 500;" xml:space="preserve">
<style type="text/css">
	.st0{fill:#EEEEEE;}
</style>
<g>
	<circle class="st0" cx="250" cy="250" r="250"/>
</g>
<path d="M90.8,110.2h101.6v279.6h-44.8V152.2H90.8V110.2z"/>
<path d="M253.6,353.6c-18.9-26.3-28.4-61.4-28.4-105.4c0-44,9.5-79.1,28.4-105.4c18.9-26.3,47.5-39.4,85.6-39.4
	c38.1,0,66.7,13.1,85.6,39.4c18.9,26.3,28.4,61.4,28.4,105.4c0,44-9.5,79.1-28.4,105.4c-18.9,26.3-47.5,39.4-85.6,39.4
	C301.1,393,272.5,379.9,253.6,353.6z M287.4,172.6c-11.1,19.2-16.6,44.4-16.6,75.6s5.5,56.4,16.6,75.6
	c11.1,19.2,28.3,28.8,51.8,28.8c23.5,0,40.6-9.5,51.4-28.6c10.8-19.1,16.2-44.3,16.2-75.8c0-31.5-5.4-56.7-16.2-75.8
	c-10.8-19.1-27.9-28.6-51.4-28.6C315.7,143.8,298.5,153.4,287.4,172.6z"/>
</svg>
