<?xml version="1.0" encoding="utf-8"?>
<!-- Generator: Adobe Illustrator 26.4.0, SVG Export Plug-In . SVG Version: 6.00 Build 0)  -->
<svg version="1.1" id="Calque_1" xmlns="http://www.w3.org/2000/svg" xmlns:xlink="http://www.w3.org/1999/xlink" x="0px" y="0px"
	 viewBox="0 0 500 500" style="enable-background:new 0 0 500 500;" xml:space="preserve">
<style type="text/css">
	.st0{fill:#EEEEEE;}
</style>
<g>
	<circle class="st0" cx="250" cy="250" r="250"/>
</g>
<g>
	<path d="M412.4,389h-28.2v-13c-7.7,9.7-17.3,14.6-28.7,14.6c-11.4,0-21-3.3-28.7-9.9s-11.6-15.4-11.6-26.4s4-19.2,12-24.7
		s18.9-8.2,32.8-8.2h22.4v-0.6c0-11.5-6.1-17.2-18.2-17.2c-5.2,0-10.7,1-16.5,3.1s-10.7,4.6-14.7,7.7L319.6,295
		c14.1-10.3,30.3-15.4,48.4-15.4c13.1,0,23.7,3.3,32,9.8s12.4,16.9,12.4,31V389z M382.2,348v-5.2h-18.8c-12,0-18,3.7-18,11.2
		c0,3.9,1.4,6.8,4.3,8.9s7,3.1,12.3,3.1s10-1.6,14.1-4.9C380.2,357.8,382.2,353.5,382.2,348z"/>
	<g>
		<path d="M124.8,126.2c17.9-14.1,40.3-21.2,67.2-21.2c26.9,0,49.3,7.1,67.2,21.2c17.9,14.1,26.8,31.9,26.8,53.4
			c0,21.5-10,40.5-30,57c26.9,17.1,40.4,41.1,40.4,72c0,24-9.6,44.1-28.8,60.4c-19.2,16.3-44.4,24.4-75.6,24.4
			c-31.2,0-56.4-8.1-75.6-24.4c-19.2-16.3-28.8-36.4-28.8-60.4c0-30.9,13.5-54.9,40.4-72c-20-16.5-30-35.5-30-57
			C98,158.1,106.9,140.3,124.8,126.2z M152.8,340.8c12.3,7.9,25.3,11.8,39.2,11.8c13.9,0,26.9-3.9,39.2-11.8
			c12.3-7.9,18.4-19.1,18.4-33.8c0-14.7-5.9-26-17.6-34c-11.7-8-25.1-12-40-12c-14.9,0-28.3,4-40,12c-11.7,8-17.6,19.3-17.6,34
			C134.4,321.7,140.5,332.9,152.8,340.8z M156.6,213.6c10,8.1,21.8,12.2,35.4,12.2c13.6,0,25.4-4.1,35.4-12.2c10-8.1,15-18.1,15-30
			c0-11.9-5-21.8-15-29.8s-21.8-12-35.4-12c-13.6,0-25.4,4-35.4,12s-15,17.9-15,29.8C141.6,195.5,146.6,205.5,156.6,213.6z"/>
	</g>
</g>
</svg>
