<?xml version="1.0" encoding="utf-8"?>
<!-- Generator: Adobe Illustrator 24.0.2, SVG Export Plug-In . SVG Version: 6.00 Build 0)  -->
<svg version="1.1" id="Calque_1" xmlns="http://www.w3.org/2000/svg" xmlns:xlink="http://www.w3.org/1999/xlink" x="0px" y="0px"
	 viewBox="0 0 500 500" style="enable-background:new 0 0 500 500;" xml:space="preserve">
<style type="text/css">
	.st0{fill:#EEEEEE;}
</style>
<g>
	<circle class="st0" cx="250" cy="250" r="250"/>
</g>
<g>
	<path d="M92.4008789,108.4001465h101.5996094v279.6000977h-44.7998047V150.4001465H92.4008789V108.4001465z"/>
	<path d="M243.9985352,150.4001465v-42h163.6005859v36.800293l-67.6005859,75.5996094
		c25.6005859,0.800293,45.6005859,8.8691406,60,24.2001953c14.4003906,15.3374023,21.6005859,33.6689453,21.6005859,55
		c0,28.5371094-9.6689453,50.9375-29,67.2001953c-19.3378906,16.2685547-44.2001953,24.3994141-74.6005859,24.3994141
		c-30.3994141,0-60.1367188-9.7304688-89.1992188-29.1992188l20-38c22.9306641,16,46.9306641,24,72,24
		c16.2617188,0,29.6621094-3.8007812,40.1992188-11.4003906c10.53125-7.5996094,15.7998047-18.53125,15.7998047-32.7998047
		c0-14.2626953-5.8681641-25.6630859-17.5996094-34.2001953c-11.7373047-8.53125-28-12.7998047-48.7998047-12.7998047
		c-10.4003906,0-20.4003906,1.46875-30,4.3999023v-36l64.7998047-75.2001953H243.9985352z"/>
</g>
</svg>
