<?xml version="1.0" encoding="utf-8"?>
<!-- Generator: Adobe Illustrator 24.0.2, SVG Export Plug-In . SVG Version: 6.00 Build 0)  -->
<svg version="1.1" id="Calque_1" xmlns="http://www.w3.org/2000/svg" xmlns:xlink="http://www.w3.org/1999/xlink" x="0px" y="0px"
	 viewBox="0 0 500 500" style="enable-background:new 0 0 500 500;" xml:space="preserve">
<style type="text/css">
	.st0{fill:#EEEEEE;}
</style>
<g>
	<circle class="st0" cx="250" cy="250" r="250"/>
</g>
<g>
	<path d="M82.4008789,113.5998535h101.5996094v279.6000977h-44.7998047V155.5998535H82.4008789V113.5998535z"/>
	<path d="M351.5991211,222.8000488c8-10.9311523,12-22,12-33.2001953c0-11.199707-4.2685547-20.730957-12.7998047-28.6000977
		c-8.5380859-7.8623047-19.3378906-11.7998047-32.4003906-11.7998047c-22.9375,0-42,11.7373047-57.2001953,35.2001953l-38-22
		c12.2626953-18.4003906,25.7998047-32.2626953,40.6005859-41.6000977c14.7998047-9.331543,33.8623047-14,57.1992188-14
		c23.3320312,0,43.7998047,7.3999023,61.4003906,22.199707c17.5996094,14.800293,26.3994141,35,26.3994141,60.6000977
		c0,14.3999023-3.7373047,28.1376953-11.1992188,41.2001953c-7.46875,13.0688477-21.2001953,29.8686523-41.2001953,50.3999023
		l-65.5996094,66.7998047h126.7998047v45.2001953H226.3989258v-40l84.7998047-85.2001953
		C330.1303711,248.8000488,343.5991211,233.7375488,351.5991211,222.8000488z"/>
</g>
</svg>
