<?xml version="1.0" encoding="utf-8"?>
<!-- Generator: Adobe Illustrator 21.1.0, SVG Export Plug-In . SVG Version: 6.00 Build 0)  -->
<svg version="1.1" id="Calque_1" xmlns="http://www.w3.org/2000/svg" xmlns:xlink="http://www.w3.org/1999/xlink" x="0px" y="0px"
	 viewBox="0 0 500 500" style="enable-background:new 0 0 500 500;" xml:space="preserve">
<style type="text/css">
	.st0{fill:#EEEEEE;}
</style>
<g>
	<circle class="st0" cx="250" cy="250" r="250"/>
</g>
<g>
	<path d="M168.8,150.4v-42h163.6v36.8l-67.6,75.6c25.6,0.8,45.6,8.9,60,24.2c14.4,15.3,21.6,33.7,21.6,55c0,28.5-9.7,50.9-29,67.2
		c-19.3,16.3-44.2,24.4-74.6,24.4c-30.4,0-60.1-9.7-89.2-29.2l20-38c22.9,16,46.9,24,72,24c16.3,0,29.7-3.8,40.2-11.4
		c10.5-7.6,15.8-18.5,15.8-32.8c0-14.3-5.9-25.7-17.6-34.2c-11.7-8.5-28-12.8-48.8-12.8c-10.4,0-20.4,1.5-30,4.4v-36l64.8-75.2
		H168.8z"/>
</g>
</svg>
