<?xml version="1.0" encoding="utf-8"?>
<!-- Generator: Adobe Illustrator 21.1.0, SVG Export Plug-In . SVG Version: 6.00 Build 0)  -->
<svg version="1.1" id="Calque_1" xmlns="http://www.w3.org/2000/svg" xmlns:xlink="http://www.w3.org/1999/xlink" x="0px" y="0px"
	 viewBox="0 0 500 500" style="enable-background:new 0 0 500 500;" xml:space="preserve">
<style type="text/css">
	.st0{fill:#EEEEEE;}
</style>
<g>
	<circle class="st0" cx="250" cy="250" r="250"/>
</g>
<g>
	<path d="M232.6,351.6c24.8,0,43.1-8.4,54.8-25.2c11.7-16.8,17.7-39.5,18-68c-6.7,7.5-16.3,14.5-28.8,21
		c-12.5,6.5-26.4,9.8-41.6,9.8c-25.1,0-46.1-8.3-63-25c-16.9-16.7-25.4-38.8-25.4-66.4s9.1-49.8,27.4-66.6
		c18.3-16.8,41.3-25.2,69-25.2c44.8,0,75.7,20,92.8,60c9.6,22.9,14.4,48.8,14.4,77.6s-3.1,52.8-9.2,72
		c-6.1,19.2-14.5,34.4-25.2,45.6C295,383.1,269.5,394,239.2,394c-30.3,0-57.7-9.5-82.2-28.4l23.6-34.8c6.1,5.3,14.3,10.1,24.6,14.4
		C215.5,349.5,224.6,351.6,232.6,351.6z M241.2,247.6c16.1,0,29.6-4.5,40.4-13.4c10.8-8.9,16.2-20.5,16.2-34.8
		c0-14.3-5.2-26.5-15.6-36.8c-10.4-10.3-23.4-15.4-39-15.4c-15.6,0-28.5,4.6-38.6,13.8c-10.1,9.2-15.2,21-15.2,35.4
		s4.6,26.5,13.8,36.4C212.4,242.7,225.1,247.6,241.2,247.6z"/>
</g>
</svg>
