<?xml version="1.0" encoding="utf-8"?>
<!-- Generator: Adobe Illustrator 26.4.0, SVG Export Plug-In . SVG Version: 6.00 Build 0)  -->
<svg version="1.1" id="Calque_1" xmlns="http://www.w3.org/2000/svg" xmlns:xlink="http://www.w3.org/1999/xlink" x="0px" y="0px"
	 viewBox="0 0 500 500" style="enable-background:new 0 0 500 500;" xml:space="preserve">
<style type="text/css">
	.st0{fill:#EEEEEE;}
</style>
<g>
	<circle class="st0" cx="250" cy="250" r="250"/>
</g>
<g>
	<path d="M373.3,279.6c13.1,0,24.5,5.1,34.2,15.3c9.7,10.2,14.6,23.3,14.6,39.3s-5,29.4-15,40.2c-10,10.8-21.4,16.2-34.1,16.2
		s-23.3-5.3-31.7-15.8V389h-30V240.6h30v52.8C349.6,284.2,360.2,279.6,373.3,279.6z M340.9,335.3c0,8.7,2.4,15.9,7.3,21.4
		s10.8,8.3,17.7,8.3c6.9,0,13-2.8,18.2-8.3s7.8-12.6,7.8-21.3c0-8.7-2.5-15.9-7.6-21.8s-11.1-8.8-18.2-8.8s-13,2.9-17.9,8.7
		C343.3,319.3,340.9,326.6,340.9,335.3z"/>
	<g>
		<path d="M115.1,126.2c17.9-14.1,40.3-21.2,67.2-21.2c26.9,0,49.3,7.1,67.2,21.2c17.9,14.1,26.8,31.9,26.8,53.4
			c0,21.5-10,40.5-30,57c26.9,17.1,40.4,41.1,40.4,72c0,24-9.6,44.1-28.8,60.4c-19.2,16.3-44.4,24.4-75.6,24.4
			c-31.2,0-56.4-8.1-75.6-24.4c-19.2-16.3-28.8-36.4-28.8-60.4c0-30.9,13.5-54.9,40.4-72c-20-16.5-30-35.5-30-57
			C88.3,158.1,97.2,140.3,115.1,126.2z M143.1,340.8c12.3,7.9,25.3,11.8,39.2,11.8c13.9,0,26.9-3.9,39.2-11.8
			c12.3-7.9,18.4-19.1,18.4-33.8c0-14.7-5.9-26-17.6-34c-11.7-8-25.1-12-40-12c-14.9,0-28.3,4-40,12c-11.7,8-17.6,19.3-17.6,34
			C124.7,321.7,130.8,332.9,143.1,340.8z M146.9,213.6c10,8.1,21.8,12.2,35.4,12.2c13.6,0,25.4-4.1,35.4-12.2c10-8.1,15-18.1,15-30
			c0-11.9-5-21.8-15-29.8s-21.8-12-35.4-12c-13.6,0-25.4,4-35.4,12s-15,17.9-15,29.8C131.9,195.5,136.9,205.5,146.9,213.6z"/>
	</g>
</g>
</svg>
