<?xml version="1.0" encoding="utf-8"?>
<!-- Generator: Adobe Illustrator 21.1.0, SVG Export Plug-In . SVG Version: 6.00 Build 0)  -->
<svg version="1.1" id="Calque_1" xmlns="http://www.w3.org/2000/svg" xmlns:xlink="http://www.w3.org/1999/xlink" x="0px" y="0px"
	 viewBox="0 0 500 500" style="enable-background:new 0 0 500 500;" xml:space="preserve">
<style type="text/css">
	.st0{fill:#EEEEEE;}
</style>
<g>
	<circle class="st0" cx="250" cy="250" r="250"/>
</g>
<g>
	<path d="M265.8,148.4c-24.8,0-43.1,8.4-54.8,25.2c-11.7,16.8-17.7,39.5-18,68c6.7-7.5,16.3-14.5,28.8-21
		c12.5-6.5,26.4-9.8,41.6-9.8c25.1,0,46.1,8.3,63,25c16.9,16.7,25.4,38.8,25.4,66.4c0,27.6-9.1,49.8-27.4,66.6
		c-18.3,16.8-41.3,25.2-69,25.2c-44.8,0-75.7-20-92.8-60c-9.6-22.9-14.4-48.8-14.4-77.6s3.1-52.8,9.2-72
		c6.1-19.2,14.5-34.4,25.2-45.6c20.8-21.9,46.3-32.8,76.6-32.8c30.3,0,57.7,9.5,82.2,28.4l-23.6,34.8c-6.1-5.3-14.3-10.1-24.6-14.4
		C282.9,150.5,273.8,148.4,265.8,148.4z M257.2,252.4c-16.1,0-29.6,4.5-40.4,13.4c-10.8,8.9-16.2,20.5-16.2,34.8
		c0,14.3,5.2,26.5,15.6,36.8c10.4,10.3,23.5,15.4,39.2,15.4c15.7,0,28.8-4.6,39.2-13.8c10.4-9.2,15.6-20.9,15.6-35.2
		c0-14.3-4.8-26.4-14.4-36.4C286.2,257.4,273.3,252.4,257.2,252.4z"/>
</g>
</svg>
