<?xml version="1.0" encoding="utf-8"?>
<!-- Generator: Adobe Illustrator 21.1.0, SVG Export Plug-In . SVG Version: 6.00 Build 0)  -->
<svg version="1.1" id="Calque_1" xmlns="http://www.w3.org/2000/svg" xmlns:xlink="http://www.w3.org/1999/xlink" x="0px" y="0px"
	 viewBox="0 0 695 292" style="enable-background:new 0 0 695 292;" xml:space="preserve">
<style type="text/css">
	.st0{fill:url(#SVGID_1_);}
	.st1{fill:url(#SVGID_2_);}
	.st2{opacity:0.5;}
	.st3{fill:#222222;}
	.st4{fill:#FFFFFF;}
</style>
<linearGradient id="SVGID_1_" gradientUnits="userSpaceOnUse" x1="347.5" y1="7.3" x2="347.5" y2="289.8" gradientTransform="matrix(1 0 0 -1 0 294.8)">
	<stop  offset="0" style="stop-color:#678FDA"/>
	<stop  offset="1" style="stop-color:#7EA0DF"/>
</linearGradient>
<path class="st0" d="M670,288H25c-11,0-20-9-20-20V25C5,14,14,5,25,5h645c11,0,20,9,20,20v242C690,279,681,288,670,288z"/>
<linearGradient id="SVGID_2_" gradientUnits="userSpaceOnUse" x1="347.5" y1="2.3" x2="347.5" y2="294.8" gradientTransform="matrix(1 0 0 -1 0 294.8)">
	<stop  offset="0" style="stop-color:#5976AC"/>
	<stop  offset="1" style="stop-color:#688BC9"/>
</linearGradient>
<path class="st1" d="M670,292H25c-14,0-25-11-25-25V25C0,11,11,0,25,0h645c14,0,25,11,25,25v242C695,281,684,292,670,292z M25,10
	c-8,0-15,7-15,15v242c0,8,7,15,15,15h645c8,0,15-7,15-15V25c0-8-7-15-15-15H25z"/>
<g>
	<g class="st2">
		<g>
			<path class="st3" d="M185,120c-1,1-1,2-2,2c-1,0-1,1-2,1s-2,0-3-1c-1-1-3-2-4-2c-2-1-3-2-6-2c-2-1-5-1-8-1c-3,0-5,0-7,1
				c-2,1-4,2-5,3c-1,1-2,2-3,4c-1,2-1,3-1,5s1,4,2,6s3,3,5,4s5,2,7,3c3,1,6,2,9,3c3,1,6,2,9,4c3,1,5,3,7,5c2,2,4,5,5,7c1,2,2,7,2,11
				c0,5-1,9-2,13c-2,4-4,7-7,10c-3,3-7,5-11,7c-4,2-9,3-15,3c-3,0-6,0-10-1c-3-1-6-2-9-3c-3-1-6-3-8-4c-2-2-5-3-7-5l5-9c1-1,1-1,2-2
				c1,0,2-1,2-1c1,0,2,0,4,1c1,1,3,2,5,3c2,1,4,2,7,3c3,1,5,1,9,1c5,0,10-1,12-4c3-3,4-6,4-11c0-3-1-5-2-7c-1-2-3-3-5-4
				c-2-1-5-2-7-3c-3-1-6-2-9-3c-3-1-6-2-9-3c-3-1-5-3-7-5s-4-5-5-8s-2-7-2-12c0-4,1-7,2-11c1-3,4-7,6-9c2-2,6-5,10-7c4-2,9-2,14-2
				c6,0,11,1,17,3c6,2,9,4,13,8L185,120z"/>
			<path class="st3" d="M220,131v46c0,4,1,8,3,10c2,2,5,4,9,4c3,0,6-1,8-2c3-1,5-3,7-5v-52h17v72h-11c-2,0-4-1-4-3l1-7c-1,1-3,3-5,4
				c-2,1-3,2-5,3c-2,1-4,2-6,2c-2,0-4,1-7,1c-4,0-7-1-10-2c-3-1-6-3-8-6c-2-2-4-5-5-9c-1-3-2-7-2-11v-46h18V131z"/>
			<path class="st3" d="M305,111c0,1,0,3-1,4c-1,1-1,2-2,3c-1,1-2,2-4,2c-2,0-3,1-4,1s-3,0-4-1s-2-1-3-2s-2-2-2-3c-1-1-1-3-1-4
				c0-2,0-3,1-4s1-3,2-3c1-1,2-2,3-2c1-1,3-1,4-1c2,0,3,0,4,1s3,1,4,2c1,1,2,2,2,3S305,109,305,111z M303,131v72h-17v-72
				C286,131,303,131,303,131z"/>
			<path class="st3" d="M358,203h-16l-29-72h14c1,0,2,0,3,1s1,1,2,2l14,38c1,2,1,4,2,7c1,3,1,4,1,6c0-2,1-4,1-6c0-2,1-4,2-7l14-38
				c0-1,1-2,2-2s2-1,3-1h14L358,203z"/>
			<path class="st3" d="M453,203h-8c-2,0-3,0-4-1c-1,0-2-1-2-3l-2-5c-2,2-4,3-5,4c-2,1-4,2-5,3s-4,1-6,2c-2,0-4,1-7,1c-3,0-6,0-8-1
				c-3-1-5-2-7-4c-2-2-3-4-4-6c-1-2-2-5-2-9c0-3,1-5,2-8c1-3,4-5,7-7c3-2,8-4,13-5s12-2,21-2v-4c0-5-1-8-3-11c-2-2-5-3-9-3
				c-3,0-5,0-7,1c-2,1-3,1-5,2c-1,1-3,2-4,2c0,1-2,1-3,1s-2,0-3-1c-1-1-2-1-2-2l-3-6c8-8,18-11,30-11c4,0,8,1,11,2c3,1,6,3,8,6
				c2,2,4,5,5,9c1,3,2,7,2,11V203z M420,193c2,0,3,0,5,0s3-1,4-1c1-1,3-1,4-2c1-1,2-2,4-3v-12c-5,0-9,0-13,1c-3,1-6,1-8,2
				c-2,1-4,2-4,3c-2,0-2,1-2,3c0,3,1,5,3,7C415,193,417,193,420,193z"/>
			<path class="st3" d="M470,203v-72h11c2,0,4,1,4,3l1,6c1-1,3-3,5-4c2-1,3-2,5-3c2-1,4-2,6-2c2,0,4-1,7-1c4,0,7,1,10,2s6,3,8,6
				c2,3,4,5,5,9c1,3,2,7,2,11v46h-17v-46c0-4-1-8-3-10c-2-2-5-4-9-4c-3,0-6,1-8,2c-3,1-5,3-7,6v52h-20V203z"/>
			<path class="st3" d="M573,204c-6,0-11-2-14-5c-3-4-5-8-5-15v-40h-7c-1,0-2,0-2-1c-1-1-1-2-1-3v-7l12-2l4-20c0-1,1-2,1-2
				c1-1,2-1,3-1h9v23h17v12h-19v39c0,2,1,4,2,5c1,1,3,2,4,2s2,0,3,0s1-1,2-1s1-1,1-1h1c1,0,1,0,1,0l1,1l5,8c-3,2-5,4-9,5
				C580,204,577,204,573,204z"/>
		</g>
	</g>
	<g>
		<g>
			<path class="st4" d="M175,110c-1,1-1,2-2,2c-1,0-1,1-2,1s-2,0-3-1c-1-1-3-2-4-2c-2-1-3-2-6-2c-2-1-5-1-8-1c-3,0-5,0-7,1
				c-2,1-4,2-5,3c-1,1-2,2-3,4c-1,2-1,3-1,5s1,4,2,6s3,3,5,4s5,2,7,3c3,1,6,2,9,3s6,2,9,4c3,1,5,3,7,5c2,2,4,5,5,7c1,2,2,7,2,11
				c0,5-1,9-2,13c-2,4-4,7-7,10c-3,3-7,5-11,7c-4,2-9,3-15,3c-3,0-6,0-10-1c-3-1-6-2-9-3c-3-1-6-3-8-4c-2-2-5-3-7-5l5-9c1-1,1-1,2-2
				c1,0,2-1,2-1c1,0,2,0,4,1c1,1,3,2,5,3c2,1,4,2,7,3s5,1,9,1c5,0,10-1,12-4c3-3,4-6,4-11c0-3-1-5-2-7c-1-2-3-3-5-4c-2-1-5-2-7-3
				c-3-1-6-2-9-3c-3-1-6-2-9-3c-3-1-5-3-7-5c-2-2-4-5-5-8c-1-3-2-7-2-12c0-4,1-7,2-11c1-3,4-7,6-9s6-5,10-7c7,0,12-1,17-1
				c6,0,11,1,17,3c6,2,9,4,13,8L175,110z"/>
			<path class="st4" d="M210,121v46c0,4,1,8,3,10c2,2,5,4,9,4c3,0,6-1,8-2c3-1,5-3,7-5v-52h17v72h-11c-2,0-4-1-4-3l1-7c-1,1-3,3-5,4
				c-2,1-3,2-5,3c-2,1-4,2-6,2c-2,0-4,1-7,1c-4,0-7-1-10-2c-3-1-6-3-8-6c-2-2-4-5-5-9c-1-3-2-7-2-11v-46h18V121z"/>
			<path class="st4" d="M295,101c0,1,0,3-1,4c-1,1-1,2-2,3c-1,1-2,2-4,2c-2,0-3,1-4,1s-3,0-4-1s-2-1-3-2s-2-2-2-3c-1-1-1-3-1-4
				c0-2,0-3,1-4s1-3,2-3c0-2,1-3,3-4c1-1,3-1,4-1c2,0,3,0,4,1s3,1,4,2s2,2,2,3S295,99,295,101z M293,121v72h-17v-72
				C276,121,293,121,293,121z"/>
			<path class="st4" d="M348,193h-16l-29-72h14c1,0,2,0,3,1c1,1,1,1,2,2l14,38c1,2,1,4,2,7c1,3,1,4,1,6c0-2,1-4,1-6c0-2,1-4,2-7
				l14-38c0-1,1-2,2-2s2-1,3-1h14L348,193z"/>
			<path class="st4" d="M443,193h-8c-2,0-3,0-4-1c-1,0-2-1-2-3l-2-5c-2,2-4,3-5,4c-2,1-4,2-5,3s-4,1-6,2c-2,0-4,1-7,1c-3,0-6,0-8-1
				c-3-1-5-2-7-4c-2-2-3-4-4-6c-1-2-2-5-2-9c0-3,1-5,2-8c1-3,4-5,7-7s8-4,13-5c5-1,12-2,21-2v-4c0-5-1-8-3-11c-2-2-5-3-9-3
				c-3,0-5,0-7,1c-2,1-3,1-5,2c-1,1-3,2-4,2c0,1-2,1-3,1s-2,0-3-1c-1-1-2-1-2-2l-3-6c8-8,18-11,30-11c4,0,8,1,11,2c3,1,6,3,8,6
				c2,2,4,5,5,9c1,3,2,7,2,11V193z M410,183c2,0,3,0,5,0s3-1,4-1c1-1,3-1,4-2c1-1,2-2,4-3v-12c-5,0-9,0-13,1c-3,1-6,1-8,2
				c-2,1-4,2-4,3c-2,0-2,1-2,3c0,3,1,5,3,7C405,183,407,183,410,183z"/>
			<path class="st4" d="M460,193v-72h11c2,0,4,1,4,3l1,6c1-1,3-3,5-4c2-1,3-2,5-3c2-1,4-2,6-2c2,0,4-1,7-1c4,0,7,1,10,2c3,1,6,3,8,6
				c2,3,4,5,5,9c1,3,2,7,2,11v46h-17v-46c0-4-1-8-3-10c-2-2-5-4-9-4c-3,0-6,1-8,2c-3,1-5,3-7,6v52h-20V193z"/>
			<path class="st4" d="M563,194c-6,0-11-2-14-5c-3-4-5-8-5-15v-40h-7c-1,0-2,0-2-1c-1-1-1-2-1-3v-7l12-2l4-20c0-1,1-2,1-2
				c1-1,2-1,3-1h9v23h17v12h-19v39c0,2,1,4,2,5c1,1,3,2,4,2s2,0,3,0s1-1,2-1s1-1,1-1h1c1,0,1,0,1,0l1,1l5,8c-3,2-5,4-9,5
				C570,194,567,194,563,194z"/>
		</g>
	</g>
</g>
</svg>
