<?xml version="1.0" encoding="utf-8"?>
<!-- Generator: Adobe Illustrator 21.1.0, SVG Export Plug-In . SVG Version: 6.00 Build 0)  -->
<svg version="1.1" id="Calque_1" xmlns="http://www.w3.org/2000/svg" xmlns:xlink="http://www.w3.org/1999/xlink" x="0px" y="0px"
	 viewBox="0 0 500 500" style="enable-background:new 0 0 500 500;" xml:space="preserve">
<style type="text/css">
	.st0{fill:#293133;}
	.st1{fill:#FFFFFF;}
</style>
<g>
	<circle class="st0" cx="250" cy="250" r="250"/>
</g>
<g>
	<path class="st1" d="M257.2,336.2c30.7,0,55.7-12.1,75.2-36.4l40,41.2c-31.7,35.7-69.1,53.6-112.2,53.6
		c-43.1,0-78.5-13.6-106.4-40.8c-27.9-27.2-41.8-61.5-41.8-103c0-41.5,14.2-76.1,42.6-103.8c28.4-27.7,63.1-41.6,104.2-41.6
		c45.9,0,84.3,17.5,115.2,52.4l-38.8,44c-19.7-24.5-44.3-36.8-73.6-36.8c-23.5,0-43.5,7.7-60.2,23c-16.7,15.3-25,36-25,62
		c0,26,7.9,46.9,23.6,62.6C215.7,328.3,234.8,336.2,257.2,336.2z"/>
</g>
</svg>
