<?xml version="1.0" encoding="utf-8"?>
<!-- Generator: Adobe Illustrator 21.1.0, SVG Export Plug-In . SVG Version: 6.00 Build 0)  -->
<svg version="1.1" id="Calque_1" xmlns="http://www.w3.org/2000/svg" xmlns:xlink="http://www.w3.org/1999/xlink" x="0px" y="0px"
	 viewBox="0 0 500 500" style="enable-background:new 0 0 500 500;" xml:space="preserve">
<style type="text/css">
	.st0{fill:#293133;}
	.st1{fill:#FFFFFF;}
</style>
<g>
	<circle class="st0" cx="250" cy="250" r="250"/>
</g>
<g>
	<path class="st1" d="M270.8,389.8H148.4V110.2h108.8c18.9,0,35.3,2.3,49,6.8s24.1,10.7,31,18.4c12.5,14.4,18.8,30.7,18.8,48.8
		c0,21.9-7.1,38.1-21.2,48.8c-4.8,3.7-8.1,6.1-10,7s-5.2,2.5-10,4.6c17.3,3.7,31.1,11.5,41.4,23.4s15.4,26.6,15.4,44.2
		c0,19.5-6.7,36.7-20,51.6C336.1,381.1,309.2,389.8,270.8,389.8z M210.8,223.4h29.6c17.3,0,30.2-1.9,38.6-5.6
		c8.4-3.7,12.6-11.8,12.6-24.2S287.7,173,280,169s-20.8-6-39.2-6h-30V223.4z M210.8,337h42.8c17.9,0,31.3-2.2,40.2-6.6
		c8.9-4.4,13.4-13.1,13.4-26s-4.7-21.5-14.2-25.6s-24.6-6.2-45.4-6.2h-36.8V337z"/>
</g>
</svg>
