<?xml version="1.0" encoding="utf-8"?>
<!-- Generator: Adobe Illustrator 23.0.2, SVG Export Plug-In . SVG Version: 6.00 Build 0)  -->
<svg version="1.1" id="Calque_1" xmlns="http://www.w3.org/2000/svg" xmlns:xlink="http://www.w3.org/1999/xlink" x="0px" y="0px"
	 viewBox="0 0 871.0999756 785.7000122" style="enable-background:new 0 0 871.0999756 785.7000122;" xml:space="preserve">
<style type="text/css">
	.st0{fill:#C3E0C6;}
</style>
<path class="st0" d="M290.8999939,617.7999878c0-35.0999756-29.1000061-64.2999878-64.3000031-64.2999878
	s-64.1999969,29.2000122-64.1999969,64.2999878s29.1999969,64.2999878,64.3000031,64.2999878
	S290.8999939,653,290.8999939,617.7999878z M98.0999985,360.7000122h192.7999878V232.1000061h-79.3000031
	c-2.1000061,0-9.5,3.1000061-11.1000061,4.6000061l-97.9000015,97.8999939c-1.5,1.5-4.5,9-4.5,11.1000061L98.0999985,360.7000122
	L98.0999985,360.7000122z M740.9000244,617.7999878c0-35.0999756-29.0999756-64.2999878-64.2999878-64.2999878
	s-64.2999878,29.2000122-64.2999878,64.2999878s29.2000122,64.2999878,64.2999878,64.2999878
	S740.9000244,653,740.9000244,617.7999878z M869.5,71.4000015v514.2999878
	c0,37.2000122-39.0999756,32.0999756-64.2999878,32.0999756c0,70.7999878-57.7999878,128.6000366-128.6000366,128.6000366
	s-128.5-57.7999878-128.5-128.5999756H355.2000122c0,70.7999878-57.7999878,128.5999756-128.6000061,128.5999756
	s-128.5-57.8000488-128.5-128.6000366H65.9000015c-25.0999985,0-64.3000031,5-64.3000031-32.0999756
	c0-17.5,14.6000004-32.0999756,32.0999985-32.0999756V392.7999878c0-35.6000061-5-75.2999878,22.5999985-103l99.4999924-99.3999939
	c12.6000061-12.5,36.6999969-22.6000061,54.8000031-22.6000061h80.3000031V71.4000015
	c0-17.5999985,14.6000061-32.0999985,32.2000122-32.0999985h514.3000488C854.9000244,39.2999992,869.5,53.7999992,869.5,71.4000015
	L869.5,71.4000015z"/>
</svg>
