<?xml version="1.0" encoding="utf-8"?>
<!-- Generator: Adobe Illustrator 23.0.2, SVG Export Plug-In . SVG Version: 6.00 Build 0)  -->
<svg version="1.1" id="Calque_1" xmlns="http://www.w3.org/2000/svg" xmlns:xlink="http://www.w3.org/1999/xlink" x="0px" y="0px"
	 viewBox="0 0 818.0999756 909" style="enable-background:new 0 0 818.0999756 909;" xml:space="preserve">
<style type="text/css">
	.st0{fill:#688ED8;}
</style>
<path class="st0" d="M59.090847,162.8877716c0-11.9225464,7.2678642-22.3751678,17.7204933-26.9481964
	c10.9425735-4.4913788,23.6817551-2.2865143,31.9295197,6.3695679l59.2043915,58.7960815
	C232.2126312,140.5126038,319.2634888,104.5,409.0091858,104.5c192.8021545,0,349.9999695,157.27948,349.9999695,350
	s-157.1978149,350-349.9999695,350c-104.3630371,0-202.7648163-46.0569458-269.3187256-126.248291
	c-4.5730591-5.9612427-4.5730591-14.6173706,0.8982544-19.5986938l62.4708405-62.8791504
	c3.1847992-2.7764893,7.267868-4.0830078,11.3509216-4.0830078c4.1647644,0.4082642,8.247818,2.286499,10.534317,5.4712524
	c44.6686554,57.8161621,111.6308441,90.6439819,184.0643768,90.6439819
	c128.5347595,0,233.3061218-104.7713623,233.3061218-233.3061523S537.5439453,221.1938324,409.0091858,221.1938324
	c-59.6943665,0-116.2039185,22.7834778-158.9944153,62.3891754l62.8791504,62.8791199
	c8.6560669,8.2478027,10.9425659,20.986969,6.3695679,31.5212402
	c-4.5730591,10.8609314-15.0256958,18.2104492-26.8665771,18.2104492H88.2438583
	c-16.0056229,0-29.1530609-13.229126-29.1530609-29.1530762V162.8876953L59.090847,162.8877716z"/>
</svg>
