<?xml version="1.0" encoding="utf-8"?>
<!-- Generator: Adobe Illustrator 23.0.2, SVG Export Plug-In . SVG Version: 6.00 Build 0)  -->
<svg version="1.1" id="Calque_1" xmlns="http://www.w3.org/2000/svg" xmlns:xlink="http://www.w3.org/1999/xlink" x="0px" y="0px"
	 viewBox="0 0 1040.6999512 731.7000122" style="enable-background:new 0 0 1040.6999512 731.7000122;" xml:space="preserve">
<style type="text/css">
	.st0{fill:#FCD79E;}
</style>
<path class="st0" d="M708.4000244,412.8999939c-13.7000122,0-29.2000122,0-45.5999756,2.2999878
	c54.5,39.5,92.7000122,91.6999817,92.7000122,162.3000183v117.5999756h282.2000122V577.5
	C1037.6999512,468,818,412.8999939,708.4000244,412.8999939 M332.2000122,412.8999939
	C222.6000061,412.8999939,3,467.8999939,3,577.5v117.5999756h658.5V577.5
	C661.4000244,468,441.7000122,412.8999939,332.2000122,412.8999939 M332.2000122,318.7999878
	c77.8999939,0,141.1000061-63.1999969,141.1000061-141.1000061S410.1000061,36.5999985,332.2000122,36.5999985
	S191.1000061,99.8000031,191.1000061,177.6999969S254.3000031,318.7999878,332.2000122,318.7999878 M708.4000244,318.7999878
	c77.9000244,0,141.0999756-63.1999969,141.0999756-141.1000061S786.2999878,36.5999985,708.4000244,36.5999985
	S567.3000488,99.8000031,567.3000488,177.7000122S630.5999756,318.7999878,708.4000244,318.7999878z"/>
</svg>
