<?xml version="1.0" encoding="utf-8"?>
<!-- Generator: Adobe Illustrator 26.5.0, SVG Export Plug-In . SVG Version: 6.00 Build 0)  -->
<svg version="1.1" id="Calque_1" xmlns="http://www.w3.org/2000/svg" xmlns:xlink="http://www.w3.org/1999/xlink" x="0px" y="0px"
	 viewBox="0 0 763.4 292" style="enable-background:new 0 0 763.4 292;" xml:space="preserve">
<style type="text/css">
	.st0{fill:url(#SVGID_1_);}
	.st1{fill:url(#SVGID_00000007411300398747986360000011049441952755595192_);}
	.st2{fill:#FFFFFF;}
	.st3{fill:#333333;}
</style>
<g>
	
		<linearGradient id="SVGID_1_" gradientUnits="userSpaceOnUse" x1="646.2" y1="1352" x2="646.2" y2="1060" gradientTransform="matrix(-1 0 0 1 1027.9 -1060)">
		<stop  offset="0" style="stop-color:#BBBBBB"/>
		<stop  offset="1" style="stop-color:#DCDCDC"/>
	</linearGradient>
	<path class="st0" d="M25,282c-8,0-15-7-15-15V25c0-8,7-15,15-15h713.5c8,0,15,7,15,15v242c0,8-7,15-15,15H25z M738.4,292
		c14,0,25-11,25-25V25c0-14-11-25-25-25H25C11,0,0,11,0,25v242c0,14,11,25,25,25H738.4z"/>
</g>
<linearGradient id="SVGID_00000040575309424699480830000009393934803485424782_" gradientUnits="userSpaceOnUse" x1="646.15" y1="-400" x2="646.15" y2="-128" gradientTransform="matrix(-1 0 0 -1 1027.9 -118)">
	<stop  offset="0" style="stop-color:#E8E8E8"/>
	<stop  offset="1" style="stop-color:#F9F9F9"/>
</linearGradient>
<path style="fill:url(#SVGID_00000040575309424699480830000009393934803485424782_);" d="M25,282c-8,0-15-7-15-15V25c0-8,7-15,15-15
	h713.5c8,0,15,7,15,15v242c0,8-7,15-15,15H25z"/>
<g>
	<g>
		<path class="st2" d="M81.9,100.4h15.2c1.6,0,3,0.4,4,1.2c1,0.8,1.8,1.8,2.3,3.1l23.8,61.7c0.8,2,1.6,4.2,2.3,6.6
			c0.7,2.4,1.4,4.9,2.1,7.6c1.1-5.4,2.4-10.1,4-14.2l23.7-61.7c0.4-1.1,1.2-2.1,2.2-2.9c1.1-0.9,2.4-1.3,4-1.3h15.2l-40.9,101.2h-17
			L81.9,100.4z"/>
		<path class="st2" d="M211.3,108.9c0,1.5-0.3,2.9-0.9,4.2c-0.6,1.3-1.4,2.4-2.4,3.4c-1,1-2.2,1.8-3.5,2.3c-1.4,0.6-2.8,0.9-4.3,0.9
			c-1.5,0-2.9-0.3-4.2-0.9c-1.3-0.6-2.5-1.4-3.5-2.3s-1.8-2.1-2.3-3.4c-0.6-1.3-0.9-2.7-0.9-4.2c0-1.5,0.3-3,0.9-4.3
			c0.6-1.4,1.4-2.5,2.3-3.5s2.1-1.8,3.5-2.3c1.3-0.6,2.7-0.9,4.2-0.9c1.5,0,3,0.3,4.3,0.9c1.4,0.6,2.5,1.4,3.5,2.3
			c1,1,1.8,2.1,2.4,3.5C211,105.9,211.3,107.3,211.3,108.9z M208.7,129.8v71.8h-17.3v-71.8H208.7z"/>
		<path class="st2" d="M270.8,143.8c-0.5,0.7-1,1.3-1.5,1.6c-0.5,0.3-1.2,0.5-2,0.5c-0.8,0-1.7-0.2-2.7-0.7c-1-0.5-2.1-1-3.3-1.6
			c-1.3-0.6-2.7-1.1-4.3-1.6c-1.6-0.5-3.5-0.7-5.7-0.7c-3.4,0-6.1,0.7-8.1,2.2c-2,1.4-2.9,3.3-2.9,5.7c0,1.5,0.5,2.8,1.5,3.9
			c1,1.1,2.3,2,4,2.8c1.7,0.8,3.5,1.5,5.6,2.1c2.1,0.6,4.2,1.3,6.4,2.1c2.2,0.7,4.3,1.6,6.4,2.6c2.1,1,4,2.2,5.6,3.6
			c1.7,1.5,3,3.2,4,5.3c1,2.1,1.5,4.5,1.5,7.4c0,3.5-0.6,6.6-1.9,9.6c-1.3,2.9-3.1,5.4-5.5,7.6c-2.4,2.1-5.4,3.8-9,5
			s-7.7,1.8-12.3,1.8c-2.5,0-4.9-0.2-7.2-0.7c-2.4-0.4-4.6-1.1-6.8-1.9c-2.2-0.8-4.2-1.7-6-2.8c-1.8-1.1-3.5-2.2-4.9-3.5l4-6.6
			c0.5-0.8,1.1-1.4,1.8-1.8s1.6-0.6,2.7-0.6c1.1,0,2.1,0.3,3,0.9c1,0.6,2.1,1.3,3.3,2c1.3,0.7,2.7,1.4,4.4,2
			c1.7,0.6,3.9,0.9,6.5,0.9c2.1,0,3.8-0.2,5.3-0.7c1.5-0.5,2.7-1.1,3.6-1.9c1-0.8,1.7-1.7,2.1-2.8c0.4-1,0.7-2.1,0.7-3.3
			c0-1.7-0.5-3.1-1.5-4.1c-1-1.1-2.3-2-4-2.8c-1.7-0.8-3.5-1.5-5.7-2.1c-2.1-0.6-4.3-1.3-6.5-2.1c-2.2-0.7-4.4-1.6-6.5-2.6
			c-2.1-1-4-2.3-5.7-3.8c-1.7-1.5-3-3.4-4-5.7c-1-2.2-1.5-4.9-1.5-8.1c0-2.9,0.6-5.7,1.8-8.4c1.2-2.7,2.9-5,5.1-7
			c2.3-2,5.1-3.6,8.5-4.8c3.4-1.2,7.3-1.8,11.7-1.8c4.9,0,9.5,0.8,13.5,2.4c4.1,1.6,7.4,3.8,10.1,6.4L270.8,143.8z"/>
		<path class="st2" d="M305.2,129.8v45.6c0,4.4,1,7.8,3,10.2c2,2.4,5.1,3.6,9.1,3.6c3,0,5.8-0.7,8.4-2c2.6-1.3,5.1-3.2,7.4-5.5
			v-51.9h17.3v71.8h-10.6c-2.2,0-3.7-1-4.4-3.1l-1.2-5.7c-1.5,1.5-3,2.9-4.6,4.1c-1.6,1.2-3.3,2.3-5.1,3.1c-1.8,0.9-3.7,1.5-5.8,2
			c-2.1,0.5-4.3,0.7-6.7,0.7c-3.9,0-7.4-0.7-10.4-2c-3-1.3-5.5-3.2-7.6-5.6c-2.1-2.4-3.6-5.3-4.7-8.6c-1.1-3.3-1.6-7-1.6-11v-45.6
			H305.2z"/>
		<path class="st2" d="M425.3,201.6h-7.8c-1.6,0-2.9-0.2-3.9-0.7c-0.9-0.5-1.6-1.5-2.1-3l-1.5-5.1c-1.8,1.6-3.6,3.1-5.4,4.3
			c-1.8,1.2-3.6,2.3-5.4,3.1c-1.9,0.8-3.9,1.5-6,1.9c-2.1,0.4-4.4,0.6-7,0.6c-3,0-5.8-0.4-8.4-1.2c-2.6-0.8-4.8-2-6.6-3.7
			c-1.8-1.6-3.3-3.7-4.3-6.1c-1-2.4-1.5-5.3-1.5-8.5c0-2.7,0.7-5.4,2.1-8c1.4-2.6,3.8-5,7.1-7.2c3.3-2.1,7.7-3.9,13.2-5.3
			c5.5-1.4,12.3-2.1,20.5-2.1v-4.2c0-4.8-1-8.4-3-10.8s-5-3.5-8.9-3.5c-2.8,0-5.1,0.3-7,1c-1.9,0.7-3.5,1.4-4.9,2.2
			c-1.4,0.8-2.6,1.6-3.8,2.2c-1.2,0.7-2.4,1-3.8,1c-1.2,0-2.2-0.3-3-0.9c-0.8-0.6-1.5-1.4-2-2.2l-3.2-5.5
			c8.3-7.6,18.2-11.3,29.9-11.3c4.2,0,7.9,0.7,11.2,2.1c3.3,1.4,6.1,3.3,8.4,5.7c2.3,2.5,4,5.4,5.2,8.8c1.2,3.4,1.8,7.1,1.8,11.2
			V201.6z M391.7,190.8c1.8,0,3.4-0.2,4.9-0.5c1.5-0.3,2.9-0.8,4.2-1.4c1.3-0.6,2.6-1.4,3.8-2.4c1.2-0.9,2.5-2.1,3.7-3.3v-12
			c-5,0-9.3,0.3-12.6,1c-3.4,0.6-6.1,1.4-8.2,2.4c-2.1,1-3.5,2.1-4.4,3.5c-0.9,1.3-1.3,2.7-1.3,4.3c0,3.1,0.9,5.2,2.7,6.6
			C386.4,190.2,388.8,190.8,391.7,190.8z"/>
		<path class="st2" d="M460.7,97.6v104h-17.3v-104H460.7z"/>
		<path class="st2" d="M501.2,108.9c0,1.5-0.3,2.9-0.9,4.2c-0.6,1.3-1.4,2.4-2.4,3.4c-1,1-2.2,1.8-3.5,2.3c-1.4,0.6-2.8,0.9-4.3,0.9
			c-1.5,0-2.9-0.3-4.2-0.9c-1.3-0.6-2.5-1.4-3.5-2.3c-1-1-1.8-2.1-2.3-3.4c-0.6-1.3-0.9-2.7-0.9-4.2c0-1.5,0.3-3,0.9-4.3
			c0.6-1.4,1.4-2.5,2.3-3.5c1-1,2.1-1.8,3.5-2.3c1.3-0.6,2.7-0.9,4.2-0.9c1.5,0,3,0.3,4.3,0.9c1.4,0.6,2.5,1.4,3.5,2.3
			c1,1,1.8,2.1,2.4,3.5C500.9,105.9,501.2,107.3,501.2,108.9z M498.6,129.8v71.8h-17.3v-71.8H498.6z"/>
		<path class="st2" d="M560.8,143.8c-0.5,0.7-1,1.3-1.5,1.6c-0.5,0.3-1.2,0.5-2,0.5c-0.8,0-1.7-0.2-2.7-0.7c-1-0.5-2.1-1-3.3-1.6
			c-1.3-0.6-2.7-1.1-4.3-1.6c-1.6-0.5-3.5-0.7-5.7-0.7c-3.4,0-6.1,0.7-8,2.2c-2,1.4-2.9,3.3-2.9,5.7c0,1.5,0.5,2.8,1.5,3.9
			c1,1.1,2.3,2,4,2.8c1.7,0.8,3.5,1.5,5.6,2.1c2.1,0.6,4.2,1.3,6.4,2.1c2.2,0.7,4.3,1.6,6.4,2.6c2.1,1,4,2.2,5.6,3.6
			c1.7,1.5,3,3.2,4,5.3c1,2.1,1.5,4.5,1.5,7.4c0,3.5-0.6,6.6-1.9,9.6c-1.3,2.9-3.1,5.4-5.5,7.6c-2.4,2.1-5.4,3.8-9,5
			c-3.6,1.2-7.7,1.8-12.3,1.8c-2.5,0-4.9-0.2-7.2-0.7c-2.4-0.4-4.6-1.1-6.8-1.9c-2.2-0.8-4.2-1.7-6-2.8c-1.8-1.1-3.5-2.2-4.9-3.5
			l4-6.6c0.5-0.8,1.1-1.4,1.8-1.8s1.6-0.6,2.7-0.6c1.1,0,2.1,0.3,3,0.9c1,0.6,2.1,1.3,3.3,2c1.3,0.7,2.7,1.4,4.4,2
			c1.7,0.6,3.9,0.9,6.5,0.9c2.1,0,3.8-0.2,5.3-0.7c1.5-0.5,2.7-1.1,3.6-1.9c1-0.8,1.7-1.7,2.1-2.8s0.7-2.1,0.7-3.3
			c0-1.7-0.5-3.1-1.5-4.1c-1-1.1-2.3-2-4-2.8c-1.7-0.8-3.5-1.5-5.7-2.1c-2.1-0.6-4.3-1.3-6.5-2.1c-2.2-0.7-4.4-1.6-6.5-2.6
			c-2.1-1-4-2.3-5.7-3.8c-1.7-1.5-3-3.4-4-5.7c-1-2.2-1.5-4.9-1.5-8.1c0-2.9,0.6-5.7,1.8-8.4c1.2-2.7,2.9-5,5.1-7
			c2.3-2,5.1-3.6,8.5-4.8c3.4-1.2,7.3-1.8,11.7-1.8c4.9,0,9.5,0.8,13.5,2.4c4.1,1.6,7.4,3.8,10.2,6.4L560.8,143.8z"/>
		<path class="st2" d="M609,128.7c4.5,0,8.7,0.7,12.5,2.2c3.8,1.4,7.1,3.6,9.8,6.3c2.8,2.8,4.9,6.2,6.4,10.2c1.5,4,2.3,8.6,2.3,13.8
			c0,1.3-0.1,2.4-0.2,3.3c-0.1,0.9-0.3,1.5-0.6,2c-0.3,0.5-0.7,0.8-1.2,1s-1.2,0.3-2,0.3h-44.4c0.5,7.4,2.5,12.8,6,16.2
			c3.5,3.5,8,5.2,13.7,5.2c2.8,0,5.2-0.3,7.2-1c2-0.7,3.8-1.4,5.3-2.2c1.5-0.8,2.8-1.5,4-2.2c1.1-0.7,2.2-1,3.3-1
			c0.7,0,1.3,0.1,1.8,0.4c0.5,0.3,1,0.7,1.3,1.2l5,6.3c-1.9,2.2-4.1,4.1-6.4,5.6c-2.4,1.5-4.9,2.7-7.5,3.6c-2.6,0.9-5.2,1.6-7.9,1.9
			c-2.7,0.4-5.3,0.6-7.8,0.6c-5,0-9.6-0.8-13.9-2.5c-4.3-1.7-8-4.1-11.2-7.4c-3.2-3.2-5.7-7.3-7.5-12c-1.8-4.8-2.7-10.3-2.7-16.6
			c0-4.9,0.8-9.5,2.4-13.8c1.6-4.3,3.9-8.1,6.8-11.3c3-3.2,6.6-5.7,10.8-7.6C598.8,129.6,603.6,128.7,609,128.7z M609.4,141.1
			c-5,0-9,1.4-11.8,4.3c-2.8,2.8-4.7,6.9-5.5,12.1h32.5c0-2.2-0.3-4.4-0.9-6.3c-0.6-2-1.5-3.7-2.8-5.2c-1.3-1.5-2.8-2.7-4.8-3.5
			C614.2,141.5,611.9,141.1,609.4,141.1z"/>
		<path class="st2" d="M654.2,201.6v-71.8h10.1c1.8,0,3,0.3,3.7,1c0.7,0.7,1.2,1.8,1.4,3.4l1,8.7c2.6-4.4,5.6-7.9,9-10.5
			c3.5-2.6,7.3-3.9,11.6-3.9c3.5,0,6.5,0.8,8.8,2.4l-2.2,13c-0.1,0.8-0.4,1.4-0.9,1.8c-0.5,0.3-1.1,0.5-1.9,0.5
			c-0.7,0-1.7-0.2-2.9-0.5c-1.2-0.3-2.8-0.5-4.8-0.5c-3.6,0-6.7,1-9.2,3c-2.6,2-4.7,4.9-6.5,8.7v44.7H654.2z"/>
	</g>
	<g>
		<path class="st3" d="M71.9,90.4h15.2c1.6,0,3,0.4,4,1.2c1,0.8,1.8,1.8,2.3,3.1l23.8,61.7c0.8,2,1.6,4.2,2.3,6.6
			c0.7,2.4,1.4,4.9,2.1,7.6c1.1-5.4,2.4-10.1,4-14.2l23.7-61.7c0.4-1.1,1.2-2.1,2.2-2.9c1.1-0.9,2.4-1.3,4-1.3h15.2l-40.9,101.2h-17
			L71.9,90.4z"/>
		<path class="st3" d="M201.3,98.9c0,1.5-0.3,2.9-0.9,4.2c-0.6,1.3-1.4,2.4-2.4,3.4c-1,1-2.2,1.8-3.5,2.3c-1.4,0.6-2.8,0.9-4.3,0.9
			c-1.5,0-2.9-0.3-4.2-0.9c-1.3-0.6-2.5-1.4-3.5-2.3s-1.8-2.1-2.3-3.4c-0.6-1.3-0.9-2.7-0.9-4.2c0-1.5,0.3-3,0.9-4.3
			c0.6-1.4,1.4-2.5,2.3-3.5s2.1-1.8,3.5-2.3c1.3-0.6,2.7-0.9,4.2-0.9c1.5,0,3,0.3,4.3,0.9c1.4,0.6,2.5,1.4,3.5,2.3
			c1,1,1.8,2.1,2.4,3.5C201,95.9,201.3,97.3,201.3,98.9z M198.7,119.8v71.8h-17.3v-71.8H198.7z"/>
		<path class="st3" d="M260.8,133.8c-0.5,0.7-1,1.3-1.5,1.6c-0.5,0.3-1.2,0.5-2,0.5c-0.8,0-1.7-0.2-2.7-0.7c-1-0.5-2.1-1-3.3-1.6
			c-1.3-0.6-2.7-1.1-4.3-1.6c-1.6-0.5-3.5-0.7-5.7-0.7c-3.4,0-6.1,0.7-8.1,2.2c-2,1.4-2.9,3.3-2.9,5.7c0,1.5,0.5,2.8,1.5,3.9
			c1,1.1,2.3,2,4,2.8c1.7,0.8,3.5,1.5,5.6,2.1c2.1,0.6,4.2,1.3,6.4,2.1c2.2,0.7,4.3,1.6,6.4,2.6c2.1,1,4,2.2,5.6,3.6
			c1.7,1.5,3,3.2,4,5.3c1,2.1,1.5,4.5,1.5,7.4c0,3.5-0.6,6.6-1.9,9.6c-1.3,2.9-3.1,5.4-5.5,7.6c-2.4,2.1-5.4,3.8-9,5
			s-7.7,1.8-12.3,1.8c-2.5,0-4.9-0.2-7.2-0.7c-2.4-0.4-4.6-1.1-6.8-1.9c-2.2-0.8-4.2-1.7-6-2.8c-1.8-1.1-3.5-2.2-4.9-3.5l4-6.6
			c0.5-0.8,1.1-1.4,1.8-1.8s1.6-0.6,2.7-0.6c1.1,0,2.1,0.3,3,0.9c1,0.6,2.1,1.3,3.3,2c1.3,0.7,2.7,1.4,4.4,2
			c1.7,0.6,3.9,0.9,6.5,0.9c2.1,0,3.8-0.2,5.3-0.7c1.5-0.5,2.7-1.1,3.6-1.9c1-0.8,1.7-1.7,2.1-2.8c0.4-1,0.7-2.1,0.7-3.3
			c0-1.7-0.5-3.1-1.5-4.1c-1-1.1-2.3-2-4-2.8c-1.7-0.8-3.5-1.5-5.7-2.1c-2.1-0.6-4.3-1.3-6.5-2.1c-2.2-0.7-4.4-1.6-6.5-2.6
			c-2.1-1-4-2.3-5.7-3.8c-1.7-1.5-3-3.4-4-5.7c-1-2.2-1.5-4.9-1.5-8.1c0-2.9,0.6-5.7,1.8-8.4c1.2-2.7,2.9-5,5.1-7
			c2.3-2,5.1-3.6,8.5-4.8c3.4-1.2,7.3-1.8,11.7-1.8c4.9,0,9.5,0.8,13.5,2.4c4.1,1.6,7.4,3.8,10.1,6.4L260.8,133.8z"/>
		<path class="st3" d="M295.2,119.8v45.6c0,4.4,1,7.8,3,10.2c2,2.4,5.1,3.6,9.1,3.6c3,0,5.8-0.7,8.4-2c2.6-1.3,5.1-3.2,7.4-5.5
			v-51.9h17.3v71.8h-10.6c-2.2,0-3.7-1-4.4-3.1l-1.2-5.7c-1.5,1.5-3,2.9-4.6,4.1c-1.6,1.2-3.3,2.3-5.1,3.1c-1.8,0.9-3.7,1.5-5.8,2
			c-2.1,0.5-4.3,0.7-6.7,0.7c-3.9,0-7.4-0.7-10.4-2c-3-1.3-5.5-3.2-7.6-5.6c-2.1-2.4-3.6-5.3-4.7-8.6c-1.1-3.3-1.6-7-1.6-11v-45.6
			H295.2z"/>
		<path class="st3" d="M415.2,191.6h-7.8c-1.6,0-2.9-0.2-3.9-0.7c-0.9-0.5-1.6-1.5-2.1-3l-1.5-5.1c-1.8,1.6-3.6,3.1-5.4,4.3
			c-1.8,1.2-3.6,2.3-5.4,3.1c-1.9,0.8-3.9,1.5-6,1.9c-2.1,0.4-4.4,0.6-7,0.6c-3,0-5.8-0.4-8.4-1.2c-2.6-0.8-4.8-2-6.6-3.7
			c-1.8-1.6-3.3-3.7-4.3-6.1c-1-2.4-1.5-5.3-1.5-8.5c0-2.7,0.7-5.4,2.1-8c1.4-2.6,3.8-5,7.1-7.2c3.3-2.1,7.7-3.9,13.2-5.3
			c5.5-1.4,12.3-2.1,20.5-2.1v-4.2c0-4.8-1-8.4-3-10.8s-5-3.5-8.9-3.5c-2.8,0-5.1,0.3-7,1c-1.9,0.7-3.5,1.4-4.9,2.2
			c-1.4,0.8-2.6,1.6-3.8,2.2c-1.2,0.7-2.4,1-3.8,1c-1.2,0-2.2-0.3-3-0.9c-0.8-0.6-1.5-1.4-2-2.2l-3.2-5.5
			c8.3-7.6,18.2-11.3,29.9-11.3c4.2,0,7.9,0.7,11.2,2.1c3.3,1.4,6.1,3.3,8.4,5.7c2.3,2.5,4,5.4,5.2,8.8c1.2,3.4,1.8,7.1,1.8,11.2
			V191.6z M381.6,180.8c1.8,0,3.4-0.2,4.9-0.5c1.5-0.3,2.9-0.8,4.2-1.4c1.3-0.6,2.6-1.4,3.8-2.4c1.2-0.9,2.5-2.1,3.7-3.3v-12
			c-5,0-9.3,0.3-12.6,1c-3.4,0.6-6.1,1.4-8.2,2.4c-2.1,1-3.5,2.1-4.4,3.5c-0.9,1.3-1.3,2.7-1.3,4.3c0,3.1,0.9,5.2,2.7,6.6
			C376.4,180.2,378.8,180.8,381.6,180.8z"/>
		<path class="st3" d="M450.7,87.6v104h-17.3v-104H450.7z"/>
		<path class="st3" d="M491.2,98.9c0,1.5-0.3,2.9-0.9,4.2c-0.6,1.3-1.4,2.4-2.4,3.4c-1,1-2.2,1.8-3.5,2.3c-1.4,0.6-2.8,0.9-4.3,0.9
			c-1.5,0-2.9-0.3-4.2-0.9c-1.3-0.6-2.5-1.4-3.5-2.3c-1-1-1.8-2.1-2.3-3.4c-0.6-1.3-0.9-2.7-0.9-4.2c0-1.5,0.3-3,0.9-4.3
			c0.6-1.4,1.4-2.5,2.3-3.5c1-1,2.1-1.8,3.5-2.3c1.3-0.6,2.7-0.9,4.2-0.9c1.5,0,3,0.3,4.3,0.9c1.4,0.6,2.5,1.4,3.5,2.3
			c1,1,1.8,2.1,2.4,3.5C490.9,95.9,491.2,97.3,491.2,98.9z M488.6,119.8v71.8h-17.3v-71.8H488.6z"/>
		<path class="st3" d="M550.8,133.8c-0.5,0.7-1,1.3-1.5,1.6c-0.5,0.3-1.2,0.5-2,0.5c-0.8,0-1.7-0.2-2.7-0.7c-1-0.5-2.1-1-3.3-1.6
			c-1.3-0.6-2.7-1.1-4.3-1.6c-1.6-0.5-3.5-0.7-5.7-0.7c-3.4,0-6.1,0.7-8,2.2c-2,1.4-2.9,3.3-2.9,5.7c0,1.5,0.5,2.8,1.5,3.9
			c1,1.1,2.3,2,4,2.8c1.7,0.8,3.5,1.5,5.6,2.1c2.1,0.6,4.2,1.3,6.4,2.1c2.2,0.7,4.3,1.6,6.4,2.6c2.1,1,4,2.2,5.6,3.6
			c1.7,1.5,3,3.2,4,5.3c1,2.1,1.5,4.5,1.5,7.4c0,3.5-0.6,6.6-1.9,9.6c-1.3,2.9-3.1,5.4-5.5,7.6c-2.4,2.1-5.4,3.8-9,5
			c-3.6,1.2-7.7,1.8-12.3,1.8c-2.5,0-4.9-0.2-7.2-0.7c-2.4-0.4-4.6-1.1-6.8-1.9c-2.2-0.8-4.2-1.7-6-2.8c-1.8-1.1-3.5-2.2-4.9-3.5
			l4-6.6c0.5-0.8,1.1-1.4,1.8-1.8s1.6-0.6,2.7-0.6c1.1,0,2.1,0.3,3,0.9c1,0.6,2.1,1.3,3.3,2c1.3,0.7,2.7,1.4,4.4,2
			c1.7,0.6,3.9,0.9,6.5,0.9c2.1,0,3.8-0.2,5.3-0.7c1.5-0.5,2.7-1.1,3.6-1.9c1-0.8,1.7-1.7,2.1-2.8s0.7-2.1,0.7-3.3
			c0-1.7-0.5-3.1-1.5-4.1c-1-1.1-2.3-2-4-2.8c-1.7-0.8-3.5-1.5-5.7-2.1c-2.1-0.6-4.3-1.3-6.5-2.1c-2.2-0.7-4.4-1.6-6.5-2.6
			c-2.1-1-4-2.3-5.7-3.8c-1.7-1.5-3-3.4-4-5.7c-1-2.2-1.5-4.9-1.5-8.1c0-2.9,0.6-5.7,1.8-8.4c1.2-2.7,2.9-5,5.1-7
			c2.3-2,5.1-3.6,8.5-4.8c3.4-1.2,7.3-1.8,11.7-1.8c4.9,0,9.5,0.8,13.5,2.4c4.1,1.6,7.4,3.8,10.2,6.4L550.8,133.8z"/>
		<path class="st3" d="M599,118.7c4.5,0,8.7,0.7,12.5,2.2c3.8,1.4,7.1,3.6,9.8,6.3c2.8,2.8,4.9,6.2,6.4,10.2c1.5,4,2.3,8.6,2.3,13.8
			c0,1.3-0.1,2.4-0.2,3.3c-0.1,0.9-0.3,1.5-0.6,2c-0.3,0.5-0.7,0.8-1.2,1s-1.2,0.3-2,0.3h-44.4c0.5,7.4,2.5,12.8,6,16.2
			c3.5,3.5,8,5.2,13.7,5.2c2.8,0,5.2-0.3,7.2-1c2-0.7,3.8-1.4,5.3-2.2c1.5-0.8,2.8-1.5,4-2.2c1.1-0.7,2.2-1,3.3-1
			c0.7,0,1.3,0.1,1.8,0.4c0.5,0.3,1,0.7,1.3,1.2l5,6.3c-1.9,2.2-4.1,4.1-6.4,5.6c-2.4,1.5-4.9,2.7-7.5,3.6c-2.6,0.9-5.2,1.6-7.9,1.9
			c-2.7,0.4-5.3,0.6-7.8,0.6c-5,0-9.6-0.8-13.9-2.5c-4.3-1.7-8-4.1-11.2-7.4c-3.2-3.2-5.7-7.3-7.5-12c-1.8-4.8-2.7-10.3-2.7-16.6
			c0-4.9,0.8-9.5,2.4-13.8c1.6-4.3,3.9-8.1,6.8-11.3c3-3.2,6.6-5.7,10.8-7.6C588.8,119.6,593.6,118.7,599,118.7z M599.3,131.1
			c-5,0-9,1.4-11.8,4.3c-2.8,2.8-4.7,6.9-5.5,12.1h32.5c0-2.2-0.3-4.4-0.9-6.3c-0.6-2-1.5-3.7-2.8-5.2c-1.3-1.5-2.8-2.7-4.8-3.5
			C604.2,131.5,601.9,131.1,599.3,131.1z"/>
		<path class="st3" d="M644.1,191.6v-71.8h10.1c1.8,0,3,0.3,3.7,1c0.7,0.7,1.2,1.8,1.4,3.4l1,8.7c2.6-4.4,5.6-7.9,9-10.5
			c3.5-2.6,7.3-3.9,11.6-3.9c3.5,0,6.5,0.8,8.8,2.4l-2.2,13c-0.1,0.8-0.4,1.4-0.9,1.8c-0.5,0.3-1.1,0.5-1.9,0.5
			c-0.7,0-1.7-0.2-2.9-0.5c-1.2-0.3-2.8-0.5-4.8-0.5c-3.6,0-6.7,1-9.2,3c-2.6,2-4.7,4.9-6.5,8.7v44.7H644.1z"/>
	</g>
</g>
</svg>
