<?xml version="1.0" encoding="utf-8"?>
<!-- Generator: Adobe Illustrator 26.0.2, SVG Export Plug-In . SVG Version: 6.00 Build 0)  -->
<svg version="1.1"
	 id="svg4" inkscape:version="0.92.5 (2060ec1f9f, 2020-04-08)" sodipodi:docname="ufa41-warehouse-full.svg" xmlns:cc="http://creativecommons.org/ns#" xmlns:dc="http://purl.org/dc/elements/1.1/" xmlns:inkscape="http://www.inkscape.org/namespaces/inkscape" xmlns:rdf="http://www.w3.org/1999/02/22-rdf-syntax-ns#" xmlns:sodipodi="http://sodipodi.sourceforge.net/DTD/sodipodi-0.dtd" xmlns:svg="http://www.w3.org/2000/svg"
	 xmlns="http://www.w3.org/2000/svg" xmlns:xlink="http://www.w3.org/1999/xlink" x="0px" y="0px" viewBox="0 0 1000 796.1998901"
	 style="enable-background:new 0 0 1000 796.1998901;" xml:space="preserve">
<style type="text/css">
	.st0{fill:#FCD79E;}
</style>
<sodipodi:namedview  bordercolor="#666666" borderopacity="1" gridtolerance="10" guidetolerance="10" id="namedview6" inkscape:current-layer="svg4" inkscape:cx="-136.67797" inkscape:cy="256" inkscape:pageopacity="0" inkscape:pageshadow="2" inkscape:window-height="1016" inkscape:window-maximized="1" inkscape:window-width="1920" inkscape:window-x="0" inkscape:window-y="27" inkscape:zoom="0.4609375" objecttolerance="10" pagecolor="#ffffff" showgrid="false">
	</sodipodi:namedview>
<path id="path2" inkscape:connector-curvature="0" class="st0" d="M0.0000305,758.6999512V263.7999573
	c0-40.7999878,24.8999996-77.7000122,62.9000015-92.7999878l418.5-167.3999939
	c11.8999939-4.8000031,25.2999878-4.8000031,37.1999512,0l418.5999756,167.3999939
	c38,15.2000122,62.8000488,52,62.8000488,92.7999878v494.8000183c0,20.7999878-16.7000732,37.5-37.5,37.5h-75
	c-20.8000488,0-37.5-16.7000122-37.5-37.5V344.7999573c0-26.2999878-22.3000488-50-50-50h-600c-27.6999969,0-50,23.7999878-50,50
	v413.8999939c0,20.7999878-16.8000031,37.5-37.5,37.5h-75C16.8000298,796.1999512,0.0000305,779.5,0.0000305,758.6999512z
	 M762.5,596.1999512c20.8000488,0,37.5,16.7000122,37.5,37.5v125c0,20.7999878-16.6999512,37.5-37.5,37.5h-175
	c-20.7999268,0-37.5-16.7000122-37.5-37.5v-125c0-20.7999878,16.7000732-37.5,37.5-37.5H762.5z M200.0000305,382.2999573
	c0-19.3999939,16.6999969-37.5,37.5-37.5h225c20.7999878,0,37.5,18.1000061,37.5,37.5v126.4000244
	c0,20.8000183-16.7000122,37.5000305-37.5,37.5000305h-225c-20.8000031,0-37.5-16.7000122-37.5-37.5000305V382.2999573z
	 M462.5000305,596.1999512c20.7999878,0,37.5,16.7000122,37.5,37.5v125c0,20.7999878-16.7000122,37.5-37.5,37.5h-225
	c-20.8000031,0-37.5-16.7000122-37.5-37.5v-125c0-20.7999878,16.6999969-37.5,37.5-37.5H462.5000305z"/>
</svg>
