<?xml version="1.0" encoding="utf-8"?>
<!-- Generator: Adobe Illustrator 24.3.0, SVG Export Plug-In . SVG Version: 6.00 Build 0)  -->
<svg version="1.1" id="Calque_1" xmlns="http://www.w3.org/2000/svg" xmlns:xlink="http://www.w3.org/1999/xlink" x="0px" y="0px"
	 viewBox="0 0 401 292.5" style="enable-background:new 0 0 401 292.5;" xml:space="preserve">
<style type="text/css">
	.st0{fill:url(#SVGID_1_);}
	.st1{fill:url(#SVGID_2_);}
	.st2{fill:#FFFFFF;}
	.st3{fill:#333333;}
</style>
<linearGradient id="SVGID_1_" gradientUnits="userSpaceOnUse" x1="200.5" y1="1.5" x2="200.5" y2="294" gradientTransform="matrix(1 0 0 -1 0 294)">
	<stop  offset="0" style="stop-color:#BBBBBB"/>
	<stop  offset="1" style="stop-color:#DCDCDC"/>
</linearGradient>
<path class="st0" d="M376,292.5H25c-13.8,0-25-11.2-25-25V25C0,11.2,11.2,0,25,0h351c13.8,0,25,11.2,25,25v242.5
	C401,281.3,389.8,292.5,376,292.5z M25,10c-8.3,0-15,6.7-15,15v242.5c0,8.3,6.7,15,15,15h351c8.3,0,15-6.7,15-15V25
	c0-8.3-6.7-15-15-15H25z"/>
<linearGradient id="SVGID_2_" gradientUnits="userSpaceOnUse" x1="200.5" y1="11.5" x2="200.5" y2="284" gradientTransform="matrix(1 0 0 -1 0 294)">
	<stop  offset="0" style="stop-color:#E8E8E8"/>
	<stop  offset="1" style="stop-color:#F9F9F9"/>
</linearGradient>
<path class="st1" d="M25,10c-8.3,0-15,6.7-15,15v242.5c0,8.3,6.7,15,15,15h351c8.3,0,15-6.7,15-15V25c0-8.3-6.7-15-15-15H25z"/>
<path class="st2" d="M164.2,209.4c0-3.5-2.9-6.5-6.5-6.5c-3.5,0-6.5,2.9-6.5,6.5c0,3.5,2.9,6.5,6.5,6.5
	C161.3,215.9,164.2,212.9,164.2,209.4z M229.4,166.9l-69,69c-2.3,2.3-5.7,3.8-9.1,3.8s-6.8-1.4-9.2-3.8L131.3,225
	c-2.4-2.3-3.8-5.7-3.8-9.1s1.4-6.8,3.8-9.2l68.9-68.9C205.5,151,216.1,161.6,229.4,166.9z M293.5,122.9c0,3.3-1.2,7.5-2.3,10.7
	c-6.4,18-23.7,30.4-42.8,30.4c-25,0-45.3-20.3-45.3-45.3s20.3-45.3,45.3-45.3c7.4,0,17,2.2,23.2,6.4c1,0.7,1.6,1.6,1.6,2.8
	c0,1.1-0.7,2.2-1.6,2.8l-29.6,17.1v22.7l19.5,10.8c3.3-1.9,26.8-16.7,28.8-16.7S293.5,120.9,293.5,122.9L293.5,122.9z"/>
<path class="st3" d="M154.2,199.4c0-3.5-2.9-6.5-6.5-6.5c-3.5,0-6.5,2.9-6.5,6.5c0,3.5,2.9,6.5,6.5,6.5
	C151.3,205.9,154.2,202.9,154.2,199.4z M219.4,156.9l-69,69c-2.3,2.3-5.7,3.8-9.1,3.8s-6.8-1.4-9.2-3.8L121.3,215
	c-2.4-2.3-3.8-5.7-3.8-9.1s1.4-6.8,3.8-9.2l68.9-68.9C195.5,141,206.1,151.6,219.4,156.9z M283.5,112.9c0,3.3-1.2,7.5-2.3,10.7
	c-6.4,18-23.7,30.4-42.8,30.4c-25,0-45.3-20.3-45.3-45.3s20.3-45.3,45.3-45.3c7.4,0,17,2.2,23.2,6.4c1,0.7,1.6,1.6,1.6,2.8
	c0,1.1-0.7,2.2-1.6,2.8l-29.6,17.1v22.7l19.5,10.8c3.3-1.9,26.8-16.7,28.8-16.7S283.5,110.9,283.5,112.9L283.5,112.9z"/>
</svg>
