<?xml version="1.0" encoding="utf-8"?>
<!-- Generator: Adobe Illustrator 22.0.1, SVG Export Plug-In . SVG Version: 6.00 Build 0)  -->
<svg version="1.1" id="Calque_1" xmlns="http://www.w3.org/2000/svg" xmlns:xlink="http://www.w3.org/1999/xlink" x="0px" y="0px"
	 viewBox="0 0 16 16" style="enable-background:new 0 0 16 16;" xml:space="preserve">
<g>
	<polygon points="7,3 5,3 5,5 3,5 3,7 5,7 5,9 7,9 7,7 9,7 9,5 7,5 	"/>
	<path d="M16,14.6l-5.1-5.1C11.6,8.5,12,7.3,12,6c0-3.3-2.7-6-6-6S0,2.7,0,6s2.7,6,6,6c1.3,0,2.5-0.4,3.5-1.1l5.1,5.1L16,14.6z M1,6
		c0-2.8,2.2-5,5-5s5,2.2,5,5s-2.2,5-5,5S1,8.8,1,6z"/>
</g>
</svg>
