<?xml version="1.0" encoding="utf-8"?>
<!-- Generator: Adobe Illustrator 22.1.0, SVG Export Plug-In . SVG Version: 6.00 Build 0)  -->
<svg version="1.1" id="Calque_1" xmlns="http://www.w3.org/2000/svg" xmlns:xlink="http://www.w3.org/1999/xlink" x="0px" y="0px"
	 viewBox="0 0 857.1 1000" style="enable-background:new 0 0 857.1 1000;" xml:space="preserve">
<style type="text/css">
	.st0{fill:#7499DD;}
</style>
<path class="st0" d="M571.4,500c0-78.7-64.1-142.9-142.8-142.9S285.7,421.3,285.7,500s64.2,142.9,142.9,142.9S571.4,578.7,571.4,500
	L571.4,500z M857.1,439.2v123.9c0,8.3-6.7,18.4-15.6,20l-103.2,15.7c-6.2,17.8-12.9,34.6-21.8,50.8c19,27.3,39.1,51.9,59.7,77
	c3.4,3.9,5.6,8.9,5.6,13.9s-1.7,8.9-5,12.8c-13.4,17.9-88.7,99.9-107.7,99.9c-5,0-10.1-2.2-14.5-5l-77-60.3
	c-16.2,8.4-33.5,15.7-50.8,21.3c-3.9,34-7.3,70.3-16.2,103.7c-2.2,9-10,15.7-20.1,15.7H366.6c-10,0-18.9-7.3-20.1-16.8l-15.6-102.6
	c-17.3-5.6-34-12.3-50.2-20.7L202,848.2c-3.9,3.4-8.9,5-13.9,5s-10.1-2.2-14-6.1c-29.6-26.8-68.6-61.4-92.1-93.8
	c-2.8-3.9-3.9-8.3-3.9-12.8c0-5,1.7-8.9,4.5-12.8c19-25.7,39.6-50.2,58.6-76.5c-9.5-17.8-17.3-36.2-22.9-55.2L16.2,580.9
	C6.7,579.2,0,570.3,0,560.8V436.9c0-8.3,6.7-18.4,15.1-20l103.8-15.7c5.5-17.8,12.8-34.6,21.7-51.3c-18.9-26.8-39-51.9-59.7-77
	c-3.3-3.9-5.6-8.4-5.6-13.4s2.3-8.9,5.1-12.8c13.3-18.5,88.7-99.9,107.7-99.9c5,0,10,2.2,14.5,5.5l77,59.8
	c16.2-8.4,33.5-15.7,50.8-21.3c3.9-34,7.2-70.3,16.1-103.7c2.3-9,10.1-15.7,20.1-15.7h123.9c10.1,0,19,7.3,20.1,16.8l15.6,102.6
	c17.3,5.6,34.1,12.3,50.3,20.7l79.2-59.7c3.3-3.4,8.4-5,13.4-5s10,2.2,13.9,5.5c29.6,27.4,68.7,62,92.1,94.9
	c2.8,3.4,3.9,7.8,3.9,12.3c0,5-1.7,8.9-4.4,12.8c-19,25.7-39.7,50.2-58.6,76.5c9.4,17.8,17.3,36.2,22.8,54.7L841,419.1
	C850.4,420.8,857.1,429.7,857.1,439.2L857.1,439.2z"/>
</svg>
