<?xml version="1.0" encoding="utf-8"?>
<!-- Generator: Adobe Illustrator 24.3.0, SVG Export Plug-In . SVG Version: 6.00 Build 0)  -->
<svg version="1.1" id="Calque_1" xmlns="http://www.w3.org/2000/svg" xmlns:xlink="http://www.w3.org/1999/xlink" x="0px" y="0px"
	 viewBox="0 0 1113.4 292" style="enable-background:new 0 0 1113.4 292;" xml:space="preserve">
<style type="text/css">
	.st0{fill:url(#SVGID_1_);}
	.st1{fill:url(#SVGID_2_);}
	.st2{fill:#FFFFFF;}
	.st3{fill:#333333;}
</style>
<g>
	
		<linearGradient id="SVGID_1_" gradientUnits="userSpaceOnUse" x1="1545.3" y1="-934" x2="1545.3" y2="-642" gradientTransform="matrix(-1 0 0 -1 2102 -642)">
		<stop  offset="0" style="stop-color:#BBBBBB"/>
		<stop  offset="1" style="stop-color:#DCDCDC"/>
	</linearGradient>
	<path class="st0" d="M25,282c-8,0-15-7-15-15V25c0-8,7-15,15-15h1063.5c8,0,15,7,15,15v242c0,8-7,15-15,15H25z M1088.4,292
		c14,0,25-11,25-25V25c0-14-11-25-25-25H25C11,0,0,11,0,25v242c0,14,11,25,25,25H1088.4z"/>
</g>
<linearGradient id="SVGID_2_" gradientUnits="userSpaceOnUse" x1="1545.25" y1="694" x2="1545.25" y2="422" gradientTransform="matrix(-1 0 0 1 2102 -412)">
	<stop  offset="0" style="stop-color:#E8E8E8"/>
	<stop  offset="1" style="stop-color:#F9F9F9"/>
</linearGradient>
<path class="st1" d="M25,282c-8,0-15-7-15-15V25c0-8,7-15,15-15h1063.5c8,0,15,7,15,15v242c0,8-7,15-15,15H25z"/>
<g>
	<path class="st2" d="M348,102.3v15h-44.9v28.1h35.4v14.5h-35.4v28.6H348v15h-63.8V102.3H348z"/>
	<path class="st2" d="M380.4,166.5l-23.6-34.8h16.7c1.3,0,2.2,0.2,2.8,0.5c0.6,0.4,1.1,0.9,1.6,1.7l15.1,24c0.2-0.8,0.5-1.6,0.9-2.4
		c0.3-0.8,0.8-1.6,1.3-2.4l12.1-18.9c0.6-0.9,1.1-1.5,1.8-2s1.4-0.6,2.2-0.6h15.9l-23.7,34l24.6,37.8h-16.7c-1.3,0-2.3-0.3-3-1
		c-0.8-0.7-1.4-1.4-1.9-2.2l-15.3-25c-0.4,1.7-1,3.1-1.8,4.2L376,200.3c-0.5,0.8-1.1,1.5-1.9,2.2c-0.7,0.7-1.7,1-2.8,1h-15.5
		L380.4,166.5z"/>
	<path class="st2" d="M439,227v-95.3h10.6c1.1,0,2.1,0.3,2.9,0.8c0.8,0.5,1.3,1.3,1.5,2.4l1.4,6.6c2.9-3.3,6.2-6,10-8
		c3.8-2.1,8.2-3.1,13.2-3.1c3.9,0,7.5,0.8,10.7,2.4c3.2,1.6,6,4,8.4,7.1c2.4,3.1,4.2,6.9,5.5,11.5c1.3,4.6,1.9,9.8,1.9,15.6
		c0,5.4-0.7,10.3-2.2,14.9c-1.4,4.6-3.5,8.5-6.2,11.9c-2.7,3.4-5.9,6-9.7,7.9c-3.8,1.9-8.1,2.8-12.8,2.8c-4.1,0-7.5-0.6-10.3-1.9
		c-2.8-1.2-5.4-3-7.6-5.1V227H439z M472.6,144.1c-3.6,0-6.7,0.8-9.2,2.3c-2.5,1.5-4.9,3.7-7.1,6.4v32.2c2,2.4,4.1,4.1,6.4,5.1
		c2.3,1,4.8,1.4,7.5,1.4c2.6,0,5-0.5,7.1-1.5c2.1-1,3.9-2.5,5.4-4.5c1.5-2,2.6-4.5,3.4-7.6c0.8-3.1,1.2-6.7,1.2-10.8
		c0-4.2-0.3-7.8-1-10.7c-0.7-2.9-1.6-5.3-2.9-7.1s-2.8-3.1-4.6-4C476.9,144.5,474.9,144.1,472.6,144.1z"/>
	<path class="st2" d="M548.8,130.6c5.4,0,10.2,0.9,14.6,2.6c4.4,1.7,8.1,4.2,11.2,7.4c3.1,3.2,5.5,7,7.1,11.6
		c1.7,4.6,2.5,9.7,2.5,15.3c0,5.7-0.8,10.8-2.5,15.4c-1.7,4.6-4.1,8.5-7.1,11.7c-3.1,3.2-6.8,5.7-11.2,7.4
		c-4.4,1.7-9.2,2.6-14.6,2.6c-5.4,0-10.2-0.9-14.6-2.6s-8.1-4.2-11.2-7.4c-3.1-3.2-5.5-7.1-7.2-11.7c-1.7-4.6-2.6-9.7-2.6-15.4
		c0-5.6,0.9-10.8,2.6-15.3c1.7-4.6,4.1-8.4,7.2-11.6c3.1-3.2,6.8-5.6,11.2-7.4C538.6,131.5,543.4,130.6,548.8,130.6z M548.8,191.3
		c6,0,10.4-2,13.3-6c2.9-4,4.3-9.9,4.3-17.6c0-7.7-1.4-13.6-4.3-17.7s-7.3-6.1-13.3-6.1c-6.1,0-10.5,2-13.4,6.1
		c-2.9,4.1-4.3,10-4.3,17.7c0,7.7,1.4,13.6,4.3,17.6C538.3,189.3,542.7,191.3,548.8,191.3z"/>
	<path class="st2" d="M597.7,203.6v-71.8h10.1c1.8,0,3,0.3,3.7,1c0.7,0.7,1.2,1.8,1.4,3.4l1,8.7c2.6-4.4,5.6-7.9,9-10.5
		c3.5-2.6,7.3-3.9,11.6-3.9c3.5,0,6.5,0.8,8.8,2.4l-2.2,13c-0.1,0.8-0.4,1.4-0.9,1.8c-0.5,0.3-1.1,0.5-1.9,0.5
		c-0.7,0-1.7-0.2-2.9-0.5c-1.2-0.3-2.8-0.5-4.8-0.5c-3.6,0-6.7,1-9.2,3c-2.6,2-4.7,4.9-6.5,8.7v44.7H597.7z"/>
	<path class="st2" d="M678.5,204.7c-6.2,0-11-1.8-14.3-5.3c-3.4-3.5-5-8.4-5-14.6v-40.1h-7.3c-0.9,0-1.7-0.3-2.4-0.9
		c-0.7-0.6-1-1.5-1-2.7v-6.9l11.5-1.9l3.6-19.6c0.2-0.9,0.6-1.7,1.3-2.2c0.7-0.5,1.5-0.8,2.6-0.8h9v22.6h18.9v12.3h-18.9v38.9
		c0,2.2,0.6,4,1.7,5.2c1.1,1.3,2.6,1.9,4.5,1.9c1.1,0,2-0.1,2.7-0.4c0.7-0.3,1.4-0.5,1.9-0.8c0.5-0.3,1-0.5,1.4-0.8
		c0.4-0.3,0.8-0.4,1.3-0.4c0.5,0,0.9,0.1,1.3,0.4c0.3,0.3,0.7,0.6,1.1,1.2l5.2,8.4c-2.5,2.1-5.4,3.7-8.7,4.8
		C685.4,204.1,682,204.7,678.5,204.7z"/>
	<path class="st2" d="M791.3,120.7c-0.5,1-1.1,1.8-1.8,2.2s-1.5,0.6-2.4,0.6s-2-0.4-3.1-1.1c-1.2-0.7-2.5-1.5-4.1-2.4
		c-1.6-0.9-3.4-1.7-5.6-2.4c-2.1-0.7-4.6-1.1-7.5-1.1c-2.6,0-4.9,0.3-6.8,0.9c-1.9,0.6-3.6,1.5-4.9,2.6s-2.3,2.5-3,4
		c-0.7,1.6-1,3.3-1,5.1c0,2.4,0.7,4.4,2,6c1.3,1.6,3.1,2.9,5.3,4.1c2.2,1.1,4.7,2.1,7.5,3c2.8,0.9,5.7,1.8,8.6,2.8
		c2.9,1,5.8,2.2,8.6,3.5c2.8,1.3,5.3,3,7.5,5c2.2,2,4,4.5,5.3,7.5s2,6.5,2,10.7c0,4.6-0.8,8.9-2.3,12.8c-1.6,4-3.9,7.5-6.9,10.4
		c-3,3-6.7,5.3-11,7s-9.3,2.6-14.9,2.6c-3.2,0-6.4-0.3-9.5-0.9c-3.1-0.6-6.1-1.5-9-2.7c-2.9-1.2-5.6-2.6-8-4.2
		c-2.5-1.6-4.7-3.5-6.7-5.5l5.5-9c0.5-0.7,1.1-1.2,1.9-1.6c0.7-0.4,1.5-0.7,2.4-0.7c1.2,0,2.4,0.5,3.8,1.4c1.4,1,3,2,4.8,3.2
		c1.8,1.2,4,2.2,6.5,3.2c2.5,1,5.5,1.4,9,1.4c5.4,0,9.5-1.3,12.5-3.8c2.9-2.5,4.4-6.2,4.4-11c0-2.7-0.7-4.8-2-6.5s-3.1-3.1-5.3-4.2
		c-2.2-1.1-4.7-2.1-7.5-2.9c-2.8-0.8-5.6-1.7-8.5-2.6c-2.9-0.9-5.7-2.1-8.5-3.4c-2.8-1.3-5.3-3-7.5-5.1c-2.2-2.1-4-4.7-5.3-7.9
		c-1.3-3.2-2-7-2-11.7c0-3.7,0.7-7.3,2.2-10.8s3.6-6.6,6.4-9.3c2.8-2.7,6.3-4.9,10.4-6.5c4.1-1.6,8.8-2.4,14.1-2.4
		c6,0,11.5,0.9,16.5,2.8c5,1.9,9.3,4.5,12.9,7.8L791.3,120.7z"/>
	<path class="st2" d="M876,102.3v15h-44.9v28.1h35.3v14.5h-35.3v28.6H876v15h-63.8V102.3H876z"/>
	<path class="st2" d="M911.8,167.9v35.6H893V102.3h33c6.8,0,12.6,0.8,17.6,2.4c4.9,1.6,9,3.8,12.2,6.6c3.2,2.8,5.6,6.3,7.1,10.2
		c1.5,4,2.3,8.3,2.3,13c0,4.9-0.8,9.4-2.5,13.5c-1.6,4.1-4.1,7.6-7.3,10.5c-3.3,2.9-7.3,5.2-12.2,6.9c-4.9,1.6-10.6,2.5-17.2,2.5
		H911.8z M911.8,153.2H926c3.5,0,6.5-0.4,9-1.3c2.6-0.9,4.7-2.1,6.4-3.7c1.7-1.6,2.9-3.6,3.8-5.9s1.3-4.9,1.3-7.7
		c0-2.7-0.4-5.2-1.3-7.3c-0.8-2.2-2.1-4.1-3.8-5.6c-1.7-1.5-3.8-2.7-6.4-3.5c-2.6-0.8-5.6-1.2-9-1.2h-14.1V153.2z"/>
	<path class="st2" d="M1058,203.6h-14.6c-1.6,0-3-0.4-4-1.2c-1.1-0.8-1.8-1.8-2.3-3l-7.6-20.6h-41.9l-7.6,20.6
		c-0.4,1.1-1.1,2.1-2.2,2.9c-1.1,0.9-2.4,1.3-4,1.3h-14.6L999,102.3h19.2L1058,203.6z M992.5,165.3h32.3l-12.3-33.7
		c-0.6-1.5-1.2-3.3-1.9-5.3c-0.7-2-1.3-4.2-2-6.6c-0.7,2.4-1.3,4.6-1.9,6.6c-0.6,2.1-1.2,3.9-1.9,5.4L992.5,165.3z"/>
</g>
<g>
	<path class="st3" d="M338,92.3v15h-44.9v28.1h35.4v14.5h-35.4v28.6H338v15h-63.8V92.3H338z"/>
	<path class="st3" d="M370.4,156.5l-23.6-34.8h16.7c1.3,0,2.2,0.2,2.8,0.5c0.6,0.4,1.1,0.9,1.6,1.7l15.1,24c0.2-0.8,0.5-1.6,0.9-2.4
		c0.3-0.8,0.8-1.6,1.3-2.4l12.1-18.9c0.6-0.9,1.1-1.5,1.8-2s1.4-0.6,2.2-0.6h15.9l-23.7,34l24.6,37.8h-16.7c-1.3,0-2.3-0.3-3-1
		c-0.8-0.7-1.4-1.4-1.9-2.2l-15.3-25c-0.4,1.7-1,3.1-1.8,4.2L366,190.3c-0.5,0.8-1.1,1.5-1.9,2.2c-0.7,0.7-1.7,1-2.8,1h-15.5
		L370.4,156.5z"/>
	<path class="st3" d="M429,217v-95.3h10.6c1.1,0,2.1,0.3,2.9,0.8c0.8,0.5,1.3,1.3,1.5,2.4l1.4,6.6c2.9-3.3,6.2-6,10-8
		c3.8-2.1,8.2-3.1,13.2-3.1c3.9,0,7.5,0.8,10.7,2.4c3.2,1.6,6,4,8.4,7.1c2.4,3.1,4.2,6.9,5.5,11.5c1.3,4.6,1.9,9.8,1.9,15.6
		c0,5.4-0.7,10.3-2.2,14.9c-1.4,4.6-3.5,8.5-6.2,11.9c-2.7,3.4-5.9,6-9.7,7.9c-3.8,1.9-8.1,2.8-12.8,2.8c-4.1,0-7.5-0.6-10.3-1.9
		c-2.8-1.2-5.4-3-7.6-5.1V217H429z M462.6,134.1c-3.6,0-6.7,0.8-9.2,2.3c-2.5,1.5-4.9,3.7-7.1,6.4v32.2c2,2.4,4.1,4.1,6.4,5.1
		c2.3,1,4.8,1.4,7.5,1.4c2.6,0,5-0.5,7.1-1.5c2.1-1,3.9-2.5,5.4-4.5c1.5-2,2.6-4.5,3.4-7.6c0.8-3.1,1.2-6.7,1.2-10.8
		c0-4.2-0.3-7.8-1-10.7c-0.7-2.9-1.6-5.3-2.9-7.1s-2.8-3.1-4.6-4C466.9,134.5,464.9,134.1,462.6,134.1z"/>
	<path class="st3" d="M538.8,120.6c5.4,0,10.2,0.9,14.6,2.6c4.4,1.7,8.1,4.2,11.2,7.4c3.1,3.2,5.5,7,7.1,11.6
		c1.7,4.6,2.5,9.7,2.5,15.3c0,5.7-0.8,10.8-2.5,15.4c-1.7,4.6-4.1,8.5-7.1,11.7c-3.1,3.2-6.8,5.7-11.2,7.4
		c-4.4,1.7-9.2,2.6-14.6,2.6c-5.4,0-10.2-0.9-14.6-2.6s-8.1-4.2-11.2-7.4c-3.1-3.2-5.5-7.1-7.2-11.7c-1.7-4.6-2.6-9.7-2.6-15.4
		c0-5.6,0.9-10.8,2.6-15.3c1.7-4.6,4.1-8.4,7.2-11.6c3.1-3.2,6.8-5.6,11.2-7.4C528.6,121.5,533.4,120.6,538.8,120.6z M538.8,181.3
		c6,0,10.4-2,13.3-6c2.9-4,4.3-9.9,4.3-17.6c0-7.7-1.4-13.6-4.3-17.7s-7.3-6.1-13.3-6.1c-6.1,0-10.5,2-13.4,6.1
		c-2.9,4.1-4.3,10-4.3,17.7c0,7.7,1.4,13.6,4.3,17.6C528.3,179.3,532.7,181.3,538.8,181.3z"/>
	<path class="st3" d="M587.7,193.6v-71.8h10.1c1.8,0,3,0.3,3.7,1c0.7,0.7,1.2,1.8,1.4,3.4l1,8.7c2.6-4.4,5.6-7.9,9-10.5
		c3.5-2.6,7.3-3.9,11.6-3.9c3.5,0,6.5,0.8,8.8,2.4l-2.2,13c-0.1,0.8-0.4,1.4-0.9,1.8c-0.5,0.3-1.1,0.5-1.9,0.5
		c-0.7,0-1.7-0.2-2.9-0.5c-1.2-0.3-2.8-0.5-4.8-0.5c-3.6,0-6.7,1-9.2,3c-2.6,2-4.7,4.9-6.5,8.7v44.7H587.7z"/>
	<path class="st3" d="M668.5,194.7c-6.2,0-11-1.8-14.3-5.3c-3.4-3.5-5-8.4-5-14.6v-40.1h-7.3c-0.9,0-1.7-0.3-2.4-0.9
		c-0.7-0.6-1-1.5-1-2.7v-6.9l11.5-1.9l3.6-19.6c0.2-0.9,0.6-1.7,1.3-2.2c0.7-0.5,1.5-0.8,2.6-0.8h9v22.6h18.9v12.3h-18.9v38.9
		c0,2.2,0.6,4,1.7,5.2c1.1,1.3,2.6,1.9,4.5,1.9c1.1,0,2-0.1,2.7-0.4c0.7-0.3,1.4-0.5,1.9-0.8c0.5-0.3,1-0.5,1.4-0.8
		c0.4-0.3,0.8-0.4,1.3-0.4c0.5,0,0.9,0.1,1.3,0.4c0.3,0.3,0.7,0.6,1.1,1.2l5.2,8.4c-2.5,2.1-5.4,3.7-8.7,4.8
		C675.4,194.1,672,194.7,668.5,194.7z"/>
	<path class="st3" d="M781.3,110.7c-0.5,1-1.1,1.8-1.8,2.2s-1.5,0.6-2.4,0.6s-2-0.4-3.1-1.1c-1.2-0.7-2.5-1.5-4.1-2.4
		c-1.6-0.9-3.4-1.7-5.6-2.4c-2.1-0.7-4.6-1.1-7.5-1.1c-2.6,0-4.9,0.3-6.8,0.9c-1.9,0.6-3.6,1.5-4.9,2.6s-2.3,2.5-3,4
		c-0.7,1.6-1,3.3-1,5.1c0,2.4,0.7,4.4,2,6c1.3,1.6,3.1,2.9,5.3,4.1c2.2,1.1,4.7,2.1,7.5,3c2.8,0.9,5.7,1.8,8.6,2.8
		c2.9,1,5.8,2.2,8.6,3.5c2.8,1.3,5.3,3,7.5,5c2.2,2,4,4.5,5.3,7.5s2,6.5,2,10.7c0,4.6-0.8,8.9-2.3,12.8c-1.6,4-3.9,7.5-6.9,10.4
		c-3,3-6.7,5.3-11,7s-9.3,2.6-14.9,2.6c-3.2,0-6.4-0.3-9.5-0.9c-3.1-0.6-6.1-1.5-9-2.7c-2.9-1.2-5.6-2.6-8-4.2
		c-2.5-1.6-4.7-3.5-6.7-5.5l5.5-9c0.5-0.7,1.1-1.2,1.9-1.6c0.7-0.4,1.5-0.7,2.4-0.7c1.2,0,2.4,0.5,3.8,1.4c1.4,1,3,2,4.8,3.2
		c1.8,1.2,4,2.2,6.5,3.2c2.5,1,5.5,1.4,9,1.4c5.4,0,9.5-1.3,12.5-3.8c2.9-2.5,4.4-6.2,4.4-11c0-2.7-0.7-4.8-2-6.5s-3.1-3.1-5.3-4.2
		c-2.2-1.1-4.7-2.1-7.5-2.9c-2.8-0.8-5.6-1.7-8.5-2.6c-2.9-0.9-5.7-2.1-8.5-3.4c-2.8-1.3-5.3-3-7.5-5.1c-2.2-2.1-4-4.7-5.3-7.9
		c-1.3-3.2-2-7-2-11.7c0-3.7,0.7-7.3,2.2-10.8s3.6-6.6,6.4-9.3c2.8-2.7,6.3-4.9,10.4-6.5c4.1-1.6,8.8-2.4,14.1-2.4
		c6,0,11.5,0.9,16.5,2.8c5,1.9,9.3,4.5,12.9,7.8L781.3,110.7z"/>
	<path class="st3" d="M866,92.3v15h-44.9v28.1h35.3v14.5h-35.3v28.6H866v15h-63.8V92.3H866z"/>
	<path class="st3" d="M901.8,157.9v35.6H883V92.3h33c6.8,0,12.6,0.8,17.6,2.4c4.9,1.6,9,3.8,12.2,6.6c3.2,2.8,5.6,6.3,7.1,10.2
		c1.5,4,2.3,8.3,2.3,13c0,4.9-0.8,9.4-2.5,13.5c-1.6,4.1-4.1,7.6-7.3,10.5c-3.3,2.9-7.3,5.2-12.2,6.9c-4.9,1.6-10.6,2.5-17.2,2.5
		H901.8z M901.8,143.2H916c3.5,0,6.5-0.4,9-1.3c2.6-0.9,4.7-2.1,6.4-3.7c1.7-1.6,2.9-3.6,3.8-5.9s1.3-4.9,1.3-7.7
		c0-2.7-0.4-5.2-1.3-7.3c-0.8-2.2-2.1-4.1-3.8-5.6c-1.7-1.5-3.8-2.7-6.4-3.5c-2.6-0.8-5.6-1.2-9-1.2h-14.1V143.2z"/>
	<path class="st3" d="M1048,193.6h-14.6c-1.6,0-3-0.4-4-1.2c-1.1-0.8-1.8-1.8-2.3-3l-7.6-20.6h-41.9l-7.6,20.6
		c-0.4,1.1-1.1,2.1-2.2,2.9c-1.1,0.9-2.4,1.3-4,1.3h-14.6L989,92.3h19.2L1048,193.6z M982.5,155.3h32.3l-12.3-33.7
		c-0.6-1.5-1.2-3.3-1.9-5.3c-0.7-2-1.3-4.2-2-6.6c-0.7,2.4-1.3,4.6-1.9,6.6c-0.6,2.1-1.2,3.9-1.9,5.4L982.5,155.3z"/>
</g>
<path class="st2" d="M175.5,156c0-12.7-10.3-23-23-23c-12.7,0-23,10.3-23,23s10.3,23,23,23C165.2,179,175.5,168.7,175.5,156
	L175.5,156z M221.5,146.2v19.9c0,1.3-1.1,3-2.5,3.2l-16.6,2.5c-1,2.9-2.1,5.6-3.5,8.2c3.1,4.4,6.3,8.4,9.6,12.4
	c0.5,0.6,0.9,1.4,0.9,2.2s-0.3,1.4-0.8,2.1c-2.2,2.9-14.3,16.1-17.3,16.1c-0.8,0-1.6-0.4-2.3-0.8l-12.4-9.7
	c-2.6,1.4-5.4,2.5-8.2,3.4c-0.6,5.5-1.2,11.3-2.6,16.7c-0.4,1.4-1.6,2.5-3.2,2.5h-19.9c-1.6,0-3-1.2-3.2-2.7l-2.5-16.5
	c-2.8-0.9-5.5-2-8.1-3.3l-12.7,9.6c-0.6,0.5-1.4,0.8-2.2,0.8s-1.6-0.4-2.3-1c-4.8-4.3-11-9.9-14.8-15.1c-0.5-0.6-0.6-1.3-0.6-2.1
	c0-0.8,0.3-1.4,0.7-2.1c3.1-4.1,6.4-8.1,9.4-12.3c-1.5-2.9-2.8-5.8-3.7-8.9L86.2,169c-1.5-0.3-2.6-1.7-2.6-3.2v-19.9
	c0-1.3,1.1-3,2.4-3.2l16.7-2.5c0.9-2.9,2.1-5.6,3.5-8.3c-3-4.3-6.3-8.4-9.6-12.4c-0.5-0.6-0.9-1.4-0.9-2.2s0.4-1.4,0.8-2.1
	c2.1-3,14.3-16.1,17.3-16.1c0.8,0,1.6,0.4,2.3,0.9l12.4,9.6c2.6-1.4,5.4-2.5,8.2-3.4c0.6-5.5,1.2-11.3,2.6-16.7
	c0.4-1.4,1.6-2.5,3.2-2.5h19.9c1.6,0,3.1,1.2,3.2,2.7l2.5,16.5c2.8,0.9,5.5,2,8.1,3.3l12.8-9.6c0.5-0.5,1.4-0.8,2.2-0.8
	s1.6,0.4,2.2,0.9c4.8,4.4,11.1,10,14.8,15.3c0.5,0.5,0.6,1.3,0.6,2c0,0.8-0.3,1.4-0.7,2.1c-3.1,4.1-6.4,8.1-9.4,12.3
	c1.5,2.9,2.8,5.8,3.7,8.8L219,143C220.5,143.2,221.5,144.7,221.5,146.2L221.5,146.2z"/>
<path class="st3" d="M165.5,146c0-12.7-10.3-23-23-23c-12.7,0-23,10.3-23,23s10.3,23,23,23C155.2,169,165.5,158.7,165.5,146
	L165.5,146z M211.5,136.2v19.9c0,1.3-1.1,3-2.5,3.2l-16.6,2.5c-1,2.9-2.1,5.6-3.5,8.2c3.1,4.4,6.3,8.4,9.6,12.4
	c0.5,0.6,0.9,1.4,0.9,2.2s-0.3,1.4-0.8,2.1c-2.2,2.9-14.3,16.1-17.3,16.1c-0.8,0-1.6-0.4-2.3-0.8l-12.4-9.7
	c-2.6,1.4-5.4,2.5-8.2,3.4c-0.6,5.5-1.2,11.3-2.6,16.7c-0.4,1.4-1.6,2.5-3.2,2.5h-19.9c-1.6,0-3-1.2-3.2-2.7l-2.5-16.5
	c-2.8-0.9-5.5-2-8.1-3.3l-12.7,9.6c-0.6,0.5-1.4,0.8-2.2,0.8s-1.6-0.4-2.3-1c-4.8-4.3-11-9.9-14.8-15.1c-0.5-0.6-0.6-1.3-0.6-2.1
	c0-0.8,0.3-1.4,0.7-2.1c3.1-4.1,6.4-8.1,9.4-12.3c-1.5-2.9-2.8-5.8-3.7-8.9L76.2,159c-1.5-0.3-2.6-1.7-2.6-3.2v-19.9
	c0-1.3,1.1-3,2.4-3.2l16.7-2.5c0.9-2.9,2.1-5.6,3.5-8.3c-3-4.3-6.3-8.4-9.6-12.4c-0.5-0.6-0.9-1.4-0.9-2.2s0.4-1.4,0.8-2.1
	c2.1-3,14.3-16.1,17.3-16.1c0.8,0,1.6,0.4,2.3,0.9l12.4,9.6c2.6-1.4,5.4-2.5,8.2-3.4c0.6-5.5,1.2-11.3,2.6-16.7
	c0.4-1.4,1.6-2.5,3.2-2.5h19.9c1.6,0,3.1,1.2,3.2,2.7l2.5,16.5c2.8,0.9,5.5,2,8.1,3.3l12.8-9.6c0.5-0.5,1.4-0.8,2.2-0.8
	s1.6,0.4,2.2,0.9c4.8,4.4,11.1,10,14.8,15.3c0.5,0.5,0.6,1.3,0.6,2c0,0.8-0.3,1.4-0.7,2.1c-3.1,4.1-6.4,8.1-9.4,12.3
	c1.5,2.9,2.8,5.8,3.7,8.8L209,133C210.5,133.2,211.5,134.7,211.5,136.2L211.5,136.2z"/>
</svg>
