<?xml version="1.0" encoding="utf-8"?>
<!-- Generator: Adobe Illustrator 24.3.0, SVG Export Plug-In . SVG Version: 6.00 Build 0)  -->
<svg version="1.1" id="Calque_1" xmlns="http://www.w3.org/2000/svg" xmlns:xlink="http://www.w3.org/1999/xlink" x="0px" y="0px"
	 viewBox="0 0 1493.4 292" style="enable-background:new 0 0 1493.4 292;" xml:space="preserve">
<style type="text/css">
	.st0{fill:url(#SVGID_1_);}
	.st1{fill:url(#SVGID_2_);}
	.st2{fill:#FFFFFF;}
	.st3{fill:#333333;}
</style>
<g>
	
		<linearGradient id="SVGID_1_" gradientUnits="userSpaceOnUse" x1="-946.8" y1="2138" x2="-946.8" y2="1846" gradientTransform="matrix(-1 0 0 1 -200.1 -1846)">
		<stop  offset="0" style="stop-color:#BBBBBB"/>
		<stop  offset="1" style="stop-color:#DCDCDC"/>
	</linearGradient>
	<path class="st0" d="M25,282c-8,0-15-7-15-15V25c0-8,7-15,15-15h1433.5c8,0,25,7,25,15v242c0,8-17,15-25,15H25z M1458.4,292
		c14,0,35-11,35-25V25c0-14-21-25-35-25H25C11,0,0,11,0,25v242c0,14,11,25,25,25H1458.4z"/>
</g>
<linearGradient id="SVGID_2_" gradientUnits="userSpaceOnUse" x1="-946.85" y1="-1186" x2="-946.85" y2="-914" gradientTransform="matrix(-1 0 0 -1 -200.1 -904)">
	<stop  offset="0" style="stop-color:#E8E8E8"/>
	<stop  offset="1" style="stop-color:#F9F9F9"/>
</linearGradient>
<path class="st1" d="M25,282c-8,0-15-7-15-15V25c0-8,7-15,15-15h1433.5c8,0,25,7,25,15v242c0,8-17,15-25,15H25z"/>
<path class="st2" d="M177.5,191.1c0-2.6-2.2-4.8-4.8-4.8s-4.8,2.2-4.8,4.8s2.2,4.8,4.8,4.8C175.4,195.8,177.5,193.7,177.5,191.1z
	 M196.7,191.1c0-2.6-2.2-4.8-4.8-4.8s-4.8,2.2-4.8,4.8s2.2,4.8,4.8,4.8S196.7,193.7,196.7,191.1z M206.2,174.3v23.9
	c0,4-3.2,7.2-7.2,7.2H89c-4,0-7.2-3.2-7.2-7.2v-23.9c0-4,3.2-7.2,7.2-7.2h34.8l10.1,10.2c2.8,2.7,6.3,4.2,10.2,4.2s7.4-1.5,10.2-4.2
	l10.2-10.2h34.7C203,167.1,206.2,170.3,206.2,174.3z M181.9,131.8c0.8,1.8,0.4,3.9-1,5.2l-33.5,33.5c-0.9,1-2.2,1.4-3.4,1.4
	s-2.5-0.4-3.4-1.4L107.2,137c-1.4-1.3-1.8-3.4-1-5.2c0.7-1.7,2.5-2.9,4.4-2.9h19.1V95.4c0-2.6,2.2-4.8,4.8-4.8h19.1
	c2.6,0,4.8,2.2,4.8,4.8v33.5h19.1C179.5,128.9,181.2,130.1,181.9,131.8z"/>
<path class="st3" d="M167.5,181.1c0-2.6-2.2-4.8-4.8-4.8s-4.8,2.2-4.8,4.8s2.2,4.8,4.8,4.8C165.4,185.8,167.5,183.7,167.5,181.1z
	 M186.7,181.1c0-2.6-2.2-4.8-4.8-4.8s-4.8,2.2-4.8,4.8s2.2,4.8,4.8,4.8S186.7,183.7,186.7,181.1z M196.2,164.3v23.9
	c0,4-3.2,7.2-7.2,7.2H79c-4,0-7.2-3.2-7.2-7.2v-23.9c0-4,3.2-7.2,7.2-7.2h34.8l10.1,10.2c2.8,2.7,6.3,4.2,10.2,4.2s7.4-1.5,10.2-4.2
	l10.2-10.2h34.7C193,157.1,196.2,160.3,196.2,164.3z M171.9,121.8c0.8,1.8,0.4,3.9-1,5.2l-33.5,33.5c-0.9,1-2.2,1.4-3.4,1.4
	s-2.5-0.4-3.4-1.4L97.2,127c-1.4-1.3-1.8-3.4-1-5.2c0.7-1.7,2.5-2.9,4.4-2.9h19.1V85.4c0-2.6,2.2-4.8,4.8-4.8h19.1
	c2.6,0,4.8,2.2,4.8,4.8v33.5h19.1C169.5,118.9,171.2,120.1,171.9,121.8z"/>
<g>
	<path class="st2" d="M328.7,167.3c0,5.7-0.7,10.8-2.1,15.4c-1.4,4.6-3.5,8.5-6.3,11.7s-6.2,5.7-10.4,7.4c-4.2,1.7-9,2.6-14.5,2.6
		c-2.5,0-5-0.2-7.4-0.5s-5-0.8-7.6-1.4l1-11.2c0.1-1,0.5-1.9,1.2-2.5s1.7-0.9,3-0.9c0.8,0,1.8,0.2,3.1,0.5c1.3,0.3,2.9,0.5,4.9,0.5
		c2.7,0,5-0.4,7.1-1.2s3.8-2,5.1-3.7c1.4-1.7,2.4-3.9,3.1-6.5c0.7-2.7,1-5.9,1-9.8V102h18.8L328.7,167.3L328.7,167.3z"/>
	<path class="st2" d="M363.9,131.4V177c0,4.4,1,7.8,3,10.2s5.1,3.6,9.1,3.6c3,0,5.8-0.7,8.4-2s5.1-3.2,7.4-5.5v-51.9h17.3v71.8
		h-10.6c-2.2,0-3.7-1-4.4-3.2l-1.2-5.7c-1.5,1.5-3,2.9-4.6,4.1c-1.6,1.2-3.3,2.3-5.1,3.2c-1.8,0.9-3.7,1.5-5.8,2
		c-2.1,0.5-4.3,0.7-6.7,0.7c-3.9,0-7.4-0.7-10.4-2s-5.5-3.2-7.6-5.6c-2.1-2.4-3.6-5.3-4.7-8.6s-1.6-7-1.6-11v-45.6h17.5V131.4z"/>
	<path class="st2" d="M470.3,145.4c-0.5,0.7-1,1.3-1.5,1.6s-1.2,0.5-2,0.5s-1.7-0.2-2.7-0.7s-2.1-1-3.3-1.6
		c-1.3-0.6-2.7-1.1-4.3-1.6c-1.6-0.5-3.5-0.7-5.7-0.7c-3.4,0-6.1,0.7-8.1,2.2c-2,1.4-2.9,3.3-2.9,5.7c0,1.5,0.5,2.8,1.5,3.9
		c1,1,2.3,2,4,2.8s3.5,1.5,5.6,2.1s4.2,1.3,6.4,2.1c2.2,0.7,4.3,1.6,6.4,2.6s4,2.2,5.6,3.6c1.7,1.5,3,3.2,4,5.3s1.5,4.5,1.5,7.4
		c0,3.5-0.6,6.6-1.9,9.6c-1.3,2.9-3.1,5.4-5.5,7.6c-2.4,2.1-5.4,3.8-9,5s-7.7,1.8-12.3,1.8c-2.5,0-4.9-0.2-7.2-0.7
		c-2.4-0.4-4.6-1.1-6.8-1.9c-2.2-0.8-4.2-1.7-6-2.8s-3.5-2.2-4.9-3.5l4-6.6c0.5-0.8,1.1-1.4,1.8-1.8s1.6-0.6,2.7-0.6s2.1,0.3,3,0.9
		c1,0.6,2.1,1.3,3.3,2c1.3,0.7,2.7,1.4,4.4,2c1.7,0.6,3.9,0.9,6.5,0.9c2.1,0,3.8-0.2,5.3-0.7s2.7-1.1,3.6-1.9c1-0.8,1.7-1.7,2.1-2.8
		c0.4-1,0.7-2.1,0.7-3.3c0-1.7-0.5-3.1-1.5-4.1c-1-1.1-2.3-2-4-2.8s-3.5-1.5-5.7-2.1c-2.1-0.6-4.3-1.3-6.5-2.1
		c-2.2-0.7-4.4-1.6-6.5-2.6s-4-2.3-5.7-3.8s-3-3.4-4-5.7c-1-2.2-1.5-4.9-1.5-8.1c0-2.9,0.6-5.7,1.8-8.4c1.2-2.7,2.9-5,5.1-7
		c2.3-2,5.1-3.6,8.5-4.8s7.3-1.8,11.7-1.8c4.9,0,9.5,0.8,13.5,2.5c4.1,1.6,7.4,3.8,10.1,6.4L470.3,145.4z"/>
	<path class="st2" d="M512.5,204.4c-6.2,0-11-1.8-14.4-5.3s-5-8.4-5-14.6v-40.1h-7.3c-0.9,0-1.7-0.3-2.4-0.9c-0.7-0.6-1-1.5-1-2.7
		v-6.9l11.5-1.9l3.6-19.6c0.2-0.9,0.6-1.7,1.3-2.2c0.7-0.5,1.5-0.8,2.6-0.8h9V132h18.9v12.3h-18.9v38.9c0,2.2,0.6,4,1.7,5.2
		c1.1,1.3,2.6,1.9,4.5,1.9c1.1,0,2-0.1,2.7-0.4c0.7-0.3,1.4-0.5,1.9-0.8s1-0.5,1.4-0.8s0.8-0.4,1.3-0.4s0.9,0.1,1.3,0.4
		c0.3,0.3,0.7,0.6,1,1.2l5.2,8.4c-2.5,2.1-5.4,3.7-8.7,4.8C519.4,203.8,516,204.4,512.5,204.4z"/>
	<path class="st2" d="M564.1,110.5c0,1.5-0.3,2.9-0.9,4.2c-0.6,1.3-1.4,2.5-2.4,3.4c-1,1-2.2,1.8-3.5,2.3c-1.4,0.6-2.8,0.9-4.3,0.9
		s-2.9-0.3-4.2-0.9s-2.5-1.4-3.5-2.3c-1-1-1.8-2.1-2.3-3.4c-0.6-1.3-0.9-2.7-0.9-4.2s0.3-3,0.9-4.3c0.6-1.4,1.4-2.5,2.3-3.5
		c1-1,2.1-1.8,3.5-2.3c1.3-0.6,2.7-0.9,4.2-0.9s3,0.3,4.3,0.9c1.4,0.6,2.5,1.4,3.5,2.3c1,1,1.8,2.1,2.4,3.5
		C563.8,107.5,564.1,109,564.1,110.5z M561.5,131.4v71.8h-17.3v-71.8H561.5z"/>
	<path class="st2" d="M584.1,203.2v-58.8l-6.2-1c-1.4-0.2-2.4-0.7-3.3-1.4c-0.8-0.7-1.2-1.7-1.2-2.9V132h10.7v-2.3
		c0-4.4,0.7-8.5,2.2-12.2c1.4-3.8,3.6-7,6.6-9.8c2.9-2.8,6.7-4.9,11.1-6.5c4.5-1.6,9.8-2.3,15.9-2.3c2,0,4,0.1,6,0.3
		c2.1,0.2,3.8,0.5,5.3,1l-0.6,9c-0.1,1.1-0.7,1.7-1.8,1.9c-1.1,0.2-2.4,0.3-4,0.3c-4.5,0-8.3,0.4-11.4,1.2c-3.1,0.8-5.5,2-7.4,3.5
		c-1.9,1.6-3.2,3.5-4.1,5.9c-0.8,2.4-1.2,5.1-1.2,8.2v1.8h44.5v71.2H628v-58.9h-26.7v58.9L584.1,203.2L584.1,203.2z"/>
	<path class="st2" d="M715.6,146.6c-0.5,0.7-1,1.2-1.5,1.5c-0.5,0.4-1.2,0.6-2.1,0.6c-0.9,0-1.8-0.3-2.6-0.8s-1.8-1.1-3-1.8
		s-2.6-1.3-4.2-1.8c-1.6-0.5-3.6-0.8-6-0.8c-3,0-5.7,0.5-8,1.6s-4.2,2.7-5.7,4.7c-1.5,2.1-2.6,4.5-3.4,7.5c-0.7,2.9-1.1,6.2-1.1,9.9
		c0,3.8,0.4,7.2,1.2,10.2s2,5.5,3.5,7.5s3.4,3.6,5.6,4.6c2.2,1,4.7,1.6,7.4,1.6c2.8,0,5-0.3,6.7-1s3.1-1.4,4.3-2.2s2.2-1.6,3-2.2
		c0.9-0.7,1.8-1,2.9-1c1.4,0,2.5,0.5,3.2,1.6l5,6.3c-1.9,2.2-4,4.1-6.2,5.6s-4.6,2.7-7,3.6c-2.4,0.9-4.9,1.6-7.5,1.9
		c-2.6,0.4-5.1,0.6-7.6,0.6c-4.4,0-8.6-0.8-12.5-2.5s-7.3-4.1-10.3-7.2c-2.9-3.2-5.2-7.1-6.9-11.7c-1.7-4.6-2.6-9.8-2.6-15.7
		c0-5.3,0.8-10.2,2.3-14.7s3.7-8.4,6.7-11.7c2.9-3.3,6.6-5.9,10.9-7.7s9.3-2.8,15-2.8c5.4,0,10.1,0.9,14.1,2.6
		c4,1.7,7.7,4.2,10.9,7.4L715.6,146.6z"/>
	<path class="st2" d="M788.2,203.2h-7.8c-1.6,0-2.9-0.2-3.8-0.7c-0.9-0.5-1.6-1.5-2.1-3l-1.5-5.1c-1.8,1.6-3.6,3.1-5.4,4.3
		s-3.6,2.3-5.4,3.1c-1.9,0.8-3.9,1.5-6,1.9s-4.4,0.6-7,0.6c-3,0-5.8-0.4-8.4-1.2c-2.6-0.8-4.8-2-6.6-3.7c-1.8-1.6-3.3-3.7-4.3-6.1
		c-1-2.4-1.5-5.3-1.5-8.5c0-2.7,0.7-5.4,2.1-8c1.4-2.6,3.8-5,7.1-7.2c3.3-2.1,7.7-3.9,13.2-5.3c5.5-1.4,12.3-2.1,20.5-2.1V158
		c0-4.8-1-8.4-3-10.8c-2-2.3-5-3.5-8.9-3.5c-2.8,0-5.1,0.3-7,1s-3.5,1.4-4.9,2.2s-2.6,1.6-3.8,2.2c-1.2,0.7-2.5,1-3.9,1
		c-1.2,0-2.2-0.3-3-0.9c-0.8-0.6-1.5-1.4-2-2.2l-3.1-5.5c8.3-7.6,18.2-11.3,29.9-11.3c4.2,0,7.9,0.7,11.2,2.1
		c3.3,1.4,6.1,3.3,8.4,5.7s4,5.4,5.2,8.8c1.2,3.4,1.8,7.1,1.8,11.2V203.2z M754.6,192.5c1.8,0,3.4-0.2,4.9-0.5s2.9-0.8,4.2-1.4
		c1.3-0.6,2.6-1.4,3.9-2.4c1.2-0.9,2.5-2.1,3.7-3.3v-12c-5,0-9.3,0.3-12.6,1c-3.4,0.6-6.1,1.4-8.2,2.4c-2.1,1-3.5,2.1-4.4,3.5
		c-0.9,1.3-1.3,2.7-1.3,4.3c0,3.1,0.9,5.2,2.7,6.6C749.4,191.8,751.7,192.5,754.6,192.5z"/>
	<path class="st2" d="M828.8,204.4c-6.2,0-11-1.8-14.3-5.3c-3.4-3.5-5-8.4-5-14.6v-40.1h-7.3c-0.9,0-1.7-0.3-2.4-0.9
		c-0.7-0.6-1-1.5-1-2.7v-6.9l11.5-1.9l3.6-19.6c0.2-0.9,0.6-1.7,1.3-2.2s1.5-0.8,2.6-0.8h9V132h18.9v12.3h-18.9v38.9
		c0,2.2,0.6,4,1.7,5.2s2.6,1.9,4.5,1.9c1.1,0,2-0.1,2.7-0.4c0.7-0.3,1.4-0.5,1.9-0.8s1-0.5,1.4-0.8s0.8-0.4,1.3-0.4s0.9,0.1,1.3,0.4
		c0.3,0.3,0.7,0.6,1.1,1.2l5.2,8.4c-2.5,2.1-5.4,3.7-8.7,4.8C835.7,203.8,832.3,204.4,828.8,204.4z"/>
	<path class="st2" d="M880.4,110.5c0,1.5-0.3,2.9-0.9,4.2c-0.6,1.3-1.4,2.5-2.4,3.4c-1,1-2.2,1.8-3.5,2.3c-1.4,0.6-2.8,0.9-4.3,0.9
		s-2.9-0.3-4.2-0.9s-2.5-1.4-3.5-2.3c-1-1-1.8-2.1-2.3-3.4c-0.6-1.3-0.9-2.7-0.9-4.2s0.3-3,0.9-4.3c0.6-1.4,1.4-2.5,2.3-3.5
		c1-1,2.1-1.8,3.5-2.3c1.3-0.6,2.7-0.9,4.2-0.9s3,0.3,4.3,0.9c1.4,0.6,2.5,1.4,3.5,2.3c1,1,1.8,2.1,2.4,3.5
		C880.1,107.5,880.4,109,880.4,110.5z M877.8,131.4v71.8h-17.3v-71.8H877.8z"/>
	<path class="st2" d="M900.4,203.2v-58.8l-6.2-1c-1.4-0.2-2.4-0.7-3.3-1.4c-0.8-0.7-1.2-1.7-1.2-2.9V132h10.7v-5.3
		c0-4.1,0.6-7.8,1.9-11.1c1.2-3.3,3-6,5.3-8.3s5.1-4,8.4-5.2c3.3-1.2,7-1.8,11.2-1.8c3.3,0,6.4,0.4,9.2,1.3l-0.4,8.7
		c-0.1,1.4-0.7,2.2-1.9,2.5s-2.5,0.5-4.1,0.5c-2.1,0-3.9,0.2-5.5,0.7c-1.6,0.4-3,1.2-4.1,2.3c-1.1,1.1-2,2.5-2.6,4.3s-0.9,4-0.9,6.7
		v4.8h18.7v12.3h-18.1v58.9L900.4,203.2L900.4,203.2z"/>
	<path class="st2" d="M989,145.4c-0.5,0.7-1,1.3-1.5,1.6s-1.2,0.5-2,0.5s-1.7-0.2-2.7-0.7s-2.1-1-3.3-1.6c-1.3-0.6-2.7-1.1-4.3-1.6
		s-3.5-0.7-5.7-0.7c-3.4,0-6.1,0.7-8,2.2c-2,1.4-2.9,3.3-2.9,5.7c0,1.5,0.5,2.8,1.5,3.9c1,1,2.3,2,4,2.8s3.5,1.5,5.6,2.1
		s4.2,1.3,6.4,2.1c2.2,0.7,4.3,1.6,6.4,2.6c2.1,1,4,2.2,5.6,3.6c1.7,1.5,3,3.2,4,5.3s1.5,4.5,1.5,7.4c0,3.5-0.6,6.6-1.9,9.6
		c-1.3,2.9-3.1,5.4-5.5,7.6c-2.4,2.1-5.4,3.8-9,5s-7.7,1.8-12.3,1.8c-2.5,0-4.9-0.2-7.2-0.7c-2.4-0.4-4.6-1.1-6.8-1.9
		c-2.2-0.8-4.2-1.7-6-2.8s-3.5-2.2-4.9-3.5l4-6.6c0.5-0.8,1.1-1.4,1.8-1.8s1.6-0.6,2.7-0.6c1.1,0,2.1,0.3,3,0.9c1,0.6,2.1,1.3,3.3,2
		c1.3,0.7,2.7,1.4,4.4,2s3.9,0.9,6.5,0.9c2.1,0,3.8-0.2,5.3-0.7s2.7-1.1,3.6-1.9c1-0.8,1.7-1.7,2.1-2.8s0.7-2.1,0.7-3.3
		c0-1.7-0.5-3.1-1.5-4.1c-1-1.1-2.3-2-4-2.8s-3.5-1.5-5.7-2.1c-2.1-0.6-4.3-1.3-6.5-2.1c-2.2-0.7-4.4-1.6-6.5-2.6s-4-2.3-5.7-3.8
		s-3-3.4-4-5.7c-1-2.2-1.5-4.9-1.5-8.1c0-2.9,0.6-5.7,1.8-8.4s2.9-5,5.1-7s5.1-3.6,8.5-4.8s7.3-1.8,11.7-1.8c4.9,0,9.5,0.8,13.5,2.5
		c4.1,1.6,7.4,3.8,10.2,6.4L989,145.4z"/>
	<path class="st2" d="M1090.9,203.2h-7.8c-1.6,0-2.9-0.2-3.8-0.7s-1.6-1.5-2.1-3l-1.5-5.1c-1.8,1.6-3.6,3.1-5.4,4.3
		s-3.6,2.3-5.4,3.1c-1.9,0.8-3.9,1.5-6,1.9s-4.4,0.6-7,0.6c-3,0-5.8-0.4-8.4-1.2s-4.8-2-6.6-3.7c-1.8-1.6-3.3-3.7-4.3-6.1
		c-1-2.4-1.5-5.3-1.5-8.5c0-2.7,0.7-5.4,2.1-8s3.8-5,7.1-7.2c3.3-2.1,7.7-3.9,13.2-5.3c5.5-1.4,12.3-2.1,20.5-2.1V158
		c0-4.8-1-8.4-3-10.8c-2-2.3-5-3.5-8.9-3.5c-2.8,0-5.1,0.3-7,1s-3.5,1.4-4.9,2.2s-2.6,1.6-3.8,2.2c-1.2,0.7-2.5,1-3.9,1
		c-1.2,0-2.2-0.3-3-0.9c-0.8-0.6-1.5-1.4-2-2.2l-3.1-5.5c8.3-7.6,18.2-11.3,29.9-11.3c4.2,0,7.9,0.7,11.2,2.1
		c3.3,1.4,6.1,3.3,8.4,5.7s4,5.4,5.2,8.8c1.2,3.4,1.8,7.1,1.8,11.2L1090.9,203.2L1090.9,203.2z M1057.3,192.5c1.8,0,3.4-0.2,4.9-0.5
		s2.9-0.8,4.2-1.4c1.3-0.6,2.6-1.4,3.9-2.4c1.2-0.9,2.5-2.1,3.7-3.3v-12c-5,0-9.3,0.3-12.6,1c-3.4,0.6-6.1,1.4-8.2,2.4
		s-3.5,2.1-4.4,3.5c-0.9,1.3-1.3,2.7-1.3,4.3c0,3.1,0.9,5.2,2.7,6.6C1052,191.8,1054.4,192.5,1057.3,192.5z"/>
	<path class="st2" d="M1158.4,146.6c-0.5,0.7-1,1.2-1.5,1.5c-0.5,0.4-1.2,0.6-2.1,0.6s-1.8-0.3-2.6-0.8c-0.8-0.5-1.8-1.1-3-1.8
		s-2.6-1.3-4.2-1.8s-3.6-0.8-6-0.8c-3,0-5.7,0.5-8,1.6s-4.2,2.7-5.7,4.7c-1.5,2.1-2.6,4.5-3.4,7.5c-0.7,2.9-1.1,6.2-1.1,9.9
		c0,3.8,0.4,7.2,1.2,10.2c0.8,3,2,5.5,3.5,7.5s3.4,3.6,5.6,4.6s4.7,1.6,7.4,1.6c2.8,0,5-0.3,6.7-1s3.1-1.4,4.3-2.2
		c1.2-0.8,2.2-1.6,3-2.2c0.9-0.7,1.8-1,2.9-1c1.4,0,2.5,0.5,3.2,1.6l5,6.3c-1.9,2.2-4,4.1-6.2,5.6s-4.6,2.7-7,3.6
		c-2.4,0.9-4.9,1.6-7.5,1.9c-2.6,0.4-5.1,0.6-7.6,0.6c-4.4,0-8.6-0.8-12.5-2.5s-7.3-4.1-10.3-7.2c-2.9-3.2-5.2-7.1-6.9-11.7
		c-1.7-4.6-2.6-9.8-2.6-15.7c0-5.3,0.8-10.2,2.3-14.7s3.7-8.4,6.7-11.7c2.9-3.3,6.6-5.9,10.9-7.7s9.3-2.8,15-2.8
		c5.4,0,10.1,0.9,14.1,2.6c4,1.7,7.7,4.2,10.9,7.4L1158.4,146.6z"/>
	<path class="st2" d="M1174.7,203.2v-104h17.3v40c2.8-2.7,5.9-4.8,9.2-6.4c3.4-1.6,7.3-2.5,11.8-2.5c3.9,0,7.4,0.7,10.4,2
		s5.6,3.2,7.6,5.6s3.6,5.3,4.6,8.6s1.6,7,1.6,11v45.7H1220v-45.7c0-4.4-1-7.8-3-10.2s-5.1-3.6-9.1-3.6c-3,0-5.8,0.7-8.4,2
		c-2.6,1.4-5.1,3.2-7.4,5.5v51.9L1174.7,203.2L1174.7,203.2z"/>
	<path class="st2" d="M1310.5,203.2h-7.8c-1.6,0-2.9-0.2-3.8-0.7s-1.6-1.5-2.1-3l-1.5-5.1c-1.8,1.6-3.6,3.1-5.4,4.3
		s-3.6,2.3-5.4,3.1c-1.9,0.8-3.9,1.5-6,1.9s-4.4,0.6-7,0.6c-3,0-5.8-0.4-8.4-1.2s-4.8-2-6.6-3.7c-1.8-1.6-3.3-3.7-4.3-6.1
		c-1-2.4-1.5-5.3-1.5-8.5c0-2.7,0.7-5.4,2.1-8s3.8-5,7.1-7.2c3.3-2.1,7.7-3.9,13.2-5.3c5.5-1.4,12.3-2.1,20.5-2.1V158
		c0-4.8-1-8.4-3-10.8c-2-2.3-5-3.5-8.9-3.5c-2.8,0-5.1,0.3-7,1s-3.5,1.4-4.9,2.2s-2.6,1.6-3.8,2.2c-1.2,0.7-2.5,1-3.9,1
		c-1.2,0-2.2-0.3-3-0.9c-0.8-0.6-1.5-1.4-2-2.2l-3.1-5.5c8.3-7.6,18.2-11.3,29.9-11.3c4.2,0,7.9,0.7,11.2,2.1
		c3.3,1.4,6.1,3.3,8.4,5.7s4,5.4,5.2,8.8c1.2,3.4,1.8,7.1,1.8,11.2L1310.5,203.2L1310.5,203.2z M1276.9,192.5c1.8,0,3.4-0.2,4.9-0.5
		s2.9-0.8,4.2-1.4c1.3-0.6,2.6-1.4,3.9-2.4c1.2-0.9,2.5-2.1,3.7-3.3v-12c-5,0-9.3,0.3-12.6,1c-3.4,0.6-6.1,1.4-8.2,2.4
		s-3.5,2.1-4.4,3.5c-0.9,1.3-1.3,2.7-1.3,4.3c0,3.1,0.9,5.2,2.7,6.6C1271.7,191.8,1274,192.5,1276.9,192.5z"/>
	<path class="st2" d="M1351.1,204.4c-6.2,0-11-1.8-14.3-5.3c-3.4-3.5-5-8.4-5-14.6v-40.1h-7.3c-0.9,0-1.7-0.3-2.4-0.9
		c-0.7-0.6-1-1.5-1-2.7v-6.9l11.5-1.9l3.6-19.6c0.2-0.9,0.6-1.7,1.3-2.2c0.7-0.5,1.5-0.8,2.6-0.8h9V132h18.9v12.3h-19v38.9
		c0,2.2,0.6,4,1.7,5.2s2.6,1.9,4.5,1.9c1.1,0,2-0.1,2.7-0.4c0.7-0.3,1.4-0.5,1.9-0.8s1-0.5,1.4-0.8s0.8-0.4,1.3-0.4s0.9,0.1,1.3,0.4
		c0.3,0.3,0.7,0.6,1.1,1.2l5.2,8.4c-2.5,2.1-5.4,3.7-8.7,4.8C1358,203.8,1354.6,204.4,1351.1,204.4z"/>
	<path class="st2" d="M1424.3,145.4c-0.5,0.7-1,1.3-1.5,1.6s-1.2,0.5-2,0.5s-1.7-0.2-2.7-0.7s-2.1-1-3.3-1.6
		c-1.3-0.6-2.7-1.1-4.3-1.6c-1.6-0.5-3.5-0.7-5.7-0.7c-3.4,0-6.1,0.7-8,2.2c-2,1.4-2.9,3.3-2.9,5.7c0,1.5,0.5,2.8,1.5,3.9
		c1,1,2.3,2,4,2.8s3.5,1.5,5.6,2.1s4.2,1.3,6.4,2.1c2.2,0.7,4.3,1.6,6.4,2.6s4,2.2,5.6,3.6c1.7,1.5,3,3.2,4,5.3s1.5,4.5,1.5,7.4
		c0,3.5-0.6,6.6-1.9,9.6c-1.3,2.9-3.1,5.4-5.5,7.6c-2.4,2.1-5.4,3.8-9,5s-7.7,1.8-12.3,1.8c-2.5,0-4.9-0.2-7.2-0.7
		c-2.4-0.4-4.6-1.1-6.8-1.9c-2.2-0.8-4.2-1.7-6-2.8s-3.5-2.2-4.9-3.5l4-6.6c0.5-0.8,1.1-1.4,1.8-1.8s1.6-0.6,2.7-0.6s2.1,0.3,3,0.9
		c1,0.6,2.1,1.3,3.3,2c1.3,0.7,2.7,1.4,4.4,2c1.7,0.6,3.9,0.9,6.5,0.9c2.1,0,3.8-0.2,5.3-0.7s2.7-1.1,3.6-1.9c1-0.8,1.7-1.7,2.1-2.8
		s0.7-2.1,0.7-3.3c0-1.7-0.5-3.1-1.5-4.1c-1-1.1-2.3-2-4-2.8s-3.5-1.5-5.7-2.1c-2.1-0.6-4.3-1.3-6.5-2.1c-2.2-0.7-4.4-1.6-6.5-2.6
		s-4-2.3-5.7-3.8s-3-3.4-4-5.7c-1-2.2-1.5-4.9-1.5-8.1c0-2.9,0.6-5.7,1.8-8.4c1.2-2.7,2.9-5,5.1-7s5.1-3.6,8.5-4.8s7.3-1.8,11.7-1.8
		c4.9,0,9.5,0.8,13.5,2.5c4.1,1.6,7.4,3.8,10.2,6.4L1424.3,145.4z"/>
</g>
<g>
	<path class="st3" d="M318.6,157.3c0,5.7-0.7,10.8-2.1,15.4c-1.4,4.6-3.5,8.5-6.3,11.7s-6.2,5.7-10.4,7.4c-4.2,1.7-9,2.6-14.5,2.6
		c-2.5,0-5-0.2-7.4-0.5s-5-0.8-7.6-1.4l1-11.2c0.1-1,0.5-1.9,1.2-2.5s1.7-0.9,3-0.9c0.8,0,1.8,0.2,3.1,0.5c1.3,0.3,2.9,0.5,4.9,0.5
		c2.7,0,5-0.4,7.1-1.2s3.8-2,5.1-3.7c1.4-1.7,2.4-3.9,3.1-6.5c0.7-2.7,1-5.9,1-9.8V92.1h18.8L318.6,157.3L318.6,157.3z"/>
	<path class="st3" d="M353.9,121.5v45.6c0,4.4,1,7.8,3,10.2s5.1,3.6,9.1,3.6c3,0,5.8-0.7,8.4-2s5.1-3.2,7.4-5.5v-51.9h17.3v71.8
		h-10.6c-2.2,0-3.7-1-4.4-3.2l-1.2-5.7c-1.5,1.5-3,2.9-4.6,4.1c-1.6,1.2-3.3,2.3-5.1,3.2c-1.8,0.9-3.7,1.5-5.8,2
		c-2.1,0.5-4.3,0.7-6.7,0.7c-3.9,0-7.4-0.7-10.4-2s-5.5-3.2-7.6-5.6c-2.1-2.4-3.6-5.3-4.7-8.6s-1.6-7-1.6-11v-45.6h17.5V121.5z"/>
	<path class="st3" d="M460.3,135.5c-0.5,0.7-1,1.3-1.5,1.6s-1.2,0.5-2,0.5s-1.7-0.2-2.7-0.7s-2.1-1-3.3-1.6
		c-1.3-0.6-2.7-1.1-4.3-1.6c-1.6-0.5-3.5-0.7-5.7-0.7c-3.4,0-6.1,0.7-8.1,2.2c-2,1.4-2.9,3.3-2.9,5.7c0,1.5,0.5,2.8,1.5,3.9
		c1,1,2.3,2,4,2.8s3.5,1.5,5.6,2.1s4.2,1.3,6.4,2.1c2.2,0.7,4.3,1.6,6.4,2.6s4,2.2,5.6,3.6c1.7,1.5,3,3.2,4,5.3s1.5,4.5,1.5,7.4
		c0,3.5-0.6,6.6-1.9,9.6c-1.3,2.9-3.1,5.4-5.5,7.6c-2.4,2.1-5.4,3.8-9,5s-7.7,1.8-12.3,1.8c-2.5,0-4.9-0.2-7.2-0.7
		c-2.4-0.4-4.6-1.1-6.8-1.9c-2.2-0.8-4.2-1.7-6-2.8s-3.5-2.2-4.9-3.5l4-6.6c0.5-0.8,1.1-1.4,1.8-1.8s1.6-0.6,2.7-0.6s2.1,0.3,3,0.9
		c1,0.6,2.1,1.3,3.3,2c1.3,0.7,2.7,1.4,4.4,2c1.7,0.6,3.9,0.9,6.5,0.9c2.1,0,3.8-0.2,5.3-0.7s2.7-1.1,3.6-1.9c1-0.8,1.7-1.7,2.1-2.8
		c0.4-1,0.7-2.1,0.7-3.3c0-1.7-0.5-3.1-1.5-4.1c-1-1.1-2.3-2-4-2.8s-3.5-1.5-5.7-2.1c-2.1-0.6-4.3-1.3-6.5-2.1
		c-2.2-0.7-4.4-1.6-6.5-2.6s-4-2.3-5.7-3.8s-3-3.4-4-5.7c-1-2.2-1.5-4.9-1.5-8.1c0-2.9,0.6-5.7,1.8-8.4c1.2-2.7,2.9-5,5.1-7
		c2.3-2,5.1-3.6,8.5-4.8c3.4-1.2,7.3-1.8,11.7-1.8c4.9,0,9.5,0.8,13.5,2.5c4.1,1.6,7.4,3.8,10.1,6.4L460.3,135.5z"/>
	<path class="st3" d="M502.4,194.4c-6.2,0-11-1.8-14.4-5.3s-5-8.4-5-14.6v-40.1h-7.3c-0.9,0-1.7-0.3-2.4-0.9c-0.7-0.6-1-1.5-1-2.7
		v-6.9l11.5-1.9l3.6-19.6c0.2-0.9,0.6-1.7,1.3-2.2c0.7-0.5,1.5-0.8,2.6-0.8h9V122h18.9v12.3h-18.9v38.9c0,2.2,0.6,4,1.7,5.2
		c1.1,1.3,2.6,1.9,4.5,1.9c1.1,0,2-0.1,2.7-0.4c0.7-0.3,1.4-0.5,1.9-0.8s1-0.5,1.4-0.8s0.8-0.4,1.3-0.4s0.9,0.1,1.3,0.4
		c0.3,0.3,0.7,0.6,1,1.2l5.2,8.4c-2.5,2.1-5.4,3.7-8.7,4.8C509.3,193.9,505.9,194.4,502.4,194.4z"/>
	<path class="st3" d="M554,100.5c0,1.5-0.3,2.9-0.9,4.2c-0.6,1.3-1.4,2.5-2.4,3.4c-1,1-2.2,1.8-3.5,2.3c-1.4,0.6-2.8,0.9-4.3,0.9
		s-2.9-0.3-4.2-0.9s-2.5-1.4-3.5-2.3c-1-1-1.8-2.1-2.3-3.4c-0.6-1.3-0.9-2.7-0.9-4.2s0.3-3,0.9-4.3c0.6-1.4,1.4-2.5,2.3-3.5
		c1-1,2.1-1.8,3.5-2.3c1.3-0.6,2.7-0.9,4.2-0.9s3,0.3,4.3,0.9c1.4,0.6,2.5,1.4,3.5,2.3c1,1,1.8,2.1,2.4,3.5S554,99,554,100.5z
		 M551.4,121.5v71.8h-17.3v-71.8H551.4z"/>
	<path class="st3" d="M574,193.3v-58.8l-6.2-1c-1.4-0.2-2.4-0.7-3.3-1.4c-0.8-0.7-1.2-1.7-1.2-2.9v-7.1H574v-2.3
		c0-4.4,0.7-8.5,2.2-12.2c1.4-3.8,3.6-7,6.6-9.8c2.9-2.8,6.7-4.9,11.1-6.5c4.5-1.6,9.8-2.3,15.9-2.3c2,0,4,0.1,6,0.3
		c2.1,0.2,3.8,0.5,5.3,1l-0.6,9c-0.1,1.1-0.7,1.7-1.8,1.9c-1.1,0.2-2.4,0.3-4,0.3c-4.5,0-8.3,0.4-11.4,1.2c-3.1,0.8-5.5,2-7.4,3.5
		c-1.9,1.6-3.2,3.5-4.1,5.9c-0.8,2.4-1.2,5.1-1.2,8.2v1.8h44.5v71.2H618v-58.9h-26.7v58.9L574,193.3L574,193.3z"/>
	<path class="st3" d="M705.5,136.7c-0.5,0.7-1,1.2-1.5,1.5c-0.5,0.4-1.2,0.6-2.1,0.6c-0.9,0-1.8-0.3-2.6-0.8s-1.8-1.1-3-1.8
		s-2.6-1.3-4.2-1.8c-1.6-0.5-3.6-0.8-6-0.8c-3,0-5.7,0.5-8,1.6s-4.2,2.7-5.7,4.7c-1.5,2.1-2.6,4.5-3.4,7.5c-0.7,2.9-1.1,6.2-1.1,9.9
		c0,3.8,0.4,7.2,1.2,10.2s2,5.5,3.5,7.5s3.4,3.6,5.6,4.6c2.2,1,4.7,1.6,7.4,1.6c2.8,0,5-0.3,6.7-1s3.1-1.4,4.3-2.2s2.2-1.6,3-2.2
		c0.9-0.7,1.8-1,2.9-1c1.4,0,2.5,0.5,3.2,1.6l5,6.3c-1.9,2.2-4,4.1-6.2,5.6s-4.6,2.7-7,3.6c-2.4,0.9-4.9,1.6-7.5,1.9
		c-2.6,0.4-5.1,0.6-7.6,0.6c-4.4,0-8.6-0.8-12.5-2.5s-7.3-4.1-10.3-7.2c-2.9-3.2-5.2-7.1-6.9-11.7c-1.7-4.6-2.6-9.8-2.6-15.7
		c0-5.3,0.8-10.2,2.3-14.7s3.7-8.4,6.7-11.7c2.9-3.3,6.6-5.9,10.9-7.7s9.3-2.8,15-2.8c5.4,0,10.1,0.9,14.1,2.6s7.7,4.2,10.9,7.4
		L705.5,136.7z"/>
	<path class="st3" d="M778.1,193.3h-7.8c-1.6,0-2.9-0.2-3.8-0.7c-0.9-0.5-1.6-1.5-2.1-3l-1.5-5.1c-1.8,1.6-3.6,3.1-5.4,4.3
		s-3.6,2.3-5.4,3.1c-1.9,0.8-3.9,1.5-6,1.9s-4.4,0.6-7,0.6c-3,0-5.8-0.4-8.4-1.2c-2.6-0.8-4.8-2-6.6-3.7c-1.8-1.6-3.3-3.7-4.3-6.1
		c-1-2.4-1.5-5.3-1.5-8.5c0-2.7,0.7-5.4,2.1-8c1.4-2.6,3.8-5,7.1-7.2c3.3-2.1,7.7-3.9,13.2-5.3c5.5-1.4,12.3-2.1,20.5-2.1V148
		c0-4.8-1-8.4-3-10.8c-2-2.3-5-3.5-8.9-3.5c-2.8,0-5.1,0.3-7,1s-3.5,1.4-4.9,2.2s-2.6,1.6-3.8,2.2c-1.2,0.7-2.5,1-3.9,1
		c-1.2,0-2.2-0.3-3-0.9c-0.8-0.6-1.5-1.4-2-2.2l-3.1-5.5c8.3-7.6,18.2-11.3,29.9-11.3c4.2,0,7.9,0.7,11.2,2.1s6.1,3.3,8.4,5.7
		c2.3,2.4,4,5.4,5.2,8.8s1.8,7.1,1.8,11.2V193.3z M744.5,182.5c1.8,0,3.4-0.2,4.9-0.5s2.9-0.8,4.2-1.4c1.3-0.6,2.6-1.4,3.9-2.4
		c1.2-0.9,2.5-2.1,3.7-3.3v-12c-5,0-9.3,0.3-12.6,1c-3.4,0.6-6.1,1.4-8.2,2.4c-2.1,1-3.5,2.1-4.4,3.5c-0.9,1.3-1.3,2.7-1.3,4.3
		c0,3.1,0.9,5.2,2.7,6.6C739.3,181.9,741.6,182.5,744.5,182.5z"/>
	<path class="st3" d="M818.7,194.4c-6.2,0-11-1.8-14.3-5.3c-3.4-3.5-5-8.4-5-14.6v-40.1h-7.3c-0.9,0-1.7-0.3-2.4-0.9
		c-0.7-0.6-1-1.5-1-2.7v-6.9l11.5-1.9l3.6-19.6c0.2-0.9,0.6-1.7,1.3-2.2s1.5-0.8,2.6-0.8h9V122h18.9v12.3h-18.9v38.9
		c0,2.2,0.6,4,1.7,5.2s2.6,1.9,4.5,1.9c1.1,0,2-0.1,2.7-0.4c0.7-0.3,1.4-0.5,1.9-0.8s1-0.5,1.4-0.8s0.8-0.4,1.3-0.4s0.9,0.1,1.3,0.4
		c0.3,0.3,0.7,0.6,1.1,1.2l5.2,8.4c-2.5,2.1-5.4,3.7-8.7,4.8C825.6,193.9,822.2,194.4,818.7,194.4z"/>
	<path class="st3" d="M870.3,100.5c0,1.5-0.3,2.9-0.9,4.2c-0.6,1.3-1.4,2.5-2.4,3.4c-1,1-2.2,1.8-3.5,2.3c-1.4,0.6-2.8,0.9-4.3,0.9
		s-2.9-0.3-4.2-0.9s-2.5-1.4-3.5-2.3c-1-1-1.8-2.1-2.3-3.4c-0.6-1.3-0.9-2.7-0.9-4.2s0.3-3,0.9-4.3c0.6-1.4,1.4-2.5,2.3-3.5
		c1-1,2.1-1.8,3.5-2.3c1.3-0.6,2.7-0.9,4.2-0.9s3,0.3,4.3,0.9c1.4,0.6,2.5,1.4,3.5,2.3c1,1,1.8,2.1,2.4,3.5S870.3,99,870.3,100.5z
		 M867.7,121.5v71.8h-17.3v-71.8H867.7z"/>
	<path class="st3" d="M890.3,193.3v-58.8l-6.2-1c-1.4-0.2-2.4-0.7-3.3-1.4c-0.8-0.7-1.2-1.7-1.2-2.9v-7.1h10.7v-5.3
		c0-4.1,0.6-7.8,1.9-11.1c1.2-3.3,3-6,5.3-8.3s5.1-4,8.4-5.2c3.3-1.2,7-1.8,11.2-1.8c3.3,0,6.4,0.4,9.2,1.3l-0.4,8.7
		c-0.1,1.4-0.7,2.2-1.9,2.5s-2.5,0.5-4.1,0.5c-2.1,0-3.9,0.2-5.5,0.7c-1.6,0.4-3,1.2-4.1,2.3c-1.1,1.1-2,2.5-2.6,4.3s-0.9,4-0.9,6.7
		v4.8h18.7v12.3h-18.1v58.9h-17.1V193.3z"/>
	<path class="st3" d="M979,135.5c-0.5,0.7-1,1.3-1.5,1.6s-1.2,0.5-2,0.5s-1.7-0.2-2.7-0.7s-2.1-1-3.3-1.6c-1.3-0.6-2.7-1.1-4.3-1.6
		s-3.5-0.7-5.7-0.7c-3.4,0-6.1,0.7-8,2.2c-2,1.4-2.9,3.3-2.9,5.7c0,1.5,0.5,2.8,1.5,3.9c1,1,2.3,2,4,2.8s3.5,1.5,5.6,2.1
		s4.2,1.3,6.4,2.1c2.2,0.7,4.3,1.6,6.4,2.6c2.1,1,4,2.2,5.6,3.6c1.7,1.5,3,3.2,4,5.3s1.5,4.5,1.5,7.4c0,3.5-0.6,6.6-1.9,9.6
		c-1.3,2.9-3.1,5.4-5.5,7.6c-2.4,2.1-5.4,3.8-9,5s-7.7,1.8-12.3,1.8c-2.5,0-4.9-0.2-7.2-0.7c-2.4-0.4-4.6-1.1-6.8-1.9
		c-2.2-0.8-4.2-1.7-6-2.8s-3.5-2.2-4.9-3.5l4-6.6c0.5-0.8,1.1-1.4,1.8-1.8s1.6-0.6,2.7-0.6c1.1,0,2.1,0.3,3,0.9c1,0.6,2.1,1.3,3.3,2
		c1.3,0.7,2.7,1.4,4.4,2s3.9,0.9,6.5,0.9c2.1,0,3.8-0.2,5.3-0.7s2.7-1.1,3.6-1.9c1-0.8,1.7-1.7,2.1-2.8s0.7-2.1,0.7-3.3
		c0-1.7-0.5-3.1-1.5-4.1c-1-1.1-2.3-2-4-2.8s-3.5-1.5-5.7-2.1c-2.1-0.6-4.3-1.3-6.5-2.1c-2.2-0.7-4.4-1.6-6.5-2.6s-4-2.3-5.7-3.8
		s-3-3.4-4-5.7c-1-2.2-1.5-4.9-1.5-8.1c0-2.9,0.6-5.7,1.8-8.4s2.9-5,5.1-7s5.1-3.6,8.5-4.8c3.4-1.2,7.3-1.8,11.7-1.8
		c4.9,0,9.5,0.8,13.5,2.5c4.1,1.6,7.4,3.8,10.2,6.4L979,135.5z"/>
	<path class="st3" d="M1080.8,193.3h-7.8c-1.6,0-2.9-0.2-3.8-0.7s-1.6-1.5-2.1-3l-1.5-5.1c-1.8,1.6-3.6,3.1-5.4,4.3
		s-3.6,2.3-5.4,3.1c-1.9,0.8-3.9,1.5-6,1.9s-4.4,0.6-7,0.6c-3,0-5.8-0.4-8.4-1.2s-4.8-2-6.6-3.7c-1.8-1.6-3.3-3.7-4.3-6.1
		c-1-2.4-1.5-5.3-1.5-8.5c0-2.7,0.7-5.4,2.1-8s3.8-5,7.1-7.2c3.3-2.1,7.7-3.9,13.2-5.3c5.5-1.4,12.3-2.1,20.5-2.1V148
		c0-4.8-1-8.4-3-10.8c-2-2.3-5-3.5-8.9-3.5c-2.8,0-5.1,0.3-7,1s-3.5,1.4-4.9,2.2s-2.6,1.6-3.8,2.2c-1.2,0.7-2.5,1-3.9,1
		c-1.2,0-2.2-0.3-3-0.9c-0.8-0.6-1.5-1.4-2-2.2l-3.1-5.5c8.3-7.6,18.2-11.3,29.9-11.3c4.2,0,7.9,0.7,11.2,2.1
		c3.3,1.4,6.1,3.3,8.4,5.7c2.3,2.4,4,5.4,5.2,8.8s1.8,7.1,1.8,11.2L1080.8,193.3L1080.8,193.3z M1047.2,182.5c1.8,0,3.4-0.2,4.9-0.5
		s2.9-0.8,4.2-1.4c1.3-0.6,2.6-1.4,3.9-2.4c1.2-0.9,2.5-2.1,3.7-3.3v-12c-5,0-9.3,0.3-12.6,1c-3.4,0.6-6.1,1.4-8.2,2.4
		s-3.5,2.1-4.4,3.5c-0.9,1.3-1.3,2.7-1.3,4.3c0,3.1,0.9,5.2,2.7,6.6C1042,181.9,1044.3,182.5,1047.2,182.5z"/>
	<path class="st3" d="M1148.3,136.7c-0.5,0.7-1,1.2-1.5,1.5c-0.5,0.4-1.2,0.6-2.1,0.6s-1.8-0.3-2.6-0.8c-0.8-0.5-1.8-1.1-3-1.8
		s-2.6-1.3-4.2-1.8s-3.6-0.8-6-0.8c-3,0-5.7,0.5-8,1.6s-4.2,2.7-5.7,4.7c-1.5,2.1-2.6,4.5-3.4,7.5c-0.7,2.9-1.1,6.2-1.1,9.9
		c0,3.8,0.4,7.2,1.2,10.2c0.8,3,2,5.5,3.5,7.5s3.4,3.6,5.6,4.6s4.7,1.6,7.4,1.6c2.8,0,5-0.3,6.7-1s3.1-1.4,4.3-2.2
		c1.2-0.8,2.2-1.6,3-2.2c0.9-0.7,1.8-1,2.9-1c1.4,0,2.5,0.5,3.2,1.6l5,6.3c-1.9,2.2-4,4.1-6.2,5.6s-4.6,2.7-7,3.6
		c-2.4,0.9-4.9,1.6-7.5,1.9c-2.6,0.4-5.1,0.6-7.6,0.6c-4.4,0-8.6-0.8-12.5-2.5s-7.3-4.1-10.3-7.2c-2.9-3.2-5.2-7.1-6.9-11.7
		c-1.7-4.6-2.6-9.8-2.6-15.7c0-5.3,0.8-10.2,2.3-14.7s3.7-8.4,6.7-11.7c2.9-3.3,6.6-5.9,10.9-7.7s9.3-2.8,15-2.8
		c5.4,0,10.1,0.9,14.1,2.6s7.7,4.2,10.9,7.4L1148.3,136.7z"/>
	<path class="st3" d="M1164.6,193.3v-104h17.3v40c2.8-2.7,5.9-4.8,9.2-6.4c3.4-1.6,7.3-2.5,11.8-2.5c3.9,0,7.4,0.7,10.4,2
		s5.6,3.2,7.6,5.6c2,2.4,3.6,5.3,4.6,8.6s1.6,7,1.6,11v45.7h-17.3v-45.7c0-4.4-1-7.8-3-10.2s-5.1-3.6-9.1-3.6c-3,0-5.8,0.7-8.4,2
		c-2.6,1.4-5.1,3.2-7.4,5.5v51.9L1164.6,193.3L1164.6,193.3z"/>
	<path class="st3" d="M1300.5,193.3h-7.8c-1.6,0-2.9-0.2-3.8-0.7s-1.6-1.5-2.1-3l-1.5-5.1c-1.8,1.6-3.6,3.1-5.4,4.3
		s-3.6,2.3-5.4,3.1c-1.9,0.8-3.9,1.5-6,1.9s-4.4,0.6-7,0.6c-3,0-5.8-0.4-8.4-1.2s-4.8-2-6.6-3.7c-1.8-1.6-3.3-3.7-4.3-6.1
		c-1-2.4-1.5-5.3-1.5-8.5c0-2.7,0.7-5.4,2.1-8s3.8-5,7.1-7.2c3.3-2.1,7.7-3.9,13.2-5.3c5.5-1.4,12.3-2.1,20.5-2.1V148
		c0-4.8-1-8.4-3-10.8c-2-2.3-5-3.5-8.9-3.5c-2.8,0-5.1,0.3-7,1s-3.5,1.4-4.9,2.2s-2.6,1.6-3.8,2.2c-1.2,0.7-2.5,1-3.9,1
		c-1.2,0-2.2-0.3-3-0.9c-0.8-0.6-1.5-1.4-2-2.2l-3.1-5.5c8.3-7.6,18.2-11.3,29.9-11.3c4.2,0,7.9,0.7,11.2,2.1
		c3.3,1.4,6.1,3.3,8.4,5.7c2.3,2.4,4,5.4,5.2,8.8s1.8,7.1,1.8,11.2L1300.5,193.3L1300.5,193.3z M1266.9,182.5c1.8,0,3.4-0.2,4.9-0.5
		s2.9-0.8,4.2-1.4c1.3-0.6,2.6-1.4,3.9-2.4c1.2-0.9,2.5-2.1,3.7-3.3v-12c-5,0-9.3,0.3-12.6,1c-3.4,0.6-6.1,1.4-8.2,2.4
		s-3.5,2.1-4.4,3.5c-0.9,1.3-1.3,2.7-1.3,4.3c0,3.1,0.9,5.2,2.7,6.6C1261.6,181.9,1264,182.5,1266.9,182.5z"/>
	<path class="st3" d="M1341.1,194.4c-6.2,0-11-1.8-14.3-5.3c-3.4-3.5-5-8.4-5-14.6v-40.1h-7.3c-0.9,0-1.7-0.3-2.4-0.9
		c-0.7-0.6-1-1.5-1-2.7v-6.9l11.5-1.9l3.6-19.6c0.2-0.9,0.6-1.7,1.3-2.2c0.7-0.5,1.5-0.8,2.6-0.8h9V122h18.9v12.3h-19v38.9
		c0,2.2,0.6,4,1.7,5.2s2.6,1.9,4.5,1.9c1.1,0,2-0.1,2.7-0.4c0.7-0.3,1.4-0.5,1.9-0.8s1-0.5,1.4-0.8s0.8-0.4,1.3-0.4s0.9,0.1,1.3,0.4
		c0.3,0.3,0.7,0.6,1.1,1.2l5.2,8.4c-2.5,2.1-5.4,3.7-8.7,4.8C1347.9,193.9,1344.6,194.4,1341.1,194.4z"/>
	<path class="st3" d="M1414.3,135.5c-0.5,0.7-1,1.3-1.5,1.6s-1.2,0.5-2,0.5s-1.7-0.2-2.7-0.7s-2.1-1-3.3-1.6
		c-1.3-0.6-2.7-1.1-4.3-1.6c-1.6-0.5-3.5-0.7-5.7-0.7c-3.4,0-6.1,0.7-8,2.2c-2,1.4-2.9,3.3-2.9,5.7c0,1.5,0.5,2.8,1.5,3.9
		c1,1,2.3,2,4,2.8s3.5,1.5,5.6,2.1s4.2,1.3,6.4,2.1c2.2,0.7,4.3,1.6,6.4,2.6s4,2.2,5.6,3.6c1.7,1.5,3,3.2,4,5.3s1.5,4.5,1.5,7.4
		c0,3.5-0.6,6.6-1.9,9.6c-1.3,2.9-3.1,5.4-5.5,7.6c-2.4,2.1-5.4,3.8-9,5s-7.7,1.8-12.3,1.8c-2.5,0-4.9-0.2-7.2-0.7
		c-2.4-0.4-4.6-1.1-6.8-1.9c-2.2-0.8-4.2-1.7-6-2.8s-3.5-2.2-4.9-3.5l4-6.6c0.5-0.8,1.1-1.4,1.8-1.8s1.6-0.6,2.7-0.6s2.1,0.3,3,0.9
		c1,0.6,2.1,1.3,3.3,2c1.3,0.7,2.7,1.4,4.4,2c1.7,0.6,3.9,0.9,6.5,0.9c2.1,0,3.8-0.2,5.3-0.7s2.7-1.1,3.6-1.9c1-0.8,1.7-1.7,2.1-2.8
		s0.7-2.1,0.7-3.3c0-1.7-0.5-3.1-1.5-4.1c-1-1.1-2.3-2-4-2.8s-3.5-1.5-5.7-2.1c-2.1-0.6-4.3-1.3-6.5-2.1c-2.2-0.7-4.4-1.6-6.5-2.6
		s-4-2.3-5.7-3.8s-3-3.4-4-5.7c-1-2.2-1.5-4.9-1.5-8.1c0-2.9,0.6-5.7,1.8-8.4c1.2-2.7,2.9-5,5.1-7s5.1-3.6,8.5-4.8
		c3.4-1.2,7.3-1.8,11.7-1.8c4.9,0,9.5,0.8,13.5,2.5c4.1,1.6,7.4,3.8,10.2,6.4L1414.3,135.5z"/>
</g>
</svg>
