<?xml version="1.0" encoding="utf-8"?>
<!-- Generator: Adobe Illustrator 24.3.0, SVG Export Plug-In . SVG Version: 6.00 Build 0)  -->
<svg version="1.1" id="Calque_1" xmlns="http://www.w3.org/2000/svg" xmlns:xlink="http://www.w3.org/1999/xlink" x="0px" y="0px"
	 viewBox="0 0 928.6 1000" style="enable-background:new 0 0 928.6 1000;" xml:space="preserve">
<style type="text/css">
	.st0{fill:#333333;}
</style>
<path class="st0" d="M357.1,857.1c0,39.1-32.3,71.5-71.4,71.5s-71.4-32.4-71.4-71.5s32.4-71.4,71.4-71.4S357.1,818.1,357.1,857.1z
	 M857.1,857.1c0,39.1-32.3,71.5-71.4,71.5s-71.4-32.4-71.4-71.5s32.4-71.4,71.4-71.4S857.1,818.1,857.1,857.1z M928.6,250v285.7
	c0,17.9-14,33.5-31.8,35.7l-582.6,68.1c2.8,12.8,7.2,25.7,7.2,39.1c0,12.8-7.8,24.5-13.4,35.7h513.4c19.6,0,35.7,16.2,35.7,35.7
	s-16.1,35.7-35.7,35.7H250c-19.5,0-35.7-16.2-35.7-35.7c0-17.3,25.1-59.2,34-76.5l-98.7-459.2H35.7C16.2,214.3,0,198.1,0,178.6
	s16.2-35.7,35.7-35.7h142.9c37.4,0,38.5,44.6,44.1,71.4h670.2C912.4,214.3,928.6,230.5,928.6,250L928.6,250z"/>
</svg>
