<?xml version="1.0" encoding="utf-8"?>
<!-- Generator: Adobe Illustrator 22.0.1, SVG Export Plug-In . SVG Version: 6.00 Build 0)  -->
<svg version="1.1" id="Calque_1" xmlns="http://www.w3.org/2000/svg" xmlns:xlink="http://www.w3.org/1999/xlink" x="0px" y="0px"
	 viewBox="0 0 876.1 1000" style="enable-background:new 0 0 876.1 1000;" xml:space="preserve">
<style type="text/css">
	.st0{fill:#333333;}
</style>
<path class="st0" d="M572.2,61.9c0,0-137.7,68.2-171.2,125.2c-33.5,56.9-12.8,236.6-12.8,236.6S534.7,293.2,562,236.5
	C589.2,179.8,572.2,61.9,572.2,61.9L572.2,61.9z M788.8,63.3c-47.2-0.1-101.5,4.2-129.8,21.6c-56.6,34.8-71.5,154-71.5,154
	s124.1,27.9,176.2-7.4c52.1-35.3,112.4-163.8,112.4-163.8S836,63.3,788.8,63.3L788.8,63.3z M344.8,111.8c0,0-15.9,106.7-20.2,157.6
	c0,0-102.6,63-128.5,126c-25.8,62.9,5.6,229.8,5.6,229.8S330.9,523.4,355,456.5c24.1-66.8-10.2-206.8-10.2-206.8V111.8L344.8,111.8z
	 M623,264.6c-14.2,0-28,1.8-40.7,6.1c-66.8,23.1-173.7,173.6-173.7,173.6s156.9,22.2,217.1-6.8c60.1-29.1,127.7-139.8,127.7-139.8
	S684.7,264.6,623,264.6z M173.7,282.9l-49.9,214.4c0,0-58.4,39.8-100.8,110.7c-41.1,68.9,20.5,217.5,20.5,227.4
	c0,0,124.8-118.6,130.2-183.3c3.1-35.8-16.6-94.1-19.5-162.9C151.1,420.4,165,341.1,173.7,282.9L173.7,282.9z M460.4,484.8
	c-32.2,0.3-61.3,4.2-79.8,8.4c-63.2,28.1-158.3,163.8-158.3,163.8s161.5,30.5,217.1,4.9c55.6-25.6,108.6-129.8,108.6-129.8
	L738.2,500c0,0-118,0-166.4,3.4C537.7,489,497,484.5,460.4,484.8z M247.8,601.7c0,0-125.6,156.6-160.1,205S0,938.1,0,938.1h31.5
	c0,0,34-75.9,63.1-124.2C123.8,765.5,247.8,601.7,247.8,601.7L247.8,601.7z M260.6,686.5c-17.3,0.1-33.2,2.1-46,7.1
	C151.6,718,79.2,862.3,79.2,862.3s143.5,16.6,204.3-7.4c60.8-24,124.6-121.1,124.6-121.1c44.2-3.1,125-18.1,148.1-18.2h-4.4H416.3
	C416.3,715.6,328.2,686.2,260.6,686.5L260.6,686.5z"/>
</svg>
