<?xml version="1.0" encoding="utf-8"?>
<!-- Generator: Adobe Illustrator 22.0.1, SVG Export Plug-In . SVG Version: 6.00 Build 0)  -->
<svg version="1.1" id="Calque_1" xmlns="http://www.w3.org/2000/svg" xmlns:xlink="http://www.w3.org/1999/xlink" x="0px" y="0px"
	 viewBox="0 0 64 86.8" style="enable-background:new 0 0 64 86.8;" xml:space="preserve">
<g>
	<g>
		<path d="M32.2,0c-1.3,0-2.4,1.1-2.4,2.4V52L19.1,41.4c-1-1-2.5-1-3.4,0s-1,2.5,0,3.4l14.8,14.8c0.5,0.5,1.1,0.7,1.7,0.7
			c0.6,0,1.2-0.2,1.7-0.7l14.8-14.8c1-1,1-2.5,0-3.4c-1-1-2.5-1-3.4,0L34.6,52V2.4C34.6,1.1,33.5,0,32.2,0z"/>
	</g>
</g>
<path d="M61.5,66.2H2.9c-1.3,0-2.4,1.1-2.4,2.4S1.6,71,2.9,71h58.6c1.3,0,2.4-1.1,2.4-2.4S62.8,66.2,61.5,66.2z"/>
</svg>
