<?xml version="1.0" encoding="utf-8"?>
<!-- Generator: Adobe Illustrator 22.1.0, SVG Export Plug-In . SVG Version: 6.00 Build 0)  -->
<svg version="1.1" id="Calque_1" xmlns="http://www.w3.org/2000/svg" xmlns:xlink="http://www.w3.org/1999/xlink" x="0px" y="0px"
	 viewBox="0 0 260 260" style="enable-background:new 0 0 260 260;" xml:space="preserve">
<style type="text/css">
	.st0{fill:#666666;}
</style>
<g>
	<g>
		<g>
			<path class="st0" d="M68.4511185,47.0287132c-1.6099243-1.607914-3.496376-2.8719597-5.6633682-3.792141
				c-2.1669998-0.9193802-4.4662476-1.3794708-6.8945541-1.3794708c-2.4964294,0-4.8109131,0.4600906-6.9438438,1.3794708
				c-2.1349335,0.9201813-4.0229874,2.184227-5.663765,3.792141c-1.6419792,1.6095238-2.9224586,3.4963722-3.8410378,5.6637688
				c-0.9205818,2.1657944-1.3790703,4.4654465-1.3790703,6.8941498v8.1271362
				c-0.4783249,4.3891525-2.5164223,8.2140045-5.2256699,11.7782593c-1.9685593,2.5898666-4.4230614,4.0526505-7.2923698,4.3422546
				c-0.6339264,0.114975-1.2859383,0.1788483-1.9603958,0.1788483c-1.3790703,0-2.7088432-0.2621078-3.9893227-0.7879257
				c-1.2804794-0.5242157-2.3806095-1.2632446-3.2995872-2.2154922c-0.9201832-0.95224-1.6588135-2.0519714-2.2158909-3.2999878
				c-0.5586815-1.2464142-0.8372211-2.5609589-0.8372211-3.9396286V49.7371597h19.1077957
				c1.049633,0,1.9361496-0.3775253,2.6595497-1.1325912c0.7217979-0.7542648,1.0832977-1.6255493,1.0832977-2.6098557
				c0-1.0500336-0.3614998-1.9365501-1.0832977-2.6595497c-0.7234001-0.7221985-1.6099167-1.0836983-2.6595497-1.0836983H13.2450218
				V29.7424431c0-1.0492325-0.3787346-1.9357491-1.1325932-2.6595497c-0.7558632-0.7213974-1.6251469-1.0828972-2.6102543-1.0828972
				c-1.0512352,0-1.9377518,0.3614998-2.6595497,1.0828972c-0.7229996,0.7238007-1.0832977,1.6103172-1.0832977,2.6595497
				v44.0276527c0,2.4303055,0.4757214,4.7275543,1.4283657,6.8941498c0.9510422,2.1665955,2.2315216,4.0550537,3.8410378,5.663765
				c1.6083145,1.60952,3.4967709,2.8735657,5.6633663,3.7921448c2.166996,0.9201813,4.4646416,1.3786697,6.8949471,1.3786697
				c0.0645256,0,0.704567-0.0336609,1.9205208-0.098587c1.2143517-0.0665359,2.6916122-0.4256287,4.4321823-1.082901
				c1.7389641-0.6556702,3.5288315-1.7393646,5.3679924-3.251091c1.6942291-1.3916016,3.1630745-3.3774414,4.4126434-5.9423065
				c0.9262428,1.9706116,2.122612,3.712883,3.6144981,5.204071c1.6083145,1.60952,3.4967728,2.8735657,5.6633682,3.7921448
				c2.166996,0.9201813,4.4646416,1.3786697,6.8949471,1.3786697c3.6763229,0,6.9590759-0.9851074,9.849472-2.9545212
				c2.8883972-1.9702148,5.0229263-4.5311737,6.4020004-7.6828766l0.1971817-0.3935623
				c0.1967773-0.4584885,0.295372-0.9193802,0.295372-1.3794708c0-0.9851074-0.3619003-1.8539886-1.0837021-2.6098557
				c-0.7229996-0.7542572-1.6095123-1.1325912-2.6591492-1.1325912c-0.7879257,0-1.4944916,0.2132111-2.1176987,0.6396408
				c-0.6248093,0.4280243-1.0680695,1.0019379-1.3297729,1.7241364l-0.0981903,0.2957764
				c-0.854454,1.8387604-2.1176987,3.2991867-3.7921448,4.3828812c-1.6744385,1.0837021-3.5628967,1.6247482-5.6633682,1.6247482
				c-1.3790665,0-2.7088394-0.2621078-3.9893188-0.7879257c-1.2804832-0.5242157-2.3806114-1.2632446-3.2995911-2.2154922
				c-0.9201813-0.95224-1.6588135-2.0519714-2.2158928-3.2999878c-0.5586815-1.2464142-0.8372192-2.5609589-0.8372192-3.9396286
				v-3.3488846h24.4264946c1.0496368,0,1.9361496-0.3606949,2.6595535-1.0836945
				c0.7217941-0.7213974,1.0832977-1.6079178,1.0832977-2.6595535v-7.0913315c0-2.4287033-0.4769287-4.7283554-1.4279633-6.8941498
				C71.3399124,50.5250854,70.059433,48.638237,68.4511185,47.0287132z M66.2348251,62.9355164h-20.683651v-3.3488846
				c0-1.3794708,0.2617073-2.6916122,0.7879257-3.9396286c0.5246162-1.2472153,1.2636452-2.3469391,2.215889-3.2999878
				c0.9514427-0.9514389,2.0515747-1.6896744,3.2995872-2.2162933c1.2468185-0.5242157,2.5934219-0.7871246,4.03862-0.7871246
				c1.3786697,0,2.7084503,0.2629089,3.9889297,0.7871246c1.2804794,0.526619,2.3794022,1.2648544,3.2995834,2.2162933
				c0.9185791,0.9530487,1.6576157,2.0527725,2.2158966,3.2999878c0.5574799,1.2480164,0.8372192,2.5601578,0.8372192,3.9396286
				V62.9355164z"/>
			<path class="st0" d="M84.5542984,26.098587c-1.051239,0-1.9377518,0.3614998-2.6595535,1.0836983
				c-0.7229996,0.7229996-1.0832977,1.6095161-1.0832977,2.6587486v57.5209808c0,1.0508347,0.3771286,1.937355,1.1325912,2.6595535
				c0.7542648,0.7229996,1.6251526,1.0828934,2.61026,1.0828934c1.0496292,0,1.9361496-0.3598938,2.6591492-1.0828934
				c0.7217941-0.7221985,1.0836945-1.6087189,1.0836945-2.6595535V29.8410339c0-1.0492325-0.3787308-1.9357491-1.1325912-2.6587486
				C86.4086838,26.4600868,85.5394058,26.098587,84.5542984,26.098587z"/>
			<path class="st0" d="M124.7890167,47.0287132c-1.6099243-1.607914-3.4963837-2.8719597-5.6633759-3.792141
				c-2.1669922-0.9193802-4.4662552-1.3794708-6.8945541-1.3794708c-2.4964371,0-4.8109131,0.4600906-6.9438477,1.3794708
				c-2.1349335,0.9201813-4.0229874,2.184227-5.663765,3.792141c-1.641983,1.6095238-2.9224625,3.4963722-3.8410339,5.6637688
				c-0.9205856,2.1657944-1.3790741,4.4654465-1.3790741,6.8941498v14.1834641c0,2.4303055,0.4757233,4.7275543,1.4283676,6.8941498
				c0.9510422,2.1665955,2.2315216,4.0550537,3.8410339,5.663765c1.6083145,1.60952,3.4967728,2.8735657,5.6633682,3.7921448
				c2.1669922,0.9201813,4.4646454,1.3786697,6.8949509,1.3786697c3.6763229,0,6.9590836-0.9851074,9.8494797-2.9545212
				c2.8883972-1.9702148,5.0229187-4.5311737,6.4019928-7.6828766l0.1971893-0.3935623
				c0.1967773-0.4584885,0.2953644-0.9193802,0.2953644-1.3794708c0-0.9851074-0.3618927-1.8539886-1.0836945-2.6098557
				c-0.7230072-0.7542572-1.6095123-1.1325912-2.6591492-1.1325912c-0.7879333,0-1.4944916,0.2132111-2.1177063,0.6396408
				c-0.6248016,0.4280243-1.0680695,1.0019379-1.3297729,1.7241364l-0.0981903,0.2957764
				c-0.8544464,1.8387604-2.117691,3.2991867-3.7921448,4.3828812c-1.6744385,1.0837021-3.5629044,1.6247482-5.6633682,1.6247482
				c-1.3790741,0-2.708847-0.2621078-3.9893265-0.7879257c-1.2804794-0.5242157-2.3806076-1.2632446-3.2995911-2.2154922
				c-0.9201813-0.95224-1.6588058-2.0519714-2.215889-3.2999878c-0.5586777-1.2464142-0.8372192-2.5609589-0.8372192-3.9396286
				v-3.3488846h24.426506c1.0496368,0,1.936142-0.3606949,2.6595459-1.0836945
				c0.7218018-0.7213974,1.0832977-1.6079178,1.0832977-2.6595535v-7.0913315c0-2.4287033-0.4769135-4.7283554-1.4279633-6.8941498
				C127.6778107,50.5250854,126.3973236,48.638237,124.7890167,47.0287132z M122.5727234,62.9355164H101.889061v-3.3488846
				c0-1.3794708,0.2617035-2.6916122,0.7879257-3.9396286c0.5246124-1.2472153,1.263649-2.3469391,2.215889-3.2999878
				c0.9514465-0.9514389,2.0515747-1.6896744,3.2995911-2.2162933c1.2468109-0.5242157,2.5934219-0.7871246,4.03862-0.7871246
				c1.3786697,0,2.7084579,0.2629089,3.9889297,0.7871246c1.2804871,0.526619,2.3794098,1.2648544,3.2995911,2.2162933
				c0.9185791,0.9530487,1.657608,2.0527725,2.2158966,3.2999878c0.5574799,1.2480164,0.8372192,2.5601578,0.8372192,3.9396286
				V62.9355164z"/>
			<path class="st0" d="M167.4363861,47.0287132c-1.6095123-1.607914-3.4963684-2.8719597-5.6633606-3.792141
				c-2.1670074-0.9193802-4.4662476-1.3794708-6.8945465-1.3794708c-2.4964447,0-4.8109283,0.4600906-6.9438477,1.3794708
				c-2.1345367,0.9201813-4.022995,2.184227-5.6633759,3.792141c-1.6423798,1.6095238-2.9228516,3.4963722-3.8414307,5.6637688
				c-0.9201813,2.1657944-1.3790741,4.4654465-1.3790741,6.8941498v14.9705887v30.1399612
				c0,1.0500336,0.3603058,1.9365463,1.0836945,2.6595459c0.7218018,0.7213974,1.6079254,1.0837021,2.6591492,1.0837021
				c0.9851074,0,1.8544006-0.3623047,2.61026-1.0837021c0.7538605-0.7229996,1.1325989-1.6095123,1.1325989-2.6595459V88.1499405
				c1.4435883,1.0516357,3.0535126,1.8716278,4.8261414,2.4623718c1.7730255,0.5915451,3.6105957,0.8865128,5.5158844,0.8865128
				c2.428299,0,4.7275391-0.4584885,6.8945465-1.3786697c2.1669922-0.9185791,4.0706787-2.1826248,5.7126617-3.7921448
				c1.6407776-1.6087112,2.9208527-3.4971695,3.8414307-5.663765c0.9185791-2.1665955,1.3786774-4.4638443,1.3786774-6.8941498
				V59.5866318c0-2.4287033-0.4769287-4.7283554-1.4279633-6.8941498
				C170.3251801,50.5250854,169.0447083,48.638237,167.4363861,47.0287132z M165.2205048,73.7700958
				c0,1.3786697-0.2633209,2.6932144-0.7879333,3.9396286c-0.5266266,1.2480164-1.2652435,2.3477478-2.2162933,3.2999878
				c-0.9526367,0.9522476-2.0531769,1.6912766-3.2995911,2.2154922c-1.2480164,0.5258179-2.5946198,0.7879257-4.038208,0.7879257
				c-1.3790741,0-2.708847-0.2621078-3.9889374-0.7879257c-1.2804718-0.5242157-2.3809967-1.2632446-3.2995758-2.2154922
				c-0.9205933-0.95224-1.6592255-2.0519714-2.2162933-3.2999878c-0.5586853-1.2464142-0.8372192-2.5609589-0.8372192-3.9396286
				V59.5866318c0-1.3794708,0.2617035-2.6916122,0.7879181-3.9396286c0.5250244-1.2472153,1.2636414-2.3469391,2.2162933-3.2999878
				c0.9510345-0.9514389,2.051178-1.6896744,3.2995911-2.2162933c1.2464142-0.5242157,2.5930176-0.7871246,4.0382233-0.7871246
				c1.3790588,0,2.7084351,0.2629089,3.9889221,0.7871246c1.2804718,0.526619,2.3794098,1.2648544,3.2995911,2.2162933
				c0.9189758,0.9530487,1.657608,2.0527725,2.2162781,3.2999878c0.5570831,1.2480164,0.8372345,2.5601578,0.8372345,3.9396286
				V73.7700958z"/>
		</g>
		<g>
			<path class="st0" d="M178.1052399,59.9152679c0-2.4287033,0.4584961-4.727951,1.3786774-6.8945465
				c0.9185791-2.1669998,2.1994629-4.0538483,3.8410339-5.6637726c1.6407776-1.607914,3.5292358-2.8715591,5.6637726-3.7917404
				c2.1329193-0.9189796,4.4478149-1.3790703,6.9438477-1.3790703c2.4286957,0,4.7275543,0.4600906,6.8941498,1.3790703
				c2.1673889,0.9201813,4.054245,2.1838264,5.6637573,3.7917404c1.6079102,1.6099243,2.8887939,3.4967728,3.8410339,5.6637726
				c0.9514465,2.1665955,1.4283752,4.4658432,1.4283752,6.8945465v27.775383c0,1.051239-0.3783417,1.9377518-1.1325989,2.6595535
				c-0.7558594,0.7229996-1.6255493,1.0832977-2.609848,1.0832977c-0.92099,0-1.7241364-0.2785416-2.4134827-0.8372269
				c-0.6893311-0.5570755-1.1005249-1.2636414-1.2311707-2.1176987c-3.0210571,2.2331238-6.5005951,3.3488846-10.4402161,3.3488846
				c-2.4303131,0-4.7275543-0.4584885-6.8949585-1.3790665c-2.1665955-0.9185791-4.0550537-2.1822281-5.6629639-3.791748
				c-1.610321-1.6083145-2.8903961-3.4967651-3.8418427-5.663765c-0.95224-2.1665955-1.4275665-4.464241-1.4275665-6.8945465
				V59.9152679z M185.5901337,74.0983353c0,1.3790665,0.2789459,2.6932144,0.8376312,3.9400253
				c0.5570679,1.2480164,1.2961121,2.3481445,2.2162933,3.2995911c0.9185791,0.9526443,2.019104,1.6912766,3.2991791,2.215889
				c1.2808838,0.5262222,2.6098633,0.7879257,3.9893341,0.7879257c1.3786621,0,2.6916046-0.2460785,3.939621-0.7386322
				c1.2464142-0.4925537,2.3301086-1.1818848,3.2502899-2.0684052c0.9185791-0.8865128,1.657608-1.920517,2.2162933-3.1024017
				c0.5570831-1.1818924,0.8696899-2.4623718,0.9354095-3.8414383v-14.675621c0-1.3790665-0.2797394-2.6916122-0.8368225-3.9400253
				c-0.55867-1.2464142-1.297699-2.3469467-2.2162781-3.2995911c-0.9201813-0.9510422-2.0191193-1.6896744-3.3000031-2.215889
				c-1.2800751-0.5250168-2.609848-0.7879257-3.9885101-0.7879257c-1.4452057,0-2.7918091,0.2629089-4.0382233,0.7879257
				c-1.2480164,0.5262146-2.3485565,1.2648468-3.2999878,2.215889c-0.9522552,0.9526443-1.6912842,2.0531769-2.2162933,3.2995911
				c-0.5258179,1.2484131-0.7879333,2.5609589-0.7879333,3.9400253V74.0983353z"/>
			<path class="st0" d="M219.6697235,59.9152679c0-2.4948273,0.4753265-4.8261414,1.4275665-6.9931412
				c0.9514465-2.1669922,2.2659912-4.0382156,3.9396362-5.6140709c1.6744385-1.576252,3.6109924-2.8226662,5.8112488-3.7428474
				c2.1994629-0.9189796,4.546402-1.3790703,7.0424347-1.3790703c0.4584808,0,1.3626404,0.0829582,2.7092438,0.2460747
				c1.3450012,0.1647186,2.8391113,0.6079788,4.4814758,1.3297768c1.6399841,0.7234001,3.2655334,1.8223267,4.8750305,3.2995872
				c1.6087341,1.4776688,2.9377136,3.5304413,3.9893494,6.1559219c0.1971741,0.5262222,0.2949524,0.9851074,0.2949524,1.3790741
				c0,1.0508347-0.3614807,1.9373474-1.0828857,2.6591492c-0.7238159,0.7233963-1.610321,1.0836945-2.6595459,1.0836945
				c-0.7879333,0-1.4941101-0.21241-2.1177063-0.6404343c-0.6244202-0.4260254-1.0676575-1.0003433-1.3297729-1.7237396
				c-0.9201965-1.9698181-2.2331238-3.5116043-3.9396362-4.6289673c-1.7080994-1.1157608-3.5797272-1.6744385-5.6140747-1.6744385
				c-1.4451904,0-2.7917938,0.2629089-4.038208,0.7879257c-1.2480164,0.5262146-2.3485565,1.2648468-3.2999878,2.215889
				c-0.9522552,0.9526443-1.6912842,2.0531769-2.2162933,3.2995911c-0.5258179,1.2484131-0.7879333,2.5609589-0.7879333,3.9400253
				v14.1830673c0,1.3790665,0.2789459,2.6932144,0.8376312,3.9400253c0.5570679,1.2480164,1.2960968,2.3481445,2.2162781,3.2995911
				c0.9185791,0.9526443,2.0191193,1.6912766,3.2991943,2.215889c1.2808838,0.5262222,2.609848,0.7879257,3.9893188,0.7879257
				c2.1008759,0,4.0045624-0.5570755,5.712677-1.6744385c1.7064819-1.1157608,2.9873657-2.6591492,3.8410339-4.6289673
				c0.3278198-0.7217941,0.7879333-1.2961044,1.3786621-1.7237396c0.5915527-0.4264221,1.2808838-0.6404343,2.0688171-0.6404343
				c1.0492249,0,1.93573,0.3787308,2.6595459,1.132988c0.721405,0.7554626,1.0828857,1.6251526,1.0828857,2.6098557
				c0,0.4600906-0.0977783,0.9205856-0.2949524,1.3790741c-1.3145447,2.8899918-2.8904114,5.0894547-4.7275696,6.5991745
				c-1.8395691,1.5113297-3.629425,2.5946274-5.367981,3.2502975c-1.7409821,0.6572723-3.2182465,1.0171661-4.4325867,1.0832977
				c-1.2159576,0.0649261-1.8563995,0.098587-1.9205322,0.098587c-2.4302979,0-4.7275543-0.4584885-6.8949432-1.3790665
				c-2.1665955-0.9185791-4.0550537-2.1822281-5.6629639-3.791748c-1.610321-1.6083145-2.8903961-3.4967651-3.8418427-5.663765
				c-0.95224-2.1665955-1.4275665-4.464241-1.4275665-6.8945465V59.9152679z"/>
		</g>
	</g>
	<g>
		<path class="st0" d="M40.099987,219.3999939L35.7999878,218c-0.9000015-0.3000031-1.5-1.1000061-1.5999985-2
			s0.5-1.8000031,1.2999992-2.1999969l4.0999985-1.8999939l1.4000015,3l0.4000015,0.1000061l-0.0999985,0.5l0.2000008,0.3999939
			l-0.4000015,0.1999969L40.099987,219.3999939z"/>
		<path class="st0" d="M101.0999832,238.8000031l-7.5999985-2.3999939l1.4000015-4.3000031L102.4999847,234.5
			L101.0999832,238.8000031z M85.8999863,234l-7.5999985-2.3999939l1.4000015-4.3000031l7.5999985,2.3999939L85.8999863,234z
			 M70.5999832,229.1000061l-7.5999985-2.3999939l1.4000015-4.3000031l7.5999985,2.3999939L70.5999832,229.1000061z
			 M55.3999863,224.1999969l-7.5999985-2.3999939L49.1999893,217.5l7.5999985,2.3999939L55.3999863,224.1999969z"/>
		<path class="st0" d="M113.6999893,242.7000122c-0.1999969,0-0.5,0-0.6999969-0.1000061l-4.3000031-1.3999939l1.4000015-4.3000031
			l3.4000015,1.1000061l3.0999985-1.6999969l2.1999969,3.8999939l-3.8999939,2.2000122
			C114.4999847,242.6000061,114.0999832,242.7000122,113.6999893,242.7000122z"/>
		<path class="st0" d="M126.5999756,235.8999939L124.3999786,232l7.8000031-4.3999939L134.3999786,231.5L126.5999756,235.8999939z
			 M142.2999725,227.1999969l-2.1999969-3.8999939l7.8000031-4.3999939l2.1999969,3.8999939L142.2999725,227.1999969z
			 M157.9999847,218.5l-2.1999969-3.8999939l7.8000031-4.3999939l2.1999969,3.8999939L157.9999847,218.5z M173.6999817,209.6999969
			l-2.1999969-3.8999939l7.8000031-4.3999939l2.1999969,3.8999939L173.6999817,209.6999969z M189.3999786,201l-2.1999969-3.8999939
			l7.8000031-4.3999939l2.1999969,3.8999939L189.3999786,201z M205.0999756,192.3000031l-2.1999969-3.8999939l7.8000031-4.3999939
			l2.1999969,3.8999939L205.0999756,192.3000031z"/>
		<path class="st0" d="M220.7999725,183.6000061l-1.6999969-3L218.6999817,180.5l0.1000061-0.3999939l-0.1999969-0.3999939
			l0.3999939-0.1999969l0.8999939-3.3000031l4.3999939,1.1000061c0.8999939,0.1999969,1.5,1,1.6999969,1.8999939
			c0.1000061,0.8999939-0.3000031,1.8000031-1.1000061,2.1999969L220.7999725,183.6000061z"/>
		<path class="st0" d="M49.7999878,212.1000061L47.8999863,208l8.3000031-3.8999939l1.9000015,4.1000061L49.7999878,212.1000061z
			 M66.3999863,204.3000031l-1.9000015-4.1000061l8.3000031-3.8999939l1.9000015,4.1000061L66.3999863,204.3000031z
			 M83.0999832,196.5l-1.9000015-4.1000061L89.4999847,188.5l1.9000015,4.1000061L83.0999832,196.5z M99.6999893,188.6999969
			l-1.9000015-4.1000061l8.3000031-3.8999939l1.9000015,4.1000061L99.6999893,188.6999969z M116.2999725,180.8999939
			l-1.8999939-4.1000061l8.2999878-3.8999939L124.5999603,177L116.2999725,180.8999939z M209.7999725,178.1000061
			l-8.8999939-2.3000031l1.1000061-4.3999939l8.8999939,2.3000031L209.7999725,178.1000061z M192.0999756,173.5
			l-8.8999939-2.3000031l1.1000061-4.3999939l8.8999939,2.3000031L192.0999756,173.5z M132.8999786,173.1000061L130.9999847,169
			l8.3000031-3.8999939l1.8999939,4.1000061L132.8999786,173.1000061z M174.2999725,168.8000031L165.3999786,166.5
			l1.1000061-4.3999939l8.8999939,2.3000031L174.2999725,168.8000031z M149.4999847,165.1999969l-1.8999939-4.1000061
			l4.8000031-2.1999969c0.5-0.1999969,1-0.3000031,1.5-0.1000061l3.8000031,1l-1.1000061,4.3999939l-3-0.8000031
			L149.4999847,165.1999969z"/>
	</g>
</g>
</svg>
