<?xml version="1.0" encoding="utf-8"?>
<!-- Generator: Adobe Illustrator 22.1.0, SVG Export Plug-In . SVG Version: 6.00 Build 0)  -->
<svg version="1.1" id="Calque_1" xmlns="http://www.w3.org/2000/svg" xmlns:xlink="http://www.w3.org/1999/xlink" x="0px" y="0px"
	 viewBox="0 0 260 260" style="enable-background:new 0 0 260 260;" xml:space="preserve">
<style type="text/css">
	.st0{fill:#666666;}
</style>
<g>
	<path class="st0" d="M157.1999817,47.2000008L157.5999756,46c0.7000122-2.2000008-0.5-4.5-2.6999817-5.2000008l-30.9000015-10
		c-2.1999969-0.7000008-4.5,0.5-5.1999969,2.5999985l-0.3999939,1.2000008c-0.6999969,2.2000008-3,3.4000015-5.1999969,2.5999985
		L67.5999832,22.5c-2.1999969-0.7000008-4.5,0.5-5.1999969,2.7000008L52.0999832,57.0999985
		c-0.6999969,2.1999969,0.5,4.5,2.6999969,5.1999969l31.5999985,10.3000031
		c2.1999969,0.6999969,3.4000015,3.0999985,2.5999985,5.3000031c-0.0999985,0.1999969-0.0999985,0.3000031-0.1999969,0.5
		c-1.4000015,4.5,1,9.6999969,6.8000031,14.6999969c4.0999985,3.5,9.5999985,6.6999969,15.9000015,9.1999969
		c2,0.8000031,3,3,2.4000015,5.0999985l-3.5999985,11.1999969c-0.3000031,1-1.0999985,1.8999939-2.0999985,2.3999939
		c-1.0999985,0.6000061-2,1.5-2.4000015,2.8000031c-0.8000031,2.6000061,0.5999985,5.3000031,3.0999985,6.1999969
		c2.5999985,0.8000031,5.3000031-0.6000061,6.1999969-3.1999969c0.3999939-1.3000031,0.3000031-2.5-0.3000031-3.6000061
		c-0.5-1-0.5999985-2.1000061-0.3000031-3.1999969l3.6000061-11.1999969c0.6999969-2,2.8000031-3.1999969,4.8999939-2.6999969
		c11.7000046,2.8000031,22.4999924,2.4000015,28.3000107-1.1999969c2.1999817-1.4000015,3.6000061-3.0999985,4.2999878-5.1999969
		l0,0c0.7000122-2.1999969,3-3.5,5.2000122-2.8000031l31.6999817,10.3000031c2.2000122,0.6999969,4.5-0.5,5.2000122-2.6999969
		l10.3999939-31.9000015c0.6999817-2.1999969-0.5-4.5-2.7000122-5.1999969l-45.5999756-14.8000031
		C157.5999756,51.6999969,156.3999939,49.4000015,157.1999817,47.2000008z M115.6999893,42.9000015l-8.8000031,27.1999969
		c-3.5999985,0-6.9000015,0.4000015-9.5999985,1.3000031l-1.4000015-0.5l10.0999985-31.2000008L115.6999893,42.9000015z
		 M56.4999847,58.0999985L66.5999832,27l14.3000031,4.5999985L70.7999878,62.8000031L56.4999847,58.0999985z M75.0999832,64.1999969
		L85.1999893,33l16.5,5.4000015L91.5999908,69.6000061L75.0999832,64.1999969z M151.2999878,98.1999969
		c-0.3000183,1-1.1000061,1.9000015-2.3999939,2.8000031c-2.3000183,1.4000015-5.8000183,2.0999985-10,2.3000031
		c-0.7000122,0-1.3000183,0.0999985-2,0c-4.8999939-0.0999985-10.5000076-0.9000015-16.2000046-2.5999985l0.8000031-2.4000015
		L123.6999893,91.5l-2.1000061-0.6999969l-2.1999969-0.6999969l-2.1999969,6.8000031l-0.8000031,2.4000015
		c-5.8000031-2-11-4.5999985-15.0999985-7.5999985c-0.4000015-0.3000031-0.8000031-0.5999985-1.1999969-0.9000015
		c-0.5-0.4000015-1.0999985-0.8000031-1.5999985-1.1999969c-4.3000031-3.6999969-6.3000031-7.3000031-5.5-9.9000015
		c0.3000031-1,1.0999985-1.9000015,2.4000015-2.6999969c0.5-0.3000031,1.1999969-0.5999985,1.8000031-0.9000015
		c2.1999969-0.9000015,4.9000015-1.3000031,8.0999985-1.4000015c0.5999985,0,1.3000031,0,2,0
		c1.6999969,0,3.5,0.0999985,5.4000015,0.4000015c1.5,0.1999969,3.0000076,0.4000015,4.5000076,0.6999969
		c2.6999969,0.5,5.6000061,1.1999969,8.3999939,2.0999985c2.9000015,0.9000015,5.6000137,2,8.1999893,3.1999969
		c1.3999939,0.5999985,2.8000183,1.3000031,4.1000061,2c1.8000183,1,3.5,2,5,3.0999985
		c0.3999939,0.3000031,0.8000183,0.5999985,1.2000122,0.9000015c0.5,0.4000015,1.1000061,0.8000031,1.6000061,1.1999969
		c2,1.6999969,3.5,3.4000015,4.3999939,5C151.2999878,95.0999985,151.7999878,96.8000031,151.2999878,98.1999969z
		 M153.0999756,89.4000015c-1.1000061-1.5-2.6000061-3.0999985-4.2999878-4.5999985
		c-0.8999939-0.8000031-2-1.5999985-3.1000061-2.3000031l8.7999878-27.0999985L164.1999817,58.5l-10.1000061,31.1999969
		L153.0999756,89.4000015z M158.3999939,91.0999985L168.5,60l16.5,5.3000031L174.8999939,96.5L158.3999939,91.0999985z
		 M179.1999817,97.9000015l10.1000061-31.2000046l14.3999939,4.5999985L193.5999756,102.5L179.1999817,97.9000015z"/>
	<g>
		<path class="st0" d="M40.099987,219.3999939L35.7999878,218c-0.9000015-0.3000031-1.5-1.1000061-1.5999985-2
			s0.5-1.8000031,1.2999992-2.1999969l4.0999985-1.8999939l1.4000015,3l0.4000015,0.1000061l-0.0999985,0.5l0.2000008,0.3999939
			l-0.4000015,0.1999969L40.099987,219.3999939z"/>
		<path class="st0" d="M101.0999832,238.8000031l-7.5999985-2.3999939l1.4000015-4.3000031L102.4999847,234.5
			L101.0999832,238.8000031z M85.8999863,234l-7.5999985-2.3999939l1.4000015-4.3000031l7.5999985,2.3999939L85.8999863,234z
			 M70.5999832,229.1000061l-7.5999985-2.3999939l1.4000015-4.3000031l7.5999985,2.3999939L70.5999832,229.1000061z
			 M55.3999863,224.1999969l-7.5999985-2.3999939L49.1999893,217.5l7.5999985,2.3999939L55.3999863,224.1999969z"/>
		<path class="st0" d="M113.6999893,242.7000122c-0.1999969,0-0.5,0-0.6999969-0.1000061l-4.3000031-1.3999939l1.4000015-4.3000031
			l3.4000015,1.1000061l3.1000061-1.6999969l2.1999969,3.8999939l-3.8999939,2.2000122
			C114.4999847,242.6000061,114.0999832,242.7000122,113.6999893,242.7000122z"/>
		<path class="st0" d="M126.5999832,235.8999939L124.3999863,232l7.7999954-4.3999939L134.3999939,231.5L126.5999832,235.8999939z
			 M142.2999878,227.1999969l-2.2000122-3.8999939l7.8000183-4.3999939l2.1999817,3.8999939L142.2999878,227.1999969z M158,218.5
			l-2.2000122-3.8999939l7.8000183-4.3999939l2.1999817,3.8999939L158,218.5z M173.6999817,209.6999969L171.5,205.8000031
			l7.7999878-4.3999939L181.5,205.3000031L173.6999817,209.6999969z M189.3999939,201l-2.2000122-3.8999939L195,192.7000122
			l2.1999817,3.8999939L189.3999939,201z M205.0999756,192.3000031l-2.1999817-3.8999939l7.7999878-4.3999939l2.2000122,3.8999939
			L205.0999756,192.3000031z"/>
		<path class="st0" d="M220.7999878,183.6000061l-1.7000122-3L218.6999817,180.5l0.1000061-0.3999939l-0.1999817-0.3999939
			L219,179.5000153l0.8999939-3.3000031l4.3999939,1.1000061c0.8999939,0.1999969,1.5,1,1.6999817,1.8999939
			c0.1000061,0.8999939-0.2999878,1.8000031-1.1000061,2.1999969L220.7999878,183.6000061z"/>
		<path class="st0" d="M49.7999878,212.1000061L47.8999863,208l8.3000031-3.8999939l1.9000015,4.1000061L49.7999878,212.1000061z
			 M66.3999863,204.3000031l-1.9000015-4.1000061l8.3000031-3.8999939l1.9000015,4.1000061L66.3999863,204.3000031z
			 M83.0999832,196.5l-1.9000015-4.1000061L89.4999847,188.5l1.9000015,4.1000061L83.0999832,196.5z M99.6999893,188.6999969
			l-1.9000015-4.1000061l8.3000031-3.8999939l1.9000015,4.1000061L99.6999893,188.6999969z M116.2999802,180.8999939
			l-1.9000015-4.1000061l8.2999954-3.8999939L124.599968,177L116.2999802,180.8999939z M209.7999878,178.1000061
			l-8.8999939-2.3000031L202,171.4000092l8.8999939,2.3000031L209.7999878,178.1000061z M192.0999756,173.5l-8.8999939-2.3000031
			l1.1000061-4.3999939l8.8999939,2.3000031L192.0999756,173.5z M132.8999939,173.1000061L131,169l8.2999878-3.8999939
			l1.8999939,4.1000061L132.8999939,173.1000061z M174.2999878,168.8000031L165.3999939,166.5L166.5,162.1000061
			l8.8999939,2.3000031L174.2999878,168.8000031z M149.5,165.1999969l-1.8999939-4.1000061l4.7999878-2.1999969
			c0.5-0.1999969,1-0.3000031,1.5-0.1000061l3.8000183,1l-1.1000061,4.3999939l-3-0.8000031L149.5,165.1999969z"/>
	</g>
	<path class="st0" d="M1.9999866,172.6000061l-1.6999998-4.1999969C41.6999855,151.5,85.3999863,143,130.5,143
		c44.6999817,0,88.1000061,8.3999939,129.1999817,25l-1.7000122,4.1999969c-40.5-16.3999939-83.3999939-24.6999969-127.5-24.6999969
		C85.9999847,147.5,42.7999878,155.8999939,1.9999866,172.6000061z"/>
</g>
</svg>
