<?xml version="1.0" encoding="utf-8"?>
<!-- Generator: Adobe Illustrator 23.0.2, SVG Export Plug-In . SVG Version: 6.00 Build 0)  -->
<svg version="1.1" id="Calque_1" xmlns="http://www.w3.org/2000/svg" xmlns:xlink="http://www.w3.org/1999/xlink" x="0px" y="0px"
	 viewBox="0 0 500 500" style="enable-background:new 0 0 500 500;" xml:space="preserve">
<style type="text/css">
	.st0{fill:#FFFFFF;}
	.st1{fill:#FF9D00;}
</style>
<g>
	<path class="st0" d="M250,34.9C131.4,34.9,34.9,131.4,34.9,250S131.4,465.1,250,465.1S465.1,368.6,465.1,250S368.6,34.9,250,34.9z"
		/>
	<g>
		<path class="st1" d="M358.4,235.2v29.6c0,8.1-6.6,14.8-14.8,14.8h-64v64.1c0,8.1-6.6,14.8-14.8,14.8h-29.6
			c-8.2,0-14.8-6.6-14.8-14.8v-64.1h-64c-8.2,0-14.8-6.6-14.8-14.8v-29.6c0-8.2,6.6-14.8,14.8-14.8h64v-64c0-8.2,6.6-14.8,14.8-14.8
			h29.6c8.2,0,14.8,6.6,14.8,14.8v64h64C351.8,220.4,358.4,227.1,358.4,235.2z"/>
	</g>
	<g>
		<path class="st1" d="M250,500C112.1,500,0,387.9,0,250S112.1,0,250,0s250,112.1,250,250S387.9,500,250,500z M250,34.9
			C131.4,34.9,34.9,131.4,34.9,250S131.4,465.1,250,465.1S465.1,368.6,465.1,250S368.6,34.9,250,34.9z"/>
	</g>
</g>
</svg>
