<?xml version="1.0" encoding="utf-8"?>
<!-- Generator: Adobe Illustrator 26.0.2, SVG Export Plug-In . SVG Version: 6.00 Build 0)  -->
<svg version="1.1"
	 id="svg4" inkscape:version="0.92.5 (2060ec1f9f, 2020-04-08)" sodipodi:docname="ufa42-user-cowboy.svg" xmlns:cc="http://creativecommons.org/ns#" xmlns:dc="http://purl.org/dc/elements/1.1/" xmlns:inkscape="http://www.inkscape.org/namespaces/inkscape" xmlns:rdf="http://www.w3.org/1999/02/22-rdf-syntax-ns#" xmlns:sodipodi="http://sodipodi.sourceforge.net/DTD/sodipodi-0.dtd" xmlns:svg="http://www.w3.org/2000/svg"
	 xmlns="http://www.w3.org/2000/svg" xmlns:xlink="http://www.w3.org/1999/xlink" x="0px" y="0px" viewBox="0 0 1000 1000"
	 style="enable-background:new 0 0 1000 1000;" xml:space="preserve">
<style type="text/css">
	.st0{fill:#333333;}
</style>
<sodipodi:namedview  bordercolor="#666666" borderopacity="1" gridtolerance="10" guidetolerance="10" id="namedview6" inkscape:current-layer="svg4" inkscape:cx="228.33898" inkscape:cy="245.15254" inkscape:pageopacity="0" inkscape:pageshadow="2" inkscape:window-height="1016" inkscape:window-maximized="1" inkscape:window-width="1920" inkscape:window-x="0" inkscape:window-y="27" inkscape:zoom="0.4609375" objecttolerance="10" pagecolor="#ffffff" showgrid="false">
	</sodipodi:namedview>
<path id="path2" inkscape:connector-curvature="0" class="st0" d="M729.6,223.5C708.1,126.8,666.4,2,604.3,2
	c-20.2,0-38.4,8.8-53.5,20.5c-29.7,23.2-71.7,23.2-101.4,0C434.3,10.8,416.4,2,396.1,2C332.2,2,292,127.8,270.4,224.4
	c50.9,19.3,124.4,36.1,226.5,36.1C604.1,260.5,678.7,243.3,729.6,223.5L729.6,223.5z M249.1,438.3c0,137.8,111.9,249.9,247.7,249.9
	c137.9,0,247.7-111.6,247.7-249.5C882,359.2,929.2,233.8,930,230.3c5.4-14.9-2.1-30.8-16.9-37.9c-11.4-6.8-29.1-2.5-39.2,10.4
	c-0.7,1.2-87.2,120.1-375.2,120.1c-286.3,0-373.5-117.7-375.2-120.1c-10-12.9-27.7-17.3-42.6-10.5c-15.1,6.8-22.4,23.2-17.1,38
	C64.5,232.2,111.7,358.9,249.1,438.3L249.1,438.3z M933.3,922.4c-25.3-101-116-171.9-220.3-171.9H284.2
	c-104.2,0-194.9,70.9-220.3,172c-9.8,39.3,19.9,77.5,60.4,77.5h746.7C913.4,1000,943.2,961.8,933.3,922.4z"/>
</svg>
