<?xml version="1.0" encoding="utf-8"?>
<!-- Generator: Adobe Illustrator 22.0.1, SVG Export Plug-In . SVG Version: 6.00 Build 0)  -->
<svg version="1.1" id="Calque_1" xmlns="http://www.w3.org/2000/svg" xmlns:xlink="http://www.w3.org/1999/xlink" x="0px" y="0px"
	 viewBox="0 0 954.4 292" style="enable-background:new 0 0 954.4 292;" xml:space="preserve">
<style type="text/css">
	.st0{fill:url(#SVGID_1_);}
	.st1{fill:url(#SVGID_2_);}
	.st2{opacity:0.8;}
	.st3{fill:#FFFFFF;}
	.st4{fill:#333333;}
</style>
<g>
	
		<linearGradient id="SVGID_1_" gradientUnits="userSpaceOnUse" x1="28.5" y1="-728" x2="28.5" y2="-436" gradientTransform="matrix(-1 0 0 -1 506 -436)">
		<stop  offset="0" style="stop-color:#BBBBBB"/>
		<stop  offset="1" style="stop-color:#DCDCDC"/>
	</linearGradient>
	<path class="st0" d="M25.8,282c-8,0-15-7-15-15V25c0-8,7-15,15-15h903.5c8,0,15,7,15,15v242c0,8-7,15-15,15H25.8z M929.2,292
		c14,0,25-11,25-25V25c0-14-11-25-25-25H25.8c-14,0-25,11-25,25v242c0,14,11,25,25,25H929.2z"/>
</g>
<linearGradient id="SVGID_2_" gradientUnits="userSpaceOnUse" x1="28.45" y1="1012" x2="28.45" y2="740" gradientTransform="matrix(-1 0 0 1 506 -730)">
	<stop  offset="0" style="stop-color:#E8E8E8"/>
	<stop  offset="1" style="stop-color:#F9F9F9"/>
</linearGradient>
<path class="st1" d="M25.8,282c-8,0-15-7-15-15V25c0-8,7-15,15-15h903.5c8,0,15,7,15,15v242c0,8-7,15-15,15H25.8z"/>
<g>
	<g>
		<g class="st2">
			<path class="st3" d="M402.5,102.4v15h-44.9v28.1h35.4V160h-35.4v28.6h44.9v15h-63.8V102.4H402.5z"/>
			<path class="st3" d="M434.8,166.6l-23.6-34.8h16.7c1.3,0,2.2,0.2,2.8,0.5c0.6,0.4,1.1,0.9,1.6,1.7l15,24c0.2-0.8,0.5-1.6,0.9-2.4
				c0.4-0.8,0.8-1.6,1.3-2.4l12.1-18.9c0.6-0.9,1.1-1.5,1.8-2c0.6-0.4,1.4-0.6,2.2-0.6h15.9l-23.7,34l24.6,37.8h-16.7
				c-1.3,0-2.3-0.3-3-1c-0.8-0.7-1.4-1.4-1.9-2.2l-15.3-25c-0.4,1.7-1,3.1-1.8,4.2l-13.4,20.8c-0.5,0.8-1.1,1.5-1.9,2.2
				c-0.7,0.7-1.7,1-2.8,1h-15.5L434.8,166.6z"/>
			<path class="st3" d="M493.4,227.1v-95.3H504c1.1,0,2.1,0.3,2.9,0.8c0.8,0.5,1.3,1.3,1.5,2.4l1.4,6.6c2.9-3.3,6.2-6,10-8
				c3.8-2.1,8.2-3.1,13.2-3.1c3.9,0,7.5,0.8,10.7,2.4c3.2,1.6,6,4,8.4,7.1c2.4,3.1,4.2,6.9,5.5,11.5c1.3,4.6,1.9,9.8,1.9,15.6
				c0,5.4-0.7,10.3-2.2,14.9c-1.4,4.6-3.5,8.5-6.2,11.9c-2.7,3.4-5.9,6-9.7,7.9c-3.8,1.9-8.1,2.8-12.8,2.8c-4.1,0-7.5-0.6-10.3-1.9
				c-2.8-1.2-5.4-3-7.6-5.1v29.4H493.4z M527,144.2c-3.6,0-6.7,0.8-9.2,2.3c-2.5,1.5-4.9,3.7-7.1,6.4V185c2,2.4,4.1,4.1,6.4,5.1
				c2.3,1,4.8,1.4,7.5,1.4c2.6,0,5-0.5,7.1-1.5c2.1-1,3.9-2.5,5.4-4.5c1.5-2,2.6-4.5,3.4-7.6c0.8-3.1,1.2-6.7,1.2-10.8
				c0-4.2-0.3-7.8-1-10.7c-0.7-2.9-1.6-5.3-2.9-7.1c-1.3-1.8-2.8-3.1-4.6-4C531.3,144.6,529.3,144.2,527,144.2z"/>
			<path class="st3" d="M602.2,130.7c4.5,0,8.7,0.7,12.5,2.2c3.8,1.4,7.1,3.6,9.8,6.3c2.8,2.8,4.9,6.2,6.4,10.2
				c1.5,4,2.3,8.6,2.3,13.8c0,1.3-0.1,2.4-0.2,3.3c-0.1,0.9-0.3,1.5-0.6,2c-0.3,0.5-0.7,0.8-1.2,1s-1.2,0.3-2,0.3h-44.4
				c0.5,7.4,2.5,12.8,6,16.2c3.5,3.5,8,5.2,13.7,5.2c2.8,0,5.2-0.3,7.2-1s3.8-1.4,5.3-2.2c1.5-0.8,2.8-1.5,4-2.2
				c1.1-0.7,2.2-1,3.3-1c0.7,0,1.3,0.1,1.8,0.4c0.5,0.3,1,0.7,1.3,1.2l5,6.3c-1.9,2.2-4.1,4.1-6.4,5.6c-2.4,1.5-4.9,2.7-7.5,3.6
				c-2.6,0.9-5.2,1.6-7.9,1.9c-2.7,0.4-5.3,0.6-7.8,0.6c-5,0-9.6-0.8-13.9-2.5c-4.3-1.7-8-4.1-11.2-7.3c-3.2-3.2-5.7-7.3-7.5-12
				c-1.8-4.8-2.7-10.3-2.7-16.6c0-4.9,0.8-9.5,2.4-13.8c1.6-4.3,3.9-8.1,6.8-11.3c3-3.2,6.6-5.7,10.8-7.6
				C592.1,131.7,596.9,130.7,602.2,130.7z M602.6,143.1c-5,0-9,1.4-11.8,4.3c-2.8,2.8-4.7,6.9-5.5,12.1h32.5c0-2.2-0.3-4.4-0.9-6.3
				c-0.6-2-1.5-3.7-2.8-5.2c-1.3-1.5-2.8-2.7-4.8-3.5C607.4,143.6,605.2,143.1,602.6,143.1z M626.9,101.3l-17.3,18.3
				c-0.9,0.9-1.7,1.6-2.6,1.9s-1.9,0.5-3.2,0.5h-10.4l9.9-17c0.7-1.2,1.5-2.1,2.4-2.8s2.3-0.9,4.2-0.9H626.9z"/>
			<path class="st3" d="M697.9,203.7c-2.2,0-3.7-1-4.4-3.2l-1.4-6.9c-1.5,1.7-3.1,3.2-4.7,4.5c-1.6,1.4-3.4,2.5-5.3,3.5
				c-1.9,1-3.9,1.7-6.1,2.3c-2.2,0.5-4.5,0.8-7,0.8c-3.9,0-7.5-0.8-10.8-2.5c-3.3-1.6-6.1-4-8.4-7.1c-2.4-3.1-4.2-6.9-5.5-11.5
				c-1.3-4.6-1.9-9.8-1.9-15.7c0-5.3,0.7-10.3,2.2-14.8c1.4-4.6,3.5-8.5,6.2-11.9c2.7-3.4,6-6,9.7-7.9c3.8-1.9,8-2.8,12.7-2.8
				c4,0,7.4,0.6,10.3,1.9c2.8,1.3,5.4,3,7.6,5.1V99.6h17.3v104H697.9z M674.9,191c3.6,0,6.7-0.7,9.2-2.2c2.5-1.5,4.9-3.6,7.1-6.4
				v-32.2c-2-2.4-4.1-4.1-6.4-5c-2.3-1-4.8-1.5-7.5-1.5c-2.6,0-5,0.5-7.1,1.5c-2.1,1-3.9,2.5-5.4,4.4c-1.5,2-2.6,4.5-3.4,7.6
				c-0.8,3.1-1.2,6.7-1.2,10.8c0,4.2,0.3,7.8,1,10.7c0.7,2.9,1.6,5.3,2.9,7.1s2.8,3.2,4.6,4C670.6,190.6,672.7,191,674.9,191z"/>
			<path class="st3" d="M748.2,110.9c0,1.5-0.3,2.9-0.9,4.2c-0.6,1.3-1.4,2.4-2.4,3.4c-1,1-2.2,1.8-3.5,2.3
				c-1.4,0.6-2.8,0.9-4.3,0.9c-1.5,0-2.9-0.3-4.2-0.9c-1.3-0.6-2.5-1.4-3.5-2.3c-1-1-1.8-2.1-2.3-3.4c-0.6-1.3-0.9-2.7-0.9-4.2
				c0-1.5,0.3-3,0.9-4.3c0.6-1.4,1.4-2.5,2.3-3.5c1-1,2.1-1.8,3.5-2.3c1.3-0.6,2.7-0.9,4.2-0.9c1.5,0,3,0.3,4.3,0.9
				c1.4,0.6,2.5,1.4,3.5,2.3c1,1,1.8,2.1,2.4,3.5C747.9,107.9,748.2,109.4,748.2,110.9z M745.6,131.9v71.8h-17.3v-71.8H745.6z"/>
			<path class="st3" d="M794.8,130.7c4.5,0,8.7,0.7,12.5,2.2c3.8,1.4,7.1,3.6,9.8,6.3c2.8,2.8,4.9,6.2,6.4,10.2
				c1.5,4,2.3,8.6,2.3,13.8c0,1.3-0.1,2.4-0.2,3.3c-0.1,0.9-0.3,1.5-0.6,2c-0.3,0.5-0.7,0.8-1.2,1s-1.2,0.3-2,0.3h-44.4
				c0.5,7.4,2.5,12.8,6,16.2c3.5,3.5,8,5.2,13.7,5.2c2.8,0,5.2-0.3,7.2-1s3.8-1.4,5.3-2.2c1.5-0.8,2.8-1.5,4-2.2
				c1.1-0.7,2.2-1,3.3-1c0.7,0,1.3,0.1,1.8,0.4c0.5,0.3,1,0.7,1.3,1.2l5,6.3c-1.9,2.2-4.1,4.1-6.4,5.6c-2.4,1.5-4.9,2.7-7.5,3.6
				c-2.6,0.9-5.2,1.6-7.9,1.9c-2.7,0.4-5.3,0.6-7.8,0.6c-5,0-9.6-0.8-13.9-2.5c-4.3-1.7-8-4.1-11.2-7.3c-3.2-3.2-5.7-7.3-7.5-12
				c-1.8-4.8-2.7-10.3-2.7-16.6c0-4.9,0.8-9.5,2.4-13.8c1.6-4.3,3.9-8.1,6.8-11.3c3-3.2,6.6-5.7,10.8-7.6
				C784.6,131.7,789.4,130.7,794.8,130.7z M795.2,143.1c-5,0-9,1.4-11.8,4.3c-2.8,2.8-4.7,6.9-5.5,12.1h32.5c0-2.2-0.3-4.4-0.9-6.3
				c-0.6-2-1.5-3.7-2.8-5.2c-1.3-1.5-2.8-2.7-4.8-3.5C800,143.6,797.7,143.1,795.2,143.1z"/>
			<path class="st3" d="M840,203.7v-71.8h10.1c1.8,0,3,0.3,3.7,1c0.7,0.7,1.2,1.8,1.4,3.4l1,8.7c2.6-4.4,5.6-7.9,9-10.5
				c3.5-2.6,7.3-3.9,11.6-3.9c3.5,0,6.5,0.8,8.8,2.4l-2.2,13c-0.1,0.8-0.4,1.4-0.9,1.8c-0.5,0.3-1.1,0.5-1.9,0.5
				c-0.7,0-1.7-0.2-2.9-0.5c-1.2-0.3-2.8-0.5-4.8-0.5c-3.6,0-6.7,1-9.2,3c-2.6,2-4.7,4.9-6.5,8.7v44.7H840z"/>
		</g>
		<g>
			<g>
				<path class="st4" d="M392.5,92.4v15h-44.9v28.1h35.4V150h-35.4v28.6h44.9v15h-63.8V92.4H392.5z"/>
				<path class="st4" d="M424.8,156.6l-23.6-34.8h16.7c1.3,0,2.2,0.2,2.8,0.5c0.6,0.4,1.1,0.9,1.6,1.7l15,24
					c0.2-0.8,0.5-1.6,0.9-2.4c0.4-0.8,0.8-1.6,1.3-2.4l12.1-18.9c0.6-0.9,1.1-1.5,1.8-2c0.6-0.4,1.4-0.6,2.2-0.6h15.9l-23.7,34
					l24.6,37.8h-16.7c-1.3,0-2.3-0.3-3-1c-0.8-0.7-1.4-1.4-1.9-2.2l-15.3-25c-0.4,1.7-1,3.1-1.8,4.2l-13.4,20.8
					c-0.5,0.8-1.1,1.5-1.9,2.2c-0.7,0.7-1.7,1-2.8,1h-15.5L424.8,156.6z"/>
				<path class="st4" d="M483.4,217.1v-95.3H494c1.1,0,2.1,0.3,2.9,0.8c0.8,0.5,1.3,1.3,1.5,2.4l1.4,6.6c2.9-3.3,6.2-6,10-8
					c3.8-2.1,8.2-3.1,13.2-3.1c3.9,0,7.5,0.8,10.7,2.4c3.2,1.6,6,4,8.4,7.1c2.4,3.1,4.2,6.9,5.5,11.5c1.3,4.6,1.9,9.8,1.9,15.6
					c0,5.4-0.7,10.3-2.2,14.9c-1.4,4.6-3.5,8.5-6.2,11.9c-2.7,3.4-5.9,6-9.7,7.9c-3.8,1.9-8.1,2.8-12.8,2.8c-4.1,0-7.5-0.6-10.3-1.9
					c-2.8-1.2-5.4-3-7.6-5.1v29.4H483.4z M517,134.2c-3.6,0-6.7,0.8-9.2,2.3c-2.5,1.5-4.9,3.7-7.1,6.4V175c2,2.4,4.1,4.1,6.4,5.1
					c2.3,1,4.8,1.4,7.5,1.4c2.6,0,5-0.5,7.1-1.5c2.1-1,3.9-2.5,5.4-4.5c1.5-2,2.6-4.5,3.4-7.6c0.8-3.1,1.2-6.7,1.2-10.8
					c0-4.2-0.3-7.8-1-10.7c-0.7-2.9-1.6-5.3-2.9-7.1c-1.3-1.8-2.8-3.1-4.6-4C521.3,134.6,519.3,134.2,517,134.2z"/>
				<path class="st4" d="M592.2,120.7c4.5,0,8.7,0.7,12.5,2.2c3.8,1.4,7.1,3.6,9.8,6.3c2.8,2.8,4.9,6.2,6.4,10.2
					c1.5,4,2.3,8.6,2.3,13.8c0,1.3-0.1,2.4-0.2,3.3c-0.1,0.9-0.3,1.5-0.6,2c-0.3,0.5-0.7,0.8-1.2,1s-1.2,0.3-2,0.3h-44.4
					c0.5,7.4,2.5,12.8,6,16.2c3.5,3.5,8,5.2,13.7,5.2c2.8,0,5.2-0.3,7.2-1s3.8-1.4,5.3-2.2c1.5-0.8,2.8-1.5,4-2.2
					c1.1-0.7,2.2-1,3.3-1c0.7,0,1.3,0.1,1.8,0.4c0.5,0.3,1,0.7,1.3,1.2l5,6.3c-1.9,2.2-4.1,4.1-6.4,5.6c-2.4,1.5-4.9,2.7-7.5,3.6
					c-2.6,0.9-5.2,1.6-7.9,1.9c-2.7,0.4-5.3,0.6-7.8,0.6c-5,0-9.6-0.8-13.9-2.5c-4.3-1.7-8-4.1-11.2-7.3c-3.2-3.2-5.7-7.3-7.5-12
					c-1.8-4.8-2.7-10.3-2.7-16.6c0-4.9,0.8-9.5,2.4-13.8c1.6-4.3,3.9-8.1,6.8-11.3c3-3.2,6.6-5.7,10.8-7.6
					C582.1,121.7,586.9,120.7,592.2,120.7z M592.6,133.1c-5,0-9,1.4-11.8,4.3c-2.8,2.8-4.7,6.9-5.5,12.1h32.5c0-2.2-0.3-4.4-0.9-6.3
					c-0.6-2-1.5-3.7-2.8-5.2c-1.3-1.5-2.8-2.7-4.8-3.5C597.4,133.6,595.2,133.1,592.6,133.1z M616.9,91.3l-17.3,18.3
					c-0.9,0.9-1.7,1.6-2.6,1.9s-1.9,0.5-3.2,0.5h-10.4l9.9-17c0.7-1.2,1.5-2.1,2.4-2.8s2.3-0.9,4.2-0.9H616.9z"/>
				<path class="st4" d="M687.9,193.7c-2.2,0-3.7-1-4.4-3.2l-1.4-6.9c-1.5,1.7-3.1,3.2-4.7,4.5c-1.6,1.4-3.4,2.5-5.3,3.5
					c-1.9,1-3.9,1.7-6.1,2.3c-2.2,0.5-4.5,0.8-7,0.8c-3.9,0-7.5-0.8-10.8-2.5c-3.3-1.6-6.1-4-8.4-7.1c-2.4-3.1-4.2-6.9-5.5-11.5
					c-1.3-4.6-1.9-9.8-1.9-15.7c0-5.3,0.7-10.3,2.2-14.8c1.4-4.6,3.5-8.5,6.2-11.9c2.7-3.4,6-6,9.7-7.9c3.8-1.9,8-2.8,12.7-2.8
					c4,0,7.4,0.6,10.3,1.9c2.8,1.3,5.4,3,7.6,5.1V89.6h17.3v104H687.9z M664.9,181c3.6,0,6.7-0.7,9.2-2.2c2.5-1.5,4.9-3.6,7.1-6.4
					v-32.2c-2-2.4-4.1-4.1-6.4-5c-2.3-1-4.8-1.5-7.5-1.5c-2.6,0-5,0.5-7.1,1.5c-2.1,1-3.9,2.5-5.4,4.4c-1.5,2-2.6,4.5-3.4,7.6
					c-0.8,3.1-1.2,6.7-1.2,10.8c0,4.2,0.3,7.8,1,10.7c0.7,2.9,1.6,5.3,2.9,7.1s2.8,3.2,4.6,4C660.6,180.6,662.7,181,664.9,181z"/>
				<path class="st4" d="M738.2,100.9c0,1.5-0.3,2.9-0.9,4.2c-0.6,1.3-1.4,2.4-2.4,3.4c-1,1-2.2,1.8-3.5,2.3
					c-1.4,0.6-2.8,0.9-4.3,0.9c-1.5,0-2.9-0.3-4.2-0.9c-1.3-0.6-2.5-1.4-3.5-2.3c-1-1-1.8-2.1-2.3-3.4c-0.6-1.3-0.9-2.7-0.9-4.2
					c0-1.5,0.3-3,0.9-4.3c0.6-1.4,1.4-2.5,2.3-3.5c1-1,2.1-1.8,3.5-2.3c1.3-0.6,2.7-0.9,4.2-0.9c1.5,0,3,0.3,4.3,0.9
					c1.4,0.6,2.5,1.4,3.5,2.3c1,1,1.8,2.1,2.4,3.5C737.9,97.9,738.2,99.4,738.2,100.9z M735.6,121.9v71.8h-17.3v-71.8H735.6z"/>
				<path class="st4" d="M784.8,120.7c4.5,0,8.7,0.7,12.5,2.2c3.8,1.4,7.1,3.6,9.8,6.3c2.8,2.8,4.9,6.2,6.4,10.2
					c1.5,4,2.3,8.6,2.3,13.8c0,1.3-0.1,2.4-0.2,3.3c-0.1,0.9-0.3,1.5-0.6,2c-0.3,0.5-0.7,0.8-1.2,1s-1.2,0.3-2,0.3h-44.4
					c0.5,7.4,2.5,12.8,6,16.2c3.5,3.5,8,5.2,13.7,5.2c2.8,0,5.2-0.3,7.2-1s3.8-1.4,5.3-2.2c1.5-0.8,2.8-1.5,4-2.2
					c1.1-0.7,2.2-1,3.3-1c0.7,0,1.3,0.1,1.8,0.4c0.5,0.3,1,0.7,1.3,1.2l5,6.3c-1.9,2.2-4.1,4.1-6.4,5.6c-2.4,1.5-4.9,2.7-7.5,3.6
					c-2.6,0.9-5.2,1.6-7.9,1.9c-2.7,0.4-5.3,0.6-7.8,0.6c-5,0-9.6-0.8-13.9-2.5c-4.3-1.7-8-4.1-11.2-7.3c-3.2-3.2-5.7-7.3-7.5-12
					c-1.8-4.8-2.7-10.3-2.7-16.6c0-4.9,0.8-9.5,2.4-13.8c1.6-4.3,3.9-8.1,6.8-11.3c3-3.2,6.6-5.7,10.8-7.6
					C774.6,121.7,779.4,120.7,784.8,120.7z M785.2,133.1c-5,0-9,1.4-11.8,4.3c-2.8,2.8-4.7,6.9-5.5,12.1h32.5c0-2.2-0.3-4.4-0.9-6.3
					c-0.6-2-1.5-3.7-2.8-5.2c-1.3-1.5-2.8-2.7-4.8-3.5C790,133.6,787.7,133.1,785.2,133.1z"/>
				<path class="st4" d="M830,193.7v-71.8h10.1c1.8,0,3,0.3,3.7,1c0.7,0.7,1.2,1.8,1.4,3.4l1,8.7c2.6-4.4,5.6-7.9,9-10.5
					c3.5-2.6,7.3-3.9,11.6-3.9c3.5,0,6.5,0.8,8.8,2.4l-2.2,13c-0.1,0.8-0.4,1.4-0.9,1.8c-0.5,0.3-1.1,0.5-1.9,0.5
					c-0.7,0-1.7-0.2-2.9-0.5c-1.2-0.3-2.8-0.5-4.8-0.5c-3.6,0-6.7,1-9.2,3c-2.6,2-4.7,4.9-6.5,8.7v44.7H830z"/>
			</g>
		</g>
	</g>
	<path class="st4" d="M141.7,190c0-6.4-5.3-11.8-11.8-11.8c-6.4,0-11.8,5.3-11.8,11.8s5.3,11.8,11.8,11.8
		C136.3,201.8,141.7,196.5,141.7,190z M106.4,143h35.3v-23.5h-14.5c-0.4,0-1.7,0.6-2,0.8l-17.9,17.9c-0.3,0.3-0.8,1.6-0.8,2
		L106.4,143L106.4,143z M224.1,190c0-6.4-5.3-11.8-11.8-11.8c-6.4,0-11.8,5.3-11.8,11.8s5.3,11.8,11.8,11.8
		C218.7,201.8,224.1,196.5,224.1,190z M247.6,90v94.2c0,6.8-7.2,5.9-11.8,5.9c0,13-10.6,23.5-23.5,23.5c-13,0-23.5-10.6-23.5-23.5
		h-35.3c0,13-10.6,23.5-23.5,23.5S106.4,203,106.4,190h-5.9c-4.6,0-11.8,0.9-11.8-5.9c0-3.2,2.7-5.9,5.9-5.9v-29.4
		c0-6.5-0.9-13.8,4.1-18.9l18.2-18.2c2.3-2.3,6.7-4.1,10-4.1h14.7V90c0-3.2,2.7-5.9,5.9-5.9h94.2C244.9,84.1,247.6,86.8,247.6,90
		L247.6,90z"/>
</g>
</svg>
