<?xml version="1.0" encoding="utf-8"?>
<!-- Generator: Adobe Illustrator 24.3.0, SVG Export Plug-In . SVG Version: 6.00 Build 0)  -->
<svg version="1.1" id="Calque_1" xmlns="http://www.w3.org/2000/svg" xmlns:xlink="http://www.w3.org/1999/xlink" x="0px" y="0px"
	 viewBox="0 0 928.6 1000" style="enable-background:new 0 0 928.6 1000;" xml:space="preserve">
<style type="text/css">
	.st0{fill:#333333;}
</style>
<path class="st0" d="M812.5,714.3c0-14.5-5.6-27.9-15.6-38l-116.1-116c-10-10.1-24-15.7-37.9-15.7c-16.2,0-29.1,6.2-40.2,17.9
	c18.4,18.4,40.2,34,40.2,62.5c0,29.6-24,53.6-53.6,53.6c-28.5,0-44.1-21.8-62.5-40.2c-11.7,11.1-18.4,24-18.4,40.7
	c0,14,5.6,27.9,15.6,38l115,115.5c10,10,23.9,15,37.9,15s27.9-5,37.9-14.5l82.1-81.4C807,741.6,812.6,728.2,812.5,714.3L812.5,714.3
	z M420.3,321c0-14-5.6-27.9-15.6-38l-115-115.5c-10-10-24-15.6-37.9-15.6s-27.9,5.6-38,15l-82,81.5c-10,10.1-15.6,23.4-15.6,37.4
	c0,14.5,5.6,27.9,15.6,37.9l116.1,116.1c10,10.1,24,15.1,37.9,15.1c16.2,0,29-5.6,40.2-17.3c-18.4-18.4-40.2-34.1-40.2-62.5
	c0-29.6,24-53.6,53.6-53.6c28.4,0,44.1,21.8,62.5,40.2C413.6,350.5,420.3,337.7,420.3,321z M919.6,714.3
	c0,42.4-17.3,83.7-47.4,113.3l-82,81.4c-30.2,30.2-70.9,46.3-113.3,46.3c-43,0-83.7-16.7-113.8-47.4l-115-115.5
	c-30.1-30.1-46.3-70.9-46.3-113.3c0-44.1,17.8-85.9,49.1-116.6l-49.1-49.1c-30.7,31.2-72,49.1-116.1,49.1
	c-42.4,0-83.7-16.8-113.8-46.9L55.8,399.6C25.1,368.9,8.9,328.8,8.9,285.8c0-42.4,17.3-83.7,47.5-113.3l82-81.5
	c30.1-30.1,70.9-46.3,113.3-46.3c42.9,0,83.7,16.8,113.8,47.5l115,115.5c30.1,30.1,46.3,70.8,46.3,113.3c0,44-17.9,85.9-49.1,116.6
	l49.1,49.1c30.7-31.3,72-49.1,116.1-49.1c42.4,0,83.7,16.7,113.8,46.9l116.1,116C903.5,631.1,919.6,671.3,919.6,714.3L919.6,714.3z"
	/>
</svg>
