<?xml version="1.0" encoding="utf-8"?>
<!-- Generator: Adobe Illustrator 24.3.0, SVG Export Plug-In . SVG Version: 6.00 Build 0)  -->
<svg version="1.1" id="Calque_1" xmlns="http://www.w3.org/2000/svg" xmlns:xlink="http://www.w3.org/1999/xlink" x="0px" y="0px"
	 viewBox="0 0 500 500" style="enable-background:new 0 0 500 500;" xml:space="preserve">
<style type="text/css">
	.st0{fill:#476BA8;}
	.st1{fill:#FFFFFF;}
	.st2{fill:#E9E9E0;}
	.st3{fill:#CC4B4C;}
</style>
<circle class="st0" cx="250" cy="250" r="250"/>
<g>
	<path class="st1" d="M67.5996094,104.1679688c0.1889648-0.1635742,0.3837891-0.2871094,0.5844727-0.3710938
		c0.2001953-0.0834961,0.4282227-0.1357422,0.6831055-0.1567383c0.2553711-0.0205078,0.565918-0.0180664,0.9331055,0.0063477
		l38.0214844,2.5732422c-0.5927734-0.4223633-1.1567383-0.8540039-1.6923828-1.2944336
		c-0.5351562-0.4399414-1.0253906-0.8603516-1.4707031-1.2617188l-20.25-18.2333984l4.9160156-5.4599609l33.3120117,29.9946289
		l-2.8833008,3.2021484c-0.4423828,0.4916992-0.8852539,0.8295898-1.3295898,1.0136719
		c-0.4438477,0.1845703-1.0039062,0.2504883-1.6796875,0.1977539l-37.8671875-2.559082
		c0.5332031,0.3964844,1.0517578,0.8007812,1.5566406,1.2133789c0.5043945,0.4125977,0.956543,0.7988281,1.3554688,1.1582031
		l20.4575195,18.4199219l-4.9165039,5.4599609l-33.3120117-29.9946289l2.9248047-3.2485352
		C67.1918945,104.5512695,67.4106445,104.331543,67.5996094,104.1679688z"/>
	<path class="st1" d="M159.2182617,83.4794922l-5.2631836,3.7250977c-0.5908203,0.4179688-1.1796875,0.6137695-1.7685547,0.5869141
		c-0.5883789-0.0263672-1.1225586-0.1987305-1.6015625-0.5185547l-8.015625-5.5302734l-15.1567383,10.7270508l2.550293,9.3989258
		c0.1391602,0.4838867,0.1245117,1.0263672-0.0449219,1.6269531c-0.1699219,0.6010742-0.5415039,1.1044922-1.1147461,1.5102539
		l-5.2885742,3.7431641L111.9912109,61.987793l6.9584961-4.9248047L159.2182617,83.4794922z M125.7558594,86.4267578
		l11.6650391-8.2563477l-13.0678711-9.019043c-0.5844727-0.3964844-1.2587891-0.875-2.0224609-1.4355469
		c-0.7641602-0.5610352-1.5688477-1.1875-2.4135742-1.8808594c0.3725586,1.0273438,0.7080078,1.9926758,1.0053711,2.8959961
		c0.2978516,0.9038086,0.5336914,1.7114258,0.7084961,2.4233398L125.7558594,86.4267578z"/>
	<path class="st1" d="M134.1464844,46.4160156l6.1303711-2.7700195c0.6586914-0.2973633,1.2680664-0.3798828,1.8271484-0.2470703
		c0.5585938,0.1333008,1.0566406,0.4072266,1.4936523,0.8217773l20.8623047,20.5776367
		c0.6860352,0.6655273,1.394043,1.4174805,2.1245117,2.2548828c0.7299805,0.8383789,1.4692383,1.734375,2.2182617,2.6889648
		c-0.5454102-2.3613281-0.8725586-4.515625-0.980957-6.4624023l-1.6796875-29.2441406
		c-0.0263672-0.5092773,0.0961914-1.0410156,0.3676758-1.5947266c0.2714844-0.5532227,0.7275391-0.9750977,1.3681641-1.2641602
		l6.1303711-2.7695312l1.9570312,48.3041992L169.1000977,79.8125L134.1464844,46.4160156z"/>
	<path class="st1" d="M204.5263672,67.1230469l-8.0771484,2.1943359L184.6977539,26.059082l8.0776367-2.1943359
		L204.5263672,67.1230469z"/>
	<path class="st1" d="M232.0888672,56.3066406c1.8701172-0.1967773,3.4814453-0.5375977,4.8330078-1.0224609
		s2.6230469-1.0913086,3.8139648-1.8193359l-0.8525391-8.1083984l-5.5800781,0.5869141
		c-0.534668,0.0561523-0.9711914-0.0483398-1.3110352-0.3144531c-0.3393555-0.2651367-0.5322266-0.6142578-0.5776367-1.0458984
		l-0.4926758-4.6860352l14.8295898-1.559082l1.8959961,18.0356445c-1.0439453,0.940918-2.1459961,1.7792969-3.3046875,2.5136719
		c-1.1591797,0.7353516-2.4116211,1.3710938-3.7583008,1.9072266c-1.3461914,0.5361328-2.800293,0.9848633-4.3623047,1.3466797
		c-1.5625,0.3618164-3.2578125,0.6386719-5.0869141,0.8310547c-3.2480469,0.3417969-6.2978516,0.0908203-9.1499023-0.7524414
		c-2.8525391-0.8422852-5.3818359-2.1665039-7.5869141-3.9711914c-2.2055664-1.8046875-4.015625-4.0454102-5.4291992-6.7231445
		c-1.4145508-2.6772461-2.2954102-5.6704102-2.6430664-8.9799805c-0.3525391-3.3496094-0.1308594-6.4799805,0.6645508-9.3896484
		s2.0893555-5.4770508,3.8813477-7.7021484c1.7924805-2.2250977,4.0585938-4.0424805,6.7988281-5.453125
		c2.7397461-1.4101562,5.8876953-2.3022461,9.4438477-2.6762695c3.6376953-0.3823242,6.8442383-0.1738281,9.6196289,0.625
		c2.7749023,0.7993164,5.1782227,1.9648438,7.2094727,3.4970703l-2.0092773,4.0141602
		c-0.3930664,0.8100586-0.9794922,1.2563477-1.7607422,1.3383789c-0.4931641,0.0517578-1.0141602-0.0595703-1.5625-0.3344727
		c-0.6987305-0.3208008-1.4130859-0.6411133-2.1425781-0.9594727c-0.7294922-0.3173828-1.5253906-0.5766602-2.3881836-0.7773438
		c-0.862793-0.2001953-1.8232422-0.3383789-2.8798828-0.4140625c-1.0576172-0.0756836-2.2646484-0.0424805-3.6210938,0.1000977
		c-2.199707,0.2314453-4.1489258,0.8105469-5.8491211,1.7373047s-3.1044922,2.1450195-4.2133789,3.6533203
		c-1.1088867,1.5092773-1.9008789,3.265625-2.3759766,5.2685547c-0.4750977,2.003418-0.5874023,4.1972656-0.3369141,6.581543
		c0.2705078,2.5693359,0.8701172,4.8178711,1.800293,6.7460938s2.1152344,3.5131836,3.5546875,4.7539062
		c1.4399414,1.2407227,3.0917969,2.1323242,4.9570312,2.6738281
		C227.980957,56.3696289,229.9716797,56.5292969,232.0888672,56.3066406z"/>
	<path class="st1" d="M292.8828125,65.2421875l-6.4082031-0.7133789c-0.71875-0.0800781-1.2890625-0.3251953-1.7109375-0.7363281
		c-0.421875-0.4106445-0.7070312-0.8945312-0.8515625-1.4516602l-2.3164062-9.4594727l-18.4550781-2.0546875l-4.3398438,8.71875
		c-0.2167969,0.4541016-0.5878906,0.8496094-1.1132812,1.1855469c-0.5273438,0.3369141-1.1386719,0.4658203-1.8378906,0.3881836
		l-6.4384766-0.7167969l22.4599609-42.6025391l8.4726562,0.9433594L292.8828125,65.2421875z M265.9179688,45.2094727
		l14.203125,1.581543l-3.7714844-15.4233398c-0.1738281-0.6845703-0.359375-1.4902344-0.5585938-2.4169922
		c-0.1972656-0.9267578-0.3828125-1.9296875-0.5527344-3.0092773c-0.40625,1.015625-0.796875,1.9599609-1.1738281,2.8325195
		c-0.3789062,0.8735352-0.7382812,1.6333008-1.0800781,2.2817383L265.9179688,45.2094727z"/>
	<path class="st1" d="M333.5625,31.5302734l-1.9541016,6.565918l-12.9248047-3.847168l-10.8349609,36.3964844l-7.9921875-2.3793945
		l10.8349609-36.3964844l-12.984375-3.8652344l1.9550781-6.5664062L333.5625,31.5302734z"/>
	<path class="st1" d="M332.4755859,80.5625l-7.6035156-3.5004883l18.7480469-40.7172852l7.6025391,3.5004883L332.4755859,80.5625z"
		/>
	<path class="st1" d="M388.0771484,89.1513672c-1.8632812,2.706543-4.0400391,4.9033203-6.5292969,6.5888672
		c-2.4902344,1.6860352-5.1318359,2.809082-7.9267578,3.3696289c-2.7939453,0.5605469-5.6650391,0.5224609-8.6142578-0.1142578
		c-2.9482422-0.637207-5.8183594-1.9165039-8.6103516-3.8378906c-2.7929688-1.921875-5.0166016-4.1484375-6.6728516-6.6811523
		c-1.6572266-2.5327148-2.7265625-5.206543-3.2089844-8.0229492c-0.4833984-2.815918-0.3818359-5.6875,0.3037109-8.6157227
		c0.6845703-2.9277344,1.9589844-5.7451172,3.8222656-8.4516602c1.8632812-2.7070312,4.0390625-4.9033203,6.5292969-6.5893555
		c2.4892578-1.6855469,5.1357422-2.8061523,7.9384766-3.3608398s5.6826172-0.5107422,8.640625,0.1323242
		c2.9570312,0.6425781,5.8310547,1.9248047,8.6230469,3.8461914c2.7919922,1.921875,5.0087891,4.1503906,6.6513672,6.6850586
		c1.6416016,2.5356445,2.703125,5.2041016,3.1835938,8.0053711c0.4804688,2.8017578,0.3769531,5.6665039-0.3076172,8.5942383
		C391.2138672,83.6274414,389.9394531,86.4443359,388.0771484,89.1513672z M381.0292969,84.300293
		c1.3935547-2.0253906,2.3769531-4.0273438,2.9472656-6.0053711c0.5712891-1.9780273,0.7412109-3.8745117,0.5097656-5.6894531
		s-0.8613281-3.5151367-1.8886719-5.1010742c-1.0292969-1.5859375-2.4453125-3-4.25-4.2416992
		c-1.8046875-1.2421875-3.6357422-2.0629883-5.4921875-2.4633789c-1.8583984-0.3999023-3.6796875-0.3867188-5.4658203,0.0395508
		c-1.7861328,0.4267578-3.5048828,1.2568359-5.1572266,2.4907227s-3.1748047,2.8637695-4.5693359,4.8896484
		c-1.3945312,2.0263672-2.3730469,4.0302734-2.9355469,6.0146484c-0.5625,1.9833984-0.7207031,3.8818359-0.4755859,5.6938477
		c0.2460938,1.8120117,0.8867188,3.5141602,1.9238281,5.105957s2.4580078,3.0083008,4.2626953,4.2504883
		c1.8046875,1.2416992,3.6308594,2.0600586,5.4794922,2.4545898c1.8486328,0.394043,3.6591797,0.3793945,5.4306641-0.0444336
		c1.7724609-0.4238281,3.4804688-1.2558594,5.1240234-2.4956055
		C378.1152344,87.9589844,379.6347656,86.3266602,381.0292969,84.300293z"/>
	<path class="st1" d="M414.1884766,83.940918c0.1425781,0.2050781,0.2451172,0.4116211,0.3076172,0.6196289
		c0.0615234,0.2080078,0.0898438,0.4404297,0.0839844,0.6958008c-0.0058594,0.2558594-0.0410156,0.5649414-0.1035156,0.9277344
		l-6.5332031,37.5439453c0.4824219-0.5454102,0.9697266-1.0610352,1.4638672-1.5473633s0.9628906-0.9301758,1.4091797-1.3310547
		l20.25-18.2333984l4.9160156,5.4599609l-33.3125,29.9946289l-2.8828125-3.2021484
		c-0.4433594-0.4916992-0.7324219-0.9677734-0.8691406-1.4287109c-0.1376953-0.4604492-0.1445312-1.0244141-0.0214844-1.6914062
		l6.5029297-37.3916016c-0.4501953,0.4887695-0.90625,0.9619141-1.3691406,1.4208984
		c-0.4628906,0.4584961-0.8945312,0.8676758-1.2939453,1.2270508l-20.4570312,18.4199219l-4.9160156-5.4599609l33.3125-29.9946289
		l2.9248047,3.2485352C413.8496094,83.4951172,414.0449219,83.7358398,414.1884766,83.940918z"/>
</g>
<g>
	<path class="st1" d="M56.8374023,288.2021484c-0.480957-0.1650391-0.8334961-0.3828125-1.0576172-0.6552734
		s-0.3637695-0.6132812-0.418457-1.0224609c-0.0551758-0.4101562,0.0415039-0.8925781,0.2905273-1.4472656
		c0.2485352-0.5546875,0.5209961-1.2060547,0.8168945-1.9550781c0.2954102-0.7480469,0.5395508-1.6103516,0.7324219-2.5839844
		c0.1923828-0.9755859,0.2036133-2.0976562,0.0332031-3.3671875c-0.1538086-1.1474609-0.4262695-2.1269531-0.8164062-2.9404297
		c-0.390625-0.8125-0.8710938-1.4775391-1.440918-1.9960938c-0.5698242-0.5175781-1.2172852-0.8740234-1.9418945-1.0683594
		c-0.7250977-0.1953125-1.4970703-0.2373047-2.315918-0.1269531c-1.0444336,0.1396484-1.8764648,0.5488281-2.4941406,1.2255859
		c-0.6181641,0.6767578-1.1083984,1.5292969-1.4707031,2.5585938c-0.362793,1.0283203-0.65625,2.1835938-0.8803711,3.4648438
		c-0.2246094,1.28125-0.4711914,2.5908203-0.7397461,3.9306641c-0.269043,1.3388672-0.6123047,2.6621094-1.03125,3.9697266
		s-1.0092773,2.5019531-1.7709961,3.5839844c-0.762207,1.0820312-1.7490234,2.0019531-2.9614258,2.7587891
		c-1.2119141,0.7568359-2.7397461,1.2587891-4.5834961,1.5068359c-2.0073242,0.2685547-3.9326172,0.1777344-5.7758789-0.2734375
		s-3.5039062-1.25-4.9819336-2.3974609c-1.4780273-1.1464844-2.7182617-2.6220703-3.7216797-4.4267578
		c-1.0029297-1.8046875-1.6694336-3.9355469-1.9990234-6.3935547c-0.1894531-1.4140625-0.2382812-2.8251953-0.1455078-4.234375
		c0.0922852-1.4101562,0.3100586-2.7783203,0.6533203-4.1064453c0.3427734-1.3291016,0.7993164-2.5888672,1.3696289-3.78125
		c0.5693359-1.1923828,1.2373047-2.2773438,2.0029297-3.2558594l4.284668,1.8652344
		c0.3168945,0.1865234,0.59375,0.4257812,0.831543,0.7177734c0.2368164,0.2910156,0.3818359,0.6308594,0.434082,1.0205078
		c0.0683594,0.5117188-0.0678711,1.0927734-0.4077148,1.7431641c-0.340332,0.6503906-0.7124023,1.4150391-1.1152344,2.2929688
		c-0.4038086,0.8769531-0.7421875,1.8925781-1.0151367,3.0449219c-0.2729492,1.1513672-0.3061523,2.4960938-0.1000977,4.0322266
		c0.315918,2.3554688,1.1181641,4.1035156,2.4082031,5.2441406c1.2890625,1.140625,2.9785156,1.5712891,5.0678711,1.2910156
		c1.1674805-0.15625,2.0810547-0.5761719,2.7397461-1.2587891c0.6591797-0.6826172,1.1748047-1.5390625,1.5478516-2.5693359
		c0.3725586-1.0302734,0.6503906-2.1826172,0.8339844-3.4580078c0.1835938-1.2763672,0.3945312-2.5761719,0.6342773-3.9013672
		c0.2392578-1.3251953,0.5629883-2.640625,0.972168-3.9462891c0.4082031-1.3056641,1.0092773-2.5019531,1.8017578-3.5878906
		c0.7924805-1.0869141,1.8413086-2.0146484,3.1455078-2.7841797c1.3041992-0.7685547,2.9702148-1.2890625,4.9980469-1.5615234
		c1.6181641-0.2167969,3.2387695-0.1054688,4.8618164,0.3330078c1.6225586,0.4394531,3.1108398,1.1982422,4.465332,2.2792969
		c1.3540039,1.0791016,2.5102539,2.4726562,3.4692383,4.1787109c0.9584961,1.7060547,1.5932617,3.7167969,1.9038086,6.03125
		c0.3515625,2.6220703,0.2661133,5.0947266-0.2563477,7.4160156c-0.5229492,2.3222656-1.4169922,4.3603516-2.6831055,6.1152344
		L56.8374023,288.2021484z"/>
	<path class="st1" d="M75.8432617,324.0283203l-6.5283203,2.0771484l-4.0898438-12.8496094l-36.1865234,11.5175781
		l-2.5292969-7.9462891l36.1865234-11.5175781l-4.1083984-12.9091797l6.5283203-2.0771484L75.8432617,324.0283203z"/>
	<path class="st1" d="M77.0473633,372.6054688c-2.8676758,1.6044922-5.7910156,2.6123047-8.7695312,3.0244141
		c-2.9790039,0.4111328-5.8447266,0.2509766-8.5991211-0.4814453s-5.3129883-2.0361328-7.6762695-3.9111328
		c-2.3632812-1.8740234-4.3725586-4.2910156-6.0273438-7.2480469c-1.6552734-2.9580078-2.6660156-5.9394531-3.0322266-8.9423828
		c-0.3666992-3.0048828-0.1435547-5.8759766,0.6679688-8.6152344c0.8115234-2.7402344,2.171875-5.2705078,4.0810547-7.5947266
		c1.9086914-2.3232422,4.2973633-4.2871094,7.1650391-5.8916016s5.7900391-2.6123047,8.7695312-3.0234375
		c2.9780273-0.4121094,5.847168-0.2470703,8.6069336,0.4951172c2.7587891,0.7412109,5.3227539,2.0537109,7.6914062,3.9375
		c2.3681641,1.8837891,4.3798828,4.3037109,6.034668,7.2617188s2.6586914,5.9375,3.0112305,8.9375
		c0.3520508,3,0.1240234,5.8623047-0.6831055,8.5878906c-0.8081055,2.7246094-2.1665039,5.2490234-4.0751953,7.5722656
		C82.3032227,369.0371094,79.9150391,371.0009766,77.0473633,372.6054688z M72.8696289,365.1386719
		c2.1459961-1.2001953,3.9125977-2.5615234,5.2993164-4.0830078c1.3862305-1.5224609,2.3769531-3.1484375,2.972168-4.8779297
		c0.5947266-1.7304688,0.78125-3.5341797,0.5600586-5.4111328c-0.2216797-1.8779297-0.8671875-3.7724609-1.9365234-5.6835938
		c-1.0698242-1.9121094-2.3496094-3.4580078-3.8383789-4.6376953c-1.4892578-1.1796875-3.1289062-1.9736328-4.9194336-2.3798828
		c-1.7910156-0.4072266-3.699707-0.4228516-5.7270508-0.0458984c-2.0273438,0.3759766-4.1142578,1.1650391-6.2602539,2.3662109
		c-2.1464844,1.2001953-3.9101562,2.5664062-5.2915039,4.0966797c-1.3813477,1.53125-2.362793,3.1640625-2.9433594,4.8974609
		c-0.581543,1.734375-0.7583008,3.5439453-0.5317383,5.4306641c0.2260742,1.8857422,0.8745117,3.7851562,1.9443359,5.6972656
		c1.0693359,1.9111328,2.3461914,3.4521484,3.8305664,4.6230469c1.4833984,1.1708984,3.1137695,1.9580078,4.890625,2.3613281
		c1.7763672,0.4033203,3.6762695,0.4121094,5.6987305,0.0263672
		C68.6391602,367.1328125,70.7231445,366.3398438,72.8696289,365.1386719z"/>
	<path class="st1" d="M94.2817383,409.734375c0.3037109,0.3369141,0.4360352,0.7470703,0.3964844,1.2275391l-0.449707,4.8271484
		c-2.8916016,0.15625-5.6708984-0.3505859-8.3383789-1.5224609c-2.668457-1.1708984-5.246582-3.1386719-7.7363281-5.9033203
		c-2.2265625-2.4726562-3.8066406-5.0751953-4.7387695-7.8095703c-0.9326172-2.7333984-1.2758789-5.4775391-1.0288086-8.2304688
		c0.2460938-2.7529297,1.078125-5.4414062,2.4960938-8.0673828c1.4174805-2.6259766,3.362793-5.0517578,5.8354492-7.2783203
		c2.5029297-2.2548828,5.168457-3.9042969,7.9960938-4.9492188c2.8276367-1.0439453,5.6713867-1.4921875,8.5322266-1.3427734
		c2.8598633,0.1503906,5.652832,0.8964844,8.3774414,2.2382812c2.7250977,1.3427734,5.2285156,3.28125,7.5102539,5.8144531
		c2.2265625,2.4726562,3.777832,4.9902344,4.6538086,7.5527344c0.875,2.5634766,1.2548828,5.0927734,1.1391602,7.5888672
		l-4.7460938,0.5205078c-0.2954102,0.0419922-0.5981445,0.0302734-0.9091797-0.0371094
		c-0.3115234-0.0673828-0.6191406-0.2705078-0.9228516-0.6074219c-0.3183594-0.3535156-0.5048828-0.8388672-0.5605469-1.4560547
		c-0.0556641-0.6181641-0.1782227-1.3564453-0.3671875-2.2148438c-0.1894531-0.8583984-0.5366211-1.8466797-1.0415039-2.9628906
		s-1.3588867-2.3427734-2.5620117-3.6787109c-1.4106445-1.5664062-2.9799805-2.7607422-4.7075195-3.5830078
		c-1.7280273-0.8212891-3.5234375-1.2490234-5.3876953-1.2802734c-1.8642578-0.0322266-3.7602539,0.3408203-5.6889648,1.1181641
		c-1.9282227,0.7773438-3.7988281,1.9814453-5.6103516,3.6132812c-1.8740234,1.6875-3.3017578,3.453125-4.2832031,5.296875
		c-0.9819336,1.84375-1.5639648,3.6679688-1.7460938,5.4726562c-0.1826172,1.8056641,0.0151367,3.5605469,0.5917969,5.2666016
		c0.5766602,1.7050781,1.5009766,3.2646484,2.7734375,4.6777344c0.7602539,0.8447266,1.4946289,1.5673828,2.2021484,2.1669922
		c0.7075195,0.6005859,1.4204102,1.0996094,2.1391602,1.4951172c0.7177734,0.3964844,1.4658203,0.7099609,2.2446289,0.9404297
		c0.777832,0.2314453,1.6254883,0.3925781,2.5424805,0.484375c0.2763672,0.0292969,0.5327148,0.0898438,0.7700195,0.1826172
		C93.8930664,409.3886719,94.1015625,409.5341797,94.2817383,409.734375z"/>
	<path class="st1" d="M121.2104492,412.4599609l1.578125,1.1513672c0.6342773,0.4628906,1.2241211,0.7587891,1.7695312,0.8876953
		c0.5449219,0.1289062,1.1083984,0.1113281,1.6889648-0.0537109l19.2182617-5.359375
		c0.8071289-0.2304688,1.5161133-0.2822266,2.1279297-0.1552734c0.6113281,0.1259766,1.2675781,0.4443359,1.9692383,0.9560547
		l5.8105469,4.2382812l-23.1762695,6.15625c-0.7250977,0.1875-1.378418,0.3125-1.9604492,0.3740234
		s-1.1464844,0.0458984-1.6933594-0.0458984c0.4047852,0.6025391,0.6943359,1.2480469,0.8691406,1.9384766
		c0.1743164,0.6894531,0.2631836,1.4707031,0.2670898,2.3427734l0.2060547,26.1269531l-5.9609375-4.3476562
		c-0.8012695-0.5849609-1.3164062-1.1328125-1.5439453-1.6445312c-0.2280273-0.5117188-0.3178711-1.0820312-0.2680664-1.7109375
		l-0.4892578-20.8457031c-0.0175781-0.6777344-0.1650391-1.2646484-0.4418945-1.7607422
		c-0.277832-0.4970703-0.800293-1.0253906-1.5683594-1.5859375l-2.1289062-1.5527344l-11.6176758,15.9296875l-6.7373047-4.9140625
		l26.4326172-36.2412109l6.7373047,4.9140625L121.2104492,412.4599609z"/>
	<path class="st1" d="M176.9907227,432.8867188c-0.4003906,0.3134766-0.7753906,0.4912109-1.1254883,0.53125
		c-0.3505859,0.0400391-0.7124023-0.0273438-1.0859375-0.2041016c-0.3740234-0.1767578-0.7265625-0.5195312-1.0566406-1.0302734
		c-0.3305664-0.5097656-0.7294922-1.0927734-1.1972656-1.7480469c-0.4677734-0.6542969-1.0585938-1.328125-1.7719727-2.0195312
		c-0.7138672-0.6904297-1.6494141-1.3095703-2.8081055-1.8574219c-1.046875-0.4941406-2.0175781-0.7978516-2.9121094-0.9111328
		c-0.8945312-0.1142578-1.7138672-0.0732422-2.4584961,0.1240234c-0.7441406,0.1972656-1.3955078,0.546875-1.9521484,1.0498047
		c-0.5581055,0.5029297-1.0126953,1.1279297-1.3652344,1.875c-0.4501953,0.953125-0.559082,1.8730469-0.3261719,2.7597656
		c0.2324219,0.8867188,0.6816406,1.7617188,1.3486328,2.625c0.6665039,0.8632812,1.4765625,1.7373047,2.4301758,2.6220703
		s1.9194336,1.8037109,2.8984375,2.7568359c0.9775391,0.953125,1.9023438,1.9609375,2.7719727,3.0224609
		c0.8696289,1.0625,1.5517578,2.2070312,2.0463867,3.4345703s0.7304688,2.5556641,0.7070312,3.984375
		c-0.0234375,1.4296875-0.4321289,2.984375-1.2260742,4.6669922c-0.8647461,1.8310547-1.9873047,3.3974609-3.3676758,4.7001953
		c-1.3808594,1.3017578-2.9536133,2.2626953-4.7192383,2.8798828c-1.7661133,0.6181641-3.6787109,0.8574219-5.7387695,0.71875
		s-4.2114258-0.7373047-6.4541016-1.7958984c-1.2895508-0.609375-2.5009766-1.3349609-3.6337891-2.1787109
		s-2.1640625-1.7695312-3.0922852-2.7802734c-0.9291992-1.0087891-1.7392578-2.0771484-2.4296875-3.203125
		c-0.6914062-1.1269531-1.2392578-2.2763672-1.6450195-3.4511719l3.894043-2.5839844
		c0.3286133-0.1640625,0.6801758-0.2666016,1.0537109-0.3076172s0.737793,0.0224609,1.0927734,0.1904297
		c0.4672852,0.2207031,0.8813477,0.6503906,1.2426758,1.2890625c0.3608398,0.6386719,0.7998047,1.3662109,1.3178711,2.1826172
		c0.5175781,0.8154297,1.1855469,1.6513672,2.0048828,2.5058594c0.8188477,0.8554688,1.9291992,1.6132812,3.3310547,2.2753906
		c2.1489258,1.0146484,4.0527344,1.2910156,5.7109375,0.828125s2.9375-1.6474609,3.8374023-3.5527344
		c0.5029297-1.0654297,0.6469727-2.0605469,0.4321289-2.984375c-0.2148438-0.9248047-0.6538086-1.8232422-1.315918-2.6953125
		c-0.6625977-0.8730469-1.4790039-1.7324219-2.4501953-2.5800781c-0.9711914-0.8466797-1.9482422-1.7304688-2.9301758-2.6513672
		c-0.9824219-0.9208984-1.9106445-1.9072266-2.784668-2.9609375c-0.8745117-1.0517578-1.5522461-2.2060547-2.0332031-3.4619141
		c-0.4819336-1.2558594-0.6904297-2.640625-0.6274414-4.1533203s0.53125-3.1943359,1.4047852-5.0449219
		c0.6967773-1.4755859,1.6704102-2.7763672,2.9208984-3.8994141c1.2504883-1.1240234,2.6967773-1.9609375,4.3393555-2.5107422
		c1.6420898-0.5498047,3.4399414-0.7636719,5.394043-0.6416016c1.9526367,0.1220703,3.9853516,0.6816406,6.0976562,1.6787109
		c2.3920898,1.1298828,4.4204102,2.5449219,6.0864258,4.2451172c1.6650391,1.7001953,2.8901367,3.5585938,3.675293,5.5751953
		L176.9907227,432.8867188z"/>
	<path class="st1" d="M173.6269531,465.4277344c0.1821289-0.5488281,0.4560547-1.0292969,0.8217773-1.4414062
		s0.7949219-0.7373047,1.2885742-0.9765625c0.4926758-0.2392578,1.0385742-0.3730469,1.6367188-0.4033203
		s1.2104492,0.0595703,1.8383789,0.2675781c0.7451172,0.2480469,1.3481445,0.5957031,1.8095703,1.0429688
		c0.4609375,0.4472656,0.8012695,0.9628906,1.0205078,1.5478516s0.3183594,1.2060547,0.2958984,1.8623047
		c-0.0224609,0.6572266-0.1445312,1.3193359-0.3657227,1.9853516c-0.3129883,0.9414062-0.784668,1.8847656-1.4140625,2.8291016
		c-0.6303711,0.9453125-1.3925781,1.8457031-2.2871094,2.703125c-0.8945312,0.8564453-1.9067383,1.6416016-3.0366211,2.3554688
		c-1.1303711,0.7128906-2.3520508,1.3085938-3.6650391,1.7871094l-0.8833008-1.5673828
		c-0.2553711-0.4121094-0.3110352-0.8339844-0.1679688-1.2646484c0.0522461-0.1572266,0.1645508-0.3164062,0.3378906-0.4755859
		c0.1728516-0.1611328,0.3637695-0.2929688,0.5732422-0.3974609c0.293457-0.1640625,0.6547852-0.3652344,1.0825195-0.6044922
		s0.8720703-0.5263672,1.3325195-0.8632812c0.4599609-0.3369141,0.909668-0.7216797,1.3466797-1.1533203
		c0.4379883-0.4316406,0.8129883-0.921875,1.1264648-1.4716797c-0.6083984-0.2021484-1.1298828-0.5-1.5644531-0.8955078
		c-0.4355469-0.3945312-0.769043-0.8486328-1.0009766-1.3613281c-0.2329102-0.5126953-0.3637695-1.0683594-0.3935547-1.6660156
		C173.3286133,466.6679688,173.4179688,466.0556641,173.6269531,465.4277344z"/>
	<path class="st1" d="M243.2519531,439.0546875l-0.8730469,6.7949219l-13.375-1.71875l-4.8408203,37.6650391l-8.2709961-1.0634766
		l4.8408203-37.6650391l-13.4365234-1.7265625l0.8730469-6.7949219L243.2519531,439.0546875z"/>
	<path class="st1" d="M257.0595703,483.0908203l-8.3686523,0.1357422l-0.7265625-44.8203125l8.3686523-0.1357422
		L257.0595703,483.0908203z"/>
	<path class="st1" d="M293.0117188,434.0400391l0.9814453,6.5605469l-19.6523438,2.9394531l1.8388672,12.2949219
		l15.4833984-2.3164062l0.9492188,6.3466797l-15.4833984,2.3154297l1.8759766,12.5400391l19.6523438-2.9394531l0.9863281,6.5917969
		l-27.9609375,4.1816406l-6.6318359-44.3320312L293.0117188,434.0400391z"/>
	<path class="st1" d="M314.6767578,455.9199219l5.7998047,16.5263672l-7.8681641,2.7617188l-14.84375-42.296875
		l12.8994141-4.5273438c2.8857422-1.0126953,5.4619141-1.5830078,7.7285156-1.7099609
		c2.265625-0.1269531,4.2451172,0.1142578,5.9384766,0.7246094c1.6923828,0.6113281,3.1074219,1.5546875,4.2451172,2.8300781
		c1.1376953,1.2763672,2.0214844,2.8115234,2.6513672,4.6054688c0.5,1.4238281,0.7617188,2.84375,0.7880859,4.2578125
		c0.0253906,1.4150391-0.1757812,2.7773438-0.6025391,4.0878906c-0.4267578,1.3115234-1.0839844,2.5605469-1.9707031,3.7470703
		c-0.8867188,1.1875-1.9892578,2.2753906-3.3066406,3.2626953c1.1933594,0.2167969,2.3349609,0.7246094,3.4267578,1.5244141
		l16.0703125,11.9042969l-7.0791016,2.484375c-0.6826172,0.2392578-1.3105469,0.3066406-1.8837891,0.2011719
		c-0.5742188-0.1054688-1.1152344-0.3525391-1.625-0.7441406l-13.6445312-10.4228516
		c-0.5097656-0.3896484-1.0019531-0.6220703-1.4775391-0.6972656c-0.4746094-0.0732422-1.1025391,0.0263672-1.8818359,0.2998047
		L314.6767578,455.9199219z M312.6953125,450.2744141l4.9140625-1.7246094
		c1.4824219-0.5205078,2.7089844-1.1591797,3.6816406-1.9160156c0.9707031-0.7568359,1.6982422-1.5869141,2.1806641-2.4902344
		s0.7421875-1.8652344,0.7783203-2.8847656c0.0361328-1.0205078-0.1337891-2.0673828-0.5097656-3.1396484
		c-0.7529297-2.1445312-2.0380859-3.5439453-3.8554688-4.1992188c-1.8183594-0.6542969-4.1796875-0.4716797-7.0849609,0.5478516
		l-5.03125,1.765625L312.6953125,450.2744141z"/>
	<path class="st1" d="M358.0097656,414.6152344c0.0292969,0.5078125-0.0400391,0.9169922-0.2070312,1.2275391
		c-0.1679688,0.3105469-0.4306641,0.5683594-0.7890625,0.7744141s-0.8417969,0.2988281-1.4492188,0.2773438
		c-0.6074219-0.0205078-1.3134766-0.0253906-2.1181641-0.0166016c-0.8046875,0.0097656-1.6953125,0.109375-2.6699219,0.2988281
		c-0.9755859,0.1914062-2.0185547,0.6044922-3.1298828,1.2421875c-1.0039062,0.5771484-1.8076172,1.1992188-2.4130859,1.8681641
		c-0.6044922,0.6689453-1.0390625,1.3652344-1.3027344,2.0888672c-0.2636719,0.7226562-0.3496094,1.4570312-0.2548828,2.2011719
		c0.0927734,0.7451172,0.3457031,1.4755859,0.7578125,2.1923828c0.5244141,0.9140625,1.2167969,1.5292969,2.078125,1.8457031
		c0.8603516,0.3164062,1.8349609,0.4472656,2.9248047,0.3935547c1.0888672-0.0527344,2.2695312-0.2177734,3.5400391-0.4951172
		c1.2705078-0.2763672,2.5771484-0.5439453,3.9189453-0.8017578c1.3408203-0.2568359,2.6962891-0.4394531,4.0644531-0.5458984
		c1.3691406-0.1064453,2.6982422-0.0117188,3.9882812,0.2841797c1.2900391,0.296875,2.5146484,0.8623047,3.6728516,1.6982422
		c1.1591797,0.8359375,2.2021484,2.0605469,3.1279297,3.6738281c1.0087891,1.7568359,1.6513672,3.5732422,1.9316406,5.4501953
		c0.2783203,1.8779297,0.1669922,3.7167969-0.3359375,5.5185547s-1.3994141,3.5087891-2.6914062,5.1191406
		c-1.2910156,1.6113281-3.0117188,3.0341797-5.1630859,4.2685547c-1.2363281,0.7099609-2.5253906,1.2890625-3.8642578,1.7363281
		c-1.3408203,0.4472656-2.6894531,0.7636719-4.0498047,0.9472656c-1.359375,0.1855469-2.6982422,0.2392578-4.0175781,0.1621094
		s-2.5761719-0.2841797-3.7714844-0.6230469l0.1064453-4.671875c0.0537109-0.3642578,0.1699219-0.7109375,0.3496094-1.0410156
		c0.1806641-0.3300781,0.4404297-0.5927734,0.78125-0.7880859c0.4482422-0.2568359,1.0371094-0.3505859,1.7685547-0.2822266
		c0.7304688,0.0693359,1.578125,0.125,2.5439453,0.1660156c0.9648438,0.0419922,2.0322266-0.0283203,3.2021484-0.2119141
		c1.1699219-0.1826172,2.4267578-0.6601562,3.7714844-1.4316406c2.0605469-1.1826172,3.3759766-2.5869141,3.9443359-4.2119141
		s0.328125-3.3525391-0.7216797-5.1806641c-0.5859375-1.0214844-1.3203125-1.7080078-2.2011719-2.0605469
		c-0.8818359-0.3515625-1.8691406-0.5048828-2.9638672-0.4609375c-1.0947266,0.0449219-2.2666016,0.2236328-3.5166016,0.5351562
		c-1.2509766,0.3134766-2.5341797,0.609375-3.8515625,0.8886719s-2.6572266,0.4765625-4.0205078,0.5917969
		c-1.3632812,0.1162109-2.6982422,0.0117188-4.0039062-0.3115234c-1.3056641-0.3222656-2.5605469-0.9423828-3.765625-1.859375
		c-1.2050781-0.9160156-2.3173828-2.2617188-3.3359375-4.0361328c-0.8125-1.4160156-1.3222656-2.9580078-1.5292969-4.6269531
		c-0.2070312-1.6679688-0.0673828-3.3330078,0.4208984-4.9951172c0.4873047-1.6621094,1.3398438-3.2597656,2.5566406-4.7919922
		c1.2177734-1.5332031,2.8388672-2.8808594,4.8642578-4.0429688c2.2939453-1.3173828,4.6152344-2.1728516,6.9619141-2.5673828
		c2.3476562-0.3935547,4.5722656-0.3369141,6.6757812,0.171875L358.0097656,414.6152344z"/>
	<path class="st1" d="M389.9873047,376.9042969l4.5449219,4.8320312l-14.4736328,13.6152344l8.5175781,9.0546875
		l11.4033203-10.7265625l4.3964844,4.6738281l-11.4033203,10.7265625l8.6875,9.2353516l14.4736328-13.6152344l4.5673828,4.8544922
		l-20.5927734,19.3710938l-30.7138672-32.6494141L389.9873047,376.9042969z"/>
	<path class="st1" d="M411.9511719,347.8300781l5.5039062,4.0791016l-8.0292969,10.8339844l30.5087891,22.6123047
		l-4.9658203,6.6992188l-30.5087891-22.6123047l-8.0664062,10.8837891l-5.5039062-4.0800781L411.9511719,347.8300781z"/>
	<path class="st1" d="M447.5195312,337.0029297l16.2529297,6.5302734l-3.109375,7.7373047l-41.59375-16.7109375
		l5.0966797-12.6855469c1.1396484-2.8378906,2.4091797-5.1513672,3.8066406-6.9394531s2.8837891-3.1171875,4.4589844-3.9882812
		c1.5742188-0.8701172,3.2167969-1.3134766,4.9267578-1.328125c1.7089844-0.0146484,3.4462891,0.3330078,5.2109375,1.0410156
		c1.3994141,0.5625,2.640625,1.3007812,3.7207031,2.2138672c1.0810547,0.9130859,1.9736328,1.9619141,2.6777344,3.1474609
		c0.7050781,1.1845703,1.2109375,2.5019531,1.5195312,3.9511719s0.4003906,2.9951172,0.2753906,4.6367188
		c0.9492188-0.7539062,2.0839844-1.2783203,3.4042969-1.5722656l19.5439453-4.2412109l-2.796875,6.9609375
		c-0.2695312,0.671875-0.6328125,1.1884766-1.0898438,1.5498047c-0.4570312,0.3623047-1.0009766,0.6064453-1.6298828,0.7314453
		l-16.8320312,3.3935547c-0.6298828,0.1269531-1.1289062,0.34375-1.4980469,0.6513672
		c-0.3681641,0.3085938-0.7070312,0.8466797-1.015625,1.6132812L447.5195312,337.0029297z M441.9677734,334.7724609
		l1.9423828-4.8320312c0.5849609-1.4570312,0.9130859-2.8007812,0.984375-4.03125
		c0.0712891-1.2294922-0.0742188-2.3232422-0.4355469-3.2822266c-0.3613281-0.9570312-0.9130859-1.7861328-1.6572266-2.4863281
		c-0.7431641-0.6992188-1.6416016-1.2607422-2.6972656-1.6845703c-2.1083984-0.8476562-4.0087891-0.8037109-5.6992188,0.1318359
		c-1.6894531,0.9365234-3.1083984,2.8330078-4.2568359,5.6904297l-1.9873047,4.9472656L441.9677734,334.7724609z"/>
	<path class="st1" d="M483.0917969,270.0576172l-1.3857422,8.2861328l-19.3232422-3.2304688l-3.4667969,20.7294922
		l19.3242188,3.2314453l-1.3857422,8.2861328l-44.2119141-7.3925781l1.3857422-8.2861328l19.0175781,3.1796875l3.4658203-20.7294922
		l-19.0175781-3.1806641l1.3857422-8.2851562L483.0917969,270.0576172z"/>
</g>
<circle class="st2" cx="250" cy="250" r="175"/>
<path class="st0" d="M262.9110107,110.7304611c0,0-36.8244934,18.2248306-45.772934,33.4746628
	c-8.9484558,15.2264099-3.4200897,63.2715912-3.4200897,63.2715912s39.1670074-34.9036102,46.45224-50.0831604
	C267.4554749,142.2374115,262.9110107,110.7304611,262.9110107,110.7304611L262.9110107,110.7304611z M320.8182068,111.1052628
	c-12.6262207-0.0234299-27.1264343,1.1244125-34.6928101,5.7626114
	c-15.1326904,9.2998199-19.1149902,41.1815796-19.1149902,41.1815796s33.193573,7.4726562,47.1081848-1.9677124
	c13.9380188-9.4403839,30.0545654-43.7817841,30.0545654-43.7817841s-10.7287598-1.1946869-23.35495-1.1946869V111.1052628z
	 M202.1224823,124.0594177c0,0-4.2633972,28.5319519-5.3878021,42.1420135c0,0-27.430954,16.8427582-34.3648376,33.6855011
	c-6.9104462,16.8193207,1.4992218,61.4444275,1.4992218,61.4444275s34.5288086-27.2201538,40.9707489-45.1170349
	c6.4419403-17.8734589-2.7173309-55.2835693-2.7173309-55.2835693V124.0594177L202.1224823,124.0594177z M276.4976501,164.9130554
	c-3.7948914,0-7.4960938,0.4684906-10.8693237,1.6397552c-17.8734589,6.1842651-46.4288483,46.4054108-46.4288483,46.4054108
	s41.9546356,5.92659,58.0477448-1.8271637c16.0697327-7.7771759,34.1305847-37.3866882,34.1305847-37.3866882
	S292.9890137,164.9130554,276.4976501,164.9130554z M156.3495483,169.8089294l-13.328949,57.3215637
	c0,0-15.6246414,10.6350708-26.9624634,29.6095276c-10.9864426,18.4122314,5.4815063,58.164856,5.4815063,60.7884827
	c0,0,33.3575439-31.7177734,34.8099213-49.0056152c0.8198853-9.5809021-4.4508057-25.1587067-5.2238312-43.5475006
	c-0.796463-18.4122467,2.9047241-39.6120911,5.2238312-55.1664581H156.3495483z M233.0203705,223.7806854
	c-8.6204834,0.0702667-16.3976593,1.1244049-21.3403931,2.2488251c-16.8896027,7.5194855-42.329422,43.7817688-42.329422,43.7817688
	s43.1727295,8.1519775,58.04776,1.3117981s29.0238953-34.6927795,29.0238953-34.6927795l50.8796387-8.5736237
	c0,0-31.553833,0-44.4845581,0.9135895C253.6814423,224.9285126,242.8121338,223.7104034,233.0203705,223.7806854z
	 M176.1673126,255.0533905c0,0-33.5918121,41.8609161-42.7979279,54.8150787s-23.4486694,35.1144104-23.4486694,35.1144104
	h8.4330902c0,0,9.0889893-20.2862549,16.8661804-33.21698c7.8005981-12.9307251,40.9473267-56.7125244,40.9473267-56.7125244
	V255.0533905z M179.5873871,277.7290344c-4.6147766,0.023407-8.8781586,0.5621948-12.2982483,1.8974304
	c-16.8427429,6.512207-36.1920013,45.0935974-36.1920013,45.0935974s38.3705444,4.4507751,54.6276703-1.9677429
	s33.3106995-32.3736877,33.3106995-32.3736877c11.8063202-0.8198853,33.4278259-4.8490295,39.5886688-4.8724365h-1.1712646
	h-36.2154388c0,0-23.5657959-7.8708801-41.6500854-7.7771912V277.7290344z"/>
<path class="st3" d="M279.6282349,264.9700012c29.5393982,0,53.480072-23.9406891,53.480072-53.480072
	s-23.9406738-53.480072-53.480072-53.480072s-53.4800568,23.9406891-53.4800568,53.480072
	S250.0888672,264.9700012,279.6282349,264.9700012z M317.0643005,278.3400269h-6.977478
	c-9.2754517,4.2616882-19.5954285,6.6849976-30.4585876,6.6849976c-10.8631287,0-21.1413269-2.4233093-30.4585571-6.6849976
	h-6.977478c-31.0017395,0-56.1540833,25.1523438-56.1540833,56.1540833v17.381012
	c0,11.072052,8.9829865,20.0550232,20.0550232,20.0550232h147.0702209c11.0720215,0,20.0550232-8.9829712,20.0550232-20.0550232
	v-17.381012C373.2183838,303.4923706,348.0660095,278.3400269,317.0643005,278.3400269z"/>
</svg>
