<?xml version="1.0" encoding="utf-8"?>
<!-- Generator: Adobe Illustrator 24.3.0, SVG Export Plug-In . SVG Version: 6.00 Build 0)  -->
<svg version="1.1" id="Calque_1" xmlns="http://www.w3.org/2000/svg" xmlns:xlink="http://www.w3.org/1999/xlink" x="0px" y="0px"
	 viewBox="0 0 1000 1000" style="enable-background:new 0 0 1000 1000;" xml:space="preserve">
<style type="text/css">
	.st0{fill:#688ED8;}
</style>
<path class="st0" d="M644.6,27.5c-2.3,0-51.2,29.3-56.7,32.1c-1.4,0.9-1.8,2.3-1.8,3.2c0,7.8,19.2,53.9,23.3,63.1
	c-5.5,7.3-10,15.6-13.7,23.8c-9.2,0.9-68.2,7.4-68.2,14.2V228c0,6.9,59,13.3,68.2,14.2c3.7,8.8,8.2,16.5,13.7,23.8
	c-4.1,9.1-23.3,55.4-23.3,63.2c0,0.9,0.4,2.3,1.8,3.2c5.5,3.2,54.4,32.5,56.7,32.5c6,0,40.3-45.8,44.9-52.7
	c4.6,0.5,9.1,0.9,13.7,0.9c4.6,0,9.2-0.4,13.8-0.9c4.6,6.9,38.9,52.7,44.9,52.7c2.3,0,51.3-29.3,56.7-32.5c1.4-0.9,1.8-1.9,1.8-3.2
	c0-8.3-19.1-54.1-23.3-63.2c5.5-7.3,10-15,13.7-23.8c9.1-0.9,68.2-7.3,68.2-14.2v-64.1c0-6.8-59.1-13.3-68.2-14.2
	c-3.7-8.2-8.2-16.5-13.7-23.8c4.2-9.2,23.3-54.9,23.3-63.1c0-0.9-0.4-2.3-1.8-3.2c-5.4-3.2-54.4-32.1-56.7-32.1l-2.8,0.9
	C743.6,44,729.8,61.9,717,79.7c-4.6-0.4-9.3-0.9-13.8-0.9s-9.1,0.5-13.7,0.9C684.9,72.9,650.6,27.5,644.6,27.5L644.6,27.5z
	 M250.5,137.4c-6.4,0-11.9,4.5-13.7,11c-5.9,22.4-8.2,47.6-10.5,70.5c-12.4,4.1-23.8,8.7-35.3,14.6l-52.6-41.2
	c-2.8-1.8-6-3.2-9.7-3.2c-13.3,0-64.5,55.4-73.6,67.8c-2.3,2.7-3.2,5.9-3.2,9.1s1.3,6.5,3.2,9.2c14.6,17.4,28.4,34.3,41.2,52.6
	c-6,11.5-11,22.9-14.7,34.8l-71,11c-5.9,0.9-10.5,7.8-10.5,13.7V472c0,6.4,4.6,12.3,11,13.3l69.6,11c4.1,12.8,9.6,25.1,16,37.5
	c-13.2,17.9-27,34.8-40.3,52.2c-1.8,2.8-3.2,5.5-3.2,8.7c0,13.3,54.1,62.2,66,73.2c2.7,2.3,5.8,3.7,9.5,3.7c3.2,0,6.9-0.9,9.2-3.2
	l54-40.8c11,5.5,22.5,10.5,34.4,14.2l10.5,70.1c0.9,6.4,7.3,11.4,13.7,11.4h85.1c6.5,0,11.9-4.5,13.8-10.9
	c5.9-22.5,8.2-47.7,10.5-71c12.4-3.7,23.8-8.2,35.3-14.2l52.7,41.2c2.7,1.8,5.9,3.2,9.5,3.2c13.3,0,64.6-55.8,73.7-68.2
	c2.3-2.3,3.2-5.5,3.2-8.7c0-3.6-1.3-6.4-3.2-9.1c-14.6-17.4-28.4-34.4-41.2-52.7c6-11.5,11-22.9,14.7-34.8l71-11
	c5.9-0.9,10.5-7.8,10.5-13.7v-84.7c0-6.4-4.6-12.3-11-13.7l-69.6-10.6c-4.2-12.8-9.6-25.1-15.6-37.5c12.8-17.9,26.6-34.4,39.8-52.2
	c1.9-2.8,3.3-5.5,3.3-8.7c0-12.8-54-62.2-65.9-73.2c-2.8-2.3-6-3.7-9.7-3.7c-3.2,0-6.4,0.9-9.1,3.2l-54,40.8
	c-11-5.5-22.5-10.5-34.4-14.2l-10.5-70.1c-0.9-6.4-7.3-11.4-13.8-11.4L250.5,137.4L250.5,137.4z M703.2,137.4
	c32.1,0,58.7,26.5,58.7,58.6c0,32-26.1,58.6-58.7,58.6c-32,0-58.6-26.1-58.6-58.6C644.6,163.9,671.2,137.4,703.2,137.4z M293,313.1
	c64.6,0,117.3,52.7,117.3,117.2c0,64.6-52.8,117.3-117.3,117.3c-64.4,0-117.1-52.7-117.1-117.3C175.9,365.8,228.5,313.1,293,313.1z
	 M644.6,496.3c-2.3,0-51.2,29.3-56.7,32c-1.4,0.9-1.8,2.3-1.8,3.2c0,7.8,19.2,54.1,23.3,63.2c-5.5,7.4-10,15.6-13.7,23.8
	c-9.2,1-68.2,7.3-68.2,14.2v37.5c8.6-2.8,17.8-4.3,27.2-4.3h83.2v-83.2c0-25.2,10.8-48.4,28-65C656.6,506.4,647.5,496.3,644.6,496.3
	L644.6,496.3z M728.4,550.1c-18,0-32.6,14.6-32.6,32.6v141.2H554.7c-18,0-32.6,14.6-32.6,32.6v65.1c0,18,14.6,32.6,32.6,32.6h141.1
	v141.2c0,17.9,14.6,32.5,32.6,32.5h65.2c18,0,32.6-14.6,32.6-32.5V854.2h141.1c18,0,32.6-14.6,32.6-32.6v-65.1
	c0-18-14.6-32.6-32.6-32.6H826.2V582.7c0-18-14.6-32.6-32.6-32.6H728.4z"/>
</svg>
