<?xml version="1.0" encoding="utf-8"?>
<!-- Generator: Adobe Illustrator 26.0.2, SVG Export Plug-In . SVG Version: 6.00 Build 0)  -->
<svg version="1.1"
	 id="svg4" inkscape:version="0.92.5 (2060ec1f9f, 2020-04-08)" sodipodi:docname="ufa40-pallet-boxes.svg" xmlns:cc="http://creativecommons.org/ns#" xmlns:dc="http://purl.org/dc/elements/1.1/" xmlns:inkscape="http://www.inkscape.org/namespaces/inkscape" xmlns:rdf="http://www.w3.org/1999/02/22-rdf-syntax-ns#" xmlns:sodipodi="http://sodipodi.sourceforge.net/DTD/sodipodi-0.dtd" xmlns:svg="http://www.w3.org/2000/svg"
	 xmlns="http://www.w3.org/2000/svg" xmlns:xlink="http://www.w3.org/1999/xlink" x="0px" y="0px" viewBox="0 0 1000 1000"
	 style="enable-background:new 0 0 1000 1000;" xml:space="preserve">
<style type="text/css">
	.st0{fill:#333333;}
</style>
<sodipodi:namedview  bordercolor="#666666" borderopacity="1" gridtolerance="10" guidetolerance="10" id="namedview6" inkscape:current-layer="svg4" inkscape:cx="-136.67797" inkscape:cy="256" inkscape:pageopacity="0" inkscape:pageshadow="2" inkscape:window-height="1016" inkscape:window-maximized="1" inkscape:window-width="1920" inkscape:window-x="0" inkscape:window-y="27" inkscape:zoom="0.4609375" objecttolerance="10" pagecolor="#ffffff" showgrid="false">
	</sodipodi:namedview>
<path id="path2" inkscape:connector-curvature="0" class="st0" d="M150.8,499.4l300,1.4c27.5,0,50-22.5,50-50V149.4
	c0-27.5-22.5-48.6-50-48.6h-300c-27.5,0-50,22.5-50,50v300C100.8,478.3,123.3,499.4,150.8,499.4z M650.8,499.4h200
	c27.5,0,50-22.5,50-48.6v-200c0-27.5-22.5-50-50-50h-200c-27.5,0-50,22.5-50,50v200C600.8,478.3,623.3,499.4,650.8,499.4z
	 M975.8,700.8c13.7,0,25-11.3,25-25v-50c0-13.7-11.3-25-25-25h-950c-13.7,0-25,11.4-25,25v50c0,13.8,11.3,25,25,25h75v100h-75
	c-13.7,0-25,11.4-25,25v50c0,13.8,11.3,25,25,25h950c13.7,0,25-11.3,25-25v-50c0-13.7-11.3-25-25-25h-75v-100H975.8z M450.8,800.8
	h-250v-100h250V800.8z M800.8,800.8h-250v-100h250V800.8z"/>
</svg>
