<?xml version="1.0" encoding="utf-8"?>
<!-- Generator: Adobe Illustrator 24.3.0, SVG Export Plug-In . SVG Version: 6.00 Build 0)  -->
<svg version="1.1" id="Calque_1" xmlns="http://www.w3.org/2000/svg" xmlns:xlink="http://www.w3.org/1999/xlink" x="0px" y="0px"
	 viewBox="0 0 3003.4 292" style="enable-background:new 0 0 3003.4 292;" xml:space="preserve">
<style type="text/css">
	.st0{fill:url(#SVGID_1_);}
	.st1{fill:url(#SVGID_2_);}
	.st2{fill:#FFFFFF;}
	.st3{fill:#333333;}
</style>
<g>
	
		<linearGradient id="SVGID_1_" gradientUnits="userSpaceOnUse" x1="-623.8" y1="1052" x2="-623.8" y2="760" gradientTransform="matrix(-1 0 0 1 877.9 -760)">
		<stop  offset="0" style="stop-color:#BBBBBB"/>
		<stop  offset="1" style="stop-color:#DCDCDC"/>
	</linearGradient>
	<path class="st0" d="M25,282c-8,0-15-7-15-15V25c0-8,7-15,15-15h2953.5c8,0,15,7,15,15v242c0,8-7,15-15,15H25z M2978.4,292
		c14,0,25-11,25-25V25c0-14-11-25-25-25H25C11,0,0,11,0,25v242c0,14,11,25,25,25H2978.4z"/>
</g>
<linearGradient id="SVGID_2_" gradientUnits="userSpaceOnUse" x1="-623.85" y1="-402" x2="-623.85" y2="-130" gradientTransform="matrix(-1 0 0 -1 877.9 -120)">
	<stop  offset="0" style="stop-color:#E8E8E8"/>
	<stop  offset="1" style="stop-color:#F9F9F9"/>
</linearGradient>
<path class="st1" d="M25,282c-8,0-15-7-15-15V25c0-8,7-15,15-15h2953.5c8,0,15,7,15,15v242c0,8-7,15-15,15H25z"/>
<path class="st2" d="M110.6,202.8h66.9v-19.1h-66.9V202.8L110.6,202.8z M110.6,155h66.9v-28.7h-11.9c-4,0-7.2-3.2-7.2-7.2v-11.9
	h-47.8L110.6,155L110.6,155z M196.6,159.8c0-2.6-2.2-4.8-4.8-4.8s-4.8,2.2-4.8,4.8s2.2,4.8,4.8,4.8
	C194.5,164.5,196.6,162.4,196.6,159.8z M206.2,159.8v31.1c0,1.3-1.1,2.4-2.4,2.4h-16.7v11.9c0,4-3.2,7.2-7.2,7.2h-71.7
	c-3.9,0-7.2-3.2-7.2-7.2v-11.9H84.3c-1.3,0-2.4-1.1-2.4-2.4v-31.1c0-7.8,6.5-14.3,14.3-14.3h4.8v-40.7c0-4,3.2-7.2,7.2-7.2h50.2
	c4,0,9.4,2.2,12.2,5.1L182,114c2.8,2.8,5.1,8.3,5.1,12.2v19.1h4.8C199.7,145.4,206.2,151.9,206.2,159.8L206.2,159.8z"/>
<path class="st3" d="M100.6,192.8h66.9v-19.1h-66.9V192.8L100.6,192.8z M100.6,145h66.9v-28.7h-11.9c-4,0-7.2-3.2-7.2-7.2V97.2
	h-47.8L100.6,145L100.6,145z M186.6,149.8c0-2.6-2.2-4.8-4.8-4.8s-4.8,2.2-4.8,4.8s2.2,4.8,4.8,4.8
	C184.5,154.5,186.6,152.4,186.6,149.8z M196.2,149.8v31.1c0,1.3-1.1,2.4-2.4,2.4h-16.7v11.9c0,4-3.2,7.2-7.2,7.2H98.2
	c-3.9,0-7.2-3.2-7.2-7.2v-11.9H74.3c-1.3,0-2.4-1.1-2.4-2.4v-31.1c0-7.8,6.5-14.3,14.3-14.3H91V94.8c0-4,3.2-7.2,7.2-7.2h50.2
	c4,0,9.4,2.2,12.2,5.1L172,104c2.8,2.8,5.1,8.3,5.1,12.2v19.1h4.8C189.7,135.4,196.2,141.9,196.2,149.8L196.2,149.8z"/>
<g>
	<g>
		<path class="st2" d="M299,203.4h-18.9V102.2H299V203.4z"/>
		<path class="st2" d="M320.8,203.4v-71.8h10.5c2.2,0,3.7,1.1,4.4,3.2l1.1,5.3c1.3-1.4,2.6-2.7,4-3.9s2.8-2.2,4.4-3s3.2-1.5,5-2
			s3.8-0.7,5.9-0.7c4.5,0,8.2,1.2,11.2,3.7c2.9,2.4,5.1,5.7,6.5,9.8c1.1-2.4,2.5-4.4,4.2-6.1c1.7-1.7,3.5-3.1,5.5-4.2
			c2-1.1,4.1-1.9,6.4-2.4s4.5-0.8,6.8-0.8c4,0,7.5,0.6,10.6,1.8s5.7,3,7.8,5.3c2.1,2.3,3.7,5.2,4.8,8.5c1.1,3.4,1.6,7.2,1.6,11.5
			v45.7h-17.2v-45.7c0-4.6-1-8-3-10.3s-4.9-3.5-8.8-3.5c-1.8,0-3.4,0.3-4.9,0.9c-1.5,0.6-2.8,1.5-4,2.6c-1.1,1.1-2,2.6-2.7,4.3
			s-1,3.7-1,6v45.7h-17.4v-45.7c0-4.8-1-8.3-2.9-10.5s-4.8-3.3-8.6-3.3c-2.5,0-4.8,0.6-7,1.9s-4.2,2.9-6.1,5.1v52.6H320.8z"/>
		<path class="st2" d="M438.6,226.9v-95.3h10.6c1.1,0,2.1,0.3,2.9,0.8c0.8,0.5,1.3,1.3,1.5,2.4l1.4,6.7c2.9-3.3,6.2-6,10-8.1
			s8.2-3.1,13.2-3.1c3.9,0,7.5,0.8,10.7,2.5c3.2,1.6,6,4,8.4,7.1s4.2,6.9,5.5,11.5c1.3,4.5,1.9,9.8,1.9,15.6
			c0,5.4-0.7,10.3-2.2,14.9c-1.4,4.6-3.5,8.5-6.2,11.9s-5.9,6-9.7,7.9s-8.1,2.8-12.8,2.8c-4.1,0-7.5-0.6-10.3-1.9
			c-2.8-1.2-5.4-3-7.6-5.1v29.4L438.6,226.9L438.6,226.9z M472.2,143.9c-3.6,0-6.7,0.8-9.2,2.3s-4.9,3.7-7.1,6.4v32.2
			c2,2.4,4.1,4.1,6.4,5.1c2.3,1,4.8,1.4,7.5,1.4c2.6,0,5-0.5,7.1-1.5s3.9-2.5,5.4-4.5s2.6-4.5,3.4-7.6c0.8-3.1,1.2-6.7,1.2-10.8
			c0-4.2-0.3-7.8-1-10.7s-1.6-5.3-2.9-7.1c-1.3-1.8-2.8-3.2-4.6-4C476.6,144.3,474.5,143.9,472.2,143.9z"/>
		<path class="st2" d="M517.8,203.4v-71.8h10.1c1.8,0,3,0.3,3.7,1s1.2,1.8,1.4,3.4l1,8.7c2.6-4.4,5.6-7.9,9-10.5
			c3.5-2.6,7.3-3.9,11.6-3.9c3.5,0,6.5,0.8,8.8,2.5l-2.2,13c-0.1,0.8-0.4,1.4-0.9,1.8c-0.5,0.3-1.1,0.5-1.9,0.5
			c-0.7,0-1.7-0.2-2.9-0.5s-2.8-0.5-4.8-0.5c-3.6,0-6.7,1-9.2,3c-2.6,2-4.7,4.9-6.5,8.7v44.7L517.8,203.4L517.8,203.4z"/>
		<path class="st2" d="M596,110.7c0,1.5-0.3,2.9-0.9,4.2c-0.6,1.3-1.4,2.5-2.4,3.4c-1,1-2.2,1.8-3.5,2.3c-1.4,0.6-2.8,0.9-4.3,0.9
			s-2.9-0.3-4.2-0.9s-2.5-1.4-3.5-2.3c-1-1-1.8-2.1-2.3-3.4c-0.6-1.3-0.9-2.7-0.9-4.2s0.3-3,0.9-4.3c0.6-1.4,1.4-2.5,2.3-3.5
			c1-1,2.1-1.8,3.5-2.3c1.3-0.6,2.7-0.9,4.2-0.9s3,0.3,4.3,0.9c1.4,0.6,2.5,1.4,3.5,2.3c1,1,1.8,2.1,2.4,3.5
			C595.7,107.7,596,109.1,596,110.7z M593.4,131.6v71.8h-17.3v-71.8H593.4z"/>
		<path class="st2" d="M612.9,203.4v-71.8h10.6c2.2,0,3.7,1.1,4.4,3.2l1.1,5.3c1.3-1.4,2.6-2.7,4-3.9s2.8-2.2,4.4-3
			c1.6-0.8,3.2-1.5,5-2s3.8-0.7,5.9-0.7c4.5,0,8.2,1.2,11.2,3.7c2.9,2.4,5.1,5.7,6.5,9.8c1.1-2.4,2.5-4.4,4.2-6.1
			c1.7-1.7,3.5-3.1,5.5-4.2c2-1.1,4.1-1.9,6.4-2.4c2.3-0.5,4.5-0.8,6.8-0.8c4,0,7.5,0.6,10.6,1.8s5.7,3,7.8,5.3s3.7,5.2,4.8,8.5
			c1.1,3.4,1.6,7.2,1.6,11.5v45.7h-17.3v-45.7c0-4.6-1-8-3-10.3s-4.9-3.5-8.8-3.5c-1.8,0-3.4,0.3-4.9,0.9s-2.8,1.5-4,2.6
			c-1.1,1.1-2,2.6-2.7,4.3s-1,3.7-1,6v45.7h-17.4v-45.7c0-4.8-1-8.3-2.9-10.5s-4.8-3.3-8.6-3.3c-2.5,0-4.8,0.6-7,1.9
			s-4.2,2.9-6.1,5.1v52.6H612.9z"/>
		<path class="st2" d="M760.5,130.5c4.5,0,8.7,0.7,12.5,2.2c3.8,1.4,7.1,3.6,9.8,6.3c2.8,2.8,4.9,6.2,6.4,10.2s2.3,8.6,2.3,13.8
			c0,1.3-0.1,2.4-0.2,3.3c-0.1,0.9-0.3,1.5-0.6,2s-0.7,0.8-1.2,1.1s-1.2,0.3-2,0.3h-44.4c0.5,7.4,2.5,12.8,6,16.2
			c3.5,3.5,8,5.2,13.7,5.2c2.8,0,5.2-0.3,7.2-1s3.8-1.4,5.3-2.2s2.8-1.5,4-2.2c1.1-0.7,2.2-1,3.3-1c0.7,0,1.3,0.1,1.8,0.4
			c0.5,0.3,1,0.7,1.3,1.2l5,6.3c-1.9,2.2-4.1,4.1-6.4,5.6c-2.4,1.5-4.9,2.7-7.5,3.6c-2.6,0.9-5.2,1.6-7.9,1.9
			c-2.7,0.4-5.3,0.6-7.8,0.6c-5,0-9.6-0.8-13.9-2.5c-4.3-1.7-8-4.1-11.2-7.4c-3.2-3.2-5.7-7.3-7.5-12c-1.8-4.8-2.7-10.3-2.7-16.6
			c0-4.9,0.8-9.5,2.4-13.8c1.6-4.3,3.9-8.1,6.8-11.3c3-3.2,6.6-5.7,10.8-7.6C750.3,131.4,755.1,130.5,760.5,130.5z M760.9,142.9
			c-5,0-9,1.4-11.8,4.3c-2.8,2.8-4.7,6.9-5.5,12.1h32.5c0-2.2-0.3-4.4-0.9-6.3c-0.6-2-1.5-3.7-2.8-5.2s-2.8-2.7-4.8-3.5
			C765.7,143.3,763.4,142.9,760.9,142.9z"/>
		<path class="st2" d="M805.7,203.4v-71.8h10.1c1.8,0,3,0.3,3.7,1s1.2,1.8,1.4,3.4l1,8.7c2.6-4.4,5.6-7.9,9-10.5
			c3.5-2.6,7.3-3.9,11.6-3.9c3.5,0,6.5,0.8,8.8,2.5l-2.2,13c-0.1,0.8-0.4,1.4-0.9,1.8c-0.5,0.3-1.1,0.5-1.9,0.5
			c-0.7,0-1.7-0.2-2.9-0.5s-2.8-0.5-4.8-0.5c-3.6,0-6.7,1-9.2,3c-2.6,2-4.7,4.9-6.5,8.7v44.7L805.7,203.4L805.7,203.4z"/>
		<path class="st2" d="M908.3,99.4v104H891v-104C891,99.4,908.3,99.4,908.3,99.4z"/>
		<path class="st2" d="M957.5,130.5c4.5,0,8.7,0.7,12.5,2.2c3.8,1.4,7.1,3.6,9.8,6.3c2.8,2.8,4.9,6.2,6.4,10.2s2.3,8.6,2.3,13.8
			c0,1.3-0.1,2.4-0.2,3.3c-0.1,0.9-0.3,1.5-0.6,2c-0.3,0.5-0.7,0.8-1.2,1.1s-1.2,0.3-2,0.3h-44.4c0.5,7.4,2.5,12.8,6,16.2
			c3.5,3.5,8,5.2,13.7,5.2c2.8,0,5.2-0.3,7.2-1s3.8-1.4,5.3-2.2s2.8-1.5,4-2.2c1.1-0.7,2.2-1,3.3-1c0.7,0,1.3,0.1,1.8,0.4
			c0.5,0.3,1,0.7,1.3,1.2l5,6.3c-1.9,2.2-4.1,4.1-6.4,5.6c-2.4,1.5-4.9,2.7-7.5,3.6c-2.6,0.9-5.2,1.6-7.9,1.9
			c-2.7,0.4-5.3,0.6-7.8,0.6c-5,0-9.6-0.8-13.9-2.5c-4.3-1.7-8-4.1-11.2-7.4c-3.2-3.2-5.7-7.3-7.5-12c-1.8-4.8-2.7-10.3-2.7-16.6
			c0-4.9,0.8-9.5,2.4-13.8c1.6-4.3,3.9-8.1,6.8-11.3c3-3.2,6.6-5.7,10.8-7.6C947.3,131.4,952.1,130.5,957.5,130.5z M957.8,142.9
			c-5,0-9,1.4-11.8,4.3c-2.8,2.8-4.7,6.9-5.5,12.1H973c0-2.2-0.3-4.4-0.9-6.3c-0.6-2-1.5-3.7-2.8-5.2s-2.8-2.7-4.8-3.5
			C962.6,143.3,960.4,142.9,957.8,142.9z"/>
		<path class="st2" d="M1029.6,203.4v-71.8h10.1c1.8,0,3,0.3,3.7,1s1.2,1.8,1.4,3.4l1,8.7c2.6-4.4,5.6-7.9,9-10.5
			c3.5-2.6,7.3-3.9,11.6-3.9c3.5,0,6.5,0.8,8.8,2.5l-2.2,13c-0.1,0.8-0.4,1.4-0.9,1.8c-0.5,0.3-1.1,0.5-1.9,0.5
			c-0.7,0-1.7-0.2-2.9-0.5s-2.8-0.5-4.8-0.5c-3.6,0-6.7,1-9.2,3c-2.6,2-4.7,4.9-6.5,8.7v44.7L1029.6,203.4L1029.6,203.4z"/>
		<path class="st2" d="M1116.5,130.5c4.5,0,8.7,0.7,12.5,2.2c3.8,1.4,7.1,3.6,9.8,6.3c2.8,2.8,4.9,6.2,6.4,10.2s2.3,8.6,2.3,13.8
			c0,1.3-0.1,2.4-0.2,3.3c-0.1,0.9-0.3,1.5-0.6,2c-0.3,0.5-0.7,0.8-1.2,1.1s-1.2,0.3-2,0.3h-44.4c0.5,7.4,2.5,12.8,6,16.2
			c3.5,3.5,8,5.2,13.7,5.2c2.8,0,5.2-0.3,7.2-1s3.8-1.4,5.3-2.2s2.8-1.5,4-2.2c1.1-0.7,2.2-1,3.3-1c0.7,0,1.3,0.1,1.8,0.4
			c0.5,0.3,1,0.7,1.3,1.2l5,6.3c-1.9,2.2-4.1,4.1-6.4,5.6c-2.4,1.5-4.9,2.7-7.5,3.6c-2.6,0.9-5.2,1.6-7.9,1.9
			c-2.7,0.4-5.3,0.6-7.8,0.6c-5,0-9.6-0.8-13.9-2.5s-8-4.1-11.2-7.4c-3.2-3.2-5.7-7.3-7.5-12c-1.8-4.8-2.7-10.3-2.7-16.6
			c0-4.9,0.8-9.5,2.4-13.8c1.6-4.3,3.9-8.1,6.8-11.3c3-3.2,6.6-5.7,10.8-7.6C1106.3,131.4,1111.1,130.5,1116.5,130.5z M1116.9,142.9
			c-5,0-9,1.4-11.8,4.3c-2.8,2.8-4.7,6.9-5.5,12.1h32.5c0-2.2-0.3-4.4-0.9-6.3c-0.6-2-1.5-3.7-2.8-5.2s-2.8-2.7-4.8-3.5
			C1121.7,143.3,1119.4,142.9,1116.9,142.9z"/>
		<path class="st2" d="M1186.5,130.3c3.1,0,6,0.3,8.7,0.9c2.7,0.6,5.2,1.6,7.4,2.8h20.6v6.4c0,1.1-0.3,1.9-0.8,2.5
			c-0.6,0.6-1.5,1-2.9,1.3l-6.4,1.2c0.5,1.2,0.8,2.5,1.1,3.8c0.3,1.4,0.4,2.8,0.4,4.3c0,3.5-0.7,6.8-2.1,9.6
			c-1.4,2.9-3.4,5.3-5.9,7.3s-5.5,3.6-8.9,4.7c-3.4,1.1-7.2,1.6-11.2,1.6c-2.7,0-5.3-0.3-7.9-0.8c-2.2,1.4-3.4,2.9-3.4,4.6
			c0,1.5,0.7,2.5,2,3.2s3.1,1.2,5.2,1.4c2.2,0.3,4.6,0.4,7.4,0.4s5.6,0.1,8.5,0.4c2.9,0.2,5.7,0.6,8.5,1.2c2.8,0.6,5.2,1.5,7.4,2.8
			s3.9,3,5.2,5.2c1.3,2.2,2,5,2,8.4c0,3.2-0.8,6.3-2.3,9.3c-1.6,3-3.8,5.7-6.8,8s-6.6,4.2-10.9,5.7c-4.3,1.4-9.2,2.1-14.7,2.1
			s-10.2-0.5-14.2-1.6s-7.3-2.5-10-4.2c-2.6-1.8-4.6-3.8-5.9-6.1s-2-4.7-2-7.1c0-3.4,1-6.2,3.1-8.5c2.1-2.3,4.9-4.1,8.5-5.5
			c-1.8-1-3.2-2.3-4.3-3.9c-1.1-1.6-1.6-3.8-1.6-6.4c0-1.1,0.2-2.2,0.6-3.3c0.4-1.1,0.9-2.3,1.7-3.4c0.8-1.1,1.7-2.2,2.9-3.2
			s2.5-1.9,4.1-2.7c-3.6-2-6.5-4.6-8.6-7.8c-2.1-3.3-3.1-7.1-3.1-11.5c0-3.5,0.7-6.8,2.1-9.6c1.4-2.9,3.4-5.3,5.9-7.4
			c2.5-2,5.6-3.6,9-4.7C1178.6,130.9,1182.4,130.3,1186.5,130.3z M1205.5,206.4c0-1.4-0.4-2.6-1.3-3.5c-0.8-0.9-2-1.6-3.4-2.1
			c-1.4-0.5-3.1-0.9-5.1-1.1c-1.9-0.2-4-0.4-6.2-0.4s-4.4,0-6.7,0c-2.3,0-4.5-0.3-6.7-0.8c-2,1.1-3.5,2.3-4.7,3.8s-1.8,3.2-1.8,5.1
			c0,1.3,0.3,2.4,0.9,3.5c0.6,1.1,1.6,2,3,2.8c1.4,0.8,3.2,1.4,5.4,1.9c2.2,0.4,4.9,0.7,8,0.7c3.2,0,6-0.3,8.3-0.8s4.3-1.2,5.8-2.1
			s2.6-1.9,3.3-3.1C1205.1,209.2,1205.5,207.8,1205.5,206.4z M1186.5,165.7c2.1,0,4-0.3,5.6-0.9c1.6-0.6,2.9-1.4,4-2.4
			c1.1-1,1.8-2.3,2.4-3.7c0.5-1.4,0.8-3,0.8-4.8c0-3.5-1.1-6.4-3.2-8.4c-2.1-2.1-5.3-3.1-9.6-3.1c-4.2,0-7.4,1-9.6,3.1
			c-2.1,2.1-3.2,4.9-3.2,8.4c0,1.7,0.3,3.2,0.8,4.7c0.5,1.4,1.3,2.7,2.4,3.7c1,1.1,2.4,1.9,4,2.5
			C1182.6,165.4,1184.4,165.7,1186.5,165.7z"/>
		<path class="st2" d="M1255.1,110.7c0,1.5-0.3,2.9-0.9,4.2c-0.6,1.3-1.4,2.5-2.4,3.4c-1,1-2.2,1.8-3.5,2.3
			c-1.4,0.6-2.8,0.9-4.3,0.9s-2.9-0.3-4.2-0.9c-1.3-0.6-2.5-1.4-3.5-2.3c-1-1-1.8-2.1-2.3-3.4c-0.6-1.3-0.9-2.7-0.9-4.2
			s0.3-3,0.9-4.3c0.6-1.4,1.4-2.5,2.3-3.5c1-1,2.1-1.8,3.5-2.3c1.3-0.6,2.7-0.9,4.2-0.9s3,0.3,4.3,0.9c1.4,0.6,2.5,1.4,3.5,2.3
			c1,1,1.8,2.1,2.4,3.5C1254.8,107.7,1255.1,109.1,1255.1,110.7z M1252.5,131.6v71.8h-17.3v-71.8H1252.5z"/>
		<path class="st2" d="M1314.7,145.6c-0.5,0.7-1,1.3-1.5,1.6s-1.2,0.5-2,0.5s-1.7-0.2-2.7-0.7s-2.1-1-3.3-1.6
			c-1.3-0.6-2.7-1.1-4.3-1.6c-1.6-0.5-3.5-0.7-5.7-0.7c-3.4,0-6.1,0.7-8,2.2c-2,1.4-2.9,3.3-2.9,5.7c0,1.5,0.5,2.8,1.5,3.9
			c1,1,2.3,2,4,2.8s3.5,1.5,5.6,2.1c2.1,0.6,4.2,1.3,6.4,2.1c2.2,0.7,4.3,1.6,6.4,2.6c2.1,1,4,2.2,5.6,3.6c1.7,1.5,3,3.2,4,5.3
			s1.5,4.5,1.5,7.4c0,3.5-0.6,6.6-1.9,9.6c-1.3,2.9-3.1,5.4-5.5,7.6c-2.4,2.1-5.4,3.8-9,5c-3.6,1.2-7.7,1.8-12.3,1.8
			c-2.5,0-4.9-0.2-7.2-0.7c-2.4-0.4-4.6-1.1-6.8-1.9c-2.2-0.8-4.2-1.7-6-2.8s-3.5-2.2-4.9-3.5l4-6.6c0.5-0.8,1.1-1.4,1.8-1.8
			c0.7-0.4,1.6-0.6,2.7-0.6c1.1,0,2.1,0.3,3,0.9c1,0.6,2.1,1.3,3.3,2c1.3,0.7,2.7,1.4,4.4,2s3.9,0.9,6.5,0.9c2.1,0,3.8-0.2,5.3-0.7
			s2.7-1.1,3.6-1.9c1-0.8,1.7-1.7,2.1-2.8c0.4-1.1,0.7-2.1,0.7-3.3c0-1.7-0.5-3.1-1.5-4.1c-1-1.1-2.3-2-4-2.8s-3.5-1.5-5.7-2.1
			c-2.1-0.6-4.3-1.3-6.5-2.1c-2.2-0.7-4.4-1.6-6.5-2.6c-2.1-1-4-2.3-5.7-3.8s-3-3.4-4-5.7c-1-2.2-1.5-4.9-1.5-8.1
			c0-2.9,0.6-5.7,1.8-8.4s2.9-5,5.1-7s5.1-3.6,8.5-4.8c3.4-1.2,7.3-1.8,11.7-1.8c4.9,0,9.5,0.8,13.5,2.5c4.1,1.6,7.4,3.8,10.2,6.4
			L1314.7,145.6z"/>
		<path class="st2" d="M1356.8,204.5c-6.2,0-11-1.8-14.3-5.3c-3.4-3.5-5-8.4-5-14.6v-40.1h-7.3c-0.9,0-1.7-0.3-2.4-0.9
			c-0.7-0.6-1-1.5-1-2.7V134l11.5-1.9l3.6-19.6c0.2-0.9,0.6-1.7,1.3-2.2c0.7-0.5,1.5-0.8,2.6-0.8h9v22.6h18.9v12.3h-18.9v38.9
			c0,2.2,0.6,4,1.7,5.2c1.1,1.2,2.6,1.9,4.5,1.9c1.1,0,2-0.1,2.7-0.4c0.7-0.3,1.4-0.5,1.9-0.8s1-0.5,1.4-0.8
			c0.4-0.3,0.8-0.4,1.3-0.4s0.9,0.1,1.3,0.4c0.3,0.3,0.7,0.6,1.1,1.2l5.2,8.4c-2.5,2.1-5.4,3.7-8.7,4.8
			C1363.7,204,1360.3,204.5,1356.8,204.5z"/>
		<path class="st2" d="M1387.4,203.4v-71.8h10.1c1.8,0,3,0.3,3.7,1s1.2,1.8,1.4,3.4l1,8.7c2.6-4.4,5.6-7.9,9-10.5
			c3.5-2.6,7.3-3.9,11.6-3.9c3.5,0,6.5,0.8,8.8,2.5l-2.2,13c-0.1,0.8-0.4,1.4-0.9,1.8c-0.5,0.3-1.1,0.5-1.9,0.5
			c-0.7,0-1.7-0.2-2.9-0.5c-1.2-0.3-2.8-0.5-4.8-0.5c-3.6,0-6.7,1-9.2,3c-2.6,2-4.7,4.9-6.5,8.7v44.7L1387.4,203.4L1387.4,203.4z"/>
		<path class="st2" d="M1474.3,130.5c4.5,0,8.7,0.7,12.5,2.2c3.8,1.4,7.1,3.6,9.8,6.3c2.8,2.8,4.9,6.2,6.4,10.2s2.3,8.6,2.3,13.8
			c0,1.3-0.1,2.4-0.2,3.3c-0.1,0.9-0.3,1.5-0.6,2c-0.3,0.5-0.7,0.8-1.2,1.1s-1.2,0.3-2,0.3h-44.4c0.5,7.4,2.5,12.8,6,16.2
			c3.5,3.5,8,5.2,13.7,5.2c2.8,0,5.2-0.3,7.2-1s3.8-1.4,5.3-2.2s2.8-1.5,4-2.2c1.1-0.7,2.2-1,3.3-1c0.7,0,1.3,0.1,1.8,0.4
			c0.5,0.3,1,0.7,1.3,1.2l5,6.3c-1.9,2.2-4.1,4.1-6.4,5.6c-2.4,1.5-4.9,2.7-7.5,3.6c-2.6,0.9-5.2,1.6-7.9,1.9
			c-2.7,0.4-5.3,0.6-7.8,0.6c-5,0-9.6-0.8-13.9-2.5s-8-4.1-11.2-7.4c-3.2-3.2-5.7-7.3-7.5-12c-1.8-4.8-2.7-10.3-2.7-16.6
			c0-4.9,0.8-9.5,2.4-13.8c1.6-4.3,3.9-8.1,6.8-11.3c3-3.2,6.6-5.7,10.8-7.6C1464.1,131.4,1468.9,130.5,1474.3,130.5z M1474.6,142.9
			c-5,0-9,1.4-11.8,4.3c-2.8,2.8-4.7,6.9-5.5,12.1h32.5c0-2.2-0.3-4.4-0.9-6.3c-0.6-2-1.5-3.7-2.8-5.2s-2.8-2.7-4.8-3.5
			C1479.4,143.3,1477.2,142.9,1474.6,142.9z"/>
		<path class="st2" d="M1546.4,203.4v-104h17.3v40c2.8-2.7,5.9-4.8,9.2-6.4c3.4-1.6,7.3-2.5,11.8-2.5c3.9,0,7.4,0.7,10.4,2
			s5.6,3.2,7.6,5.6s3.6,5.3,4.6,8.6s1.6,7,1.6,11v45.7h-17.3v-45.7c0-4.4-1-7.8-3-10.2s-5.1-3.6-9.1-3.6c-3,0-5.8,0.7-8.4,2
			c-2.6,1.4-5.1,3.2-7.4,5.5v51.9L1546.4,203.4L1546.4,203.4z"/>
		<path class="st2" d="M1656.7,130.5c5.4,0,10.2,0.9,14.6,2.6c4.4,1.7,8.1,4.2,11.2,7.3c3.1,3.2,5.5,7,7.1,11.6
			c1.7,4.6,2.5,9.7,2.5,15.3c0,5.7-0.8,10.8-2.5,15.4c-1.7,4.6-4.1,8.5-7.1,11.7s-6.8,5.7-11.2,7.4c-4.4,1.7-9.2,2.6-14.6,2.6
			c-5.4,0-10.2-0.9-14.6-2.6c-4.4-1.7-8.1-4.2-11.2-7.4c-3.1-3.2-5.5-7.1-7.2-11.7c-1.7-4.6-2.6-9.7-2.6-15.4
			c0-5.6,0.9-10.8,2.6-15.3c1.7-4.6,4.1-8.4,7.2-11.6c3.1-3.2,6.8-5.6,11.2-7.3S1651.3,130.5,1656.7,130.5z M1656.7,191.2
			c6,0,10.4-2,13.3-6c2.9-4,4.3-9.9,4.3-17.6c0-7.7-1.4-13.6-4.3-17.7c-2.9-4.1-7.3-6.1-13.3-6.1c-6.1,0-10.5,2-13.4,6.1
			c-2.9,4.1-4.3,10-4.3,17.7s1.4,13.6,4.3,17.6C1646.1,189.1,1650.6,191.2,1656.7,191.2z"/>
		<path class="st2" d="M1705.6,203.4v-71.8h10.1c1.8,0,3,0.3,3.7,1s1.2,1.8,1.4,3.4l1,8.7c2.6-4.4,5.6-7.9,9-10.5
			c3.5-2.6,7.3-3.9,11.6-3.9c3.5,0,6.5,0.8,8.8,2.5l-2.2,13c-0.1,0.8-0.4,1.4-0.9,1.8c-0.5,0.3-1.1,0.5-1.9,0.5
			c-0.7,0-1.7-0.2-2.9-0.5s-2.8-0.5-4.8-0.5c-3.6,0-6.7,1-9.2,3c-2.6,2-4.7,4.9-6.5,8.7v44.7L1705.6,203.4L1705.6,203.4z"/>
		<path class="st2" d="M1817.1,203.4h-7.8c-1.6,0-2.9-0.2-3.8-0.7c-0.9-0.5-1.6-1.5-2.1-3l-1.5-5.1c-1.8,1.6-3.6,3.1-5.4,4.3
			s-3.6,2.3-5.4,3.1c-1.9,0.8-3.9,1.5-6,1.9c-2.1,0.4-4.4,0.6-7,0.6c-3,0-5.8-0.4-8.4-1.2c-2.6-0.8-4.8-2-6.6-3.7
			c-1.8-1.6-3.3-3.7-4.3-6.1c-1-2.4-1.5-5.3-1.5-8.5c0-2.7,0.7-5.4,2.1-8c1.4-2.6,3.8-5,7.1-7.2c3.3-2.1,7.7-3.9,13.2-5.3
			c5.5-1.4,12.3-2.1,20.5-2.1v-4.2c0-4.8-1-8.4-3-10.8c-2-2.3-5-3.5-8.9-3.5c-2.8,0-5.1,0.3-7,1c-1.9,0.7-3.5,1.4-4.9,2.2
			c-1.4,0.8-2.6,1.6-3.8,2.2c-1.2,0.7-2.5,1-3.9,1c-1.2,0-2.2-0.3-3-0.9c-0.8-0.6-1.5-1.4-2-2.2l-3.1-5.5
			c8.3-7.6,18.2-11.3,29.9-11.3c4.2,0,7.9,0.7,11.2,2.1c3.3,1.4,6.1,3.3,8.4,5.7s4,5.4,5.2,8.8c1.2,3.4,1.8,7.1,1.8,11.2
			L1817.1,203.4L1817.1,203.4z M1783.5,192.6c1.8,0,3.4-0.2,4.9-0.5s2.9-0.8,4.2-1.4c1.3-0.6,2.6-1.4,3.9-2.4
			c1.2-0.9,2.5-2.1,3.7-3.3v-12c-5,0-9.3,0.3-12.6,1c-3.4,0.6-6.1,1.4-8.2,2.4c-2.1,1-3.5,2.1-4.4,3.5c-0.9,1.3-1.3,2.7-1.3,4.3
			c0,3.1,0.9,5.2,2.7,6.6C1778.2,192,1780.6,192.6,1783.5,192.6z"/>
		<path class="st2" d="M1855.1,110.7c0,1.5-0.3,2.9-0.9,4.2c-0.6,1.3-1.4,2.5-2.4,3.4c-1,1-2.2,1.8-3.5,2.3
			c-1.4,0.6-2.8,0.9-4.3,0.9s-2.9-0.3-4.2-0.9c-1.3-0.6-2.5-1.4-3.5-2.3c-1-1-1.8-2.1-2.3-3.4c-0.6-1.3-0.9-2.7-0.9-4.2
			s0.3-3,0.9-4.3c0.6-1.4,1.4-2.5,2.3-3.5c1-1,2.1-1.8,3.5-2.3c1.3-0.6,2.7-0.9,4.2-0.9s3,0.3,4.3,0.9c1.4,0.6,2.5,1.4,3.5,2.3
			c1,1,1.8,2.1,2.4,3.5C1854.8,107.7,1855.1,109.1,1855.1,110.7z M1852.5,131.6v71.8h-17.3v-71.8H1852.5z"/>
		<path class="st2" d="M1872,203.4v-71.8h10.1c1.8,0,3,0.3,3.7,1s1.2,1.8,1.4,3.4l1,8.7c2.6-4.4,5.6-7.9,9-10.5
			c3.5-2.6,7.3-3.9,11.6-3.9c3.5,0,6.5,0.8,8.8,2.5l-2.2,13c-0.1,0.8-0.4,1.4-0.9,1.8c-0.5,0.3-1.1,0.5-1.9,0.5
			c-0.7,0-1.7-0.2-2.9-0.5s-2.8-0.5-4.8-0.5c-3.6,0-6.7,1-9.2,3c-2.6,2-4.7,4.9-6.5,8.7v44.7L1872,203.4L1872,203.4z"/>
		<path class="st2" d="M1958.9,130.5c4.5,0,8.7,0.7,12.5,2.2c3.8,1.4,7.1,3.6,9.8,6.3c2.8,2.8,4.9,6.2,6.4,10.2s2.3,8.6,2.3,13.8
			c0,1.3-0.1,2.4-0.2,3.3c-0.1,0.9-0.3,1.5-0.6,2s-0.7,0.8-1.2,1.1s-1.2,0.3-2,0.3h-44.4c0.5,7.4,2.5,12.8,6,16.2
			c3.5,3.5,8,5.2,13.7,5.2c2.8,0,5.2-0.3,7.2-1s3.8-1.4,5.3-2.2s2.8-1.5,4-2.2c1.1-0.7,2.2-1,3.3-1c0.7,0,1.3,0.1,1.8,0.4
			c0.5,0.3,1,0.7,1.3,1.2l5,6.3c-1.9,2.2-4.1,4.1-6.4,5.6c-2.4,1.5-4.9,2.7-7.5,3.6c-2.6,0.9-5.2,1.6-7.9,1.9
			c-2.7,0.4-5.3,0.6-7.8,0.6c-5,0-9.6-0.8-13.9-2.5s-8-4.1-11.2-7.4c-3.2-3.2-5.7-7.3-7.5-12c-1.8-4.8-2.7-10.3-2.7-16.6
			c0-4.9,0.8-9.5,2.4-13.8c1.6-4.3,3.9-8.1,6.8-11.3c3-3.2,6.6-5.7,10.8-7.6C1948.7,131.4,1953.5,130.5,1958.9,130.5z M1959.2,142.9
			c-5,0-9,1.4-11.8,4.3c-2.8,2.8-4.7,6.9-5.5,12.1h32.5c0-2.2-0.3-4.4-0.9-6.3c-0.6-2-1.5-3.7-2.8-5.2s-2.8-2.7-4.8-3.5
			C1964,143.3,1961.8,142.9,1959.2,142.9z"/>
		<path class="st2" d="M2081.6,203.4c-2.2,0-3.7-1-4.4-3.2l-1.4-6.9c-1.5,1.7-3.1,3.2-4.7,4.5c-1.6,1.4-3.4,2.5-5.3,3.5
			c-1.9,1-3.9,1.7-6.1,2.3s-4.5,0.8-7,0.8c-3.9,0-7.5-0.8-10.8-2.5c-3.3-1.6-6.1-4-8.4-7.1c-2.4-3.1-4.2-6.9-5.5-11.5
			s-1.9-9.8-1.9-15.7c0-5.3,0.7-10.3,2.2-14.8c1.4-4.6,3.5-8.5,6.2-11.9s6-6,9.7-7.9c3.8-1.9,8-2.8,12.7-2.8c4,0,7.4,0.6,10.3,1.9
			s5.4,3,7.6,5.1V99.4h17.3v104H2081.6z M2058.6,190.7c3.6,0,6.7-0.7,9.2-2.2s4.9-3.6,7.1-6.4v-32.2c-2-2.4-4.1-4.1-6.4-5
			c-2.3-1-4.8-1.5-7.5-1.5c-2.6,0-5,0.5-7.1,1.5s-3.9,2.5-5.4,4.4c-1.5,2-2.6,4.5-3.4,7.6c-0.8,3.1-1.2,6.7-1.2,10.8
			c0,4.2,0.3,7.8,1,10.7s1.6,5.3,2.9,7.1c1.3,1.8,2.8,3.2,4.6,4S2056.3,190.7,2058.6,190.7z"/>
		<path class="st2" d="M2140.5,130.5c4.5,0,8.7,0.7,12.5,2.2c3.8,1.4,7.1,3.6,9.8,6.3c2.8,2.8,4.9,6.2,6.4,10.2s2.3,8.6,2.3,13.8
			c0,1.3-0.1,2.4-0.2,3.3c-0.1,0.9-0.3,1.5-0.6,2s-0.7,0.8-1.2,1.1s-1.2,0.3-2,0.3h-44.4c0.5,7.4,2.5,12.8,6,16.2
			c3.5,3.5,8,5.2,13.7,5.2c2.8,0,5.2-0.3,7.2-1s3.8-1.4,5.3-2.2s2.8-1.5,4-2.2c1.1-0.7,2.2-1,3.3-1c0.7,0,1.3,0.1,1.8,0.4
			c0.5,0.3,1,0.7,1.3,1.2l5,6.3c-1.9,2.2-4.1,4.1-6.4,5.6c-2.4,1.5-4.9,2.7-7.5,3.6c-2.6,0.9-5.2,1.6-7.9,1.9
			c-2.7,0.4-5.3,0.6-7.8,0.6c-5,0-9.6-0.8-13.9-2.5c-4.3-1.7-8-4.1-11.2-7.4c-3.2-3.2-5.7-7.3-7.5-12c-1.8-4.8-2.7-10.3-2.7-16.6
			c0-4.9,0.8-9.5,2.4-13.8c1.6-4.3,3.9-8.1,6.8-11.3c3-3.2,6.6-5.7,10.8-7.6C2130.3,131.4,2135.2,130.5,2140.5,130.5z M2140.9,142.9
			c-5,0-9,1.4-11.8,4.3c-2.8,2.8-4.7,6.9-5.5,12.1h32.5c0-2.2-0.3-4.4-0.9-6.3c-0.6-2-1.5-3.7-2.8-5.2s-2.8-2.7-4.8-3.5
			C2145.7,143.3,2143.4,142.9,2140.9,142.9z"/>
		<path class="st2" d="M2228.3,145.6c-0.5,0.7-1,1.3-1.5,1.6s-1.2,0.5-2,0.5s-1.7-0.2-2.7-0.7s-2.1-1-3.3-1.6
			c-1.3-0.6-2.7-1.1-4.3-1.6s-3.5-0.7-5.7-0.7c-3.4,0-6.1,0.7-8,2.2c-2,1.4-2.9,3.3-2.9,5.7c0,1.5,0.5,2.8,1.5,3.9c1,1,2.3,2,4,2.8
			s3.5,1.5,5.6,2.1s4.2,1.3,6.4,2.1c2.2,0.7,4.3,1.6,6.4,2.6c2.1,1,4,2.2,5.6,3.6c1.7,1.5,3,3.2,4,5.3s1.5,4.5,1.5,7.4
			c0,3.5-0.6,6.6-1.9,9.6c-1.3,2.9-3.1,5.4-5.5,7.6c-2.4,2.1-5.4,3.8-9,5s-7.7,1.8-12.3,1.8c-2.5,0-4.9-0.2-7.2-0.7
			c-2.4-0.4-4.6-1.1-6.8-1.9c-2.2-0.8-4.2-1.7-6-2.8s-3.5-2.2-4.9-3.5l4-6.6c0.5-0.8,1.1-1.4,1.8-1.8s1.6-0.6,2.7-0.6
			c1.1,0,2.1,0.3,3,0.9c1,0.6,2.1,1.3,3.3,2c1.3,0.7,2.7,1.4,4.4,2s3.9,0.9,6.5,0.9c2.1,0,3.8-0.2,5.3-0.7s2.7-1.1,3.6-1.9
			c1-0.8,1.7-1.7,2.1-2.8s0.7-2.1,0.7-3.3c0-1.7-0.5-3.1-1.5-4.1c-1-1.1-2.3-2-4-2.8s-3.5-1.5-5.7-2.1c-2.1-0.6-4.3-1.3-6.5-2.1
			c-2.2-0.7-4.4-1.6-6.5-2.6s-4-2.3-5.7-3.8s-3-3.4-4-5.7c-1-2.2-1.5-4.9-1.5-8.1c0-2.9,0.6-5.7,1.8-8.4s2.9-5,5.1-7
			s5.1-3.6,8.5-4.8s7.3-1.8,11.7-1.8c4.9,0,9.5,0.8,13.5,2.5c4.1,1.6,7.4,3.8,10.2,6.4L2228.3,145.6z"/>
		<path class="st2" d="M2304.5,130.5c5.4,0,10.2,0.9,14.6,2.6c4.4,1.7,8.1,4.2,11.2,7.3c3.1,3.2,5.5,7,7.1,11.6
			c1.7,4.6,2.5,9.7,2.5,15.3c0,5.7-0.8,10.8-2.5,15.4c-1.7,4.6-4.1,8.5-7.1,11.7s-6.8,5.7-11.2,7.4s-9.2,2.6-14.6,2.6
			c-5.4,0-10.2-0.9-14.6-2.6s-8.1-4.2-11.2-7.4c-3.1-3.2-5.5-7.1-7.2-11.7c-1.7-4.6-2.6-9.7-2.6-15.4c0-5.6,0.9-10.8,2.6-15.3
			c1.7-4.6,4.1-8.4,7.2-11.6c3.1-3.2,6.8-5.6,11.2-7.3S2299.2,130.5,2304.5,130.5z M2304.5,191.2c6,0,10.4-2,13.3-6
			s4.3-9.9,4.3-17.6c0-7.7-1.4-13.6-4.3-17.7c-2.9-4.1-7.3-6.1-13.3-6.1c-6.1,0-10.5,2-13.4,6.1s-4.3,10-4.3,17.7s1.4,13.6,4.3,17.6
			C2294,189.1,2298.5,191.2,2304.5,191.2z"/>
		<path class="st2" d="M2353.5,226.9v-95.3h10.6c1.1,0,2.1,0.3,2.9,0.8c0.8,0.5,1.3,1.3,1.5,2.4l1.4,6.7c2.9-3.3,6.2-6,10-8.1
			s8.2-3.1,13.2-3.1c3.9,0,7.5,0.8,10.7,2.5c3.2,1.6,6,4,8.4,7.1s4.2,6.9,5.5,11.5s1.9,9.8,1.9,15.6c0,5.4-0.7,10.3-2.2,14.9
			c-1.4,4.6-3.5,8.5-6.2,11.9s-5.9,6-9.7,7.9s-8.1,2.8-12.8,2.8c-4.1,0-7.5-0.6-10.3-1.9c-2.8-1.2-5.4-3-7.6-5.1v29.4L2353.5,226.9
			L2353.5,226.9z M2387.1,143.9c-3.6,0-6.7,0.8-9.2,2.3s-4.9,3.7-7.1,6.4v32.2c2,2.4,4.1,4.1,6.4,5.1c2.3,1,4.8,1.4,7.5,1.4
			c2.6,0,5-0.5,7.1-1.5s3.9-2.5,5.4-4.5s2.6-4.5,3.4-7.6c0.8-3.1,1.2-6.7,1.2-10.8c0-4.2-0.3-7.8-1-10.7s-1.6-5.3-2.9-7.1
			s-2.8-3.2-4.6-4C2391.4,144.3,2389.4,143.9,2387.1,143.9z"/>
		<path class="st2" d="M2462.3,130.5c4.5,0,8.7,0.7,12.5,2.2c3.8,1.4,7.1,3.6,9.8,6.3c2.8,2.8,4.9,6.2,6.4,10.2s2.3,8.6,2.3,13.8
			c0,1.3-0.1,2.4-0.2,3.3c-0.1,0.9-0.3,1.5-0.6,2s-0.7,0.8-1.2,1.1s-1.2,0.3-2,0.3h-44.4c0.5,7.4,2.5,12.8,6,16.2
			c3.5,3.5,8,5.2,13.7,5.2c2.8,0,5.2-0.3,7.2-1s3.8-1.4,5.3-2.2s2.8-1.5,4-2.2c1.1-0.7,2.2-1,3.3-1c0.7,0,1.3,0.1,1.8,0.4
			c0.5,0.3,1,0.7,1.3,1.2l5,6.3c-1.9,2.2-4.1,4.1-6.4,5.6c-2.4,1.5-4.9,2.7-7.5,3.6c-2.6,0.9-5.2,1.6-7.9,1.9
			c-2.7,0.4-5.3,0.6-7.8,0.6c-5,0-9.6-0.8-13.9-2.5c-4.3-1.7-8-4.1-11.2-7.4c-3.2-3.2-5.7-7.3-7.5-12c-1.8-4.8-2.7-10.3-2.7-16.6
			c0-4.9,0.8-9.5,2.4-13.8c1.6-4.3,3.9-8.1,6.8-11.3c3-3.2,6.6-5.7,10.8-7.6C2452.1,131.4,2456.9,130.5,2462.3,130.5z M2462.7,142.9
			c-5,0-9,1.4-11.8,4.3c-2.8,2.8-4.7,6.9-5.5,12.1h32.5c0-2.2-0.3-4.4-0.9-6.3c-0.6-2-1.5-3.7-2.8-5.2s-2.8-2.7-4.8-3.5
			C2467.5,143.3,2465.2,142.9,2462.7,142.9z M2487,101.1l-17.3,18.3c-0.9,0.9-1.7,1.6-2.6,1.9c-0.8,0.3-1.9,0.5-3.2,0.5h-10.4
			l9.9-17c0.7-1.2,1.5-2.1,2.4-2.8c0.9-0.6,2.3-0.9,4.2-0.9H2487z"/>
		<path class="st2" d="M2507.5,203.4v-71.8h10.1c1.8,0,3,0.3,3.7,1s1.2,1.8,1.4,3.4l1,8.7c2.6-4.4,5.6-7.9,9-10.5
			c3.5-2.6,7.3-3.9,11.6-3.9c3.5,0,6.5,0.8,8.8,2.5l-2.2,13c-0.1,0.8-0.4,1.4-0.9,1.8c-0.5,0.3-1.1,0.5-1.9,0.5
			c-0.7,0-1.7-0.2-2.9-0.5s-2.8-0.5-4.8-0.5c-3.6,0-6.7,1-9.2,3c-2.6,2-4.7,4.9-6.5,8.7v44.7L2507.5,203.4L2507.5,203.4z"/>
		<path class="st2" d="M2618.9,203.4h-7.8c-1.6,0-2.9-0.2-3.8-0.7c-0.9-0.5-1.6-1.5-2.1-3l-1.5-5.1c-1.8,1.6-3.6,3.1-5.4,4.3
			s-3.6,2.3-5.4,3.1c-1.9,0.8-3.9,1.5-6,1.9s-4.4,0.6-7,0.6c-3,0-5.8-0.4-8.4-1.2c-2.6-0.8-4.8-2-6.6-3.7c-1.8-1.6-3.3-3.7-4.3-6.1
			c-1-2.4-1.5-5.3-1.5-8.5c0-2.7,0.7-5.4,2.1-8c1.4-2.6,3.8-5,7.1-7.2c3.3-2.1,7.7-3.9,13.2-5.3c5.5-1.4,12.3-2.1,20.5-2.1v-4.2
			c0-4.8-1-8.4-3-10.8c-2-2.3-5-3.5-8.9-3.5c-2.8,0-5.1,0.3-7,1s-3.5,1.4-4.9,2.2s-2.6,1.6-3.8,2.2c-1.2,0.7-2.5,1-3.9,1
			c-1.2,0-2.2-0.3-3-0.9c-0.8-0.6-1.5-1.4-2-2.2l-3.1-5.5c8.3-7.6,18.2-11.3,29.9-11.3c4.2,0,7.9,0.7,11.2,2.1
			c3.3,1.4,6.1,3.3,8.4,5.7s4,5.4,5.2,8.8c1.2,3.4,1.8,7.1,1.8,11.2V203.4z M2585.3,192.6c1.8,0,3.4-0.2,4.9-0.5s2.9-0.8,4.2-1.4
			c1.3-0.6,2.6-1.4,3.9-2.4c1.2-0.9,2.5-2.1,3.7-3.3v-12c-5,0-9.3,0.3-12.6,1c-3.4,0.6-6.1,1.4-8.2,2.4c-2.1,1-3.5,2.1-4.4,3.5
			c-0.9,1.3-1.3,2.7-1.3,4.3c0,3.1,0.9,5.2,2.7,6.6C2580.1,192,2582.4,192.6,2585.3,192.6z"/>
		<path class="st2" d="M2659.5,204.5c-6.2,0-11-1.8-14.3-5.3c-3.4-3.5-5-8.4-5-14.6v-40.1h-7.3c-0.9,0-1.7-0.3-2.4-0.9
			c-0.7-0.6-1-1.5-1-2.7V134l11.5-1.9l3.6-19.6c0.2-0.9,0.6-1.7,1.3-2.2s1.5-0.8,2.6-0.8h9v22.6h18.9v12.3h-18.9v38.9
			c0,2.2,0.6,4,1.7,5.2s2.6,1.9,4.5,1.9c1.1,0,2-0.1,2.7-0.4c0.7-0.3,1.4-0.5,1.9-0.8s1-0.5,1.4-0.8s0.8-0.4,1.3-0.4
			s0.9,0.1,1.3,0.4c0.3,0.3,0.7,0.6,1.1,1.2l5.2,8.4c-2.5,2.1-5.4,3.7-8.7,4.8C2666.4,204,2663,204.5,2659.5,204.5z"/>
		<path class="st2" d="M2719.8,130.5c4.5,0,8.7,0.7,12.5,2.2c3.8,1.4,7.1,3.6,9.8,6.3c2.8,2.8,4.9,6.2,6.4,10.2s2.3,8.6,2.3,13.8
			c0,1.3-0.1,2.4-0.2,3.3c-0.1,0.9-0.3,1.5-0.6,2s-0.7,0.8-1.2,1.1s-1.2,0.3-2,0.3h-44.4c0.5,7.4,2.5,12.8,6,16.2
			c3.5,3.5,8,5.2,13.7,5.2c2.8,0,5.2-0.3,7.2-1s3.8-1.4,5.3-2.2s2.8-1.5,4-2.2c1.1-0.7,2.2-1,3.3-1c0.7,0,1.3,0.1,1.8,0.4
			c0.5,0.3,1,0.7,1.3,1.2l5,6.3c-1.9,2.2-4.1,4.1-6.4,5.6c-2.4,1.5-4.9,2.7-7.5,3.6c-2.6,0.9-5.2,1.6-7.9,1.9
			c-2.7,0.4-5.3,0.6-7.8,0.6c-5,0-9.6-0.8-13.9-2.5c-4.3-1.7-8-4.1-11.2-7.4c-3.2-3.2-5.7-7.3-7.5-12c-1.8-4.8-2.7-10.3-2.7-16.6
			c0-4.9,0.8-9.5,2.4-13.8c1.6-4.3,3.9-8.1,6.8-11.3c3-3.2,6.6-5.7,10.8-7.6C2709.6,131.4,2714.4,130.5,2719.8,130.5z M2720.1,142.9
			c-5,0-9,1.4-11.8,4.3c-2.8,2.8-4.7,6.9-5.5,12.1h32.5c0-2.2-0.3-4.4-0.9-6.3c-0.6-2-1.5-3.7-2.8-5.2s-2.8-2.7-4.8-3.5
			C2724.9,143.3,2722.7,142.9,2720.1,142.9z"/>
		<path class="st2" d="M2780.7,131.6v45.6c0,4.4,1,7.8,3,10.2s5.1,3.6,9.1,3.6c3,0,5.8-0.7,8.4-2s5.1-3.2,7.4-5.5v-51.9h17.3v71.8
			h-10.6c-2.2,0-3.7-1-4.4-3.2l-1.2-5.7c-1.5,1.5-3,2.9-4.6,4.1c-1.6,1.2-3.3,2.3-5.1,3.2s-3.7,1.5-5.8,2s-4.3,0.7-6.7,0.7
			c-3.9,0-7.4-0.7-10.4-2s-5.5-3.2-7.6-5.6c-2.1-2.4-3.6-5.3-4.7-8.6c-1-3.3-1.6-7-1.6-11v-45.6L2780.7,131.6L2780.7,131.6z"/>
		<path class="st2" d="M2844.5,203.4v-71.8h10.1c1.8,0,3,0.3,3.7,1s1.2,1.8,1.4,3.4l1,8.7c2.6-4.4,5.6-7.9,9-10.5
			c3.5-2.6,7.3-3.9,11.6-3.9c3.5,0,6.5,0.8,8.8,2.5l-2.2,13c-0.1,0.8-0.4,1.4-0.9,1.8c-0.5,0.3-1.1,0.5-1.9,0.5
			c-0.7,0-1.7-0.2-2.9-0.5s-2.8-0.5-4.8-0.5c-3.6,0-6.7,1-9.2,3c-2.6,2-4.7,4.9-6.5,8.7v44.7L2844.5,203.4L2844.5,203.4z"/>
		<path class="st2" d="M2944.3,145.6c-0.5,0.7-1,1.3-1.5,1.6s-1.2,0.5-2,0.5s-1.7-0.2-2.7-0.7s-2.1-1-3.3-1.6
			c-1.3-0.6-2.7-1.1-4.3-1.6s-3.5-0.7-5.7-0.7c-3.4,0-6.1,0.7-8,2.2c-2,1.4-2.9,3.3-2.9,5.7c0,1.5,0.5,2.8,1.5,3.9c1,1,2.3,2,4,2.8
			s3.5,1.5,5.6,2.1s4.2,1.3,6.4,2.1c2.2,0.7,4.3,1.6,6.4,2.6c2.1,1,4,2.2,5.6,3.6c1.7,1.5,3,3.2,4,5.3s1.5,4.5,1.5,7.4
			c0,3.5-0.6,6.6-1.9,9.6c-1.3,2.9-3.1,5.4-5.5,7.6c-2.4,2.1-5.4,3.8-9,5s-7.7,1.8-12.3,1.8c-2.5,0-4.9-0.2-7.2-0.7
			c-2.4-0.4-4.6-1.1-6.8-1.9c-2.2-0.8-4.2-1.7-6-2.8s-3.5-2.2-4.9-3.5l4-6.6c0.5-0.8,1.1-1.4,1.8-1.8s1.6-0.6,2.7-0.6
			c1.1,0,2.1,0.3,3,0.9c1,0.6,2.1,1.3,3.3,2c1.3,0.7,2.7,1.4,4.4,2s3.9,0.9,6.5,0.9c2.1,0,3.8-0.2,5.3-0.7s2.7-1.1,3.6-1.9
			c1-0.8,1.7-1.7,2.1-2.8s0.7-2.1,0.7-3.3c0-1.7-0.5-3.1-1.5-4.1c-1-1.1-2.3-2-4-2.8s-3.5-1.5-5.7-2.1c-2.1-0.6-4.3-1.3-6.5-2.1
			c-2.2-0.7-4.4-1.6-6.5-2.6s-4-2.3-5.7-3.8s-3-3.4-4-5.7c-1-2.2-1.5-4.9-1.5-8.1c0-2.9,0.6-5.7,1.8-8.4s2.9-5,5.1-7
			s5.1-3.6,8.5-4.8s7.3-1.8,11.7-1.8c4.9,0,9.5,0.8,13.5,2.5c4.1,1.6,7.4,3.8,10.2,6.4L2944.3,145.6z"/>
	</g>
	<g>
		<path class="st3" d="M289,193.4h-18.9V92.2H289V193.4z"/>
		<path class="st3" d="M310.8,193.4v-71.8h10.5c2.2,0,3.7,1.1,4.4,3.2l1.1,5.3c1.3-1.4,2.6-2.7,4-3.9c1.4-1.2,2.8-2.2,4.4-3
			s3.2-1.5,5-2s3.8-0.7,5.9-0.7c4.5,0,8.2,1.2,11.2,3.7c2.9,2.4,5.1,5.7,6.5,9.8c1.1-2.4,2.5-4.4,4.2-6.1c1.7-1.7,3.5-3.1,5.5-4.2
			s4.1-1.9,6.4-2.4s4.5-0.8,6.8-0.8c4,0,7.5,0.6,10.6,1.8c3.1,1.2,5.7,3,7.8,5.3c2.1,2.3,3.7,5.2,4.8,8.5c1.1,3.4,1.6,7.2,1.6,11.5
			v45.7h-17.2v-45.7c0-4.6-1-8-3-10.3s-4.9-3.5-8.8-3.5c-1.8,0-3.4,0.3-4.9,0.9c-1.5,0.6-2.8,1.5-4,2.6c-1.1,1.1-2,2.6-2.7,4.3
			s-1,3.7-1,6v45.7h-17.4v-45.7c0-4.8-1-8.3-2.9-10.5s-4.8-3.3-8.6-3.3c-2.5,0-4.8,0.6-7,1.9s-4.2,2.9-6.1,5.1v52.6L310.8,193.4
			L310.8,193.4z"/>
		<path class="st3" d="M428.6,216.9v-95.3h10.6c1.1,0,2.1,0.3,2.9,0.8s1.3,1.3,1.5,2.4l1.4,6.7c2.9-3.3,6.2-6,10-8.1
			s8.2-3.1,13.2-3.1c3.9,0,7.5,0.8,10.7,2.5c3.2,1.6,6,4,8.4,7.1s4.2,6.9,5.5,11.5c1.3,4.5,1.9,9.8,1.9,15.6
			c0,5.4-0.7,10.3-2.2,14.9c-1.4,4.6-3.5,8.5-6.2,11.9s-5.9,6-9.7,7.9s-8.1,2.8-12.8,2.8c-4.1,0-7.5-0.6-10.3-1.9
			c-2.8-1.2-5.4-3-7.6-5.1v29.4H428.6z M462.2,133.9c-3.6,0-6.7,0.8-9.2,2.3s-4.9,3.7-7.1,6.4v32.2c2,2.4,4.1,4.1,6.4,5.1
			c2.3,1,4.8,1.4,7.5,1.4c2.6,0,5-0.5,7.1-1.5s3.9-2.5,5.4-4.5s2.6-4.5,3.4-7.6c0.8-3.1,1.2-6.7,1.2-10.8c0-4.2-0.3-7.8-1-10.7
			s-1.6-5.3-2.9-7.1c-1.3-1.8-2.8-3.2-4.6-4C466.6,134.3,464.5,133.9,462.2,133.9z"/>
		<path class="st3" d="M507.8,193.4v-71.8h10.1c1.8,0,3,0.3,3.7,1s1.2,1.8,1.4,3.4l1,8.7c2.6-4.4,5.6-7.9,9-10.5
			c3.5-2.6,7.3-3.9,11.6-3.9c3.5,0,6.5,0.8,8.8,2.5l-2.2,13c-0.1,0.8-0.4,1.4-0.9,1.8c-0.5,0.3-1.1,0.5-1.9,0.5
			c-0.7,0-1.7-0.2-2.9-0.5s-2.8-0.5-4.8-0.5c-3.6,0-6.7,1-9.2,3c-2.6,2-4.7,4.9-6.5,8.7v44.7L507.8,193.4L507.8,193.4z"/>
		<path class="st3" d="M586,100.7c0,1.5-0.3,2.9-0.9,4.2c-0.6,1.3-1.4,2.5-2.4,3.4c-1,1-2.2,1.8-3.5,2.3c-1.4,0.6-2.8,0.9-4.3,0.9
			s-2.9-0.3-4.2-0.9s-2.5-1.4-3.5-2.3c-1-1-1.8-2.1-2.3-3.4c-0.6-1.3-0.9-2.7-0.9-4.2s0.3-3,0.9-4.3c0.6-1.4,1.4-2.5,2.3-3.5
			c1-1,2.1-1.8,3.5-2.3c1.3-0.6,2.7-0.9,4.2-0.9s3,0.3,4.3,0.9c1.4,0.6,2.5,1.4,3.5,2.3c1,1,1.8,2.1,2.4,3.5
			C585.7,97.7,586,99.1,586,100.7z M583.4,121.6v71.8h-17.3v-71.8H583.4z"/>
		<path class="st3" d="M602.9,193.4v-71.8h10.6c2.2,0,3.7,1.1,4.4,3.2l1.1,5.3c1.3-1.4,2.6-2.7,4-3.9c1.4-1.2,2.8-2.2,4.4-3
			c1.6-0.8,3.2-1.5,5-2s3.8-0.7,5.9-0.7c4.5,0,8.2,1.2,11.2,3.7c2.9,2.4,5.1,5.7,6.5,9.8c1.1-2.4,2.5-4.4,4.2-6.1
			c1.7-1.7,3.5-3.1,5.5-4.2s4.1-1.9,6.4-2.4c2.3-0.5,4.5-0.8,6.8-0.8c4,0,7.5,0.6,10.6,1.8c3.1,1.2,5.7,3,7.8,5.3
			c2.1,2.3,3.7,5.2,4.8,8.5c1.1,3.4,1.6,7.2,1.6,11.5v45.7h-17.3v-45.7c0-4.6-1-8-3-10.3s-4.9-3.5-8.8-3.5c-1.8,0-3.4,0.3-4.9,0.9
			s-2.8,1.5-4,2.6c-1.1,1.1-2,2.6-2.7,4.3s-1,3.7-1,6v45.7h-17.4v-45.7c0-4.8-1-8.3-2.9-10.5s-4.8-3.3-8.6-3.3c-2.5,0-4.8,0.6-7,1.9
			s-4.2,2.9-6.1,5.1v52.6L602.9,193.4L602.9,193.4z"/>
		<path class="st3" d="M750.5,120.5c4.5,0,8.7,0.7,12.5,2.2c3.8,1.4,7.1,3.6,9.8,6.3c2.8,2.8,4.9,6.2,6.4,10.2s2.3,8.6,2.3,13.8
			c0,1.3-0.1,2.4-0.2,3.3c-0.1,0.9-0.3,1.5-0.6,2s-0.7,0.8-1.2,1.1s-1.2,0.3-2,0.3h-44.4c0.5,7.4,2.5,12.8,6,16.2
			c3.5,3.5,8,5.2,13.7,5.2c2.8,0,5.2-0.3,7.2-1s3.8-1.4,5.3-2.2s2.8-1.5,4-2.2c1.1-0.7,2.2-1,3.3-1c0.7,0,1.3,0.1,1.8,0.4
			c0.5,0.3,1,0.7,1.3,1.2l5,6.3c-1.9,2.2-4.1,4.1-6.4,5.6c-2.4,1.5-4.9,2.7-7.5,3.6c-2.6,0.9-5.2,1.6-7.9,1.9
			c-2.7,0.4-5.3,0.6-7.8,0.6c-5,0-9.6-0.8-13.9-2.5c-4.3-1.7-8-4.1-11.2-7.4c-3.2-3.2-5.7-7.3-7.5-12c-1.8-4.8-2.7-10.3-2.7-16.6
			c0-4.9,0.8-9.5,2.4-13.8c1.6-4.3,3.9-8.1,6.8-11.3c3-3.2,6.6-5.7,10.8-7.6C740.3,121.4,745.1,120.5,750.5,120.5z M750.9,132.9
			c-5,0-9,1.4-11.8,4.3c-2.8,2.8-4.7,6.9-5.5,12.1h32.5c0-2.2-0.3-4.4-0.9-6.3c-0.6-2-1.5-3.7-2.8-5.2s-2.8-2.7-4.8-3.5
			C755.7,133.3,753.4,132.9,750.9,132.9z"/>
		<path class="st3" d="M795.7,193.4v-71.8h10.1c1.8,0,3,0.3,3.7,1s1.2,1.8,1.4,3.4l1,8.7c2.6-4.4,5.6-7.9,9-10.5
			c3.5-2.6,7.3-3.9,11.6-3.9c3.5,0,6.5,0.8,8.8,2.5l-2.2,13c-0.1,0.8-0.4,1.4-0.9,1.8c-0.5,0.3-1.1,0.5-1.9,0.5
			c-0.7,0-1.7-0.2-2.9-0.5s-2.8-0.5-4.8-0.5c-3.6,0-6.7,1-9.2,3c-2.6,2-4.7,4.9-6.5,8.7v44.7L795.7,193.4L795.7,193.4z"/>
		<path class="st3" d="M898.3,89.4v104H881v-104C881,89.4,898.3,89.4,898.3,89.4z"/>
		<path class="st3" d="M947.5,120.5c4.5,0,8.7,0.7,12.5,2.2c3.8,1.4,7.1,3.6,9.8,6.3c2.8,2.8,4.9,6.2,6.4,10.2s2.3,8.6,2.3,13.8
			c0,1.3-0.1,2.4-0.2,3.3c-0.1,0.9-0.3,1.5-0.6,2c-0.3,0.5-0.7,0.8-1.2,1.1s-1.2,0.3-2,0.3h-44.4c0.5,7.4,2.5,12.8,6,16.2
			c3.5,3.5,8,5.2,13.7,5.2c2.8,0,5.2-0.3,7.2-1s3.8-1.4,5.3-2.2s2.8-1.5,4-2.2c1.1-0.7,2.2-1,3.3-1c0.7,0,1.3,0.1,1.8,0.4
			c0.5,0.3,1,0.7,1.3,1.2l5,6.3c-1.9,2.2-4.1,4.1-6.4,5.6c-2.4,1.5-4.9,2.7-7.5,3.6c-2.6,0.9-5.2,1.6-7.9,1.9
			c-2.7,0.4-5.3,0.6-7.8,0.6c-5,0-9.6-0.8-13.9-2.5c-4.3-1.7-8-4.1-11.2-7.4c-3.2-3.2-5.7-7.3-7.5-12c-1.8-4.8-2.7-10.3-2.7-16.6
			c0-4.9,0.8-9.5,2.4-13.8c1.6-4.3,3.9-8.1,6.8-11.3c3-3.2,6.6-5.7,10.8-7.6C937.3,121.4,942.1,120.5,947.5,120.5z M947.8,132.9
			c-5,0-9,1.4-11.8,4.3c-2.8,2.8-4.7,6.9-5.5,12.1H963c0-2.2-0.3-4.4-0.9-6.3c-0.6-2-1.5-3.7-2.8-5.2s-2.8-2.7-4.8-3.5
			C952.6,133.3,950.4,132.9,947.8,132.9z"/>
		<path class="st3" d="M1019.6,193.4v-71.8h10.1c1.8,0,3,0.3,3.7,1s1.2,1.8,1.4,3.4l1,8.7c2.6-4.4,5.6-7.9,9-10.5
			c3.5-2.6,7.3-3.9,11.6-3.9c3.5,0,6.5,0.8,8.8,2.5l-2.2,13c-0.1,0.8-0.4,1.4-0.9,1.8c-0.5,0.3-1.1,0.5-1.9,0.5
			c-0.7,0-1.7-0.2-2.9-0.5s-2.8-0.5-4.8-0.5c-3.6,0-6.7,1-9.2,3c-2.6,2-4.7,4.9-6.5,8.7v44.7L1019.6,193.4L1019.6,193.4z"/>
		<path class="st3" d="M1106.5,120.5c4.5,0,8.7,0.7,12.5,2.2c3.8,1.4,7.1,3.6,9.8,6.3c2.8,2.8,4.9,6.2,6.4,10.2s2.3,8.6,2.3,13.8
			c0,1.3-0.1,2.4-0.2,3.3c-0.1,0.9-0.3,1.5-0.6,2c-0.3,0.5-0.7,0.8-1.2,1.1s-1.2,0.3-2,0.3h-44.4c0.5,7.4,2.5,12.8,6,16.2
			c3.5,3.5,8,5.2,13.7,5.2c2.8,0,5.2-0.3,7.2-1s3.8-1.4,5.3-2.2s2.8-1.5,4-2.2c1.1-0.7,2.2-1,3.3-1c0.7,0,1.3,0.1,1.8,0.4
			c0.5,0.3,1,0.7,1.3,1.2l5,6.3c-1.9,2.2-4.1,4.1-6.4,5.6c-2.4,1.5-4.9,2.7-7.5,3.6c-2.6,0.9-5.2,1.6-7.9,1.9
			c-2.7,0.4-5.3,0.6-7.8,0.6c-5,0-9.6-0.8-13.9-2.5s-8-4.1-11.2-7.4c-3.2-3.2-5.7-7.3-7.5-12c-1.8-4.8-2.7-10.3-2.7-16.6
			c0-4.9,0.8-9.5,2.4-13.8c1.6-4.3,3.9-8.1,6.8-11.3c3-3.2,6.6-5.7,10.8-7.6C1096.3,121.4,1101.1,120.5,1106.5,120.5z M1106.9,132.9
			c-5,0-9,1.4-11.8,4.3c-2.8,2.8-4.7,6.9-5.5,12.1h32.5c0-2.2-0.3-4.4-0.9-6.3c-0.6-2-1.5-3.7-2.8-5.2s-2.8-2.7-4.8-3.5
			C1111.7,133.3,1109.4,132.9,1106.9,132.9z"/>
		<path class="st3" d="M1176.5,120.3c3.1,0,6,0.3,8.7,0.9s5.2,1.6,7.4,2.8h20.6v6.4c0,1.1-0.3,1.9-0.8,2.5c-0.6,0.6-1.5,1-2.9,1.3
			l-6.4,1.2c0.5,1.2,0.8,2.5,1.1,3.8c0.3,1.4,0.4,2.8,0.4,4.3c0,3.5-0.7,6.8-2.1,9.6c-1.4,2.9-3.4,5.3-5.9,7.3s-5.5,3.6-8.9,4.7
			c-3.4,1.1-7.2,1.6-11.2,1.6c-2.7,0-5.3-0.3-7.9-0.8c-2.2,1.4-3.4,2.9-3.4,4.6c0,1.5,0.7,2.5,2,3.2s3.1,1.2,5.2,1.4
			c2.2,0.3,4.6,0.4,7.4,0.4s5.6,0.1,8.5,0.4c2.9,0.2,5.7,0.6,8.5,1.2c2.8,0.6,5.2,1.5,7.4,2.8s3.9,3,5.2,5.2c1.3,2.2,2,5,2,8.4
			c0,3.2-0.8,6.3-2.3,9.3c-1.6,3-3.8,5.7-6.8,8s-6.6,4.2-10.9,5.7c-4.3,1.4-9.2,2.1-14.7,2.1s-10.2-0.5-14.2-1.6s-7.3-2.5-10-4.2
			c-2.6-1.8-4.6-3.8-5.9-6.1s-2-4.7-2-7.1c0-3.4,1-6.2,3.1-8.5c2.1-2.3,4.9-4.1,8.5-5.5c-1.8-1-3.2-2.3-4.3-3.9
			c-1.1-1.6-1.6-3.8-1.6-6.4c0-1.1,0.2-2.2,0.6-3.3c0.4-1.1,0.9-2.3,1.7-3.4c0.8-1.1,1.7-2.2,2.9-3.2s2.5-1.9,4.1-2.7
			c-3.6-2-6.5-4.6-8.6-7.8c-2.1-3.3-3.1-7.1-3.1-11.5c0-3.5,0.7-6.8,2.1-9.6c1.4-2.9,3.4-5.3,5.9-7.4c2.5-2,5.6-3.6,9-4.7
			C1168.6,120.9,1172.4,120.3,1176.5,120.3z M1195.5,196.4c0-1.4-0.4-2.6-1.3-3.5c-0.8-0.9-2-1.6-3.4-2.1c-1.4-0.5-3.1-0.9-5.1-1.1
			c-1.9-0.2-4-0.4-6.2-0.4s-4.4,0-6.7,0c-2.3,0-4.5-0.3-6.7-0.8c-2,1.1-3.5,2.3-4.7,3.8s-1.8,3.2-1.8,5.1c0,1.3,0.3,2.4,0.9,3.5
			c0.6,1.1,1.6,2,3,2.8c1.4,0.8,3.2,1.4,5.4,1.9c2.2,0.4,4.9,0.7,8,0.7c3.2,0,6-0.3,8.3-0.8s4.3-1.2,5.8-2.1s2.6-1.9,3.3-3.1
			C1195.1,199.2,1195.5,197.8,1195.5,196.4z M1176.5,155.7c2.1,0,4-0.3,5.6-0.9c1.6-0.6,2.9-1.4,4-2.4c1.1-1,1.8-2.3,2.4-3.7
			c0.5-1.4,0.8-3,0.8-4.8c0-3.5-1.1-6.4-3.2-8.4c-2.1-2.1-5.3-3.1-9.6-3.1c-4.2,0-7.4,1-9.6,3.1c-2.1,2.1-3.2,4.9-3.2,8.4
			c0,1.7,0.3,3.2,0.8,4.7c0.5,1.4,1.3,2.7,2.4,3.7c1,1.1,2.4,1.9,4,2.5C1172.6,155.4,1174.4,155.7,1176.5,155.7z"/>
		<path class="st3" d="M1245.1,100.7c0,1.5-0.3,2.9-0.9,4.2c-0.6,1.3-1.4,2.5-2.4,3.4c-1,1-2.2,1.8-3.5,2.3
			c-1.4,0.6-2.8,0.9-4.3,0.9s-2.9-0.3-4.2-0.9c-1.3-0.6-2.5-1.4-3.5-2.3c-1-1-1.8-2.1-2.3-3.4c-0.6-1.3-0.9-2.7-0.9-4.2
			s0.3-3,0.9-4.3c0.6-1.4,1.4-2.5,2.3-3.5c1-1,2.1-1.8,3.5-2.3c1.3-0.6,2.7-0.9,4.2-0.9s3,0.3,4.3,0.9c1.4,0.6,2.5,1.4,3.5,2.3
			c1,1,1.8,2.1,2.4,3.5C1244.8,97.7,1245.1,99.1,1245.1,100.7z M1242.5,121.6v71.8h-17.3v-71.8H1242.5z"/>
		<path class="st3" d="M1304.7,135.6c-0.5,0.7-1,1.3-1.5,1.6s-1.2,0.5-2,0.5s-1.7-0.2-2.7-0.7s-2.1-1-3.3-1.6
			c-1.3-0.6-2.7-1.1-4.3-1.6c-1.6-0.5-3.5-0.7-5.7-0.7c-3.4,0-6.1,0.7-8,2.2c-2,1.4-2.9,3.3-2.9,5.7c0,1.5,0.5,2.8,1.5,3.9
			c1,1,2.3,2,4,2.8s3.5,1.5,5.6,2.1c2.1,0.6,4.2,1.3,6.4,2.1c2.2,0.7,4.3,1.6,6.4,2.6c2.1,1,4,2.2,5.6,3.6c1.7,1.5,3,3.2,4,5.3
			s1.5,4.5,1.5,7.4c0,3.5-0.6,6.6-1.9,9.6c-1.3,2.9-3.1,5.4-5.5,7.6c-2.4,2.1-5.4,3.8-9,5c-3.6,1.2-7.7,1.8-12.3,1.8
			c-2.5,0-4.9-0.2-7.2-0.7c-2.4-0.4-4.6-1.1-6.8-1.9c-2.2-0.8-4.2-1.7-6-2.8s-3.5-2.2-4.9-3.5l4-6.6c0.5-0.8,1.1-1.4,1.8-1.8
			c0.7-0.4,1.6-0.6,2.7-0.6c1.1,0,2.1,0.3,3,0.9c1,0.6,2.1,1.3,3.3,2c1.3,0.7,2.7,1.4,4.4,2s3.9,0.9,6.5,0.9c2.1,0,3.8-0.2,5.3-0.7
			s2.7-1.1,3.6-1.9c1-0.8,1.7-1.7,2.1-2.8c0.4-1.1,0.7-2.1,0.7-3.3c0-1.7-0.5-3.1-1.5-4.1c-1-1.1-2.3-2-4-2.8s-3.5-1.5-5.7-2.1
			c-2.1-0.6-4.3-1.3-6.5-2.1c-2.2-0.7-4.4-1.6-6.5-2.6c-2.1-1-4-2.3-5.7-3.8s-3-3.4-4-5.7c-1-2.2-1.5-4.9-1.5-8.1
			c0-2.9,0.6-5.7,1.8-8.4s2.9-5,5.1-7s5.1-3.6,8.5-4.8c3.4-1.2,7.3-1.8,11.7-1.8c4.9,0,9.5,0.8,13.5,2.5c4.1,1.6,7.4,3.8,10.2,6.4
			L1304.7,135.6z"/>
		<path class="st3" d="M1346.8,194.5c-6.2,0-11-1.8-14.3-5.3c-3.4-3.5-5-8.4-5-14.6v-40.1h-7.3c-0.9,0-1.7-0.3-2.4-0.9
			c-0.7-0.6-1-1.5-1-2.7V124l11.5-1.9l3.6-19.6c0.2-0.9,0.6-1.7,1.3-2.2c0.7-0.5,1.5-0.8,2.6-0.8h9v22.6h18.9v12.3h-18.9v38.9
			c0,2.2,0.6,4,1.7,5.2c1.1,1.2,2.6,1.9,4.5,1.9c1.1,0,2-0.1,2.7-0.4c0.7-0.3,1.4-0.5,1.9-0.8s1-0.5,1.4-0.8
			c0.4-0.3,0.8-0.4,1.3-0.4s0.9,0.1,1.3,0.4c0.3,0.3,0.7,0.6,1.1,1.2l5.2,8.4c-2.5,2.1-5.4,3.7-8.7,4.8
			C1353.7,194,1350.3,194.5,1346.8,194.5z"/>
		<path class="st3" d="M1377.4,193.4v-71.8h10.1c1.8,0,3,0.3,3.7,1s1.2,1.8,1.4,3.4l1,8.7c2.6-4.4,5.6-7.9,9-10.5
			c3.5-2.6,7.3-3.9,11.6-3.9c3.5,0,6.5,0.8,8.8,2.5l-2.2,13c-0.1,0.8-0.4,1.4-0.9,1.8c-0.5,0.3-1.1,0.5-1.9,0.5
			c-0.7,0-1.7-0.2-2.9-0.5c-1.2-0.3-2.8-0.5-4.8-0.5c-3.6,0-6.7,1-9.2,3c-2.6,2-4.7,4.9-6.5,8.7v44.7L1377.4,193.4L1377.4,193.4z"/>
		<path class="st3" d="M1464.3,120.5c4.5,0,8.7,0.7,12.5,2.2c3.8,1.4,7.1,3.6,9.8,6.3c2.8,2.8,4.9,6.2,6.4,10.2s2.3,8.6,2.3,13.8
			c0,1.3-0.1,2.4-0.2,3.3c-0.1,0.9-0.3,1.5-0.6,2c-0.3,0.5-0.7,0.8-1.2,1.1s-1.2,0.3-2,0.3h-44.4c0.5,7.4,2.5,12.8,6,16.2
			c3.5,3.5,8,5.2,13.7,5.2c2.8,0,5.2-0.3,7.2-1s3.8-1.4,5.3-2.2s2.8-1.5,4-2.2c1.1-0.7,2.2-1,3.3-1c0.7,0,1.3,0.1,1.8,0.4
			c0.5,0.3,1,0.7,1.3,1.2l5,6.3c-1.9,2.2-4.1,4.1-6.4,5.6c-2.4,1.5-4.9,2.7-7.5,3.6c-2.6,0.9-5.2,1.6-7.9,1.9
			c-2.7,0.4-5.3,0.6-7.8,0.6c-5,0-9.6-0.8-13.9-2.5s-8-4.1-11.2-7.4c-3.2-3.2-5.7-7.3-7.5-12c-1.8-4.8-2.7-10.3-2.7-16.6
			c0-4.9,0.8-9.5,2.4-13.8c1.6-4.3,3.9-8.1,6.8-11.3c3-3.2,6.6-5.7,10.8-7.6C1454.1,121.4,1458.9,120.5,1464.3,120.5z M1464.6,132.9
			c-5,0-9,1.4-11.8,4.3c-2.8,2.8-4.7,6.9-5.5,12.1h32.5c0-2.2-0.3-4.4-0.9-6.3c-0.6-2-1.5-3.7-2.8-5.2s-2.8-2.7-4.8-3.5
			C1469.4,133.3,1467.2,132.9,1464.6,132.9z"/>
		<path class="st3" d="M1536.4,193.4v-104h17.3v40c2.8-2.7,5.9-4.8,9.2-6.4c3.4-1.6,7.3-2.5,11.8-2.5c3.9,0,7.4,0.7,10.4,2
			s5.6,3.2,7.6,5.6c2,2.4,3.6,5.3,4.6,8.6s1.6,7,1.6,11v45.7h-17.3v-45.7c0-4.4-1-7.8-3-10.2s-5.1-3.6-9.1-3.6c-3,0-5.8,0.7-8.4,2
			c-2.6,1.4-5.1,3.2-7.4,5.5v51.9h-17.3V193.4z"/>
		<path class="st3" d="M1646.7,120.5c5.4,0,10.2,0.9,14.6,2.6c4.4,1.7,8.1,4.2,11.2,7.3c3.1,3.2,5.5,7,7.1,11.6
			c1.7,4.6,2.5,9.7,2.5,15.3c0,5.7-0.8,10.8-2.5,15.4c-1.7,4.6-4.1,8.5-7.1,11.7s-6.8,5.7-11.2,7.4c-4.4,1.7-9.2,2.6-14.6,2.6
			c-5.4,0-10.2-0.9-14.6-2.6c-4.4-1.7-8.1-4.2-11.2-7.4c-3.1-3.2-5.5-7.1-7.2-11.7c-1.7-4.6-2.6-9.7-2.6-15.4
			c0-5.6,0.9-10.8,2.6-15.3c1.7-4.6,4.1-8.4,7.2-11.6c3.1-3.2,6.8-5.6,11.2-7.3S1641.3,120.5,1646.7,120.5z M1646.7,181.2
			c6,0,10.4-2,13.3-6c2.9-4,4.3-9.9,4.3-17.6c0-7.7-1.4-13.6-4.3-17.7c-2.9-4.1-7.3-6.1-13.3-6.1c-6.1,0-10.5,2-13.4,6.1
			c-2.9,4.1-4.3,10-4.3,17.7s1.4,13.6,4.3,17.6C1636.1,179.1,1640.6,181.2,1646.7,181.2z"/>
		<path class="st3" d="M1695.6,193.4v-71.8h10.1c1.8,0,3,0.3,3.7,1s1.2,1.8,1.4,3.4l1,8.7c2.6-4.4,5.6-7.9,9-10.5
			c3.5-2.6,7.3-3.9,11.6-3.9c3.5,0,6.5,0.8,8.8,2.5l-2.2,13c-0.1,0.8-0.4,1.4-0.9,1.8c-0.5,0.3-1.1,0.5-1.9,0.5
			c-0.7,0-1.7-0.2-2.9-0.5s-2.8-0.5-4.8-0.5c-3.6,0-6.7,1-9.2,3c-2.6,2-4.7,4.9-6.5,8.7v44.7L1695.6,193.4L1695.6,193.4z"/>
		<path class="st3" d="M1807.1,193.4h-7.8c-1.6,0-2.9-0.2-3.8-0.7c-0.9-0.5-1.6-1.5-2.1-3l-1.5-5.1c-1.8,1.6-3.6,3.1-5.4,4.3
			s-3.6,2.3-5.4,3.1c-1.9,0.8-3.9,1.5-6,1.9c-2.1,0.4-4.4,0.6-7,0.6c-3,0-5.8-0.4-8.4-1.2c-2.6-0.8-4.8-2-6.6-3.7
			c-1.8-1.6-3.3-3.7-4.3-6.1c-1-2.4-1.5-5.3-1.5-8.5c0-2.7,0.7-5.4,2.1-8c1.4-2.6,3.8-5,7.1-7.2c3.3-2.1,7.7-3.9,13.2-5.3
			c5.5-1.4,12.3-2.1,20.5-2.1v-4.2c0-4.8-1-8.4-3-10.8c-2-2.3-5-3.5-8.9-3.5c-2.8,0-5.1,0.3-7,1c-1.9,0.7-3.5,1.4-4.9,2.2
			c-1.4,0.8-2.6,1.6-3.8,2.2c-1.2,0.7-2.5,1-3.9,1c-1.2,0-2.2-0.3-3-0.9c-0.8-0.6-1.5-1.4-2-2.2l-3.1-5.5
			c8.3-7.6,18.2-11.3,29.9-11.3c4.2,0,7.9,0.7,11.2,2.1s6.1,3.3,8.4,5.7c2.3,2.4,4,5.4,5.2,8.8c1.2,3.4,1.8,7.1,1.8,11.2
			L1807.1,193.4L1807.1,193.4z M1773.5,182.6c1.8,0,3.4-0.2,4.9-0.5s2.9-0.8,4.2-1.4c1.3-0.6,2.6-1.4,3.9-2.4
			c1.2-0.9,2.5-2.1,3.7-3.3v-12c-5,0-9.3,0.3-12.6,1c-3.4,0.6-6.1,1.4-8.2,2.4c-2.1,1-3.5,2.1-4.4,3.5c-0.9,1.3-1.3,2.7-1.3,4.3
			c0,3.1,0.9,5.2,2.7,6.6C1768.2,182,1770.6,182.6,1773.5,182.6z"/>
		<path class="st3" d="M1845.1,100.7c0,1.5-0.3,2.9-0.9,4.2c-0.6,1.3-1.4,2.5-2.4,3.4c-1,1-2.2,1.8-3.5,2.3
			c-1.4,0.6-2.8,0.9-4.3,0.9s-2.9-0.3-4.2-0.9c-1.3-0.6-2.5-1.4-3.5-2.3c-1-1-1.8-2.1-2.3-3.4c-0.6-1.3-0.9-2.7-0.9-4.2
			s0.3-3,0.9-4.3c0.6-1.4,1.4-2.5,2.3-3.5c1-1,2.1-1.8,3.5-2.3c1.3-0.6,2.7-0.9,4.2-0.9s3,0.3,4.3,0.9c1.4,0.6,2.5,1.4,3.5,2.3
			c1,1,1.8,2.1,2.4,3.5C1844.8,97.7,1845.1,99.1,1845.1,100.7z M1842.5,121.6v71.8h-17.3v-71.8H1842.5z"/>
		<path class="st3" d="M1862,193.4v-71.8h10.1c1.8,0,3,0.3,3.7,1s1.2,1.8,1.4,3.4l1,8.7c2.6-4.4,5.6-7.9,9-10.5
			c3.5-2.6,7.3-3.9,11.6-3.9c3.5,0,6.5,0.8,8.8,2.5l-2.2,13c-0.1,0.8-0.4,1.4-0.9,1.8c-0.5,0.3-1.1,0.5-1.9,0.5
			c-0.7,0-1.7-0.2-2.9-0.5s-2.8-0.5-4.8-0.5c-3.6,0-6.7,1-9.2,3c-2.6,2-4.7,4.9-6.5,8.7v44.7L1862,193.4L1862,193.4z"/>
		<path class="st3" d="M1948.9,120.5c4.5,0,8.7,0.7,12.5,2.2c3.8,1.4,7.1,3.6,9.8,6.3c2.8,2.8,4.9,6.2,6.4,10.2s2.3,8.6,2.3,13.8
			c0,1.3-0.1,2.4-0.2,3.3c-0.1,0.9-0.3,1.5-0.6,2s-0.7,0.8-1.2,1.1s-1.2,0.3-2,0.3h-44.4c0.5,7.4,2.5,12.8,6,16.2
			c3.5,3.5,8,5.2,13.7,5.2c2.8,0,5.2-0.3,7.2-1s3.8-1.4,5.3-2.2s2.8-1.5,4-2.2c1.1-0.7,2.2-1,3.3-1c0.7,0,1.3,0.1,1.8,0.4
			c0.5,0.3,1,0.7,1.3,1.2l5,6.3c-1.9,2.2-4.1,4.1-6.4,5.6c-2.4,1.5-4.9,2.7-7.5,3.6c-2.6,0.9-5.2,1.6-7.9,1.9
			c-2.7,0.4-5.3,0.6-7.8,0.6c-5,0-9.6-0.8-13.9-2.5s-8-4.1-11.2-7.4c-3.2-3.2-5.7-7.3-7.5-12c-1.8-4.8-2.7-10.3-2.7-16.6
			c0-4.9,0.8-9.5,2.4-13.8c1.6-4.3,3.9-8.1,6.8-11.3c3-3.2,6.6-5.7,10.8-7.6C1938.7,121.4,1943.5,120.5,1948.9,120.5z M1949.2,132.9
			c-5,0-9,1.4-11.8,4.3c-2.8,2.8-4.7,6.9-5.5,12.1h32.5c0-2.2-0.3-4.4-0.9-6.3c-0.6-2-1.5-3.7-2.8-5.2s-2.8-2.7-4.8-3.5
			C1954,133.3,1951.8,132.9,1949.2,132.9z"/>
		<path class="st3" d="M2071.6,193.4c-2.2,0-3.7-1-4.4-3.2l-1.4-6.9c-1.5,1.7-3.1,3.2-4.7,4.5c-1.6,1.4-3.4,2.5-5.3,3.5
			c-1.9,1-3.9,1.7-6.1,2.3s-4.5,0.8-7,0.8c-3.9,0-7.5-0.8-10.8-2.5c-3.3-1.6-6.1-4-8.4-7.1c-2.4-3.1-4.2-6.9-5.5-11.5
			s-1.9-9.8-1.9-15.7c0-5.3,0.7-10.3,2.2-14.8c1.4-4.6,3.5-8.5,6.2-11.9c2.7-3.4,6-6,9.7-7.9c3.8-1.9,8-2.8,12.7-2.8
			c4,0,7.4,0.6,10.3,1.9s5.4,3,7.6,5.1V89.4h17.3v104H2071.6z M2048.6,180.7c3.6,0,6.7-0.7,9.2-2.2s4.9-3.6,7.1-6.4v-32.2
			c-2-2.4-4.1-4.1-6.4-5c-2.3-1-4.8-1.5-7.5-1.5c-2.6,0-5,0.5-7.1,1.5s-3.9,2.5-5.4,4.4c-1.5,2-2.6,4.5-3.4,7.6
			c-0.8,3.1-1.2,6.7-1.2,10.8c0,4.2,0.3,7.8,1,10.7s1.6,5.3,2.9,7.1c1.3,1.8,2.8,3.2,4.6,4S2046.3,180.7,2048.6,180.7z"/>
		<path class="st3" d="M2130.5,120.5c4.5,0,8.7,0.7,12.5,2.2c3.8,1.4,7.1,3.6,9.8,6.3c2.8,2.8,4.9,6.2,6.4,10.2s2.3,8.6,2.3,13.8
			c0,1.3-0.1,2.4-0.2,3.3c-0.1,0.9-0.3,1.5-0.6,2s-0.7,0.8-1.2,1.1s-1.2,0.3-2,0.3h-44.4c0.5,7.4,2.5,12.8,6,16.2
			c3.5,3.5,8,5.2,13.7,5.2c2.8,0,5.2-0.3,7.2-1s3.8-1.4,5.3-2.2s2.8-1.5,4-2.2c1.1-0.7,2.2-1,3.3-1c0.7,0,1.3,0.1,1.8,0.4
			c0.5,0.3,1,0.7,1.3,1.2l5,6.3c-1.9,2.2-4.1,4.1-6.4,5.6c-2.4,1.5-4.9,2.7-7.5,3.6c-2.6,0.9-5.2,1.6-7.9,1.9
			c-2.7,0.4-5.3,0.6-7.8,0.6c-5,0-9.6-0.8-13.9-2.5c-4.3-1.7-8-4.1-11.2-7.4c-3.2-3.2-5.7-7.3-7.5-12c-1.8-4.8-2.7-10.3-2.7-16.6
			c0-4.9,0.8-9.5,2.4-13.8c1.6-4.3,3.9-8.1,6.8-11.3c3-3.2,6.6-5.7,10.8-7.6C2120.3,121.4,2125.2,120.5,2130.5,120.5z M2130.9,132.9
			c-5,0-9,1.4-11.8,4.3c-2.8,2.8-4.7,6.9-5.5,12.1h32.5c0-2.2-0.3-4.4-0.9-6.3c-0.6-2-1.5-3.7-2.8-5.2s-2.8-2.7-4.8-3.5
			C2135.7,133.3,2133.4,132.9,2130.9,132.9z"/>
		<path class="st3" d="M2218.3,135.6c-0.5,0.7-1,1.3-1.5,1.6s-1.2,0.5-2,0.5s-1.7-0.2-2.7-0.7s-2.1-1-3.3-1.6
			c-1.3-0.6-2.7-1.1-4.3-1.6s-3.5-0.7-5.7-0.7c-3.4,0-6.1,0.7-8,2.2c-2,1.4-2.9,3.3-2.9,5.7c0,1.5,0.5,2.8,1.5,3.9c1,1,2.3,2,4,2.8
			s3.5,1.5,5.6,2.1s4.2,1.3,6.4,2.1c2.2,0.7,4.3,1.6,6.4,2.6c2.1,1,4,2.2,5.6,3.6c1.7,1.5,3,3.2,4,5.3s1.5,4.5,1.5,7.4
			c0,3.5-0.6,6.6-1.9,9.6c-1.3,2.9-3.1,5.4-5.5,7.6c-2.4,2.1-5.4,3.8-9,5s-7.7,1.8-12.3,1.8c-2.5,0-4.9-0.2-7.2-0.7
			c-2.4-0.4-4.6-1.1-6.8-1.9c-2.2-0.8-4.2-1.7-6-2.8s-3.5-2.2-4.9-3.5l4-6.6c0.5-0.8,1.1-1.4,1.8-1.8s1.6-0.6,2.7-0.6
			c1.1,0,2.1,0.3,3,0.9c1,0.6,2.1,1.3,3.3,2c1.3,0.7,2.7,1.4,4.4,2s3.9,0.9,6.5,0.9c2.1,0,3.8-0.2,5.3-0.7s2.7-1.1,3.6-1.9
			c1-0.8,1.7-1.7,2.1-2.8s0.7-2.1,0.7-3.3c0-1.7-0.5-3.1-1.5-4.1c-1-1.1-2.3-2-4-2.8s-3.5-1.5-5.7-2.1c-2.1-0.6-4.3-1.3-6.5-2.1
			c-2.2-0.7-4.4-1.6-6.5-2.6s-4-2.3-5.7-3.8s-3-3.4-4-5.7c-1-2.2-1.5-4.9-1.5-8.1c0-2.9,0.6-5.7,1.8-8.4s2.9-5,5.1-7
			s5.1-3.6,8.5-4.8c3.4-1.2,7.3-1.8,11.7-1.8c4.9,0,9.5,0.8,13.5,2.5c4.1,1.6,7.4,3.8,10.2,6.4L2218.3,135.6z"/>
		<path class="st3" d="M2294.5,120.5c5.4,0,10.2,0.9,14.6,2.6c4.4,1.7,8.1,4.2,11.2,7.3c3.1,3.2,5.5,7,7.1,11.6
			c1.7,4.6,2.5,9.7,2.5,15.3c0,5.7-0.8,10.8-2.5,15.4c-1.7,4.6-4.1,8.5-7.1,11.7s-6.8,5.7-11.2,7.4s-9.2,2.6-14.6,2.6
			c-5.4,0-10.2-0.9-14.6-2.6s-8.1-4.2-11.2-7.4c-3.1-3.2-5.5-7.1-7.2-11.7c-1.7-4.6-2.6-9.7-2.6-15.4c0-5.6,0.9-10.8,2.6-15.3
			c1.7-4.6,4.1-8.4,7.2-11.6c3.1-3.2,6.8-5.6,11.2-7.3S2289.2,120.5,2294.5,120.5z M2294.5,181.2c6,0,10.4-2,13.3-6
			s4.3-9.9,4.3-17.6c0-7.7-1.4-13.6-4.3-17.7c-2.9-4.1-7.3-6.1-13.3-6.1c-6.1,0-10.5,2-13.4,6.1s-4.3,10-4.3,17.7s1.4,13.6,4.3,17.6
			C2284,179.1,2288.5,181.2,2294.5,181.2z"/>
		<path class="st3" d="M2343.5,216.9v-95.3h10.6c1.1,0,2.1,0.3,2.9,0.8c0.8,0.5,1.3,1.3,1.5,2.4l1.4,6.7c2.9-3.3,6.2-6,10-8.1
			s8.2-3.1,13.2-3.1c3.9,0,7.5,0.8,10.7,2.5c3.2,1.6,6,4,8.4,7.1s4.2,6.9,5.5,11.5s1.9,9.8,1.9,15.6c0,5.4-0.7,10.3-2.2,14.9
			c-1.4,4.6-3.5,8.5-6.2,11.9s-5.9,6-9.7,7.9s-8.1,2.8-12.8,2.8c-4.1,0-7.5-0.6-10.3-1.9c-2.8-1.2-5.4-3-7.6-5.1v29.4H2343.5z
			 M2377.1,133.9c-3.6,0-6.7,0.8-9.2,2.3s-4.9,3.7-7.1,6.4v32.2c2,2.4,4.1,4.1,6.4,5.1c2.3,1,4.8,1.4,7.5,1.4c2.6,0,5-0.5,7.1-1.5
			s3.9-2.5,5.4-4.5s2.6-4.5,3.4-7.6c0.8-3.1,1.2-6.7,1.2-10.8c0-4.2-0.3-7.8-1-10.7s-1.6-5.3-2.9-7.1s-2.8-3.2-4.6-4
			C2381.4,134.3,2379.4,133.9,2377.1,133.9z"/>
		<path class="st3" d="M2452.3,120.5c4.5,0,8.7,0.7,12.5,2.2c3.8,1.4,7.1,3.6,9.8,6.3c2.8,2.8,4.9,6.2,6.4,10.2s2.3,8.6,2.3,13.8
			c0,1.3-0.1,2.4-0.2,3.3c-0.1,0.9-0.3,1.5-0.6,2s-0.7,0.8-1.2,1.1s-1.2,0.3-2,0.3h-44.4c0.5,7.4,2.5,12.8,6,16.2
			c3.5,3.5,8,5.2,13.7,5.2c2.8,0,5.2-0.3,7.2-1s3.8-1.4,5.3-2.2s2.8-1.5,4-2.2c1.1-0.7,2.2-1,3.3-1c0.7,0,1.3,0.1,1.8,0.4
			c0.5,0.3,1,0.7,1.3,1.2l5,6.3c-1.9,2.2-4.1,4.1-6.4,5.6c-2.4,1.5-4.9,2.7-7.5,3.6c-2.6,0.9-5.2,1.6-7.9,1.9
			c-2.7,0.4-5.3,0.6-7.8,0.6c-5,0-9.6-0.8-13.9-2.5c-4.3-1.7-8-4.1-11.2-7.4c-3.2-3.2-5.7-7.3-7.5-12c-1.8-4.8-2.7-10.3-2.7-16.6
			c0-4.9,0.8-9.5,2.4-13.8c1.6-4.3,3.9-8.1,6.8-11.3c3-3.2,6.6-5.7,10.8-7.6C2442.1,121.4,2446.9,120.5,2452.3,120.5z M2452.7,132.9
			c-5,0-9,1.4-11.8,4.3c-2.8,2.8-4.7,6.9-5.5,12.1h32.5c0-2.2-0.3-4.4-0.9-6.3c-0.6-2-1.5-3.7-2.8-5.2s-2.8-2.7-4.8-3.5
			C2457.5,133.3,2455.2,132.9,2452.7,132.9z M2477,91.1l-17.3,18.3c-0.9,0.9-1.7,1.6-2.6,1.9c-0.8,0.3-1.9,0.5-3.2,0.5h-10.4l9.9-17
			c0.7-1.2,1.5-2.1,2.4-2.8c0.9-0.6,2.3-0.9,4.2-0.9H2477z"/>
		<path class="st3" d="M2497.5,193.4v-71.8h10.1c1.8,0,3,0.3,3.7,1s1.2,1.8,1.4,3.4l1,8.7c2.6-4.4,5.6-7.9,9-10.5
			c3.5-2.6,7.3-3.9,11.6-3.9c3.5,0,6.5,0.8,8.8,2.5l-2.2,13c-0.1,0.8-0.4,1.4-0.9,1.8c-0.5,0.3-1.1,0.5-1.9,0.5
			c-0.7,0-1.7-0.2-2.9-0.5s-2.8-0.5-4.8-0.5c-3.6,0-6.7,1-9.2,3c-2.6,2-4.7,4.9-6.5,8.7v44.7L2497.5,193.4L2497.5,193.4z"/>
		<path class="st3" d="M2608.9,193.4h-7.8c-1.6,0-2.9-0.2-3.8-0.7c-0.9-0.5-1.6-1.5-2.1-3l-1.5-5.1c-1.8,1.6-3.6,3.1-5.4,4.3
			s-3.6,2.3-5.4,3.1c-1.9,0.8-3.9,1.5-6,1.9s-4.4,0.6-7,0.6c-3,0-5.8-0.4-8.4-1.2c-2.6-0.8-4.8-2-6.6-3.7c-1.8-1.6-3.3-3.7-4.3-6.1
			c-1-2.4-1.5-5.3-1.5-8.5c0-2.7,0.7-5.4,2.1-8c1.4-2.6,3.8-5,7.1-7.2c3.3-2.1,7.7-3.9,13.2-5.3c5.5-1.4,12.3-2.1,20.5-2.1v-4.2
			c0-4.8-1-8.4-3-10.8c-2-2.3-5-3.5-8.9-3.5c-2.8,0-5.1,0.3-7,1s-3.5,1.4-4.9,2.2s-2.6,1.6-3.8,2.2c-1.2,0.7-2.5,1-3.9,1
			c-1.2,0-2.2-0.3-3-0.9c-0.8-0.6-1.5-1.4-2-2.2l-3.1-5.5c8.3-7.6,18.2-11.3,29.9-11.3c4.2,0,7.9,0.7,11.2,2.1s6.1,3.3,8.4,5.7
			c2.3,2.4,4,5.4,5.2,8.8c1.2,3.4,1.8,7.1,1.8,11.2V193.4z M2575.3,182.6c1.8,0,3.4-0.2,4.9-0.5s2.9-0.8,4.2-1.4
			c1.3-0.6,2.6-1.4,3.9-2.4c1.2-0.9,2.5-2.1,3.7-3.3v-12c-5,0-9.3,0.3-12.6,1c-3.4,0.6-6.1,1.4-8.2,2.4c-2.1,1-3.5,2.1-4.4,3.5
			c-0.9,1.3-1.3,2.7-1.3,4.3c0,3.1,0.9,5.2,2.7,6.6C2570.1,182,2572.4,182.6,2575.3,182.6z"/>
		<path class="st3" d="M2649.5,194.5c-6.2,0-11-1.8-14.3-5.3c-3.4-3.5-5-8.4-5-14.6v-40.1h-7.3c-0.9,0-1.7-0.3-2.4-0.9
			c-0.7-0.6-1-1.5-1-2.7V124l11.5-1.9l3.6-19.6c0.2-0.9,0.6-1.7,1.3-2.2s1.5-0.8,2.6-0.8h9v22.6h18.9v12.3h-18.9v38.9
			c0,2.2,0.6,4,1.7,5.2s2.6,1.9,4.5,1.9c1.1,0,2-0.1,2.7-0.4c0.7-0.3,1.4-0.5,1.9-0.8s1-0.5,1.4-0.8s0.8-0.4,1.3-0.4
			s0.9,0.1,1.3,0.4c0.3,0.3,0.7,0.6,1.1,1.2l5.2,8.4c-2.5,2.1-5.4,3.7-8.7,4.8C2656.4,194,2653,194.5,2649.5,194.5z"/>
		<path class="st3" d="M2709.8,120.5c4.5,0,8.7,0.7,12.5,2.2c3.8,1.4,7.1,3.6,9.8,6.3c2.8,2.8,4.9,6.2,6.4,10.2s2.3,8.6,2.3,13.8
			c0,1.3-0.1,2.4-0.2,3.3c-0.1,0.9-0.3,1.5-0.6,2s-0.7,0.8-1.2,1.1s-1.2,0.3-2,0.3h-44.4c0.5,7.4,2.5,12.8,6,16.2
			c3.5,3.5,8,5.2,13.7,5.2c2.8,0,5.2-0.3,7.2-1s3.8-1.4,5.3-2.2s2.8-1.5,4-2.2c1.1-0.7,2.2-1,3.3-1c0.7,0,1.3,0.1,1.8,0.4
			c0.5,0.3,1,0.7,1.3,1.2l5,6.3c-1.9,2.2-4.1,4.1-6.4,5.6c-2.4,1.5-4.9,2.7-7.5,3.6c-2.6,0.9-5.2,1.6-7.9,1.9
			c-2.7,0.4-5.3,0.6-7.8,0.6c-5,0-9.6-0.8-13.9-2.5c-4.3-1.7-8-4.1-11.2-7.4c-3.2-3.2-5.7-7.3-7.5-12c-1.8-4.8-2.7-10.3-2.7-16.6
			c0-4.9,0.8-9.5,2.4-13.8c1.6-4.3,3.9-8.1,6.8-11.3c3-3.2,6.6-5.7,10.8-7.6C2699.6,121.4,2704.4,120.5,2709.8,120.5z M2710.1,132.9
			c-5,0-9,1.4-11.8,4.3c-2.8,2.8-4.7,6.9-5.5,12.1h32.5c0-2.2-0.3-4.4-0.9-6.3c-0.6-2-1.5-3.7-2.8-5.2s-2.8-2.7-4.8-3.5
			C2714.9,133.3,2712.7,132.9,2710.1,132.9z"/>
		<path class="st3" d="M2770.7,121.6v45.6c0,4.4,1,7.8,3,10.2s5.1,3.6,9.1,3.6c3,0,5.8-0.7,8.4-2s5.1-3.2,7.4-5.5v-51.9h17.3v71.8
			h-10.6c-2.2,0-3.7-1-4.4-3.2l-1.2-5.7c-1.5,1.5-3,2.9-4.6,4.1c-1.6,1.2-3.3,2.3-5.1,3.2s-3.7,1.5-5.8,2s-4.3,0.7-6.7,0.7
			c-3.9,0-7.4-0.7-10.4-2s-5.5-3.2-7.6-5.6c-2.1-2.4-3.6-5.3-4.7-8.6c-1-3.3-1.6-7-1.6-11v-45.6L2770.7,121.6L2770.7,121.6z"/>
		<path class="st3" d="M2834.5,193.4v-71.8h10.1c1.8,0,3,0.3,3.7,1s1.2,1.8,1.4,3.4l1,8.7c2.6-4.4,5.6-7.9,9-10.5
			c3.5-2.6,7.3-3.9,11.6-3.9c3.5,0,6.5,0.8,8.8,2.5l-2.2,13c-0.1,0.8-0.4,1.4-0.9,1.8c-0.5,0.3-1.1,0.5-1.9,0.5
			c-0.7,0-1.7-0.2-2.9-0.5s-2.8-0.5-4.8-0.5c-3.6,0-6.7,1-9.2,3c-2.6,2-4.7,4.9-6.5,8.7v44.7L2834.5,193.4L2834.5,193.4z"/>
		<path class="st3" d="M2934.3,135.6c-0.5,0.7-1,1.3-1.5,1.6s-1.2,0.5-2,0.5s-1.7-0.2-2.7-0.7s-2.1-1-3.3-1.6
			c-1.3-0.6-2.7-1.1-4.3-1.6s-3.5-0.7-5.7-0.7c-3.4,0-6.1,0.7-8,2.2c-2,1.4-2.9,3.3-2.9,5.7c0,1.5,0.5,2.8,1.5,3.9c1,1,2.3,2,4,2.8
			s3.5,1.5,5.6,2.1s4.2,1.3,6.4,2.1c2.2,0.7,4.3,1.6,6.4,2.6c2.1,1,4,2.2,5.6,3.6c1.7,1.5,3,3.2,4,5.3s1.5,4.5,1.5,7.4
			c0,3.5-0.6,6.6-1.9,9.6c-1.3,2.9-3.1,5.4-5.5,7.6c-2.4,2.1-5.4,3.8-9,5s-7.7,1.8-12.3,1.8c-2.5,0-4.9-0.2-7.2-0.7
			c-2.4-0.4-4.6-1.1-6.8-1.9c-2.2-0.8-4.2-1.7-6-2.8s-3.5-2.2-4.9-3.5l4-6.6c0.5-0.8,1.1-1.4,1.8-1.8s1.6-0.6,2.7-0.6
			c1.1,0,2.1,0.3,3,0.9c1,0.6,2.1,1.3,3.3,2c1.3,0.7,2.7,1.4,4.4,2s3.9,0.9,6.5,0.9c2.1,0,3.8-0.2,5.3-0.7s2.7-1.1,3.6-1.9
			c1-0.8,1.7-1.7,2.1-2.8s0.7-2.1,0.7-3.3c0-1.7-0.5-3.1-1.5-4.1c-1-1.1-2.3-2-4-2.8s-3.5-1.5-5.7-2.1c-2.1-0.6-4.3-1.3-6.5-2.1
			c-2.2-0.7-4.4-1.6-6.5-2.6s-4-2.3-5.7-3.8s-3-3.4-4-5.7c-1-2.2-1.5-4.9-1.5-8.1c0-2.9,0.6-5.7,1.8-8.4s2.9-5,5.1-7
			s5.1-3.6,8.5-4.8c3.4-1.2,7.3-1.8,11.7-1.8c4.9,0,9.5,0.8,13.5,2.5c4.1,1.6,7.4,3.8,10.2,6.4L2934.3,135.6z"/>
	</g>
</g>
</svg>
