<?xml version="1.0" encoding="utf-8"?>
<!-- Generator: Adobe Illustrator 23.0.6, SVG Export Plug-In . SVG Version: 6.00 Build 0)  -->
<svg version="1.1" id="ƒŒƒCƒ_x201E__x5B__3" xmlns="http://www.w3.org/2000/svg" xmlns:xlink="http://www.w3.org/1999/xlink"
	 x="0px" y="0px" viewBox="0 0 720.0004883 720.0009766" style="enable-background:new 0 0 720.0004883 720.0009766;"
	 xml:space="preserve">
<style type="text/css">
	.st0{fill:#FFFFFF;}
	.st1{fill:#E5241D;}
</style>
<path class="st0" d="M719.9995117,359.9942017c-29.6426392,29.6445007-330.3583984,330.3623047-360.0028992,360.0067749
	C330.3511047,690.3565063,29.6401005,389.6387024,0,359.9942017C29.6420994,330.3534851,330.3511047,29.6436005,359.9937134,0.001
	C389.6391907,29.6436005,690.3568726,330.3534851,719.9995117,359.9942017z"/>
<path class="st1" d="M0.0005,359.9956055L359.9966125,720l360.0038757-360.0043945L359.9966125,0L0.0005,359.9956055z
	 M662.956604,359.9956055c-24.9462891,24.9468079-278.0122986,278.012207-302.9599915,302.9584961
	C335.0508118,638.0078125,81.9893036,384.9403992,57.0443993,359.9956055
	C81.9893036,335.0498047,335.0508118,81.9888,359.9966125,57.043499
	C384.9418945,81.9888,638.0103149,335.0498047,662.956604,359.9956055z"/>
<g>
	<rect x="212.1142578" y="378.0659485" width="281.1723633" height="4.9995117"/>
	<g>
		<path d="M249.9662933,453.530304l34.6069183-20.0078125l1.6230774-85.4003906l-42.7191925-23.2520142
			c0,0-6.4888-4.325592-15.6821899-1.6224976c-3.2436066,1.0815125-7.569809,2.1625977-7.569809,2.1625977
			s23.2519989-19.4657898,27.5776062-17.8442993c4.3256989,1.6226196,34.6080017,16.2227173,34.6080017,16.2227173
			s-3.2447205-22.7113953-11.3560181-29.2001953c-8.1107788-6.4888-39.473587-31.3633118-39.473587-31.3633118v-5.9472046
			l42.7181854,25.9544983c0,0,1.6221008-24.8735046-7.0292969-39.473587
			c-8.6528015-14.6000977-15.1415863-27.5781097-15.1415863-27.5781097l2.7041016-2.1625977l21.0888824,32.444809
			l7.0293274-22.1704102l4.3266907-1.0814972c0,0-5.4082947,31.3623047-1.6226196,41.0957031
			c3.784729,9.7337952,17.8447266,62.7260132,17.8447266,62.7260132l21.0888977-30.2812195
			c0,0,0.539978-12.4375-0.5404968-21.089386c-1.0821228-8.6513062-2.7041016-48.6665039-2.7041016-48.6665039h3.7845764
			l5.948822,43.7998047l34.0536804-39.4736176v4.3257141c0,0-33.5137024,42.1776886-31.890686,51.3705902
			c1.6221008,9.1929016,3.2442017,14.5996094-2.7036133,27.5776062
			c-5.9481812,12.9776001-9.7338867,22.1704102-9.7338867,22.1704102s17.8447876-21.0888062,25.9560852-22.7114258
			c8.110321-0.5404968,18.9125977,0.5410156,26.4833984-5.9476929c7.5693054-6.4892883,25.9546204-27.0372009,25.9546204-27.0372009
			l-28.6582031,44.3403931c0,0-13.506897,0.5405273-18.9136047,6.4892273
			c-5.407196,5.9482727-27.5770874,31.3632812-27.5770874,31.3632812v58.3633118l36.7621765,18.3847961l-44.8735962,6.4902039
			l-10.8153992,15.6815796l-14.6000977-12.4375L249.9662933,453.530304z"/>
		<path d="M305.5102539,465.1416321l-15.6435547-13.3271484l-39.7143555,3.7070312l-1.1870117-3.7226562l33.6298828-19.4433594
			l1.578125-83.0571289l-41.8056641-22.7641602c-0.2290039-0.1489258-5.8901367-3.7543945-14.0087891-1.3676758
			c-3.2104492,1.0717773-7.4692383,2.1391602-7.6489258,2.184082l-1.7685547-3.4741211
			c0.0585938-0.0488281,5.9350586-4.9609375,12.2670898-9.6088867c11.934082-8.7602539,15.3657227-9.2983398,17.2963867-8.5742188
			c3.5136719,1.3178711,23.1381836,10.703125,31.2773438,14.6113281c-1.4760742-7.550293-4.8427734-20.0473633-9.9770508-24.1542969
			c-8.0146484-6.4121094-39.1533203-31.109375-39.4667969-31.3583984l-0.7573242-0.6005859v-10.46875L272.40625,279.742218
			c0.0820312-7.168457-0.4638672-24.175293-6.8569336-34.9638672c-8.5898438-14.4936523-15.1445312-27.5727539-15.2099609-27.703125
			l-0.7231445-1.4462891l5.6904297-4.5512695l19.9868164,30.7490234l6.0883789-19.2036133l8.3876953-2.0966797l-0.5214844,3.0244141
			c-1.4775391,8.5722656-4.668457,32.4741211-1.7294922,40.0307617
			c3.1982422,8.2250977,13.3862305,45.9951172,16.8032227,58.7709961l18.2900391-26.2626953
			c0.0874023-2.5268555,0.3686523-12.8378906-0.5483398-20.1796875c-1.0800781-8.6352539-2.6518555-47.1962891-2.7182617-48.8334961
			l-0.0839844-2.0810547H326.875l5.5869141,41.1333008l34.6689453-40.1870117v10.4033203l-0.434082,0.5463867
			c-24.0068359,30.2148438-32.0537109,46.5683594-31.4868164,49.7788086c0.1152344,0.6533203,0.2304688,1.2875977,0.3427734,1.90625
			c1.5019531,8.2607422,2.5869141,14.2294922-3.1977539,26.8520508c-1.9077148,4.1625977-3.597168,7.9458008-5.0097656,11.1591797
			c6.0043945-6.2045898,13.9453125-13.4790039,19.0214844-14.4941406l0.2592773-0.034668
			c1.5097656-0.1005859,3.0698242-0.1450195,4.722168-0.1923828c6.9995117-0.2006836,14.9331055-0.4277344,20.5922852-5.2783203
			c7.3833008-6.3295898,25.5825195-26.6474609,25.7661133-26.8520508l3.1699219,2.4189453l-29.2207031,45.2104492
			l-1.0361328,0.0429688c-0.1269531,0.0048828-12.7397461,0.5825195-17.5146484,5.8359375
			c-4.8842773,5.3730469-23.7539062,26.9833984-27.0571289,30.7680664v56.3769531l41.3647461,20.6865234l-50.3256836,7.2792969
			L305.5102539,465.1416321z M291.175293,447.6758118l13.5566406,11.5478516l10.0541992-14.5771484l39.4213867-5.7011719
			l-32.159668-16.0830078v-60.3491211l0.4926758-0.5654297c0.222168-0.2539062,22.2456055-25.4985352,27.6044922-31.3935547
			c5.0327148-5.5375977,15.8271484-6.8076172,19.2607422-7.0761719l15.5551758-24.0664062
			c-3.9433594,4.1113281-7.7924805,7.9633789-10.4169922,10.2138672c-6.734375,5.7714844-15.7983398,6.0307617-23.081543,6.2392578
			c-1.5600586,0.0449219-3.0371094,0.0869141-4.4296875,0.1762695c-6.152832,1.387207-19.8959961,16.3359375-24.703125,22.0170898
			l-3.3759766-2.0537109c0.0375977-0.0922852,3.8686523-9.3779297,9.7646484-22.2421875
			c5.2607422-11.4785156,4.3212891-16.6469727,2.8989258-24.4702148c-0.1137695-0.6254883-0.2299805-1.2661133-0.3466797-1.9262695
			c-1.1132812-6.3066406,10.7329102-24.1123047,20.5981445-37.6088867l-22.1762695,25.7050781l-6.2426758-45.9658203
			c0.3798828,8.9863281,1.6821289,38.7163086,2.5825195,45.9179688c1.0888672,8.71875,0.5766602,20.909668,0.5541992,21.4243164
			l-0.0249023,0.5795898l-23.8881836,34.300293l-1.1069336-4.1728516
			c-0.1401367-0.5288086-14.0742188-52.9946289-17.7758789-62.5141602
			c-3.2651367-8.3955078-0.234375-30.9213867,1.0297852-39.1445312l-0.3007812,0.0751953l-7.9702148,25.137207
			l-20.1713867-31.0336914c2.6538086,5.0708008,7.2294922,13.5908203,12.612793,22.6738281
			c8.8647461,14.9604492,7.3720703,39.5825195,7.3041992,40.6235352l-0.2143555,3.2919922l-42.4995117-25.8217773v1.4257812
			c4.8413086,3.840332,31.4052734,24.9135742,38.7231445,30.7680664
			c8.6303711,6.9038086,11.9492188,29.5195312,12.0864258,30.4790039l0.5302734,3.7133789l-3.3789062-1.6289062
			c-0.300293-0.1450195-29.8994141-14.4106445-34.3652344-16.1230469c-2.109375-0.1220703-9.9731445,5.121582-18.1098633,11.402832
			c8.5620117-1.800293,14.5981445,1.7514648,15.4306641,2.2783203l43.7216797,23.7973633l-1.6679688,87.7436523
			l-27.6767578,16.0009766L291.175293,447.6758118z"/>
	</g>
	<g>
		<path d="M213.1963043,504.3604126c0,0,49.2069855-14.5996094,57.3178864-8.6524048
			c10.8149109-4.867218,89.7557983-38.3926086,89.7557983-36.2304077c0,2.1640015,90.8388977-28.1171875,90.8388977-28.1171875
			l32.9844055,23.7928772l-31.3613892,15.1407166l42.1777954,3.7850952l-11.3554993,15.1405945h23.25l0.5410156,16.7618103
			L213.1963043,504.3604126z"/>
		<path d="M509.4116211,507.9931946l-296.2265625-1.6328125l-0.5576172-3.9169922
			c8.0629883-2.3935547,47.4858398-13.6787109,57.9838867-8.96875c6.7246094-2.9814453,27.6171875-11.9003906,47.2729492-20.0351562
			c37.940918-15.703125,41.777832-16.4824219,43.1166992-15.8886719
			c6.4580078-0.8876953,57.7631836-17.5166016,89.4750977-28.0878906l0.9716797-0.3242188l36.5380859,26.3564453
			l-27.8671875,13.4541016l38.5439453,3.4589844l-11.1083984,14.8115234h21.1865234L509.4116211,507.9931946z
			 M227.5664062,502.4394836l277.7124023,1.5302734l-0.4111328-12.75h-25.3134766l11.6025391-15.4697266l-45.8115234-4.1113281
			l34.8554688-16.8271484l-29.4316406-21.2304688c-4.5292969,1.5058594-24.1347656,8.0126953-43.7060547,14.3085938
			c-40.0195312,12.875-45.7822266,14.0449219-47.3925781,13.5576172
			c-7.644043,1.6757812-75.6938477,30.3955078-88.3354492,36.0849609l-1.0629883,0.4785156l-0.9404297-0.6894531
			C266.902832,495.539093,253.574707,495.7324524,227.5664062,502.4394836z M358.2700195,459.4775696
			c0,0.0400391,0.0014648,0.0791016,0.0039062,0.1191406L358.2700195,459.4775696z M362.2661133,459.3554993l0.0039062,0.1220703
			C362.2700195,459.436554,362.2685547,459.3955383,362.2661133,459.3554993z"/>
	</g>
	<g>
		<path class="st0" d="M322.9657898,461.6416016c0,0,14.0596008-0.5410156,20.5484009-3.2441101
			c10.2900085-4.289093,27.0244141-11.3554993,36.7568054-25.4159851
			c10.0645142-14.5352173,45.9628906-75.667511,95.1719055-70.8008118
			c-2.7051086,6.4883118-11.3554993,20.5493164-11.3554993,20.5493164l35.1464844-10.815918
			c0,0,0.5410156,46.467804-65.9687805,76.2080078c-30.8222046,10.8164062-37.3125,11.3554993-40.0155945,15.1405945
			c-2.703125,3.7852173-15.1401062,22.7128906-15.1401062,22.7128906L322.9657898,461.6416016z"/>
		<path d="M379.0366211,489.117218l-57.0800781-25.1884766l0.9130859-4.7851562
			c0.1357422-0.0048828,13.6875-0.5556641,19.6831055-3.0537109c9.8208008-4.09375,26.2587891-10.9453125,35.6625977-24.53125
			c0.8168945-1.1796875,1.8046875-2.6689453,2.9575195-4.4052734
			c13.0834961-19.7128906,47.8305664-72.0878906,94.5161133-67.4604492l3.3613281,0.3325195l-1.2998047,3.1171875
			c-1.6601562,3.9814453-5.390625,10.5620117-8.1640625,15.2792969l32.1083984-9.8808594l0.0390625,3.34375
			c0.0058594,0.5004883,0.0458984,12.4384766-8.3369141,28.1572266
			c-13.8525391,25.9726562-39.7910156,41.7236328-59.1113281,50.3623047l-0.1923828,0.0771484
			c-10.7949219,3.7880859-18.6152344,6.3193359-24.3251953,8.1679688c-9.609375,3.1103516-13.2050781,4.2744141-14.484375,6.0664062
			c-2.6435547,3.7021484-14.9609375,22.4433594-15.0849609,22.6328125L379.0366211,489.117218z M332.9199219,463.3017883
			l44.2631836,19.5322266c3.1723633-4.8183594,11.7929688-17.8896484,14.0322266-21.0244141
			c2.2382812-3.1347656,5.6630859-4.2431641,17.0126953-7.9169922c5.6689453-1.8349609,13.4248047-4.3466797,24.1113281-8.0947266
			c53.7773438-24.0839844,62.6484375-59.3515625,64.1083984-70.4106445l-37.9658203,11.6831055l3.4765625-5.6503906
			c0.0722656-0.1181641,6.2373047-10.15625,9.6728516-16.9848633
			c-41.9472656-1.3295898-74.0087891,46.9750977-86.2924805,65.4829102
			c-1.1743164,1.7695312-2.1806641,3.2851562-3.0126953,4.4863281
			c-10.237793,14.7910156-27.5229492,21.9960938-37.8500977,26.3007812
			C341.4389648,461.9697571,336.9833984,462.7851868,332.9199219,463.3017883z"/>
	</g>
	<path d="M466.7904968,399.1825867c0-2.8309937,2.6621094-5.125,5.9472961-5.125c3.2852173,0,5.9492188,2.2940063,5.9492188,5.125
		c0,2.8359985-2.6640015,5.1368103-5.9492188,5.1368103C469.4526062,404.319397,466.7904968,402.0185852,466.7904968,399.1825867z"
		/>
</g>
</svg>
