<?xml version="1.0" encoding="utf-8"?>
<!-- Generator: Adobe Illustrator 21.1.0, SVG Export Plug-In . SVG Version: 6.00 Build 0)  -->
<svg version="1.1" id="Calque_1" xmlns="http://www.w3.org/2000/svg" xmlns:xlink="http://www.w3.org/1999/xlink" x="0px" y="0px"
	 viewBox="0 0 2048 2048" style="enable-background:new 0 0 2048 2048;" xml:space="preserve">
<style type="text/css">
	.st0{fill:url(#SVGID_1_);}
	.st1{fill:#DCDCDC;}
	.st2{fill:#333333;stroke:#333333;}
	.st3{fill:#333333;}
</style>
<g>
	
		<linearGradient id="SVGID_1_" gradientUnits="userSpaceOnUse" x1="1024" y1="12.5" x2="1024" y2="2035.5" gradientTransform="matrix(1 0 0 -1 0 2048)">
		<stop  offset="0" style="stop-color:#E8E8E8"/>
		<stop  offset="1" style="stop-color:#F9F9F9"/>
	</linearGradient>
	<path class="st0" d="M50,2035.5c-20.7,0-37.5-16.8-37.5-37.5V50c0-20.7,16.8-37.5,37.5-37.5h1948c20.7,0,37.5,16.8,37.5,37.5v1948
		c0,20.7-16.8,37.5-37.5,37.5H50z"/>
	<path class="st1" d="M1998,25c13.8,0,25,11.2,25,25v1948c0,13.8-11.2,25-25,25H50c-13.8,0-25-11.2-25-25V50c0-13.8,11.2-25,25-25
		H1998 M1998,0H50C22.5,0,0,22.5,0,50v1948c0,27.5,22.5,50,50,50h1948c27.5,0,50-22.5,50-50V50C2048,22.5,2025.5,0,1998,0L1998,0z"
		/>
</g>
<g>
	<path class="st2" d="M759.3,1658.4c-1,1.9-2.1,3.2-3.3,4c-1.3,0.8-2.8,1.2-4.5,1.2c-1.7,0-3.7-0.7-5.9-2c-2.2-1.3-4.7-2.8-7.7-4.5
		c-2.9-1.6-6.4-3.1-10.3-4.5c-3.9-1.3-8.6-2-14-2c-4.9,0-9.1,0.6-12.7,1.8c-3.6,1.2-6.6,2.8-9.1,4.9c-2.5,2.1-4.3,4.6-5.5,7.5
		c-1.2,2.9-1.8,6.1-1.8,9.6c0,4.4,1.2,8.1,3.7,11.1c2.5,2.9,5.7,5.5,9.8,7.5c4.1,2.1,8.7,3.9,13.9,5.6c5.2,1.6,10.5,3.4,15.9,5.3
		c5.4,1.9,10.7,4,15.9,6.5c5.2,2.5,9.8,5.6,13.9,9.4c4.1,3.8,7.3,8.4,9.8,13.8c2.5,5.5,3.7,12.1,3.7,19.9c0,8.5-1.5,16.4-4.4,23.9
		c-2.9,7.4-7.1,13.9-12.7,19.4c-5.6,5.5-12.4,9.8-20.5,13c-8.1,3.2-17.3,4.7-27.7,4.7c-6,0-11.9-0.6-17.7-1.8
		c-5.8-1.2-11.4-2.8-16.7-5c-5.3-2.2-10.3-4.8-14.9-7.8c-4.6-3-8.8-6.4-12.4-10.1l10.1-16.8c1-1.2,2.1-2.2,3.4-3.1
		c1.3-0.8,2.8-1.2,4.5-1.2c2.2,0,4.5,0.9,7,2.7c2.5,1.8,5.5,3.8,8.9,5.9c3.4,2.2,7.5,4.1,12.1,5.9c4.6,1.8,10.2,2.7,16.7,2.7
		c10,0,17.7-2.4,23.1-7.1c5.5-4.7,8.2-11.5,8.2-20.3c0-4.9-1.2-9-3.7-12.1c-2.5-3.1-5.7-5.7-9.8-7.9c-4.1-2.1-8.7-3.9-13.9-5.4
		c-5.2-1.5-10.5-3.1-15.9-4.8c-5.4-1.7-10.7-3.8-15.9-6.2c-5.2-2.4-9.8-5.6-13.9-9.5c-4.1-3.9-7.3-8.8-9.8-14.6
		c-2.5-5.9-3.7-13.1-3.7-21.6c0-6.8,1.4-13.5,4.1-20s6.7-12.3,12-17.3c5.2-5,11.7-9.1,19.3-12.1c7.6-3,16.3-4.6,26.1-4.6
		c11.1,0,21.3,1.7,30.7,5.2c9.4,3.5,17.3,8.3,23.9,14.6L759.3,1658.4z"/>
	<path class="st2" d="M840,1814.3c-11.5,0-20.4-3.3-26.7-9.8c-6.2-6.5-9.4-15.6-9.4-27.1v-74.5h-13.5c-1.7,0-3.2-0.6-4.5-1.7
		c-1.3-1.1-1.9-2.8-1.9-5.1v-12.7l21.5-3.5l6.8-36.4c0.3-1.7,1.1-3.1,2.4-4c1.3-1,2.8-1.4,4.7-1.4h16.6v42h35.1v22.9h-35.1v72.3
		c0,4.2,1,7.4,3.1,9.8c2.1,2.3,4.9,3.5,8.3,3.5c2,0,3.7-0.2,5-0.7c1.3-0.5,2.5-1,3.5-1.5c1-0.5,1.9-1,2.7-1.5
		c0.8-0.5,1.6-0.7,2.3-0.7c1,0,1.7,0.2,2.3,0.7c0.6,0.5,1.3,1.2,1.9,2.1l9.6,15.6c-4.7,3.9-10.1,6.8-16.1,8.8
		C852.8,1813.3,846.5,1814.3,840,1814.3z"/>
	<path class="st2" d="M953.7,1676.7c10,0,19,1.6,27.1,4.8c8.1,3.2,15,7.8,20.7,13.7c5.7,5.9,10.1,13.1,13.3,21.6
		c3.1,8.5,4.7,18,4.7,28.5c0,10.6-1.6,20.1-4.7,28.6c-3.1,8.5-7.5,15.7-13.3,21.7c-5.7,6-12.6,10.6-20.7,13.8
		c-8.1,3.2-17.1,4.8-27.1,4.8c-10,0-19-1.6-27.2-4.8c-8.1-3.2-15.1-7.8-20.9-13.8c-5.8-6-10.2-13.2-13.4-21.7
		c-3.2-8.5-4.7-18-4.7-28.6c0-10.5,1.6-20,4.7-28.5c3.2-8.5,7.6-15.7,13.4-21.6c5.8-5.9,12.7-10.4,20.9-13.7
		C934.7,1678.3,943.8,1676.7,953.7,1676.7z M953.7,1789.4c11.1,0,19.3-3.7,24.6-11.2c5.3-7.5,8-18.4,8-32.8c0-14.4-2.7-25.3-8-32.9
		s-13.5-11.3-24.6-11.3c-11.3,0-19.6,3.8-25,11.4c-5.4,7.6-8.1,18.5-8.1,32.8s2.7,25.2,8.1,32.7
		C934.1,1785.7,942.5,1789.4,953.7,1789.4z"/>
	<path class="st2" d="M1138.3,1707c-1,1.2-1.9,2.2-2.8,2.9c-0.9,0.7-2.2,1-4,1c-1.6,0-3.2-0.5-4.8-1.5c-1.6-1-3.4-2.1-5.6-3.4
		c-2.2-1.3-4.7-2.4-7.7-3.4c-3-1-6.7-1.5-11.1-1.5c-5.6,0-10.6,1-14.8,3.1c-4.2,2-7.8,5-10.6,8.8c-2.8,3.8-4.9,8.4-6.3,13.8
		c-1.4,5.4-2.1,11.5-2.1,18.4c0,7.1,0.8,13.4,2.3,19c1.5,5.5,3.7,10.2,6.6,14c2.9,3.8,6.3,6.6,10.4,8.6c4.1,2,8.7,2.9,13.8,2.9
		c5.1,0,9.2-0.6,12.4-1.9c3.2-1.3,5.8-2.6,8-4.2c2.2-1.5,4.1-2.9,5.7-4.2c1.6-1.3,3.4-1.9,5.4-1.9c2.6,0,4.5,1,5.8,3l9.2,11.7
		c-3.6,4.2-7.4,7.7-11.6,10.5c-4.2,2.8-8.5,5.1-12.9,6.8c-4.5,1.7-9.1,2.9-13.8,3.6c-4.8,0.7-9.5,1-14.2,1c-8.2,0-16-1.5-23.3-4.6
		c-7.3-3.1-13.6-7.6-19-13.5c-5.4-5.9-9.7-13.1-12.9-21.6c-3.2-8.5-4.7-18.3-4.7-29.2c0-9.8,1.4-18.9,4.2-27.2
		c2.8-8.4,7-15.6,12.4-21.7c5.5-6.1,12.2-10.9,20.3-14.4c8.1-3.5,17.3-5.2,27.8-5.2c10,0,18.7,1.6,26.2,4.8
		c7.5,3.2,14.2,7.8,20.2,13.8L1138.3,1707z"/>
	<path class="st2" d="M1201.1,1619v110.6h6c2.2,0,3.9-0.3,5.1-0.9c1.2-0.6,2.5-1.7,3.9-3.4l33.2-41c1.5-1.7,3-3.1,4.7-4.1
		c1.6-1,3.8-1.5,6.5-1.5h29.4l-41.5,49.5c-1.5,1.8-3,3.5-4.5,5c-1.6,1.5-3.2,2.8-5.1,4c1.8,1.3,3.4,2.8,4.8,4.5
		c1.4,1.7,2.8,3.6,4.2,5.6l44.5,64.7h-29c-2.5,0-4.6-0.4-6.4-1.3c-1.7-0.9-3.3-2.3-4.7-4.4l-33.9-50.6c-1.3-2-2.6-3.3-3.9-3.9
		c-1.3-0.6-3.2-0.9-5.9-0.9h-7.3v61.1H1169V1619H1201.1z"/>
	<path class="st2" d="M1391.2,1704.8c-0.9,1.4-1.8,2.4-2.7,2.9c-1,0.6-2.2,0.8-3.6,0.8c-1.6,0-3.2-0.4-5-1.3
		c-1.8-0.9-3.8-1.8-6.2-2.9c-2.3-1.1-5-2.1-8-2.9c-3-0.9-6.5-1.3-10.6-1.3c-6.3,0-11.3,1.3-15,4c-3.6,2.7-5.5,6.2-5.5,10.5
		c0,2.9,0.9,5.3,2.8,7.2c1.9,2,4.3,3.7,7.4,5.1c3.1,1.5,6.6,2.8,10.5,4s7.9,2.5,12,3.8c4.1,1.4,8.1,3,12,4.7c3.9,1.8,7.4,4,10.5,6.8
		c3.1,2.7,5.5,6,7.4,9.8c1.9,3.8,2.8,8.4,2.8,13.8c0,6.4-1.2,12.3-3.5,17.7c-2.3,5.4-5.8,10.1-10.3,14c-4.5,3.9-10.1,7-16.7,9.2
		c-6.6,2.2-14.2,3.3-22.8,3.3c-4.6,0-9.1-0.4-13.5-1.2c-4.4-0.8-8.6-2-12.6-3.4c-4-1.5-7.8-3.2-11.2-5.2c-3.4-2-6.4-4.2-9-6.5
		l7.4-12.2c1-1.5,2.1-2.6,3.4-3.4s2.9-1.2,4.9-1.2c2,0,3.9,0.6,5.7,1.7c1.8,1.1,3.8,2.3,6.2,3.6s5.1,2.5,8.3,3.6
		c3.2,1.1,7.2,1.7,12,1.7c3.8,0,7.1-0.5,9.8-1.4c2.7-0.9,5-2.1,6.8-3.6c1.8-1.5,3.1-3.2,3.9-5.1c0.8-2,1.2-4,1.2-6
		c0-3.1-0.9-5.7-2.8-7.7c-1.9-2-4.3-3.7-7.4-5.2c-3.1-1.5-6.6-2.8-10.5-4c-3.9-1.2-8-2.4-12.1-3.8c-4.1-1.4-8.1-3-12.1-4.9
		c-3.9-1.9-7.5-4.2-10.5-7.1c-3.1-2.9-5.5-6.4-7.4-10.5c-1.9-4.2-2.8-9.2-2.8-15.1c0-5.5,1.1-10.7,3.2-15.6
		c2.2-4.9,5.3-9.2,9.6-12.9c4.2-3.7,9.4-6.6,15.7-8.8c6.3-2.2,13.5-3.3,21.8-3.3c9.2,0,17.5,1.5,25.1,4.5c7.5,3,13.8,7,18.9,12
		L1391.2,1704.8z"/>
</g>
<path class="st3" d="M807.6,1099.8c0-52.5-43.5-96.1-96.1-96.1s-96.1,43.6-96.1,96.1c0,52.5,43.6,96.1,96.1,96.1
	C763.9,1195.9,807.6,1152.4,807.6,1099.8z M519.2,715.1h288.4V522.7H689c-3.1,0-14.3,4.6-16.6,6.9L525.9,676.1
	c-2.3,2.3-6.7,13.5-6.7,16.6V715.1z M1480.8,1099.8c0-52.5-43.5-96.1-96.1-96.1c-52.6,0-96.1,43.6-96.1,96.1
	c0,52.5,43.6,96.1,96.1,96.1C1437.1,1195.9,1480.8,1152.4,1480.8,1099.8z M1673.1,282.4v769.3c0,55.6-58.6,48.1-96.1,48.1
	c0,106-86.4,192.4-192.4,192.4s-192.3-86.4-192.3-192.4H903.8c0,106-86.4,192.4-192.4,192.4s-192.3-86.4-192.3-192.4H471
	c-37.6,0-96.1,7.5-96.1-48.1c0-26.3,21.8-48.1,48.1-48.1V763.2c0-53.3-7.5-112.7,33.8-154l148.8-148.8c18.8-18.7,54.9-33.8,82-33.8
	h120.1V282.4c0-26.4,21.8-48.1,48.2-48.1h769.3C1651.3,234.3,1673.1,256,1673.1,282.4L1673.1,282.4z"/>
</svg>
