<?xml version="1.0" encoding="utf-8"?>
<!-- Generator: Adobe Illustrator 21.1.0, SVG Export Plug-In . SVG Version: 6.00 Build 0)  -->
<svg version="1.1" id="Calque_1" xmlns="http://www.w3.org/2000/svg" xmlns:xlink="http://www.w3.org/1999/xlink" x="0px" y="0px"
	 viewBox="0 0 2048 2048" style="enable-background:new 0 0 2048 2048;" xml:space="preserve">
<style type="text/css">
	.st0{fill:url(#SVGID_1_);}
	.st1{fill:#DCDCDC;}
	.st2{fill:#333333;stroke:#333333;}
	.st3{fill:#333333;}
</style>
<g>
	
		<linearGradient id="SVGID_1_" gradientUnits="userSpaceOnUse" x1="1024" y1="12.5" x2="1024" y2="2035.5" gradientTransform="matrix(1 0 0 -1 0 2048)">
		<stop  offset="0" style="stop-color:#E8E8E8"/>
		<stop  offset="1" style="stop-color:#F9F9F9"/>
	</linearGradient>
	<path class="st0" d="M50,2035.5c-20.7,0-37.5-16.8-37.5-37.5V50c0-20.7,16.8-37.5,37.5-37.5h1948c20.7,0,37.5,16.8,37.5,37.5v1948
		c0,20.7-16.8,37.5-37.5,37.5H50z"/>
	<path class="st1" d="M1998,25c13.8,0,25,11.2,25,25v1948c0,13.8-11.2,25-25,25H50c-13.8,0-25-11.2-25-25V50c0-13.8,11.2-25,25-25
		H1998 M1998,0H50C22.5,0,0,22.5,0,50v1948c0,27.5,22.5,50,50,50h1948c27.5,0,50-22.5,50-50V50C2048,22.5,2025.5,0,1998,0L1998,0z"
		/>
</g>
<g>
	<path class="st2" d="M883.5,1624.2v28.7h-56.6v159.2h-35v-159.2h-56.8v-28.7H883.5z"/>
	<path class="st2" d="M942.9,1639.9c0,2.8-0.6,5.4-1.7,7.8c-1.1,2.4-2.6,4.5-4.5,6.4c-1.9,1.8-4.1,3.3-6.6,4.4
		c-2.5,1.1-5.2,1.6-8.1,1.6c-2.8,0-5.4-0.5-7.9-1.6c-2.5-1.1-4.6-2.5-6.4-4.4s-3.3-3.9-4.4-6.4c-1.1-2.4-1.6-5-1.6-7.8
		c0-2.9,0.5-5.5,1.6-8.1c1.1-2.5,2.5-4.7,4.4-6.5c1.8-1.8,4-3.3,6.4-4.4c2.5-1.1,5.1-1.6,7.9-1.6c2.9,0,5.5,0.5,8.1,1.6
		c2.5,1.1,4.7,2.5,6.6,4.4c1.9,1.8,3.4,4,4.5,6.5C942.3,1634.4,942.9,1637.1,942.9,1639.9z M938.1,1678.8v133.4H906v-133.4H938.1z"
		/>
	<path class="st2" d="M1029.5,1676.7c8.4,0,16.1,1.3,23.2,4c7.1,2.7,13.2,6.6,18.3,11.8c5.1,5.2,9.1,11.5,12,19
		c2.9,7.5,4.3,16.1,4.3,25.7c0,2.4-0.1,4.4-0.3,6c-0.2,1.6-0.6,2.9-1.2,3.8c-0.6,0.9-1.3,1.6-2.3,2c-1,0.4-2.2,0.6-3.6,0.6h-82.4
		c1,13.7,4.6,23.7,11.1,30.2c6.4,6.4,14.9,9.6,25.5,9.6c5.2,0,9.7-0.6,13.5-1.8c3.8-1.2,7.1-2.6,9.9-4c2.8-1.5,5.3-2.8,7.4-4
		c2.1-1.2,4.2-1.8,6.2-1.8c1.3,0,2.4,0.3,3.4,0.8c1,0.5,1.8,1.3,2.5,2.2l9.4,11.7c-3.6,4.2-7.5,7.7-12,10.5c-4.4,2.8-9,5.1-13.8,6.8
		c-4.8,1.7-9.7,2.9-14.7,3.6c-5,0.7-9.8,1-14.5,1c-9.3,0-17.9-1.5-25.9-4.6c-8-3.1-14.9-7.6-20.8-13.7c-5.9-6-10.5-13.5-13.9-22.4
		c-3.4-8.9-5.1-19.2-5.1-30.9c0-9.1,1.5-17.7,4.4-25.7c2.9-8,7.2-15,12.7-20.9c5.5-5.9,12.2-10.6,20.1-14.1
		C1010.5,1678.5,1019.5,1676.7,1029.5,1676.7z M1030.1,1699.7c-9.4,0-16.7,2.6-22,7.9c-5.3,5.3-8.7,12.8-10.1,22.5h60.3
		c0-4.2-0.6-8.1-1.7-11.8c-1.1-3.7-2.9-6.9-5.2-9.7c-2.3-2.8-5.3-5-8.8-6.6C1039,1700.5,1034.9,1699.7,1030.1,1699.7z"/>
	<path class="st2" d="M1113.3,1812.2v-133.4h18.8c3.3,0,5.6,0.6,6.9,1.8c1.3,1.2,2.2,3.3,2.6,6.2l2,16.1
		c4.8-8.2,10.4-14.7,16.8-19.5c6.4-4.8,13.6-7.2,21.6-7.2c6.6,0,12,1.5,16.4,4.6l-4.2,24c-0.3,1.6-0.8,2.7-1.7,3.3
		c-0.9,0.7-2,1-3.5,1c-1.3,0-3.1-0.3-5.3-0.9c-2.3-0.6-5.2-0.9-9-0.9c-6.7,0-12.4,1.8-17.2,5.5c-4.8,3.7-8.8,9.1-12.1,16.2v83.1
		H1113.3z"/>
	<path class="st2" d="M1298.7,1704.8c-0.9,1.4-1.8,2.4-2.7,2.9c-1,0.6-2.2,0.8-3.6,0.8c-1.6,0-3.2-0.4-5-1.3
		c-1.8-0.9-3.8-1.8-6.2-2.9c-2.3-1.1-5-2.1-8-2.9c-3-0.9-6.5-1.3-10.6-1.3c-6.3,0-11.3,1.3-14.9,4c-3.6,2.7-5.5,6.2-5.5,10.5
		c0,2.9,0.9,5.3,2.8,7.2c1.9,2,4.3,3.7,7.4,5.1c3.1,1.5,6.6,2.8,10.5,4c3.9,1.2,7.9,2.5,12,3.8c4.1,1.4,8.1,3,12,4.7
		c3.9,1.8,7.4,4,10.5,6.8c3.1,2.7,5.5,6,7.4,9.8c1.9,3.8,2.8,8.4,2.8,13.8c0,6.4-1.2,12.3-3.5,17.7c-2.3,5.4-5.8,10.1-10.3,14
		c-4.5,3.9-10.1,7-16.7,9.2c-6.6,2.2-14.2,3.3-22.8,3.3c-4.6,0-9.1-0.4-13.5-1.2c-4.4-0.8-8.6-2-12.6-3.4c-4-1.5-7.8-3.2-11.2-5.2
		c-3.4-2-6.4-4.2-9-6.5l7.4-12.2c1-1.5,2.1-2.6,3.4-3.4s2.9-1.2,4.9-1.2c2,0,3.9,0.6,5.7,1.7c1.8,1.1,3.8,2.3,6.2,3.6
		s5.1,2.5,8.3,3.6c3.2,1.1,7.2,1.7,12,1.7c3.8,0,7.1-0.5,9.8-1.4s5-2.1,6.8-3.6c1.8-1.5,3.1-3.2,3.9-5.1c0.8-2,1.2-4,1.2-6
		c0-3.1-0.9-5.7-2.8-7.7c-1.9-2-4.3-3.7-7.4-5.2c-3.1-1.5-6.6-2.8-10.5-4c-3.9-1.2-8-2.4-12.1-3.8c-4.1-1.4-8.1-3-12.1-4.9
		c-3.9-1.9-7.5-4.2-10.5-7.1s-5.5-6.4-7.4-10.5s-2.8-9.2-2.8-15.1c0-5.5,1.1-10.7,3.2-15.6c2.2-4.9,5.4-9.2,9.6-12.9
		c4.2-3.7,9.4-6.6,15.7-8.8c6.3-2.2,13.5-3.3,21.8-3.3c9.2,0,17.6,1.5,25.1,4.5c7.5,3,13.8,7,18.8,12L1298.7,1704.8z"/>
</g>
<path class="st3" d="M1233,815.5c-15.2,0-32.4,0-50.7,2.6c60.6,43.9,103,101.9,103,180.3v130.7h313.6V998.4
	C1598.9,876.7,1354.8,815.5,1233,815.5 M815,815.5c-121.8,0-365.8,61.1-365.8,182.9v130.7h731.7V998.4
	C1180.8,876.7,936.7,815.5,815,815.5 M815,711c86.6,0,156.8-70.2,156.8-156.8S901.5,397.4,815,397.4s-156.8,70.2-156.8,156.8
	S728.4,711,815,711 M1233,711c86.6,0,156.8-70.2,156.8-156.8s-70.2-156.8-156.8-156.8c-86.6,0-156.8,70.2-156.8,156.8
	S1146.5,711,1233,711z"/>
</svg>
