<?xml version="1.0" encoding="utf-8"?>
<!-- Generator: Adobe Illustrator 22.0.1, SVG Export Plug-In . SVG Version: 6.00 Build 0)  -->
<svg version="1.1" id="Calque_1" xmlns="http://www.w3.org/2000/svg" xmlns:xlink="http://www.w3.org/1999/xlink" x="0px" y="0px"
	 viewBox="0 0 1040.7 731.7" style="enable-background:new 0 0 1040.7 731.7;" xml:space="preserve">
<style type="text/css">
	.st0{fill:#333333;}
</style>
<path class="st0" d="M708.4,412.9c-13.7,0-29.2,0-45.6,2.3c54.5,39.5,92.7,91.7,92.7,162.3v117.6h282.2V577.5
	C1037.7,468,818,412.9,708.4,412.9 M332.2,412.9C222.6,412.9,3,467.9,3,577.5v117.6h658.5V577.5C661.4,468,441.7,412.9,332.2,412.9
	 M332.2,318.8c77.9,0,141.1-63.2,141.1-141.1S410.1,36.6,332.2,36.6S191.1,99.8,191.1,177.7S254.3,318.8,332.2,318.8 M708.4,318.8
	c77.9,0,141.1-63.2,141.1-141.1S786.3,36.6,708.4,36.6c-77.9,0-141.1,63.2-141.1,141.1S630.6,318.8,708.4,318.8z"/>
</svg>
