<?xml version="1.0" encoding="utf-8"?>
<!-- Generator: Adobe Illustrator 21.1.0, SVG Export Plug-In . SVG Version: 6.00 Build 0)  -->
<svg version="1.1" id="Calque_1" xmlns="http://www.w3.org/2000/svg" xmlns:xlink="http://www.w3.org/1999/xlink" x="0px" y="0px"
	 viewBox="0 0 1000 1000" style="enable-background:new 0 0 1000 1000;" xml:space="preserve">
<style type="text/css">
	.st0{fill:#688ED8;stroke:#000000;stroke-miterlimit:10;}
	.st1{fill:#FFFFFF;}
</style>
<rect class="st0" width="1000" height="1000"/>
<path class="st1" d="M271.2,761.3c0-8.6-3.1-16.1-9.5-22.5s-13.9-9.5-22.5-9.5s-16.1,3.1-22.5,9.5s-9.5,13.9-9.5,22.5
	s3.1,16.1,9.5,22.5s13.9,9.5,22.5,9.5s16.1-3.1,22.5-9.5C268,777.5,271.2,770,271.2,761.3z M593.3,551.3L252.2,892.4
	c-12.4,12.4-27.4,18.5-45,18.5c-17.4,0-32.5-6.1-45.5-18.5l-53-54c-12.6-12-19-27-19-45c0-17.6,6.4-32.9,19-45.5l340.6-340.6
	c13,32.7,32.1,61.6,57.2,86.8C531.7,519.2,560.6,538.3,593.3,551.3z M910.4,333.7c0,13-3.9,30.7-11.5,53
	c-15.6,44.7-43.1,81-82.3,108.8c-39.2,27.9-82.3,41.7-129.3,41.7c-61.7,0-114.5-21.9-158.3-65.7s-65.7-96.6-65.7-158.3
	s21.9-114.5,65.7-158.3s96.6-65.8,158.3-65.8c19.4,0,39.6,2.8,60.7,8.3c21.1,5.5,39.1,13.3,53.7,23.3c5.4,3.6,8,8.4,8,14
	s-2.6,10.4-8,14l-146.5,84.5v112l96.5,53.5c1.6-1,14.9-9.1,39.5-24.3s47.3-28.7,67.7-40.5c20.5-11.9,32.3-17.7,35.2-17.7
	c5,0,8.9,1.6,11.8,5C908.9,324.6,910.4,328.7,910.4,333.7z"/>
</svg>
