<?xml version="1.0" encoding="utf-8"?>
<!-- Generator: Adobe Illustrator 23.0.2, SVG Export Plug-In . SVG Version: 6.00 Build 0)  -->
<svg version="1.1" id="Calque_1" xmlns="http://www.w3.org/2000/svg" xmlns:xlink="http://www.w3.org/1999/xlink" x="0px" y="0px"
	 viewBox="0 0 445 313" style="enable-background:new 0 0 445 313;" xml:space="preserve">
<style type="text/css">
	.st0{clip-path:url(#SVGID_2_);fill:#C3E0C6;}
	.st1{clip-path:url(#SVGID_4_);fill:#C3E0C6;}
</style>
<g>
	<g>
		<g>
			<defs>
				<rect id="SVGID_1_" x="54" width="391" height="313"/>
			</defs>
			<clipPath id="SVGID_2_">
				<use xlink:href="#SVGID_1_"  style="overflow:visible;"/>
			</clipPath>
			<path class="st0" d="M331.7999878,249.1000061C295.1000061,219,255.5,199,247.5,195c-0.8999939-0.5-1.5-1.3999939-1.5-2.3999939
				V135.5c7.1999969-4.8000031,11.8999939-13,11.8999939-22.1999969V53.9000015C257.8999939,24.4000015,234,0.5,204.5,0.5
				h-12.8000031c-29.5,0-53.4000092,23.8999996-53.4000092,53.4000015v59.2999954
				c0,9.3000031,4.7000122,17.3999939,11.9000092,22.1999969v57.1999969c0,1-0.5999908,1.8999939-1.5,2.3999939
				C140.6000061,198.8999786,101,218.8999786,64.3999939,249.1999817C57.7999992,254.6000061,54,262.7999878,54,271.3999939V312
				h288.2000122v-40.6000061C342.2000122,262.7000122,338.5,254.6000061,331.7999878,249.1000061L331.7999878,249.1000061z"/>
		</g>
		<g>
			<defs>
				<rect id="SVGID_3_" x="54" width="391" height="313"/>
			</defs>
			<clipPath id="SVGID_4_">
				<use xlink:href="#SVGID_3_"  style="overflow:visible;"/>
			</clipPath>
			<path class="st1" d="M421.3999939,24.2000008c-31.6000061-31.6000004-82.8000183-31.6000004-114.3000183,0
				c-30.3999634,30.3999977-31.5,79-3.3999634,110.6999969L304.5,135.5c-3,6.6000061-8.2999878,14.6999969-16.6000061,18.8000031
				c-2.6999817,1.3999939-2.1000061,5.3999939,0.8999939,5.8999939C297.8999939,161.5999908,311,160,323.1999817,150.8000031
				L323.3999939,151c31,18.1999969,71.5,14,98.1000061-12.6000061C452.8999939,107,452.8999939,55.7999992,421.3999939,24.2000008
				L421.3999939,24.2000008z M367.6000061,31.3999996c7.2999878,0,13,6.0000019,13,13.3999996
				C380.5,52.0999985,374.7000122,58,367.6000061,58c-7.3999939-0.0999985-13.2999878-6.0999985-13.2000122-13.4000015
				C354.3999939,37.2999992,360.2999878,31.3999996,367.6000061,31.3999996L367.6000061,31.3999996z M386.2999878,120.3000031
				c-0.2999878,1.0999985-1,2.3000031-1.7999878,3.0999985c-4.7999878,4.7999954-10.5,7.7999954-17.3999939,7.7999954
				c-3.2000122,0.1000061-6.3999939-0.1000061-9.6000061-0.6000061c-5.2999878-0.6999969-12-7.3000031-11-14.1999969
				c0.6000061-4.6999969,1.3999939-9.5,2.2000122-14.1999969C350.1000061,94,351.6000061,85.6999969,353,77.5
				c0.1000061-0.5,0.2000122-1,0.2000122-1.5999985c0-3.4000015-1.1000061-4.5999985-4.5-5.0999985
				c-1.3999939-0.1999969-3-0.3000031-4.2999878-0.8000031c-1.7000122-0.5999985-2.5-1.9000015-2.2999878-3.3000031
				s1-2.3000031,3-2.7000008c1-0.2000008,2-0.2000008,3-0.2000008h24.8999939c3,0,5,1.4000015,5,4.5999985
				c0.1000061,2.5999985-0.3999939,5.0999985-0.7999878,7.6999969c-1.7000122,9.4000015-3.3999939,18.8000031-5.1000061,28.1999969
				c-0.6000061,3.0999985-1.2000122,6.1999969-1.6000061,9.4000015c-0.2000122,1.5,0,3.0999985,0.3999939,4.5999985
				c0.5,2,2,3,4,2.8000031c1.7000122-0.1999969,3.3999939-0.8000031,4.8999939-1.4000015
				c1.2999878-0.5,2.3999939-1.4000015,3.7000122-1.9000015C385.2000122,117,386.7999878,118.3000031,386.2999878,120.3000031
				L386.2999878,120.3000031z"/>
		</g>
	</g>
</g>
</svg>
