<?xml version="1.0" encoding="utf-8"?>
<!-- Generator: Adobe Illustrator 24.3.0, SVG Export Plug-In . SVG Version: 6.00 Build 0)  -->
<svg version="1.1" id="Calque_1" xmlns="http://www.w3.org/2000/svg" xmlns:xlink="http://www.w3.org/1999/xlink" x="0px" y="0px"
	 viewBox="0 0 1000 1000" style="enable-background:new 0 0 1000 1000;" xml:space="preserve">
<style type="text/css">
	.st0{fill:#333333;}
</style>
<path class="st0" d="M1000,500c0,9.5-3.9,18.4-10.6,25.1L846.5,668c-6.7,6.7-15.6,10.6-25.1,10.6c-19.5,0-35.7-16.2-35.7-35.7v-71.5
	H214.3v71.5c0,19.5-16.2,35.7-35.7,35.7c-9.5,0-18.4-3.9-25.1-10.6L10.6,525.1C3.9,518.4,0,509.5,0,500s3.9-18.4,10.6-25.1
	L153.5,332c6.7-6.7,15.6-10.6,25.1-10.6c19.5,0,35.7,16.2,35.7,35.7v71.5h571.4v-71.5c0-19.5,16.2-35.7,35.7-35.7
	c9.5,0,18.4,3.9,25.1,10.6l142.9,142.9C996.1,481.6,1000,490.5,1000,500L1000,500z"/>
</svg>
