<?xml version="1.0" encoding="utf-8"?>
<!-- Generator: Adobe Illustrator 26.0.2, SVG Export Plug-In . SVG Version: 6.00 Build 0)  -->
<svg version="1.1" id="Calque_1" xmlns="http://www.w3.org/2000/svg" xmlns:xlink="http://www.w3.org/1999/xlink" x="0px" y="0px"
	 viewBox="0 0 1674 292" style="enable-background:new 0 0 1674 292;" xml:space="preserve">
<style type="text/css">
	.st0{fill:url(#SVGID_1_);}
	.st1{fill:url(#SVGID_00000077306917882182198250000014786077311419863740_);}
	.st2{fill:#FFFFFF;}
	.st3{fill:#333333;}
</style>
<g>
	
		<linearGradient id="SVGID_1_" gradientUnits="userSpaceOnUse" x1="3150.9883" y1="1686.1575" x2="3150.9883" y2="1394.1575" gradientTransform="matrix(-1 0 0 1 3988 -1394.1575)">
		<stop  offset="0" style="stop-color:#BBBBBB"/>
		<stop  offset="1" style="stop-color:#DCDCDC"/>
	</linearGradient>
	<path class="st0" d="M25,282c-8,0-15-7-15-15V25c0-8,7-15,15-15h1624.1c8,0,15,7,15,15v242c0,8-7,15-15,15H25z M1649,292
		c14,0,25-11,25-25V25c0-14-11-25-25-25H25C11,0,0,11,0,25v242c0,14,11,25,25,25H1649z"/>
</g>
<linearGradient id="SVGID_00000079444895047794422450000005550531612248003505_" gradientUnits="userSpaceOnUse" x1="3150.9382" y1="-811.8425" x2="3150.9382" y2="-539.8425" gradientTransform="matrix(-1 0 0 -1 3988 -529.8425)">
	<stop  offset="0" style="stop-color:#E8E8E8"/>
	<stop  offset="1" style="stop-color:#F9F9F9"/>
</linearGradient>
<path style="fill:url(#SVGID_00000079444895047794422450000005550531612248003505_);" d="M25,282c-8,0-15-7-15-15V25c0-8,7-15,15-15
	h1624.1c8,0,15,7,15,15v242c0,8-7,15-15,15H25z"/>
<path class="st2" d="M213.9,147.6v16.7c0,4.6-3.7,8.4-8.4,8.4h-36.2V209c0,4.6-3.7,8.4-8.4,8.4h-16.7c-4.6,0-8.4-3.7-8.4-8.4v-36.2
	H99.6c-4.6,0-8.4-3.7-8.4-8.4v-16.8c0-4.6,3.7-8.4,8.4-8.4h36.2V103c0-4.6,3.7-8.4,8.4-8.4H161c4.6,0,8.4,3.7,8.4,8.4v36.2h36.2
	C210.2,139.3,213.9,143,213.9,147.6z"/>
<path class="st3" d="M203.9,137.6v16.7c0,4.6-3.7,8.4-8.4,8.4h-36.2V199c0,4.6-3.7,8.4-8.4,8.4h-16.7c-4.6,0-8.4-3.7-8.4-8.4v-36.2
	H89.6c-4.6,0-8.4-3.7-8.4-8.4v-16.8c0-4.6,3.7-8.4,8.4-8.4h36.2V93c0-4.6,3.7-8.4,8.4-8.4H151c4.6,0,8.4,3.7,8.4,8.4v36.2h36.2
	C200.2,129.3,203.9,133,203.9,137.6z"/>
<g>
	<path class="st2" d="M347.1,102.4v15h-44.9v28.1h35.4v14.5h-35.4v28.6h44.9v15h-63.8V102.4H347.1z"/>
	<path class="st2" d="M362.5,203.6v-71.8H373c2.2,0,3.7,1,4.4,3.1l1.2,5.7c1.4-1.5,3-2.8,4.6-4.1c1.6-1.2,3.3-2.3,5.1-3.1
		c1.8-0.9,3.7-1.6,5.8-2c2.1-0.5,4.3-0.7,6.7-0.7c3.9,0,7.4,0.7,10.4,2c3,1.3,5.6,3.2,7.6,5.6c2,2.4,3.6,5.3,4.6,8.6
		c1,3.3,1.6,7,1.6,11v45.7h-17.3v-45.7c0-4.4-1-7.8-3-10.2c-2-2.4-5.1-3.6-9.1-3.6c-3,0-5.8,0.7-8.4,2c-2.6,1.4-5.1,3.2-7.4,5.5
		v51.9H362.5z"/>
	<path class="st2" d="M442.1,203.6v-71.8h10.1c1.8,0,3,0.3,3.7,1c0.7,0.7,1.2,1.8,1.4,3.4l1,8.7c2.6-4.4,5.6-7.9,9-10.5
		c3.5-2.6,7.3-3.9,11.6-3.9c3.5,0,6.5,0.8,8.8,2.4l-2.2,13c-0.1,0.8-0.4,1.4-0.9,1.8c-0.5,0.3-1.1,0.5-1.9,0.5
		c-0.7,0-1.7-0.2-2.9-0.5c-1.2-0.3-2.8-0.5-4.8-0.5c-3.6,0-6.7,1-9.2,3c-2.6,2-4.7,4.9-6.5,8.7v44.7H442.1z"/>
	<path class="st2" d="M528.9,130.7c4.5,0,8.7,0.7,12.5,2.2c3.8,1.4,7.1,3.6,9.8,6.3c2.8,2.8,4.9,6.2,6.4,10.2
		c1.5,4,2.3,8.6,2.3,13.8c0,1.3-0.1,2.4-0.2,3.3c-0.1,0.9-0.3,1.5-0.6,2c-0.3,0.5-0.7,0.8-1.2,1c-0.5,0.2-1.2,0.3-2,0.3h-44.4
		c0.5,7.4,2.5,12.8,6,16.2c3.5,3.5,8,5.2,13.7,5.2c2.8,0,5.2-0.3,7.2-1c2-0.7,3.8-1.4,5.3-2.2c1.5-0.8,2.8-1.5,4-2.2
		c1.1-0.7,2.3-1,3.3-1c0.7,0,1.3,0.1,1.8,0.4c0.5,0.3,1,0.7,1.3,1.2l5,6.3c-1.9,2.2-4.1,4.1-6.4,5.6c-2.4,1.5-4.9,2.7-7.5,3.6
		c-2.6,0.9-5.2,1.6-7.9,1.9c-2.7,0.4-5.3,0.6-7.8,0.6c-5,0-9.6-0.8-13.9-2.5c-4.3-1.7-8-4.1-11.2-7.4c-3.2-3.2-5.7-7.3-7.5-12
		c-1.8-4.8-2.7-10.3-2.7-16.6c0-4.9,0.8-9.5,2.4-13.8c1.6-4.3,3.9-8.1,6.8-11.3c3-3.2,6.6-5.7,10.8-7.6
		C518.7,131.6,523.6,130.7,528.9,130.7z M529.3,143.1c-5,0-9,1.4-11.8,4.3c-2.8,2.8-4.7,6.9-5.5,12.1h32.5c0-2.2-0.3-4.4-0.9-6.3
		c-0.6-2-1.5-3.7-2.8-5.2c-1.3-1.5-2.8-2.7-4.8-3.5C534.1,143.5,531.8,143.1,529.3,143.1z"/>
	<path class="st2" d="M598.9,130.5c3.1,0,6,0.3,8.7,0.9c2.7,0.6,5.2,1.6,7.4,2.8h20.6v6.4c0,1.1-0.3,1.9-0.8,2.5
		c-0.6,0.6-1.5,1-2.9,1.3l-6.4,1.2c0.5,1.2,0.8,2.5,1.1,3.9c0.3,1.4,0.4,2.8,0.4,4.3c0,3.5-0.7,6.8-2.1,9.6
		c-1.4,2.9-3.4,5.3-5.9,7.3c-2.5,2-5.5,3.6-8.9,4.7c-3.4,1.1-7.2,1.6-11.2,1.6c-2.7,0-5.3-0.3-7.9-0.8c-2.2,1.4-3.4,2.9-3.4,4.6
		c0,1.5,0.7,2.5,2,3.2s3.1,1.2,5.2,1.4s4.6,0.4,7.4,0.4c2.8,0,5.6,0.1,8.5,0.4c2.9,0.2,5.7,0.6,8.5,1.2c2.8,0.6,5.2,1.5,7.4,2.8
		c2.2,1.3,3.9,3,5.2,5.2c1.3,2.2,2,5,2,8.4c0,3.2-0.8,6.3-2.3,9.3c-1.6,3-3.8,5.7-6.8,8c-3,2.3-6.6,4.2-10.9,5.7
		c-4.3,1.4-9.2,2.1-14.7,2.1c-5.5,0-10.2-0.5-14.2-1.6c-4-1-7.3-2.4-10-4.2c-2.6-1.8-4.6-3.8-5.9-6.1c-1.3-2.3-2-4.7-2-7.1
		c0-3.4,1-6.2,3.1-8.5c2.1-2.3,4.9-4.1,8.5-5.5c-1.8-1-3.2-2.3-4.3-3.9c-1.1-1.6-1.6-3.8-1.6-6.4c0-1.1,0.2-2.2,0.6-3.3
		c0.4-1.1,0.9-2.3,1.7-3.4c0.8-1.1,1.7-2.2,2.9-3.2c1.2-1,2.5-1.9,4.1-2.7c-3.6-2-6.5-4.6-8.6-7.8c-2.1-3.3-3.1-7.1-3.1-11.5
		c0-3.5,0.7-6.8,2.1-9.6c1.4-2.9,3.4-5.3,6-7.4c2.5-2,5.6-3.6,9-4.7C591,131.1,594.8,130.5,598.9,130.5z M617.9,206.6
		c0-1.4-0.4-2.6-1.3-3.5c-0.8-0.9-2-1.6-3.4-2.1c-1.4-0.5-3.1-0.9-5.1-1.1c-1.9-0.2-4-0.4-6.2-0.4c-2.2,0-4.4,0-6.7,0
		s-4.5-0.3-6.7-0.8c-2,1.1-3.5,2.3-4.7,3.8c-1.2,1.5-1.8,3.2-1.8,5.1c0,1.3,0.3,2.4,0.9,3.5c0.6,1.1,1.6,2,3,2.8
		c1.4,0.8,3.2,1.4,5.4,1.9c2.2,0.4,4.9,0.7,8.1,0.7c3.2,0,6-0.3,8.3-0.8c2.3-0.5,4.3-1.2,5.8-2.1c1.5-0.9,2.6-1.9,3.3-3.1
		C617.5,209.4,617.9,208,617.9,206.6z M598.9,165.9c2.1,0,4-0.3,5.6-0.9c1.6-0.6,2.9-1.4,4-2.4c1-1,1.8-2.3,2.4-3.7
		c0.5-1.4,0.8-3,0.8-4.8c0-3.5-1.1-6.4-3.2-8.4c-2.1-2.1-5.3-3.1-9.6-3.1c-4.2,0-7.4,1-9.6,3.1c-2.1,2.1-3.2,4.9-3.2,8.4
		c0,1.7,0.3,3.2,0.8,4.7c0.5,1.4,1.3,2.7,2.4,3.7c1,1,2.4,1.9,4,2.4C595,165.6,596.8,165.9,598.9,165.9z"/>
	<path class="st2" d="M667.5,110.8c0,1.5-0.3,2.9-0.9,4.2c-0.6,1.3-1.4,2.4-2.4,3.4c-1,1-2.2,1.8-3.5,2.3c-1.4,0.6-2.8,0.9-4.3,0.9
		c-1.5,0-2.9-0.3-4.2-0.9c-1.3-0.6-2.5-1.4-3.5-2.3s-1.8-2.1-2.3-3.4c-0.6-1.3-0.9-2.7-0.9-4.2c0-1.5,0.3-3,0.9-4.3
		c0.6-1.4,1.4-2.5,2.3-3.5s2.1-1.8,3.5-2.3c1.3-0.6,2.7-0.9,4.2-0.9c1.5,0,3,0.3,4.3,0.9c1.4,0.6,2.5,1.4,3.5,2.3
		c1,1,1.8,2.1,2.4,3.5C667.2,107.9,667.5,109.3,667.5,110.8z M664.9,131.8v71.8h-17.3v-71.8H664.9z"/>
	<path class="st2" d="M727.1,145.8c-0.5,0.7-1,1.3-1.5,1.6c-0.5,0.3-1.2,0.5-2,0.5c-0.8,0-1.7-0.2-2.7-0.7c-1-0.5-2.1-1-3.3-1.6
		c-1.3-0.6-2.7-1.1-4.3-1.6c-1.6-0.5-3.5-0.7-5.7-0.7c-3.4,0-6.1,0.7-8.1,2.2c-2,1.4-2.9,3.3-2.9,5.7c0,1.5,0.5,2.8,1.5,3.9
		c1,1.1,2.3,2,4,2.8c1.7,0.8,3.5,1.5,5.6,2.1c2.1,0.6,4.2,1.3,6.4,2.1c2.2,0.7,4.3,1.6,6.4,2.6c2.1,1,4,2.2,5.6,3.6
		c1.7,1.5,3,3.2,4,5.3c1,2.1,1.5,4.5,1.5,7.4c0,3.5-0.6,6.6-1.9,9.6c-1.3,2.9-3.1,5.4-5.5,7.6c-2.4,2.1-5.4,3.8-9,5
		s-7.7,1.8-12.3,1.8c-2.5,0-4.9-0.2-7.2-0.7c-2.4-0.4-4.6-1.1-6.8-1.9c-2.2-0.8-4.2-1.7-6-2.8c-1.8-1.1-3.5-2.2-4.9-3.5l4-6.6
		c0.5-0.8,1.1-1.4,1.8-1.8s1.6-0.6,2.7-0.6c1.1,0,2.1,0.3,3,0.9c1,0.6,2.1,1.3,3.3,2c1.3,0.7,2.7,1.4,4.4,2c1.7,0.6,3.9,0.9,6.5,0.9
		c2.1,0,3.8-0.2,5.3-0.7c1.5-0.5,2.7-1.1,3.6-1.9c1-0.8,1.7-1.7,2.1-2.8c0.4-1,0.7-2.1,0.7-3.3c0-1.7-0.5-3.1-1.5-4.1
		c-1-1.1-2.3-2-4-2.8c-1.7-0.8-3.5-1.5-5.7-2.1c-2.1-0.6-4.3-1.3-6.5-2.1c-2.2-0.7-4.4-1.6-6.5-2.6c-2.1-1-4-2.3-5.7-3.8
		c-1.7-1.5-3-3.4-4-5.7c-1-2.2-1.5-4.9-1.5-8.1c0-2.9,0.6-5.7,1.8-8.4c1.2-2.7,2.9-5,5.1-7c2.3-2,5.1-3.6,8.5-4.8
		c3.4-1.2,7.3-1.8,11.7-1.8c4.9,0,9.5,0.8,13.5,2.4c4.1,1.6,7.4,3.8,10.1,6.4L727.1,145.8z"/>
	<path class="st2" d="M769.2,204.7c-6.2,0-11-1.8-14.4-5.3c-3.4-3.5-5-8.4-5-14.6v-40.1h-7.3c-0.9,0-1.7-0.3-2.4-0.9
		c-0.7-0.6-1-1.5-1-2.7v-6.9l11.5-1.9l3.6-19.6c0.2-0.9,0.6-1.7,1.3-2.2c0.7-0.5,1.5-0.8,2.6-0.8h9v22.6H786v12.3h-18.9v38.9
		c0,2.2,0.6,4,1.7,5.2c1.1,1.3,2.6,1.9,4.5,1.9c1.1,0,2-0.1,2.7-0.4c0.7-0.3,1.4-0.5,1.9-0.8c0.5-0.3,1-0.5,1.4-0.8
		c0.4-0.3,0.8-0.4,1.3-0.4c0.5,0,0.9,0.1,1.3,0.4c0.3,0.3,0.7,0.6,1,1.2l5.2,8.4c-2.5,2.1-5.4,3.7-8.7,4.8
		C776.1,204.2,772.7,204.7,769.2,204.7z"/>
	<path class="st2" d="M799.8,203.6v-71.8H810c1.8,0,3,0.3,3.7,1c0.7,0.7,1.2,1.8,1.4,3.4l1,8.7c2.6-4.4,5.6-7.9,9-10.5
		c3.5-2.6,7.3-3.9,11.6-3.9c3.5,0,6.5,0.8,8.8,2.4l-2.2,13c-0.1,0.8-0.4,1.4-0.9,1.8c-0.5,0.3-1.1,0.5-1.9,0.5
		c-0.7,0-1.7-0.2-2.9-0.5c-1.2-0.3-2.8-0.5-4.8-0.5c-3.6,0-6.7,1-9.2,3c-2.6,2-4.7,4.9-6.5,8.7v44.7H799.8z"/>
	<path class="st2" d="M886.7,130.7c4.5,0,8.7,0.7,12.5,2.2c3.8,1.4,7.1,3.6,9.8,6.3c2.8,2.8,4.9,6.2,6.4,10.2
		c1.5,4,2.3,8.6,2.3,13.8c0,1.3-0.1,2.4-0.2,3.3c-0.1,0.9-0.3,1.5-0.6,2c-0.3,0.5-0.7,0.8-1.2,1c-0.5,0.2-1.2,0.3-2,0.3h-44.4
		c0.5,7.4,2.5,12.8,6,16.2c3.5,3.5,8,5.2,13.7,5.2c2.8,0,5.2-0.3,7.2-1c2-0.7,3.8-1.4,5.3-2.2c1.5-0.8,2.8-1.5,4-2.2
		c1.1-0.7,2.3-1,3.3-1c0.7,0,1.3,0.1,1.8,0.4c0.5,0.3,1,0.7,1.3,1.2l5,6.3c-1.9,2.2-4.1,4.1-6.4,5.6c-2.4,1.5-4.9,2.7-7.5,3.6
		c-2.6,0.9-5.2,1.6-7.9,1.9c-2.7,0.4-5.3,0.6-7.8,0.6c-5,0-9.6-0.8-13.9-2.5c-4.3-1.7-8-4.1-11.2-7.4c-3.2-3.2-5.7-7.3-7.5-12
		c-1.8-4.8-2.7-10.3-2.7-16.6c0-4.9,0.8-9.5,2.4-13.8c1.6-4.3,3.9-8.1,6.8-11.3c3-3.2,6.6-5.7,10.8-7.6
		C876.5,131.6,881.3,130.7,886.7,130.7z M887,143.1c-5,0-9,1.4-11.8,4.3c-2.8,2.8-4.7,6.9-5.5,12.1h32.5c0-2.2-0.3-4.4-0.9-6.3
		c-0.6-2-1.5-3.7-2.8-5.2c-1.3-1.5-2.8-2.7-4.8-3.5C891.8,143.5,889.6,143.1,887,143.1z"/>
	<path class="st2" d="M931.8,203.6v-71.8H942c1.8,0,3,0.3,3.7,1c0.7,0.7,1.2,1.8,1.4,3.4l1,8.7c2.6-4.4,5.6-7.9,9-10.5
		c3.5-2.6,7.3-3.9,11.6-3.9c3.5,0,6.5,0.8,8.8,2.4l-2.2,13c-0.1,0.8-0.4,1.4-0.9,1.8c-0.5,0.3-1.1,0.5-1.9,0.5
		c-0.7,0-1.7-0.2-2.9-0.5c-1.2-0.3-2.8-0.5-4.8-0.5c-3.6,0-6.7,1-9.2,3c-2.6,2-4.7,4.9-6.5,8.7v44.7H931.8z"/>
	<path class="st2" d="M1031.9,131.8v45.6c0,4.4,1,7.8,3,10.2c2,2.4,5.1,3.6,9.1,3.6c3,0,5.8-0.7,8.4-2c2.6-1.3,5.1-3.2,7.4-5.5
		v-51.9h17.3v71.8h-10.6c-2.2,0-3.7-1-4.4-3.1l-1.2-5.7c-1.5,1.5-3,2.9-4.6,4.1c-1.6,1.2-3.3,2.3-5.1,3.1c-1.8,0.9-3.7,1.5-5.8,2
		c-2.1,0.5-4.3,0.7-6.7,0.7c-3.9,0-7.4-0.7-10.4-2c-3-1.3-5.5-3.2-7.6-5.6c-2.1-2.4-3.6-5.3-4.7-8.6c-1-3.3-1.6-7-1.6-11v-45.6
		H1031.9z"/>
	<path class="st2" d="M1095.6,203.6v-71.8h10.6c2.2,0,3.7,1,4.4,3.1l1.2,5.7c1.4-1.5,3-2.8,4.6-4.1c1.6-1.2,3.3-2.3,5.1-3.1
		c1.8-0.9,3.7-1.6,5.8-2c2.1-0.5,4.3-0.7,6.7-0.7c3.9,0,7.4,0.7,10.4,2c3,1.3,5.6,3.2,7.6,5.6c2,2.4,3.6,5.3,4.6,8.6
		c1,3.3,1.6,7,1.6,11v45.7h-17.3v-45.7c0-4.4-1-7.8-3-10.2c-2-2.4-5.1-3.6-9.1-3.6c-3,0-5.8,0.7-8.4,2c-2.6,1.4-5.1,3.2-7.4,5.5
		v51.9H1095.6z"/>
	<path class="st2" d="M1244.9,145.8c-0.5,0.7-1,1.3-1.5,1.6c-0.5,0.3-1.2,0.5-2,0.5c-0.8,0-1.7-0.2-2.7-0.7c-1-0.5-2.1-1-3.3-1.6
		c-1.3-0.6-2.7-1.1-4.3-1.6c-1.6-0.5-3.5-0.7-5.7-0.7c-3.4,0-6.1,0.7-8,2.2c-2,1.4-2.9,3.3-2.9,5.7c0,1.5,0.5,2.8,1.5,3.9
		c1,1.1,2.3,2,4,2.8c1.7,0.8,3.5,1.5,5.6,2.1c2.1,0.6,4.2,1.3,6.4,2.1c2.2,0.7,4.3,1.6,6.4,2.6c2.1,1,4,2.2,5.6,3.6
		c1.7,1.5,3,3.2,4,5.3c1,2.1,1.5,4.5,1.5,7.4c0,3.5-0.6,6.6-1.9,9.6c-1.3,2.9-3.1,5.4-5.5,7.6c-2.4,2.1-5.4,3.8-9,5
		c-3.6,1.2-7.7,1.8-12.3,1.8c-2.5,0-4.9-0.2-7.2-0.7c-2.4-0.4-4.6-1.1-6.8-1.9c-2.2-0.8-4.2-1.7-6-2.8c-1.8-1.1-3.5-2.2-4.9-3.5
		l4-6.6c0.5-0.8,1.1-1.4,1.8-1.8s1.6-0.6,2.7-0.6c1.1,0,2.1,0.3,3,0.9c1,0.6,2.1,1.3,3.3,2c1.3,0.7,2.7,1.4,4.4,2
		c1.7,0.6,3.9,0.9,6.5,0.9c2.1,0,3.8-0.2,5.3-0.7c1.5-0.5,2.7-1.1,3.6-1.9c1-0.8,1.7-1.7,2.1-2.8s0.7-2.1,0.7-3.3
		c0-1.7-0.5-3.1-1.5-4.1c-1-1.1-2.3-2-4-2.8c-1.7-0.8-3.5-1.5-5.7-2.1c-2.1-0.6-4.3-1.3-6.5-2.1c-2.2-0.7-4.4-1.6-6.5-2.6
		c-2.1-1-4-2.3-5.7-3.8c-1.7-1.5-3-3.4-4-5.7c-1-2.2-1.5-4.9-1.5-8.1c0-2.9,0.6-5.7,1.8-8.4c1.2-2.7,2.9-5,5.1-7
		c2.3-2,5.1-3.6,8.5-4.8c3.4-1.2,7.3-1.8,11.7-1.8c4.9,0,9.5,0.8,13.5,2.4c4.1,1.6,7.4,3.8,10.2,6.4L1244.9,145.8z"/>
	<path class="st2" d="M1319.7,203.6h-7.8c-1.6,0-2.9-0.2-3.8-0.7c-0.9-0.5-1.6-1.5-2.1-3l-1.5-5.1c-1.8,1.6-3.6,3.1-5.4,4.3
		c-1.8,1.2-3.6,2.3-5.4,3.1c-1.9,0.8-3.9,1.5-6,1.9c-2.1,0.4-4.4,0.6-7,0.6c-3,0-5.8-0.4-8.4-1.2c-2.6-0.8-4.8-2-6.6-3.7
		c-1.8-1.6-3.3-3.7-4.3-6.1c-1-2.4-1.5-5.3-1.5-8.5c0-2.7,0.7-5.4,2.1-8c1.4-2.6,3.8-5,7.1-7.2c3.3-2.1,7.7-3.9,13.2-5.3
		c5.5-1.4,12.3-2.1,20.5-2.1v-4.2c0-4.8-1-8.4-3-10.8c-2-2.3-5-3.5-8.9-3.5c-2.8,0-5.1,0.3-7,1c-1.9,0.7-3.5,1.4-4.9,2.2
		c-1.4,0.8-2.6,1.6-3.8,2.2c-1.2,0.7-2.5,1-3.9,1c-1.2,0-2.2-0.3-3-0.9c-0.8-0.6-1.5-1.4-2-2.2l-3.1-5.5
		c8.3-7.6,18.2-11.3,29.9-11.3c4.2,0,7.9,0.7,11.2,2.1c3.3,1.4,6.1,3.3,8.4,5.7c2.3,2.5,4,5.4,5.2,8.8c1.2,3.4,1.8,7.1,1.8,11.2
		V203.6z M1286.1,192.8c1.8,0,3.4-0.2,4.9-0.5c1.5-0.3,2.9-0.8,4.2-1.4s2.6-1.4,3.9-2.4c1.2-0.9,2.5-2.1,3.7-3.3v-12
		c-5,0-9.3,0.3-12.6,1s-6.1,1.4-8.2,2.4c-2.1,1-3.5,2.1-4.4,3.5c-0.9,1.3-1.3,2.7-1.3,4.3c0,3.1,0.9,5.2,2.7,6.6
		C1280.9,192.2,1283.2,192.8,1286.1,192.8z"/>
	<path class="st2" d="M1355.1,99.6v104h-17.3v-104H1355.1z"/>
	<path class="st2" d="M1430.9,203.6h-7.8c-1.6,0-2.9-0.2-3.8-0.7c-0.9-0.5-1.6-1.5-2.1-3l-1.5-5.1c-1.8,1.6-3.6,3.1-5.4,4.3
		c-1.8,1.2-3.6,2.3-5.4,3.1c-1.9,0.8-3.9,1.5-6,1.9c-2.1,0.4-4.4,0.6-7,0.6c-3,0-5.8-0.4-8.4-1.2c-2.6-0.8-4.8-2-6.6-3.7
		c-1.8-1.6-3.3-3.7-4.3-6.1c-1-2.4-1.5-5.3-1.5-8.5c0-2.7,0.7-5.4,2.1-8c1.4-2.6,3.8-5,7.1-7.2c3.3-2.1,7.7-3.9,13.2-5.3
		c5.5-1.4,12.3-2.1,20.5-2.1v-4.2c0-4.8-1-8.4-3-10.8c-2-2.3-5-3.5-8.9-3.5c-2.8,0-5.1,0.3-7,1c-1.9,0.7-3.5,1.4-4.9,2.2
		c-1.4,0.8-2.6,1.6-3.8,2.2c-1.2,0.7-2.5,1-3.9,1c-1.2,0-2.2-0.3-3-0.9c-0.8-0.6-1.5-1.4-2-2.2l-3.1-5.5
		c8.3-7.6,18.2-11.3,29.9-11.3c4.2,0,7.9,0.7,11.2,2.1c3.3,1.4,6.1,3.3,8.4,5.7c2.3,2.5,4,5.4,5.2,8.8c1.2,3.4,1.8,7.1,1.8,11.2
		V203.6z M1397.3,192.8c1.8,0,3.4-0.2,4.9-0.5c1.5-0.3,2.9-0.8,4.2-1.4s2.6-1.4,3.9-2.4c1.2-0.9,2.5-2.1,3.7-3.3v-12
		c-5,0-9.3,0.3-12.6,1s-6.1,1.4-8.2,2.4c-2.1,1-3.5,2.1-4.4,3.5c-0.9,1.3-1.3,2.7-1.3,4.3c0,3.1,0.9,5.2,2.7,6.6
		C1392.1,192.2,1394.4,192.8,1397.3,192.8z"/>
	<path class="st2" d="M1468.9,110.8c0,1.5-0.3,2.9-0.9,4.2c-0.6,1.3-1.4,2.4-2.4,3.4c-1,1-2.2,1.8-3.5,2.3c-1.4,0.6-2.8,0.9-4.3,0.9
		c-1.5,0-2.9-0.3-4.2-0.9c-1.3-0.6-2.5-1.4-3.5-2.3c-1-1-1.8-2.1-2.3-3.4c-0.6-1.3-0.9-2.7-0.9-4.2c0-1.5,0.3-3,0.9-4.3
		c0.6-1.4,1.4-2.5,2.3-3.5c1-1,2.1-1.8,3.5-2.3c1.3-0.6,2.7-0.9,4.2-0.9c1.5,0,3,0.3,4.3,0.9c1.4,0.6,2.5,1.4,3.5,2.3
		c1,1,1.8,2.1,2.4,3.5C1468.6,107.9,1468.9,109.3,1468.9,110.8z M1466.4,131.8v71.8h-17.3v-71.8H1466.4z"/>
	<path class="st2" d="M1485.9,203.6v-71.8h10.1c1.8,0,3,0.3,3.7,1c0.7,0.7,1.2,1.8,1.4,3.4l1,8.7c2.6-4.4,5.6-7.9,9-10.5
		c3.5-2.6,7.3-3.9,11.6-3.9c3.5,0,6.5,0.8,8.8,2.4l-2.2,13c-0.1,0.8-0.4,1.4-0.9,1.8c-0.5,0.3-1.1,0.5-1.9,0.5
		c-0.7,0-1.7-0.2-2.9-0.5c-1.2-0.3-2.8-0.5-4.8-0.5c-3.6,0-6.7,1-9.2,3c-2.6,2-4.7,4.9-6.5,8.7v44.7H1485.9z"/>
	<path class="st2" d="M1572.8,130.7c4.5,0,8.7,0.7,12.5,2.2c3.8,1.4,7.1,3.6,9.8,6.3c2.8,2.8,4.9,6.2,6.4,10.2
		c1.5,4,2.3,8.6,2.3,13.8c0,1.3-0.1,2.4-0.2,3.3c-0.1,0.9-0.3,1.5-0.6,2c-0.3,0.5-0.7,0.8-1.2,1s-1.2,0.3-2,0.3h-44.4
		c0.5,7.4,2.5,12.8,6,16.2c3.5,3.5,8,5.2,13.7,5.2c2.8,0,5.2-0.3,7.2-1c2-0.7,3.8-1.4,5.3-2.2c1.5-0.8,2.8-1.5,4-2.2
		c1.1-0.7,2.2-1,3.3-1c0.7,0,1.3,0.1,1.8,0.4c0.5,0.3,1,0.7,1.3,1.2l5,6.3c-1.9,2.2-4.1,4.1-6.4,5.6c-2.4,1.5-4.9,2.7-7.5,3.6
		c-2.6,0.9-5.2,1.6-7.9,1.9c-2.7,0.4-5.3,0.6-7.8,0.6c-5,0-9.6-0.8-13.9-2.5c-4.3-1.7-8-4.1-11.2-7.4c-3.2-3.2-5.7-7.3-7.5-12
		c-1.8-4.8-2.7-10.3-2.7-16.6c0-4.9,0.8-9.5,2.4-13.8c1.6-4.3,3.9-8.1,6.8-11.3c3-3.2,6.6-5.7,10.8-7.6
		C1562.6,131.6,1567.4,130.7,1572.8,130.7z M1573.1,143.1c-5,0-9,1.4-11.8,4.3c-2.8,2.8-4.7,6.9-5.5,12.1h32.5
		c0-2.2-0.3-4.4-0.9-6.3c-0.6-2-1.5-3.7-2.8-5.2c-1.3-1.5-2.8-2.7-4.8-3.5C1577.9,143.5,1575.7,143.1,1573.1,143.1z"/>
</g>
<g>
	<path class="st3" d="M337.1,92.4v15h-44.9v28.1h35.4v14.5h-35.4v28.6h44.9v15h-63.8V92.4H337.1z"/>
	<path class="st3" d="M352.5,193.6v-71.8H363c2.2,0,3.7,1,4.4,3.1l1.2,5.7c1.4-1.5,3-2.8,4.6-4.1c1.6-1.2,3.3-2.3,5.1-3.1
		c1.8-0.9,3.7-1.6,5.8-2c2.1-0.5,4.3-0.7,6.7-0.7c3.9,0,7.4,0.7,10.4,2c3,1.3,5.6,3.2,7.6,5.6c2,2.4,3.6,5.3,4.6,8.6
		c1,3.3,1.6,7,1.6,11v45.7h-17.3v-45.7c0-4.4-1-7.8-3-10.2c-2-2.4-5.1-3.6-9.1-3.6c-3,0-5.8,0.7-8.4,2c-2.6,1.4-5.1,3.2-7.4,5.5
		v51.9H352.5z"/>
	<path class="st3" d="M432.1,193.6v-71.8h10.1c1.8,0,3,0.3,3.7,1c0.7,0.7,1.2,1.8,1.4,3.4l1,8.7c2.6-4.4,5.6-7.9,9-10.5
		c3.5-2.6,7.3-3.9,11.6-3.9c3.5,0,6.5,0.8,8.8,2.4l-2.2,13c-0.1,0.8-0.4,1.4-0.9,1.8c-0.5,0.3-1.1,0.5-1.9,0.5
		c-0.7,0-1.7-0.2-2.9-0.5c-1.2-0.3-2.8-0.5-4.8-0.5c-3.6,0-6.7,1-9.2,3c-2.6,2-4.7,4.9-6.5,8.7v44.7H432.1z"/>
	<path class="st3" d="M518.9,120.7c4.5,0,8.7,0.7,12.5,2.2c3.8,1.4,7.1,3.6,9.8,6.3c2.8,2.8,4.9,6.2,6.4,10.2
		c1.5,4,2.3,8.6,2.3,13.8c0,1.3-0.1,2.4-0.2,3.3c-0.1,0.9-0.3,1.5-0.6,2c-0.3,0.5-0.7,0.8-1.2,1c-0.5,0.2-1.2,0.3-2,0.3h-44.4
		c0.5,7.4,2.5,12.8,6,16.2c3.5,3.5,8,5.2,13.7,5.2c2.8,0,5.2-0.3,7.2-1c2-0.7,3.8-1.4,5.3-2.2c1.5-0.8,2.8-1.5,4-2.2
		c1.1-0.7,2.3-1,3.3-1c0.7,0,1.3,0.1,1.8,0.4c0.5,0.3,1,0.7,1.3,1.2l5,6.3c-1.9,2.2-4.1,4.1-6.4,5.6c-2.4,1.5-4.9,2.7-7.5,3.6
		c-2.6,0.9-5.2,1.6-7.9,1.9c-2.7,0.4-5.3,0.6-7.8,0.6c-5,0-9.6-0.8-13.9-2.5c-4.3-1.7-8-4.1-11.2-7.4c-3.2-3.2-5.7-7.3-7.5-12
		c-1.8-4.8-2.7-10.3-2.7-16.6c0-4.9,0.8-9.5,2.4-13.8c1.6-4.3,3.9-8.1,6.8-11.3c3-3.2,6.6-5.7,10.8-7.6
		C508.7,121.6,513.6,120.7,518.9,120.7z M519.3,133.1c-5,0-9,1.4-11.8,4.3c-2.8,2.8-4.7,6.9-5.5,12.1h32.5c0-2.2-0.3-4.4-0.9-6.3
		c-0.6-2-1.5-3.7-2.8-5.2c-1.3-1.5-2.8-2.7-4.8-3.5C524.1,133.5,521.8,133.1,519.3,133.1z"/>
	<path class="st3" d="M588.9,120.5c3.1,0,6,0.3,8.7,0.9c2.7,0.6,5.2,1.6,7.4,2.8h20.6v6.4c0,1.1-0.3,1.9-0.8,2.5
		c-0.6,0.6-1.5,1-2.9,1.3l-6.4,1.2c0.5,1.2,0.8,2.5,1.1,3.9c0.3,1.4,0.4,2.8,0.4,4.3c0,3.5-0.7,6.8-2.1,9.6
		c-1.4,2.9-3.4,5.3-5.9,7.3c-2.5,2-5.5,3.6-8.9,4.7c-3.4,1.1-7.2,1.6-11.2,1.6c-2.7,0-5.3-0.3-7.9-0.8c-2.2,1.4-3.4,2.9-3.4,4.6
		c0,1.5,0.7,2.5,2,3.2s3.1,1.2,5.2,1.4s4.6,0.4,7.4,0.4c2.8,0,5.6,0.1,8.5,0.4c2.9,0.2,5.7,0.6,8.5,1.2c2.8,0.6,5.2,1.5,7.4,2.8
		c2.2,1.3,3.9,3,5.2,5.2c1.3,2.2,2,5,2,8.4c0,3.2-0.8,6.3-2.3,9.3c-1.6,3-3.8,5.7-6.8,8c-3,2.3-6.6,4.2-10.9,5.7
		c-4.3,1.4-9.2,2.1-14.7,2.1c-5.5,0-10.2-0.5-14.2-1.6c-4-1-7.3-2.4-10-4.2c-2.6-1.8-4.6-3.8-5.9-6.1c-1.3-2.3-2-4.7-2-7.1
		c0-3.4,1-6.2,3.1-8.5c2.1-2.3,4.9-4.1,8.5-5.5c-1.8-1-3.2-2.3-4.3-3.9c-1.1-1.6-1.6-3.8-1.6-6.4c0-1.1,0.2-2.2,0.6-3.3
		c0.4-1.1,0.9-2.3,1.7-3.4c0.8-1.1,1.7-2.2,2.9-3.2c1.2-1,2.5-1.9,4.1-2.7c-3.6-2-6.5-4.6-8.6-7.8c-2.1-3.3-3.1-7.1-3.1-11.5
		c0-3.5,0.7-6.8,2.1-9.6c1.4-2.9,3.4-5.3,6-7.4c2.5-2,5.6-3.6,9-4.7C581,121.1,584.8,120.5,588.9,120.5z M607.9,196.6
		c0-1.4-0.4-2.6-1.3-3.5c-0.8-0.9-2-1.6-3.4-2.1c-1.4-0.5-3.1-0.9-5.1-1.1c-1.9-0.2-4-0.4-6.2-0.4c-2.2,0-4.4,0-6.7,0
		s-4.5-0.3-6.7-0.8c-2,1.1-3.5,2.3-4.7,3.8c-1.2,1.5-1.8,3.2-1.8,5.1c0,1.3,0.3,2.4,0.9,3.5c0.6,1.1,1.6,2,3,2.8
		c1.4,0.8,3.2,1.4,5.4,1.9c2.2,0.4,4.9,0.7,8.1,0.7c3.2,0,6-0.3,8.3-0.8c2.3-0.5,4.3-1.2,5.8-2.1c1.5-0.9,2.6-1.9,3.3-3.1
		C607.5,199.4,607.9,198,607.9,196.6z M588.9,155.9c2.1,0,4-0.3,5.6-0.9c1.6-0.6,2.9-1.4,4-2.4c1-1,1.8-2.3,2.4-3.7
		c0.5-1.4,0.8-3,0.8-4.8c0-3.5-1.1-6.4-3.2-8.4c-2.1-2.1-5.3-3.1-9.6-3.1c-4.2,0-7.4,1-9.6,3.1c-2.1,2.1-3.2,4.9-3.2,8.4
		c0,1.7,0.3,3.2,0.8,4.7c0.5,1.4,1.3,2.7,2.4,3.7c1,1,2.4,1.9,4,2.4C585,155.6,586.8,155.9,588.9,155.9z"/>
	<path class="st3" d="M657.5,100.8c0,1.5-0.3,2.9-0.9,4.2c-0.6,1.3-1.4,2.4-2.4,3.4c-1,1-2.2,1.8-3.5,2.3c-1.4,0.6-2.8,0.9-4.3,0.9
		c-1.5,0-2.9-0.3-4.2-0.9c-1.3-0.6-2.5-1.4-3.5-2.3s-1.8-2.1-2.3-3.4c-0.6-1.3-0.9-2.7-0.9-4.2c0-1.5,0.3-3,0.9-4.3
		c0.6-1.4,1.4-2.5,2.3-3.5s2.1-1.8,3.5-2.3c1.3-0.6,2.7-0.9,4.2-0.9c1.5,0,3,0.3,4.3,0.9c1.4,0.6,2.5,1.4,3.5,2.3
		c1,1,1.8,2.1,2.4,3.5C657.2,97.9,657.5,99.3,657.5,100.8z M654.9,121.8v71.8h-17.3v-71.8H654.9z"/>
	<path class="st3" d="M717.1,135.8c-0.5,0.7-1,1.3-1.5,1.6c-0.5,0.3-1.2,0.5-2,0.5c-0.8,0-1.7-0.2-2.7-0.7c-1-0.5-2.1-1-3.3-1.6
		c-1.3-0.6-2.7-1.1-4.3-1.6c-1.6-0.5-3.5-0.7-5.7-0.7c-3.4,0-6.1,0.7-8.1,2.2c-2,1.4-2.9,3.3-2.9,5.7c0,1.5,0.5,2.8,1.5,3.9
		c1,1.1,2.3,2,4,2.8c1.7,0.8,3.5,1.5,5.6,2.1c2.1,0.6,4.2,1.3,6.4,2.1c2.2,0.7,4.3,1.6,6.4,2.6c2.1,1,4,2.2,5.6,3.6
		c1.7,1.5,3,3.2,4,5.3c1,2.1,1.5,4.5,1.5,7.4c0,3.5-0.6,6.6-1.9,9.6c-1.3,2.9-3.1,5.4-5.5,7.6c-2.4,2.1-5.4,3.8-9,5
		s-7.7,1.8-12.3,1.8c-2.5,0-4.9-0.2-7.2-0.7c-2.4-0.4-4.6-1.1-6.8-1.9c-2.2-0.8-4.2-1.7-6-2.8c-1.8-1.1-3.5-2.2-4.9-3.5l4-6.6
		c0.5-0.8,1.1-1.4,1.8-1.8s1.6-0.6,2.7-0.6c1.1,0,2.1,0.3,3,0.9c1,0.6,2.1,1.3,3.3,2c1.3,0.7,2.7,1.4,4.4,2c1.7,0.6,3.9,0.9,6.5,0.9
		c2.1,0,3.8-0.2,5.3-0.7c1.5-0.5,2.7-1.1,3.6-1.9c1-0.8,1.7-1.7,2.1-2.8c0.4-1,0.7-2.1,0.7-3.3c0-1.7-0.5-3.1-1.5-4.1
		c-1-1.1-2.3-2-4-2.8c-1.7-0.8-3.5-1.5-5.7-2.1c-2.1-0.6-4.3-1.3-6.5-2.1c-2.2-0.7-4.4-1.6-6.5-2.6c-2.1-1-4-2.3-5.7-3.8
		c-1.7-1.5-3-3.4-4-5.7c-1-2.2-1.5-4.9-1.5-8.1c0-2.9,0.6-5.7,1.8-8.4c1.2-2.7,2.9-5,5.1-7c2.3-2,5.1-3.6,8.5-4.8
		c3.4-1.2,7.3-1.8,11.7-1.8c4.9,0,9.5,0.8,13.5,2.4c4.1,1.6,7.4,3.8,10.1,6.4L717.1,135.8z"/>
	<path class="st3" d="M759.2,194.7c-6.2,0-11-1.8-14.4-5.3c-3.4-3.5-5-8.4-5-14.6v-40.1h-7.3c-0.9,0-1.7-0.3-2.4-0.9
		c-0.7-0.6-1-1.5-1-2.7v-6.9l11.5-1.9l3.6-19.6c0.2-0.9,0.6-1.7,1.3-2.2c0.7-0.5,1.5-0.8,2.6-0.8h9v22.6H776v12.3h-18.9v38.9
		c0,2.2,0.6,4,1.7,5.2c1.1,1.3,2.6,1.9,4.5,1.9c1.1,0,2-0.1,2.7-0.4c0.7-0.3,1.4-0.5,1.9-0.8c0.5-0.3,1-0.5,1.4-0.8
		c0.4-0.3,0.8-0.4,1.3-0.4c0.5,0,0.9,0.1,1.3,0.4c0.3,0.3,0.7,0.6,1,1.2l5.2,8.4c-2.5,2.1-5.4,3.7-8.7,4.8
		C766.1,194.2,762.7,194.7,759.2,194.7z"/>
	<path class="st3" d="M789.8,193.6v-71.8H800c1.8,0,3,0.3,3.7,1c0.7,0.7,1.2,1.8,1.4,3.4l1,8.7c2.6-4.4,5.6-7.9,9-10.5
		c3.5-2.6,7.3-3.9,11.6-3.9c3.5,0,6.5,0.8,8.8,2.4l-2.2,13c-0.1,0.8-0.4,1.4-0.9,1.8c-0.5,0.3-1.1,0.5-1.9,0.5
		c-0.7,0-1.7-0.2-2.9-0.5c-1.2-0.3-2.8-0.5-4.8-0.5c-3.6,0-6.7,1-9.2,3c-2.6,2-4.7,4.9-6.5,8.7v44.7H789.8z"/>
	<path class="st3" d="M876.7,120.7c4.5,0,8.7,0.7,12.5,2.2c3.8,1.4,7.1,3.6,9.8,6.3c2.8,2.8,4.9,6.2,6.4,10.2
		c1.5,4,2.3,8.6,2.3,13.8c0,1.3-0.1,2.4-0.2,3.3c-0.1,0.9-0.3,1.5-0.6,2c-0.3,0.5-0.7,0.8-1.2,1c-0.5,0.2-1.2,0.3-2,0.3h-44.4
		c0.5,7.4,2.5,12.8,6,16.2c3.5,3.5,8,5.2,13.7,5.2c2.8,0,5.2-0.3,7.2-1c2-0.7,3.8-1.4,5.3-2.2c1.5-0.8,2.8-1.5,4-2.2
		c1.1-0.7,2.3-1,3.3-1c0.7,0,1.3,0.1,1.8,0.4c0.5,0.3,1,0.7,1.3,1.2l5,6.3c-1.9,2.2-4.1,4.1-6.4,5.6c-2.4,1.5-4.9,2.7-7.5,3.6
		c-2.6,0.9-5.2,1.6-7.9,1.9c-2.7,0.4-5.3,0.6-7.8,0.6c-5,0-9.6-0.8-13.9-2.5c-4.3-1.7-8-4.1-11.2-7.4c-3.2-3.2-5.7-7.3-7.5-12
		c-1.8-4.8-2.7-10.3-2.7-16.6c0-4.9,0.8-9.5,2.4-13.8c1.6-4.3,3.9-8.1,6.8-11.3c3-3.2,6.6-5.7,10.8-7.6
		C866.5,121.6,871.3,120.7,876.7,120.7z M877,133.1c-5,0-9,1.4-11.8,4.3c-2.8,2.8-4.7,6.9-5.5,12.1h32.5c0-2.2-0.3-4.4-0.9-6.3
		c-0.6-2-1.5-3.7-2.8-5.2c-1.3-1.5-2.8-2.7-4.8-3.5C881.8,133.5,879.6,133.1,877,133.1z"/>
	<path class="st3" d="M921.8,193.6v-71.8H932c1.8,0,3,0.3,3.7,1c0.7,0.7,1.2,1.8,1.4,3.4l1,8.7c2.6-4.4,5.6-7.9,9-10.5
		c3.5-2.6,7.3-3.9,11.6-3.9c3.5,0,6.5,0.8,8.8,2.4l-2.2,13c-0.1,0.8-0.4,1.4-0.9,1.8c-0.5,0.3-1.1,0.5-1.9,0.5
		c-0.7,0-1.7-0.2-2.9-0.5c-1.2-0.3-2.8-0.5-4.8-0.5c-3.6,0-6.7,1-9.2,3c-2.6,2-4.7,4.9-6.5,8.7v44.7H921.8z"/>
	<path class="st3" d="M1021.9,121.8v45.6c0,4.4,1,7.8,3,10.2c2,2.4,5.1,3.6,9.1,3.6c3,0,5.8-0.7,8.4-2c2.6-1.3,5.1-3.2,7.4-5.5
		v-51.9h17.3v71.8h-10.6c-2.2,0-3.7-1-4.4-3.1l-1.2-5.7c-1.5,1.5-3,2.9-4.6,4.1c-1.6,1.2-3.3,2.3-5.1,3.1c-1.8,0.9-3.7,1.5-5.8,2
		c-2.1,0.5-4.3,0.7-6.7,0.7c-3.9,0-7.4-0.7-10.4-2c-3-1.3-5.5-3.2-7.6-5.6c-2.1-2.4-3.6-5.3-4.7-8.6c-1-3.3-1.6-7-1.6-11v-45.6
		H1021.9z"/>
	<path class="st3" d="M1085.6,193.6v-71.8h10.6c2.2,0,3.7,1,4.4,3.1l1.2,5.7c1.4-1.5,3-2.8,4.6-4.1c1.6-1.2,3.3-2.3,5.1-3.1
		c1.8-0.9,3.7-1.6,5.8-2c2.1-0.5,4.3-0.7,6.7-0.7c3.9,0,7.4,0.7,10.4,2c3,1.3,5.6,3.2,7.6,5.6c2,2.4,3.6,5.3,4.6,8.6
		c1,3.3,1.6,7,1.6,11v45.7h-17.3v-45.7c0-4.4-1-7.8-3-10.2c-2-2.4-5.1-3.6-9.1-3.6c-3,0-5.8,0.7-8.4,2c-2.6,1.4-5.1,3.2-7.4,5.5
		v51.9H1085.6z"/>
	<path class="st3" d="M1234.9,135.8c-0.5,0.7-1,1.3-1.5,1.6c-0.5,0.3-1.2,0.5-2,0.5c-0.8,0-1.7-0.2-2.7-0.7c-1-0.5-2.1-1-3.3-1.6
		c-1.3-0.6-2.7-1.1-4.3-1.6c-1.6-0.5-3.5-0.7-5.7-0.7c-3.4,0-6.1,0.7-8,2.2c-2,1.4-2.9,3.3-2.9,5.7c0,1.5,0.5,2.8,1.5,3.9
		c1,1.1,2.3,2,4,2.8c1.7,0.8,3.5,1.5,5.6,2.1c2.1,0.6,4.2,1.3,6.4,2.1c2.2,0.7,4.3,1.6,6.4,2.6c2.1,1,4,2.2,5.6,3.6
		c1.7,1.5,3,3.2,4,5.3c1,2.1,1.5,4.5,1.5,7.4c0,3.5-0.6,6.6-1.9,9.6c-1.3,2.9-3.1,5.4-5.5,7.6c-2.4,2.1-5.4,3.8-9,5
		c-3.6,1.2-7.7,1.8-12.3,1.8c-2.5,0-4.9-0.2-7.2-0.7c-2.4-0.4-4.6-1.1-6.8-1.9c-2.2-0.8-4.2-1.7-6-2.8c-1.8-1.1-3.5-2.2-4.9-3.5
		l4-6.6c0.5-0.8,1.1-1.4,1.8-1.8s1.6-0.6,2.7-0.6c1.1,0,2.1,0.3,3,0.9c1,0.6,2.1,1.3,3.3,2c1.3,0.7,2.7,1.4,4.4,2
		c1.7,0.6,3.9,0.9,6.5,0.9c2.1,0,3.8-0.2,5.3-0.7c1.5-0.5,2.7-1.1,3.6-1.9c1-0.8,1.7-1.7,2.1-2.8s0.7-2.1,0.7-3.3
		c0-1.7-0.5-3.1-1.5-4.1c-1-1.1-2.3-2-4-2.8c-1.7-0.8-3.5-1.5-5.7-2.1c-2.1-0.6-4.3-1.3-6.5-2.1c-2.2-0.7-4.4-1.6-6.5-2.6
		c-2.1-1-4-2.3-5.7-3.8c-1.7-1.5-3-3.4-4-5.7c-1-2.2-1.5-4.9-1.5-8.1c0-2.9,0.6-5.7,1.8-8.4c1.2-2.7,2.9-5,5.1-7
		c2.3-2,5.1-3.6,8.5-4.8c3.4-1.2,7.3-1.8,11.7-1.8c4.9,0,9.5,0.8,13.5,2.4c4.1,1.6,7.4,3.8,10.2,6.4L1234.9,135.8z"/>
	<path class="st3" d="M1309.7,193.6h-7.8c-1.6,0-2.9-0.2-3.8-0.7c-0.9-0.5-1.6-1.5-2.1-3l-1.5-5.1c-1.8,1.6-3.6,3.1-5.4,4.3
		c-1.8,1.2-3.6,2.3-5.4,3.1c-1.9,0.8-3.9,1.5-6,1.9c-2.1,0.4-4.4,0.6-7,0.6c-3,0-5.8-0.4-8.4-1.2c-2.6-0.8-4.8-2-6.6-3.7
		c-1.8-1.6-3.3-3.7-4.3-6.1c-1-2.4-1.5-5.3-1.5-8.5c0-2.7,0.7-5.4,2.1-8c1.4-2.6,3.8-5,7.1-7.2c3.3-2.1,7.7-3.9,13.2-5.3
		c5.5-1.4,12.3-2.1,20.5-2.1v-4.2c0-4.8-1-8.4-3-10.8c-2-2.3-5-3.5-8.9-3.5c-2.8,0-5.1,0.3-7,1c-1.9,0.7-3.5,1.4-4.9,2.2
		c-1.4,0.8-2.6,1.6-3.8,2.2c-1.2,0.7-2.5,1-3.9,1c-1.2,0-2.2-0.3-3-0.9c-0.8-0.6-1.5-1.4-2-2.2l-3.1-5.5
		c8.3-7.6,18.2-11.3,29.9-11.3c4.2,0,7.9,0.7,11.2,2.1c3.3,1.4,6.1,3.3,8.4,5.7c2.3,2.5,4,5.4,5.2,8.8c1.2,3.4,1.8,7.1,1.8,11.2
		V193.6z M1276.1,182.8c1.8,0,3.4-0.2,4.9-0.5c1.5-0.3,2.9-0.8,4.2-1.4s2.6-1.4,3.9-2.4c1.2-0.9,2.5-2.1,3.7-3.3v-12
		c-5,0-9.3,0.3-12.6,1s-6.1,1.4-8.2,2.4c-2.1,1-3.5,2.1-4.4,3.5c-0.9,1.3-1.3,2.7-1.3,4.3c0,3.1,0.9,5.2,2.7,6.6
		C1270.9,182.2,1273.2,182.8,1276.1,182.8z"/>
	<path class="st3" d="M1345.1,89.6v104h-17.3v-104H1345.1z"/>
	<path class="st3" d="M1420.9,193.6h-7.8c-1.6,0-2.9-0.2-3.8-0.7c-0.9-0.5-1.6-1.5-2.1-3l-1.5-5.1c-1.8,1.6-3.6,3.1-5.4,4.3
		c-1.8,1.2-3.6,2.3-5.4,3.1c-1.9,0.8-3.9,1.5-6,1.9c-2.1,0.4-4.4,0.6-7,0.6c-3,0-5.8-0.4-8.4-1.2c-2.6-0.8-4.8-2-6.6-3.7
		c-1.8-1.6-3.3-3.7-4.3-6.1c-1-2.4-1.5-5.3-1.5-8.5c0-2.7,0.7-5.4,2.1-8c1.4-2.6,3.8-5,7.1-7.2c3.3-2.1,7.7-3.9,13.2-5.3
		c5.5-1.4,12.3-2.1,20.5-2.1v-4.2c0-4.8-1-8.4-3-10.8c-2-2.3-5-3.5-8.9-3.5c-2.8,0-5.1,0.3-7,1c-1.9,0.7-3.5,1.4-4.9,2.2
		c-1.4,0.8-2.6,1.6-3.8,2.2c-1.2,0.7-2.5,1-3.9,1c-1.2,0-2.2-0.3-3-0.9c-0.8-0.6-1.5-1.4-2-2.2l-3.1-5.5
		c8.3-7.6,18.2-11.3,29.9-11.3c4.2,0,7.9,0.7,11.2,2.1c3.3,1.4,6.1,3.3,8.4,5.7c2.3,2.5,4,5.4,5.2,8.8c1.2,3.4,1.8,7.1,1.8,11.2
		V193.6z M1387.3,182.8c1.8,0,3.4-0.2,4.9-0.5c1.5-0.3,2.9-0.8,4.2-1.4s2.6-1.4,3.9-2.4c1.2-0.9,2.5-2.1,3.7-3.3v-12
		c-5,0-9.3,0.3-12.6,1s-6.1,1.4-8.2,2.4c-2.1,1-3.5,2.1-4.4,3.5c-0.9,1.3-1.3,2.7-1.3,4.3c0,3.1,0.9,5.2,2.7,6.6
		C1382.1,182.2,1384.4,182.8,1387.3,182.8z"/>
	<path class="st3" d="M1458.9,100.8c0,1.5-0.3,2.9-0.9,4.2c-0.6,1.3-1.4,2.4-2.4,3.4c-1,1-2.2,1.8-3.5,2.3c-1.4,0.6-2.8,0.9-4.3,0.9
		c-1.5,0-2.9-0.3-4.2-0.9c-1.3-0.6-2.5-1.4-3.5-2.3c-1-1-1.8-2.1-2.3-3.4c-0.6-1.3-0.9-2.7-0.9-4.2c0-1.5,0.3-3,0.9-4.3
		c0.6-1.4,1.4-2.5,2.3-3.5c1-1,2.1-1.8,3.5-2.3c1.3-0.6,2.7-0.9,4.2-0.9c1.5,0,3,0.3,4.3,0.9c1.4,0.6,2.5,1.4,3.5,2.3
		c1,1,1.8,2.1,2.4,3.5C1458.6,97.9,1458.9,99.3,1458.9,100.8z M1456.4,121.8v71.8h-17.3v-71.8H1456.4z"/>
	<path class="st3" d="M1475.9,193.6v-71.8h10.1c1.8,0,3,0.3,3.7,1c0.7,0.7,1.2,1.8,1.4,3.4l1,8.7c2.6-4.4,5.6-7.9,9-10.5
		c3.5-2.6,7.3-3.9,11.6-3.9c3.5,0,6.5,0.8,8.8,2.4l-2.2,13c-0.1,0.8-0.4,1.4-0.9,1.8c-0.5,0.3-1.1,0.5-1.9,0.5
		c-0.7,0-1.7-0.2-2.9-0.5c-1.2-0.3-2.8-0.5-4.8-0.5c-3.6,0-6.7,1-9.2,3c-2.6,2-4.7,4.9-6.5,8.7v44.7H1475.9z"/>
	<path class="st3" d="M1562.8,120.7c4.5,0,8.7,0.7,12.5,2.2c3.8,1.4,7.1,3.6,9.8,6.3c2.8,2.8,4.9,6.2,6.4,10.2
		c1.5,4,2.3,8.6,2.3,13.8c0,1.3-0.1,2.4-0.2,3.3c-0.1,0.9-0.3,1.5-0.6,2c-0.3,0.5-0.7,0.8-1.2,1s-1.2,0.3-2,0.3h-44.4
		c0.5,7.4,2.5,12.8,6,16.2c3.5,3.5,8,5.2,13.7,5.2c2.8,0,5.2-0.3,7.2-1c2-0.7,3.8-1.4,5.3-2.2c1.5-0.8,2.8-1.5,4-2.2
		c1.1-0.7,2.2-1,3.3-1c0.7,0,1.3,0.1,1.8,0.4c0.5,0.3,1,0.7,1.3,1.2l5,6.3c-1.9,2.2-4.1,4.1-6.4,5.6c-2.4,1.5-4.9,2.7-7.5,3.6
		c-2.6,0.9-5.2,1.6-7.9,1.9c-2.7,0.4-5.3,0.6-7.8,0.6c-5,0-9.6-0.8-13.9-2.5c-4.3-1.7-8-4.1-11.2-7.4c-3.2-3.2-5.7-7.3-7.5-12
		c-1.8-4.8-2.7-10.3-2.7-16.6c0-4.9,0.8-9.5,2.4-13.8c1.6-4.3,3.9-8.1,6.8-11.3c3-3.2,6.6-5.7,10.8-7.6
		C1552.6,121.6,1557.4,120.7,1562.8,120.7z M1563.1,133.1c-5,0-9,1.4-11.8,4.3c-2.8,2.8-4.7,6.9-5.5,12.1h32.5
		c0-2.2-0.3-4.4-0.9-6.3c-0.6-2-1.5-3.7-2.8-5.2c-1.3-1.5-2.8-2.7-4.8-3.5C1567.9,133.5,1565.7,133.1,1563.1,133.1z"/>
</g>
</svg>
