<?xml version="1.0" encoding="utf-8"?>
<!-- Generator: Adobe Illustrator 26.0.2, SVG Export Plug-In . SVG Version: 6.00 Build 0)  -->
<svg version="1.1" id="Calque_1" xmlns="http://www.w3.org/2000/svg" xmlns:xlink="http://www.w3.org/1999/xlink" x="0px" y="0px"
	 viewBox="0 0 800 800" style="enable-background:new 0 0 800 800;" xml:space="preserve">
<style type="text/css">
	.st0{fill:#333333;}
</style>
<path class="st0" d="M307.6,170l0.5-0.3C292,85.5,210.6,30.2,126.3,46.3C53,60.4-0.1,124.4,0,199.1v555.6h177.8V405.4
	c0-13.8,3.2-27.4,9.4-39.7l77.1-154.1C273.4,193.1,288.8,178.5,307.6,170L307.6,170z M795.3,385.5l-77.1-154.1
	c-4.6-9.2-12.3-16.5-21.7-20.7l-167.4-74.3c-11.5-5.1-24.6-5.1-36.1,0l-167.4,74.3c-9.4,4.2-17.1,11.6-21.7,20.7l-77.1,154.1
	c-3.1,6.1-4.7,13-4.7,19.8v349.3H400V621.3h222.2v133.3H800V405.4C800,398.5,798.4,391.7,795.3,385.5z M577.8,488H444.4V354.7h133.3
	V488z"/>
</svg>
