<?xml version="1.0" encoding="utf-8"?>
<!-- Generator: Adobe Illustrator 22.0.1, SVG Export Plug-In . SVG Version: 6.00 Build 0)  -->
<svg version="1.1" id="Calque_1" xmlns="http://www.w3.org/2000/svg" xmlns:xlink="http://www.w3.org/1999/xlink" x="0px" y="0px"
	 viewBox="0 0 780.1 1000" style="enable-background:new 0 0 780.1 1000;" xml:space="preserve">
<style type="text/css">
	.st0{fill:#487BD4;}
</style>
<path class="st0" d="M741.6,240.9c18.5,18.5,34.1,55.7,34.1,82.3v578.5c0,26.6-21.6,48.2-48.1,48.2h-675C26,950,4.4,928.4,4.4,901.8
	V98.2C4.4,71.6,26,50,52.6,50h450c26.6,0,63.7,15.6,82.4,34.1L741.6,240.9z M518.6,118.3v188.8h188.9c-3.1-8.5-7.6-17.1-11.1-20.6
	L539.2,129.4C535.7,125.9,527.2,121.3,518.6,118.3z M711.5,885.7V371.4H502.6c-26.6,0-48.2-21.6-48.2-48.2v-209H68.6v771.5
	L711.5,885.7L711.5,885.7z M197.2,451.8c0-9,7-16,16-16h353.6c9,0,16.1,7,16.1,16v32.1c0,9.1-7.1,16.1-16.1,16.1H213.2
	c-9,0-16-7-16-16.1V451.8L197.2,451.8z M566.9,564.3c9,0,16.1,7,16.1,16.1v32.1c0,9-7.1,16.1-16.1,16.1H213.2c-9,0-16-7.1-16-16.1
	v-32.1c0-9.1,7-16.1,16-16.1L566.9,564.3L566.9,564.3z M566.9,692.9c9,0,16.1,7,16.1,16v32.2c0,9-7.1,16-16.1,16H213.2
	c-9,0-16-7-16-16v-32.2c0-9,7-16,16-16H566.9z"/>
</svg>
