<?xml version="1.0" encoding="utf-8"?>
<!-- Generator: Adobe Illustrator 22.0.1, SVG Export Plug-In . SVG Version: 6.00 Build 0)  -->
<svg version="1.1" id="Calque_1" xmlns="http://www.w3.org/2000/svg" xmlns:xlink="http://www.w3.org/1999/xlink" x="0px" y="0px"
	 viewBox="0 0 857.1 1000" style="enable-background:new 0 0 857.1 1000;" xml:space="preserve">
<style type="text/css">
	.st0{fill:#688ED8;}
</style>
<path class="st0" d="M843.2,589.3c0,1.1,0,2.8-0.6,3.9c-47.4,197.5-210.3,335.4-416.3,335.4c-108.8,0-214.2-43-293.5-118.3l-72,72
	c-6.7,6.7-15.6,10.6-25.1,10.6C16.2,892.9,0,876.7,0,857.1v-250c0-19.5,16.2-35.7,35.7-35.7h250c19.5,0,35.7,16.2,35.7,35.7
	c0,9.5-3.9,18.5-10.6,25.2l-76.4,76.4c52.4,49.1,122.2,77,194.2,77c99.3,0,191.4-51.3,243.3-136.1c13.4-21.8,20.1-43,29.6-65.3
	c2.7-7.8,8.3-12.9,16.7-12.9h107.1C835.4,571.4,843.2,579.8,843.2,589.3z M857.1,142.9v250c0,19.5-16.1,35.7-35.7,35.7h-250
	c-19.5,0-35.7-16.2-35.7-35.7c0-9.5,3.9-18.5,10.6-25.2l77-77c-53-49.1-122.7-76.4-194.7-76.4c-99.4,0-191.4,51.3-243.3,136.1
	c-13.4,21.8-20.1,43-29.6,65.3c-2.8,7.8-8.4,12.9-16.7,12.9H27.9c-10,0-17.9-8.4-17.9-17.9v-3.9C58,208.7,222.7,71.4,428.6,71.4
	c109.3,0,215.9,43.6,295.2,118.3l72.5-72c6.7-6.7,15.6-10.6,25.1-10.6C841,107.1,857.1,123.3,857.1,142.9L857.1,142.9z"/>
</svg>
