<?xml version="1.0" encoding="utf-8"?>
<!-- Generator: Adobe Illustrator 21.1.0, SVG Export Plug-In . SVG Version: 6.00 Build 0)  -->
<svg version="1.1" id="Calque_1" xmlns="http://www.w3.org/2000/svg" xmlns:xlink="http://www.w3.org/1999/xlink" x="0px" y="0px"
	 viewBox="0 0 2048 2048" style="enable-background:new 0 0 2048 2048;" xml:space="preserve">
<style type="text/css">
	.st0{fill:url(#SVGID_1_);}
	.st1{fill:#DCDCDC;}
	.st2{fill:#333333;stroke:#333333;}
	.st3{fill:#333333;}
</style>
<g>
	
		<linearGradient id="SVGID_1_" gradientUnits="userSpaceOnUse" x1="1024" y1="12.5" x2="1024" y2="2035.5" gradientTransform="matrix(1 0 0 -1 0 2048)">
		<stop  offset="0" style="stop-color:#E8E8E8"/>
		<stop  offset="1" style="stop-color:#F9F9F9"/>
	</linearGradient>
	<path class="st0" d="M50,2035.5c-20.7,0-37.5-16.8-37.5-37.5V50c0-20.7,16.8-37.5,37.5-37.5h1948c20.7,0,37.5,16.8,37.5,37.5v1948
		c0,20.7-16.8,37.5-37.5,37.5H50z"/>
	<path class="st1" d="M1998,25c13.8,0,25,11.2,25,25v1948c0,13.8-11.2,25-25,25H50c-13.8,0-25-11.2-25-25V50c0-13.8,11.2-25,25-25
		H1998 M1998,0H50C22.5,0,0,22.5,0,50v1948c0,27.5,22.5,50,50,50h1948c27.5,0,50-22.5,50-50V50C2048,22.5,2025.5,0,1998,0L1998,0z"
		/>
</g>
<g>
	<path class="st2" d="M895.7,1738.7v73.5h-35v-188h57.3c12.8,0,23.8,1.3,33,4c9.1,2.6,16.6,6.3,22.5,11.1
		c5.9,4.8,10.1,10.5,12.9,17.1c2.7,6.6,4.1,13.9,4.1,21.9c0,6.3-0.9,12.3-2.8,17.9c-1.9,5.6-4.6,10.7-8.1,15.3
		c-3.5,4.6-7.8,8.6-13,12.1c-5.2,3.5-11,6.2-17.6,8.3c4.4,2.5,8.2,6.1,11.4,10.8l47.1,69.4H976c-3,0-5.6-0.6-7.7-1.8
		c-2.1-1.2-3.9-2.9-5.4-5.2l-39.5-60.2c-1.5-2.3-3.1-3.9-4.9-4.8c-1.8-1-4.4-1.4-7.9-1.4H895.7z M895.7,1713.7h21.8
		c6.6,0,12.3-0.8,17.2-2.5c4.9-1.6,8.9-3.9,12.1-6.8c3.2-2.9,5.5-6.3,7.1-10.3c1.6-4,2.3-8.4,2.3-13.1c0-9.5-3.1-16.9-9.4-22
		c-6.3-5.1-15.9-7.7-28.8-7.7h-22.4V1713.7z"/>
	<path class="st2" d="M1188.5,1812.2h-35.2V1730h-88.1v82.2h-35.2v-188h35.2v80.9h88.1v-80.9h35.2V1812.2z"/>
</g>
<path class="st3" d="M1203.2,763.2c0-49.5-17.5-91.7-52.5-126.7S1073.5,584,1024,584s-91.7,17.5-126.7,52.5s-52.5,77.2-52.5,126.7
	S862.3,855,897.3,890s77.2,52.5,126.7,52.5s91.7-17.5,126.7-52.5S1203.2,812.7,1203.2,763.2z M1561.6,687v155.4
	c0,5.6-1.9,11-5.6,16.1s-8.4,8.2-14,9.1l-129.5,19.6c-8.9,25.2-18,46.4-27.3,63.7c16.3,23.3,41.3,55.5,74.9,96.6
	c4.7,5.6,7,11.4,7,17.5s-2.1,11.4-6.3,16.1c-12.6,17.3-35.7,42.5-69.3,75.6c-33.6,33.1-55.5,49.7-65.8,49.7
	c-5.6,0-11.7-2.1-18.2-6.3l-96.6-75.6c-20.5,10.7-41.8,19.6-63.7,26.6c-7.5,63.5-14.2,106.9-20.3,130.2
	c-3.3,13.1-11.7,19.6-25.2,19.6H946.3c-6.5,0-12.2-2-17.1-5.9c-4.9-4-7.6-9-8.1-15.1L901.5,1151c-22.9-7.5-43.9-16.1-63-25.9
	l-98.7,74.9c-4.7,4.2-10.5,6.3-17.5,6.3c-6.5,0-12.4-2.6-17.5-7.7c-58.8-53.2-97.3-92.4-115.5-117.6c-3.3-4.7-4.9-10-4.9-16.1
	c0-5.6,1.9-11,5.6-16.1c7-9.8,18.9-25.3,35.7-46.5s29.4-37.7,37.8-49.3c-12.6-23.3-22.2-46.4-28.7-69.3l-128.1-18.9
	c-6.1-0.9-11-3.9-14.7-8.8c-3.7-4.9-5.6-10.4-5.6-16.5V684.1c0-5.6,1.9-11,5.6-16.1s8.2-8.2,13.3-9.1l130.2-19.6
	c6.5-21.5,15.6-42.9,27.3-64.4c-18.7-26.6-43.6-58.8-74.9-96.6c-4.7-5.6-7-11.2-7-16.8c0-4.7,2.1-10,6.3-16.1
	c12.1-16.8,35.1-41.9,69-75.2c33.8-33.4,55.9-50,66.1-50c6.1,0,12.1,2.3,18.2,7l96.6,74.9c20.5-10.7,41.8-19.6,63.7-26.6
	c7.5-63.5,14.2-106.9,20.3-130.2c3.3-13.1,11.7-19.6,25.2-19.6h155.4c6.5,0,12.2,2,17.2,6c4.9,4,7.6,9,8.1,15l19.6,128.8
	c22.9,7.5,43.9,16.1,63,25.9l99.4-74.9c4.2-4.2,9.8-6.3,16.8-6.3c6.1,0,11.9,2.3,17.5,7c60.2,55.5,98.7,95.2,115.5,119
	c3.3,3.7,4.9,8.9,4.9,15.4c0,5.6-1.9,11-5.6,16.1c-7,9.8-18.9,25.3-35.7,46.6c-16.8,21.2-29.4,37.7-37.8,49.3
	c12.1,23.3,21.7,46.2,28.7,68.6l128.1,19.6c6.1,0.9,11,3.8,14.7,8.8C1559.7,675.4,1561.6,680.9,1561.6,687z"/>
</svg>
