<?xml version="1.0" encoding="utf-8"?>
<!-- Generator: Adobe Illustrator 22.0.1, SVG Export Plug-In . SVG Version: 6.00 Build 0)  -->
<svg version="1.1" id="Calque_1" xmlns="http://www.w3.org/2000/svg" xmlns:xlink="http://www.w3.org/1999/xlink" x="0px" y="0px"
	 viewBox="0 0 871.1 785.7" style="enable-background:new 0 0 871.1 785.7;" xml:space="preserve">
<style type="text/css">
	.st0{fill:#487BD4;}
</style>
<path class="st0" d="M290.9,617.8c0-35.1-29.1-64.3-64.3-64.3s-64.2,29.2-64.2,64.3s29.2,64.3,64.3,64.3S290.9,653,290.9,617.8z
	 M98.1,360.7h192.8V232.1h-79.3c-2.1,0-9.5,3.1-11.1,4.6l-97.9,97.9c-1.5,1.5-4.5,9-4.5,11.1L98.1,360.7L98.1,360.7z M740.9,617.8
	c0-35.1-29.1-64.3-64.3-64.3s-64.3,29.2-64.3,64.3s29.2,64.3,64.3,64.3S740.9,653,740.9,617.8z M869.5,71.4v514.3
	c0,37.2-39.1,32.1-64.3,32.1c0,70.8-57.8,128.6-128.6,128.6s-128.5-57.8-128.5-128.6H355.2c0,70.8-57.8,128.6-128.6,128.6
	S98.1,688.6,98.1,617.8H65.9c-25.1,0-64.3,5-64.3-32.1c0-17.5,14.6-32.1,32.1-32.1V392.8c0-35.6-5-75.3,22.6-103l99.5-99.4
	c12.6-12.5,36.7-22.6,54.8-22.6h80.3V71.4c0-17.6,14.6-32.1,32.2-32.1h514.3C854.9,39.3,869.5,53.8,869.5,71.4L869.5,71.4z"/>
</svg>
