<?xml version="1.0" encoding="utf-8"?>
<!-- Generator: Adobe Illustrator 22.0.1, SVG Export Plug-In . SVG Version: 6.00 Build 0)  -->
<svg version="1.1" id="Calque_1" xmlns="http://www.w3.org/2000/svg" xmlns:xlink="http://www.w3.org/1999/xlink" x="0px" y="0px"
	 viewBox="0 0 65.4 30.1" style="enable-background:new 0 0 65.4 30.1;" xml:space="preserve">
<style type="text/css">
	.st0{fill:#B6C9EC;}
	.st1{fill:#D1DDF3;}
	.st2{fill:#FFFFFF;}
	.st3{fill:none;stroke:#000000;stroke-width:0.8438;stroke-linecap:round;stroke-linejoin:round;}
	.st4{fill:none;stroke:#000000;stroke-width:0.8438;stroke-linecap:round;}
</style>
<path class="st0" d="M65.4,10.7H46.3c-1.6-6.1-7-10.6-13.6-10.6S20.6,4.6,19.1,10.7H0v6.8h19.1c1.5,6.1,7,10.6,13.6,10.6
	s12.1-4.5,13.6-10.6h19.1C65.4,17.5,65.4,10.7,65.4,10.7z"/>
<circle class="st1" cx="32.7" cy="14.1" r="9.1"/>
<circle class="st2" cx="32.7" cy="14.1" r="7"/>
<g>
	<path id="hand-border_1_" class="st2" d="M32.8,25.8c-0.3-0.4-0.7-1.2-1.4-2.2C31,23.1,30,22,29.7,21.4c-0.2-0.5-0.2-0.7-0.2-1.1
		c0.1-0.7,0.8-1.3,1.6-1.2c0.6,0.1,1.1,0.4,1.5,0.8c0.3,0.2,0.6,0.6,0.8,0.9c0.2,0.2,0.2,0.3,0.4,0.6c0.3,0.3,0.3,0.5,0.2,0.1
		c-0.1-0.6-0.2-1.5-0.4-2.4c-0.1-0.6-0.2-0.7-0.3-1.2c-0.1-0.5-0.2-0.9-0.4-1.4c-0.1-0.4-0.3-1.2-0.3-1.6c-0.1-0.6-0.1-1.6,0.3-2.1
		c0.3-0.4,1-0.5,1.5-0.2c0.6,0.3,0.9,1.1,1.1,1.5c0.3,0.6,0.4,1.3,0.6,2.2c0.2,1.2,0.5,2.8,0.5,3.1c0-0.4-0.1-1.3,0-1.7
		c0.1-0.4,0.4-0.8,0.8-0.9c0.3-0.1,0.7-0.1,1-0.1c0.3,0.1,0.7,0.3,0.9,0.6c0.4,0.7,0.4,2.1,0.4,2.1c0.1-0.4,0.1-1.4,0.3-1.8
		c0.2-0.3,0.6-0.5,0.8-0.5c0.3-0.1,0.7-0.1,1.1,0c0.3,0.1,0.7,0.4,0.8,0.6c0.2,0.4,0.4,1.5,0.4,1.9c0,0.2,0.1-0.4,0.3-0.8
		c0.5-0.7,2.1-0.9,2.1,0.7c0,0.7,0,0.7,0,1.2c0,0.6,0,0.9,0,1.4c0,0.5-0.1,1.5-0.3,2c-0.1,0.3-0.4,1.1-0.7,1.6c0,0-1.2,1.4-1.3,2
		c-0.1,0.6-0.1,0.6-0.1,1.1c0,0.5,0.1,1,0.1,1s-0.9,0.1-1.4,0c-0.4-0.1-1-0.9-1.1-1.2c-0.2-0.4-0.6-0.3-0.8,0
		c-0.3,0.4-0.8,1.2-1.2,1.2c-0.8,0.1-2.3,0-3.5,0c0,0,0.2-1.1-0.3-1.5c-0.3-0.3-0.9-0.9-1.3-1.2L32.8,25.8L32.8,25.8z"/>
	<path id="hand-border" class="st3" d="M32.8,25.8c-0.3-0.4-0.7-1.2-1.4-2.2c-0.4-0.6-1.4-1.6-1.7-2.2c-0.2-0.5-0.2-0.7-0.2-1.1
		c0.1-0.7,0.8-1.3,1.6-1.2c0.6,0.1,1.1,0.4,1.5,0.8c0.3,0.2,0.6,0.6,0.8,0.9c0.2,0.2,0.2,0.3,0.4,0.6c0.3,0.3,0.3,0.5,0.2,0.1
		c-0.1-0.6-0.2-1.5-0.4-2.4c-0.1-0.6-0.2-0.7-0.3-1.2c-0.1-0.5-0.2-0.9-0.4-1.4c-0.1-0.4-0.3-1.2-0.3-1.6c-0.1-0.6-0.1-1.6,0.3-2.1
		c0.3-0.4,1-0.5,1.5-0.2c0.6,0.3,0.9,1.1,1.1,1.5c0.3,0.6,0.4,1.3,0.6,2.2c0.2,1.2,0.5,2.8,0.5,3.1c0-0.4-0.1-1.3,0-1.7
		c0.1-0.4,0.4-0.8,0.8-0.9c0.3-0.1,0.7-0.1,1-0.1c0.3,0.1,0.7,0.3,0.9,0.6c0.4,0.7,0.4,2.1,0.4,2.1c0.1-0.4,0.1-1.4,0.3-1.8
		c0.2-0.3,0.6-0.5,0.8-0.5c0.3-0.1,0.7-0.1,1.1,0c0.3,0.1,0.7,0.4,0.8,0.6c0.2,0.4,0.4,1.5,0.4,1.9c0,0.2,0.1-0.4,0.3-0.8
		c0.5-0.7,2.1-0.9,2.1,0.7c0,0.7,0,0.7,0,1.2c0,0.6,0,0.9,0,1.4c0,0.5-0.1,1.5-0.3,2c-0.1,0.3-0.4,1.1-0.7,1.6c0,0-1.2,1.4-1.3,2
		c-0.1,0.6-0.1,0.6-0.1,1.1c0,0.5,0.1,1,0.1,1s-0.9,0.1-1.4,0c-0.4-0.1-1-0.9-1.1-1.2c-0.2-0.4-0.6-0.3-0.8,0
		c-0.3,0.4-0.8,1.2-1.2,1.2c-0.8,0.1-2.3,0-3.5,0c0,0,0.2-1.1-0.3-1.5c-0.3-0.3-0.9-0.9-1.3-1.2L32.8,25.8L32.8,25.8z"/>
	<path id="line3" class="st4" d="M42.1,26.2v-3.9"/>
	<path id="line2" class="st4" d="M39.8,26.3l0-3.9"/>
	<path id="line1" class="st4" d="M37.6,22.4l0,3.9"/>
</g>
</svg>
