<?xml version="1.0" encoding="utf-8"?>
<!-- Generator: Adobe Illustrator 21.1.0, SVG Export Plug-In . SVG Version: 6.00 Build 0)  -->
<svg version="1.1" id="Capa_1" xmlns="http://www.w3.org/2000/svg" xmlns:xlink="http://www.w3.org/1999/xlink" x="0px" y="0px"
	 viewBox="0 0 103.1 140.9" style="enable-background:new 0 0 103.1 140.9;" xml:space="preserve">
<style type="text/css">
	.st0{fill:#737373;}
</style>
<g>
	<g>
		<g>
		</g>
		<g>
			<path class="st0" d="M98.8,47.3c2.3,0,4.3,1.9,4.3,4.3v85.1c0,2.3-1.9,4.3-4.3,4.3H4.3c-2.3,0-4.3-1.9-4.3-4.3V51.5
				c0-2.3,1.9-4.3,4.3-4.3h33.1c2.3,0,4.3,1.9,4.3,4.3s-1.9,4.3-4.3,4.3h-26H8.5v2.8v70.9v2.8h2.8h80.4h2.8v-2.8V58.6v-2.8h-2.8h-26
				c-2.3,0-4.3-1.9-4.3-4.3s1.9-4.3,4.3-4.3H98.8"/>
		</g>
	</g>
	<path class="st0" d="M48.5,1.3c0.8-0.8,1.9-1.3,3-1.3c1.1,0,2.2,0.5,3,1.2l0,0l24.3,24.3l0,0l0,0c0.8,0.8,1.2,1.8,1.2,3
		c0,1.1-0.4,2.2-1.3,3c-0.8,0.8-1.9,1.2-3,1.2c-1.1,0-2.2-0.5-3-1.2l-17-17v79.6c0,2.3-1.9,4.3-4.3,4.3s-4.3-1.9-4.3-4.3V14.5
		l-17,17c-0.8,0.8-1.9,1.3-3,1.3c-1.1,0-2.2-0.5-3-1.3l0,0l0,0c-0.8-0.8-1.2-1.8-1.2-3c0-1.1,0.4-2.2,1.3-3L48.5,1.3"/>
</g>
</svg>
