<?xml version="1.0" encoding="utf-8"?>
<!-- Generator: Adobe Illustrator 21.1.0, SVG Export Plug-In . SVG Version: 6.00 Build 0)  -->
<svg version="1.1" id="Calque_1" xmlns="http://www.w3.org/2000/svg" xmlns:xlink="http://www.w3.org/1999/xlink" x="0px" y="0px"
	 viewBox="0 0 1755 293" style="enable-background:new 0 0 1755 293;" xml:space="preserve">
<style type="text/css">
	.st0{fill:url(#SVGID_1_);}
	.st1{fill:url(#SVGID_2_);}
	.st2{opacity:0.5;}
	.st3{fill:#222222;}
	.st4{fill:#FFFFFF;}
</style>
<linearGradient id="SVGID_1_" gradientUnits="userSpaceOnUse" x1="877.5" y1="1282" x2="877.5" y2="999.5" gradientTransform="matrix(1 0 0 1 0 -994)">
	<stop  offset="0" style="stop-color:#678FDA"/>
	<stop  offset="1" style="stop-color:#7EA0DF"/>
</linearGradient>
<path class="st0" d="M1730,288H25c-11,0-20-9-20-20V25C5,14,14,5,25,5h1705c11,0,20,9,20,20v242C1750,279,1741,288,1730,288z"/>
<linearGradient id="SVGID_2_" gradientUnits="userSpaceOnUse" x1="877.5" y1="1287" x2="877.5" y2="994.5" gradientTransform="matrix(1 0 0 1 0 -994)">
	<stop  offset="0" style="stop-color:#5976AC"/>
	<stop  offset="1" style="stop-color:#688BC9"/>
</linearGradient>
<path class="st1" d="M1730,293H25c-14,0-25-11-25-25V25C0,11,11,0,25,0h1705c14,0,25,11,25,25v242C1755,282,1744,293,1730,293z
	 M25,10c-8,0-15,7-15,15v242c0,8,7,15,15,15h1705c8,0,15-7,15-15V25c0-8-7-15-15-15C1730,10,25,10,25,10z"/>
<g>
	<g class="st2">
		<g>
			<path class="st3" d="M179,102v15h-30v86h-19v-86H99v-15H179z"/>
			<path class="st3" d="M206,131c5,0,9,1,12,2c4,1,7,4,10,6c3,2,5,6,6,10c2,4,2,9,2,14c0,1,0,2,0,3c0,1,0,2-1,2l-1,1c-1,0-1,0-2,0
				h-44c1,7,2,13,6,16c4,3,8,5,14,5c3,0,5,0,7-1c2-1,4-1,5-2c2-1,3-2,4-2c1,0,2-1,3-1c1,0,1,0,2,0c1,0,1,1,1,1l5,6c-2,2-4,4-6,6
				c-2,2-5,3-7,4c-3,1-5,2-8,2c-3,0-5,1-8,1c-5,0-10-1-14-2c-4-1-8-4-11-7c-3-3-6-7-7-12c-2-5-3-10-3-17c0-5,1-10,2-14c2-4,4-8,7-11
				c3-3,7-6,11-8C195,131,200,131,206,131z M206,143c-5,0-9,1-12,4c-3,3-5,7-5,12h32c0-2,0-4-1-6c-1-2-2-4-3-5s-3-3-5-4
				C211,144,209,143,206,143z"/>
			<path class="st3" d="M251,204v-72h10c2,0,3,0,4,1s1,2,1,3l1,9c3-4,6-8,9-10s7-4,12-4c4,0,6,1,9,2l-2,13c0,1,0,1-1,2c0,0-1,1-2,1
				c-1,0-2,0-3,0c-1,0-3,0-5,0c-4,0-7,1-9,3c-3,2-5,5-7,9v45h-17V204z"/>
			<path class="st3" d="M308,204v-72h11c2,0,4,1,4,3l1,5c1-1,3-3,4-4c1-1,3-2,4-3c2-1,3-2,5-2c2,0,4-1,6-1c5,0,8,1,11,4
				c3,2,5,6,7,10c1-2,3-4,4-6c1-2,4-3,6-4c2-1,4-2,6-2c2-1,5-1,7-1c4,0,7,1,11,2c3,1,6,3,8,5c2,2,4,5,5,9c1,3,2,7,2,12v46h-17v-46
				c0-5-1-8-3-10s-5-3-9-3c-2,0-3,0-5,1c-2,1-3,1-4,3c-1,2-2,3-3,4c-1,2-1,4-1,6v46h-17v-46c0-5-1-8-3-10c-2-2-5-3-9-3c-2,0-5,1-7,2
				c-2,1-4,3-6,5v53h-18V204z"/>
			<path class="st3" d="M447,111c0,1,0,3-1,4c-1,1-1,2-2,3c-1,1-2,2-4,2s-3,1-4,1c-1,0-3,0-4-1c-1-1-2-1-3-2c-1-1-2-2-2-3
				c-1-1-1-3-1-4c0-2,0-3,1-4c1-1,1-3,2-3c1-1,2-2,3-2c1-1,3-1,4-1c2,0,3,0,4,1c1,1,3,1,4,2c1,1,2,2,2,3C446,108,447,109,447,111z
				 M444,132v72h-17v-72C427,132,444,132,444,132z"/>
			<path class="st3" d="M464,204v-72h11c2,0,4,1,4,3l1,6c1-1,3-3,5-4s3-2,5-3s4-2,6-2c2,0,4-1,7-1c4,0,7,1,10,2s6,3,8,6s4,5,5,9
				c1,3,2,7,2,11v46h-17v-46c0-4-1-8-3-10c-2-2-5-4-9-4c-3,0-6,1-8,2c-3,1-5,3-7,6v52h-20V204z"/>
			<path class="st3" d="M573,131c5,0,9,1,12,2c4,1,7,4,10,6c3,2,5,6,6,10c2,4,2,9,2,14c0,1,0,2,0,3c0,1,0,2-1,2l-1,1c-1,0-1,0-2,0
				h-44c1,7,2,13,6,16c4,3,8,5,14,5c3,0,5,0,7-1c2-1,4-1,5-2c2-1,3-2,4-2c1,0,2-1,3-1s1,0,2,0s1,1,1,1l5,6c-2,2-4,4-6,6
				c-2,2-5,3-7,4c-3,1-5,2-8,2s-5,1-8,1c-5,0-10-1-14-2s-8-4-11-7c-3-3-6-7-7-12c-2-5-3-10-3-17c0-5,1-10,2-14c2-4,4-8,7-11
				s7-6,11-8C562,131,568,131,573,131z M573,143c-5,0-9,1-12,4s-5,7-5,12h32c0-2,0-4-1-6c-1-2-2-4-3-5s-3-3-5-4
				C578,144,576,143,573,143z"/>
			<path class="st3" d="M618,204v-72h10c2,0,3,0,4,1s1,2,1,3l1,9c3-4,6-8,9-10c3-2,7-4,12-4c4,0,6,1,9,2l-2,13c0,1,0,1-1,2
				c0,0-1,1-2,1s-2,0-3,0c-1,0-3,0-5,0c-4,0-7,1-9,3c-3,2-5,5-7,9v45h-17V204z"/>
			<path class="st3" d="M721,100v104h-17V100H721z"/>
			<path class="st3" d="M797,204h-8c-2,0-3,0-4-1c-1,0-2-1-2-3l-2-5c-2,2-4,3-5,4c-2,1-4,2-5,3c-1,1-4,1-6,2c-2,0-4,1-7,1
				c-3,0-6,0-8-1c-3-1-5-2-7-4c-2-2-3-4-4-6c-2-3-2-6-2-9s1-5,2-8c1-3,4-5,7-7c3-2,8-4,13-5c5-1,12-2,21-2v-4c0-5-1-8-3-11
				c-2-2-5-3-9-3c-3,0-5,0-7,1c-2,1-3,1-5,2c-1,1-3,2-4,2c-1,1-2,1-4,1c-1,0-2,0-3-1s-2-1-2-2l-3-6c8-8,18-11,30-11c4,0,8,1,11,2
				c3,1,6,3,8,6c2,2,4,5,5,9c1,3,2,7,2,11v45H797z M763,193c2,0,3,0,5,0c2,0,3-1,4-1c1-1,3-1,4-2c1-1,2-2,4-3v-12c-5,0-9,0-13,1
				c-3,1-6,1-8,2c-2,1-4,2-4,3c-1,1-1,3-1,4c0,3,1,5,3,7C759,194,760,193,763,193z"/>
			<path class="st3" d="M891,147c-1,1-1,1-2,2s-1,1-2,1c-1,0-2,0-3-1s-2-1-3-2c-1-1-3-1-4-2c-2-1-4-1-6-1c-3,0-6,1-8,2c-2,1-4,3-6,5
				c-2,2-3,5-3,7c-1,3-1,6-1,10c0,4,0,7,1,10c1,3,2,5,4,8c2,2,3,4,6,5c2,1,5,2,7,2c2,0,5,0,7-1c2-1,3-1,4-2c1-1,2-2,3-2c1-1,2-1,3-1
				c1,0,2,1,3,2l5,6c-2,2-4,4-6,6c-2,2-5,3-7,4c-2,1-5,2-7,2c-2,0-5,1-8,1c-4,0-9-1-13-2c-4-1-7-4-10-7c-3-3-5-7-7-12
				c-2-5-3-10-3-16c0-5,1-10,2-15c2-4,4-8,7-12c3-4,7-6,11-8c4-2,9-3,15-3c5,0,10,1,14,3c4,2,8,4,11,7L891,147z"/>
			<path class="st3" d="M938,131c5,0,10,1,15,3s8,4,11,7s5,7,7,12c2,5,3,10,3,15c0,6-1,11-3,15c-2,5-4,8-7,12c-3,3-7,6-11,7
				c-4,2-9,3-15,3c-5,0-10-1-15-3c-4-2-8-4-11-7c-3-3-6-7-7-12c-2-5-3-10-3-15c0-6,1-11,3-15c2-5,4-8,7-12c3-4,7-6,11-7
				C928,132,933,131,938,131z M938,191c6,0,10-2,13-6c3-4,4-10,4-18c0-8-1-14-4-18c-3-4-7-6-13-6c-6,0-11,2-13,6c-3,4-4,10-4,18
				s1,14,4,18C928,189,932,191,938,191z"/>
			<path class="st3" d="M987,204v-72h11c2,0,4,1,4,3l1,6c1-1,3-3,5-4c2-1,3-2,5-3c2-1,4-2,6-2c2,0,4-1,7-1c4,0,7,1,10,2c3,1,6,3,8,6
				c2,3,4,5,5,9c1,3,2,7,2,11v46h-17v-46c0-4-1-8-3-10c-2-2-5-4-9-4c-3,0-6,1-8,2c-3,1-5,3-7,6v52h-20V204z"/>
			<path class="st3" d="M1070,204v-59l-6-1c-1,0-2-1-3-1c-1-1-1-2-1-3v-7h11v-5c0-4,1-8,2-11s3-6,5-8c2-2,5-4,8-5c3-1,7-2,11-2
				c3,0,6,0,9,1v9c0,1-1,2-2,3c-1,0-3,0-4,0c-2,0-4,0-5,1c-2,0-3,1-4,2c-1,1-2,3-3,4c-1,2-1,4-1,7v5h19v12h-19v59h-17V204z"/>
			<path class="st3" d="M1137,111c0,1,0,3-1,4c-1,1-1,2-2,3c-1,1-2,2-4,2c-2,0-3,1-4,1s-3,0-4-1c-1-1-2-1-3-2c-1-1-2-2-2-3
				c-1-1-1-3-1-4c0-2,0-3,1-4c1-1,1-3,2-3c1-1,2-2,3-2c1-1,3-1,4-1c2,0,3,0,4,1c1,1,3,1,4,2c1,1,2,2,2,3C1136,108,1137,109,1137,111
				z M1134,132v72h-17v-72C1117,132,1134,132,1134,132z"/>
			<path class="st3" d="M1179,131c3,0,6,0,9,1s5,2,7,3h21v6c0,1,0,2-1,3s-2,1-3,1l-6,1c0,1,1,2,1,4c0,1,0,3,0,4c0,4-1,7-2,10
				c-1,3-3,5-6,7c-2,2-5,4-9,5c-3,1-7,2-11,2c-3,0-5,0-8-1c-2,1-3,3-3,5c0,1,1,3,2,3s3,1,5,1s5,0,7,0s6,0,8,0s6,1,8,1c3,1,5,2,7,3
				c2,1,4,3,5,5c1,2,2,5,2,8c0,3-1,6-2,9c-2,3-4,6-7,8c-3,2-7,4-11,6c-4,1-9,2-15,2c-5,0-10-1-14-2c-4-1-7-2-10-4c-3-2-5-4-6-6
				c-1-2-2-5-2-7c0-3,1-6,3-8c2-2,5-4,9-5c-2-1-3-2-4-4c-1-2-2-4-2-6c0-1,0-2,1-3c0-1,1-2,2-3s2-2,3-3c1-1,3-2,4-3c-4-2-6-5-9-8
				c-2-3-3-7-3-11s1-7,2-10c1-3,3-5,6-7c3-2,6-4,9-5C1171,131,1174,131,1179,131z M1198,207c0-1,0-3-1-4c-1-1-2-2-3-2s-3-1-5-1
				s-4,0-6,0s-4,0-7,0c-2,0-5,0-7-1c-2,1-4,2-5,4c-1,1-2,3-2,5c0,1,0,2,1,4c1,1,2,2,3,3c1,1,3,1,5,2c2,0,5,1,8,1s6,0,8-1
				c2-1,4-1,6-2c2-1,3-2,3-3C1197,209,1198,208,1198,207z M1179,166c2,0,4,0,6-1c2-1,3-1,4-2s2-2,2-4c0-2,1-3,1-5c0-4-1-6-3-8
				c-2-2-5-3-10-3s-7,1-10,3c-2,2-3,5-3,8c0,2,0,3,1,5c1,2,1,3,2,4c1,1,2,2,4,2C1175,165,1176,166,1179,166z"/>
			<path class="st3" d="M1242,132v46c0,4,1,8,3,10c2,2,5,4,9,4c3,0,6-1,8-2c3-1,5-3,7-5v-52h17v72h-9c-2,0-4-1-4-3l-1-6
				c-1,1-3,3-5,4c-2,1-3,2-5,3c-2,1-4,2-6,2s-4,1-7,1c-4,0-7-1-10-2c-3-1-6-3-8-6c-2-2-4-5-5-9c-1-3-2-7-2-11v-46
				C1224,132,1242,132,1242,132z"/>
			<path class="st3" d="M1306,204v-72h10c2,0,3,0,4,1c1,1,1,2,1,3l1,9c3-4,6-8,9-10s7-4,12-4c4,0,6,1,9,2l-2,13c0,1,0,1-1,2
				c0,0-1,1-2,1c-1,0-2,0-3,0c-1,0-3,0-5,0c-4,0-7,1-9,3c-3,2-5,5-7,9v45h-17V204z"/>
			<path class="st3" d="M1417,204h-8c-2,0-3,0-4-1c-1,0-2-1-2-3l-2-5c-2,2-4,3-5,4c-2,1-4,2-5,3c-1,1-4,1-6,2c-2,0-4,1-7,1
				c-3,0-6,0-8-1c-3-1-5-2-7-4c-2-2-3-4-4-6c-1-2-2-5-2-9c0-3,1-5,2-8c1-3,4-5,7-7c3-2,8-4,13-5c5-1,12-2,21-2v-4c0-5-1-8-3-11
				c-2-2-5-3-9-3c-3,0-5,0-7,1c-2,1-3,1-5,2c-1,1-3,2-4,2c-1,1-2,1-4,1c-1,0-2,0-3-1c-1-1-2-1-2-2l-3-6c8-8,18-11,30-11
				c4,0,8,1,11,2c3,1,6,3,8,6c2,2,4,5,5,9c1,3,2,7,2,11v45H1417z M1384,193c2,0,3,0,5,0s3-1,4-1c1-1,3-1,4-2c1-1,2-2,4-3v-12
				c-5,0-9,0-13,1c-3,1-6,1-8,2c-2,1-4,2-4,3c-1,1-1,3-1,4c0,3,1,5,3,7C1380,194,1381,193,1384,193z"/>
			<path class="st3" d="M1458,205c-6,0-11-2-14-5c-3-4-5-8-5-15v-40h-7c-1,0-2,0-2-1c-1-1-1-2-1-3v-7l12-2l4-20c0-1,1-2,1-2
				c1-1,2-1,3-1h9v23h19v12h-19v39c0,2,1,4,2,5c1,1,3,2,4,2c1,0,2,0,3,0c1,0,1-1,2-1c1,0,1-1,1-1h1c1,0,1,0,1,0l1,1l5,8
				c-3,2-5,4-9,5C1465,204,1461,205,1458,205z"/>
			<path class="st3" d="M1509,111c0,1,0,3-1,4c-1,1-1,2-2,3c-1,1-2,2-4,2s-3,1-4,1c-1,0-3,0-4-1c-1-1-2-1-3-2c-1-1-2-2-2-3
				c-1-1-1-3-1-4c0-2,0-3,1-4c1-1,1-3,2-3c1-1,2-2,3-2c1-1,3-1,4-1c2,0,3,0,4,1c1,1,3,1,4,2c1,1,2,2,2,3C1508,108,1509,109,1509,111
				z M1507,132v72h-17v-72C1490,132,1507,132,1507,132z"/>
			<path class="st3" d="M1557,131c5,0,10,1,15,3s8,4,11,7c3,3,5,7,7,12c2,5,3,10,3,15c0,6-1,11-3,15c-2,5-4,8-7,12c-3,3-7,6-11,7
				c-4,2-9,3-15,3c-5,0-10-1-15-3c-4-2-8-4-11-7c-3-3-6-7-7-12c-2-5-3-10-3-15c0-6,1-11,3-15c2-5,4-8,7-12c3-4,7-6,11-7
				C1547,132,1552,131,1557,131z M1557,191c6,0,10-2,13-6c3-4,4-10,4-18c0-8-1-14-4-18c-3-4-7-6-13-6c-6,0-11,2-13,6c-3,4-4,10-4,18
				s1,14,4,18C1546,189,1551,191,1557,191z"/>
			<path class="st3" d="M1606,204v-72h11c2,0,4,1,4,3l1,6c1-1,3-3,5-4s3-2,5-3s4-2,6-2c2,0,4-1,7-1c4,0,7,1,10,2c3,1,6,3,8,6
				c2,3,4,5,5,9c1,3,2,7,2,11v46h-17v-46c0-4-1-8-3-10c-2-2-5-4-9-4c-3,0-6,1-8,2c-3,1-5,3-7,6v52h-20V204z"/>
		</g>
	</g>
	<g>
		<g>
			<path class="st4" d="M169,92v15h-30v86h-19v-86H89V92H169z"/>
			<path class="st4" d="M196,121c5,0,9,1,12,2c4,1,7,4,10,6c3,2,5,6,6,10c2,4,2,9,2,14c0,1,0,2,0,3s0,2-1,2l-1,1c-1,0-1,0-2,0h-44
				c1,7,2,13,6,16c4,3,8,5,14,5c3,0,5,0,7-1c2-1,4-1,5-2c2-1,3-2,4-2c1,0,2-1,3-1c1,0,1,0,2,0c1,0,1,1,1,1l5,6c-2,2-4,4-6,6
				c-2,2-5,3-7,4c-3,1-5,2-8,2c-3,0-5,1-8,1c-5,0-10-1-14-2c-4-1-8-4-11-7c-3-3-6-7-7-12c-2-5-3-10-3-17c0-5,1-9,2-14c2-4,4-8,7-11
				c3-3,7-6,11-8C185,121,190,121,196,121z M196,133c-5,0-9,1-12,4c-3,3-5,7-5,12h32c0-2,0-4-1-6c-1-2-2-4-3-5s-3-3-5-4
				C201,134,199,133,196,133z"/>
			<path class="st4" d="M241,194v-72h10c2,0,3,0,4,1c1,1,1,2,1,3l1,9c3-4,6-8,9-10c3-2,7-4,12-4c4,0,6,1,9,2l-2,13c0,1,0,1-1,2
				c0,0-1,1-2,1c-1,0-2,0-3,0c-1,0-3,0-5,0c-4,0-7,1-9,3c-2,2-5,5-7,9v45h-17V194z"/>
			<path class="st4" d="M298,194v-72h11c2,0,4,1,4,3l1,5c1-1,3-3,4-4c1-1,3-2,4-3c2-1,3-2,5-2c2,0,4-1,6-1c5,0,8,1,11,4
				c3,2,5,6,7,10c1-2,3-4,4-6c1-2,4-3,6-4c2-1,4-2,6-2c2-1,5-1,7-1c4,0,7,1,11,2c3,1,6,3,8,5c2,2,4,5,5,9c1,3,2,7,2,12v46h-17v-46
				c0-5-1-8-3-10s-5-3-9-3c-2,0-3,0-5,1c-2,1-3,1-4,3c-1,2-2,3-3,4c-1,2-1,4-1,6v46h-17v-46c0-5-1-8-3-10c-2-2-5-3-9-3c-2,0-5,1-7,2
				c-2,1-4,3-6,5v53h-18V194z"/>
			<path class="st4" d="M437,101c0,1,0,3-1,4c-1,1-1,2-2,3c-1,1-2,2-4,2s-3,1-4,1c-1,0-3,0-4-1c-1-1-2-1-3-2c-1-1-2-2-2-3
				c-1-1-1-3-1-4c0-2,0-3,1-4c1-1,1-3,2-3c0-2,1-3,2-3c1-1,3-1,4-1c2,0,3,0,4,1c1,1,3,1,4,2c1,1,2,2,2,3C435,97,437,99,437,101z
				 M434,122v72h-17v-72C417,122,434,122,434,122z"/>
			<path class="st4" d="M454,194v-72h11c2,0,4,1,4,3l1,6c1-1,3-3,5-4s3-2,5-3c2-1,4-2,6-2c2,0,4-1,7-1c4,0,7,1,10,2c3,1,6,3,8,6
				c2,3,4,5,5,9c1,3,2,7,2,11v46h-17v-46c0-4-1-8-3-10c-2-2-5-4-9-4c-3,0-6,1-8,2c-3,1-5,3-7,6v52h-20V194z"/>
			<path class="st4" d="M563,121c5,0,9,1,12,2c4,1,7,4,10,6c3,2,5,6,6,10c2,4,2,9,2,14c0,1,0,2,0,3s0,2-1,2l-1,1c-1,0-1,0-2,0h-44
				c1,7,2,13,6,16c4,3,8,5,14,5c3,0,5,0,7-1c2-1,4-1,5-2c2-1,3-2,4-2c1,0,2-1,3-1s1,0,2,0s1,1,1,1l5,6c-2,2-4,4-6,6c-2,2-5,3-7,4
				c-3,1-5,2-8,2s-5,1-8,1c-5,0-10-1-14-2s-8-4-11-7c-3-3-6-7-7-12c-2-5-3-10-3-17c0-5,1-9,2-14c2-4,4-8,7-11s7-6,11-8
				C552,121,558,121,563,121z M563,133c-5,0-9,1-12,4s-5,7-5,12h32c0-2,0-4-1-6c-1-2-2-4-3-5s-3-3-5-4C568,134,566,133,563,133z"/>
			<path class="st4" d="M608,194v-72h10c2,0,3,0,4,1c1,1,1,2,1,3l1,9c3-4,6-8,9-10c3-2,7-4,12-4c4,0,6,1,9,2l-2,13c0,1,0,1-1,2
				c0,0-1,1-2,1s-2,0-3,0c-1,0-3,0-5,0c-4,0-7,1-9,3s-5,5-7,9v45h-17V194z"/>
			<path class="st4" d="M711,90v104h-17V90H711z"/>
			<path class="st4" d="M787,194h-8c-2,0-3,0-4-1c-1,0-2-1-2-3l-2-5c-2,2-4,3-5,4c-2,1-4,2-5,3c-1,1-4,1-6,2c-2,0-4,1-7,1
				c-3,0-6,0-8-1c-3-1-5-2-7-4c-2-2-3-4-4-6c-2-3-2-6-2-9s1-5,2-8c1-3,4-5,7-7c3-2,8-4,13-5c5-1,12-2,21-2v-4c0-5-1-8-3-11
				c-2-2-5-3-9-3c-3,0-5,0-7,1c-2,1-3,1-5,2c-1,1-3,2-4,2c-1,1-2,1-4,1c-1,0-2,0-3-1c-1-1-2-1-2-2l-3-6c8-8,18-11,30-11
				c4,0,8,1,11,2c3,1,6,3,8,6c2,2,4,5,5,9c1,3,2,7,2,11v45H787z M753,183c2,0,3,0,5,0c2,0,3-1,4-1c1-1,3-1,4-2c1-1,2-2,4-3v-12
				c-5,0-9,0-13,1c-3,1-6,1-8,2c-2,1-4,2-4,3c-1,1-1,3-1,4c0,3,1,5,3,7C749,184,750,183,753,183z"/>
			<path class="st4" d="M881,137c-1,1-1,1-2,2s-1,1-2,1c-1,0-2,0-3-1s-2-1-3-2c-1-1-3-1-4-2c-2-1-4-1-6-1c-3,0-6,1-8,2c-2,1-4,3-6,5
				c-2,2-3,5-3,7c-1,3-1,6-1,10s0,7,1,10c1,3,2,5,4,8c2,2,3,4,6,5c2,1,5,2,7,2c2,0,5,0,7-1c2-1,3-1,4-2c1-1,2-2,3-2c1-1,2-1,3-1
				c1,0,2,1,3,2l5,6c-2,2-4,4-6,6c-2,2-5,3-7,4c-2,1-5,2-7,2c-2,0-5,1-8,1c-4,0-9-1-13-2c-4-1-7-4-10-7c-3-3-5-7-7-12
				c-2-5-3-10-3-16c0-5,1-10,2-15c2-5,4-8,7-12c3-4,7-6,11-8c4-2,9-3,15-3c5,0,10,1,14,3c4,2,8,4,11,7L881,137z"/>
			<path class="st4" d="M928,121c5,0,10,1,15,3s8,4,11,7s5,7,7,12c2,5,3,10,3,15c0,6-1,11-3,15c-2,5-4,8-7,12c-3,3-7,6-11,7
				c-4,2-9,3-15,3c-5,0-10-1-15-3c-4-2-8-4-11-7c-3-3-6-7-7-12c-2-5-3-10-3-15c0-6,1-11,3-15c2-5,4-8,7-12c3-4,7-6,11-7
				C918,122,923,121,928,121z M928,181c6,0,10-2,13-6c3-4,4-10,4-18c0-8-1-14-4-18c-3-4-7-6-13-6c-6,0-11,2-13,6c-3,4-4,10-4,18
				c0,8,1,14,4,18C918,179,922,181,928,181z"/>
			<path class="st4" d="M977,194v-72h11c2,0,4,1,4,3l1,6c1-1,3-3,5-4c2-1,3-2,5-3c2-1,4-2,6-2c2,0,4-1,7-1c4,0,7,1,10,2c3,1,6,3,8,6
				c2,3,4,5,5,9c1,3,2,7,2,11v46h-17v-46c0-4-1-8-3-10c-2-2-5-4-9-4c-3,0-6,1-8,2c-3,1-5,3-7,6v52h-20V194z"/>
			<path class="st4" d="M1060,194v-59l-6-1c-1,0-2-1-3-1c-1-1-1-2-1-3v-7h11v-5c0-4,1-8,2-11s3-6,5-8c2-2,5-4,8-5c3-3,6-3,11-3
				c3,0,6,0,9,1v9c0,1-1,2-2,3c-1,0-3,0-4,0c-2,0-4,0-5,1c-2,0-3,1-4,2c-1,1-2,3-3,4c-1,2-1,4-1,7v5h19v12h-19v59H1060z"/>
			<path class="st4" d="M1127,101c0,1,0,3-1,4c-1,1-1,2-2,3c-1,1-2,2-4,2c-2,0-3,1-4,1s-3,0-4-1c-1-1-2-1-3-2c-1-1-2-2-2-3
				c-1-1-1-3-1-4c0-2,0-3,1-4c1-1,1-3,2-3c1-1,2-2,3-2c1-1,3-1,4-1c2,0,3,0,4,1c1,1,3,1,4,2c1,1,2,2,2,3C1126,98,1127,99,1127,101z
				 M1124,122v72h-17v-72C1107,122,1124,122,1124,122z"/>
			<path class="st4" d="M1169,121c3,0,6,0,9,1c3,1,5,2,7,3h21v6c0,1,0,2-1,3s-2,1-3,1l-6,1c0,1,1,2,1,4c0,1,0,3,0,4c0,4-1,7-2,10
				s-3,5-6,7c-2,2-5,4-9,5c-3,1-7,2-11,2c-3,0-5,0-8-1c-2,1-3,3-3,5c0,1,1,3,2,3s3,1,5,1s5,0,7,0s6,0,8,0s6,1,8,1c3,1,5,2,7,3
				c2,1,4,3,5,5c1,2,2,5,2,8c0,3-1,6-2,9c-2,3-4,6-7,8c-3,2-7,4-11,6c-4,1-9,2-15,2c-5,0-10-1-14-2c-4-1-7-2-10-4c-3-2-5-4-6-6
				c-1-2-2-5-2-7c0-3,1-6,3-8c2-2,5-4,9-5c-2-1-3-2-4-4c-1-2-2-4-2-6c0-1,0-2,1-3c0-1,1-2,2-3s2-2,3-3c1-1,3-2,4-3c-4-2-6-5-9-8
				c-2-3-3-7-3-11c0-4,1-7,2-10c1-3,3-5,6-7c3-2,6-4,9-5C1161,121,1164,121,1169,121z M1188,197c0-1,0-3-1-4c-1-1-2-2-3-2s-3-1-5-1
				s-4,0-6,0s-4,0-7,0c-2,0-5,0-7-1c-2,1-4,2-5,4c-1,1-2,3-2,5c0,1,0,2,1,4c1,1,2,2,3,3c1,1,3,1,5,2c2,0,5,1,8,1s6,0,8-1
				c2-1,4-1,6-2c2-1,3-2,3-3C1187,199,1188,198,1188,197z M1169,156c2,0,4,0,6-1c2-1,3-1,4-2c1-1,2-2,2-4s1-3,1-5c0-4-1-6-3-8
				c-2-2-5-3-10-3s-7,1-10,3c-2,2-3,5-3,8c0,2,0,3,1,5s1,3,2,4c1,1,2,2,4,2C1165,155,1166,156,1169,156z"/>
			<path class="st4" d="M1232,122v46c0,4,1,8,3,10c2,2,5,4,9,4c3,0,6-1,8-2c3-1,5-3,7-5v-52h17v72h-9c-2,0-4-1-4-3l-1-6
				c-1,1-3,3-5,4c-2,1-3,2-5,3c-2,1-4,2-6,2s-4,1-7,1c-4,0-7-1-10-2c-3-1-6-3-8-6c-2-2-4-5-5-9c-1-3-2-7-2-11v-46
				C1214,122,1232,122,1232,122z"/>
			<path class="st4" d="M1296,194v-72h10c2,0,3,0,4,1c1,1,1,2,1,3l1,9c3-4,6-8,9-10c3-2,7-4,12-4c4,0,6,1,9,2l-2,13c0,1,0,1-1,2
				c0,0-1,1-2,1c-1,0-2,0-3,0c-1,0-3,0-5,0c-4,0-7,1-9,3s-5,5-7,9v45h-17V194z"/>
			<path class="st4" d="M1407,194h-8c-2,0-3,0-4-1c-1,0-2-1-2-3l-2-5c-2,2-4,3-5,4c-2,1-4,2-5,3c-1,1-4,1-6,2c-2,0-4,1-7,1
				c-3,0-6,0-8-1c-3-1-5-2-7-4c-2-2-3-4-4-6c-1-2-2-5-2-9c0-3,1-5,2-8c1-3,4-5,7-7s8-4,13-5c5-1,12-2,21-2v-4c0-5-1-8-3-11
				c-2-2-5-3-9-3c-3,0-5,0-7,1c-2,1-3,1-5,2c-1,1-3,2-4,2c-1,1-2,1-4,1c-1,0-2,0-3-1c-1-1-2-1-2-2l-3-6c8-8,18-11,30-11
				c4,0,8,1,11,2c3,1,6,3,8,6c2,2,4,5,5,9c1,3,2,7,2,11v45H1407z M1374,183c2,0,3,0,5,0s3-1,4-1c1-1,3-1,4-2c1-1,2-2,4-3v-12
				c-5,0-9,0-13,1c-3,1-6,1-8,2c-2,1-4,2-4,3c-1,1-1,3-1,4c0,3,1,5,3,7C1370,184,1371,183,1374,183z"/>
			<path class="st4" d="M1448,195c-6,0-11-2-14-5c-3-4-5-8-5-15v-40h-7c-1,0-2,0-2-1c-1-1-1-2-1-3v-7l12-2l4-20c0-1,1-2,1-2
				c1-1,2-1,3-1h9v23h19v12h-19v39c0,2,1,4,2,5c1,1,3,2,4,2c1,0,2,0,3,0c1,0,1-1,2-1c1,0,1-1,1-1h1c1,0,1,0,1,0l1,1l5,8
				c-3,2-5,4-9,5C1455,194,1451,195,1448,195z"/>
			<path class="st4" d="M1499,101c0,1,0,3-1,4c-1,1-1,2-2,3c-1,1-2,2-4,2s-3,1-4,1c-1,0-3,0-4-1c-1-1-2-1-3-2c-1-1-2-2-2-3
				c-1-1-1-3-1-4c0-2,0-3,1-4c1-1,1-3,2-3c1-1,2-2,3-2c1-1,3-1,4-1c2,0,3,0,4,1c1,1,3,1,4,2c1,1,2,2,2,3C1498,98,1499,99,1499,101z
				 M1497,122v72h-17v-72C1480,122,1497,122,1497,122z"/>
			<path class="st4" d="M1547,121c5,0,10,1,15,3s8,4,11,7c3,3,5,7,7,12c2,5,3,10,3,15c0,6-1,11-3,15c-2,5-4,8-7,12c-3,3-7,6-11,7
				c-4,2-9,3-15,3c-5,0-10-1-15-3c-4-2-8-4-11-7c-3-3-6-7-7-12c-2-5-3-10-3-15c0-6,1-11,3-15c2-5,4-8,7-12c3-4,7-6,11-7
				C1537,122,1542,121,1547,121z M1547,181c6,0,10-2,13-6c3-4,4-10,4-18c0-8-1-14-4-18c-3-4-7-6-13-6c-6,0-11,2-13,6c-3,4-4,10-4,18
				c0,8,1,14,4,18C1536,179,1541,181,1547,181z"/>
			<path class="st4" d="M1596,194v-72h11c2,0,4,1,4,3l1,6c1-1,3-3,5-4s3-2,5-3c2-1,4-2,6-2c2,0,4-1,7-1c4,0,7,1,10,2c3,1,6,3,8,6
				c2,3,4,5,5,9c1,3,2,7,2,11v46h-17v-46c0-4-1-8-3-10c-2-2-5-4-9-4c-3,0-6,1-8,2c-3,1-5,3-7,6v52h-20V194z"/>
		</g>
	</g>
</g>
</svg>
