<?xml version="1.0" encoding="utf-8"?>
<!-- Generator: Adobe Illustrator 26.0.2, SVG Export Plug-In . SVG Version: 6.00 Build 0)  -->
<svg version="1.1" id="Calque_1" xmlns="http://www.w3.org/2000/svg" xmlns:xlink="http://www.w3.org/1999/xlink" x="0px" y="0px"
	 viewBox="0 0 823.4 292" style="enable-background:new 0 0 823.4 292;" xml:space="preserve">
<style type="text/css">
	.st0{fill:url(#SVGID_1_);}
	.st1{fill:url(#SVGID_00000147923276042253593450000011739519935135635880_);}
	.st2{fill:#FFFFFF;}
	.st3{fill:#333333;}
</style>
<g>
	
		<linearGradient id="SVGID_1_" gradientUnits="userSpaceOnUse" x1="2636.3" y1="-1139.8425" x2="2636.3" y2="-847.8425" gradientTransform="matrix(-1 0 0 -1 3048 -847.8425)">
		<stop  offset="0" style="stop-color:#BBBBBB"/>
		<stop  offset="1" style="stop-color:#DCDCDC"/>
	</linearGradient>
	<path class="st0" d="M25,282c-8,0-15-7-15-15V25c0-8,7-15,15-15h773.5c8,0,15,7,15,15v242c0,8-7,15-15,15H25z M798.4,292
		c14,0,25-11,25-25V25c0-14-11-25-25-25H25C11,0,0,11,0,25v242c0,14,11,25,25,25H798.4z"/>
</g>
<linearGradient id="SVGID_00000041274789872076709300000005637543320729860225_" gradientUnits="userSpaceOnUse" x1="2636.25" y1="740.1575" x2="2636.25" y2="468.1575" gradientTransform="matrix(-1 0 0 1 3048 -458.1575)">
	<stop  offset="0" style="stop-color:#E8E8E8"/>
	<stop  offset="1" style="stop-color:#F9F9F9"/>
</linearGradient>
<path style="fill:url(#SVGID_00000041274789872076709300000005637543320729860225_);" d="M25,282c-8,0-15-7-15-15V25c0-8,7-15,15-15
	h773.5c8,0,15,7,15,15v242c0,8-7,15-15,15H25z"/>
<path class="st2" d="M213.9,147.6v16.7c0,4.6-3.7,8.4-8.4,8.4h-36.2V209c0,4.6-3.7,8.4-8.4,8.4h-16.7c-4.6,0-8.4-3.7-8.4-8.4v-36.2
	H99.6c-4.6,0-8.4-3.7-8.4-8.4v-16.8c0-4.6,3.7-8.4,8.4-8.4h36.2V103c0-4.6,3.7-8.4,8.4-8.4H161c4.6,0,8.4,3.7,8.4,8.4v36.2h36.2
	C210.2,139.3,213.9,143,213.9,147.6z"/>
<path class="st3" d="M203.9,137.6v16.7c0,4.6-3.7,8.4-8.4,8.4h-36.2V199c0,4.6-3.7,8.4-8.4,8.4h-16.7c-4.6,0-8.4-3.7-8.4-8.4v-36.2
	H89.6c-4.6,0-8.4-3.7-8.4-8.4v-16.8c0-4.6,3.7-8.4,8.4-8.4h36.2V93c0-4.6,3.7-8.4,8.4-8.4H151c4.6,0,8.4,3.7,8.4,8.4v36.2h36.2
	C200.2,129.3,203.9,133,203.9,137.6z"/>
<g>
	<path class="st2" d="M382.1,203.6h-14.6c-1.6,0-3-0.4-4-1.2s-1.8-1.8-2.3-3l-7.6-20.7h-41.9l-7.6,20.7c-0.4,1.1-1.1,2.1-2.2,2.9
		c-1.1,0.9-2.4,1.3-4,1.3h-14.6l39.8-101.2h19.2L382.1,203.6z M316.5,165.4h32.3l-12.3-33.7c-0.6-1.5-1.2-3.3-1.9-5.3
		c-0.7-2-1.3-4.2-2-6.6c-0.7,2.4-1.3,4.6-1.9,6.7c-0.6,2.1-1.2,3.8-1.9,5.4L316.5,165.4z"/>
	<path class="st2" d="M409.9,131.8v74.3c0,3.1-0.4,6.1-1.2,8.8c-0.8,2.8-2.1,5.2-3.9,7.2c-1.8,2.1-4.2,3.7-7.1,4.9
		c-2.9,1.2-6.5,1.8-10.7,1.8c-1.6,0-3.1-0.1-4.5-0.3s-2.8-0.5-4.3-1l0.6-9.3c0.1-0.9,0.5-1.5,1.1-1.8c0.6-0.3,1.8-0.4,3.5-0.4
		c1.7,0,3.2-0.2,4.4-0.5c1.2-0.4,2.1-0.9,2.9-1.7c0.7-0.8,1.2-1.8,1.5-3c0.3-1.3,0.5-2.8,0.5-4.7v-74.3H409.9z M412.5,110.8
		c0,1.5-0.3,2.9-0.9,4.2c-0.6,1.3-1.4,2.5-2.4,3.4c-1,1-2.2,1.8-3.5,2.3c-1.4,0.6-2.8,0.9-4.3,0.9c-1.5,0-2.9-0.3-4.2-0.9
		c-1.3-0.6-2.5-1.4-3.5-2.3c-1-1-1.8-2.1-2.3-3.4c-0.6-1.3-0.9-2.7-0.9-4.2c0-1.5,0.3-3,0.9-4.3c0.6-1.4,1.4-2.5,2.3-3.5
		c1-1,2.1-1.8,3.5-2.3c1.3-0.6,2.7-0.9,4.2-0.9c1.5,0,3,0.3,4.3,0.9c1.4,0.6,2.5,1.4,3.5,2.3c1,1,1.8,2.1,2.4,3.5
		C412.2,107.9,412.5,109.3,412.5,110.8z"/>
	<path class="st2" d="M459.8,130.7c5.4,0,10.2,0.9,14.6,2.6c4.4,1.7,8.1,4.2,11.2,7.3c3.1,3.2,5.5,7,7.1,11.6
		c1.7,4.6,2.5,9.7,2.5,15.3c0,5.7-0.8,10.8-2.5,15.4c-1.7,4.6-4.1,8.5-7.1,11.7s-6.8,5.7-11.2,7.4c-4.4,1.7-9.2,2.6-14.6,2.6
		c-5.4,0-10.2-0.9-14.6-2.6c-4.4-1.7-8.1-4.2-11.2-7.4c-3.1-3.2-5.5-7.1-7.2-11.7c-1.7-4.6-2.6-9.7-2.6-15.4
		c0-5.6,0.9-10.8,2.6-15.3c1.7-4.6,4.1-8.4,7.2-11.6c3.1-3.2,6.8-5.6,11.2-7.3C449.6,131.5,454.5,130.7,459.8,130.7z M459.8,191.4
		c6,0,10.4-2,13.3-6s4.3-9.9,4.3-17.6c0-7.7-1.4-13.6-4.3-17.7c-2.9-4.1-7.3-6.1-13.3-6.1c-6.1,0-10.5,2-13.4,6.1
		c-2.9,4.1-4.3,10-4.3,17.7s1.4,13.6,4.3,17.6C449.3,189.3,453.8,191.4,459.8,191.4z"/>
	<path class="st2" d="M524.6,131.8v45.6c0,4.4,1,7.8,3,10.2c2,2.4,5.1,3.6,9.1,3.6c3,0,5.8-0.7,8.4-2s5.1-3.2,7.4-5.5v-51.9h17.3
		v71.8h-10.6c-2.2,0-3.7-1-4.4-3.2l-1.2-5.7c-1.5,1.5-3,2.9-4.6,4.1c-1.6,1.2-3.3,2.3-5.1,3.2s-3.7,1.5-5.8,2s-4.3,0.7-6.7,0.7
		c-3.9,0-7.4-0.7-10.4-2c-3-1.3-5.5-3.2-7.6-5.6c-2.1-2.4-3.6-5.3-4.7-8.6c-1.1-3.3-1.6-7-1.6-11v-45.6H524.6z"/>
	<path class="st2" d="M611.9,204.7c-6.2,0-11-1.8-14.3-5.3c-3.4-3.5-5-8.4-5-14.6v-40.1h-7.3c-0.9,0-1.7-0.3-2.4-0.9
		c-0.7-0.6-1-1.5-1-2.7v-6.9l11.5-1.9l3.6-19.6c0.2-0.9,0.6-1.7,1.3-2.2c0.7-0.5,1.5-0.8,2.6-0.8h9v22.6h18.9v12.3h-18.9v38.9
		c0,2.2,0.6,4,1.7,5.2s2.6,1.9,4.5,1.9c1.1,0,2-0.1,2.7-0.4c0.7-0.3,1.4-0.5,1.9-0.8c0.5-0.3,1-0.5,1.4-0.8c0.4-0.3,0.8-0.4,1.3-0.4
		c0.5,0,0.9,0.1,1.3,0.4c0.3,0.3,0.7,0.6,1.1,1.2l5.2,8.4c-2.5,2.1-5.4,3.7-8.7,4.8C618.8,204.2,615.4,204.7,611.9,204.7z"/>
	<path class="st2" d="M672.2,130.7c4.5,0,8.7,0.7,12.5,2.2c3.8,1.4,7.1,3.6,9.8,6.3c2.8,2.8,4.9,6.2,6.4,10.2
		c1.5,4,2.3,8.6,2.3,13.8c0,1.3-0.1,2.4-0.2,3.3c-0.1,0.9-0.3,1.5-0.6,2c-0.3,0.5-0.7,0.8-1.2,1.1s-1.2,0.3-2,0.3h-44.4
		c0.5,7.4,2.5,12.8,6,16.2c3.5,3.5,8,5.2,13.7,5.2c2.8,0,5.2-0.3,7.2-1c2-0.7,3.8-1.4,5.3-2.2c1.5-0.8,2.8-1.5,4-2.2
		c1.1-0.7,2.2-1,3.3-1c0.7,0,1.3,0.1,1.8,0.4c0.5,0.3,1,0.7,1.3,1.2l5,6.3c-1.9,2.2-4.1,4.1-6.4,5.6c-2.4,1.5-4.9,2.7-7.5,3.6
		c-2.6,0.9-5.2,1.6-7.9,1.9c-2.7,0.4-5.3,0.6-7.8,0.6c-5,0-9.6-0.8-13.9-2.5c-4.3-1.7-8-4.1-11.2-7.4c-3.2-3.2-5.7-7.3-7.5-12
		c-1.8-4.8-2.7-10.3-2.7-16.6c0-4.9,0.8-9.5,2.4-13.8c1.6-4.3,3.9-8.1,6.8-11.3c3-3.2,6.6-5.7,10.8-7.6
		C662,131.6,666.8,130.7,672.2,130.7z M672.6,143.1c-5,0-9,1.4-11.8,4.3c-2.8,2.8-4.7,6.9-5.5,12.1h32.5c0-2.2-0.3-4.4-0.9-6.3
		c-0.6-2-1.5-3.7-2.8-5.2c-1.3-1.5-2.8-2.7-4.8-3.5C677.4,143.5,675.1,143.1,672.6,143.1z"/>
	<path class="st2" d="M717.4,203.6v-71.8h10.1c1.8,0,3,0.3,3.7,1c0.7,0.7,1.2,1.8,1.4,3.4l1,8.7c2.6-4.4,5.6-7.9,9-10.5
		c3.5-2.6,7.3-3.9,11.6-3.9c3.5,0,6.5,0.8,8.8,2.5l-2.2,13c-0.1,0.8-0.4,1.4-0.9,1.8c-0.5,0.3-1.1,0.5-1.9,0.5
		c-0.7,0-1.7-0.2-2.9-0.5c-1.2-0.3-2.8-0.5-4.8-0.5c-3.6,0-6.7,1-9.2,3c-2.6,2-4.7,4.9-6.5,8.7v44.7H717.4z"/>
</g>
<g>
	<path class="st3" d="M372.1,193.6h-14.6c-1.6,0-3-0.4-4-1.2s-1.8-1.8-2.3-3l-7.6-20.7h-41.9l-7.6,20.7c-0.4,1.1-1.1,2.1-2.2,2.9
		c-1.1,0.9-2.4,1.3-4,1.3h-14.6l39.8-101.2h19.2L372.1,193.6z M306.5,155.4h32.3l-12.3-33.7c-0.6-1.5-1.2-3.3-1.9-5.3
		c-0.7-2-1.3-4.2-2-6.6c-0.7,2.4-1.3,4.6-1.9,6.7c-0.6,2.1-1.2,3.8-1.9,5.4L306.5,155.4z"/>
	<path class="st3" d="M399.9,121.8v74.3c0,3.1-0.4,6.1-1.2,8.8c-0.8,2.8-2.1,5.2-3.9,7.2c-1.8,2.1-4.2,3.7-7.1,4.9
		c-2.9,1.2-6.5,1.8-10.7,1.8c-1.6,0-3.1-0.1-4.5-0.3s-2.8-0.5-4.3-1l0.6-9.3c0.1-0.9,0.5-1.5,1.1-1.8c0.6-0.3,1.8-0.4,3.5-0.4
		c1.7,0,3.2-0.2,4.4-0.5c1.2-0.4,2.1-0.9,2.9-1.7c0.7-0.8,1.2-1.8,1.5-3c0.3-1.3,0.5-2.8,0.5-4.7v-74.3H399.9z M402.5,100.8
		c0,1.5-0.3,2.9-0.9,4.2c-0.6,1.3-1.4,2.5-2.4,3.4c-1,1-2.2,1.8-3.5,2.3c-1.4,0.6-2.8,0.9-4.3,0.9c-1.5,0-2.9-0.3-4.2-0.9
		c-1.3-0.6-2.5-1.4-3.5-2.3c-1-1-1.8-2.1-2.3-3.4c-0.6-1.3-0.9-2.7-0.9-4.2c0-1.5,0.3-3,0.9-4.3c0.6-1.4,1.4-2.5,2.3-3.5
		c1-1,2.1-1.8,3.5-2.3c1.3-0.6,2.7-0.9,4.2-0.9c1.5,0,3,0.3,4.3,0.9c1.4,0.6,2.5,1.4,3.5,2.3c1,1,1.8,2.1,2.4,3.5
		C402.2,97.9,402.5,99.3,402.5,100.8z"/>
	<path class="st3" d="M449.8,120.7c5.4,0,10.2,0.9,14.6,2.6s8.1,4.2,11.2,7.3c3.1,3.2,5.5,7,7.1,11.6c1.7,4.6,2.5,9.7,2.5,15.3
		c0,5.7-0.8,10.8-2.5,15.4c-1.7,4.6-4.1,8.5-7.1,11.7s-6.8,5.7-11.2,7.4s-9.2,2.6-14.6,2.6s-10.2-0.9-14.6-2.6
		c-4.4-1.7-8.1-4.2-11.2-7.4c-3.1-3.2-5.5-7.1-7.2-11.7c-1.7-4.6-2.6-9.7-2.6-15.4c0-5.6,0.9-10.8,2.6-15.3
		c1.7-4.6,4.1-8.4,7.2-11.6c3.1-3.2,6.8-5.6,11.2-7.3C439.6,121.5,444.5,120.7,449.8,120.7z M449.8,181.4c6,0,10.4-2,13.3-6
		c2.9-4,4.3-9.9,4.3-17.6c0-7.7-1.4-13.6-4.3-17.7c-2.9-4.1-7.3-6.1-13.3-6.1c-6.1,0-10.5,2-13.4,6.1c-2.9,4.1-4.3,10-4.3,17.7
		s1.4,13.6,4.3,17.6C439.3,179.3,443.8,181.4,449.8,181.4z"/>
	<path class="st3" d="M514.6,121.8v45.6c0,4.4,1,7.8,3,10.2c2,2.4,5.1,3.6,9.1,3.6c3,0,5.8-0.7,8.4-2s5.1-3.2,7.4-5.5v-51.9h17.3
		v71.8h-10.6c-2.2,0-3.7-1-4.4-3.2l-1.2-5.7c-1.5,1.5-3,2.9-4.6,4.1c-1.6,1.2-3.3,2.3-5.1,3.2s-3.7,1.5-5.8,2s-4.3,0.7-6.7,0.7
		c-3.9,0-7.4-0.7-10.4-2c-3-1.3-5.5-3.2-7.6-5.6c-2.1-2.4-3.6-5.3-4.7-8.6c-1-3.3-1.6-7-1.6-11v-45.6H514.6z"/>
	<path class="st3" d="M601.9,194.7c-6.2,0-11-1.8-14.3-5.3c-3.4-3.5-5-8.4-5-14.6v-40.1h-7.3c-0.9,0-1.7-0.3-2.4-0.9
		c-0.7-0.6-1-1.5-1-2.7v-6.9l11.6-1.9l3.6-19.6c0.2-0.9,0.6-1.7,1.3-2.2c0.7-0.5,1.5-0.8,2.6-0.8h9v22.6h18.9v12.3h-18.9v38.9
		c0,2.2,0.6,4,1.7,5.2c1.1,1.3,2.6,1.9,4.5,1.9c1.1,0,2-0.1,2.7-0.4c0.7-0.3,1.4-0.5,1.9-0.8s1-0.5,1.4-0.8c0.4-0.3,0.8-0.4,1.3-0.4
		c0.5,0,0.9,0.1,1.3,0.4c0.3,0.3,0.7,0.6,1.1,1.2l5.2,8.4c-2.5,2.1-5.4,3.7-8.7,4.8C608.8,194.2,605.4,194.7,601.9,194.7z"/>
	<path class="st3" d="M662.2,120.7c4.5,0,8.7,0.7,12.5,2.2c3.8,1.4,7.1,3.6,9.8,6.3c2.8,2.8,4.9,6.2,6.4,10.2
		c1.5,4,2.3,8.6,2.3,13.8c0,1.3-0.1,2.4-0.2,3.3c-0.1,0.9-0.3,1.5-0.6,2c-0.3,0.5-0.7,0.8-1.2,1.1s-1.2,0.3-2,0.3h-44.4
		c0.5,7.4,2.5,12.8,5.9,16.2c3.5,3.5,8,5.2,13.7,5.2c2.8,0,5.2-0.3,7.2-1c2-0.7,3.8-1.4,5.3-2.2c1.5-0.8,2.8-1.5,4-2.2
		c1.1-0.7,2.2-1,3.3-1c0.7,0,1.3,0.1,1.8,0.4s1,0.7,1.3,1.2l5,6.3c-1.9,2.2-4.1,4.1-6.4,5.6c-2.4,1.5-4.9,2.7-7.5,3.6
		c-2.6,0.9-5.2,1.6-7.9,1.9c-2.7,0.4-5.3,0.6-7.8,0.6c-5,0-9.6-0.8-13.9-2.5c-4.3-1.7-8-4.1-11.2-7.4c-3.2-3.2-5.7-7.3-7.5-12
		c-1.8-4.8-2.7-10.3-2.7-16.6c0-4.9,0.8-9.5,2.4-13.8c1.6-4.3,3.9-8.1,6.8-11.3c3-3.2,6.6-5.7,10.8-7.6
		C652,121.6,656.8,120.7,662.2,120.7z M662.6,133.1c-5,0-9,1.4-11.8,4.3c-2.8,2.8-4.7,6.9-5.5,12.1h32.5c0-2.2-0.3-4.4-0.9-6.3
		c-0.6-2-1.5-3.7-2.8-5.2c-1.3-1.5-2.8-2.7-4.8-3.5C667.4,133.5,665.1,133.1,662.6,133.1z"/>
	<path class="st3" d="M707.4,193.6v-71.8h10.1c1.8,0,3,0.3,3.7,1c0.7,0.7,1.2,1.8,1.4,3.4l1,8.7c2.6-4.4,5.6-7.9,9-10.5
		c3.5-2.6,7.3-3.9,11.6-3.9c3.5,0,6.5,0.8,8.8,2.5l-2.2,13c-0.1,0.8-0.4,1.4-0.9,1.8c-0.5,0.3-1.1,0.5-1.9,0.5
		c-0.7,0-1.7-0.2-2.9-0.5c-1.2-0.3-2.8-0.5-4.8-0.5c-3.6,0-6.7,1-9.2,3c-2.6,2-4.7,4.9-6.5,8.7v44.7H707.4z"/>
</g>
</svg>
