<?xml version="1.0" encoding="utf-8"?>
<!-- Generator: Adobe Illustrator 21.1.0, SVG Export Plug-In . SVG Version: 6.00 Build 0)  -->
<svg version="1.1" id="Calque_1" xmlns="http://www.w3.org/2000/svg" xmlns:xlink="http://www.w3.org/1999/xlink" x="0px" y="0px"
	 viewBox="0 0 1792 1792" style="enable-background:new 0 0 1792 1792;" xml:space="preserve">
<style type="text/css">
	.st0{fill:#F8F8F8;}
	.st1{fill:#E3E3E3;}
	.st2{fill:#487BD4;}
</style>
<g>
	<rect x="25" y="25" class="st0" width="1742" height="1742"/>
	<path class="st1" d="M1742,50v1692H50V50H1742 M1792,0H0v1792h1792V0L1792,0z"/>
</g>
<path class="st2" d="M1230.8,665.2L1000,896l230.8,230.8l93.6-93.6c12.6-13.4,27.7-16.5,45.5-9.1c16.9,7.4,25.3,20.1,25.3,38.3
	v291.2c0,11.3-4.1,21-12.3,29.2s-18,12.3-29.2,12.3h-291.2c-18.2,0-31-8.7-38.3-26c-7.4-16.9-4.3-31.8,9.1-44.8l93.6-93.6L896,1000
	l-230.8,230.8l93.6,93.6c13.4,13,16.5,28,9.1,44.8c-7.4,17.3-20.2,26-38.4,26H438.4c-11.3,0-21-4.1-29.2-12.3s-12.4-18-12.4-29.2
	v-291.2c0-18.2,8.7-31,26-38.3c16.9-7.4,31.9-4.3,44.9,9.1l93.6,93.6L792,896L561.2,665.2l-93.6,93.6c-8.2,8.2-18,12.4-29.2,12.4
	c-5.2,0-10.4-1.1-15.6-3.2c-17.3-7.4-26-20.2-26-38.4V438.4c0-11.3,4.1-21,12.4-29.2s18-12.4,29.2-12.4h291.2c18.2,0,31,8.7,38.4,26
	c7.4,16.9,4.3,31.9-9.1,44.9l-93.6,93.6L896,792l230.8-230.8l-93.6-93.6c-13.4-13-16.5-27.9-9.1-44.9c7.4-17.3,20.1-26,38.3-26
	h291.2c11.3,0,21,4.1,29.2,12.4s12.3,18,12.3,29.2v291.2c0,18.2-8.4,31-25.3,38.4c-5.6,2.2-11,3.2-16.2,3.2
	c-11.3,0-21-4.1-29.2-12.4L1230.8,665.2z"/>
</svg>
