<?xml version="1.0" encoding="utf-8"?>
<!-- Generator: Adobe Illustrator 21.1.0, SVG Export Plug-In . SVG Version: 6.00 Build 0)  -->
<svg version="1.1" id="Capa_1" xmlns="http://www.w3.org/2000/svg" xmlns:xlink="http://www.w3.org/1999/xlink" x="0px" y="0px"
	 viewBox="0 0 512 512" style="enable-background:new 0 0 512 512;" xml:space="preserve">
<style type="text/css">
	.st0{fill:#DDDDDD;}
</style>
<g>
	<path class="st0" d="M256,512c141.4,0,256-114.6,256-256S397.4,0,256,0S0,114.6,0,256S114.6,512,256,512z M256,40
		c119.3,0,216,96.7,216,216s-96.7,216-216,216S40,375.3,40,256S136.7,40,256,40z"/>
	<path class="st0" d="M157.8,274.1l145.9,89.6c16.8,10,24.7,1.9,24.7-17.8V166.1c0-19.8-7.8-27.8-24.7-17.8l-148.8,89.6
		C138,247.8,140.9,264.2,157.8,274.1z"/>
</g>
</svg>
