<?xml version="1.0" encoding="utf-8"?>
<!-- Generator: Adobe Illustrator 20.0.0, SVG Export Plug-In . SVG Version: 6.00 Build 0)  -->
<svg version="1.1" id="Calque_1" xmlns="http://www.w3.org/2000/svg" xmlns:xlink="http://www.w3.org/1999/xlink" x="0px" y="0px"
	 viewBox="0 0 500 500" style="enable-background:new 0 0 500 500;" xml:space="preserve">
<style type="text/css">
	.st0{fill:#BEE3ED;}
</style>
<g>
	<g>
		<path class="st0" d="M400.5,61.1C372.4,29.7,335.3,0.7,243.7,0c-35.8-0.3-90.5,8.2-133,53.2C84.9,80.4,66,114.7,71.4,170.8
			C72.6,183,90,197,77.8,220.5c0,0-26.2,46.2-25.4,53.9c0,0-0.5,14,21.3,14.5c0,0,5.4,0.7,3.9,12.6L77.3,319c0,0,0.7,5.2,10.2,8.3
			c0,0,1.8,1.8-0.9,5.3c0,0-5.1,5.5,3.6,17.6c3.2,4.4,8.4,9.9,5.2,21.3c0,0-4.1,21.9,4.5,27.1c0,0,9.8,11.6,49.1,6.8
			c13.8-1.7,39.1-8.3,54.3,10.6c0,0,36.2,68.7,38.9,85c0,0,61.8-109.9,137.1-126.9c0,0-18.4-41.4,19-95c0,0,46.9-61.8,48.2-95.7
			C446.6,183.4,458.9,126.2,400.5,61.1L400.5,61.1z M286.4,48.2l21,7.8l-20.9,56.4l-21-7.7L286.4,48.2z M204.4,55.3l25.1,54.6
			l-20.4,9.4L184,64.7L204.4,55.3z M173.9,164.3l-56.4-20.9l7.8-21l56.4,20.9L173.9,164.3z M241.7,259.4l-3.7-8.1
			c-20.9-4.1-39.6-17.8-49.2-38.7c-15.8-34.4-0.7-75.2,33.7-91c34.5-15.8,75.2-0.7,91,33.7c9.6,20.8,7.8,43.9-2.7,62.4l3.7,8.1
			L241.7,259.4z M244.2,264.7l72.9-33.5l3.3,7.1l-72.9,33.5L244.2,264.7z M317.3,264c1.5,8.2-6.1,18.4-18.3,24
			c-12.2,5.6-24.9,4.7-30.2-1.7c-6.9,2.7-14.9-0.3-18-7.1l-0.9-1.8l72.9-33.5l0.9,1.8C326.8,252.6,324,260.5,317.3,264L317.3,264z"
			/>
	</g>
</g>
</svg>
