<?xml version="1.0" encoding="utf-8"?>
<!-- Generator: Adobe Illustrator 24.3.0, SVG Export Plug-In . SVG Version: 6.00 Build 0)  -->
<svg version="1.1" id="Calque_1" xmlns="http://www.w3.org/2000/svg" xmlns:xlink="http://www.w3.org/1999/xlink" x="0px" y="0px"
	 viewBox="0 0 500 212.8200073" style="enable-background:new 0 0 500 212.8200073;" xml:space="preserve">
<style type="text/css">
	.st0{fill:#FFFFFF;}
</style>
<g>
	<g>
		<path class="st0" d="M46.2611351,150.609375c-0.8811798-7.5437012-5.2800522-12.3189545-11.8176765-12.3189545
			c-6.2843533,0-10.5583458,4.9019012-11.8159199,12.3189545H46.2611351z M0,156.5173187v-0.2515106
			c0-19.8626251,14.2044315-35.576149,34.3185768-35.576149c23.5069618,0,34.3185768,17.2226028,34.3185768,37.2101212
			c0,1.509079,0,3.2679291-0.1266327,4.9019012H23.003933c1.8872395,7.417038,7.2921696,11.1880035,14.7074585,11.1880035
			c5.6582069,0,10.183712-2.1369934,15.0856133-6.912262l13.2001266,10.9365082
			C59.459507,186.3103943,50.0320969,191.84021,36.455574,191.84021C15.0856113,191.84021,0,177.6357727,0,156.5173187"/>
		<polygon class="st0" points="78.2200546,98.2545319 103.0303116,98.2545319 103.0303116,144.512146 122.2281036,120.8767929 
			150.3045349,120.8767929 125.7528305,149.2135315 150.957077,191.5243073 123.6650696,191.5243073 109.430748,167.4967346 
			103.0303116,174.940155 103.0303116,191.5243073 78.2200546,191.5243073 		"/>
		<path class="st0" d="M152.7841644,206.6725464l7.7055054-17.3685913
			c3.9169312,2.3515778,8.0959473,3.7867889,10.8379974,3.7867889c2.4799652,0,4.1772614-0.6525269,5.7461395-2.8721924
			l-27.6842041-69.342453h25.9851685l14.1041718,42.5710754l13.3197327-42.5710754h25.4645538l-25.856781,68.9502258
			c-6.1365967,16.4539948-12.797348,22.9845886-26.9015198,22.9845886
			C166.756424,212.8109131,159.3130035,210.3291779,152.7841644,206.6725464"/>
		<rect x="242.7557678" y="98.254715" class="st0" width="6.3986783" height="93.269783"/>
		<path class="st0" d="M275.2697754,121.130249h6.3986511v70.3942413h-6.3986511V121.130249z M275.2944031,98.254715h6.3564453
			v6.731102h-6.3564453V98.254715z"/>
		<path class="st0" d="M367.394165,156.5992889v-0.2655792c0-17.8645935-12.3980713-29.3287506-26.662323-29.3287506
			c-14.1323242,0-27.7281799,11.8651733-27.7281799,29.1950684v0.2655945c0,17.4653168,13.5958557,29.1950531,27.7281799,29.1950531
			C355.5289917,185.660675,367.394165,174.8631287,367.394165,156.5992889 M313.4029236,175.6634064v16.2640381h-6.5323486
			v-93.672554h6.5323486v39.2820358c5.8657227-8.9331665,14.5297852-16.7987289,27.9955139-16.7987289
			c16.3977051,0,33.0610046,13.1983719,33.0610046,35.3281631v0.2673492c0,22.1280212-16.6632996,35.5937347-33.0610046,35.5937347
			C327.8008118,191.9274445,319.0013123,184.1955566,313.4029236,175.6634064"/>
		<path class="st0" d="M393.0550232,120.6901855h6.6889038v21.0041351
			c5.4611816-12.4244843,17.0660706-21.5511322,30.8536377-21.0041351v7.4891663h-0.6824036
			c-16.1092834,0-30.1712341,12.1501007-30.1712341,34.8128052v28.9347534h-6.6889038V120.6901855z"/>
		<path class="st0" d="M492.9382019,153.070343c-0.9321899-13.7225037-8.79245-26.379158-24.3811035-26.379158
			c-13.4551392,0-23.8481445,11.3252029-25.0476685,26.379158H492.9382019z M436.5813599,156.4015961v-0.2655792
			c0-19.7184143,13.8561096-35.4407349,32.243103-35.4407349C487.8762817,120.695282,500,136.1502533,500,156.2696838
			c0,1.1977692,0,1.5970306-0.1336975,2.6628876h-56.3568726c1.1995239,16.9218445,13.3232422,26.7801666,26.6464539,26.7801666
			c10.5249634,0,17.7203979-4.6626892,23.3152771-10.6585999l4.5307617,3.9978638
			c-6.9280701,7.4610138-15.0556946,12.788559-28.1116333,12.788559
			C452.0362549,191.8405609,436.5813599,177.5851135,436.5813599,156.4015961"/>
	</g>
	<g>
		<g>
			<path class="st0" d="M162.3620453,18.1994724c-4.5729218,0-8.2593842,3.8853073-8.2593842,8.6693974
				c0,4.782156,3.6864624,8.6674652,8.2593842,8.6674652c4.5731659,0,8.2895813-3.8853092,8.2895813-8.6674652
				C170.6516266,22.0847797,166.9352112,18.1994724,162.3620453,18.1994724z M164.4867554,28.4412575
				c-1.8765869,0-3.397995-1.6373806-3.397995-3.6584358c0-2.0191231,1.5214081-3.6565037,3.397995-3.6565037
				c1.8768158,0,3.3982239,1.6373806,3.3982239,3.6565037C167.8849792,26.8038769,166.3635712,28.4412575,164.4867554,28.4412575z"
				/>
			<path class="st0" d="M191.0153656,18.1994724c-4.5729218,0-8.2593842,3.8853073-8.2593842,8.6693974
				c0,4.782156,3.6864624,8.6674652,8.2593842,8.6674652c4.5731659,0,8.291275-3.8853092,8.291275-8.6674652
				C199.3066406,22.0847797,195.5885315,18.1994724,191.0153656,18.1994724z M193.1371765,28.4412575
				c-1.8768158,0-3.3982239-1.6373806-3.3982239-3.6584358c0-2.0191231,1.5214081-3.6565037,3.3982239-3.6565037
				c1.8765717,0,3.3979797,1.6373806,3.3979797,3.6565037C196.5351562,26.8038769,195.0137482,28.4412575,193.1371765,28.4412575z"
				/>
		</g>
		<path class="st0" d="M192.4652557,98.2639465c-0.259491,1.3109665-0.8328247,2.6151657-1.3986664,3.6485291
			c-0.3938293,0.7192688-1.4615021,0.545311-1.6443939-0.2532043c-0.0142517-0.0635452-0.0282593-0.1249161-0.0439758-0.1865234
			c-0.2145386-0.8584366-1.4107513-0.8601303-1.6956024-0.0229568c-0.2445068,0.715889-0.5909729,1.4547272-1.0729828,2.1317139
			c-0.3744965,0.5223618-1.187027,0.4696884-1.4967651-0.0932617c-0.5296021-0.9625626-1.286087-2.6506882-1.9410858-5.2242966
			h-0.0869751c-0.3561401,1.2201233-0.6095734,2.6134796-0.759613,3.6432114
			c-0.1072845,0.7245865-1.0113831,1.0217667-1.5214081,0.4943314c-1.2319641-1.2747269-1.7200165-3.0222778-1.8485565-4.1375427
			h-6.1798553c-0.1261292,1.1094666-0.6047516,2.8442154-1.8089294,4.1179733
			c-0.5066528,0.5349197-1.4177551,0.2375031-1.5231018-0.4924011c-0.1500397-1.0275574-0.3981628-2.4124603-0.7480164-3.6255722
			h-0.0860138c-0.6441345,2.5562134-1.3873138,4.2390213-1.9099121,5.2069016
			c-0.3095093,0.5680237-1.1290436,0.6226273-1.5020752,0.0930176c-0.4694519-0.671669-0.8072205-1.4015656-1.0464172-2.1104507
			c-0.2831573-0.8407974-1.5003815-0.7369003-1.7026062,0.1266098c-0.0053253,0.0176315-0.0086975,0.0352707-0.0123291,0.0526657
			c-0.1845856,0.8021393-1.2558746,0.974411-1.6480103,0.2498245c-0.5535278-1.0285263-1.112854-2.3201675-1.3663025-3.6185684
			h-37.1891022v7.2936783h106.0371399v-7.2936783H192.4652557z"/>
		<path class="st0" d="M200.6999969,11.0437527c2.7748718-0.9543533,5.5596619-2.0838728,8.35289-3.3938746
			c0.2249451-0.1055827,0.3974457-0.2991114,0.474762-0.5346794l1.7552795-5.285428
			c0.2534485-0.7632413-0.5540009-1.431772-1.2662659-1.0570372c-5.2605438,2.7652097-10.4295044,4.8075266-15.531311,6.237124
			c-5.4632568-2.7226863-11.7156067-4.0351038-18.3218994-4.0351038c-6.299469,0-12.1753845,1.1969285-17.3153687,3.6673756
			c-5.1711426-1.5615158-10.3074951-3.7400997-15.4266968-6.5289869c-0.7052612-0.3834327-1.5214081,0.2691519-1.2819824,1.0360173
			l1.6513977,5.2991996c0.0756226,0.2358098,0.2445068,0.4346538,0.4680023,0.5436192
			c2.772934,1.3546987,5.5690765,2.5322986,8.3835754,3.5552697c-8.216629,6.6754007-13.3848724,17.9452324-13.3848724,34.5360031
			c0,20.8153,8.4210205,38.7921829,20.6654968,47.5463791c0.3728027-0.9207687,0.9118347-1.5764923,1.6757965-1.5851898
			c0.6912384-0.0086975,1.1589966,0.1758881,1.4738159,0.4344101c0.3940582,0.3220673,0.9693298,0.2797852,1.2718201-0.1282959
			c0.3761902-0.5030289,0.9761047-0.937439,1.9345703-0.9850388c0.9533844-0.047348,1.5214081,0.3993835,1.8821259,1.2065964
			c0.2056122,0.4643707,0.7861938,0.5436172,1.2276154,0.2901688c0.4853821-0.2778473,1.1203308-0.3181915,1.7835541-0.279541
			c1.5388031,0.0210266,1.7922516,1.8625641,1.6530762,6.2965622c-0.0021667,0.0427628-0.0166626,0.1082382-0.02005,0.1541443
			c1.2817383,0.1884537,2.5813446,0.2901764,3.8981171,0.2901764c0.7557526,0,1.493866-0.0978546,2.2384949-0.160675
			c-0.0086975-0.0889053-0.0338135-0.2051239-0.0376892-0.2836456c-0.1406097-4.4339981,0.1159821-6.2755356,1.6743469-6.2965622
			c0.6702271-0.0386505,1.3121796,0.0016937,1.8045807,0.279541c0.4467316,0.2534485,1.0323944,0.1725082,1.2435608-0.2954865
			c0.3641052-0.8035889,0.9391327-1.2469406,1.9012146-1.2012787c0.9763336,0.0475998,1.5866394,0.4890213,1.9647522,0.9973602
			c0.3025055,0.4044571,0.8758392,0.4467392,1.2645874,0.1266098c0.3201294-0.2638397,0.7948914-0.453743,1.5054626-0.4450455
			c0.9963837,0.0113525,1.6226349,1.0797501,1.9804688,2.4356537c12.9158936-8.3980713,21.9078522-26.8842621,21.9078522-48.396843
			C214.1510773,28.8802605,208.8789368,17.7735157,200.6999969,11.0437527z M162.3057556,79.3409271
			c-0.2179413,0.9161758-1.5231018,0.9091721-1.7323456-0.0089417l-1.1273346-4.9457245l1.2645721,1.7129974
			c0.3534698,0.4783859,1.0693665,0.4820099,1.4281464,0.0053177l1.3824921-1.8451614L162.3057556,79.3409271z
			 M166.4452209,66.6038055c-0.217926,0.91642-1.5230865,0.9094162-1.7323303-0.0086975l-1.1275787-4.9459686l1.2648163,1.7130051
			c0.3534698,0.4783859,1.0693665,0.4820099,1.4262085,0.0053139l1.3844299-1.8449211L166.4452209,66.6038055z
			 M177.5265961,59.4074974c-0.2181702,0.91642-1.5233307,0.9094124-1.7325745-0.0086975l-1.1273346-4.9459686l1.2645721,1.7130051
			c0.3534698,0.4783821,1.0693665,0.4820061,1.4281464,0.0053139l1.3824921-1.8449211L177.5265961,59.4074974z
			 M188.6077423,66.6038055c-0.2179413,0.91642-1.5231018,0.9094162-1.7323456-0.0086975l-1.1275787-4.9459686l1.2645721,1.7130051
			c0.353714,0.4783859,1.0696106,0.4820099,1.4264679,0.0053139l1.3841705-1.8449211L188.6077423,66.6038055z
			 M192.7469788,79.3409271c-0.2181854,0.9161758-1.5233459,0.9091721-1.7325745-0.0089417l-1.1273499-4.9457245
			l1.2645721,1.7129974c0.3534851,0.4783859,1.0693665,0.4820099,1.4281464,0.0053177l1.3824921-1.8451614L192.7469788,79.3409271z
			 M202.1941071,43.2289085c-7.8261871,3.4192429-15.5516205-0.0901222-21.9078522-6.7916183
			c-0.2872772,1.999794-1.8661804,4.6137581-2.851944,6.0414238c-0.3534698,0.5136566-1.1063232,0.5136566-1.4598083,0
			c-0.8076935-1.1698685-2.0413513-3.1580658-2.6296539-4.9406548c-6.673233,6.7541656-14.7939453,9.9697342-22.8061523,6.0566444
			c-9.2743988-4.5272636-6.8348694-21.2608261,4.2527924-31.8051052c0.2358093-0.2234879,0.5769501-0.2971783,0.8864594-0.198844
			c0.009903,0.0031414,0.02005,0.0053158,0.029953,0.0084562c1.6161194,0.514143,3.2394867,0.9635353,4.8679352,1.3646049
			c0.304184,0.0748987,0.6095734,0.1360254,0.9142456,0.2068167c1.3046875,0.3037024,2.6132355,0.5706797,3.9256592,0.8006907
			c0.4020233,0.07055,0.804306,0.1391668,1.2070618,0.2024679c1.372345,0.2159986,2.7485504,0.3921309,4.1283722,0.5257406
			c0.2399139,0.0234356,0.4786224,0.0575027,0.7190247,0.0782814c1.6489868,0.1425486,3.3032684,0.226387,4.9626465,0.2490978
			c0.215744,0.0028992,0.4327087-0.0070066,0.6487122-0.0062819c1.4083405,0.0057993,2.8205414-0.0340662,4.2358856-0.1159716
			c0.4187012-0.0241613,0.8376465-0.0553284,1.2570801-0.0874624c1.3153229-0.1002674,2.6337738-0.240159,3.9551392-0.4177408
			c0.3447723-0.0461473,0.6883392-0.0823889,1.0333557-0.1340933c1.6772461-0.2507896,3.3583527-0.553525,5.0442963-0.9309177
			c0.0415649-0.009181,0.0833588-0.021986,0.1246796-0.031167c1.5965424-0.3604803,3.1974487-0.7922344,4.8009949-1.2682037
			c0.1681671-0.0497713,0.3351135-0.0816631,0.5032806-0.132884c0.2865448-0.0879459,0.6032867-0.0282688,0.833786,0.1635685
			C211.4035034,22.4621716,211.0234528,39.373558,202.1941071,43.2289085z"/>
	</g>
</g>
</svg>
