<?xml version="1.0" encoding="utf-8"?>
<!-- Generator: Adobe Illustrator 22.0.1, SVG Export Plug-In . SVG Version: 6.00 Build 0)  -->
<svg version="1.1" id="Calque_1" xmlns="http://www.w3.org/2000/svg" xmlns:xlink="http://www.w3.org/1999/xlink" x="0px" y="0px"
	 viewBox="0 0 695 293" style="enable-background:new 0 0 695 293;" xml:space="preserve">
<style type="text/css">
	.st0{fill:url(#SVGID_1_);}
	.st1{fill:url(#SVGID_2_);}
	.st2{fill:url(#SVGID_3_);}
	.st3{opacity:0.5;}
	.st4{fill:#222222;}
	.st5{fill:#FFFFFF;}
</style>
<linearGradient id="SVGID_1_" gradientUnits="userSpaceOnUse" x1="348" y1="1016.5" x2="348" y2="735.9" gradientTransform="matrix(1 0 0 1 0 -730)">
	<stop  offset="0" style="stop-color:#678FDA"/>
	<stop  offset="1" style="stop-color:#7EA0DF"/>
</linearGradient>
<path class="st0" d="M25.5,286.5c-10.5,0-19-8.5-19-19V24.9c0-10.5,8.5-19,19-19h645c10.5,0,19,8.5,19,19v242.5c0,10.5-8.5,19-19,19
	L25.5,286.5L25.5,286.5z"/>
<linearGradient id="SVGID_2_" gradientUnits="userSpaceOnUse" x1="348" y1="1012.5" x2="348" y2="740" gradientTransform="matrix(1 0 0 1 0 -730)">
	<stop  offset="0" style="stop-color:#678FDA"/>
	<stop  offset="1" style="stop-color:#7EA0DF"/>
</linearGradient>
<path class="st1" d="M25.5,10c-8.3,0-15,6.7-15,15v242.5c0,8.3,6.7,15,15,15h645c8.3,0,15-6.7,15-15V25c0-8.3-6.7-15-15-15
	C670.5,10,25.5,10,25.5,10z"/>
<linearGradient id="SVGID_3_" gradientUnits="userSpaceOnUse" x1="347.5" y1="1022.5" x2="347.5" y2="730" gradientTransform="matrix(1 0 0 1 0 -730)">
	<stop  offset="0" style="stop-color:#5976AC"/>
	<stop  offset="1" style="stop-color:#688BC9"/>
</linearGradient>
<path class="st2" d="M670,292.5H25c-13.8,0-25-11.2-25-25V25C0,11.2,11.2,0,25,0h645c13.8,0,25,11.2,25,25v242.5
	C695,281.3,683.8,292.5,670,292.5z M25,10c-8.3,0-15,6.7-15,15v242.5c0,8.3,6.7,15,15,15h645c8.3,0,15-6.7,15-15V25
	c0-8.3-6.7-15-15-15C670,10,25,10,25,10z"/>
<g>
	<g class="st3">
		<path class="st4" d="M182,180.6c1,0,1.9,0.4,2.7,1.2l7.4,8c-4.1,5.1-9.2,9-15.2,11.7c-6,2.7-13.2,4.1-21.6,4.1
			c-7.5,0-14.3-1.3-20.3-3.9c-6-2.6-11.1-6.1-15.4-10.7c-4.2-4.6-7.5-10-9.8-16.4c-2.3-6.3-3.4-13.3-3.4-20.8
			c0-7.6,1.3-14.6,3.8-20.9s6.1-11.8,10.6-16.3c4.6-4.6,10-8.1,16.4-10.7c6.4-2.5,13.4-3.8,21.1-3.8c7.5,0,14.1,1.2,19.7,3.6
			c5.6,2.4,10.4,5.6,14.5,9.6l-6.3,8.8c-0.4,0.6-0.9,1-1.4,1.5c-0.6,0.4-1.4,0.6-2.4,0.6c-1.1,0-2.2-0.4-3.3-1.3s-2.5-1.8-4.3-2.7
			c-1.7-1-3.9-1.9-6.5-2.7c-2.6-0.8-6-1.3-10-1.3c-4.8,0-9.1,0.8-13.1,2.5c-4,1.7-7.4,4-10.3,7.1c-2.9,3.1-5.1,6.8-6.7,11.2
			c-1.6,4.4-2.4,9.4-2.4,14.9c0,5.7,0.8,10.8,2.4,15.2c1.6,4.4,3.8,8.2,6.5,11.2c2.8,3,6,5.4,9.7,7c3.7,1.6,7.7,2.4,12,2.4
			c2.6,0,4.9-0.1,7-0.4c2.1-0.3,4-0.7,5.7-1.3s3.4-1.4,5-2.3c1.6-1,3.1-2.1,4.7-3.5c0.5-0.4,1-0.8,1.5-1
			C180.8,180.7,181.4,180.6,182,180.6z"/>
		<path class="st4" d="M205.3,204.4v-104h17.3v40c2.8-2.7,5.9-4.8,9.2-6.4c3.4-1.6,7.3-2.4,11.8-2.4c3.9,0,7.4,0.7,10.4,2
			c3,1.3,5.6,3.2,7.6,5.6c2,2.4,3.6,5.3,4.6,8.6c1,3.3,1.6,7,1.6,11v45.7h-17.3v-45.7c0-4.4-1-7.8-3-10.2c-2-2.4-5.1-3.6-9.1-3.6
			c-3,0-5.8,0.7-8.4,2c-2.6,1.4-5.1,3.2-7.4,5.5v51.9H205.3z"/>
		<path class="st4" d="M341.2,204.4h-7.8c-1.6,0-2.9-0.2-3.9-0.7c-0.9-0.5-1.6-1.5-2.1-3l-1.5-5.1c-1.8,1.6-3.6,3.1-5.4,4.3
			s-3.6,2.3-5.4,3.1c-1.9,0.8-3.9,1.5-6,1.9c-2.1,0.4-4.4,0.6-7,0.6c-3,0-5.8-0.4-8.4-1.2c-2.6-0.8-4.8-2-6.6-3.7
			c-1.8-1.6-3.3-3.7-4.3-6.1c-1-2.4-1.5-5.3-1.5-8.5c0-2.7,0.7-5.4,2.1-8c1.4-2.6,3.8-5,7.1-7.2c3.3-2.1,7.7-3.9,13.2-5.3
			c5.5-1.4,12.3-2.1,20.5-2.1v-4.2c0-4.8-1-8.4-3-10.8s-5-3.5-8.9-3.5c-2.8,0-5.1,0.3-7,1c-1.9,0.7-3.5,1.4-4.9,2.2
			c-1.4,0.8-2.6,1.6-3.8,2.2c-1.2,0.7-2.4,1-3.8,1c-1.2,0-2.2-0.3-3-0.9s-1.5-1.4-2-2.2l-3.2-5.5c8.3-7.6,18.2-11.3,29.9-11.3
			c4.2,0,7.9,0.7,11.2,2.1c3.3,1.4,6.1,3.3,8.4,5.7c2.3,2.5,4,5.4,5.2,8.8c1.2,3.4,1.8,7.1,1.8,11.2V204.4z M307.6,193.7
			c1.8,0,3.4-0.2,4.9-0.5c1.5-0.3,2.9-0.8,4.2-1.4c1.3-0.6,2.6-1.4,3.8-2.4c1.2-0.9,2.5-2.1,3.7-3.3v-12c-5,0-9.3,0.3-12.6,1
			c-3.4,0.6-6.1,1.4-8.2,2.4c-2.1,1-3.5,2.1-4.4,3.5c-0.9,1.3-1.3,2.7-1.3,4.3c0,3.1,0.9,5.2,2.7,6.6
			C302.4,193,304.7,193.7,307.6,193.7z"/>
		<path class="st4" d="M358.2,204.4v-71.8h10.1c1.8,0,3,0.3,3.7,1c0.7,0.7,1.2,1.8,1.4,3.4l1,8.7c2.6-4.4,5.6-7.9,9-10.5
			c3.5-2.6,7.3-3.9,11.6-3.9c3.5,0,6.5,0.8,8.8,2.5l-2.2,13c-0.1,0.8-0.4,1.4-0.9,1.8s-1.1,0.5-1.9,0.5c-0.7,0-1.7-0.2-2.9-0.5
			c-1.2-0.3-2.8-0.5-4.8-0.5c-3.6,0-6.7,1-9.2,3c-2.6,2-4.7,4.9-6.5,8.7v44.7H358.2z"/>
		<path class="st4" d="M440.2,131.4c3.1,0,6,0.3,8.7,0.9c2.7,0.6,5.2,1.6,7.4,2.8H477v6.4c0,1.1-0.3,1.9-0.8,2.5
			c-0.6,0.6-1.5,1-2.9,1.3l-6.4,1.2c0.5,1.2,0.8,2.5,1.1,3.9c0.3,1.4,0.4,2.8,0.4,4.3c0,3.5-0.7,6.8-2.1,9.6
			c-1.4,2.9-3.4,5.3-5.9,7.3c-2.5,2-5.5,3.6-8.9,4.7c-3.4,1.1-7.2,1.6-11.2,1.6c-2.7,0-5.3-0.3-7.9-0.8c-2.2,1.4-3.4,2.9-3.4,4.6
			c0,1.5,0.7,2.5,2,3.2c1.3,0.7,3.1,1.2,5.2,1.4c2.2,0.3,4.6,0.4,7.4,0.4c2.8,0,5.6,0.1,8.5,0.4c2.9,0.2,5.7,0.6,8.5,1.2
			c2.8,0.6,5.2,1.5,7.4,2.8c2.2,1.3,3.9,3,5.2,5.2s2,5,2,8.4c0,3.2-0.8,6.3-2.3,9.3c-1.6,3-3.8,5.7-6.8,8c-3,2.3-6.6,4.2-10.9,5.7
			c-4.3,1.4-9.2,2.1-14.7,2.1c-5.5,0-10.2-0.5-14.2-1.6c-4-1.1-7.3-2.5-10-4.2c-2.6-1.8-4.6-3.8-5.9-6.1c-1.3-2.3-2-4.7-2-7.1
			c0-3.4,1-6.2,3.1-8.5c2.1-2.3,4.9-4.1,8.5-5.5c-1.8-1-3.2-2.3-4.3-3.9c-1.1-1.6-1.6-3.8-1.6-6.4c0-1.1,0.2-2.2,0.6-3.3
			c0.4-1.1,0.9-2.3,1.7-3.4c0.8-1.1,1.7-2.2,2.9-3.2c1.2-1,2.5-1.9,4.1-2.7c-3.6-2-6.5-4.6-8.6-7.8c-2.1-3.3-3.1-7.1-3.1-11.5
			c0-3.5,0.7-6.8,2.1-9.6c1.4-2.9,3.4-5.3,5.9-7.3c2.5-2,5.6-3.6,9-4.7C432.3,131.9,436.1,131.4,440.2,131.4z M459.2,207.5
			c0-1.4-0.4-2.6-1.3-3.5c-0.8-0.9-2-1.6-3.4-2.1c-1.4-0.5-3.1-0.9-5.1-1.1c-1.9-0.2-4-0.4-6.2-0.4s-4.4,0-6.7,0s-4.5-0.3-6.7-0.8
			c-2,1.1-3.5,2.3-4.7,3.8c-1.2,1.5-1.8,3.2-1.8,5.1c0,1.3,0.3,2.4,0.9,3.5s1.6,2,3,2.8c1.4,0.8,3.2,1.4,5.4,1.9
			c2.2,0.4,4.9,0.7,8,0.7c3.2,0,6-0.3,8.3-0.8c2.3-0.5,4.3-1.2,5.8-2.1s2.6-1.9,3.3-3.1C458.9,210.2,459.2,208.9,459.2,207.5z
			 M440.2,166.8c2.1,0,4-0.3,5.6-0.9c1.6-0.6,2.9-1.4,4-2.4c1.1-1,1.8-2.3,2.4-3.7c0.5-1.4,0.8-3,0.8-4.8c0-3.5-1.1-6.4-3.2-8.4
			c-2.1-2.1-5.3-3.1-9.6-3.1c-4.2,0-7.4,1-9.6,3.1c-2.1,2.1-3.2,4.9-3.2,8.4c0,1.7,0.3,3.2,0.8,4.7c0.5,1.4,1.3,2.7,2.4,3.7
			c1,1,2.4,1.9,4,2.4C436.3,166.5,438.1,166.8,440.2,166.8z"/>
		<path class="st4" d="M517.5,131.5c4.5,0,8.7,0.7,12.5,2.2c3.8,1.4,7.1,3.6,9.8,6.3c2.8,2.8,4.9,6.2,6.4,10.2
			c1.5,4,2.3,8.6,2.3,13.8c0,1.3-0.1,2.4-0.2,3.3c-0.1,0.9-0.3,1.5-0.6,2c-0.3,0.5-0.7,0.8-1.2,1.1c-0.5,0.2-1.2,0.3-2,0.3h-44.4
			c0.5,7.4,2.5,12.8,6,16.2c3.5,3.5,8,5.2,13.7,5.2c2.8,0,5.2-0.3,7.2-1c2-0.7,3.8-1.4,5.3-2.2c1.5-0.8,2.8-1.5,4-2.2
			c1.1-0.7,2.2-1,3.3-1c0.7,0,1.3,0.1,1.8,0.4c0.5,0.3,1,0.7,1.3,1.2l5,6.3c-1.9,2.2-4.1,4.1-6.4,5.6c-2.4,1.5-4.9,2.7-7.5,3.6
			c-2.6,0.9-5.2,1.6-7.9,1.9c-2.7,0.4-5.3,0.6-7.8,0.6c-5,0-9.6-0.8-13.9-2.5c-4.3-1.7-8-4.1-11.2-7.4c-3.2-3.2-5.7-7.3-7.5-12
			c-1.8-4.8-2.7-10.3-2.7-16.6c0-4.9,0.8-9.5,2.4-13.8c1.6-4.3,3.9-8.1,6.8-11.3c3-3.2,6.6-5.7,10.8-7.6
			C507.3,132.4,512.2,131.5,517.5,131.5z M517.9,143.9c-5,0-9,1.4-11.8,4.3c-2.8,2.8-4.7,6.9-5.5,12.1h32.5c0-2.2-0.3-4.4-0.9-6.3
			s-1.5-3.7-2.8-5.2c-1.3-1.5-2.8-2.7-4.8-3.5C522.7,144.3,520.4,143.9,517.9,143.9z"/>
		<path class="st4" d="M562.7,204.4v-71.8h10.1c1.8,0,3,0.3,3.7,1c0.7,0.7,1.2,1.8,1.4,3.4l1,8.7c2.6-4.4,5.6-7.9,9-10.5
			c3.5-2.6,7.3-3.9,11.6-3.9c3.5,0,6.5,0.8,8.8,2.5l-2.2,13c-0.1,0.8-0.4,1.4-0.9,1.8c-0.5,0.3-1.1,0.5-1.9,0.5
			c-0.7,0-1.7-0.2-2.9-0.5c-1.2-0.3-2.8-0.5-4.8-0.5c-3.6,0-6.7,1-9.2,3c-2.6,2-4.7,4.9-6.5,8.7v44.7H562.7z"/>
	</g>
	<g>
		<g>
			<path class="st5" d="M172,170.6c1,0,1.9,0.4,2.7,1.2l7.4,8c-4.1,5.1-9.2,9-15.2,11.7c-6,2.7-13.2,4.1-21.6,4.1
				c-7.5,0-14.3-1.3-20.3-3.9c-6-2.6-11.1-6.1-15.4-10.7c-4.2-4.6-7.5-10-9.8-16.4c-2.3-6.3-3.4-13.3-3.4-20.8
				c0-7.6,1.3-14.6,3.8-20.9s6.1-11.8,10.6-16.3c4.6-4.6,10-8.1,16.4-10.7c6.4-2.5,13.4-3.8,21.1-3.8c7.5,0,14.1,1.2,19.7,3.6
				c5.6,2.4,10.4,5.6,14.5,9.6l-6.3,8.8c-0.4,0.6-0.9,1-1.4,1.5c-0.6,0.4-1.4,0.6-2.4,0.6c-1.1,0-2.2-0.4-3.3-1.3s-2.5-1.8-4.3-2.7
				c-1.7-1-3.9-1.9-6.5-2.7c-2.6-0.8-6-1.3-10-1.3c-4.8,0-9.1,0.8-13.1,2.5c-4,1.7-7.4,4-10.3,7.1c-2.9,3.1-5.1,6.8-6.7,11.2
				c-1.6,4.4-2.4,9.4-2.4,14.9c0,5.7,0.8,10.8,2.4,15.2c1.6,4.4,3.8,8.2,6.5,11.2c2.8,3,6,5.4,9.7,7c3.7,1.6,7.7,2.4,12,2.4
				c2.6,0,4.9-0.1,7-0.4c2.1-0.3,4-0.7,5.7-1.3s3.4-1.4,5-2.3c1.6-1,3.1-2.1,4.7-3.5c0.5-0.4,1-0.8,1.5-1
				C170.8,170.7,171.4,170.6,172,170.6z"/>
			<path class="st5" d="M195.3,194.4v-104h17.3v40c2.8-2.7,5.9-4.8,9.2-6.4c3.4-1.6,7.3-2.4,11.8-2.4c3.9,0,7.4,0.7,10.4,2
				c3,1.3,5.6,3.2,7.6,5.6c2,2.4,3.6,5.3,4.6,8.6c1,3.3,1.6,7,1.6,11v45.7h-17.3v-45.7c0-4.4-1-7.8-3-10.2c-2-2.4-5.1-3.6-9.1-3.6
				c-3,0-5.8,0.7-8.4,2c-2.6,1.4-5.1,3.2-7.4,5.5v51.9H195.3z"/>
			<path class="st5" d="M331.2,194.4h-7.8c-1.6,0-2.9-0.2-3.9-0.7c-0.9-0.5-1.6-1.5-2.1-3l-1.5-5.1c-1.8,1.6-3.6,3.1-5.4,4.3
				s-3.6,2.3-5.4,3.1c-1.9,0.8-3.9,1.5-6,1.9c-2.1,0.4-4.4,0.6-7,0.6c-3,0-5.8-0.4-8.4-1.2c-2.6-0.8-4.8-2-6.6-3.7
				c-1.8-1.6-3.3-3.7-4.3-6.1c-1-2.4-1.5-5.3-1.5-8.5c0-2.7,0.7-5.4,2.1-8c1.4-2.6,3.8-5,7.1-7.2c3.3-2.1,7.7-3.9,13.2-5.3
				c5.5-1.4,12.3-2.1,20.5-2.1v-4.2c0-4.8-1-8.4-3-10.8s-5-3.5-8.9-3.5c-2.8,0-5.1,0.3-7,1c-1.9,0.7-3.5,1.4-4.9,2.2
				c-1.4,0.8-2.6,1.6-3.8,2.2c-1.2,0.7-2.4,1-3.8,1c-1.2,0-2.2-0.3-3-0.9s-1.5-1.4-2-2.2l-3.2-5.5c8.3-7.6,18.2-11.3,29.9-11.3
				c4.2,0,7.9,0.7,11.2,2.1c3.3,1.4,6.1,3.3,8.4,5.7c2.3,2.5,4,5.4,5.2,8.8c1.2,3.4,1.8,7.1,1.8,11.2V194.4z M297.6,183.7
				c1.8,0,3.4-0.2,4.9-0.5c1.5-0.3,2.9-0.8,4.2-1.4c1.3-0.6,2.6-1.4,3.8-2.4c1.2-0.9,2.5-2.1,3.7-3.3v-12c-5,0-9.3,0.3-12.6,1
				c-3.4,0.6-6.1,1.4-8.2,2.4c-2.1,1-3.5,2.1-4.4,3.5c-0.9,1.3-1.3,2.7-1.3,4.3c0,3.1,0.9,5.2,2.7,6.6
				C292.4,183,294.7,183.7,297.6,183.7z"/>
			<path class="st5" d="M348.2,194.4v-71.8h10.1c1.8,0,3,0.3,3.7,1c0.7,0.7,1.2,1.8,1.4,3.4l1,8.7c2.6-4.4,5.6-7.9,9-10.5
				c3.5-2.6,7.3-3.9,11.6-3.9c3.5,0,6.5,0.8,8.8,2.5l-2.2,13c-0.1,0.8-0.4,1.4-0.9,1.8s-1.1,0.5-1.9,0.5c-0.7,0-1.7-0.2-2.9-0.5
				c-1.2-0.3-2.8-0.5-4.8-0.5c-3.6,0-6.7,1-9.2,3c-2.6,2-4.7,4.9-6.5,8.7v44.7H348.2z"/>
			<path class="st5" d="M430.2,121.4c3.1,0,6,0.3,8.7,0.9c2.7,0.6,5.2,1.6,7.4,2.8H467v6.4c0,1.1-0.3,1.9-0.8,2.5
				c-0.6,0.6-1.5,1-2.9,1.3l-6.4,1.2c0.5,1.2,0.8,2.5,1.1,3.9c0.3,1.4,0.4,2.8,0.4,4.3c0,3.5-0.7,6.8-2.1,9.6
				c-1.4,2.9-3.4,5.3-5.9,7.3c-2.5,2-5.5,3.6-8.9,4.7c-3.4,1.1-7.2,1.6-11.2,1.6c-2.7,0-5.3-0.3-7.9-0.8c-2.2,1.4-3.4,2.9-3.4,4.6
				c0,1.5,0.7,2.5,2,3.2c1.3,0.7,3.1,1.2,5.2,1.4c2.2,0.3,4.6,0.4,7.4,0.4c2.8,0,5.6,0.1,8.5,0.4c2.9,0.2,5.7,0.6,8.5,1.2
				c2.8,0.6,5.2,1.5,7.4,2.8c2.2,1.3,3.9,3,5.2,5.2s2,5,2,8.4c0,3.2-0.8,6.3-2.3,9.3c-1.6,3-3.8,5.7-6.8,8c-3,2.3-6.6,4.2-10.9,5.7
				c-4.3,1.4-9.2,2.1-14.7,2.1c-5.5,0-10.2-0.5-14.2-1.6c-4-1.1-7.3-2.5-10-4.2c-2.6-1.8-4.6-3.8-5.9-6.1c-1.3-2.3-2-4.7-2-7.1
				c0-3.4,1-6.2,3.1-8.5c2.1-2.3,4.9-4.1,8.5-5.5c-1.8-1-3.2-2.3-4.3-3.9c-1.1-1.6-1.6-3.8-1.6-6.4c0-1.1,0.2-2.2,0.6-3.3
				c0.4-1.1,0.9-2.3,1.7-3.4c0.8-1.1,1.7-2.2,2.9-3.2c1.2-1,2.5-1.9,4.1-2.7c-3.6-2-6.5-4.6-8.6-7.8c-2.1-3.3-3.1-7.1-3.1-11.5
				c0-3.5,0.7-6.8,2.1-9.6c1.4-2.9,3.4-5.3,5.9-7.3c2.5-2,5.6-3.6,9-4.7C422.3,121.9,426.1,121.4,430.2,121.4z M449.2,197.5
				c0-1.4-0.4-2.6-1.3-3.5c-0.8-0.9-2-1.6-3.4-2.1c-1.4-0.5-3.1-0.9-5.1-1.1c-1.9-0.2-4-0.4-6.2-0.4s-4.4,0-6.7,0s-4.5-0.3-6.7-0.8
				c-2,1.1-3.5,2.3-4.7,3.8c-1.2,1.5-1.8,3.2-1.8,5.1c0,1.3,0.3,2.4,0.9,3.5s1.6,2,3,2.8c1.4,0.8,3.2,1.4,5.4,1.9
				c2.2,0.4,4.9,0.7,8,0.7c3.2,0,6-0.3,8.3-0.8c2.3-0.5,4.3-1.2,5.8-2.1s2.6-1.9,3.3-3.1C448.9,200.2,449.2,198.9,449.2,197.5z
				 M430.2,156.8c2.1,0,4-0.3,5.6-0.9c1.6-0.6,2.9-1.4,4-2.4c1.1-1,1.8-2.3,2.4-3.7c0.5-1.4,0.8-3,0.8-4.8c0-3.5-1.1-6.4-3.2-8.4
				c-2.1-2.1-5.3-3.1-9.6-3.1c-4.2,0-7.4,1-9.6,3.1c-2.1,2.1-3.2,4.9-3.2,8.4c0,1.7,0.3,3.2,0.8,4.7c0.5,1.4,1.3,2.7,2.4,3.7
				c1,1,2.4,1.9,4,2.4C426.3,156.5,428.1,156.8,430.2,156.8z"/>
			<path class="st5" d="M507.5,121.5c4.5,0,8.7,0.7,12.5,2.2c3.8,1.4,7.1,3.6,9.8,6.3c2.8,2.8,4.9,6.2,6.4,10.2
				c1.5,4,2.3,8.6,2.3,13.8c0,1.3-0.1,2.4-0.2,3.3c-0.1,0.9-0.3,1.5-0.6,2c-0.3,0.5-0.7,0.8-1.2,1.1c-0.5,0.2-1.2,0.3-2,0.3h-44.4
				c0.5,7.4,2.5,12.8,6,16.2c3.5,3.5,8,5.2,13.7,5.2c2.8,0,5.2-0.3,7.2-1c2-0.7,3.8-1.4,5.3-2.2c1.5-0.8,2.8-1.5,4-2.2
				c1.1-0.7,2.2-1,3.3-1c0.7,0,1.3,0.1,1.8,0.4c0.5,0.3,1,0.7,1.3,1.2l5,6.3c-1.9,2.2-4.1,4.1-6.4,5.6c-2.4,1.5-4.9,2.7-7.5,3.6
				c-2.6,0.9-5.2,1.6-7.9,1.9c-2.7,0.4-5.3,0.6-7.8,0.6c-5,0-9.6-0.8-13.9-2.5c-4.3-1.7-8-4.1-11.2-7.4c-3.2-3.2-5.7-7.3-7.5-12
				c-1.8-4.8-2.7-10.3-2.7-16.6c0-4.9,0.8-9.5,2.4-13.8c1.6-4.3,3.9-8.1,6.8-11.3c3-3.2,6.6-5.7,10.8-7.6
				C497.3,122.4,502.2,121.5,507.5,121.5z M507.9,133.9c-5,0-9,1.4-11.8,4.3c-2.8,2.8-4.7,6.9-5.5,12.1h32.5c0-2.2-0.3-4.4-0.9-6.3
				s-1.5-3.7-2.8-5.2c-1.3-1.5-2.8-2.7-4.8-3.5C512.7,134.3,510.4,133.9,507.9,133.9z"/>
			<path class="st5" d="M552.7,194.4v-71.8h10.1c1.8,0,3,0.3,3.7,1c0.7,0.7,1.2,1.8,1.4,3.4l1,8.7c2.6-4.4,5.6-7.9,9-10.5
				c3.5-2.6,7.3-3.9,11.6-3.9c3.5,0,6.5,0.8,8.8,2.5l-2.2,13c-0.1,0.8-0.4,1.4-0.9,1.8c-0.5,0.3-1.1,0.5-1.9,0.5
				c-0.7,0-1.7-0.2-2.9-0.5c-1.2-0.3-2.8-0.5-4.8-0.5c-3.6,0-6.7,1-9.2,3c-2.6,2-4.7,4.9-6.5,8.7v44.7H552.7z"/>
		</g>
	</g>
</g>
</svg>
