<?xml version="1.0" encoding="utf-8"?>
<!-- Generator: Adobe Illustrator 24.0.2, SVG Export Plug-In . SVG Version: 6.00 Build 0)  -->
<svg version="1.1" id="Calque_1" xmlns="http://www.w3.org/2000/svg" xmlns:xlink="http://www.w3.org/1999/xlink" x="0px" y="0px"
	 viewBox="0 0 584 676" style="enable-background:new 0 0 584 676;" xml:space="preserve">
<path d="M542,490.3608398c0,10.5596619-4.1484375,21.0439148-11.7664795,28.6619263l-57.2484436,57.2484741
	c-7.5426331,7.5426636-18.1022949,11.7664795-28.5865479,11.7664795s-21.0439148-4.2238159-28.6619263-11.7664795
	L292.0376892,452.4969177L168.263382,576.2712402c-7.5426178,7.5426025-18.1022797,11.7664185-28.6619415,11.7664185
	s-21.0438919-4.2238159-28.5865097-11.7664185l-57.2484512-57.2484741C46.2238617,511.4047241,42,500.9204712,42,490.3608093
	s4.2238617-21.0439148,11.7664795-28.5865479l123.7743378-123.774292L53.7664833,214.3010712
	c-7.542614-7.618042-11.7664757-18.1022644-11.7664757-28.6619263s4.2238617-21.0438995,11.7664757-28.5865173
	l57.2484474-57.2484436c7.5426178-7.6180496,18.102272-11.8419037,28.5865097-11.8419037
	s21.1193237,4.2238693,28.6619415,11.8419037l123.7743073,123.6988983L415.7366028,99.804184
	c7.6180115-7.6180496,18.1022644-11.8419037,28.6619263-11.8419037s21.0439148,4.2238693,28.5865479,11.8419037
	l57.2484436,57.2484436C537.8515625,164.5952454,542,175.1549072,542,185.6391449
	c0,10.4842224-4.1484375,21.0438843-11.7664795,28.6619263L406.459198,337.9999695l123.7743225,123.774292
	c7.617981,7.5426331,11.7664185,18.1022949,11.7664185,28.5865479L542,490.3608398z"/>
</svg>
