<?xml version="1.0" encoding="utf-8"?>
<!-- Generator: Adobe Illustrator 23.0.2, SVG Export Plug-In . SVG Version: 6.00 Build 0)  -->
<svg version="1.1" id="Calque_1" xmlns="http://www.w3.org/2000/svg" xmlns:xlink="http://www.w3.org/1999/xlink" x="0px" y="0px"
	 viewBox="0 0 1071.4000244 982.7000122" style="enable-background:new 0 0 1071.4000244 982.7000122;" xml:space="preserve">
<style type="text/css">
	.st0{fill:#C3E0C6;}
</style>
<path class="st0" d="M500,491.1000061c0-78.6999817-64.2000122-142.8999939-142.8999939-142.8999939
	s-142.8000031,64.2000122-142.8000031,142.8999939S278.5,634,357.1000061,634S500,569.7999878,500,491.1000061L500,491.1000061z
	 M928.5999756,776.7999878c0-39-32.4000244-71.4000244-71.5-71.4000244s-71.4000244,32.4000244-71.4000244,71.4000244
	c0,39.5999756,32.4000244,71.4000244,71.4000244,71.4000244
	C896.7999878,848.2000122,928.5999756,815.9000244,928.5999756,776.7999878z M928.5999756,205.3999939
	c0-39.1000061-32.4000244-71.3999939-71.5-71.3999939s-71.4000244,32.3000031-71.4000244,71.3999939
	c0,39.6000061,32.4000244,71.3999939,71.4000244,71.3999939
	C896.7999878,276.7999878,928.5999756,244.3999939,928.5999756,205.3999939z M714.2999878,440.2999878v103.2999878
	c0,7.2000122-5.5999756,15.5999756-12.7999878,16.7000122L615,573.7000122c-4.5,14.5-10.5999756,28.4000244-17.9000244,42.4000244
	c15.5999756,22.2999878,32.4000244,43,50.2000122,64.2000122c2.2999878,3.2999878,3.9000244,6.7000122,3.9000244,11.0999756
	c0,3.9000244-1.0999756,7.7999878-3.9000244,10.5999756C636.2000122,717.0999756,573.7000122,785.2000122,557.5,785.2000122
	c-4.5,0-8.4000244-1.7000122-11.7000122-3.9000244l-64.2000122-50.2000122c-14,7.2000122-27.8999939,12.7999878-43,17.2999878
	c-2.7999878,28.4000244-5.6000061,59.0999756-12.7999878,86.5C423.5,842.6999512,416.8999939,848.1999512,409,848.1999512
	H305.2000122c-7.7999878,0-15.6000061-6.0999756-16.7000122-13.9000244l-12.7999878-85.4000244
	c-14.5-4.5-28.5-10.5999756-41.8999939-17.2999878L168,781.2999878c-2.8000031,2.7999878-7.3000031,3.9000244-11.1999969,3.9000244
	c-4.5,0-8.3999939-1.7000122-11.6999969-4.5c-14.5-13.4000244-80.4000015-73.0999756-80.4000015-89.2999878
	c0-3.9000244,1.6999969-7.2000122,3.9000015-10.5999756c16.1999969-21.2000122,33-41.7999878,49.0999985-63.5999756
	c-7.8000031-15.0999756-14.5-30.0999756-19.5-45.7000122l-84.8000031-13.4000244C5.5999999,556.9000244,0,549.7000122,0,541.9000244
	V438.6000061C0,431.3999939,5.5999999,423,12.8000002,421.8999939l86.5-13.3999939
	c4.5-14.5,10.5999985-28.3999939,17.9000015-42.3999939c-15.5999985-22.2999878-32.4000015-43-50.2000046-64.1999817
	c-2.3000031-3.2999878-3.9000015-7.2000122-3.9000015-11.1000061S64.1999969,283.0000305,67,279.6000061
	C78.0999985,264.5,140.6000061,197,156.8000031,197c4.5,0,8.3999939,1.6999969,11.6999969,3.8999939l64.1999969,50.1999969
	c14-7.1999969,27.9000092-12.8000031,43.0000153-17.8000031C278.5,205.3999939,281.3000183,174.6999817,288.5,147.3999939
	C290.7000122,139.5,297.3999939,134,305.2000122,134H409c7.8999939,0,15.7000122,6.1000061,16.7999878,13.8999939
	l12.7999878,85.3999939c14.5,4.5,28.5,10.6000061,41.8999939,17.3000031l65.8000183-49.6999969
	C549.7000122,198.0999908,553.5999756,197,557.5,197c4.4000244,0,8.2999878,1.6999969,11.7000122,4.5
	c14.5,13.3999939,80.4000244,73.6000061,80.4000244,89.2999878c0,3.8999939-1.7000122,7.2000122-4,10.6000061
	c-16.0999756,21.7000122-32.9000244,41.7999878-48.5,63.6000061c7.2999878,15.1000061,13.9000244,30.1000061,19,45.7000122
	l84.7999878,12.8999939C708.7000122,425.2999878,714.2999878,432.5,714.2999878,440.2999878L714.2999878,440.2999878z
	 M1071.4000244,737.7999878v78.0999756c0,8.2999878-72,16.2000122-83.0999756,17.2999878
	c-4.5,10.5999756-10.0999756,20.0999756-16.7999878,29c5.0999756,11.2000122,28.5,67,28.5,77
	c0,1.7000122-0.5999756,2.7999878-2.2000122,3.9000244C991.1000366,947,931.4000244,982.6999512,928.6000366,982.6999512
	c-7.2999878,0-49.0999756-55.7999878-54.7000122-64.0999756c-5.5999756,0.5-11.2000122,1.0999756-16.7999878,1.0999756
	s-11.0999756-0.5999756-16.7000122-1.0999756C834.8000488,926.8999634,793,982.6999512,785.7000122,982.6999512
	c-2.7999878,0-62.5-35.7000122-69.2000122-39.5999756c-1.7000122-1.0999756-2.2000122-2.7999878-2.2000122-3.9000244
	c0-9.5,23.4000244-65.7999878,28.4000244-77C736,853.2999268,730.5,843.7999268,726,833.1999512
	c-11.2000122-1.0999756-83.0999756-9-83.0999756-17.2999878v-78.0999756c0-8.4000244,71.9000244-16.2000122,83.0999756-17.2999878
	c4.5-10.0999756,10-20.0999756,16.7000122-29.0999756c-5-11.0999756-28.4000244-67.5-28.4000244-77
	c0-1.0999756,0.5-2.7999878,2.2000122-3.9000244c6.7000122-3.2999878,66.4000244-39,69.2000122-39
	c7.2999878,0,49.0999756,55.2000122,54.7000122,63.5999756C846,634.5,851.6000366,634,857.1000366,634
	s11.2000122,0.5,16.7999878,1.0999756c15.5999756-21.7999878,32.4000244-43.5999756,51.2999878-62.5L928.6000366,571.5
	c2.7999878,0,62.5,35.0999756,69.2000122,39c1.5999756,1.0999756,2.2000122,2.7999878,2.2000122,3.9000244
	c0,10.0999756-23.4000244,65.9000244-28.5,77c6.7000122,9,12.2999878,19,16.7999878,29.0999756
	C999.4000244,721.5999756,1071.4000244,729.4000244,1071.4000244,737.7999878z M1071.4000244,166.3000031v78.0999908
	c0,8.3999939-72,16.2000122-83.0999756,17.2999878c-4.5,10.7000122-10.0999756,20.1000061-16.7999878,29.1000061
	c5.0999756,11.1000061,28.5,66.8999939,28.5,77c0,1.6000061-0.5999756,2.7999878-2.2000122,3.8999939
	c-6.7000122,3.8999939-66.4000244,39.6000061-69.2000122,39.6000061c-7.2999878,0-49.0999756-55.7999878-54.7000122-64.2000122
	c-5.5999756,0.6000061-11.2000122,1.1000061-16.7999878,1.1000061s-11.0999756-0.5-16.7000122-1.1000061
	C834.8000488,355.4999695,793,411.2999878,785.7000122,411.2999878c-2.7999878,0-62.5-35.7000122-69.2000122-39.6000061
	c-1.7000122-1.1000061-2.2000122-2.7999878-2.2000122-3.8999939c0-9.5,23.4000244-65.8999939,28.4000244-77
	C736,281.7999878,730.5,272.3999939,726,261.6999817c-11.2000122-1.1000061-83.0999756-8.8999939-83.0999756-17.3000031v-78.0999908
	c0-8.3000031,71.9000244-16.1999969,83.0999756-17.3000031c4.5-10,10-20.1000061,16.7000122-29
	c-5-11.1999969-28.4000244-67.5-28.4000244-77c0-1.0999985,0.5-2.7999992,2.2000122-3.9000015
	C723.2000122,35.7000008,782.9000244,0,785.7000122,0C793,0,834.7999878,55.2999992,840.4000244,63.5999985
	C846,63.0999985,851.6000366,62.5,857.1000366,62.5s11.2000122,0.5999985,16.7999878,1.0999985
	c15.5999756-21.7000008,32.4000244-43.5,51.2999878-62.5l3.4000244-1.1c2.7999878,0,62.5,35.2000008,69.2000122,39.0999985
	c1.5999756,1.0999985,2.2000122,2.7999992,2.2000122,3.9000015c0,10-23.4000244,65.8000031-28.5,77
	c6.7000122,8.8999939,12.2999878,19,16.7999878,29C999.4000244,150.1000061,1071.4000244,158,1071.4000244,166.3000031z"/>
</svg>
