<?xml version="1.0" encoding="utf-8"?>
<!-- Generator: Adobe Illustrator 26.2.1, SVG Export Plug-In . SVG Version: 6.00 Build 0)  -->
<svg version="1.1" id="Calque_1" xmlns="http://www.w3.org/2000/svg" xmlns:xlink="http://www.w3.org/1999/xlink" x="0px" y="0px"
	 viewBox="0 0 512 512" style="enable-background:new 0 0 512 512;" xml:space="preserve">
<style type="text/css">
	.st0{fill:#781628;}
	.st1{fill:#00C05E;}
	.st2{fill:#A31F46;}
	.st3{fill:#005E2D;}
	.st4{fill:#8E1A37;}
	.st5{fill:#008F46;}
</style>
<g>
	<g>
		<path class="st0" d="M127.9,34.2C45.8,81.6,0.1,167.6,0,256h51.2c0.1-70.7,36.7-139.6,102.2-177.4L127.9,34.2z"/>
	</g>
	<g>
		<path class="st1" d="M153.5,78.6c65.5-37.8,143.4-35.1,204.7,0.2l25.6-44.4c-76.6-44.1-173.9-47.6-256-0.2L153.5,78.6z"/>
	</g>
	<g>
		<path class="st2" d="M512,256c0-94.8-51.6-177.3-128.1-221.6l-25.6,44.4c61.2,35.5,102.5,101.5,102.5,177.2H512z"/>
	</g>
	<g>
		<path class="st3" d="M153.4,433.4C87.9,395.6,51.3,326.7,51.2,256H0c0.1,88.4,45.8,174.4,127.9,221.8L153.4,433.4z"/>
	</g>
	<g>
		<path class="st4" d="M127.8,477.8c82.1,47.4,179.4,43.9,256-0.2l-25.6-44.4c-61.3,35.3-139.2,38-204.7,0.2L127.8,477.8z"/>
	</g>
	<g>
		<path class="st5" d="M460.8,256c0,75.7-41.3,141.7-102.5,177.2l25.6,44.4C460.4,433.3,512,350.8,512,256H460.8z"/>
	</g>
</g>
</svg>
