<?xml version="1.0" encoding="utf-8"?>
<!-- Generator: Adobe Illustrator 26.2.1, SVG Export Plug-In . SVG Version: 6.00 Build 0)  -->
<svg version="1.1" id="Calque_1" xmlns="http://www.w3.org/2000/svg" xmlns:xlink="http://www.w3.org/1999/xlink" x="0px" y="0px"
	 viewBox="0 0 512 512" style="enable-background:new 0 0 512 512;" xml:space="preserve">
<style type="text/css">
	.st0{fill:#A31F46;}
	.st1{fill:#781628;}
	.st2{fill:#8E1A37;}
</style>
<g>
	<g>
		<path class="st0" d="M256,51.2c75.7,0,141.7,41.4,177.2,102.5l44.4-25.6C433.3,51.6,350.8,0.1,256,0.1S78.7,51.6,34.4,128.2
			l44.4,25.6C114.3,92.6,180.3,51.2,256,51.2z"/>
	</g>
	<g>
		<path class="st1" d="M78.6,358.4c-37.8-65.5-35.1-143.4,0.2-204.7l-44.4-25.6c-44.1,76.6-47.6,173.9-0.2,256
			S167.6,511.8,256,511.9v-51.2C185.3,460.5,116.4,424,78.6,358.4z"/>
	</g>
	<g>
		<path class="st2" d="M433.4,358.4c37.8-65.5,35.1-143.4-0.2-204.7l44.4-25.6c44.1,76.6,47.6,173.9,0.2,256S344.4,511.8,256,511.9
			v-51.2C326.7,460.5,395.6,424,433.4,358.4z"/>
	</g>
</g>
</svg>
