<?xml version="1.0" encoding="utf-8"?>
<!-- Generator: Adobe Illustrator 26.2.1, SVG Export Plug-In . SVG Version: 6.00 Build 0)  -->
<svg version="1.1" id="Calque_1" xmlns="http://www.w3.org/2000/svg" xmlns:xlink="http://www.w3.org/1999/xlink" x="0px" y="0px"
	 viewBox="0 0 512 512" style="enable-background:new 0 0 512 512;" xml:space="preserve">
<style type="text/css">
	.st0{fill:#008F46;}
	.st1{fill:#8E1A37;}
	.st2{fill:#781628;}
	.st3{fill:#005E2D;}
</style>
<g>
	<path class="st0" d="M256,0L256,0C114.6,0,0,114.6,0,256h51.2c0-112.9,91.9-204.8,204.8-204.8V0z"/>
	<path class="st1" d="M256,51.2c112.9,0,204.8,91.9,204.8,204.8H512C512,114.6,397.4,0,256,0l0,0V51.2z"/>
	<path class="st2" d="M256,460.8c-112.9,0-204.8-91.9-204.8-204.8H0c0,141.4,114.6,256,256,256l0,0V460.8z"/>
	<path class="st3" d="M256,512L256,512c141.4,0,256-114.6,256-256h-51.2c0,112.9-91.9,204.8-204.8,204.8L256,512L256,512z"/>
</g>
</svg>
