<?xml version="1.0" encoding="utf-8"?>
<!-- Generator: Adobe Illustrator 26.0.2, SVG Export Plug-In . SVG Version: 6.00 Build 0)  -->
<svg version="1.1" id="Calque_1" xmlns="http://www.w3.org/2000/svg" xmlns:xlink="http://www.w3.org/1999/xlink" x="0px" y="0px"
	 viewBox="0 0 800 711.1868896" style="enable-background:new 0 0 800 711.1868896;" xml:space="preserve">
<style type="text/css">
	.st0{fill:#C3E0C6;}
</style>
<path class="st0" d="M307.6000671,126.486969l0.5-0.3000031c-16.1000061-84.1999969-97.4999847-139.5-181.7999878-123.3999939
	C53.0000687,16.8869724-0.0999295,80.8869705,0.0000705,155.5869751v555.5999756h177.8000031V361.8869629
	c0-13.7999878,3.1999969-27.3999939,9.3999939-39.7000122l77.0999756-154.1000061
	C273.4000549,149.5869751,288.8000488,134.986969,307.6000671,126.486969L307.6000671,126.486969z M795.3000488,341.986969
	l-77.0999756-154.1000061c-4.5999756-9.1999969-12.2999878-16.5-21.7000122-20.6999969L529.1000366,92.8869629
	c-11.5-5.1000061-24.6000061-5.1000061-36.1000061,0l-167.3999939,74.3000031
	c-9.3999939,4.1999969-17.1000061,11.6000061-21.7000122,20.6999969L226.8000336,341.986969
	c-3.1000061,6.1000061-4.6999969,13-4.6999969,19.7999878v349.3000183H400.000061V577.7869873h222.2000122v133.2999878H800.000061
	V361.8869629C800.000061,354.986969,798.4000854,348.1869812,795.3000488,341.986969z M577.8000488,444.486969H444.4000549
	V311.1869812h133.3000183V444.486969H577.8000488z"/>
</svg>
