<?xml version="1.0" encoding="utf-8"?>
<!-- Generator: Adobe Illustrator 23.0.2, SVG Export Plug-In . SVG Version: 6.00 Build 0)  -->
<svg version="1.1" id="Calque_1" xmlns="http://www.w3.org/2000/svg" xmlns:xlink="http://www.w3.org/1999/xlink" x="0px" y="0px"
	 viewBox="0 0 292 292" style="enable-background:new 0 0 292 292;" xml:space="preserve">
<style type="text/css">
	.st0{fill:url(#SVGID_1_);}
	.st1{fill:url(#SVGID_2_);}
	.st2{fill:#333333;}
</style>
<linearGradient id="SVGID_1_" gradientUnits="userSpaceOnUse" x1="146" y1="-1448" x2="146" y2="-1176" gradientTransform="matrix(1 0 0 -1 0 -1166)">
	<stop  offset="0" style="stop-color:#E8E8E8"/>
	<stop  offset="1" style="stop-color:#F9F9F9"/>
</linearGradient>
<path class="st0" d="M282,10v272H25c-8,0-15-7-15-15V25c0-8,7-15,15-15H282z"/>
<linearGradient id="SVGID_2_" gradientUnits="userSpaceOnUse" x1="146" y1="-1458" x2="146" y2="-1166" gradientTransform="matrix(1 0 0 -1 0 -1166)">
	<stop  offset="0" style="stop-color:#BBBBBB"/>
	<stop  offset="1" style="stop-color:#DCDCDC"/>
</linearGradient>
<path class="st1" d="M282,10v272H25c-8,0-15-7-15-15V25c0-8,7-15,15-15H282z M25,0C11,0,0,11,0,25v242c0,14,11,25,25,25h267V0H25z"
	/>
<path class="st2" d="M198.370697,90.2820969L142.6339874,146l55.7367096,55.7178955
	c2.6138306,2.6326447,2.6138306,6.8260651,0,9.4398956l-17.4318237,17.4318237c-2.6138458,2.6138458-6.807251,2.6138458-9.4398956,0
	L93.629303,150.7199402c-2.6138382-2.6326294-2.6138382-6.8260498,0-9.4398804l77.8696747-77.8696899
	c2.6326447-2.6138306,6.8260498-2.6138306,9.4398956,0l17.4318237,17.4130211c2.6138306,2.6326447,2.6138306,6.8260574,0,9.4586945
	V90.2820969z"/>
</svg>
