<?xml version="1.0" encoding="utf-8"?>
<!-- Generator: Adobe Illustrator 22.0.1, SVG Export Plug-In . SVG Version: 6.00 Build 0)  -->
<svg version="1.1" id="Calque_1" xmlns="http://www.w3.org/2000/svg" xmlns:xlink="http://www.w3.org/1999/xlink" x="0px" y="0px"
	 viewBox="0 0 153.8 163.5" style="enable-background:new 0 0 153.8 163.5;" xml:space="preserve">
<style type="text/css">
	.st0{fill:none;stroke:#000000;stroke-width:7.5;stroke-linecap:round;stroke-linejoin:round;}
	.st1{fill:none;stroke:#000000;stroke-width:7.5;stroke-linecap:round;}
</style>
<path id="hand-border" class="st0" d="M34.9,124.4c-2.8-3.6-6.3-10.9-12.4-19.8c-3.5-5-12.1-14.5-14.7-19.4c-2.2-4.3-2-6.2-1.5-9.7
	c0.9-6.3,7.4-11.2,14.3-10.5c5.2,0.5,9.6,3.9,13.6,7.2c2.4,2,5.3,5.7,7.1,7.9c1.6,2,2,2.8,3.8,5.1c2.3,3.1,3,4.6,2.1,1.2
	c-0.7-5-1.9-13.4-3.6-20.9c-1.3-5.7-1.6-6.6-2.8-10.9c-1.3-4.6-2-7.9-3.2-12.8c-0.8-3.5-2.4-10.6-2.8-14.6
	c-0.6-5.5-0.9-14.4,2.6-18.5c2.7-3.2,9.1-4.2,13-2.2c5.1,2.6,8,10,9.4,13c2.4,5.3,3.9,11.5,5.2,19.6c1.6,10.3,4.7,24.6,4.8,27.6
	c0.2-3.7-0.7-11.5,0-15c0.6-3.2,3.3-6.9,6.7-8c2.9-0.8,6.2-1.2,9.2-0.6c3.1,0.6,6.4,2.9,7.7,5c3.6,6.2,3.7,19,3.8,18.3
	c0.9-3.8,0.7-12.3,2.8-15.8c1.4-2.3,5-4.4,6.9-4.8c2.9-0.5,6.6-0.7,9.6-0.1c2.5,0.5,5.9,3.4,6.8,4.9c2.2,3.4,3.4,13.2,3.8,16.6
	c0.2,1.4,0.7-3.9,2.9-7.4c4.1-6.4,18.4-7.6,19,6.4c0.2,6.5,0.2,6.2,0.2,10.6c0,5.2-0.1,8.3-0.4,12c-0.3,4-1.2,13-2.4,17.4
	c-0.9,3-3.7,9.8-6.5,13.8c0,0-10.7,12.5-11.9,18.1c-1.2,5.6-0.8,5.7-1,9.7c-0.2,4,1.2,9.2,1.2,9.2s-8,1-12.3,0.4
	c-3.9-0.6-8.8-8.4-10-10.8c-1.7-3.3-5.4-2.6-6.8-0.2c-2.3,3.8-7.1,10.7-10.5,11.1c-6.7,0.8-20.5,0.3-31.4,0.2c0,0,1.8-10.1-2.3-13.6
	c-3.1-2.6-8.3-7.8-11.4-10.6L34.9,124.4L34.9,124.4z"/>
<path id="line3" class="st1" d="M117.3,128V93.4"/>
<path id="line2" class="st1" d="M97.1,128.1L97,93.4"/>
<path id="line1" class="st1" d="M77.2,93.7l0.2,34.3"/>
</svg>
