<?xml version="1.0" encoding="utf-8"?>
<!-- Generator: Adobe Illustrator 22.0.1, SVG Export Plug-In . SVG Version: 6.00 Build 0)  -->
<svg version="1.1" id="Calque_1" xmlns="http://www.w3.org/2000/svg" xmlns:xlink="http://www.w3.org/1999/xlink" x="0px" y="0px"
	 viewBox="0 0 136.6 163.5" style="enable-background:new 0 0 136.6 163.5;" xml:space="preserve">
<style type="text/css">
	.st0{fill:none;stroke:#000000;stroke-width:7.5;stroke-linejoin:round;}
	.st1{fill:none;stroke:#000000;stroke-width:7.5;stroke-linecap:round;}
</style>
<g>
	<path id="hand-border" class="st0" d="M30.7,32.3c4.8-1.8,14.3-0.7,16.8,4.7c2.1,4.6,4,12.4,4.1,10.7c0.2-3.7-0.2-11.7,1.4-15.8
		c1.2-3,3.5-5.9,6.9-6.9c2.8-0.9,6.2-1.2,9.2-0.6c3.1,0.6,6.4,2.9,7.6,5c3.6,6.2,3.7,19,3.8,18.3c0.6-2.7,0.7-12.3,2.8-15.8
		c1.4-2.4,5-4.4,6.9-4.8c2.9-0.5,6.6-0.7,9.6-0.1c2.5,0.5,5.9,3.4,6.8,4.9c2.2,3.4,3.4,13.2,3.8,16.6c0.2,1.4,0.7-3.9,2.9-7.4
		c4.1-6.4,18.4-7.6,19,6.4c0.3,6.5,0.2,6.2,0.2,10.6c0,5.2-0.1,8.3-0.4,12c-0.3,4-1.2,13-2.4,17.4c-0.9,3-3.7,9.8-6.5,13.8
		c0,0-10.7,12.5-11.9,18.1c-1.2,5.6-0.8,5.7-1,9.6c-0.2,4,1.2,9.2,1.2,9.2s-8,1-12.3,0.3c-3.9-0.6-8.8-8.4-10-10.8
		c-1.7-3.3-5.4-2.7-6.8-0.2c-2.2,3.8-7.1,10.7-10.5,11.1c-6.7,0.8-20.6,0.3-31.4,0.2c0,0,1.9-10.1-2.3-13.6
		c-3.1-2.6-8.3-7.8-11.4-10.6l-8.3-9.2c-2.8-3.6-10-9.3-12.4-19.9c-2.1-9.4-1.9-14,0.4-17.7c2.3-3.8,6.7-5.9,8.5-6.3
		c2.1-0.4,6.9-0.4,8.8,0.6c2.2,1.2,3.1,1.6,4.9,3.9c2.3,3.1,3.1,4.6,2.1,1.2c-0.8-2.6-3.2-5.9-4.3-9.7c-1.1-3.6-4-9.4-3.8-15.3
		C22.5,40.5,23.4,35,30.7,32.3L30.7,32.3z"/>
	<path id="line3" class="st1" d="M100.6,109.3V74.7"/>
	<path id="line2" class="st1" d="M80.5,109.4l-0.2-34.7"/>
	<path id="line1" class="st1" d="M60.5,75l0.2,34.3"/>
</g>
</svg>
