<?xml version="1.0" encoding="utf-8"?>
<!-- Generator: Adobe Illustrator 24.3.0, SVG Export Plug-In . SVG Version: 6.00 Build 0)  -->
<svg version="1.1" id="Calque_1" xmlns="http://www.w3.org/2000/svg" xmlns:xlink="http://www.w3.org/1999/xlink" x="0px" y="0px"
	 viewBox="0 0 889.4 292" style="enable-background:new 0 0 889.4 292;" xml:space="preserve">
<style type="text/css">
	.st0{fill:url(#SVGID_1_);}
	.st1{fill:url(#SVGID_2_);}
	.st2{fill:#FFFFFF;}
	.st3{fill:#333333;}
	.st4{fill:#3A3A3A;}
</style>
<g>
	
		<linearGradient id="SVGID_1_" gradientUnits="userSpaceOnUse" x1="2437.3" y1="-1140" x2="2437.3" y2="-848" gradientTransform="matrix(-1 0 0 -1 2882 -848)">
		<stop  offset="0" style="stop-color:#BBBBBB"/>
		<stop  offset="1" style="stop-color:#DCDCDC"/>
	</linearGradient>
	<path class="st0" d="M25,282c-8,0-15-7-15-15V25c0-8,7-15,15-15h839.5c8,0,15,7,15,15v242c0,8-7,15-15,15H25z M864.4,292
		c14,0,25-11,25-25V25c0-14-11-25-25-25H25C11,0,0,11,0,25v242c0,14,11,25,25,25H864.4z"/>
</g>
<linearGradient id="SVGID_2_" gradientUnits="userSpaceOnUse" x1="2437.25" y1="900" x2="2437.25" y2="628" gradientTransform="matrix(-1 0 0 1 2882 -618)">
	<stop  offset="0" style="stop-color:#E8E8E8"/>
	<stop  offset="1" style="stop-color:#F9F9F9"/>
</linearGradient>
<path class="st1" d="M25,282c-8,0-15-7-15-15V25c0-8,7-15,15-15h839.5c8,0,15,7,15,15v242c0,8-7,15-15,15H25z"/>
<g>
	<g>
		<path class="st2" d="M301.7,203.5h-18.9V102.2h18.9V203.5z"/>
		<path class="st2" d="M323.5,203.5v-71.8H334c2.2,0,3.7,1,4.4,3.1l1.1,5.3c1.3-1.4,2.6-2.7,4-3.9s2.8-2.2,4.4-3s3.2-1.5,5-2
			s3.8-0.7,5.9-0.7c4.5,0,8.2,1.2,11.2,3.7c2.9,2.5,5.1,5.7,6.5,9.8c1.1-2.4,2.5-4.4,4.2-6.1c1.7-1.7,3.5-3.1,5.5-4.2
			c2-1.1,4.1-1.9,6.4-2.4s4.5-0.8,6.8-0.8c4,0,7.5,0.6,10.6,1.8s5.7,3,7.8,5.3c2.1,2.3,3.7,5.2,4.8,8.5c1.1,3.4,1.6,7.2,1.6,11.5
			v45.7h-17.3v-45.7c0-4.6-1-8-3-10.3s-4.9-3.5-8.8-3.5c-1.8,0-3.4,0.3-4.9,0.9c-1.5,0.6-2.8,1.5-4,2.6c-1.1,1.1-2,2.6-2.7,4.3
			s-1,3.7-1,6v45.7h-17.4v-45.7c0-4.8-1-8.3-2.9-10.5s-4.8-3.3-8.6-3.3c-2.5,0-4.8,0.6-7,1.9c-2.2,1.2-4.2,2.9-6.1,5.1v52.6
			L323.5,203.5L323.5,203.5z"/>
		<path class="st2" d="M441.4,226.9v-95.3H452c1.1,0,2.1,0.3,2.9,0.8s1.3,1.3,1.5,2.4l1.4,6.6c2.9-3.3,6.2-6,10-8
			c3.8-2.1,8.2-3.1,13.2-3.1c3.9,0,7.5,0.8,10.7,2.4s6,4,8.4,7.1s4.2,6.9,5.5,11.5s1.9,9.8,1.9,15.6c0,5.4-0.7,10.3-2.2,14.9
			c-1.4,4.6-3.5,8.5-6.2,11.9s-5.9,6-9.7,7.9c-3.8,1.9-8.1,2.8-12.8,2.8c-4.1,0-7.5-0.6-10.3-1.9c-2.8-1.2-5.4-3-7.6-5.1v29.4h-17.3
			V226.9z M475,144c-3.6,0-6.7,0.8-9.2,2.3s-4.9,3.7-7.1,6.4v32.2c2,2.4,4.1,4.1,6.4,5.1s4.8,1.4,7.5,1.4c2.6,0,5-0.5,7.1-1.5
			s3.9-2.5,5.4-4.5s2.6-4.5,3.4-7.6s1.2-6.7,1.2-10.8c0-4.2-0.3-7.8-1-10.7s-1.6-5.3-2.9-7.1s-2.8-3.1-4.6-4
			C479.3,144.4,477.2,144,475,144z"/>
		<path class="st2" d="M551.2,130.5c5.4,0,10.2,0.9,14.6,2.6c4.4,1.7,8.1,4.2,11.2,7.4c3.1,3.2,5.5,7,7.1,11.6
			c1.7,4.6,2.5,9.7,2.5,15.3c0,5.7-0.8,10.8-2.5,15.4c-1.7,4.6-4.1,8.5-7.1,11.7c-3.1,3.2-6.8,5.7-11.2,7.4s-9.2,2.6-14.6,2.6
			c-5.4,0-10.2-0.9-14.6-2.6c-4.4-1.7-8.1-4.2-11.2-7.4c-3.1-3.2-5.5-7.1-7.2-11.7c-1.7-4.6-2.6-9.7-2.6-15.4
			c0-5.6,0.9-10.8,2.6-15.3c1.7-4.6,4.1-8.4,7.2-11.6c3.1-3.2,6.8-5.6,11.2-7.4C540.9,131.4,545.8,130.5,551.2,130.5z M551.2,191.2
			c6,0,10.4-2,13.3-6c2.9-4,4.3-9.9,4.3-17.6c0-7.7-1.4-13.6-4.3-17.7c-2.9-4.1-7.3-6.1-13.3-6.1c-6.1,0-10.5,2-13.4,6.1
			s-4.3,10-4.3,17.7s1.4,13.6,4.3,17.6C540.6,189.2,545.1,191.2,551.2,191.2z"/>
		<path class="st2" d="M600.1,203.5v-71.8h10.1c1.8,0,3,0.3,3.7,1s1.2,1.8,1.4,3.4l1,8.7c2.6-4.4,5.6-7.9,9-10.5
			c3.5-2.6,7.3-3.9,11.6-3.9c3.5,0,6.5,0.8,8.8,2.4l-2.2,13c-0.1,0.8-0.4,1.4-0.9,1.8c-0.5,0.3-1.1,0.5-1.9,0.5
			c-0.7,0-1.7-0.2-2.9-0.5s-2.8-0.5-4.8-0.5c-3.6,0-6.7,1-9.2,3c-2.6,2-4.7,4.9-6.5,8.7v44.7L600.1,203.5L600.1,203.5z"/>
		<path class="st2" d="M680.9,204.6c-6.2,0-11-1.8-14.3-5.3c-3.4-3.5-5-8.4-5-14.6v-40.1h-7.3c-0.9,0-1.7-0.3-2.4-0.9
			c-0.7-0.6-1-1.5-1-2.7v-6.9l11.5-1.9l3.6-19.6c0.2-0.9,0.6-1.7,1.3-2.2s1.5-0.8,2.6-0.8h9v22.6h18.9v12.3h-18.9v38.9
			c0,2.2,0.6,4,1.7,5.2c1.1,1.3,2.6,1.9,4.5,1.9c1.1,0,2-0.1,2.7-0.4c0.7-0.3,1.4-0.5,1.9-0.8s1-0.5,1.4-0.8s0.8-0.4,1.3-0.4
			s0.9,0.1,1.3,0.4c0.3,0.3,0.7,0.6,1.1,1.2l5.2,8.4c-2.5,2.1-5.4,3.7-8.7,4.8C687.8,204,684.4,204.6,680.9,204.6z"/>
		<path class="st2" d="M741.2,130.5c4.5,0,8.7,0.7,12.5,2.2c3.8,1.4,7.1,3.6,9.8,6.3c2.8,2.8,4.9,6.2,6.4,10.2s2.3,8.6,2.3,13.8
			c0,1.3-0.1,2.4-0.2,3.3c-0.1,0.9-0.3,1.5-0.6,2s-0.7,0.8-1.2,1s-1.2,0.3-2,0.3h-44.4c0.5,7.4,2.5,12.8,6,16.2
			c3.5,3.5,8,5.2,13.7,5.2c2.8,0,5.2-0.3,7.2-1s3.8-1.4,5.3-2.2s2.8-1.5,4-2.2c1.1-0.7,2.2-1,3.3-1c0.7,0,1.3,0.1,1.8,0.4
			c0.5,0.3,1,0.7,1.3,1.2l5,6.3c-1.9,2.2-4.1,4.1-6.4,5.6c-2.4,1.5-4.9,2.7-7.5,3.6c-2.6,0.9-5.2,1.6-7.9,1.9
			c-2.7,0.4-5.3,0.6-7.8,0.6c-5,0-9.6-0.8-13.9-2.5c-4.3-1.7-8-4.1-11.2-7.4c-3.2-3.2-5.7-7.3-7.5-12c-1.8-4.8-2.7-10.3-2.7-16.6
			c0-4.9,0.8-9.5,2.4-13.8c1.6-4.3,3.9-8.1,6.8-11.3c3-3.2,6.6-5.7,10.8-7.6C731,131.4,735.8,130.5,741.2,130.5z M741.5,142.9
			c-5,0-9,1.4-11.8,4.3c-2.8,2.8-4.7,6.9-5.5,12.1h32.5c0-2.2-0.3-4.4-0.9-6.3c-0.6-2-1.5-3.7-2.8-5.2s-2.8-2.7-4.8-3.5
			C746.3,143.3,744.1,142.9,741.5,142.9z"/>
		<path class="st2" d="M786.3,203.5v-71.8h10.1c1.8,0,3,0.3,3.7,1s1.2,1.8,1.4,3.4l1,8.7c2.6-4.4,5.6-7.9,9-10.5
			c3.5-2.6,7.3-3.9,11.6-3.9c3.5,0,6.5,0.8,8.8,2.4l-2.2,13c-0.1,0.8-0.4,1.4-0.9,1.8c-0.5,0.3-1.1,0.5-1.9,0.5
			c-0.7,0-1.7-0.2-2.9-0.5s-2.8-0.5-4.8-0.5c-3.6,0-6.7,1-9.2,3c-2.6,2-4.7,4.9-6.5,8.7v44.7L786.3,203.5L786.3,203.5z"/>
	</g>
	<g>
		<path class="st3" d="M291.7,193.5h-18.9V92.2h18.9V193.5z"/>
		<path class="st3" d="M313.5,193.5v-71.8H324c2.2,0,3.7,1,4.4,3.1l1.1,5.3c1.3-1.4,2.6-2.7,4-3.9c1.4-1.2,2.8-2.2,4.4-3
			s3.2-1.5,5-2s3.8-0.7,5.9-0.7c4.5,0,8.2,1.2,11.2,3.7c2.9,2.5,5.1,5.7,6.5,9.8c1.1-2.4,2.5-4.4,4.2-6.1c1.7-1.7,3.5-3.1,5.5-4.2
			s4.1-1.9,6.4-2.4s4.5-0.8,6.8-0.8c4,0,7.5,0.6,10.6,1.8c3.1,1.2,5.7,3,7.8,5.3c2.1,2.3,3.7,5.2,4.8,8.5c1.1,3.4,1.6,7.2,1.6,11.5
			v45.7h-17.3v-45.7c0-4.6-1-8-3-10.3s-4.9-3.5-8.8-3.5c-1.8,0-3.4,0.3-4.9,0.9c-1.5,0.6-2.8,1.5-4,2.6c-1.1,1.1-2,2.6-2.7,4.3
			s-1,3.7-1,6v45.7h-17.4v-45.7c0-4.8-1-8.3-2.9-10.5s-4.8-3.3-8.6-3.3c-2.5,0-4.8,0.6-7,1.9c-2.2,1.2-4.2,2.9-6.1,5.1v52.6h-17
			V193.5z"/>
		<path class="st3" d="M431.4,216.9v-95.3H442c1.1,0,2.1,0.3,2.9,0.8s1.3,1.3,1.5,2.4l1.4,6.6c2.9-3.3,6.2-6,10-8
			c3.8-2.1,8.2-3.1,13.2-3.1c3.9,0,7.5,0.8,10.7,2.4s6,4,8.4,7.1s4.2,6.9,5.5,11.5s1.9,9.8,1.9,15.6c0,5.4-0.7,10.3-2.2,14.9
			c-1.4,4.6-3.5,8.5-6.2,11.9s-5.9,6-9.7,7.9c-3.8,1.9-8.1,2.8-12.8,2.8c-4.1,0-7.5-0.6-10.3-1.9c-2.8-1.2-5.4-3-7.6-5.1v29.4h-17.3
			V216.9z M465,134c-3.6,0-6.7,0.8-9.2,2.3s-4.9,3.7-7.1,6.4v32.2c2,2.4,4.1,4.1,6.4,5.1s4.8,1.4,7.5,1.4c2.6,0,5-0.5,7.1-1.5
			s3.9-2.5,5.4-4.5s2.6-4.5,3.4-7.6s1.2-6.7,1.2-10.8c0-4.2-0.3-7.8-1-10.7s-1.6-5.3-2.9-7.1s-2.8-3.1-4.6-4
			C469.3,134.4,467.2,134,465,134z"/>
		<path class="st3" d="M541.2,120.5c5.4,0,10.2,0.9,14.6,2.6c4.4,1.7,8.1,4.2,11.2,7.4c3.1,3.2,5.5,7,7.1,11.6
			c1.7,4.6,2.5,9.7,2.5,15.3c0,5.7-0.8,10.8-2.5,15.4c-1.7,4.6-4.1,8.5-7.1,11.7c-3.1,3.2-6.8,5.7-11.2,7.4s-9.2,2.6-14.6,2.6
			c-5.4,0-10.2-0.9-14.6-2.6c-4.4-1.7-8.1-4.2-11.2-7.4c-3.1-3.2-5.5-7.1-7.2-11.7c-1.7-4.6-2.6-9.7-2.6-15.4
			c0-5.6,0.9-10.8,2.6-15.3c1.7-4.6,4.1-8.4,7.2-11.6c3.1-3.2,6.8-5.6,11.2-7.4C530.9,121.4,535.8,120.5,541.2,120.5z M541.2,181.2
			c6,0,10.4-2,13.3-6c2.9-4,4.3-9.9,4.3-17.6c0-7.7-1.4-13.6-4.3-17.7c-2.9-4.1-7.3-6.1-13.3-6.1c-6.1,0-10.5,2-13.4,6.1
			s-4.3,10-4.3,17.7s1.4,13.6,4.3,17.6C530.6,179.2,535.1,181.2,541.2,181.2z"/>
		<path class="st3" d="M590.1,193.5v-71.8h10.1c1.8,0,3,0.3,3.7,1s1.2,1.8,1.4,3.4l1,8.7c2.6-4.4,5.6-7.9,9-10.5
			c3.5-2.6,7.3-3.9,11.6-3.9c3.5,0,6.5,0.8,8.8,2.4l-2.2,13c-0.1,0.8-0.4,1.4-0.9,1.8c-0.5,0.3-1.1,0.5-1.9,0.5
			c-0.7,0-1.7-0.2-2.9-0.5s-2.8-0.5-4.8-0.5c-3.6,0-6.7,1-9.2,3c-2.6,2-4.7,4.9-6.5,8.7v44.7H590.1z"/>
		<path class="st3" d="M670.9,194.6c-6.2,0-11-1.8-14.3-5.3c-3.4-3.5-5-8.4-5-14.6v-40.1h-7.3c-0.9,0-1.7-0.3-2.4-0.9s-1-1.5-1-2.7
			v-6.9l11.5-1.9l3.6-19.6c0.2-0.9,0.6-1.7,1.3-2.2s1.5-0.8,2.6-0.8h9v22.6h18.9v12.3h-18.9v38.9c0,2.2,0.6,4,1.7,5.2
			c1.1,1.3,2.6,1.9,4.5,1.9c1.1,0,2-0.1,2.7-0.4c0.7-0.3,1.4-0.5,1.9-0.8s1-0.5,1.4-0.8s0.8-0.4,1.3-0.4s0.9,0.1,1.3,0.4
			c0.3,0.3,0.7,0.6,1.1,1.2l5.2,8.4c-2.5,2.1-5.4,3.7-8.7,4.8C677.8,194,674.4,194.6,670.9,194.6z"/>
		<path class="st3" d="M731.2,120.5c4.5,0,8.7,0.7,12.5,2.2c3.8,1.4,7.1,3.6,9.8,6.3c2.8,2.8,4.9,6.2,6.4,10.2s2.3,8.6,2.3,13.8
			c0,1.3-0.1,2.4-0.2,3.3c-0.1,0.9-0.3,1.5-0.6,2s-0.7,0.8-1.2,1s-1.2,0.3-2,0.3h-44.4c0.5,7.4,2.5,12.8,6,16.2
			c3.5,3.5,8,5.2,13.7,5.2c2.8,0,5.2-0.3,7.2-1s3.8-1.4,5.3-2.2s2.8-1.5,4-2.2c1.1-0.7,2.2-1,3.3-1c0.7,0,1.3,0.1,1.8,0.4
			c0.5,0.3,1,0.7,1.3,1.2l5,6.3c-1.9,2.2-4.1,4.1-6.4,5.6c-2.4,1.5-4.9,2.7-7.5,3.6c-2.6,0.9-5.2,1.6-7.9,1.9
			c-2.7,0.4-5.3,0.6-7.8,0.6c-5,0-9.6-0.8-13.9-2.5c-4.3-1.7-8-4.1-11.2-7.4c-3.2-3.2-5.7-7.3-7.5-12c-1.8-4.8-2.7-10.3-2.7-16.6
			c0-4.9,0.8-9.5,2.4-13.8c1.6-4.3,3.9-8.1,6.8-11.3c3-3.2,6.6-5.7,10.8-7.6C721,121.4,725.8,120.5,731.2,120.5z M731.5,132.9
			c-5,0-9,1.4-11.8,4.3c-2.8,2.8-4.7,6.9-5.5,12.1h32.5c0-2.2-0.3-4.4-0.9-6.3c-0.6-2-1.5-3.7-2.8-5.2s-2.8-2.7-4.8-3.5
			C736.3,133.3,734.1,132.9,731.5,132.9z"/>
		<path class="st3" d="M776.3,193.5v-71.8h10.1c1.8,0,3,0.3,3.7,1s1.2,1.8,1.4,3.4l1,8.7c2.6-4.4,5.6-7.9,9-10.5
			c3.5-2.6,7.3-3.9,11.6-3.9c3.5,0,6.5,0.8,8.8,2.4l-2.2,13c-0.1,0.8-0.4,1.4-0.9,1.8c-0.5,0.3-1.1,0.5-1.9,0.5
			c-0.7,0-1.7-0.2-2.9-0.5s-2.8-0.5-4.8-0.5c-3.6,0-6.7,1-9.2,3c-2.6,2-4.7,4.9-6.5,8.7v44.7H776.3z"/>
	</g>
</g>
<path class="st2" d="M213.9,147.6v16.7c0,4.6-3.7,8.4-8.4,8.4h-36.2V209c0,4.6-3.7,8.4-8.4,8.4h-16.7c-4.6,0-8.4-3.7-8.4-8.4v-36.2
	H99.6c-4.6,0-8.4-3.7-8.4-8.4v-16.8c0-4.6,3.7-8.4,8.4-8.4h36.2V103c0-4.6,3.7-8.4,8.4-8.4H161c4.6,0,8.4,3.7,8.4,8.4v36.2h36.2
	C210.2,139.3,213.9,143,213.9,147.6z"/>
<path class="st4" d="M203.9,137.6v16.7c0,4.6-3.7,8.4-8.4,8.4h-36.2V199c0,4.6-3.7,8.4-8.4,8.4h-16.7c-4.6,0-8.4-3.7-8.4-8.4v-36.2
	H89.6c-4.6,0-8.4-3.7-8.4-8.4v-16.8c0-4.6,3.7-8.4,8.4-8.4h36.2V93c0-4.6,3.7-8.4,8.4-8.4H151c4.6,0,8.4,3.7,8.4,8.4v36.2h36.2
	C200.2,129.3,203.9,133,203.9,137.6z"/>
</svg>
