<?xml version="1.0" encoding="utf-8"?>
<!-- Generator: Adobe Illustrator 27.2.0, SVG Export Plug-In . SVG Version: 6.00 Build 0)  -->
<svg version="1.1" id="Calque_1" xmlns="http://www.w3.org/2000/svg" xmlns:xlink="http://www.w3.org/1999/xlink" x="0px" y="0px"
	 viewBox="0 0 2276.8 292" style="enable-background:new 0 0 2276.8 292;" xml:space="preserve">
<style type="text/css">
	.st0{fill:url(#SVGID_1_);}
	.st1{fill:url(#SVGID_00000046307375071360803610000010150833452753398670_);}
	.st2{fill:#FFFFFF;}
	.st3{fill:#3A3A3A;}
</style>
<g>
	
		<linearGradient id="SVGID_1_" gradientUnits="userSpaceOnUse" x1="3903.6001" y1="-1349.4803" x2="3903.6001" y2="-1057.4803" gradientTransform="matrix(-1 0 0 -1 5042 -1057.4803)">
		<stop  offset="0" style="stop-color:#BBBBBB"/>
		<stop  offset="1" style="stop-color:#DCDCDC"/>
	</linearGradient>
	<path class="st0" d="M25,282c-8,0-15-7-15-15V25c0-8,7-15,15-15h2226.9c8,0,15,7,15,15v242c0,8-7,15-15,15H25z M2251.8,292
		c14,0,25-11,25-25V25c0-14-11-25-25-25H25C11,0,0,11,0,25v242c0,14,11,25,25,25H2251.8z"/>
</g>
<linearGradient id="SVGID_00000173133368802763764120000017190677591921290114_" gradientUnits="userSpaceOnUse" x1="3903.55" y1="648.5197" x2="3903.55" y2="376.5197" gradientTransform="matrix(-1 0 0 1 5042 -366.5197)">
	<stop  offset="0" style="stop-color:#E8E8E8"/>
	<stop  offset="1" style="stop-color:#F9F9F9"/>
</linearGradient>
<path style="fill:url(#SVGID_00000173133368802763764120000017190677591921290114_);" d="M25,282c-8,0-15-7-15-15V25c0-8,7-15,15-15
	h2226.9c8,0,15,7,15,15v242c0,8-7,15-15,15H25z"/>
<path class="st2" d="M213.9,147.6v16.7c0,4.6-3.7,8.4-8.4,8.4h-36.2V209c0,4.6-3.7,8.4-8.4,8.4h-16.7c-4.6,0-8.4-3.7-8.4-8.4v-36.2
	H99.6c-4.6,0-8.4-3.7-8.4-8.4v-16.8c0-4.6,3.7-8.4,8.4-8.4h36.2V103c0-4.6,3.7-8.4,8.4-8.4H161c4.6,0,8.4,3.7,8.4,8.4v36.2h36.2
	C210.2,139.3,213.9,143,213.9,147.6z"/>
<path class="st3" d="M203.9,137.6v16.7c0,4.6-3.7,8.4-8.4,8.4h-36.2V199c0,4.6-3.7,8.4-8.4,8.4h-16.7c-4.6,0-8.4-3.7-8.4-8.4v-36.2
	H89.6c-4.6,0-8.4-3.7-8.4-8.4v-16.8c0-4.6,3.7-8.4,8.4-8.4h36.2V93c0-4.6,3.7-8.4,8.4-8.4H151c4.6,0,8.4,3.7,8.4,8.4v36.2h36.2
	C200.2,129.3,203.9,133,203.9,137.6z"/>
<g>
	<path class="st2" d="M301.7,203.5h-18.9V102.3h18.9V203.5z"/>
	<path class="st2" d="M323.5,203.5v-71.8H334c2.2,0,3.7,1,4.4,3.1l1.1,5.3c1.3-1.4,2.6-2.7,4-3.9c1.4-1.2,2.8-2.2,4.4-3
		c1.6-0.8,3.2-1.5,5-2c1.8-0.5,3.8-0.7,5.9-0.7c4.5,0,8.2,1.2,11.2,3.7c2.9,2.5,5.1,5.7,6.5,9.8c1.1-2.4,2.5-4.4,4.2-6.1
		c1.7-1.7,3.5-3.1,5.5-4.2c2-1.1,4.1-1.9,6.4-2.4c2.3-0.5,4.5-0.8,6.8-0.8c4,0,7.5,0.6,10.6,1.8c3.1,1.2,5.7,3,7.8,5.3
		c2.1,2.3,3.7,5.2,4.8,8.5c1.1,3.4,1.6,7.2,1.6,11.5v45.7H407v-45.7c0-4.6-1-8-3-10.3c-2-2.3-4.9-3.5-8.8-3.5
		c-1.8,0-3.4,0.3-4.9,0.9c-1.5,0.6-2.8,1.5-4,2.6c-1.1,1.1-2,2.6-2.7,4.3c-0.7,1.7-1,3.7-1,6v45.7h-17.4v-45.7c0-4.8-1-8.3-2.9-10.5
		c-1.9-2.2-4.8-3.3-8.6-3.3c-2.5,0-4.8,0.6-7,1.9c-2.2,1.2-4.2,2.9-6.1,5.1v52.6H323.5z"/>
	<path class="st2" d="M441.3,227v-95.3h10.6c1.1,0,2.1,0.3,2.9,0.8c0.8,0.5,1.3,1.3,1.5,2.4l1.4,6.6c2.9-3.3,6.2-6,10-8
		c3.8-2.1,8.2-3.1,13.2-3.1c3.9,0,7.5,0.8,10.7,2.4c3.2,1.6,6,4,8.4,7.1c2.4,3.1,4.2,6.9,5.5,11.5c1.3,4.6,1.9,9.8,1.9,15.6
		c0,5.4-0.7,10.3-2.2,14.9c-1.4,4.6-3.5,8.5-6.2,11.9c-2.7,3.4-5.9,6-9.7,7.9c-3.8,1.9-8.1,2.8-12.8,2.8c-4.1,0-7.5-0.6-10.3-1.9
		c-2.8-1.2-5.4-3-7.6-5.1V227H441.3z M474.9,144c-3.6,0-6.7,0.8-9.2,2.3c-2.5,1.5-4.9,3.7-7.1,6.4v32.2c2,2.4,4.1,4.1,6.4,5.1
		c2.3,1,4.8,1.4,7.5,1.4c2.6,0,5-0.5,7.1-1.5c2.1-1,3.9-2.5,5.4-4.5c1.5-2,2.6-4.5,3.4-7.6c0.8-3.1,1.2-6.7,1.2-10.8
		c0-4.2-0.3-7.8-1-10.7c-0.7-2.9-1.6-5.3-2.9-7.1c-1.3-1.8-2.8-3.1-4.6-4C479.3,144.4,477.2,144,474.9,144z"/>
	<path class="st2" d="M551.2,130.6c5.4,0,10.2,0.9,14.6,2.6c4.4,1.7,8.1,4.2,11.2,7.4c3.1,3.2,5.5,7,7.1,11.6
		c1.7,4.6,2.5,9.7,2.5,15.3c0,5.7-0.8,10.8-2.5,15.4c-1.7,4.6-4.1,8.5-7.1,11.7c-3.1,3.2-6.8,5.7-11.2,7.4
		c-4.4,1.7-9.2,2.6-14.6,2.6c-5.4,0-10.2-0.9-14.6-2.6c-4.4-1.7-8.1-4.2-11.2-7.4c-3.1-3.2-5.5-7.1-7.2-11.7
		c-1.7-4.6-2.6-9.7-2.6-15.4c0-5.6,0.9-10.8,2.6-15.3c1.7-4.6,4.1-8.4,7.2-11.6c3.1-3.2,6.8-5.6,11.2-7.4
		C540.9,131.4,545.8,130.6,551.2,130.6z M551.2,191.2c6,0,10.4-2,13.3-6c2.9-4,4.3-9.9,4.3-17.6c0-7.7-1.4-13.6-4.3-17.7
		s-7.3-6.1-13.3-6.1c-6.1,0-10.5,2-13.4,6.1c-2.9,4.1-4.3,10-4.3,17.7c0,7.7,1.4,13.6,4.3,17.6C540.6,189.2,545.1,191.2,551.2,191.2
		z"/>
	<path class="st2" d="M600.1,203.5v-71.8h10.1c1.8,0,3,0.3,3.7,1c0.7,0.7,1.2,1.8,1.4,3.4l1,8.7c2.6-4.4,5.6-7.9,9-10.5
		c3.5-2.6,7.3-3.9,11.6-3.9c3.5,0,6.5,0.8,8.8,2.4l-2.2,13c-0.1,0.8-0.4,1.4-0.9,1.8c-0.5,0.3-1.1,0.5-1.9,0.5
		c-0.7,0-1.7-0.2-2.9-0.5c-1.2-0.3-2.8-0.5-4.8-0.5c-3.6,0-6.7,1-9.2,3c-2.6,2-4.7,4.9-6.5,8.7v44.7H600.1z"/>
	<path class="st2" d="M680.9,204.6c-6.2,0-11-1.8-14.4-5.3c-3.4-3.5-5-8.4-5-14.6v-40.1h-7.3c-0.9,0-1.7-0.3-2.4-0.9
		c-0.7-0.6-1-1.5-1-2.7v-6.9l11.5-1.9l3.6-19.6c0.2-0.9,0.6-1.7,1.3-2.2c0.7-0.5,1.5-0.8,2.6-0.8h9v22.6h18.9v12.3h-18.9v38.9
		c0,2.2,0.6,4,1.7,5.2c1.1,1.3,2.6,1.9,4.5,1.9c1.1,0,2-0.1,2.7-0.4c0.7-0.3,1.4-0.5,1.9-0.8c0.5-0.3,1-0.5,1.4-0.8
		c0.4-0.3,0.8-0.4,1.3-0.4c0.5,0,0.9,0.1,1.3,0.4c0.3,0.3,0.7,0.6,1,1.2l5.2,8.4c-2.5,2.1-5.4,3.7-8.7,4.8
		C687.8,204.1,684.4,204.6,680.9,204.6z"/>
	<path class="st2" d="M741.2,130.6c4.5,0,8.7,0.7,12.5,2.2c3.8,1.4,7.1,3.6,9.8,6.3c2.8,2.8,4.9,6.2,6.4,10.2
		c1.5,4,2.3,8.6,2.3,13.8c0,1.3-0.1,2.4-0.2,3.3c-0.1,0.9-0.3,1.5-0.6,2c-0.3,0.5-0.7,0.8-1.2,1c-0.5,0.2-1.2,0.3-2,0.3h-44.4
		c0.5,7.4,2.5,12.8,6,16.2c3.5,3.5,8,5.2,13.7,5.2c2.8,0,5.2-0.3,7.2-1c2-0.7,3.8-1.4,5.3-2.2c1.5-0.8,2.8-1.5,4-2.2
		c1.1-0.7,2.3-1,3.3-1c0.7,0,1.3,0.1,1.8,0.4c0.5,0.3,1,0.7,1.3,1.2l5,6.3c-1.9,2.2-4.1,4.1-6.4,5.6c-2.4,1.5-4.9,2.7-7.5,3.6
		c-2.6,0.9-5.2,1.6-7.9,1.9c-2.7,0.4-5.3,0.6-7.8,0.6c-5,0-9.6-0.8-13.9-2.5c-4.3-1.7-8-4.1-11.2-7.4c-3.2-3.2-5.7-7.3-7.5-12
		c-1.8-4.8-2.7-10.3-2.7-16.6c0-4.9,0.8-9.5,2.4-13.8c1.6-4.3,3.9-8.1,6.8-11.3c3-3.2,6.6-5.7,10.8-7.6
		C731,131.5,735.8,130.6,741.2,130.6z M741.5,143c-5,0-9,1.4-11.8,4.3c-2.8,2.8-4.7,6.9-5.5,12.1h32.5c0-2.2-0.3-4.4-0.9-6.3
		c-0.6-2-1.5-3.7-2.8-5.2c-1.3-1.5-2.8-2.7-4.8-3.5C746.3,143.4,744.1,143,741.5,143z"/>
	<path class="st2" d="M786.3,203.5v-71.8h10.1c1.8,0,3,0.3,3.7,1c0.7,0.7,1.2,1.8,1.4,3.4l1,8.7c2.6-4.4,5.6-7.9,9-10.5
		c3.5-2.6,7.3-3.9,11.6-3.9c3.5,0,6.5,0.8,8.8,2.4l-2.2,13c-0.1,0.8-0.4,1.4-0.9,1.8c-0.5,0.3-1.1,0.5-1.9,0.5
		c-0.7,0-1.7-0.2-2.9-0.5c-1.2-0.3-2.8-0.5-4.8-0.5c-3.6,0-6.7,1-9.2,3c-2.6,2-4.7,4.9-6.5,8.7v44.7H786.3z"/>
	<path class="st2" d="M886.3,131.7v45.6c0,4.4,1,7.8,3,10.2c2,2.4,5.1,3.6,9.1,3.6c3,0,5.8-0.7,8.4-2c2.6-1.3,5.1-3.2,7.4-5.5v-51.9
		h17.3v71.8h-10.6c-2.2,0-3.7-1-4.4-3.1l-1.2-5.7c-1.5,1.5-3,2.9-4.6,4.1c-1.6,1.2-3.3,2.3-5.1,3.1c-1.8,0.9-3.7,1.5-5.8,2
		c-2.1,0.5-4.3,0.7-6.7,0.7c-3.9,0-7.4-0.7-10.4-2c-3-1.3-5.5-3.2-7.6-5.6c-2.1-2.4-3.6-5.3-4.7-8.6c-1.1-3.3-1.6-7-1.6-11v-45.6
		H886.3z"/>
	<path class="st2" d="M950.1,203.5v-71.8h10.6c2.2,0,3.7,1,4.4,3.1l1.2,5.7c1.4-1.5,3-2.8,4.6-4.1c1.6-1.2,3.3-2.3,5.1-3.1
		c1.8-0.9,3.7-1.6,5.8-2c2.1-0.5,4.3-0.7,6.7-0.7c3.9,0,7.4,0.7,10.4,2c3,1.3,5.6,3.2,7.6,5.6c2,2.4,3.6,5.3,4.6,8.6
		c1,3.3,1.6,7,1.6,11v45.7h-17.3v-45.7c0-4.4-1-7.8-3-10.2c-2-2.4-5.1-3.6-9.1-3.6c-3,0-5.8,0.7-8.4,2c-2.6,1.4-5.1,3.2-7.4,5.5
		v51.9H950.1z"/>
	<path class="st2" d="M1056.7,227v-95.3h10.6c1.1,0,2.1,0.3,2.9,0.8c0.8,0.5,1.3,1.3,1.5,2.4l1.4,6.6c2.9-3.3,6.2-6,10-8
		c3.8-2.1,8.2-3.1,13.2-3.1c3.9,0,7.5,0.8,10.7,2.4c3.2,1.6,6,4,8.4,7.1c2.4,3.1,4.2,6.9,5.5,11.5c1.3,4.6,1.9,9.8,1.9,15.6
		c0,5.4-0.7,10.3-2.2,14.9c-1.4,4.6-3.5,8.5-6.2,11.9c-2.7,3.4-5.9,6-9.7,7.9c-3.8,1.9-8.1,2.8-12.8,2.8c-4.1,0-7.5-0.6-10.3-1.9
		c-2.8-1.2-5.4-3-7.6-5.1V227H1056.7z M1090.3,144c-3.6,0-6.7,0.8-9.2,2.3c-2.5,1.5-4.9,3.7-7.1,6.4v32.2c2,2.4,4.1,4.1,6.4,5.1
		c2.3,1,4.8,1.4,7.5,1.4c2.6,0,5-0.5,7.1-1.5s3.9-2.5,5.4-4.5c1.5-2,2.6-4.5,3.4-7.6c0.8-3.1,1.2-6.7,1.2-10.8c0-4.2-0.3-7.8-1-10.7
		c-0.7-2.9-1.6-5.3-2.9-7.1s-2.8-3.1-4.6-4C1094.6,144.4,1092.6,144,1090.3,144z"/>
	<path class="st2" d="M1135.9,203.5v-71.8h10.1c1.8,0,3,0.3,3.7,1c0.7,0.7,1.2,1.8,1.4,3.4l1,8.7c2.6-4.4,5.6-7.9,9-10.5
		c3.5-2.6,7.3-3.9,11.6-3.9c3.5,0,6.5,0.8,8.8,2.4l-2.2,13c-0.1,0.8-0.4,1.4-0.9,1.8c-0.5,0.3-1.1,0.5-1.9,0.5
		c-0.7,0-1.7-0.2-2.9-0.5c-1.2-0.3-2.8-0.5-4.8-0.5c-3.6,0-6.7,1-9.2,3c-2.6,2-4.7,4.9-6.5,8.7v44.7H1135.9z"/>
	<path class="st2" d="M1223.7,130.6c5.4,0,10.2,0.9,14.6,2.6c4.4,1.7,8.1,4.2,11.2,7.4c3.1,3.2,5.5,7,7.1,11.6
		c1.7,4.6,2.5,9.7,2.5,15.3c0,5.7-0.8,10.8-2.5,15.4c-1.7,4.6-4.1,8.5-7.1,11.7c-3.1,3.2-6.8,5.7-11.2,7.4
		c-4.4,1.7-9.2,2.6-14.6,2.6c-5.4,0-10.2-0.9-14.6-2.6s-8.1-4.2-11.2-7.4c-3.1-3.2-5.5-7.1-7.2-11.7c-1.7-4.6-2.6-9.7-2.6-15.4
		c0-5.6,0.9-10.8,2.6-15.3c1.7-4.6,4.1-8.4,7.2-11.6c3.1-3.2,6.8-5.6,11.2-7.4C1213.5,131.4,1218.4,130.6,1223.7,130.6z
		 M1223.7,191.2c6,0,10.4-2,13.3-6c2.9-4,4.3-9.9,4.3-17.6c0-7.7-1.4-13.6-4.3-17.7s-7.3-6.1-13.3-6.1c-6.1,0-10.5,2-13.4,6.1
		c-2.9,4.1-4.3,10-4.3,17.7c0,7.7,1.4,13.6,4.3,17.6C1213.2,189.2,1217.7,191.2,1223.7,191.2z"/>
	<path class="st2" d="M1275.7,203.5v-58.8l-6.2-1c-1.4-0.2-2.4-0.7-3.3-1.4c-0.8-0.7-1.2-1.7-1.2-2.9v-7.1h10.7V130
		c0-4.4,0.7-8.5,2.2-12.2c1.4-3.8,3.6-7,6.6-9.8c2.9-2.8,6.6-4.9,11.1-6.5c4.5-1.6,9.8-2.3,15.9-2.3c2,0,4,0.1,6,0.3
		c2.1,0.2,3.8,0.5,5.3,1l-0.6,9c-0.1,1.1-0.7,1.7-1.8,1.9c-1.1,0.2-2.4,0.3-4,0.3c-4.5,0-8.3,0.4-11.4,1.2c-3.1,0.8-5.5,2-7.4,3.5
		c-1.9,1.6-3.2,3.5-4.1,5.9c-0.8,2.4-1.2,5.1-1.2,8.2v1.8h44.5v71.2h-17.3v-58.9H1293v58.9H1275.7z"/>
	<path class="st2" d="M1375.2,99.5v104h-17.3v-104H1375.2z"/>
	<path class="st2" d="M1472.3,203.5c-2.2,0-3.7-1-4.4-3.1l-1.4-6.9c-1.5,1.7-3.1,3.2-4.7,4.6c-1.6,1.4-3.4,2.5-5.3,3.5
		s-3.9,1.7-6.1,2.3c-2.2,0.5-4.5,0.8-7,0.8c-3.9,0-7.5-0.8-10.8-2.4c-3.3-1.6-6.1-4-8.4-7.1c-2.4-3.1-4.2-6.9-5.5-11.5
		c-1.3-4.6-1.9-9.8-1.9-15.7c0-5.3,0.7-10.3,2.2-14.8c1.4-4.6,3.5-8.5,6.2-11.9c2.7-3.4,6-6,9.7-7.9c3.8-1.9,8-2.8,12.7-2.8
		c4,0,7.4,0.6,10.3,1.9c2.8,1.3,5.4,3,7.6,5.1V99.5h17.3v104H1472.3z M1449.3,190.8c3.6,0,6.7-0.7,9.2-2.2c2.5-1.5,4.9-3.6,7.1-6.4
		V150c-2-2.4-4.1-4.1-6.4-5c-2.3-1-4.8-1.5-7.5-1.5c-2.6,0-5,0.5-7.1,1.5c-2.1,1-3.9,2.5-5.4,4.4c-1.5,2-2.6,4.5-3.4,7.6
		c-0.8,3.1-1.2,6.7-1.2,10.8c0,4.2,0.3,7.8,1,10.7c0.7,2.9,1.6,5.3,2.9,7.1c1.3,1.8,2.8,3.2,4.6,4
		C1445,190.4,1447,190.8,1449.3,190.8z"/>
	<path class="st2" d="M1531.2,130.6c4.5,0,8.7,0.7,12.5,2.2c3.8,1.4,7.1,3.6,9.8,6.3c2.8,2.8,4.9,6.2,6.4,10.2
		c1.5,4,2.3,8.6,2.3,13.8c0,1.3-0.1,2.4-0.2,3.3c-0.1,0.9-0.3,1.5-0.6,2c-0.3,0.5-0.7,0.8-1.2,1s-1.2,0.3-2,0.3h-44.4
		c0.5,7.4,2.5,12.8,6,16.2c3.5,3.5,8,5.2,13.7,5.2c2.8,0,5.2-0.3,7.2-1c2-0.7,3.8-1.4,5.3-2.2c1.5-0.8,2.8-1.5,4-2.2
		c1.1-0.7,2.2-1,3.3-1c0.7,0,1.3,0.1,1.8,0.4c0.5,0.3,1,0.7,1.3,1.2l5,6.3c-1.9,2.2-4.1,4.1-6.4,5.6c-2.4,1.5-4.9,2.7-7.5,3.6
		c-2.6,0.9-5.2,1.6-7.9,1.9c-2.7,0.4-5.3,0.6-7.8,0.6c-5,0-9.6-0.8-13.9-2.5c-4.3-1.7-8-4.1-11.2-7.4c-3.2-3.2-5.7-7.3-7.5-12
		c-1.8-4.8-2.7-10.3-2.7-16.6c0-4.9,0.8-9.5,2.4-13.8c1.6-4.3,3.9-8.1,6.8-11.3c3-3.2,6.6-5.7,10.8-7.6
		C1521,131.5,1525.9,130.6,1531.2,130.6z M1531.6,143c-5,0-9,1.4-11.8,4.3c-2.8,2.8-4.7,6.9-5.5,12.1h32.5c0-2.2-0.3-4.4-0.9-6.3
		c-0.6-2-1.5-3.7-2.8-5.2c-1.3-1.5-2.8-2.7-4.8-3.5C1536.4,143.4,1534.1,143,1531.6,143z"/>
	<path class="st2" d="M1603.4,203.5v-71.8h10.1c1.8,0,3,0.3,3.7,1c0.7,0.7,1.2,1.8,1.4,3.4l1,8.7c2.6-4.4,5.6-7.9,9-10.5
		c3.5-2.6,7.3-3.9,11.6-3.9c3.5,0,6.5,0.8,8.8,2.4l-2.2,13c-0.1,0.8-0.4,1.4-0.9,1.8c-0.5,0.3-1.1,0.5-1.9,0.5
		c-0.7,0-1.7-0.2-2.9-0.5c-1.2-0.3-2.8-0.5-4.8-0.5c-3.6,0-6.7,1-9.2,3c-2.6,2-4.7,4.9-6.5,8.7v44.7H1603.4z"/>
	<path class="st2" d="M1690.3,130.6c4.5,0,8.7,0.7,12.5,2.2c3.8,1.4,7.1,3.6,9.8,6.3c2.8,2.8,4.9,6.2,6.4,10.2
		c1.5,4,2.3,8.6,2.3,13.8c0,1.3-0.1,2.4-0.2,3.3c-0.1,0.9-0.3,1.5-0.6,2c-0.3,0.5-0.7,0.8-1.2,1s-1.2,0.3-2,0.3H1673
		c0.5,7.4,2.5,12.8,6,16.2c3.5,3.5,8,5.2,13.7,5.2c2.8,0,5.2-0.3,7.2-1c2-0.7,3.8-1.4,5.3-2.2c1.5-0.8,2.8-1.5,4-2.2
		c1.1-0.7,2.2-1,3.3-1c0.7,0,1.3,0.1,1.8,0.4c0.5,0.3,1,0.7,1.3,1.2l5,6.3c-1.9,2.2-4.1,4.1-6.4,5.6c-2.4,1.5-4.9,2.7-7.5,3.6
		c-2.6,0.9-5.2,1.6-7.9,1.9c-2.7,0.4-5.3,0.6-7.8,0.6c-5,0-9.6-0.8-13.9-2.5c-4.3-1.7-8-4.1-11.2-7.4c-3.2-3.2-5.7-7.3-7.5-12
		c-1.8-4.8-2.7-10.3-2.7-16.6c0-4.9,0.8-9.5,2.4-13.8c1.6-4.3,3.9-8.1,6.8-11.3c3-3.2,6.6-5.7,10.8-7.6
		C1680.1,131.5,1684.9,130.6,1690.3,130.6z M1690.6,143c-5,0-9,1.4-11.8,4.3c-2.8,2.8-4.7,6.9-5.5,12.1h32.5c0-2.2-0.3-4.4-0.9-6.3
		c-0.6-2-1.5-3.7-2.8-5.2c-1.3-1.5-2.8-2.7-4.8-3.5C1695.4,143.4,1693.2,143,1690.6,143z M1714.9,101.2l-17.3,18.3
		c-0.9,0.9-1.7,1.6-2.6,1.9s-1.9,0.5-3.2,0.5h-10.4l9.9-17c0.7-1.2,1.5-2.1,2.4-2.8s2.3-0.9,4.2-0.9H1714.9z"/>
	<path class="st2" d="M1738.5,203.5v-58.8l-6.2-1c-1.4-0.2-2.4-0.7-3.3-1.4c-0.8-0.7-1.2-1.7-1.2-2.9v-7.1h10.7V127
		c0-4.1,0.6-7.8,1.9-11.1c1.2-3.3,3-6,5.3-8.3c2.3-2.3,5.1-4,8.4-5.2c3.3-1.2,7-1.8,11.2-1.8c3.3,0,6.4,0.4,9.2,1.3l-0.4,8.7
		c-0.1,1.4-0.7,2.2-1.9,2.5c-1.2,0.3-2.5,0.5-4.1,0.5c-2.1,0-3.9,0.2-5.5,0.7c-1.6,0.4-3,1.2-4.1,2.3c-1.1,1.1-2,2.5-2.6,4.3
		c-0.6,1.8-0.9,4-0.9,6.7v4.8h18.7v12.3h-18.1v58.9H1738.5z"/>
	<path class="st2" d="M1814.2,130.6c4.5,0,8.7,0.7,12.5,2.2c3.8,1.4,7.1,3.6,9.8,6.3c2.8,2.8,4.9,6.2,6.4,10.2
		c1.5,4,2.3,8.6,2.3,13.8c0,1.3-0.1,2.4-0.2,3.3c-0.1,0.9-0.3,1.5-0.6,2c-0.3,0.5-0.7,0.8-1.2,1s-1.2,0.3-2,0.3h-44.4
		c0.5,7.4,2.5,12.8,6,16.2c3.5,3.5,8,5.2,13.7,5.2c2.8,0,5.2-0.3,7.2-1c2-0.7,3.8-1.4,5.3-2.2c1.5-0.8,2.8-1.5,4-2.2
		c1.1-0.7,2.2-1,3.3-1c0.7,0,1.3,0.1,1.8,0.4c0.5,0.3,1,0.7,1.3,1.2l5,6.3c-1.9,2.2-4.1,4.1-6.4,5.6c-2.4,1.5-4.9,2.7-7.5,3.6
		c-2.6,0.9-5.2,1.6-7.9,1.9c-2.7,0.4-5.3,0.6-7.8,0.6c-5,0-9.6-0.8-13.9-2.5c-4.3-1.7-8-4.1-11.2-7.4c-3.2-3.2-5.7-7.3-7.5-12
		c-1.8-4.8-2.7-10.3-2.7-16.6c0-4.9,0.8-9.5,2.4-13.8c1.6-4.3,3.9-8.1,6.8-11.3c3-3.2,6.6-5.7,10.8-7.6
		C1804,131.5,1808.8,130.6,1814.2,130.6z M1814.5,143c-5,0-9,1.4-11.8,4.3c-2.8,2.8-4.7,6.9-5.5,12.1h32.5c0-2.2-0.3-4.4-0.9-6.3
		c-0.6-2-1.5-3.7-2.8-5.2c-1.3-1.5-2.8-2.7-4.8-3.5C1819.3,143.4,1817.1,143,1814.5,143z M1838.8,101.2l-17.3,18.3
		c-0.9,0.9-1.7,1.6-2.6,1.9s-1.9,0.5-3.2,0.5h-10.4l9.9-17c0.7-1.2,1.5-2.1,2.4-2.8s2.3-0.9,4.2-0.9H1838.8z"/>
	<path class="st2" d="M1859.3,203.5v-71.8h10.1c1.8,0,3,0.3,3.7,1c0.7,0.7,1.2,1.8,1.4,3.4l1,8.7c2.6-4.4,5.6-7.9,9-10.5
		c3.5-2.6,7.3-3.9,11.6-3.9c3.5,0,6.5,0.8,8.8,2.4l-2.2,13c-0.1,0.8-0.4,1.4-0.9,1.8c-0.5,0.3-1.1,0.5-1.9,0.5
		c-0.7,0-1.7-0.2-2.9-0.5c-1.2-0.3-2.8-0.5-4.8-0.5c-3.6,0-6.7,1-9.2,3c-2.6,2-4.7,4.9-6.5,8.7v44.7H1859.3z"/>
	<path class="st2" d="M1946.2,130.6c4.5,0,8.7,0.7,12.5,2.2c3.8,1.4,7.1,3.6,9.8,6.3c2.8,2.8,4.9,6.2,6.4,10.2
		c1.5,4,2.3,8.6,2.3,13.8c0,1.3-0.1,2.4-0.2,3.3c-0.1,0.9-0.3,1.5-0.6,2c-0.3,0.5-0.7,0.8-1.2,1s-1.2,0.3-2,0.3h-44.4
		c0.5,7.4,2.5,12.8,6,16.2c3.5,3.5,8,5.2,13.7,5.2c2.8,0,5.2-0.3,7.2-1c2-0.7,3.8-1.4,5.3-2.2c1.5-0.8,2.8-1.5,4-2.2
		c1.1-0.7,2.2-1,3.3-1c0.7,0,1.3,0.1,1.8,0.4c0.5,0.3,1,0.7,1.3,1.2l5,6.3c-1.9,2.2-4.1,4.1-6.4,5.6c-2.4,1.5-4.9,2.7-7.5,3.6
		c-2.6,0.9-5.2,1.6-7.9,1.9c-2.7,0.4-5.3,0.6-7.8,0.6c-5,0-9.6-0.8-13.9-2.5c-4.3-1.7-8-4.1-11.2-7.4c-3.2-3.2-5.7-7.3-7.5-12
		c-1.8-4.8-2.7-10.3-2.7-16.6c0-4.9,0.8-9.5,2.4-13.8c1.6-4.3,3.9-8.1,6.8-11.3c3-3.2,6.6-5.7,10.8-7.6
		C1936,131.5,1940.8,130.6,1946.2,130.6z M1946.5,143c-5,0-9,1.4-11.8,4.3c-2.8,2.8-4.7,6.9-5.5,12.1h32.5c0-2.2-0.3-4.4-0.9-6.3
		c-0.6-2-1.5-3.7-2.8-5.2c-1.3-1.5-2.8-2.7-4.8-3.5C1951.3,143.4,1949.1,143,1946.5,143z"/>
	<path class="st2" d="M1991.3,203.5v-71.8h10.6c2.2,0,3.7,1,4.4,3.1l1.2,5.7c1.4-1.5,3-2.8,4.6-4.1c1.6-1.2,3.3-2.3,5.1-3.1
		c1.8-0.9,3.7-1.6,5.8-2c2.1-0.5,4.3-0.7,6.7-0.7c3.9,0,7.4,0.7,10.4,2c3,1.3,5.6,3.2,7.6,5.6c2,2.4,3.6,5.3,4.6,8.6
		c1,3.3,1.6,7,1.6,11v45.7h-17.3v-45.7c0-4.4-1-7.8-3-10.2c-2-2.4-5.1-3.6-9.1-3.6c-3,0-5.8,0.7-8.4,2c-2.6,1.4-5.1,3.2-7.4,5.5
		v51.9H1991.3z"/>
	<path class="st2" d="M2121.4,146.9c-0.5,0.7-1,1.2-1.5,1.5c-0.5,0.4-1.2,0.6-2.1,0.6c-0.9,0-1.8-0.3-2.6-0.8
		c-0.8-0.5-1.8-1.1-3-1.8c-1.2-0.7-2.6-1.3-4.2-1.8c-1.6-0.5-3.6-0.8-6-0.8c-3,0-5.7,0.5-8,1.6c-2.3,1.1-4.2,2.7-5.7,4.7
		c-1.5,2.1-2.6,4.5-3.4,7.5c-0.7,2.9-1.1,6.2-1.1,9.9c0,3.8,0.4,7.2,1.2,10.2c0.8,3,2,5.5,3.5,7.5c1.5,2,3.4,3.6,5.6,4.6
		c2.2,1.1,4.7,1.6,7.4,1.6c2.8,0,5-0.3,6.7-1c1.7-0.7,3.1-1.4,4.3-2.2c1.2-0.8,2.2-1.6,3-2.2c0.9-0.7,1.8-1,2.9-1
		c1.4,0,2.5,0.5,3.2,1.6l5,6.3c-1.9,2.2-4,4.1-6.2,5.6c-2.2,1.5-4.6,2.7-7,3.6s-4.9,1.6-7.5,1.9c-2.6,0.4-5.1,0.6-7.6,0.6
		c-4.4,0-8.6-0.8-12.5-2.5s-7.3-4.1-10.3-7.2c-2.9-3.2-5.2-7.1-6.9-11.7c-1.7-4.6-2.6-9.8-2.6-15.7c0-5.3,0.8-10.2,2.3-14.7
		c1.5-4.5,3.7-8.4,6.7-11.7c2.9-3.3,6.6-5.9,10.9-7.7c4.3-1.9,9.3-2.8,15-2.8c5.4,0,10.1,0.9,14.1,2.6c4,1.7,7.7,4.2,10.9,7.4
		L2121.4,146.9z"/>
	<path class="st2" d="M2167.4,130.6c4.5,0,8.7,0.7,12.5,2.2c3.8,1.4,7.1,3.6,9.8,6.3c2.8,2.8,4.9,6.2,6.4,10.2
		c1.5,4,2.3,8.6,2.3,13.8c0,1.3-0.1,2.4-0.2,3.3c-0.1,0.9-0.3,1.5-0.6,2c-0.3,0.5-0.7,0.8-1.2,1s-1.2,0.3-2,0.3h-44.4
		c0.5,7.4,2.5,12.8,6,16.2c3.5,3.5,8,5.2,13.7,5.2c2.8,0,5.2-0.3,7.2-1c2-0.7,3.8-1.4,5.3-2.2c1.5-0.8,2.8-1.5,4-2.2
		c1.1-0.7,2.2-1,3.3-1c0.7,0,1.3,0.1,1.8,0.4c0.5,0.3,1,0.7,1.3,1.2l5,6.3c-1.9,2.2-4.1,4.1-6.4,5.6c-2.4,1.5-4.9,2.7-7.5,3.6
		c-2.6,0.9-5.2,1.6-7.9,1.9c-2.7,0.4-5.3,0.6-7.8,0.6c-5,0-9.6-0.8-13.9-2.5c-4.3-1.7-8-4.1-11.2-7.4c-3.2-3.2-5.7-7.3-7.5-12
		c-1.8-4.8-2.7-10.3-2.7-16.6c0-4.9,0.8-9.5,2.4-13.8c1.6-4.3,3.9-8.1,6.8-11.3c3-3.2,6.6-5.7,10.8-7.6
		C2157.2,131.5,2162,130.6,2167.4,130.6z M2167.7,143c-5,0-9,1.4-11.8,4.3c-2.8,2.8-4.7,6.9-5.5,12.1h32.5c0-2.2-0.3-4.4-0.9-6.3
		c-0.6-2-1.5-3.7-2.8-5.2c-1.3-1.5-2.8-2.7-4.8-3.5C2172.5,143.4,2170.3,143,2167.7,143z"/>
</g>
<g>
	<path class="st3" d="M291.7,193.5h-18.9V92.3h18.9V193.5z"/>
	<path class="st3" d="M313.5,193.5v-71.8H324c2.2,0,3.7,1,4.4,3.1l1.1,5.3c1.3-1.4,2.6-2.7,4-3.9c1.4-1.2,2.8-2.2,4.4-3
		c1.6-0.8,3.2-1.5,5-2c1.8-0.5,3.8-0.7,5.9-0.7c4.5,0,8.2,1.2,11.2,3.7c2.9,2.5,5.1,5.7,6.5,9.8c1.1-2.4,2.5-4.4,4.2-6.1
		c1.7-1.7,3.5-3.1,5.5-4.2c2-1.1,4.1-1.9,6.4-2.4c2.3-0.5,4.5-0.8,6.8-0.8c4,0,7.5,0.6,10.6,1.8c3.1,1.2,5.7,3,7.8,5.3
		c2.1,2.3,3.7,5.2,4.8,8.5c1.1,3.4,1.6,7.2,1.6,11.5v45.7H397v-45.7c0-4.6-1-8-3-10.3c-2-2.3-4.9-3.5-8.8-3.5
		c-1.8,0-3.4,0.3-4.9,0.9c-1.5,0.6-2.8,1.5-4,2.6c-1.1,1.1-2,2.6-2.7,4.3c-0.7,1.7-1,3.7-1,6v45.7h-17.4v-45.7c0-4.8-1-8.3-2.9-10.5
		c-1.9-2.2-4.8-3.3-8.6-3.3c-2.5,0-4.8,0.6-7,1.9c-2.2,1.2-4.2,2.9-6.1,5.1v52.6H313.5z"/>
	<path class="st3" d="M431.3,217v-95.3h10.6c1.1,0,2.1,0.3,2.9,0.8c0.8,0.5,1.3,1.3,1.5,2.4l1.4,6.6c2.9-3.3,6.2-6,10-8
		c3.8-2.1,8.2-3.1,13.2-3.1c3.9,0,7.5,0.8,10.7,2.4c3.2,1.6,6,4,8.4,7.1c2.4,3.1,4.2,6.9,5.5,11.5c1.3,4.6,1.9,9.8,1.9,15.6
		c0,5.4-0.7,10.3-2.2,14.9c-1.4,4.6-3.5,8.5-6.2,11.9c-2.7,3.4-5.9,6-9.7,7.9c-3.8,1.9-8.1,2.8-12.8,2.8c-4.1,0-7.5-0.6-10.3-1.9
		c-2.8-1.2-5.4-3-7.6-5.1V217H431.3z M464.9,134c-3.6,0-6.7,0.8-9.2,2.3c-2.5,1.5-4.9,3.7-7.1,6.4v32.2c2,2.4,4.1,4.1,6.4,5.1
		c2.3,1,4.8,1.4,7.5,1.4c2.6,0,5-0.5,7.1-1.5c2.1-1,3.9-2.5,5.4-4.5c1.5-2,2.6-4.5,3.4-7.6c0.8-3.1,1.2-6.7,1.2-10.8
		c0-4.2-0.3-7.8-1-10.7c-0.7-2.9-1.6-5.3-2.9-7.1c-1.3-1.8-2.8-3.1-4.6-4C469.3,134.4,467.2,134,464.9,134z"/>
	<path class="st3" d="M541.2,120.6c5.4,0,10.2,0.9,14.6,2.6c4.4,1.7,8.1,4.2,11.2,7.4c3.1,3.2,5.5,7,7.1,11.6
		c1.7,4.6,2.5,9.7,2.5,15.3c0,5.7-0.8,10.8-2.5,15.4c-1.7,4.6-4.1,8.5-7.1,11.7c-3.1,3.2-6.8,5.7-11.2,7.4
		c-4.4,1.7-9.2,2.6-14.6,2.6c-5.4,0-10.2-0.9-14.6-2.6c-4.4-1.7-8.1-4.2-11.2-7.4c-3.1-3.2-5.5-7.1-7.2-11.7
		c-1.7-4.6-2.6-9.7-2.6-15.4c0-5.6,0.9-10.8,2.6-15.3c1.7-4.6,4.1-8.4,7.2-11.6c3.1-3.2,6.8-5.6,11.2-7.4
		C530.9,121.4,535.8,120.6,541.2,120.6z M541.2,181.2c6,0,10.4-2,13.3-6c2.9-4,4.3-9.9,4.3-17.6c0-7.7-1.4-13.6-4.3-17.7
		s-7.3-6.1-13.3-6.1c-6.1,0-10.5,2-13.4,6.1c-2.9,4.1-4.3,10-4.3,17.7c0,7.7,1.4,13.6,4.3,17.6C530.6,179.2,535.1,181.2,541.2,181.2
		z"/>
	<path class="st3" d="M590.1,193.5v-71.8h10.1c1.8,0,3,0.3,3.7,1c0.7,0.7,1.2,1.8,1.4,3.4l1,8.7c2.6-4.4,5.6-7.9,9-10.5
		c3.5-2.6,7.3-3.9,11.6-3.9c3.5,0,6.5,0.8,8.8,2.4l-2.2,13c-0.1,0.8-0.4,1.4-0.9,1.8c-0.5,0.3-1.1,0.5-1.9,0.5
		c-0.7,0-1.7-0.2-2.9-0.5c-1.2-0.3-2.8-0.5-4.8-0.5c-3.6,0-6.7,1-9.2,3c-2.6,2-4.7,4.9-6.5,8.7v44.7H590.1z"/>
	<path class="st3" d="M670.9,194.6c-6.2,0-11-1.8-14.4-5.3c-3.4-3.5-5-8.4-5-14.6v-40.1h-7.3c-0.9,0-1.7-0.3-2.4-0.9
		c-0.7-0.6-1-1.5-1-2.7v-6.9l11.5-1.9l3.6-19.6c0.2-0.9,0.6-1.7,1.3-2.2c0.7-0.5,1.5-0.8,2.6-0.8h9v22.6h18.9v12.3h-18.9v38.9
		c0,2.2,0.6,4,1.7,5.2c1.1,1.3,2.6,1.9,4.5,1.9c1.1,0,2-0.1,2.7-0.4c0.7-0.3,1.4-0.5,1.9-0.8c0.5-0.3,1-0.5,1.4-0.8
		c0.4-0.3,0.8-0.4,1.3-0.4c0.5,0,0.9,0.1,1.3,0.4c0.3,0.3,0.7,0.6,1,1.2l5.2,8.4c-2.5,2.1-5.4,3.7-8.7,4.8
		C677.8,194.1,674.4,194.6,670.9,194.6z"/>
	<path class="st3" d="M731.2,120.6c4.5,0,8.7,0.7,12.5,2.2c3.8,1.4,7.1,3.6,9.8,6.3c2.8,2.8,4.9,6.2,6.4,10.2
		c1.5,4,2.3,8.6,2.3,13.8c0,1.3-0.1,2.4-0.2,3.3c-0.1,0.9-0.3,1.5-0.6,2c-0.3,0.5-0.7,0.8-1.2,1c-0.5,0.2-1.2,0.3-2,0.3h-44.4
		c0.5,7.4,2.5,12.8,6,16.2c3.5,3.5,8,5.2,13.7,5.2c2.8,0,5.2-0.3,7.2-1c2-0.7,3.8-1.4,5.3-2.2c1.5-0.8,2.8-1.5,4-2.2
		c1.1-0.7,2.3-1,3.3-1c0.7,0,1.3,0.1,1.8,0.4c0.5,0.3,1,0.7,1.3,1.2l5,6.3c-1.9,2.2-4.1,4.1-6.4,5.6c-2.4,1.5-4.9,2.7-7.5,3.6
		c-2.6,0.9-5.2,1.6-7.9,1.9c-2.7,0.4-5.3,0.6-7.8,0.6c-5,0-9.6-0.8-13.9-2.5c-4.3-1.7-8-4.1-11.2-7.4c-3.2-3.2-5.7-7.3-7.5-12
		c-1.8-4.8-2.7-10.3-2.7-16.6c0-4.9,0.8-9.5,2.4-13.8c1.6-4.3,3.9-8.1,6.8-11.3c3-3.2,6.6-5.7,10.8-7.6
		C721,121.5,725.8,120.6,731.2,120.6z M731.5,133c-5,0-9,1.4-11.8,4.3c-2.8,2.8-4.7,6.9-5.5,12.1h32.5c0-2.2-0.3-4.4-0.9-6.3
		c-0.6-2-1.5-3.7-2.8-5.2c-1.3-1.5-2.8-2.7-4.8-3.5C736.3,133.4,734.1,133,731.5,133z"/>
	<path class="st3" d="M776.3,193.5v-71.8h10.1c1.8,0,3,0.3,3.7,1c0.7,0.7,1.2,1.8,1.4,3.4l1,8.7c2.6-4.4,5.6-7.9,9-10.5
		c3.5-2.6,7.3-3.9,11.6-3.9c3.5,0,6.5,0.8,8.8,2.4l-2.2,13c-0.1,0.8-0.4,1.4-0.9,1.8c-0.5,0.3-1.1,0.5-1.9,0.5
		c-0.7,0-1.7-0.2-2.9-0.5c-1.2-0.3-2.8-0.5-4.8-0.5c-3.6,0-6.7,1-9.2,3c-2.6,2-4.7,4.9-6.5,8.7v44.7H776.3z"/>
	<path class="st3" d="M876.3,121.7v45.6c0,4.4,1,7.8,3,10.2c2,2.4,5.1,3.6,9.1,3.6c3,0,5.8-0.7,8.4-2c2.6-1.3,5.1-3.2,7.4-5.5v-51.9
		h17.3v71.8h-10.6c-2.2,0-3.7-1-4.4-3.1l-1.2-5.7c-1.5,1.5-3,2.9-4.6,4.1c-1.6,1.2-3.3,2.3-5.1,3.1c-1.8,0.9-3.7,1.5-5.8,2
		c-2.1,0.5-4.3,0.7-6.7,0.7c-3.9,0-7.4-0.7-10.4-2c-3-1.3-5.5-3.2-7.6-5.6c-2.1-2.4-3.6-5.3-4.7-8.6c-1.1-3.3-1.6-7-1.6-11v-45.6
		H876.3z"/>
	<path class="st3" d="M940.1,193.5v-71.8h10.6c2.2,0,3.7,1,4.4,3.1l1.2,5.7c1.4-1.5,3-2.8,4.6-4.1c1.6-1.2,3.3-2.3,5.1-3.1
		c1.8-0.9,3.7-1.6,5.8-2c2.1-0.5,4.3-0.7,6.7-0.7c3.9,0,7.4,0.7,10.4,2c3,1.3,5.6,3.2,7.6,5.6c2,2.4,3.6,5.3,4.6,8.6
		c1,3.3,1.6,7,1.6,11v45.7h-17.3v-45.7c0-4.4-1-7.8-3-10.2c-2-2.4-5.1-3.6-9.1-3.6c-3,0-5.8,0.7-8.4,2c-2.6,1.4-5.1,3.2-7.4,5.5
		v51.9H940.1z"/>
	<path class="st3" d="M1046.7,217v-95.3h10.6c1.1,0,2.1,0.3,2.9,0.8c0.8,0.5,1.3,1.3,1.5,2.4l1.4,6.6c2.9-3.3,6.2-6,10-8
		c3.8-2.1,8.2-3.1,13.2-3.1c3.9,0,7.5,0.8,10.7,2.4c3.2,1.6,6,4,8.4,7.1c2.4,3.1,4.2,6.9,5.5,11.5c1.3,4.6,1.9,9.8,1.9,15.6
		c0,5.4-0.7,10.3-2.2,14.9c-1.4,4.6-3.5,8.5-6.2,11.9c-2.7,3.4-5.9,6-9.7,7.9c-3.8,1.9-8.1,2.8-12.8,2.8c-4.1,0-7.5-0.6-10.3-1.9
		c-2.8-1.2-5.4-3-7.6-5.1V217H1046.7z M1080.3,134c-3.6,0-6.7,0.8-9.2,2.3c-2.5,1.5-4.9,3.7-7.1,6.4v32.2c2,2.4,4.1,4.1,6.4,5.1
		c2.3,1,4.8,1.4,7.5,1.4c2.6,0,5-0.5,7.1-1.5s3.9-2.5,5.4-4.5c1.5-2,2.6-4.5,3.4-7.6c0.8-3.1,1.2-6.7,1.2-10.8c0-4.2-0.3-7.8-1-10.7
		c-0.7-2.9-1.6-5.3-2.9-7.1s-2.8-3.1-4.6-4C1084.6,134.4,1082.6,134,1080.3,134z"/>
	<path class="st3" d="M1125.9,193.5v-71.8h10.1c1.8,0,3,0.3,3.7,1c0.7,0.7,1.2,1.8,1.4,3.4l1,8.7c2.6-4.4,5.6-7.9,9-10.5
		c3.5-2.6,7.3-3.9,11.6-3.9c3.5,0,6.5,0.8,8.8,2.4l-2.2,13c-0.1,0.8-0.4,1.4-0.9,1.8c-0.5,0.3-1.1,0.5-1.9,0.5
		c-0.7,0-1.7-0.2-2.9-0.5c-1.2-0.3-2.8-0.5-4.8-0.5c-3.6,0-6.7,1-9.2,3c-2.6,2-4.7,4.9-6.5,8.7v44.7H1125.9z"/>
	<path class="st3" d="M1213.7,120.6c5.4,0,10.2,0.9,14.6,2.6c4.4,1.7,8.1,4.2,11.2,7.4c3.1,3.2,5.5,7,7.1,11.6
		c1.7,4.6,2.5,9.7,2.5,15.3c0,5.7-0.8,10.8-2.5,15.4c-1.7,4.6-4.1,8.5-7.1,11.7c-3.1,3.2-6.8,5.7-11.2,7.4
		c-4.4,1.7-9.2,2.6-14.6,2.6c-5.4,0-10.2-0.9-14.6-2.6s-8.1-4.2-11.2-7.4c-3.1-3.2-5.5-7.1-7.2-11.7c-1.7-4.6-2.6-9.7-2.6-15.4
		c0-5.6,0.9-10.8,2.6-15.3c1.7-4.6,4.1-8.4,7.2-11.6c3.1-3.2,6.8-5.6,11.2-7.4C1203.5,121.4,1208.4,120.6,1213.7,120.6z
		 M1213.7,181.2c6,0,10.4-2,13.3-6c2.9-4,4.3-9.9,4.3-17.6c0-7.7-1.4-13.6-4.3-17.7s-7.3-6.1-13.3-6.1c-6.1,0-10.5,2-13.4,6.1
		c-2.9,4.1-4.3,10-4.3,17.7c0,7.7,1.4,13.6,4.3,17.6C1203.2,179.2,1207.7,181.2,1213.7,181.2z"/>
	<path class="st3" d="M1265.7,193.5v-58.8l-6.2-1c-1.4-0.2-2.4-0.7-3.3-1.4c-0.8-0.7-1.2-1.7-1.2-2.9v-7.1h10.7V120
		c0-4.4,0.7-8.5,2.2-12.2c1.4-3.8,3.6-7,6.6-9.8c2.9-2.8,6.6-4.9,11.1-6.5c4.5-1.6,9.8-2.3,15.9-2.3c2,0,4,0.1,6,0.3
		c2.1,0.2,3.8,0.5,5.3,1l-0.6,9c-0.1,1.1-0.7,1.7-1.8,1.9c-1.1,0.2-2.4,0.3-4,0.3c-4.5,0-8.3,0.4-11.4,1.2c-3.1,0.8-5.5,2-7.4,3.5
		c-1.9,1.6-3.2,3.5-4.1,5.9c-0.8,2.4-1.2,5.1-1.2,8.2v1.8h44.5v71.2h-17.3v-58.9H1283v58.9H1265.7z"/>
	<path class="st3" d="M1365.2,89.5v104h-17.3v-104H1365.2z"/>
	<path class="st3" d="M1462.3,193.5c-2.2,0-3.7-1-4.4-3.1l-1.4-6.9c-1.5,1.7-3.1,3.2-4.7,4.6c-1.6,1.4-3.4,2.5-5.3,3.5
		s-3.9,1.7-6.1,2.3c-2.2,0.5-4.5,0.8-7,0.8c-3.9,0-7.5-0.8-10.8-2.4c-3.3-1.6-6.1-4-8.4-7.1c-2.4-3.1-4.2-6.9-5.5-11.5
		c-1.3-4.6-1.9-9.8-1.9-15.7c0-5.3,0.7-10.3,2.2-14.8c1.4-4.6,3.5-8.5,6.2-11.9c2.7-3.4,6-6,9.7-7.9c3.8-1.9,8-2.8,12.7-2.8
		c4,0,7.4,0.6,10.3,1.9c2.8,1.3,5.4,3,7.6,5.1V89.5h17.3v104H1462.3z M1439.3,180.8c3.6,0,6.7-0.7,9.2-2.2c2.5-1.5,4.9-3.6,7.1-6.4
		V140c-2-2.4-4.1-4.1-6.4-5c-2.3-1-4.8-1.5-7.5-1.5c-2.6,0-5,0.5-7.1,1.5c-2.1,1-3.9,2.5-5.4,4.4c-1.5,2-2.6,4.5-3.4,7.6
		c-0.8,3.1-1.2,6.7-1.2,10.8c0,4.2,0.3,7.8,1,10.7c0.7,2.9,1.6,5.3,2.9,7.1c1.3,1.8,2.8,3.2,4.6,4
		C1435,180.4,1437,180.8,1439.3,180.8z"/>
	<path class="st3" d="M1521.2,120.6c4.5,0,8.7,0.7,12.5,2.2c3.8,1.4,7.1,3.6,9.8,6.3c2.8,2.8,4.9,6.2,6.4,10.2
		c1.5,4,2.3,8.6,2.3,13.8c0,1.3-0.1,2.4-0.2,3.3c-0.1,0.9-0.3,1.5-0.6,2c-0.3,0.5-0.7,0.8-1.2,1s-1.2,0.3-2,0.3h-44.4
		c0.5,7.4,2.5,12.8,6,16.2c3.5,3.5,8,5.2,13.7,5.2c2.8,0,5.2-0.3,7.2-1c2-0.7,3.8-1.4,5.3-2.2c1.5-0.8,2.8-1.5,4-2.2
		c1.1-0.7,2.2-1,3.3-1c0.7,0,1.3,0.1,1.8,0.4c0.5,0.3,1,0.7,1.3,1.2l5,6.3c-1.9,2.2-4.1,4.1-6.4,5.6c-2.4,1.5-4.9,2.7-7.5,3.6
		c-2.6,0.9-5.2,1.6-7.9,1.9c-2.7,0.4-5.3,0.6-7.8,0.6c-5,0-9.6-0.8-13.9-2.5c-4.3-1.7-8-4.1-11.2-7.4c-3.2-3.2-5.7-7.3-7.5-12
		c-1.8-4.8-2.7-10.3-2.7-16.6c0-4.9,0.8-9.5,2.4-13.8c1.6-4.3,3.9-8.1,6.8-11.3c3-3.2,6.6-5.7,10.8-7.6
		C1511,121.5,1515.9,120.6,1521.2,120.6z M1521.6,133c-5,0-9,1.4-11.8,4.3c-2.8,2.8-4.7,6.9-5.5,12.1h32.5c0-2.2-0.3-4.4-0.9-6.3
		c-0.6-2-1.5-3.7-2.8-5.2c-1.3-1.5-2.8-2.7-4.8-3.5C1526.4,133.4,1524.1,133,1521.6,133z"/>
	<path class="st3" d="M1593.4,193.5v-71.8h10.1c1.8,0,3,0.3,3.7,1c0.7,0.7,1.2,1.8,1.4,3.4l1,8.7c2.6-4.4,5.6-7.9,9-10.5
		c3.5-2.6,7.3-3.9,11.6-3.9c3.5,0,6.5,0.8,8.8,2.4l-2.2,13c-0.1,0.8-0.4,1.4-0.9,1.8c-0.5,0.3-1.1,0.5-1.9,0.5
		c-0.7,0-1.7-0.2-2.9-0.5c-1.2-0.3-2.8-0.5-4.8-0.5c-3.6,0-6.7,1-9.2,3c-2.6,2-4.7,4.9-6.5,8.7v44.7H1593.4z"/>
	<path class="st3" d="M1680.3,120.6c4.5,0,8.7,0.7,12.5,2.2c3.8,1.4,7.1,3.6,9.8,6.3c2.8,2.8,4.9,6.2,6.4,10.2
		c1.5,4,2.3,8.6,2.3,13.8c0,1.3-0.1,2.4-0.2,3.3c-0.1,0.9-0.3,1.5-0.6,2c-0.3,0.5-0.7,0.8-1.2,1s-1.2,0.3-2,0.3H1663
		c0.5,7.4,2.5,12.8,6,16.2c3.5,3.5,8,5.2,13.7,5.2c2.8,0,5.2-0.3,7.2-1c2-0.7,3.8-1.4,5.3-2.2c1.5-0.8,2.8-1.5,4-2.2
		c1.1-0.7,2.2-1,3.3-1c0.7,0,1.3,0.1,1.8,0.4c0.5,0.3,1,0.7,1.3,1.2l5,6.3c-1.9,2.2-4.1,4.1-6.4,5.6c-2.4,1.5-4.9,2.7-7.5,3.6
		c-2.6,0.9-5.2,1.6-7.9,1.9c-2.7,0.4-5.3,0.6-7.8,0.6c-5,0-9.6-0.8-13.9-2.5c-4.3-1.7-8-4.1-11.2-7.4c-3.2-3.2-5.7-7.3-7.5-12
		c-1.8-4.8-2.7-10.3-2.7-16.6c0-4.9,0.8-9.5,2.4-13.8c1.6-4.3,3.9-8.1,6.8-11.3c3-3.2,6.6-5.7,10.8-7.6
		C1670.1,121.5,1674.9,120.6,1680.3,120.6z M1680.6,133c-5,0-9,1.4-11.8,4.3c-2.8,2.8-4.7,6.9-5.5,12.1h32.5c0-2.2-0.3-4.4-0.9-6.3
		c-0.6-2-1.5-3.7-2.8-5.2c-1.3-1.5-2.8-2.7-4.8-3.5C1685.4,133.4,1683.2,133,1680.6,133z M1704.9,91.2l-17.3,18.3
		c-0.9,0.9-1.7,1.6-2.6,1.9s-1.9,0.5-3.2,0.5h-10.4l9.9-17c0.7-1.2,1.5-2.1,2.4-2.8s2.3-0.9,4.2-0.9H1704.9z"/>
	<path class="st3" d="M1728.5,193.5v-58.8l-6.2-1c-1.4-0.2-2.4-0.7-3.3-1.4c-0.8-0.7-1.2-1.7-1.2-2.9v-7.1h10.7V117
		c0-4.1,0.6-7.8,1.9-11.1c1.2-3.3,3-6,5.3-8.3c2.3-2.3,5.1-4,8.4-5.2c3.3-1.2,7-1.8,11.2-1.8c3.3,0,6.4,0.4,9.2,1.3l-0.4,8.7
		c-0.1,1.4-0.7,2.2-1.9,2.5c-1.2,0.3-2.5,0.5-4.1,0.5c-2.1,0-3.9,0.2-5.5,0.7c-1.6,0.4-3,1.2-4.1,2.3c-1.1,1.1-2,2.5-2.6,4.3
		c-0.6,1.8-0.9,4-0.9,6.7v4.8h18.7v12.3h-18.1v58.9H1728.5z"/>
	<path class="st3" d="M1804.2,120.6c4.5,0,8.7,0.7,12.5,2.2c3.8,1.4,7.1,3.6,9.8,6.3c2.8,2.8,4.9,6.2,6.4,10.2
		c1.5,4,2.3,8.6,2.3,13.8c0,1.3-0.1,2.4-0.2,3.3c-0.1,0.9-0.3,1.5-0.6,2c-0.3,0.5-0.7,0.8-1.2,1s-1.2,0.3-2,0.3h-44.4
		c0.5,7.4,2.5,12.8,6,16.2c3.5,3.5,8,5.2,13.7,5.2c2.8,0,5.2-0.3,7.2-1c2-0.7,3.8-1.4,5.3-2.2c1.5-0.8,2.8-1.5,4-2.2
		c1.1-0.7,2.2-1,3.3-1c0.7,0,1.3,0.1,1.8,0.4c0.5,0.3,1,0.7,1.3,1.2l5,6.3c-1.9,2.2-4.1,4.1-6.4,5.6c-2.4,1.5-4.9,2.7-7.5,3.6
		c-2.6,0.9-5.2,1.6-7.9,1.9c-2.7,0.4-5.3,0.6-7.8,0.6c-5,0-9.6-0.8-13.9-2.5c-4.3-1.7-8-4.1-11.2-7.4c-3.2-3.2-5.7-7.3-7.5-12
		c-1.8-4.8-2.7-10.3-2.7-16.6c0-4.9,0.8-9.5,2.4-13.8c1.6-4.3,3.9-8.1,6.8-11.3c3-3.2,6.6-5.7,10.8-7.6
		C1794,121.5,1798.8,120.6,1804.2,120.6z M1804.5,133c-5,0-9,1.4-11.8,4.3c-2.8,2.8-4.7,6.9-5.5,12.1h32.5c0-2.2-0.3-4.4-0.9-6.3
		c-0.6-2-1.5-3.7-2.8-5.2c-1.3-1.5-2.8-2.7-4.8-3.5C1809.3,133.4,1807.1,133,1804.5,133z M1828.8,91.2l-17.3,18.3
		c-0.9,0.9-1.7,1.6-2.6,1.9s-1.9,0.5-3.2,0.5h-10.4l9.9-17c0.7-1.2,1.5-2.1,2.4-2.8s2.3-0.9,4.2-0.9H1828.8z"/>
	<path class="st3" d="M1849.3,193.5v-71.8h10.1c1.8,0,3,0.3,3.7,1c0.7,0.7,1.2,1.8,1.4,3.4l1,8.7c2.6-4.4,5.6-7.9,9-10.5
		c3.5-2.6,7.3-3.9,11.6-3.9c3.5,0,6.5,0.8,8.8,2.4l-2.2,13c-0.1,0.8-0.4,1.4-0.9,1.8c-0.5,0.3-1.1,0.5-1.9,0.5
		c-0.7,0-1.7-0.2-2.9-0.5c-1.2-0.3-2.8-0.5-4.8-0.5c-3.6,0-6.7,1-9.2,3c-2.6,2-4.7,4.9-6.5,8.7v44.7H1849.3z"/>
	<path class="st3" d="M1936.2,120.6c4.5,0,8.7,0.7,12.5,2.2c3.8,1.4,7.1,3.6,9.8,6.3c2.8,2.8,4.9,6.2,6.4,10.2
		c1.5,4,2.3,8.6,2.3,13.8c0,1.3-0.1,2.4-0.2,3.3c-0.1,0.9-0.3,1.5-0.6,2c-0.3,0.5-0.7,0.8-1.2,1s-1.2,0.3-2,0.3h-44.4
		c0.5,7.4,2.5,12.8,6,16.2c3.5,3.5,8,5.2,13.7,5.2c2.8,0,5.2-0.3,7.2-1c2-0.7,3.8-1.4,5.3-2.2c1.5-0.8,2.8-1.5,4-2.2
		c1.1-0.7,2.2-1,3.3-1c0.7,0,1.3,0.1,1.8,0.4c0.5,0.3,1,0.7,1.3,1.2l5,6.3c-1.9,2.2-4.1,4.1-6.4,5.6c-2.4,1.5-4.9,2.7-7.5,3.6
		c-2.6,0.9-5.2,1.6-7.9,1.9c-2.7,0.4-5.3,0.6-7.8,0.6c-5,0-9.6-0.8-13.9-2.5c-4.3-1.7-8-4.1-11.2-7.4c-3.2-3.2-5.7-7.3-7.5-12
		c-1.8-4.8-2.7-10.3-2.7-16.6c0-4.9,0.8-9.5,2.4-13.8c1.6-4.3,3.9-8.1,6.8-11.3c3-3.2,6.6-5.7,10.8-7.6
		C1926,121.5,1930.8,120.6,1936.2,120.6z M1936.5,133c-5,0-9,1.4-11.8,4.3c-2.8,2.8-4.7,6.9-5.5,12.1h32.5c0-2.2-0.3-4.4-0.9-6.3
		c-0.6-2-1.5-3.7-2.8-5.2c-1.3-1.5-2.8-2.7-4.8-3.5C1941.3,133.4,1939.1,133,1936.5,133z"/>
	<path class="st3" d="M1981.3,193.5v-71.8h10.6c2.2,0,3.7,1,4.4,3.1l1.2,5.7c1.4-1.5,3-2.8,4.6-4.1c1.6-1.2,3.3-2.3,5.1-3.1
		c1.8-0.9,3.7-1.6,5.8-2c2.1-0.5,4.3-0.7,6.7-0.7c3.9,0,7.4,0.7,10.4,2c3,1.3,5.6,3.2,7.6,5.6c2,2.4,3.6,5.3,4.6,8.6
		c1,3.3,1.6,7,1.6,11v45.7h-17.3v-45.7c0-4.4-1-7.8-3-10.2c-2-2.4-5.1-3.6-9.1-3.6c-3,0-5.8,0.7-8.4,2c-2.6,1.4-5.1,3.2-7.4,5.5
		v51.9H1981.3z"/>
	<path class="st3" d="M2111.4,136.9c-0.5,0.7-1,1.2-1.5,1.5c-0.5,0.4-1.2,0.6-2.1,0.6c-0.9,0-1.8-0.3-2.6-0.8
		c-0.8-0.5-1.8-1.1-3-1.8c-1.2-0.7-2.6-1.3-4.2-1.8c-1.6-0.5-3.6-0.8-6-0.8c-3,0-5.7,0.5-8,1.6c-2.3,1.1-4.2,2.7-5.7,4.7
		c-1.5,2.1-2.6,4.5-3.4,7.5c-0.7,2.9-1.1,6.2-1.1,9.9c0,3.8,0.4,7.2,1.2,10.2c0.8,3,2,5.5,3.5,7.5c1.5,2,3.4,3.6,5.6,4.6
		c2.2,1.1,4.7,1.6,7.4,1.6c2.8,0,5-0.3,6.7-1c1.7-0.7,3.1-1.4,4.3-2.2c1.2-0.8,2.2-1.6,3-2.2c0.9-0.7,1.8-1,2.9-1
		c1.4,0,2.5,0.5,3.2,1.6l5,6.3c-1.9,2.2-4,4.1-6.2,5.6c-2.2,1.5-4.6,2.7-7,3.6s-4.9,1.6-7.5,1.9c-2.6,0.4-5.1,0.6-7.6,0.6
		c-4.4,0-8.6-0.8-12.5-2.5s-7.3-4.1-10.3-7.2c-2.9-3.2-5.2-7.1-6.9-11.7c-1.7-4.6-2.6-9.8-2.6-15.7c0-5.3,0.8-10.2,2.3-14.7
		c1.5-4.5,3.7-8.4,6.7-11.7c2.9-3.3,6.6-5.9,10.9-7.7c4.3-1.9,9.3-2.8,15-2.8c5.4,0,10.1,0.9,14.1,2.6c4,1.7,7.7,4.2,10.9,7.4
		L2111.4,136.9z"/>
	<path class="st3" d="M2157.4,120.6c4.5,0,8.7,0.7,12.5,2.2c3.8,1.4,7.1,3.6,9.8,6.3c2.8,2.8,4.9,6.2,6.4,10.2
		c1.5,4,2.3,8.6,2.3,13.8c0,1.3-0.1,2.4-0.2,3.3c-0.1,0.9-0.3,1.5-0.6,2c-0.3,0.5-0.7,0.8-1.2,1s-1.2,0.3-2,0.3h-44.4
		c0.5,7.4,2.5,12.8,6,16.2c3.5,3.5,8,5.2,13.7,5.2c2.8,0,5.2-0.3,7.2-1c2-0.7,3.8-1.4,5.3-2.2c1.5-0.8,2.8-1.5,4-2.2
		c1.1-0.7,2.2-1,3.3-1c0.7,0,1.3,0.1,1.8,0.4c0.5,0.3,1,0.7,1.3,1.2l5,6.3c-1.9,2.2-4.1,4.1-6.4,5.6c-2.4,1.5-4.9,2.7-7.5,3.6
		c-2.6,0.9-5.2,1.6-7.9,1.9c-2.7,0.4-5.3,0.6-7.8,0.6c-5,0-9.6-0.8-13.9-2.5c-4.3-1.7-8-4.1-11.2-7.4c-3.2-3.2-5.7-7.3-7.5-12
		c-1.8-4.8-2.7-10.3-2.7-16.6c0-4.9,0.8-9.5,2.4-13.8c1.6-4.3,3.9-8.1,6.8-11.3c3-3.2,6.6-5.7,10.8-7.6
		C2147.2,121.5,2152,120.6,2157.4,120.6z M2157.7,133c-5,0-9,1.4-11.8,4.3c-2.8,2.8-4.7,6.9-5.5,12.1h32.5c0-2.2-0.3-4.4-0.9-6.3
		c-0.6-2-1.5-3.7-2.8-5.2c-1.3-1.5-2.8-2.7-4.8-3.5C2162.5,133.4,2160.3,133,2157.7,133z"/>
</g>
</svg>
