<?xml version="1.0" encoding="utf-8"?>
<!-- Generator: Adobe Illustrator 22.0.1, SVG Export Plug-In . SVG Version: 6.00 Build 0)  -->
<svg version="1.1" id="Capa_1" xmlns="http://www.w3.org/2000/svg" xmlns:xlink="http://www.w3.org/1999/xlink" x="0px" y="0px"
	 viewBox="0 0 48 48" style="enable-background:new 0 0 48 48;" xml:space="preserve">
<style type="text/css">
	.st0{fill:#333333;}
</style>
<g id="info_1_">
	<g>
		<path class="st0" d="M22,38h4V20h-4V38z M24,10c-1.8,0-3,1.5-3,3s1.2,3,3,3s3-1.4,3-3S25.8,10,24,10z M24,0C10.7,0,0,10.7,0,24
			s10.7,24,24,24s24-10.7,24-24S37.3,0,24,0z M24,44C13,44,4,35,4,24S13,4,24,4s20,9,20,20S35,44,24,44z"/>
	</g>
</g>
</svg>
