<?xml version="1.0" encoding="utf-8"?>
<!-- Generator: Adobe Illustrator 22.0.1, SVG Export Plug-In . SVG Version: 6.00 Build 0)  -->
<svg version="1.1" id="Calque_1" xmlns="http://www.w3.org/2000/svg" xmlns:xlink="http://www.w3.org/1999/xlink" x="0px" y="0px"
	 viewBox="0 0 964 1408" style="enable-background:new 0 0 964 1408;" xml:space="preserve">
<style type="text/css">
	.st0{fill:#0C8043;}
</style>
<path class="st0" d="M265.8,650.4h428.4V489.8c0-59.2-20.9-109.6-62.8-151.5s-92.3-62.8-151.5-62.8s-109.6,20.9-151.5,62.8
	s-62.8,92.3-62.8,151.5V650.4z M962,730.8v482c0,22.3-7.8,41.3-23.4,56.9c-15.6,15.6-34.6,23.4-56.9,23.4H78.3
	c-22.3,0-41.3-7.8-56.9-23.4S-2,1235.1-2,1212.8v-482c0-22.3,7.8-41.3,23.4-56.9s34.6-23.4,56.9-23.4h26.8V489.8
	c0-102.7,36.8-190.8,110.5-264.4S377.3,114.9,480,114.9s190.8,36.8,264.4,110.5s110.5,161.8,110.5,264.4v160.7h26.8
	c22.3,0,41.3,7.8,56.9,23.4C954.2,689.5,962,708.4,962,730.8z"/>
</svg>
