<?xml version="1.0" encoding="utf-8"?>
<!-- Generator: Adobe Illustrator 23.0.2, SVG Export Plug-In . SVG Version: 6.00 Build 0)  -->
<svg version="1.1" id="Calque_1" xmlns="http://www.w3.org/2000/svg" xmlns:xlink="http://www.w3.org/1999/xlink" x="0px" y="0px"
	 viewBox="0 0 913.5 913.5" style="enable-background:new 0 0 913.5 913.5;" xml:space="preserve">
<style type="text/css">
	.st0{fill:#FCD79E;}
</style>
<path class="st0" d="M649,324.2l163.5-163.5L752.8,101L589.3,264.5L649,324.2z M898.5,160.7c0,9.5-3.3,18.4-10,25.1L170.7,903.5
	c-6.7,6.7-15.6,10-25.1,10s-18.4-3.3-25.1-10L10,793c-6.7-6.7-10-15.7-10-25.1s3.3-18.5,10-25.2L727.6,25.1c6.7-6.7,15.7-10,25.2-10
	s18.4,3.3,25.1,10l110.5,110.5C895.1,142.3,898.4,151.2,898.5,160.7L898.5,160.7z M144.5,54.7l54.7,16.7l-54.7,16.8l-16.7,54.7
	L111,88.2L56.3,71.4L111,54.7L127.8,0L144.5,54.7z M339.8,145.1l109.4,33.5l-109.4,33.5l-33.5,109.3l-33.5-109.3l-109.3-33.5
	l109.3-33.5l33.5-109.4L339.8,145.1z M858.8,411.8l54.7,16.8l-54.7,16.7L842,500l-16.7-54.7l-54.7-16.7l54.7-16.8l16.7-54.7
	L858.8,411.8z M501.6,54.7l54.7,16.7l-54.7,16.8l-16.7,54.7l-16.7-54.7l-54.7-16.8l54.7-16.7L484.9,0L501.6,54.7z"/>
</svg>
