<?xml version="1.0" encoding="utf-8"?>
<!-- Generator: Adobe Illustrator 23.0.6, SVG Export Plug-In . SVG Version: 6.00 Build 0)  -->
<svg version="1.1" id="Calque_1" xmlns="http://www.w3.org/2000/svg" xmlns:xlink="http://www.w3.org/1999/xlink" x="0px" y="0px"
	 viewBox="0 0 1000 1000" style="enable-background:new 0 0 1000 1000;" xml:space="preserve">
<style type="text/css">
	.st0{fill:#D81E08;}
	.st1{fill:#FFFFFF;}
</style>
<g>
	<g>
		<circle class="st0" cx="500" cy="500" r="500"/>
	</g>
</g>
<g>
	<path class="st1" d="M508.6,209.9c26.2,0,50.1,3.9,71.8,11.6c21.7,7.7,40.3,18.6,55.7,32.8c15.4,14.1,27.5,31.1,36.1,51
		c8.6,19.9,13,42,13,66.3c0,20.9-3.1,40.3-9.2,58.1c-6.2,17.8-14.4,34.8-24.7,51c-10.3,16.2-22.4,31.9-36.3,47.1
		c-13.9,15.2-28.4,30.6-43.6,46.3l-128,130.7c12.6-3.7,24.9-6.5,36.9-8.4c12-2,23.5-2.9,34.5-2.9h145.6c10.5,0,18.8,2.9,24.9,8.8
		c6.1,5.9,9.2,13.7,9.2,23.4v58.1H305.3v-32.2c0-6.5,1.4-13.3,4.1-20.4c2.7-7.1,7.1-13.6,13.1-19.6l172.3-172.7
		c14.4-14.7,27.3-28.7,38.7-42c11.4-13.3,20.9-26.6,28.7-39.6c7.7-13.1,13.6-26.4,17.7-39.8c4.1-13.5,6.1-27.7,6.1-42.6
		c0-13.6-2-25.6-5.9-35.9c-3.9-10.3-9.6-19-16.9-26.1c-7.3-7.1-16-12.4-26.1-15.9c-10.1-3.5-21.4-5.3-34-5.3
		c-23.3,0-42.5,5.9-57.5,17.7c-15,11.8-25.6,27.6-31.6,47.5c-2.9,9.9-7.2,17.1-13,21.4c-5.8,4.3-13.1,6.5-22,6.5
		c-3.9,0-8.2-0.4-13-1.2l-51-9c3.9-27.2,11.5-51.1,22.8-71.6c11.2-20.5,25.3-37.7,42.2-51.4s36.2-24.1,58.1-31
		C460,213.3,483.5,209.9,508.6,209.9z"/>
</g>
</svg>
