<?xml version="1.0" encoding="utf-8"?>
<!-- Generator: Adobe Illustrator 23.0.6, SVG Export Plug-In . SVG Version: 6.00 Build 0)  -->
<svg version="1.1" id="Calque_1" xmlns="http://www.w3.org/2000/svg" xmlns:xlink="http://www.w3.org/1999/xlink" x="0px" y="0px"
	 viewBox="0 0 785.7 785.7" style="enable-background:new 0 0 785.7 785.7;" xml:space="preserve">
<style type="text/css">
	.st0{fill:#333333;}
</style>
<path class="st0" d="M642.9,375v35.7c0,10.1-7.9,17.9-17.9,17.9H160.7c-10,0-17.8-7.8-17.8-17.9V375c0-10,7.8-17.8,17.8-17.8H625
	C635,357.2,642.9,365,642.9,375z M714.3,625V160.7c0-49.1-40.2-89.2-89.3-89.2H160.7c-49.1,0-89.3,40.1-89.3,89.2V625
	c0,49.1,40.2,89.3,89.3,89.3H625C674.1,714.3,714.3,674.1,714.3,625z M785.7,160.7V625c0,88.8-72,160.7-160.7,160.7H160.7
	C72,785.7,0,713.8,0,625V160.7C0,72,72,0,160.7,0H625C713.7,0,785.7,72,785.7,160.7z"/>
</svg>
