<?xml version="1.0" encoding="utf-8"?>
<!-- Generator: Adobe Illustrator 24.3.0, SVG Export Plug-In . SVG Version: 6.00 Build 0)  -->
<svg version="1.1" id="Calque_1" xmlns="http://www.w3.org/2000/svg" xmlns:xlink="http://www.w3.org/1999/xlink" x="0px" y="0px"
	 viewBox="0 0 873.4 292" style="enable-background:new 0 0 873.4 292;" xml:space="preserve">
<style type="text/css">
	.st0{fill:url(#SVGID_1_);}
	.st1{fill:url(#SVGID_2_);}
	.st2{fill:#FFFFFF;}
	.st3{fill:#333333;}
</style>
<g>
	
		<linearGradient id="SVGID_1_" gradientUnits="userSpaceOnUse" x1="581.2" y1="1228" x2="581.2" y2="936" gradientTransform="matrix(-1 0 0 1 1017.9 -936)">
		<stop  offset="0" style="stop-color:#BBBBBB"/>
		<stop  offset="1" style="stop-color:#DCDCDC"/>
	</linearGradient>
	<path class="st0" d="M25,282c-8,0-15-7-15-15V25c0-8,7-15,15-15h823.5c8,0,15,7,15,15v242c0,8-7,15-15,15H25z M848.4,292
		c14,0,25-11,25-25V25c0-14-11-25-25-25H25C11,0,0,11,0,25v242c0,14,11,25,25,25H848.4z"/>
</g>
<linearGradient id="SVGID_2_" gradientUnits="userSpaceOnUse" x1="581.2" y1="-194" x2="581.2" y2="78" gradientTransform="matrix(-1 0 0 -1 1017.9 88)">
	<stop  offset="0" style="stop-color:#E8E8E8"/>
	<stop  offset="1" style="stop-color:#F9F9F9"/>
</linearGradient>
<path class="st1" d="M25,282c-8,0-15-7-15-15V25c0-8,7-15,15-15h823.5c8,0,15,7,15,15v242c0,8-7,15-15,15H25z"/>
<g>
	<g>
		<path class="st2" d="M333.2,166c0.7,1.6,1.3,3.2,2,4.9c0.7-1.7,1.3-3.3,2-5c0.7-1.6,1.4-3.2,2.2-4.7l30-56.1
			c0.4-0.7,0.8-1.3,1.2-1.7s0.8-0.7,1.3-0.9c0.5-0.2,1-0.3,1.6-0.4c0.6,0,1.3-0.1,2.2-0.1h14.2v101.2h-16.6V138c0-1.2,0-2.5,0.1-4
			c0.1-1.4,0.2-2.9,0.3-4.4L343.1,187c-0.7,1.3-1.6,2.3-2.7,3c-1.1,0.7-2.4,1.1-3.9,1.1h-2.6c-1.5,0-2.8-0.4-3.9-1.1
			c-1.1-0.7-2-1.7-2.7-3l-31-57.6c0.2,1.5,0.3,3,0.4,4.5c0.1,1.5,0.1,2.8,0.1,4.1v65.4h-16.6V102.1h14.2c0.8,0,1.6,0,2.2,0.1
			c0.6,0,1.2,0.2,1.6,0.4c0.5,0.2,0.9,0.5,1.4,0.9s0.8,1,1.2,1.7l30.2,56.2C331.8,162.8,332.5,164.4,333.2,166z"/>
		<path class="st2" d="M440,130.4c5.4,0,10.2,0.9,14.6,2.6c4.4,1.7,8.1,4.2,11.2,7.4c3.1,3.2,5.5,7,7.1,11.6
			c1.7,4.6,2.5,9.7,2.5,15.3c0,5.7-0.8,10.8-2.5,15.4c-1.7,4.6-4.1,8.5-7.1,11.7s-6.8,5.7-11.2,7.4c-4.4,1.7-9.2,2.6-14.6,2.6
			c-5.4,0-10.2-0.9-14.6-2.6c-4.4-1.7-8.1-4.2-11.2-7.4s-5.5-7.1-7.2-11.7c-1.7-4.6-2.6-9.7-2.6-15.4c0-5.6,0.9-10.8,2.6-15.3
			c1.7-4.6,4.1-8.4,7.2-11.6c3.1-3.2,6.8-5.6,11.2-7.4C429.8,131.3,434.7,130.4,440,130.4z M440,191.1c6,0,10.4-2,13.3-6
			s4.3-9.9,4.3-17.6c0-7.7-1.4-13.6-4.3-17.7c-2.9-4.1-7.3-6.1-13.3-6.1c-6.1,0-10.5,2-13.4,6.1c-2.9,4.1-4.3,10-4.3,17.7
			c0,7.7,1.4,13.6,4.3,17.6C429.5,189.1,434,191.1,440,191.1z"/>
		<path class="st2" d="M539.5,203.4c-2.2,0-3.7-1-4.4-3.2l-1.4-6.9c-1.5,1.7-3.1,3.2-4.7,4.5c-1.6,1.4-3.4,2.5-5.3,3.5
			c-1.9,1-3.9,1.7-6.1,2.3c-2.2,0.5-4.5,0.8-7,0.8c-3.9,0-7.5-0.8-10.8-2.5c-3.3-1.6-6.1-4-8.4-7.1s-4.2-6.9-5.5-11.5
			s-1.9-9.8-1.9-15.7c0-5.3,0.7-10.3,2.2-14.8c1.4-4.6,3.5-8.5,6.2-11.9c2.7-3.4,6-6,9.7-7.9c3.8-1.9,8-2.8,12.7-2.8
			c4,0,7.4,0.6,10.3,1.9c2.8,1.3,5.4,3,7.6,5.1V99.3h17.3v104H539.5z M516.5,190.7c3.6,0,6.6-0.7,9.2-2.2c2.5-1.5,4.9-3.6,7.1-6.4
			v-32.2c-2-2.4-4.1-4.1-6.4-5c-2.3-1-4.8-1.5-7.5-1.5c-2.6,0-5,0.5-7.1,1.5c-2.1,1-3.9,2.5-5.4,4.4c-1.5,2-2.6,4.5-3.4,7.6
			c-0.8,3.1-1.2,6.7-1.2,10.8c0,4.2,0.3,7.8,1,10.7c0.7,2.9,1.6,5.3,2.9,7.1c1.3,1.8,2.8,3.2,4.6,4
			C512.2,190.3,514.2,190.7,516.5,190.7z"/>
		<path class="st2" d="M589.7,110.6c0,1.5-0.3,2.9-0.9,4.2c-0.6,1.3-1.4,2.4-2.4,3.4c-1,1-2.2,1.8-3.5,2.3c-1.4,0.6-2.8,0.9-4.3,0.9
			c-1.5,0-2.9-0.3-4.2-0.9c-1.3-0.6-2.5-1.4-3.5-2.3c-1-1-1.8-2.1-2.3-3.4c-0.6-1.3-0.9-2.7-0.9-4.2c0-1.5,0.3-3,0.9-4.3
			c0.6-1.4,1.4-2.5,2.3-3.5c1-1,2.1-1.8,3.5-2.3c1.3-0.6,2.7-0.9,4.2-0.9c1.5,0,3,0.3,4.3,0.9c1.4,0.6,2.5,1.4,3.5,2.3
			c1,1,1.8,2.1,2.4,3.5C589.4,107.6,589.7,109.1,589.7,110.6z M587.2,131.5v71.8h-17.3v-71.8H587.2z"/>
		<path class="st2" d="M609.8,203.4v-58.8l-6.2-1c-1.4-0.2-2.4-0.7-3.3-1.4c-0.8-0.7-1.2-1.7-1.2-2.9v-7.1h10.7v-2.3
			c0-4.4,0.7-8.5,2.2-12.2c1.4-3.8,3.6-7,6.6-9.8c2.9-2.8,6.6-4.9,11.1-6.5c4.5-1.6,9.8-2.3,15.9-2.3c2,0,4,0.1,6,0.3
			c2.1,0.2,3.8,0.5,5.3,1l-0.6,9c-0.1,1.1-0.7,1.7-1.8,1.9c-1.1,0.2-2.4,0.3-4,0.3c-4.5,0-8.3,0.4-11.4,1.2c-3.1,0.8-5.5,2-7.4,3.5
			c-1.9,1.6-3.2,3.5-4.1,5.9c-0.8,2.4-1.2,5.1-1.2,8.2v1.8H671v71.2h-17.3v-58.9h-26.7v58.9H609.8z"/>
		<path class="st2" d="M720.5,130.4c4.5,0,8.7,0.7,12.5,2.2c3.8,1.4,7.1,3.6,9.8,6.3c2.8,2.8,4.9,6.2,6.4,10.2
			c1.5,4,2.3,8.6,2.3,13.8c0,1.3-0.1,2.4-0.2,3.3c-0.1,0.9-0.3,1.5-0.6,2c-0.3,0.5-0.7,0.8-1.2,1s-1.2,0.3-2,0.3h-44.4
			c0.5,7.4,2.5,12.8,6,16.2c3.5,3.5,8,5.2,13.7,5.2c2.8,0,5.2-0.3,7.2-1c2-0.7,3.8-1.4,5.3-2.2c1.5-0.8,2.8-1.5,4-2.2
			c1.1-0.7,2.2-1,3.3-1c0.7,0,1.3,0.1,1.8,0.4c0.5,0.3,1,0.7,1.3,1.2l5,6.3c-1.9,2.2-4.1,4.1-6.4,5.6c-2.4,1.5-4.9,2.7-7.5,3.6
			c-2.6,0.9-5.2,1.6-7.9,1.9c-2.7,0.4-5.3,0.6-7.8,0.6c-5,0-9.6-0.8-13.9-2.5c-4.3-1.7-8-4.1-11.2-7.4c-3.2-3.2-5.7-7.3-7.5-12
			c-1.8-4.8-2.7-10.3-2.7-16.6c0-4.9,0.8-9.5,2.4-13.8c1.6-4.3,3.9-8.1,6.8-11.3c3-3.2,6.6-5.7,10.8-7.6
			C710.3,131.3,715.1,130.4,720.5,130.4z M720.9,142.8c-5,0-9,1.4-11.8,4.3c-2.8,2.8-4.7,6.9-5.5,12.1H736c0-2.2-0.3-4.4-0.9-6.3
			c-0.6-2-1.5-3.7-2.8-5.2c-1.3-1.5-2.8-2.7-4.8-3.5C725.7,143.2,723.4,142.8,720.9,142.8z"/>
		<path class="st2" d="M765.7,203.4v-71.8h10.1c1.8,0,3,0.3,3.7,1c0.7,0.7,1.2,1.8,1.4,3.4l1,8.7c2.6-4.4,5.6-7.9,9-10.5
			c3.5-2.6,7.3-3.9,11.6-3.9c3.5,0,6.5,0.8,8.8,2.4l-2.2,12.9c-0.1,0.8-0.4,1.4-0.9,1.8c-0.5,0.3-1.1,0.5-1.9,0.5
			c-0.7,0-1.7-0.2-2.9-0.5c-1.2-0.3-2.8-0.5-4.8-0.5c-3.6,0-6.7,1-9.2,3c-2.6,2-4.7,4.9-6.5,8.7v44.7H765.7z"/>
	</g>
	<g>
		<g>
			<path class="st3" d="M323.2,156c0.7,1.6,1.3,3.2,2,4.9c0.7-1.7,1.3-3.3,2-5c0.7-1.6,1.4-3.2,2.2-4.7l30-56.1
				c0.4-0.7,0.8-1.3,1.2-1.7s0.8-0.7,1.3-0.9c0.5-0.2,1-0.3,1.6-0.4c0.6,0,1.3-0.1,2.2-0.1h14.2v101.2h-16.6V128c0-1.2,0-2.5,0.1-4
				c0.1-1.4,0.2-2.9,0.3-4.4L333.1,177c-0.7,1.3-1.6,2.3-2.7,3c-1.1,0.7-2.4,1.1-3.9,1.1h-2.6c-1.5,0-2.8-0.4-3.9-1.1
				c-1.1-0.7-2-1.7-2.7-3l-31-57.6c0.2,1.5,0.3,3,0.4,4.5c0.1,1.5,0.1,2.8,0.1,4.1v65.4h-16.6V92.1h14.2c0.8,0,1.6,0,2.2,0.1
				c0.6,0,1.2,0.2,1.6,0.4c0.5,0.2,0.9,0.5,1.4,0.9s0.8,1,1.2,1.7l30.2,56.2C321.8,152.8,322.5,154.4,323.2,156z"/>
			<path class="st3" d="M430,120.4c5.4,0,10.2,0.9,14.6,2.6c4.4,1.7,8.1,4.2,11.2,7.4c3.1,3.2,5.5,7,7.1,11.6
				c1.7,4.6,2.5,9.7,2.5,15.3c0,5.7-0.8,10.8-2.5,15.4c-1.7,4.6-4.1,8.5-7.1,11.7s-6.8,5.7-11.2,7.4c-4.4,1.7-9.2,2.6-14.6,2.6
				c-5.4,0-10.2-0.9-14.6-2.6c-4.4-1.7-8.1-4.2-11.2-7.4s-5.5-7.1-7.2-11.7c-1.7-4.6-2.6-9.7-2.6-15.4c0-5.6,0.9-10.8,2.6-15.3
				c1.7-4.6,4.1-8.4,7.2-11.6c3.1-3.2,6.8-5.6,11.2-7.4C419.8,121.3,424.7,120.4,430,120.4z M430,181.1c6,0,10.4-2,13.3-6
				s4.3-9.9,4.3-17.6c0-7.7-1.4-13.6-4.3-17.7c-2.9-4.1-7.3-6.1-13.3-6.1c-6.1,0-10.5,2-13.4,6.1c-2.9,4.1-4.3,10-4.3,17.7
				c0,7.7,1.4,13.6,4.3,17.6C419.5,179.1,424,181.1,430,181.1z"/>
			<path class="st3" d="M529.5,193.4c-2.2,0-3.7-1-4.4-3.2l-1.4-6.9c-1.5,1.7-3.1,3.2-4.7,4.5c-1.6,1.4-3.4,2.5-5.3,3.5
				c-1.9,1-3.9,1.7-6.1,2.3c-2.2,0.5-4.5,0.8-7,0.8c-3.9,0-7.5-0.8-10.8-2.5c-3.3-1.6-6.1-4-8.4-7.1s-4.2-6.9-5.5-11.5
				s-1.9-9.8-1.9-15.7c0-5.3,0.7-10.3,2.2-14.8c1.4-4.6,3.5-8.5,6.2-11.9c2.7-3.4,6-6,9.7-7.9c3.8-1.9,8-2.8,12.7-2.8
				c4,0,7.4,0.6,10.3,1.9c2.8,1.3,5.4,3,7.6,5.1V89.3h17.3v104H529.5z M506.5,180.7c3.6,0,6.6-0.7,9.2-2.2c2.5-1.5,4.9-3.6,7.1-6.4
				v-32.2c-2-2.4-4.1-4.1-6.4-5c-2.3-1-4.8-1.5-7.5-1.5c-2.6,0-5,0.5-7.1,1.5c-2.1,1-3.9,2.5-5.4,4.4c-1.5,2-2.6,4.5-3.4,7.6
				c-0.8,3.1-1.2,6.7-1.2,10.8c0,4.2,0.3,7.8,1,10.7c0.7,2.9,1.6,5.3,2.9,7.1c1.3,1.8,2.8,3.2,4.6,4
				C502.2,180.3,504.2,180.7,506.5,180.7z"/>
			<path class="st3" d="M579.7,100.6c0,1.5-0.3,2.9-0.9,4.2c-0.6,1.3-1.4,2.4-2.4,3.4c-1,1-2.2,1.8-3.5,2.3
				c-1.4,0.6-2.8,0.9-4.3,0.9c-1.5,0-2.9-0.3-4.2-0.9c-1.3-0.6-2.5-1.4-3.5-2.3c-1-1-1.8-2.1-2.3-3.4c-0.6-1.3-0.9-2.7-0.9-4.2
				c0-1.5,0.3-3,0.9-4.3c0.6-1.4,1.4-2.5,2.3-3.5c1-1,2.1-1.8,3.5-2.3c1.3-0.6,2.7-0.9,4.2-0.9c1.5,0,3,0.3,4.3,0.9
				c1.4,0.6,2.5,1.4,3.5,2.3c1,1,1.8,2.1,2.4,3.5C579.4,97.6,579.7,99.1,579.7,100.6z M577.2,121.5v71.8h-17.3v-71.8H577.2z"/>
			<path class="st3" d="M599.8,193.4v-58.8l-6.2-1c-1.4-0.2-2.4-0.7-3.3-1.4c-0.8-0.7-1.2-1.7-1.2-2.9v-7.1h10.7v-2.3
				c0-4.4,0.7-8.5,2.2-12.2c1.4-3.8,3.6-7,6.6-9.8c2.9-2.8,6.6-4.9,11.1-6.5c4.5-1.6,9.8-2.3,15.9-2.3c2,0,4,0.1,6,0.3
				c2.1,0.2,3.8,0.5,5.3,1l-0.6,9c-0.1,1.1-0.7,1.7-1.8,1.9c-1.1,0.2-2.4,0.3-4,0.3c-4.5,0-8.3,0.4-11.4,1.2c-3.1,0.8-5.5,2-7.4,3.5
				c-1.9,1.6-3.2,3.5-4.1,5.9c-0.8,2.4-1.2,5.1-1.2,8.2v1.8H661v71.2h-17.3v-58.9h-26.7v58.9H599.8z"/>
			<path class="st3" d="M710.5,120.4c4.5,0,8.7,0.7,12.5,2.2c3.8,1.4,7.1,3.6,9.8,6.3c2.8,2.8,4.9,6.2,6.4,10.2
				c1.5,4,2.3,8.6,2.3,13.8c0,1.3-0.1,2.4-0.2,3.3c-0.1,0.9-0.3,1.5-0.6,2c-0.3,0.5-0.7,0.8-1.2,1s-1.2,0.3-2,0.3h-44.4
				c0.5,7.4,2.5,12.8,6,16.2c3.5,3.5,8,5.2,13.7,5.2c2.8,0,5.2-0.3,7.2-1c2-0.7,3.8-1.4,5.3-2.2c1.5-0.8,2.8-1.5,4-2.2
				c1.1-0.7,2.2-1,3.3-1c0.7,0,1.3,0.1,1.8,0.4c0.5,0.3,1,0.7,1.3,1.2l5,6.3c-1.9,2.2-4.1,4.1-6.4,5.6c-2.4,1.5-4.9,2.7-7.5,3.6
				c-2.6,0.9-5.2,1.6-7.9,1.9c-2.7,0.4-5.3,0.6-7.8,0.6c-5,0-9.6-0.8-13.9-2.5c-4.3-1.7-8-4.1-11.2-7.4c-3.2-3.2-5.7-7.3-7.5-12
				c-1.8-4.8-2.7-10.3-2.7-16.6c0-4.9,0.8-9.5,2.4-13.8c1.6-4.3,3.9-8.1,6.8-11.3c3-3.2,6.6-5.7,10.8-7.6
				C700.3,121.3,705.1,120.4,710.5,120.4z M710.9,132.8c-5,0-9,1.4-11.8,4.3c-2.8,2.8-4.7,6.9-5.5,12.1H726c0-2.2-0.3-4.4-0.9-6.3
				c-0.6-2-1.5-3.7-2.8-5.2c-1.3-1.5-2.8-2.7-4.8-3.5C715.7,133.2,713.4,132.8,710.9,132.8z"/>
			<path class="st3" d="M755.7,193.4v-71.8h10.1c1.8,0,3,0.3,3.7,1c0.7,0.7,1.2,1.8,1.4,3.4l1,8.7c2.6-4.4,5.6-7.9,9-10.5
				c3.5-2.6,7.3-3.9,11.6-3.9c3.5,0,6.5,0.8,8.8,2.4l-2.2,12.9c-0.1,0.8-0.4,1.4-0.9,1.8c-0.5,0.3-1.1,0.5-1.9,0.5
				c-0.7,0-1.7-0.2-2.9-0.5c-1.2-0.3-2.8-0.5-4.8-0.5c-3.6,0-6.7,1-9.2,3c-2.6,2-4.7,4.9-6.5,8.7v44.7H755.7z"/>
		</g>
	</g>
</g>
<path class="st2" d="M109.4,202.7l6.9-6.9L98.5,178l-6.9,6.9v8.1h9.7v9.7L109.4,202.7L109.4,202.7z M149,132.4
	c0-1.1-0.6-1.7-1.7-1.7c-0.5,0-0.9,0.2-1.3,0.5l-41,41.1c-0.3,0.3-0.5,0.8-0.5,1.3c0,1.1,0.6,1.7,1.7,1.7c0.5,0,0.9-0.2,1.3-0.5
	l41.1-41.1C148.9,133.3,149,132.9,149,132.4z M144.9,117.8l31.5,31.5l-63,63H81.9v-31.5L144.9,117.8z M196.6,125.1
	c0,2.7-0.9,4.9-2.8,6.8l-12.6,12.6L149.8,113l12.6-12.5c1.8-1.9,4.1-2.9,6.8-2.9c2.7,0,5,1,6.9,2.9l17.8,17.7
	C195.7,120.2,196.6,122.5,196.6,125.1z"/>
<path class="st3" d="M99.4,192.7l6.9-6.9L88.5,168l-6.9,6.9v8.1h9.7v9.7L99.4,192.7L99.4,192.7z M139,122.4c0-1.1-0.6-1.7-1.7-1.7
	c-0.5,0-0.9,0.2-1.3,0.5l-41,41.1c-0.3,0.3-0.5,0.8-0.5,1.3c0,1.1,0.6,1.7,1.7,1.7c0.5,0,0.9-0.2,1.3-0.5l41.1-41.1
	C138.9,123.3,139,122.9,139,122.4z M134.9,107.8l31.5,31.5l-63,63H71.9v-31.5L134.9,107.8z M186.6,115.1c0,2.7-0.9,4.9-2.8,6.8
	l-12.6,12.6L139.8,103l12.6-12.5c1.8-1.9,4.1-2.9,6.8-2.9c2.7,0,5,1,6.9,2.9l17.8,17.7C185.7,110.2,186.6,112.5,186.6,115.1z"/>
</svg>
