<?xml version="1.0" encoding="utf-8"?>
<!-- Generator: Adobe Illustrator 26.0.2, SVG Export Plug-In . SVG Version: 6.00 Build 0)  -->
<svg version="1.1" id="Calque_1" xmlns="http://www.w3.org/2000/svg" xmlns:xlink="http://www.w3.org/1999/xlink" x="0px" y="0px"
	 viewBox="0 0 1261 292" style="enable-background:new 0 0 1261 292;" xml:space="preserve">
<style type="text/css">
	.st0{fill:url(#SVGID_1_);}
	.st1{fill:url(#SVGID_00000126293088545609235820000012093422997265308581_);}
	.st2{fill:#FFFFFF;}
	.st3{fill:#333333;}
</style>
<g>
	
		<linearGradient id="SVGID_1_" gradientUnits="userSpaceOnUse" x1="2436.5" y1="-1346" x2="2436.5" y2="-1054" gradientTransform="matrix(-1 0 0 -1 3068 -1054)">
		<stop  offset="0" style="stop-color:#BBBBBB"/>
		<stop  offset="1" style="stop-color:#DCDCDC"/>
	</linearGradient>
	<path class="st0" d="M25,282c-8,0-15-7-15-15V25c0-8,7-15,15-15h1213.1c8,0,15,7,15,15v242c0,8-7,15-15,15H25z M1238,292
		c14,0,25-11,25-25V25c0-14-11-25-25-25H25C11,0,0,11,0,25v242c0,14,11,25,25,25H1238z"/>
</g>
<linearGradient id="SVGID_00000023974254628232426240000012275038039277082249_" gradientUnits="userSpaceOnUse" x1="2436.45" y1="1106" x2="2436.45" y2="834" gradientTransform="matrix(-1 0 0 1 3068 -824)">
	<stop  offset="0" style="stop-color:#E8E8E8"/>
	<stop  offset="1" style="stop-color:#F9F9F9"/>
</linearGradient>
<path style="fill:url(#SVGID_00000023974254628232426240000012275038039277082249_);" d="M25,282c-8,0-15-7-15-15V25c0-8,7-15,15-15
	h1213.1c8,0,15,7,15,15v242c0,8-7,15-15,15H25z"/>
<path class="st2" d="M213.9,147.6v16.7c0,4.6-3.7,8.4-8.4,8.4h-36.2V209c0,4.6-3.7,8.4-8.4,8.4h-16.7c-4.6,0-8.4-3.7-8.4-8.4v-36.2
	H99.6c-4.6,0-8.4-3.7-8.4-8.4v-16.8c0-4.6,3.7-8.4,8.4-8.4h36.2V103c0-4.6,3.7-8.4,8.4-8.4H161c4.6,0,8.4,3.7,8.4,8.4v36.2h36.2
	C210.2,139.3,213.9,143,213.9,147.6z"/>
<path class="st3" d="M203.9,137.6v16.7c0,4.6-3.7,8.4-8.4,8.4h-36.2V199c0,4.6-3.7,8.4-8.4,8.4h-16.7c-4.6,0-8.4-3.7-8.4-8.4v-36.2
	H89.6c-4.6,0-8.4-3.7-8.4-8.4v-16.8c0-4.6,3.7-8.4,8.4-8.4h36.2V93c0-4.6,3.7-8.4,8.4-8.4H151c4.6,0,8.4,3.7,8.4,8.4v36.2h36.2
	C200.2,129.3,203.9,133,203.9,137.6z"/>
<g>
	<path class="st2" d="M295.3,102.5c0.6,0.1,1.1,0.2,1.5,0.4c0.4,0.2,0.9,0.5,1.3,0.9c0.4,0.4,0.9,0.9,1.4,1.6l53.1,67.7
		c-0.2-1.6-0.3-3.2-0.4-4.8c-0.1-1.6-0.1-3-0.1-4.4v-61.5h16.6v101.2H359c-1.5,0-2.7-0.2-3.7-0.7c-1-0.5-1.9-1.3-2.9-2.5L299.5,133
		c0.1,1.5,0.2,3,0.3,4.4c0.1,1.5,0.1,2.8,0.1,4v62.2h-16.6V102.4h9.9C294,102.4,294.7,102.4,295.3,102.5z"/>
	<path class="st2" d="M418.8,130.7c5.4,0,10.2,0.9,14.6,2.6c4.4,1.7,8.1,4.2,11.2,7.4c3.1,3.2,5.5,7,7.1,11.6
		c1.7,4.6,2.5,9.7,2.5,15.3c0,5.7-0.8,10.8-2.5,15.4c-1.7,4.6-4.1,8.5-7.1,11.7c-3.1,3.2-6.8,5.7-11.2,7.4
		c-4.4,1.7-9.2,2.6-14.6,2.6c-5.4,0-10.2-0.9-14.6-2.6c-4.4-1.7-8.1-4.2-11.2-7.4c-3.1-3.2-5.5-7.1-7.2-11.7
		c-1.7-4.6-2.6-9.7-2.6-15.4c0-5.6,0.9-10.8,2.6-15.3c1.7-4.6,4.1-8.4,7.2-11.6c3.1-3.2,6.8-5.6,11.2-7.4
		C408.6,131.5,413.5,130.7,418.8,130.7z M418.8,191.3c6,0,10.4-2,13.3-6c2.9-4,4.3-9.9,4.3-17.6c0-7.7-1.4-13.6-4.3-17.7
		s-7.3-6.1-13.3-6.1c-6.1,0-10.5,2-13.4,6.1c-2.9,4.1-4.3,10-4.3,17.7c0,7.7,1.4,13.6,4.3,17.6C408.3,189.3,412.8,191.3,418.8,191.3
		z"/>
	<path class="st2" d="M483.6,131.8v45.6c0,4.4,1,7.8,3,10.2c2,2.4,5.1,3.6,9.1,3.6c3,0,5.8-0.7,8.4-2c2.6-1.3,5.1-3.2,7.4-5.5v-51.9
		h17.3v71.8h-10.6c-2.2,0-3.7-1-4.4-3.1l-1.2-5.7c-1.5,1.5-3,2.9-4.6,4.1c-1.6,1.2-3.3,2.3-5.1,3.1c-1.8,0.9-3.7,1.5-5.8,2
		c-2.1,0.5-4.3,0.7-6.7,0.7c-3.9,0-7.4-0.7-10.4-2c-3-1.3-5.5-3.2-7.6-5.6c-2.1-2.4-3.6-5.3-4.7-8.6c-1.1-3.3-1.6-7-1.6-11v-45.6
		H483.6z"/>
	<path class="st2" d="M583.3,203.6h-15.7l-28.6-71.8h14.4c1.3,0,2.3,0.3,3.2,0.9c0.9,0.6,1.5,1.4,1.8,2.3l13.9,38.4
		c0.8,2.2,1.5,4.4,2,6.6c0.5,2.1,1,4.3,1.4,6.4c0.4-2.1,0.9-4.3,1.4-6.4c0.5-2.1,1.2-4.3,2.1-6.6l14.2-38.4c0.3-0.9,0.9-1.7,1.8-2.3
		c0.8-0.6,1.8-0.9,3-0.9h13.7L583.3,203.6z"/>
	<path class="st2" d="M649.4,130.7c4.5,0,8.7,0.7,12.5,2.2c3.8,1.4,7.1,3.6,9.8,6.3c2.8,2.8,4.9,6.2,6.4,10.2
		c1.5,4,2.3,8.6,2.3,13.8c0,1.3-0.1,2.4-0.2,3.3c-0.1,0.9-0.3,1.5-0.6,2c-0.3,0.5-0.7,0.8-1.2,1s-1.2,0.3-2,0.3h-44.4
		c0.5,7.4,2.5,12.8,6,16.2c3.5,3.5,8,5.2,13.7,5.2c2.8,0,5.2-0.3,7.2-1c2-0.7,3.8-1.4,5.3-2.2c1.5-0.8,2.8-1.5,4-2.2
		c1.1-0.7,2.2-1,3.3-1c0.7,0,1.3,0.1,1.8,0.4c0.5,0.3,1,0.7,1.3,1.2l5,6.3c-1.9,2.2-4.1,4.1-6.4,5.6c-2.4,1.5-4.9,2.7-7.5,3.6
		c-2.6,0.9-5.2,1.6-7.9,1.9c-2.7,0.4-5.3,0.6-7.8,0.6c-5,0-9.6-0.8-13.9-2.5c-4.3-1.7-8-4.1-11.2-7.4c-3.2-3.2-5.7-7.3-7.5-12
		c-1.8-4.8-2.7-10.3-2.7-16.6c0-4.9,0.8-9.5,2.4-13.8c1.6-4.3,3.9-8.1,6.8-11.3c3-3.2,6.6-5.7,10.8-7.6
		C639.2,131.6,644,130.7,649.4,130.7z M649.8,143.1c-5,0-9,1.4-11.8,4.3c-2.8,2.8-4.7,6.9-5.5,12.1h32.5c0-2.2-0.3-4.4-0.9-6.3
		c-0.6-2-1.5-3.7-2.8-5.2c-1.3-1.5-2.8-2.7-4.8-3.5C654.6,143.5,652.3,143.1,649.8,143.1z"/>
	<path class="st2" d="M750.8,203.6h-7.8c-1.6,0-2.9-0.2-3.8-0.7c-0.9-0.5-1.6-1.5-2.1-3l-1.5-5.1c-1.8,1.6-3.6,3.1-5.4,4.3
		c-1.8,1.2-3.6,2.3-5.4,3.1c-1.9,0.8-3.9,1.5-6,1.9c-2.1,0.4-4.4,0.6-7,0.6c-3,0-5.8-0.4-8.4-1.2c-2.6-0.8-4.8-2-6.6-3.7
		c-1.8-1.6-3.3-3.7-4.3-6.1c-1-2.4-1.5-5.3-1.5-8.5c0-2.7,0.7-5.4,2.1-8c1.4-2.6,3.8-5,7.1-7.2c3.3-2.1,7.7-3.9,13.2-5.3
		c5.5-1.4,12.3-2.1,20.5-2.1v-4.2c0-4.8-1-8.4-3-10.8c-2-2.3-5-3.5-8.9-3.5c-2.8,0-5.1,0.3-7,1c-1.9,0.7-3.5,1.4-4.9,2.2
		c-1.4,0.8-2.6,1.6-3.8,2.2c-1.2,0.7-2.5,1-3.9,1c-1.2,0-2.2-0.3-3-0.9c-0.8-0.6-1.5-1.4-2-2.2l-3.1-5.5
		c8.3-7.6,18.2-11.3,29.9-11.3c4.2,0,7.9,0.7,11.2,2.1c3.3,1.4,6.1,3.3,8.4,5.7c2.3,2.5,4,5.4,5.2,8.8c1.2,3.4,1.8,7.1,1.8,11.2
		V203.6z M717.2,192.8c1.8,0,3.4-0.2,4.9-0.5c1.5-0.3,2.9-0.8,4.2-1.4s2.6-1.4,3.9-2.4c1.2-0.9,2.5-2.1,3.7-3.3v-12
		c-5,0-9.3,0.3-12.6,1s-6.1,1.4-8.2,2.4c-2.1,1-3.5,2.1-4.4,3.5c-0.9,1.3-1.3,2.7-1.3,4.3c0,3.1,0.9,5.2,2.7,6.6
		C712,192.2,714.3,192.8,717.2,192.8z"/>
	<path class="st2" d="M783.7,131.8v45.6c0,4.4,1,7.8,3,10.2c2,2.4,5.1,3.6,9.1,3.6c3,0,5.8-0.7,8.4-2c2.6-1.3,5.1-3.2,7.4-5.5v-51.9
		H829v71.8h-10.6c-2.2,0-3.7-1-4.4-3.1l-1.2-5.7c-1.5,1.5-3,2.9-4.6,4.1c-1.6,1.2-3.3,2.3-5.1,3.1c-1.8,0.9-3.7,1.5-5.8,2
		c-2.1,0.5-4.3,0.7-6.7,0.7c-3.9,0-7.4-0.7-10.4-2c-3-1.3-5.5-3.2-7.6-5.6c-2.1-2.4-3.6-5.3-4.7-8.6c-1-3.3-1.6-7-1.6-11v-45.6
		H783.7z"/>
	<path class="st2" d="M874.5,227.1v-95.3H885c1.1,0,2.1,0.3,2.9,0.8c0.8,0.5,1.3,1.3,1.5,2.4l1.4,6.6c2.9-3.3,6.2-6,10-8
		c3.8-2.1,8.2-3.1,13.2-3.1c3.9,0,7.5,0.8,10.7,2.4c3.2,1.6,6,4,8.4,7.1c2.4,3.1,4.2,6.9,5.5,11.5c1.3,4.6,1.9,9.8,1.9,15.6
		c0,5.4-0.7,10.3-2.2,14.9c-1.4,4.6-3.5,8.5-6.2,11.9c-2.7,3.4-5.9,6-9.7,7.9c-3.8,1.9-8.1,2.8-12.8,2.8c-4.1,0-7.5-0.6-10.3-1.9
		c-2.8-1.2-5.4-3-7.6-5.1v29.4H874.5z M908.1,144.1c-3.6,0-6.7,0.8-9.2,2.3c-2.5,1.5-4.9,3.7-7.1,6.4V185c2,2.4,4.1,4.1,6.4,5.1
		c2.3,1,4.8,1.4,7.5,1.4c2.6,0,5-0.5,7.1-1.5c2.1-1,3.9-2.5,5.4-4.5c1.5-2,2.6-4.5,3.4-7.6c0.8-3.1,1.2-6.7,1.2-10.8
		c0-4.2-0.3-7.8-1-10.7c-0.7-2.9-1.6-5.3-2.9-7.1s-2.8-3.1-4.6-4C912.4,144.5,910.3,144.1,908.1,144.1z"/>
	<path class="st2" d="M953.6,203.6v-71.8h10.1c1.8,0,3,0.3,3.7,1c0.7,0.7,1.2,1.8,1.4,3.4l1,8.7c2.6-4.4,5.6-7.9,9-10.5
		c3.5-2.6,7.3-3.9,11.6-3.9c3.5,0,6.5,0.8,8.8,2.4l-2.2,13c-0.1,0.8-0.4,1.4-0.9,1.8c-0.5,0.3-1.1,0.5-1.9,0.5
		c-0.7,0-1.7-0.2-2.9-0.5c-1.2-0.3-2.8-0.5-4.8-0.5c-3.6,0-6.7,1-9.2,3c-2.6,2-4.7,4.9-6.5,8.7v44.7H953.6z"/>
	<path class="st2" d="M1041.5,130.7c5.4,0,10.2,0.9,14.6,2.6c4.4,1.7,8.1,4.2,11.2,7.4c3.1,3.2,5.5,7,7.1,11.6
		c1.7,4.6,2.5,9.7,2.5,15.3c0,5.7-0.8,10.8-2.5,15.4c-1.7,4.6-4.1,8.5-7.1,11.7c-3.1,3.2-6.8,5.7-11.2,7.4
		c-4.4,1.7-9.2,2.6-14.6,2.6c-5.4,0-10.2-0.9-14.6-2.6s-8.1-4.2-11.2-7.4c-3.1-3.2-5.5-7.1-7.2-11.7c-1.7-4.6-2.6-9.7-2.6-15.4
		c0-5.6,0.9-10.8,2.6-15.3c1.7-4.6,4.1-8.4,7.2-11.6c3.1-3.2,6.8-5.6,11.2-7.4C1031.2,131.5,1036.1,130.7,1041.5,130.7z
		 M1041.5,191.3c6,0,10.4-2,13.3-6c2.9-4,4.3-9.9,4.3-17.6c0-7.7-1.4-13.6-4.3-17.7s-7.3-6.1-13.3-6.1c-6.1,0-10.5,2-13.4,6.1
		c-2.9,4.1-4.3,10-4.3,17.7c0,7.7,1.4,13.6,4.3,17.6C1030.9,189.3,1035.4,191.3,1041.5,191.3z"/>
	<path class="st2" d="M1093.5,203.6v-58.8l-6.2-1c-1.4-0.2-2.4-0.7-3.3-1.4c-0.8-0.7-1.2-1.7-1.2-2.9v-7.1h10.7v-2.3
		c0-4.4,0.7-8.5,2.2-12.2c1.4-3.8,3.6-7,6.6-9.8c2.9-2.8,6.6-4.9,11.1-6.5c4.5-1.6,9.8-2.3,15.9-2.3c2,0,4,0.1,6,0.3
		c2.1,0.2,3.8,0.5,5.3,1l-0.6,9c-0.1,1.1-0.7,1.7-1.8,1.9c-1.1,0.2-2.4,0.3-4,0.3c-4.5,0-8.3,0.4-11.4,1.2c-3.1,0.8-5.5,2-7.4,3.5
		c-1.9,1.6-3.2,3.5-4.1,5.9c-0.8,2.4-1.2,5.1-1.2,8.2v1.8h44.5v71.2h-17.3v-58.9h-26.7v58.9H1093.5z"/>
	<path class="st2" d="M1193,99.6v104h-17.3v-104H1193z"/>
</g>
<g>
	<path class="st3" d="M285.3,92.5c0.6,0.1,1.1,0.2,1.5,0.4c0.4,0.2,0.9,0.5,1.3,0.9c0.4,0.4,0.9,0.9,1.4,1.6l53.1,67.7
		c-0.2-1.6-0.3-3.2-0.4-4.8c-0.1-1.6-0.1-3-0.1-4.4V92.4h16.6v101.2H349c-1.5,0-2.7-0.2-3.7-0.7c-1-0.5-1.9-1.3-2.9-2.5L289.5,123
		c0.1,1.5,0.2,3,0.3,4.4c0.1,1.5,0.1,2.8,0.1,4v62.2h-16.6V92.4h9.9C284,92.4,284.7,92.4,285.3,92.5z"/>
	<path class="st3" d="M408.8,120.7c5.4,0,10.2,0.9,14.6,2.6c4.4,1.7,8.1,4.2,11.2,7.3c3.1,3.2,5.5,7,7.1,11.6
		c1.7,4.6,2.5,9.7,2.5,15.3c0,5.7-0.8,10.8-2.5,15.4c-1.7,4.6-4.1,8.5-7.1,11.7s-6.8,5.7-11.2,7.4c-4.4,1.7-9.2,2.6-14.6,2.6
		c-5.4,0-10.2-0.9-14.6-2.6c-4.4-1.7-8.1-4.2-11.2-7.4c-3.1-3.2-5.5-7.1-7.2-11.7c-1.7-4.6-2.6-9.7-2.6-15.4
		c0-5.6,0.9-10.8,2.6-15.3c1.7-4.6,4.1-8.4,7.2-11.6c3.1-3.2,6.8-5.6,11.2-7.3C398.6,121.5,403.5,120.7,408.8,120.7z M408.8,181.3
		c6,0,10.4-2,13.3-6s4.3-9.9,4.3-17.6c0-7.7-1.4-13.7-4.3-17.7s-7.3-6.1-13.3-6.1c-6.1,0-10.5,2-13.4,6.1c-2.9,4.1-4.3,10-4.3,17.7
		c0,7.7,1.4,13.6,4.3,17.6C398.3,179.3,402.8,181.3,408.8,181.3z"/>
	<path class="st3" d="M473.6,121.8v45.6c0,4.4,1,7.8,3,10.2c2,2.4,5.1,3.6,9.1,3.6c3,0,5.8-0.7,8.4-2c2.6-1.3,5.1-3.2,7.4-5.5v-51.9
		h17.3v71.8h-10.6c-2.2,0-3.7-1-4.4-3.2l-1.2-5.7c-1.5,1.5-3,2.9-4.6,4.1c-1.6,1.2-3.3,2.3-5.1,3.2s-3.7,1.5-5.8,2
		c-2.1,0.5-4.3,0.7-6.7,0.7c-3.9,0-7.4-0.7-10.4-2c-3-1.3-5.5-3.2-7.6-5.6c-2.1-2.4-3.6-5.3-4.7-8.6c-1.1-3.3-1.6-7-1.6-11v-45.6
		H473.6z"/>
	<path class="st3" d="M573.3,193.6h-15.7l-28.6-71.8h14.4c1.3,0,2.3,0.3,3.2,0.9c0.9,0.6,1.5,1.4,1.8,2.3l13.9,38.4
		c0.8,2.2,1.5,4.4,2,6.6s1,4.3,1.4,6.4c0.4-2.1,0.9-4.3,1.4-6.4c0.5-2.1,1.2-4.3,2.1-6.6l14.2-38.4c0.3-0.9,0.9-1.7,1.8-2.3
		c0.8-0.6,1.8-0.9,3-0.9h13.7L573.3,193.6z"/>
	<path class="st3" d="M639.4,120.7c4.5,0,8.7,0.7,12.5,2.2c3.8,1.4,7.1,3.6,9.8,6.3c2.8,2.8,4.9,6.2,6.4,10.2
		c1.5,4,2.3,8.6,2.3,13.8c0,1.3-0.1,2.4-0.2,3.3c-0.1,0.9-0.3,1.5-0.6,2c-0.3,0.5-0.7,0.8-1.2,1.1c-0.5,0.2-1.2,0.3-2,0.3h-44.4
		c0.5,7.4,2.5,12.8,5.9,16.2c3.5,3.5,8,5.2,13.7,5.2c2.8,0,5.2-0.3,7.2-1c2-0.7,3.8-1.4,5.3-2.2c1.5-0.8,2.8-1.5,4-2.2
		c1.1-0.7,2.2-1,3.3-1c0.7,0,1.3,0.1,1.8,0.4s1,0.7,1.3,1.2l5,6.3c-1.9,2.2-4.1,4.1-6.4,5.6c-2.4,1.5-4.9,2.7-7.5,3.6
		c-2.6,0.9-5.2,1.6-7.9,1.9c-2.7,0.4-5.3,0.6-7.8,0.6c-5,0-9.6-0.8-13.9-2.5c-4.3-1.7-8-4.1-11.2-7.3c-3.2-3.2-5.7-7.3-7.5-12
		c-1.8-4.8-2.7-10.3-2.7-16.6c0-4.9,0.8-9.5,2.4-13.8c1.6-4.3,3.9-8.1,6.8-11.3c3-3.2,6.6-5.7,10.8-7.6
		C629.2,121.6,634,120.7,639.4,120.7z M639.8,133.1c-5,0-9,1.4-11.8,4.3c-2.8,2.8-4.7,6.9-5.5,12.1h32.5c0-2.2-0.3-4.4-0.9-6.3
		c-0.6-2-1.5-3.7-2.8-5.2c-1.3-1.5-2.8-2.7-4.8-3.5C644.6,133.5,642.3,133.1,639.8,133.1z"/>
	<path class="st3" d="M740.8,193.6h-7.8c-1.6,0-2.9-0.2-3.8-0.7c-0.9-0.5-1.6-1.5-2.1-3l-1.5-5.1c-1.8,1.6-3.6,3.1-5.4,4.3
		c-1.8,1.2-3.6,2.3-5.4,3.1c-1.9,0.8-3.8,1.5-5.9,1.9c-2.1,0.4-4.4,0.6-7,0.6c-3,0-5.8-0.4-8.4-1.2c-2.6-0.8-4.8-2-6.6-3.7
		s-3.3-3.7-4.3-6.1c-1-2.4-1.5-5.3-1.5-8.5c0-2.7,0.7-5.4,2.1-8c1.4-2.6,3.8-5,7.1-7.2c3.3-2.1,7.7-3.9,13.2-5.3
		c5.5-1.4,12.3-2.1,20.5-2.1v-4.2c0-4.8-1-8.4-3-10.8s-5-3.5-8.9-3.5c-2.8,0-5.1,0.3-7,1c-1.9,0.7-3.5,1.4-4.9,2.2s-2.6,1.6-3.8,2.2
		c-1.2,0.7-2.4,1-3.8,1c-1.2,0-2.2-0.3-3-0.9s-1.5-1.4-2-2.2l-3.1-5.5c8.3-7.6,18.2-11.3,29.9-11.3c4.2,0,7.9,0.7,11.2,2.1
		c3.3,1.4,6.1,3.3,8.4,5.7c2.3,2.5,4,5.4,5.2,8.8c1.2,3.4,1.8,7.1,1.8,11.2V193.6z M707.2,182.8c1.8,0,3.4-0.2,4.9-0.5
		c1.5-0.3,2.9-0.8,4.2-1.4c1.3-0.6,2.6-1.4,3.9-2.4c1.2-0.9,2.5-2.1,3.7-3.3v-12c-5,0-9.3,0.3-12.6,1c-3.4,0.6-6.1,1.4-8.2,2.4
		c-2.1,1-3.5,2.1-4.4,3.5c-0.9,1.3-1.3,2.7-1.3,4.3c0,3.1,0.9,5.2,2.7,6.6S704.3,182.8,707.2,182.8z"/>
	<path class="st3" d="M773.7,121.8v45.6c0,4.4,1,7.8,3,10.2c2,2.4,5.1,3.6,9.1,3.6c3,0,5.8-0.7,8.4-2s5.1-3.2,7.4-5.5v-51.9H819
		v71.8h-10.6c-2.2,0-3.7-1-4.4-3.2l-1.2-5.7c-1.5,1.5-3,2.9-4.6,4.1c-1.6,1.2-3.3,2.3-5.1,3.2c-1.8,0.9-3.7,1.5-5.8,2
		c-2.1,0.5-4.3,0.7-6.7,0.7c-3.9,0-7.4-0.7-10.4-2s-5.5-3.2-7.6-5.6c-2.1-2.4-3.6-5.3-4.7-8.6c-1.1-3.3-1.6-7-1.6-11v-45.6H773.7z"
		/>
	<path class="st3" d="M864.5,217.1v-95.3H875c1.1,0,2.1,0.3,2.9,0.8c0.8,0.5,1.3,1.3,1.5,2.4l1.4,6.7c2.9-3.3,6.2-6,10-8.1
		c3.8-2.1,8.2-3.1,13.2-3.1c3.9,0,7.5,0.8,10.7,2.5c3.2,1.6,6,4,8.4,7.1c2.4,3.1,4.2,6.9,5.5,11.5c1.3,4.6,1.9,9.8,1.9,15.6
		c0,5.4-0.7,10.3-2.2,14.9c-1.4,4.6-3.5,8.5-6.2,11.9c-2.7,3.4-5.9,6-9.7,7.9c-3.8,1.9-8.1,2.8-12.8,2.8c-4.1,0-7.5-0.6-10.3-1.9
		s-5.4-3-7.6-5.1v29.4H864.5z M898.1,134.1c-3.6,0-6.7,0.8-9.2,2.3c-2.5,1.5-4.9,3.7-7.1,6.4V175c2,2.4,4.1,4.1,6.4,5.1
		c2.3,1,4.8,1.4,7.5,1.4c2.6,0,5-0.5,7.1-1.5c2.1-1,3.9-2.5,5.4-4.5c1.5-2,2.6-4.5,3.4-7.6c0.8-3.1,1.2-6.7,1.2-10.8
		c0-4.2-0.3-7.8-1-10.7s-1.6-5.3-2.9-7.1s-2.8-3.2-4.6-4S900.3,134.1,898.1,134.1z"/>
	<path class="st3" d="M943.6,193.6v-71.8h10.2c1.8,0,3,0.3,3.7,1c0.7,0.7,1.2,1.8,1.4,3.4l1.1,8.7c2.6-4.4,5.6-7.9,9-10.5
		c3.5-2.6,7.3-3.9,11.6-3.9c3.5,0,6.5,0.8,8.8,2.5l-2.2,13c-0.1,0.8-0.4,1.4-0.9,1.8c-0.5,0.3-1.1,0.5-1.9,0.5
		c-0.7,0-1.7-0.2-2.9-0.5c-1.2-0.3-2.8-0.5-4.8-0.5c-3.6,0-6.7,1-9.2,3c-2.6,2-4.7,4.9-6.5,8.7v44.7H943.6z"/>
	<path class="st3" d="M1031.5,120.7c5.4,0,10.2,0.9,14.6,2.6c4.4,1.7,8.1,4.2,11.2,7.3c3.1,3.2,5.5,7,7.1,11.6s2.5,9.7,2.5,15.3
		c0,5.7-0.8,10.8-2.5,15.4c-1.7,4.6-4.1,8.5-7.1,11.7s-6.8,5.7-11.2,7.4c-4.4,1.7-9.2,2.6-14.6,2.6c-5.4,0-10.2-0.9-14.6-2.6
		s-8.1-4.2-11.2-7.4s-5.5-7.1-7.2-11.7c-1.7-4.6-2.6-9.7-2.6-15.4c0-5.6,0.9-10.8,2.6-15.3c1.7-4.6,4.1-8.4,7.2-11.6
		c3.1-3.2,6.8-5.6,11.2-7.3S1026.1,120.7,1031.5,120.7z M1031.5,181.3c6,0,10.4-2,13.3-6c2.9-4,4.3-9.9,4.3-17.6
		c0-7.7-1.4-13.7-4.3-17.7c-2.9-4.1-7.3-6.1-13.3-6.1c-6.1,0-10.5,2-13.4,6.1c-2.9,4.1-4.3,10-4.3,17.7c0,7.7,1.4,13.6,4.3,17.6
		C1020.9,179.3,1025.4,181.3,1031.5,181.3z"/>
	<path class="st3" d="M1083.5,193.6v-58.8l-6.2-1c-1.4-0.2-2.4-0.7-3.3-1.4c-0.8-0.7-1.2-1.7-1.2-2.9v-7.1h10.7v-2.3
		c0-4.4,0.7-8.5,2.2-12.2c1.4-3.8,3.6-7,6.6-9.8c2.9-2.8,6.7-4.9,11.1-6.5c4.5-1.6,9.8-2.3,15.9-2.3c2,0,4,0.1,6,0.3
		c2.1,0.2,3.8,0.5,5.3,1l-0.6,9c-0.1,1.1-0.7,1.7-1.8,1.9c-1.1,0.2-2.4,0.3-4,0.3c-4.5,0-8.3,0.4-11.4,1.2c-3.1,0.8-5.5,2-7.4,3.5
		c-1.9,1.6-3.2,3.5-4.1,5.9s-1.2,5.1-1.2,8.2v1.8h44.5v71.2h-17.3v-58.9h-26.7v58.9H1083.5z"/>
	<path class="st3" d="M1183,89.6v104h-17.3v-104H1183z"/>
</g>
</svg>
