<?xml version="1.0" encoding="utf-8"?>
<!-- Generator: Adobe Illustrator 26.5.0, SVG Export Plug-In . SVG Version: 6.00 Build 0)  -->
<svg version="1.1" id="Calque_1" xmlns="http://www.w3.org/2000/svg" xmlns:xlink="http://www.w3.org/1999/xlink" x="0px" y="0px"
	 viewBox="0 0 1142.9 1000" style="enable-background:new 0 0 1142.9 1000;" xml:space="preserve">
<style type="text/css">
	.st0{fill:#C3E0C6;}
</style>
<path class="st0" d="M1142.9,857.1v71.5H0V71.4h71.4v785.7L1142.9,857.1L1142.9,857.1z M1071.4,160.7v242.8
	c0,15.6-18.9,24-30.7,12.2l-67.5-67.5L620,701.5c-7.3,7.2-18.4,7.2-25.7,0l-130-130.1L232.1,803.6L125,696.4L451.5,370
	c7.2-7.3,18.4-7.3,25.6,0l130,130l259-258.9l-67.6-67.6c-11.7-11.7-3.3-30.6,12.3-30.6h242.8
	C1063.6,142.9,1071.4,150.7,1071.4,160.7L1071.4,160.7z"/>
</svg>
