<?xml version="1.0" encoding="utf-8"?>
<!-- Generator: Adobe Illustrator 26.0.2, SVG Export Plug-In . SVG Version: 6.00 Build 0)  -->
<svg version="1.1" id="Calque_1" xmlns="http://www.w3.org/2000/svg" xmlns:xlink="http://www.w3.org/1999/xlink" x="0px" y="0px"
	 viewBox="0 0 500 909" style="enable-background:new 0 0 500 909;" xml:space="preserve">
<style type="text/css">
	.st0{fill:#487BD4;}
</style>
<g>
	<path class="st0" d="M-170.3-53.1l-54.3-26.2c-17.5-8.1-26.2-20.9-26.2-38.4c0-10.6,3.1-21.2,9.4-31.8l148.8-244.4
		c8.1-15,16.5-26.2,25.3-33.7c-7.5-6.9-15.9-18.4-25.3-34.6l-148.8-244.4c-6.3-10.6-9.4-21.2-9.4-31.8c0-17.5,8.7-30.2,26.2-38.4
		l54.3-26.2l233,364.2v21.6L-170.3-53.1z M339.8-438.8v21.6L106.7-53.1L52.4-79.3c-17.5-8.1-26.2-20.9-26.2-38.4
		c0-10.6,3.1-21.2,9.3-31.8l148.8-244.4c8.1-15,16.5-26.2,25.3-33.7c-7.5-6.9-15.9-18.4-25.3-34.6L35.6-706.6
		c-6.2-10.6-9.3-21.2-9.3-31.8c0-17.5,8.7-30.2,26.2-38.4l54.3-26.2L339.8-438.8z"/>
</g>
<g>
	<path class="st0" d="M68.1,771.9l-46-22.2C7.4,742.9,0,732.1,0,717.3c0-9,2.6-18,7.9-27l126-206.9c6.9-12.7,14-22.2,21.4-28.5
		c-6.3-5.8-13.5-15.6-21.4-29.3L7.9,218.7c-5.3-9-7.9-18-7.9-27c0-14.8,7.4-25.6,22.2-32.5l46-22.2l197.3,308.3v18.2L68.1,771.9z
		 M500,445.4v18.2L302.7,771.9l-46-22.2c-14.8-6.9-22.2-17.7-22.2-32.5c0-9,2.6-18,7.9-27l126-206.9c6.9-12.7,14-22.2,21.4-28.5
		c-6.3-5.8-13.5-15.6-21.4-29.3l-126-206.9c-5.3-9-7.9-18-7.9-27c0-14.8,7.4-25.6,22.2-32.5l46-22.2L500,445.4z"/>
</g>
</svg>
