<?xml version="1.0" encoding="utf-8"?>
<!-- Generator: Adobe Illustrator 24.3.0, SVG Export Plug-In . SVG Version: 6.00 Build 0)  -->
<svg version="1.1" id="Calque_1" xmlns="http://www.w3.org/2000/svg" xmlns:xlink="http://www.w3.org/1999/xlink" x="0px" y="0px"
	 viewBox="0 0 843.4 292" style="enable-background:new 0 0 843.4 292;" xml:space="preserve">
<style type="text/css">
	.st0{fill:url(#SVGID_1_);}
	.st1{fill:url(#SVGID_2_);}
	.st2{fill:#FFFFFF;}
	.st3{fill:#333333;}
</style>
<g>
	
		<linearGradient id="SVGID_1_" gradientUnits="userSpaceOnUse" x1="2528.3" y1="-1140" x2="2528.3" y2="-848" gradientTransform="matrix(-1 0 0 -1 2950 -848)">
		<stop  offset="0" style="stop-color:#BBBBBB"/>
		<stop  offset="1" style="stop-color:#DCDCDC"/>
	</linearGradient>
	<path class="st0" d="M25,282c-8,0-15-7-15-15V25c0-8,7-15,15-15h793.5c8,0,15,7,15,15v242c0,8-7,15-15,15H25z M818.4,292
		c14,0,25-11,25-25V25c0-14-11-25-25-25H25C11,0,0,11,0,25v242c0,14,11,25,25,25H818.4z"/>
</g>
<linearGradient id="SVGID_2_" gradientUnits="userSpaceOnUse" x1="2528.25" y1="900" x2="2528.25" y2="628" gradientTransform="matrix(-1 0 0 1 2950 -618)">
	<stop  offset="0" style="stop-color:#E8E8E8"/>
	<stop  offset="1" style="stop-color:#F9F9F9"/>
</linearGradient>
<path class="st1" d="M25,282c-8,0-15-7-15-15V25c0-8,7-15,15-15h793.5c8,0,15,7,15,15v242c0,8-7,15-15,15H25z"/>
<path class="st2" d="M175.5,156c0-12.7-10.3-23-23-23s-23,10.3-23,23s10.3,23,23,23S175.5,168.7,175.5,156L175.5,156z M221.5,146.2
	v19.9c0,1.3-1.1,3-2.5,3.2l-16.6,2.5c-1,2.9-2.1,5.6-3.5,8.2c3.1,4.4,6.3,8.4,9.6,12.4c0.5,0.6,0.9,1.4,0.9,2.2s-0.3,1.4-0.8,2.1
	c-2.2,2.9-14.3,16.1-17.3,16.1c-0.8,0-1.6-0.4-2.3-0.8l-12.4-9.7c-2.6,1.4-5.4,2.5-8.2,3.4c-0.6,5.5-1.2,11.3-2.6,16.7
	c-0.4,1.4-1.6,2.5-3.2,2.5h-19.9c-1.6,0-3-1.2-3.2-2.7l-2.5-16.5c-2.8-0.9-5.5-2-8.1-3.3l-12.7,9.6c-0.6,0.5-1.4,0.8-2.2,0.8
	s-1.6-0.4-2.3-1c-4.8-4.3-11-9.9-14.8-15.1c-0.5-0.6-0.6-1.3-0.6-2.1s0.3-1.4,0.7-2.1c3.1-4.1,6.4-8.1,9.4-12.3
	c-1.5-2.9-2.8-5.8-3.7-8.9L86.2,169c-1.5-0.3-2.6-1.7-2.6-3.2v-19.9c0-1.3,1.1-3,2.4-3.2l16.7-2.5c0.9-2.9,2.1-5.6,3.5-8.3
	c-3-4.3-6.3-8.4-9.6-12.4c-0.5-0.6-0.9-1.4-0.9-2.2s0.4-1.4,0.8-2.1c2.1-3,14.3-16.1,17.3-16.1c0.8,0,1.6,0.4,2.3,0.9l12.4,9.6
	c2.6-1.4,5.4-2.5,8.2-3.4c0.6-5.5,1.2-11.3,2.6-16.7c0.4-1.4,1.6-2.5,3.2-2.5h19.9c1.6,0,3.1,1.2,3.2,2.7l2.5,16.5
	c2.8,0.9,5.5,2,8.1,3.3l12.8-9.6c0.5-0.5,1.4-0.8,2.2-0.8s1.6,0.4,2.2,0.9c4.8,4.4,11.1,10,14.8,15.3c0.5,0.5,0.6,1.3,0.6,2
	c0,0.8-0.3,1.4-0.7,2.1c-3.1,4.1-6.4,8.1-9.4,12.3c1.5,2.9,2.8,5.8,3.7,8.8L219,143C220.5,143.2,221.5,144.7,221.5,146.2
	L221.5,146.2z"/>
<path class="st3" d="M165.5,146c0-12.7-10.3-23-23-23s-23,10.3-23,23s10.3,23,23,23S165.5,158.7,165.5,146L165.5,146z M211.5,136.2
	v19.9c0,1.3-1.1,3-2.5,3.2l-16.6,2.5c-1,2.9-2.1,5.6-3.5,8.2c3.1,4.4,6.3,8.4,9.6,12.4c0.5,0.6,0.9,1.4,0.9,2.2s-0.3,1.4-0.8,2.1
	c-2.2,2.9-14.3,16.1-17.3,16.1c-0.8,0-1.6-0.4-2.3-0.8l-12.4-9.7c-2.6,1.4-5.4,2.5-8.2,3.4c-0.6,5.5-1.2,11.3-2.6,16.7
	c-0.4,1.4-1.6,2.5-3.2,2.5h-19.9c-1.6,0-3-1.2-3.2-2.7l-2.5-16.5c-2.8-0.9-5.5-2-8.1-3.3l-12.7,9.6c-0.6,0.5-1.4,0.8-2.2,0.8
	s-1.6-0.4-2.3-1c-4.8-4.3-11-9.9-14.8-15.1c-0.5-0.6-0.6-1.3-0.6-2.1s0.3-1.4,0.7-2.1c3.1-4.1,6.4-8.1,9.4-12.3
	c-1.5-2.9-2.8-5.8-3.7-8.9L76.2,159c-1.5-0.3-2.6-1.7-2.6-3.2v-19.9c0-1.3,1.1-3,2.4-3.2l16.7-2.5c0.9-2.9,2.1-5.6,3.5-8.3
	c-3-4.3-6.3-8.4-9.6-12.4c-0.5-0.6-0.9-1.4-0.9-2.2s0.4-1.4,0.8-2.1c2.1-3,14.3-16.1,17.3-16.1c0.8,0,1.6,0.4,2.3,0.9l12.4,9.6
	c2.6-1.4,5.4-2.5,8.2-3.4c0.6-5.5,1.2-11.3,2.6-16.7c0.4-1.4,1.6-2.5,3.2-2.5h19.9c1.6,0,3.1,1.2,3.2,2.7l2.5,16.5
	c2.8,0.9,5.5,2,8.1,3.3l12.8-9.6c0.5-0.5,1.4-0.8,2.2-0.8s1.6,0.4,2.2,0.9c4.8,4.4,11.1,10,14.8,15.3c0.5,0.5,0.6,1.3,0.6,2
	c0,0.8-0.3,1.4-0.7,2.1c-3.1,4.1-6.4,8.1-9.4,12.3c1.5,2.9,2.8,5.8,3.7,8.8L209,133C210.5,133.2,211.5,134.7,211.5,136.2
	L211.5,136.2z"/>
<g>
	<path class="st2" d="M302.1,164.1v39.5h-18.8V102.4h30.9c6.9,0,12.8,0.7,17.7,2.1c4.9,1.4,9,3.4,12.1,6c3.1,2.6,5.5,5.6,6.9,9.2
		c1.5,3.6,2.2,7.5,2.2,11.8c0,3.4-0.5,6.6-1.5,9.7c-1,3-2.5,5.8-4.3,8.3c-1.9,2.5-4.2,4.6-7,6.5c-2.8,1.9-5.9,3.4-9.5,4.5
		c2.4,1.4,4.4,3.3,6.2,5.8l25.3,37.4h-16.9c-1.6,0-3-0.3-4.2-1c-1.1-0.7-2.1-1.6-2.9-2.8L317,167.4c-0.8-1.2-1.7-2.1-2.6-2.6
		c-1-0.5-2.4-0.8-4.2-0.8H302.1z M302.1,150.5h11.8c3.5,0,6.6-0.4,9.3-1.3c2.6-0.9,4.8-2.1,6.5-3.7c1.7-1.6,3-3.4,3.8-5.6
		c0.8-2.1,1.3-4.5,1.3-7.1c0-5.1-1.7-9.1-5.1-11.8c-3.4-2.8-8.6-4.1-15.5-4.1h-12V150.5z"/>
	<path class="st2" d="M403.1,130.7c4.5,0,8.7,0.7,12.5,2.2c3.8,1.4,7.1,3.6,9.8,6.3c2.8,2.8,4.9,6.2,6.4,10.2
		c1.5,4,2.3,8.6,2.3,13.8c0,1.3-0.1,2.4-0.2,3.3c-0.1,0.9-0.3,1.5-0.6,2c-0.3,0.5-0.7,0.8-1.2,1c-0.5,0.2-1.2,0.3-2,0.3h-44.4
		c0.5,7.4,2.5,12.8,6,16.2c3.5,3.5,8,5.2,13.7,5.2c2.8,0,5.2-0.3,7.2-1c2-0.7,3.8-1.4,5.3-2.2c1.5-0.8,2.8-1.5,4-2.2
		c1.1-0.7,2.3-1,3.3-1c0.7,0,1.3,0.1,1.8,0.4c0.5,0.3,1,0.7,1.3,1.2l5,6.3c-1.9,2.2-4.1,4.1-6.4,5.6c-2.4,1.5-4.9,2.7-7.5,3.6
		c-2.6,0.9-5.2,1.6-7.9,1.9c-2.7,0.4-5.3,0.6-7.8,0.6c-5,0-9.6-0.8-13.9-2.5c-4.3-1.7-8-4.1-11.2-7.4c-3.2-3.2-5.7-7.3-7.5-12
		c-1.8-4.8-2.7-10.3-2.7-16.6c0-4.9,0.8-9.5,2.4-13.8c1.6-4.3,3.9-8.1,6.8-11.3c3-3.2,6.6-5.7,10.8-7.6
		C392.9,131.6,397.7,130.7,403.1,130.7z M403.4,143.1c-5,0-9,1.4-11.8,4.3c-2.8,2.8-4.7,6.9-5.5,12.1h32.5c0-2.2-0.3-4.4-0.9-6.3
		c-0.6-2-1.5-3.7-2.8-5.2c-1.3-1.5-2.8-2.7-4.8-3.5C408.2,143.5,406,143.1,403.4,143.1z"/>
	<path class="st2" d="M451.3,203.6v-58.8l-6.2-1c-1.4-0.2-2.4-0.7-3.3-1.4c-0.8-0.7-1.2-1.7-1.2-2.9v-7.1h10.7v-3
		c0-3.8,0.6-7.5,1.8-11s3-6.6,5.5-9.3c2.5-2.7,5.6-4.8,9.4-6.4c3.8-1.6,8.3-2.4,13.4-2.4c4.2,0,8.3,0.1,12.1,0.4
		c3.8,0.3,7.6,0.4,11.4,0.4h9.7v102.5h-17.2v-90.7c-2.5,0-4.9,0-7.2,0c-2.4,0-4.4,0-6,0c-5.2,0-9.2,1.4-12,4.3
		c-2.8,2.9-4.1,7-4.1,12.2v3h17v12.3h-16.5v58.9H451.3z"/>
	<path class="st2" d="M564.3,130.7c4.5,0,8.7,0.7,12.5,2.2c3.8,1.4,7.1,3.6,9.8,6.3c2.8,2.8,4.9,6.2,6.4,10.2
		c1.5,4,2.3,8.6,2.3,13.8c0,1.3-0.1,2.4-0.2,3.3c-0.1,0.9-0.3,1.5-0.6,2c-0.3,0.5-0.7,0.8-1.2,1c-0.5,0.2-1.2,0.3-2,0.3H547
		c0.5,7.4,2.5,12.8,6,16.2c3.5,3.5,8,5.2,13.7,5.2c2.8,0,5.2-0.3,7.2-1c2-0.7,3.8-1.4,5.3-2.2c1.5-0.8,2.8-1.5,4-2.2
		c1.1-0.7,2.3-1,3.3-1c0.7,0,1.3,0.1,1.8,0.4c0.5,0.3,1,0.7,1.3,1.2l5,6.3c-1.9,2.2-4.1,4.1-6.4,5.6c-2.4,1.5-4.9,2.7-7.5,3.6
		c-2.6,0.9-5.2,1.6-7.9,1.9c-2.7,0.4-5.3,0.6-7.8,0.6c-5,0-9.6-0.8-13.9-2.5c-4.3-1.7-8-4.1-11.2-7.4c-3.2-3.2-5.7-7.3-7.5-12
		c-1.8-4.8-2.7-10.3-2.7-16.6c0-4.9,0.8-9.5,2.4-13.8c1.6-4.3,3.9-8.1,6.8-11.3c3-3.2,6.6-5.7,10.8-7.6
		C554.1,131.6,558.9,130.7,564.3,130.7z M564.6,143.1c-5,0-9,1.4-11.8,4.3c-2.8,2.8-4.7,6.9-5.5,12.1h32.5c0-2.2-0.3-4.4-0.9-6.3
		c-0.6-2-1.5-3.7-2.8-5.2c-1.3-1.5-2.8-2.7-4.8-3.5C569.4,143.5,567.2,143.1,564.6,143.1z M588.9,101.3l-17.3,18.3
		c-0.9,0.9-1.7,1.6-2.6,1.9c-0.8,0.4-1.9,0.5-3.2,0.5h-10.4l9.9-17c0.7-1.2,1.5-2.1,2.5-2.8c0.9-0.6,2.3-0.9,4.2-0.9H588.9z"/>
	<path class="st2" d="M633,204.7c-6.2,0-11-1.8-14.4-5.3c-3.4-3.5-5-8.4-5-14.6v-40.1h-7.3c-0.9,0-1.7-0.3-2.4-0.9
		c-0.7-0.6-1-1.5-1-2.7v-6.9l11.5-1.9l3.6-19.6c0.2-0.9,0.6-1.7,1.3-2.2c0.7-0.5,1.5-0.8,2.6-0.8h9v22.6h18.9v12.3h-18.9v38.9
		c0,2.2,0.6,4,1.7,5.2c1.1,1.3,2.6,1.9,4.5,1.9c1.1,0,2-0.1,2.7-0.4c0.7-0.3,1.4-0.5,1.9-0.8c0.5-0.3,1-0.5,1.4-0.8
		c0.4-0.3,0.8-0.4,1.3-0.4c0.5,0,0.9,0.1,1.3,0.4c0.3,0.3,0.7,0.6,1.1,1.2l5.2,8.4c-2.5,2.1-5.4,3.7-8.7,4.8
		C639.9,204.2,636.5,204.7,633,204.7z"/>
	<path class="st2" d="M693.3,130.7c4.5,0,8.7,0.7,12.5,2.2c3.8,1.4,7.1,3.6,9.8,6.3c2.8,2.8,4.9,6.2,6.4,10.2
		c1.5,4,2.3,8.6,2.3,13.8c0,1.3-0.1,2.4-0.2,3.3c-0.1,0.9-0.3,1.5-0.6,2c-0.3,0.5-0.7,0.8-1.2,1s-1.2,0.3-2,0.3H676
		c0.5,7.4,2.5,12.8,6,16.2c3.5,3.5,8,5.2,13.7,5.2c2.8,0,5.2-0.3,7.2-1c2-0.7,3.8-1.4,5.3-2.2c1.5-0.8,2.8-1.5,4-2.2
		c1.1-0.7,2.2-1,3.3-1c0.7,0,1.3,0.1,1.8,0.4c0.5,0.3,1,0.7,1.3,1.2l5,6.3c-1.9,2.2-4.1,4.1-6.4,5.6c-2.4,1.5-4.9,2.7-7.5,3.6
		c-2.6,0.9-5.2,1.6-7.9,1.9c-2.7,0.4-5.3,0.6-7.8,0.6c-5,0-9.6-0.8-13.9-2.5c-4.3-1.7-8-4.1-11.2-7.4c-3.2-3.2-5.7-7.3-7.5-12
		c-1.8-4.8-2.7-10.3-2.7-16.6c0-4.9,0.8-9.5,2.4-13.8c1.6-4.3,3.9-8.1,6.8-11.3c3-3.2,6.6-5.7,10.8-7.6
		C683.1,131.6,687.9,130.7,693.3,130.7z M693.6,143.1c-5,0-9,1.4-11.8,4.3c-2.8,2.8-4.7,6.9-5.5,12.1h32.5c0-2.2-0.3-4.4-0.9-6.3
		c-0.6-2-1.5-3.7-2.8-5.2c-1.3-1.5-2.8-2.7-4.8-3.5C698.4,143.5,696.2,143.1,693.6,143.1z"/>
	<path class="st2" d="M738.4,203.6v-71.8h10.1c1.8,0,3,0.3,3.7,1c0.7,0.7,1.2,1.8,1.4,3.4l1,8.7c2.6-4.4,5.6-7.9,9-10.5
		c3.5-2.6,7.3-3.9,11.6-3.9c3.5,0,6.5,0.8,8.8,2.4l-2.2,13c-0.1,0.8-0.4,1.4-0.9,1.8c-0.5,0.3-1.1,0.5-1.9,0.5
		c-0.7,0-1.7-0.2-2.9-0.5c-1.2-0.3-2.8-0.5-4.8-0.5c-3.6,0-6.7,1-9.2,3c-2.6,2-4.7,4.9-6.5,8.7v44.7H738.4z"/>
</g>
<g>
	<path class="st3" d="M292.1,154.1v39.5h-18.8V92.4h30.9c6.9,0,12.8,0.7,17.7,2.1c4.9,1.4,9,3.4,12.1,6c3.1,2.6,5.5,5.6,6.9,9.2
		c1.5,3.6,2.2,7.5,2.2,11.8c0,3.4-0.5,6.6-1.5,9.7c-1,3-2.5,5.8-4.3,8.3c-1.9,2.5-4.2,4.6-7,6.5c-2.8,1.9-5.9,3.4-9.5,4.5
		c2.4,1.4,4.4,3.3,6.2,5.8l25.3,37.4h-16.9c-1.6,0-3-0.3-4.2-1c-1.1-0.7-2.1-1.6-2.9-2.8L307,157.4c-0.8-1.2-1.7-2.1-2.6-2.6
		c-1-0.5-2.4-0.8-4.2-0.8H292.1z M292.1,140.5h11.8c3.5,0,6.6-0.4,9.3-1.3c2.6-0.9,4.8-2.1,6.5-3.7c1.7-1.6,3-3.4,3.8-5.6
		c0.8-2.1,1.3-4.5,1.3-7.1c0-5.1-1.7-9.1-5.1-11.8c-3.4-2.8-8.6-4.1-15.5-4.1h-12V140.5z"/>
	<path class="st3" d="M393.1,120.7c4.5,0,8.7,0.7,12.5,2.2c3.8,1.4,7.1,3.6,9.8,6.3c2.8,2.8,4.9,6.2,6.4,10.2
		c1.5,4,2.3,8.6,2.3,13.8c0,1.3-0.1,2.4-0.2,3.3c-0.1,0.9-0.3,1.5-0.6,2c-0.3,0.5-0.7,0.8-1.2,1c-0.5,0.2-1.2,0.3-2,0.3h-44.4
		c0.5,7.4,2.5,12.8,6,16.2c3.5,3.5,8,5.2,13.7,5.2c2.8,0,5.2-0.3,7.2-1c2-0.7,3.8-1.4,5.3-2.2c1.5-0.8,2.8-1.5,4-2.2
		c1.1-0.7,2.3-1,3.3-1c0.7,0,1.3,0.1,1.8,0.4c0.5,0.3,1,0.7,1.3,1.2l5,6.3c-1.9,2.2-4.1,4.1-6.4,5.6c-2.4,1.5-4.9,2.7-7.5,3.6
		c-2.6,0.9-5.2,1.6-7.9,1.9c-2.7,0.4-5.3,0.6-7.8,0.6c-5,0-9.6-0.8-13.9-2.5c-4.3-1.7-8-4.1-11.2-7.4c-3.2-3.2-5.7-7.3-7.5-12
		c-1.8-4.8-2.7-10.3-2.7-16.6c0-4.9,0.8-9.5,2.4-13.8c1.6-4.3,3.9-8.1,6.8-11.3c3-3.2,6.6-5.7,10.8-7.6
		C382.9,121.6,387.7,120.7,393.1,120.7z M393.4,133.1c-5,0-9,1.4-11.8,4.3c-2.8,2.8-4.7,6.9-5.5,12.1h32.5c0-2.2-0.3-4.4-0.9-6.3
		c-0.6-2-1.5-3.7-2.8-5.2c-1.3-1.5-2.8-2.7-4.8-3.5C398.2,133.5,396,133.1,393.4,133.1z"/>
	<path class="st3" d="M441.3,193.6v-58.8l-6.2-1c-1.4-0.2-2.4-0.7-3.3-1.4c-0.8-0.7-1.2-1.7-1.2-2.9v-7.1h10.7v-3
		c0-3.8,0.6-7.5,1.8-11s3-6.6,5.5-9.3c2.5-2.7,5.6-4.8,9.4-6.4c3.8-1.6,8.3-2.4,13.4-2.4c4.2,0,8.3,0.1,12.1,0.4
		c3.8,0.3,7.6,0.4,11.4,0.4h9.7v102.5h-17.2v-90.7c-2.5,0-4.9,0-7.2,0c-2.4,0-4.4,0-6,0c-5.2,0-9.2,1.4-12,4.3
		c-2.8,2.9-4.1,7-4.1,12.2v3h17v12.3h-16.5v58.9H441.3z"/>
	<path class="st3" d="M554.3,120.7c4.5,0,8.7,0.7,12.5,2.2c3.8,1.4,7.1,3.6,9.8,6.3c2.8,2.8,4.9,6.2,6.4,10.2
		c1.5,4,2.3,8.6,2.3,13.8c0,1.3-0.1,2.4-0.2,3.3c-0.1,0.9-0.3,1.5-0.6,2c-0.3,0.5-0.7,0.8-1.2,1c-0.5,0.2-1.2,0.3-2,0.3H537
		c0.5,7.4,2.5,12.8,6,16.2c3.5,3.5,8,5.2,13.7,5.2c2.8,0,5.2-0.3,7.2-1c2-0.7,3.8-1.4,5.3-2.2c1.5-0.8,2.8-1.5,4-2.2
		c1.1-0.7,2.3-1,3.3-1c0.7,0,1.3,0.1,1.8,0.4c0.5,0.3,1,0.7,1.3,1.2l5,6.3c-1.9,2.2-4.1,4.1-6.4,5.6c-2.4,1.5-4.9,2.7-7.5,3.6
		c-2.6,0.9-5.2,1.6-7.9,1.9c-2.7,0.4-5.3,0.6-7.8,0.6c-5,0-9.6-0.8-13.9-2.5c-4.3-1.7-8-4.1-11.2-7.4c-3.2-3.2-5.7-7.3-7.5-12
		c-1.8-4.8-2.7-10.3-2.7-16.6c0-4.9,0.8-9.5,2.4-13.8c1.6-4.3,3.9-8.1,6.8-11.3c3-3.2,6.6-5.7,10.8-7.6
		C544.1,121.6,548.9,120.7,554.3,120.7z M554.6,133.1c-5,0-9,1.4-11.8,4.3c-2.8,2.8-4.7,6.9-5.5,12.1h32.5c0-2.2-0.3-4.4-0.9-6.3
		c-0.6-2-1.5-3.7-2.8-5.2c-1.3-1.5-2.8-2.7-4.8-3.5C559.4,133.5,557.2,133.1,554.6,133.1z M578.9,91.3l-17.3,18.3
		c-0.9,0.9-1.7,1.6-2.6,1.9c-0.8,0.4-1.9,0.5-3.2,0.5h-10.4l9.9-17c0.7-1.2,1.5-2.1,2.5-2.8c0.9-0.6,2.3-0.9,4.2-0.9H578.9z"/>
	<path class="st3" d="M623,194.7c-6.2,0-11-1.8-14.4-5.3c-3.4-3.5-5-8.4-5-14.6v-40.1h-7.3c-0.9,0-1.7-0.3-2.4-0.9
		c-0.7-0.6-1-1.5-1-2.7v-6.9l11.5-1.9l3.6-19.6c0.2-0.9,0.6-1.7,1.3-2.2c0.7-0.5,1.5-0.8,2.6-0.8h9v22.6h18.9v12.3h-18.9v38.9
		c0,2.2,0.6,4,1.7,5.2c1.1,1.3,2.6,1.9,4.5,1.9c1.1,0,2-0.1,2.7-0.4c0.7-0.3,1.4-0.5,1.9-0.8c0.5-0.3,1-0.5,1.4-0.8
		c0.4-0.3,0.8-0.4,1.3-0.4c0.5,0,0.9,0.1,1.3,0.4c0.3,0.3,0.7,0.6,1.1,1.2l5.2,8.4c-2.5,2.1-5.4,3.7-8.7,4.8
		C629.9,194.2,626.5,194.7,623,194.7z"/>
	<path class="st3" d="M683.3,120.7c4.5,0,8.7,0.7,12.5,2.2c3.8,1.4,7.1,3.6,9.8,6.3c2.8,2.8,4.9,6.2,6.4,10.2
		c1.5,4,2.3,8.6,2.3,13.8c0,1.3-0.1,2.4-0.2,3.3c-0.1,0.9-0.3,1.5-0.6,2c-0.3,0.5-0.7,0.8-1.2,1s-1.2,0.3-2,0.3H666
		c0.5,7.4,2.5,12.8,6,16.2c3.5,3.5,8,5.2,13.7,5.2c2.8,0,5.2-0.3,7.2-1c2-0.7,3.8-1.4,5.3-2.2c1.5-0.8,2.8-1.5,4-2.2
		c1.1-0.7,2.2-1,3.3-1c0.7,0,1.3,0.1,1.8,0.4c0.5,0.3,1,0.7,1.3,1.2l5,6.3c-1.9,2.2-4.1,4.1-6.4,5.6c-2.4,1.5-4.9,2.7-7.5,3.6
		c-2.6,0.9-5.2,1.6-7.9,1.9c-2.7,0.4-5.3,0.6-7.8,0.6c-5,0-9.6-0.8-13.9-2.5c-4.3-1.7-8-4.1-11.2-7.4c-3.2-3.2-5.7-7.3-7.5-12
		c-1.8-4.8-2.7-10.3-2.7-16.6c0-4.9,0.8-9.5,2.4-13.8c1.6-4.3,3.9-8.1,6.8-11.3c3-3.2,6.6-5.7,10.8-7.6
		C673.1,121.6,677.9,120.7,683.3,120.7z M683.6,133.1c-5,0-9,1.4-11.8,4.3c-2.8,2.8-4.7,6.9-5.5,12.1h32.5c0-2.2-0.3-4.4-0.9-6.3
		c-0.6-2-1.5-3.7-2.8-5.2c-1.3-1.5-2.8-2.7-4.8-3.5C688.4,133.5,686.2,133.1,683.6,133.1z"/>
	<path class="st3" d="M728.4,193.6v-71.8h10.1c1.8,0,3,0.3,3.7,1c0.7,0.7,1.2,1.8,1.4,3.4l1,8.7c2.6-4.4,5.6-7.9,9-10.5
		c3.5-2.6,7.3-3.9,11.6-3.9c3.5,0,6.5,0.8,8.8,2.4l-2.2,13c-0.1,0.8-0.4,1.4-0.9,1.8c-0.5,0.3-1.1,0.5-1.9,0.5
		c-0.7,0-1.7-0.2-2.9-0.5c-1.2-0.3-2.8-0.5-4.8-0.5c-3.6,0-6.7,1-9.2,3c-2.6,2-4.7,4.9-6.5,8.7v44.7H728.4z"/>
</g>
</svg>
