<?xml version="1.0" encoding="utf-8"?>
<!-- Generator: Adobe Illustrator 26.2.1, SVG Export Plug-In . SVG Version: 6.00 Build 0)  -->
<svg version="1.1" id="Calque_1" xmlns="http://www.w3.org/2000/svg" xmlns:xlink="http://www.w3.org/1999/xlink" x="0px" y="0px"
	 viewBox="0 0 857.1 1000" style="enable-background:new 0 0 857.1 1000;" xml:space="preserve">
<style type="text/css">
	.st0{fill:#688ED8;}
</style>
<path class="st0" d="M857.1,142.9v250c0,19.5-16.1,35.7-35.7,35.7h-250c-14.5,0-27.3-9-32.9-22.3c-5.6-12.9-2.8-28.5,7.8-38.6l77-77
	c-52.4-48.5-121.6-76.4-194.7-76.4c-157.4,0-285.7,128.3-285.7,285.7s128.3,285.7,285.7,285.7c88.7,0,170.7-40.2,225.4-111
	c2.8-3.9,7.8-6.2,12.9-6.7c5,0,10,1.6,13.9,5l76.5,77c6.7,6.1,6.7,16.7,1.1,24c-81.5,98.2-202,154.6-329.8,154.6
	C192.5,928.6,0,736,0,500S192.5,71.4,428.6,71.4c109.9,0,216.5,44.1,295.2,118.3l72.5-72c10.1-10.6,25.7-13.3,39.1-7.8
	C848.2,115.5,857.1,128.3,857.1,142.9L857.1,142.9z"/>
</svg>
