<?xml version="1.0" encoding="utf-8"?>
<!-- Generator: Adobe Illustrator 21.1.0, SVG Export Plug-In . SVG Version: 6.00 Build 0)  -->
<svg version="1.1" id="Capa_1" xmlns="http://www.w3.org/2000/svg" xmlns:xlink="http://www.w3.org/1999/xlink" x="0px" y="0px"
	 viewBox="0 0 242.4 242.4" style="enable-background:new 0 0 242.4 242.4;" xml:space="preserve">
<style type="text/css">
	.st0{fill:#666666;}
</style>
<path class="st0" d="M232.3,122.3c-4-23.5-20.5-27.3-28.3-27.7c-2.5-0.1-4.7-1.4-6.1-3.4c-5.6-8.6-13.2-10.9-19.6-10.9
	c-4.6,0-8.6,1.2-11,2c-0.3,0.1-0.6,0.2-0.9,0.2c-0.9,0-1.8-0.5-2.3-1.3c-5.7-9.8-13.9-12.4-20.8-12.4c-4,0-7.6,0.9-10,1.6
	c-0.3,0.1-0.5,0.1-0.8,0.1c-1.3,0-2.5-1.1-2.5-2.5V17.4C130,5.8,121.4,0,112.7,0S95.5,5.8,95.5,17.4v89c0,5.2-4.3,8.5-8.6,8.5
	c-2.6,0-5.3-1.2-7-3.9l-8.4-12.9c-3.7-6.1-9-8.6-14.3-8.6c-12,0-23.7,12.8-15.4,26.6l65.5,125.2c0.4,0.8,1.3,1.2,2.2,1.2h92
	c1.3,0,2.4-0.9,2.5-2.2l2.3-37.4c0-0.4,0.2-0.8,0.4-1.2C229.5,167.1,236.1,144.9,232.3,122.3z"/>
<g>
	<g>
		<g>
			<g>
				<path class="st0" d="M38.1,62.7c-1.6,0-3.2-1.5-3.5-1.8C33.5,60.1,4.5,38.2,1.3,35C0.2,33.9,0,32.7,0,31.9
					c0.1-1.9,1.5-3.1,1.7-3.3L33.9,2c0.4-0.4,2-2,3.5-2c0.7,0,2.4,0.3,2.4,3.3v13.8h45.5c0.1,0,0.3,0,0.5,0c0.5,0,3.2,0.2,3.2,4.2
					v21.1c0,2.9-2.1,3.7-3.2,3.7H40.8v12.6C40.8,62.2,39.1,62.7,38.1,62.7z M38.1,60.1v1.3V60.1L38.1,60.1z"/>
			</g>
		</g>
	</g>
</g>
<g>
	<g>
		<g>
			<g>
				<path class="st0" d="M184.6,58.6V46h-45.1c-1.1,0-3.2-0.8-3.2-3.7V21.2c0-4,2.6-4.2,3.2-4.2c0.2,0,0.4,0,0.5,0h45.5V3.3
					c0-3,1.7-3.3,2.4-3.3c1.6,0,3.2,1.6,3.5,2l32.2,26.7c0.2,0.1,1.6,1.4,1.7,3.3c0,0.8-0.2,1.9-1.3,3.1c-3.2,3.2-32.2,25-33.3,25.8
					c-0.3,0.3-1.9,1.8-3.5,1.8C186.3,62.7,184.6,62.2,184.6,58.6z M187.3,60.1v1.3V60.1L187.3,60.1z"/>
			</g>
		</g>
	</g>
</g>
</svg>
