<?xml version="1.0" encoding="utf-8"?>
<!-- Generator: Adobe Illustrator 22.0.1, SVG Export Plug-In . SVG Version: 6.00 Build 0)  -->
<svg version="1.1" id="Calque_1" xmlns="http://www.w3.org/2000/svg" xmlns:xlink="http://www.w3.org/1999/xlink" x="0px" y="0px"
	 viewBox="0 0 500 500" style="enable-background:new 0 0 500 500;" xml:space="preserve">
<style type="text/css">
	.st0{fill:#EEEEEE;}
</style>
<g>
	<circle class="st0" cx="250" cy="250" r="250"/>
</g>
<g>
	<path d="M210.2,275.8v-51.2H255v51.2h33.6v42.8H255V389h-44.8v-70.4h-120V277L193,109.4h51.6L143.4,275.8H210.2z"/>
	<path d="M409.8,389h-28.2v-13c-7.7,9.7-17.3,14.6-28.7,14.6c-11.4,0-21-3.3-28.7-9.9c-7.7-6.6-11.6-15.4-11.6-26.4s4-19.2,12-24.7
		c8-5.5,18.9-8.2,32.8-8.2h22.4v-0.6c0-11.5-6.1-17.2-18.2-17.2c-5.2,0-10.7,1-16.5,3.1c-5.8,2.1-10.7,4.6-14.7,7.7L317,295
		c14.1-10.3,30.3-15.4,48.4-15.4c13.1,0,23.7,3.3,32,9.8c8.3,6.5,12.4,16.9,12.4,31V389z M379.6,348v-5.2h-18.8
		c-12,0-18,3.7-18,11.2c0,3.9,1.4,6.8,4.3,8.9c2.9,2.1,7,3.1,12.3,3.1c5.3,0,10-1.6,14.1-4.9C377.6,357.8,379.6,353.5,379.6,348z"/>
</g>
</svg>
