<?xml version="1.0" encoding="utf-8"?>
<!-- Generator: Adobe Illustrator 22.0.1, SVG Export Plug-In . SVG Version: 6.00 Build 0)  -->
<svg version="1.1" id="Calque_1" xmlns="http://www.w3.org/2000/svg" xmlns:xlink="http://www.w3.org/1999/xlink" x="0px" y="0px"
	 viewBox="0 0 500 500" style="enable-background:new 0 0 500 500;" xml:space="preserve">
<style type="text/css">
	.st0{fill:#EEEEEE;}
</style>
<g>
	<circle class="st0" cx="250" cy="250" r="250"/>
</g>
<g>
	<path d="M207.7,275.8v-51.2h44.8v51.2h33.6v42.8h-33.6V389h-44.8v-70.4h-120V277l102.8-167.6h51.6L140.9,275.8H207.7z"/>
	<path d="M367.5,364c10,0,19-5,27-15l17.8,20c-13.9,14.4-28.9,21.6-45,21.6c-16.1,0-29.8-5.1-40.9-15.3
		c-11.1-10.2-16.7-23.5-16.7-40c0-16.5,5.6-29.9,16.9-40.2c11.3-10.3,24.6-15.5,40.1-15.5c7.7,0,15.6,1.6,23.5,4.8
		c7.9,3.2,14.9,7.9,20.9,14.2L395.5,319c-3.5-4.1-7.7-7.3-12.7-9.6c-5-2.3-10-3.4-14.9-3.4c-7.9,0-14.6,2.6-20.3,7.7
		c-5.7,5.1-8.5,12.3-8.5,21.4c0,9.1,2.8,16.2,8.5,21.3C353.3,361.5,359.9,364,367.5,364z"/>
</g>
</svg>
