<?xml version="1.0" encoding="utf-8"?>
<!-- Generator: Adobe Illustrator 22.0.1, SVG Export Plug-In . SVG Version: 6.00 Build 0)  -->
<svg version="1.1" id="Calque_1" xmlns="http://www.w3.org/2000/svg" xmlns:xlink="http://www.w3.org/1999/xlink" x="0px" y="0px"
	 viewBox="0 0 500 500" style="enable-background:new 0 0 500 500;" xml:space="preserve">
<style type="text/css">
	.st0{fill:#EEEEEE;}
</style>
<g>
	<circle class="st0" cx="250" cy="250" r="250"/>
</g>
<g>
	<path d="M203.8,275.8v-51.2h44.8v51.2h33.6v42.8h-33.6V389h-44.8v-70.4h-120V277l102.8-167.6h51.6L137,275.8H203.8z"/>
	<path d="M374,279.6c13.1,0,24.5,5.1,34.2,15.3c9.7,10.2,14.6,23.3,14.6,39.3s-5,29.4-15,40.2c-10,10.8-21.4,16.2-34.1,16.2
		c-12.7,0-23.3-5.3-31.7-15.8V389h-30V240.6h30v52.8C350.3,284.2,360.9,279.6,374,279.6z M341.6,335.3c0,8.7,2.4,15.9,7.3,21.4
		c4.9,5.5,10.8,8.3,17.7,8.3c6.9,0,13-2.8,18.2-8.3c5.2-5.5,7.8-12.6,7.8-21.3c0-8.7-2.5-15.9-7.6-21.8c-5.1-5.9-11.1-8.8-18.2-8.8
		c-7.1,0-13,2.9-17.9,8.7C344,319.3,341.6,326.6,341.6,335.3z"/>
</g>
</svg>
