<?xml version="1.0" encoding="utf-8"?>
<!-- Generator: Adobe Illustrator 21.1.0, SVG Export Plug-In . SVG Version: 6.00 Build 0)  -->
<svg version="1.1" id="Calque_1" xmlns="http://www.w3.org/2000/svg" xmlns:xlink="http://www.w3.org/1999/xlink" x="0px" y="0px"
	 viewBox="0 0 500 500" style="enable-background:new 0 0 500 500;" xml:space="preserve">
<style type="text/css">
	.st0{fill:#EEEEEE;}
</style>
<g>
	<circle class="st0" cx="250" cy="250" r="250"/>
</g>
<g>
	<path d="M328.2,108.4v42.8h-118V220c11.7-6.4,25.1-9.6,40-9.6c26.1,0,48.7,7.9,67.6,23.6c18.9,15.7,28.4,37.1,28.4,64
		c0,26.9-9.9,49.3-29.6,67c-19.7,17.7-44,26.6-72.8,26.6c-37.6,0-67.6-12.5-90-37.6l25.2-34.4c2.1,2.1,5,4.7,8.6,7.6
		c3.6,2.9,11,6.9,22.2,11.8c11.2,4.9,23.5,7.4,36.8,7.4c13.3,0,25.5-4,36.4-12c10.9-8,16.4-19.7,16.4-35c0-15.3-5.8-27.2-17.4-35.6
		s-26.3-12.6-44-12.6c-17.7,0-34.6,4.4-50.6,13.2l-20-21.6V108.4H328.2z"/>
</g>
</svg>
