<?xml version="1.0" encoding="utf-8"?>
<!-- Generator: Adobe Illustrator 26.0.2, SVG Export Plug-In . SVG Version: 6.00 Build 0)  -->
<svg version="1.1" id="Calque_1" xmlns="http://www.w3.org/2000/svg" xmlns:xlink="http://www.w3.org/1999/xlink" x="0px" y="0px"
	 viewBox="0 0 500 500" style="enable-background:new 0 0 500 500;" xml:space="preserve">
<style type="text/css">
	.st0{fill:#293133;}
	.st1{fill:#FFFFFF;}
</style>
<g>
	<circle class="st0" cx="250" cy="250" r="250"/>
</g>
<g>
	<path class="st1" d="M308.9,249h62.8v99.2c-27.7,30.9-66.1,46.4-115.2,46.4c-41.1,0-75.5-13.6-103.4-40.8
		c-27.9-27.2-41.8-61.5-41.8-103c0-41.5,14.2-76.1,42.6-103.8c28.4-27.7,62.7-41.6,102.8-41.6c40.1,0,75,13.2,104.6,39.6l-32.4,46.8
		c-12.5-10.9-24.1-18.5-34.6-22.6c-10.5-4.1-21.9-6.2-34.2-6.2c-23.7,0-43.7,8.1-60,24.2c-16.3,16.1-24.4,37.4-24.4,63.8
		s7.8,47.5,23.4,63.4c15.6,15.9,34.2,23.8,55.8,23.8s39.6-4.1,54-12.4V249z"/>
</g>
</svg>
