<?xml version="1.0" encoding="utf-8"?>
<!-- Generator: Adobe Illustrator 23.0.6, SVG Export Plug-In . SVG Version: 6.00 Build 0)  -->
<svg version="1.1" id="Calque_1" xmlns="http://www.w3.org/2000/svg" xmlns:xlink="http://www.w3.org/1999/xlink" x="0px" y="0px"
	 viewBox="0 0 785.7 1000" style="enable-background:new 0 0 785.7 1000;" xml:space="preserve">
<style type="text/css">
	.st0{fill:#688ED8;}
</style>
<path class="st0" d="M724.3,737.7c0,14-5.5,27.9-15.6,38l-75.9,75.9c-10,10-24,15.6-37.9,15.6s-27.9-5.6-38-15.6l-164-164.1
	L228.8,851.6c-10,10-24,15.6-38,15.6s-27.9-5.6-37.9-15.6L77,775.7c-10-10.1-15.6-24-15.6-38S67,709.8,77,699.8l164.1-164.1
	L77,371.7c-10-10.1-15.6-24-15.6-38S67,305.8,77,295.8l75.9-75.9c10-10.1,24-15.7,37.9-15.7s28,5.6,38,15.7l164.1,164l164-164
	c10.1-10.1,24-15.7,38-15.7s27.9,5.6,37.9,15.7l75.9,75.9c10.1,10,15.6,24,15.6,37.9s-5.5,27.9-15.6,38l-164.1,164l164.1,164.1
	C718.8,709.8,724.3,723.8,724.3,737.7L724.3,737.7z"/>
</svg>
