<?xml version="1.0" encoding="utf-8"?>
<!-- Generator: Adobe Illustrator 23.0.2, SVG Export Plug-In . SVG Version: 6.00 Build 0)  -->
<svg version="1.1" id="Calque_1" xmlns="http://www.w3.org/2000/svg" xmlns:xlink="http://www.w3.org/1999/xlink" x="0px" y="0px"
	 viewBox="0 0 915.7999878 1000" style="enable-background:new 0 0 915.7999878 1000;" xml:space="preserve">
<style type="text/css">
	.st0{fill:#FCD79E;}
</style>
<path class="st0" d="M202.6000061,791.5c0-19.5-16.1999969-35.7000122-35.6999969-35.7000122S131.2000122,772,131.2000122,791.5
	s16.1000061,35.7000122,35.6999969,35.7000122S202.6000061,811.2000122,202.6000061,791.5z M562,557.2000122
	L181.3999939,937.7999878C168.5,950.7000122,150.0999908,958.5,131.1999969,958.5s-37.4000015-7.7999878-50.8000031-20.7000122
	l-59.2000008-60.2000122C7.8000002,864.5999756,0,846.2000122,0,827.2000122S7.8000002,789.9000244,21.2000008,776.5
	l380-380.1000061C430.2999878,469.5,488.8999939,528.0999756,562,557.2000122z M915.7999878,314.5
	c0,18.3999939-6.7000122,41.2999878-12.9000244,59.2000122c-35.0999756,99.2999878-130.6000366,167.8999634-236,167.8999634
	c-137.8999634,0-250-112.1000061-250-250s112.0999756-250,250-250c40.7000122,0,93.7000122,12.2999992,127.7999878,35.1999969
	c5.5,3.9000015,8.9000244,8.9000015,8.9000244,15.5999985c0,6.0999985-3.9000244,12.3000031-8.9000244,15.5999985l-163.5,94.3000031
	v125.0000153L738.9000244,387c18.4000244-10.6000061,147.7999878-92.1000061,159-92.1000061
	S915.7999878,303.2000122,915.7999878,314.5L915.7999878,314.5z"/>
</svg>
