<?xml version="1.0" encoding="utf-8"?>
<!-- Generator: Adobe Illustrator 26.2.1, SVG Export Plug-In . SVG Version: 6.00 Build 0)  -->
<svg version="1.1" id="Calque_1" xmlns="http://www.w3.org/2000/svg" xmlns:xlink="http://www.w3.org/1999/xlink" x="0px" y="0px"
	 viewBox="0 0 915.8 1000" style="enable-background:new 0 0 915.8 1000;" xml:space="preserve">
<style type="text/css">
	.st0{fill:#688ED8;}
</style>
<path class="st0" d="M202.6,791.5c0-19.5-16.2-35.7-35.7-35.7s-35.7,16.2-35.7,35.7s16.1,35.7,35.7,35.7S202.6,811.2,202.6,791.5z
	 M562,557.2L181.4,937.8c-12.9,12.9-31.3,20.7-50.2,20.7s-37.4-7.8-50.8-20.7l-59.2-60.2C7.8,864.6,0,846.2,0,827.2
	s7.8-37.3,21.2-50.7l380-380.1C430.3,469.5,488.9,528.1,562,557.2z M915.8,314.5c0,18.4-6.7,41.3-12.9,59.2
	c-35.1,99.3-130.6,167.9-236,167.9c-137.9,0-250-112.1-250-250s112.1-250,250-250c40.7,0,93.7,12.3,127.8,35.2
	c5.5,3.9,8.9,8.9,8.9,15.6c0,6.1-3.9,12.3-8.9,15.6l-163.5,94.3v125L738.9,387c18.4-10.6,147.8-92.1,159-92.1
	S915.8,303.2,915.8,314.5L915.8,314.5z"/>
</svg>
