<?xml version="1.0" encoding="utf-8"?>
<!-- Generator: Adobe Illustrator 22.0.1, SVG Export Plug-In . SVG Version: 6.00 Build 0)  -->
<svg version="1.1" id="Calque_1" xmlns="http://www.w3.org/2000/svg" xmlns:xlink="http://www.w3.org/1999/xlink" x="0px" y="0px"
	 viewBox="0 0 292 292" style="enable-background:new 0 0 292 292;" xml:space="preserve">
<style type="text/css">
	.st0{fill:url(#SVGID_1_);}
	.st1{fill:url(#SVGID_2_);}
	.st2{opacity:0.8;}
	.st3{fill:#FFFFFF;}
	.st4{fill:#333333;}
</style>
<linearGradient id="SVGID_1_" gradientUnits="userSpaceOnUse" x1="-1561.5001" y1="2" x2="-1561.5001" y2="294" gradientTransform="matrix(-1 0 0 -1 -1415.5001 294)">
	<stop  offset="0" style="stop-color:#BBBBBB"/>
	<stop  offset="1" style="stop-color:#DCDCDC"/>
</linearGradient>
<path class="st0" d="M267,10c8,0,15,7,15,15v242c0,8-7,15-15,15H10V10H267z M0,0v292h267c14,0,25-11,25-25V25c0-14-11-25-25-25H0z"
	/>
<linearGradient id="SVGID_2_" gradientUnits="userSpaceOnUse" x1="-1561.5001" y1="12" x2="-1561.5001" y2="284" gradientTransform="matrix(-1 0 0 -1 -1415.5001 294)">
	<stop  offset="0" style="stop-color:#E8E8E8"/>
	<stop  offset="1" style="stop-color:#F9F9F9"/>
</linearGradient>
<path class="st1" d="M267,10c8,0,15,7,15,15v242c0,8-7,15-15,15H10V10H267z"/>
<g>
	<g class="st2">
		<path class="st3" d="M203.9,123l-33,33l33,33l13.4-13.4c1.7-1.8,4.3-2.2,6.5-1.3c2.1,0.9,3.6,3.1,3.6,5.5v41.6
			c0,3.2-2.7,5.9-5.9,5.9h-41.6c-2.4,0-4.5-1.5-5.5-3.7c-0.9-2.1-0.5-4.7,1.3-6.4l13.4-13.4l-33-33l-33,33l13.4,13.4
			c1.8,1.7,2.2,4.3,1.3,6.4c-0.9,2.2-3.1,3.7-5.5,3.7H90.6c-3.2,0-5.9-2.7-5.9-5.9v-41.6c0-2.4,1.5-4.6,3.7-5.5
			c2.1-0.9,4.7-0.5,6.4,1.3l13.3,13.4l33-33l-33-33l-13.4,13.4c-1.1,1.1-2.6,1.8-4.2,1.8c-0.7,0-1.6-0.2-2.2-0.5
			c-2.2-0.9-3.7-3.1-3.7-5.5V90.5c0-3.2,2.7-5.9,5.9-5.9h41.6c2.4,0,4.6,1.5,5.5,3.7c0.9,2.1,0.5,4.7-1.3,6.4L123,108.1l33,33l33-33
			l-13.4-13.4c-1.8-1.7-2.2-4.3-1.3-6.4c0.9-2.2,3.1-3.7,5.5-3.7h41.6c3.3,0,5.9,2.7,5.9,5.9v41.6c0,2.4-1.5,4.6-3.6,5.5
			c-0.7,0.3-1.6,0.5-2.3,0.5c-1.6,0-3.1-0.6-4.2-1.8L203.9,123z"/>
	</g>
	<g>
		<path class="st4" d="M193.9,113l-33,33l33,33l13.4-13.4c1.7-1.8,4.3-2.2,6.5-1.3c2.1,0.9,3.6,3.1,3.6,5.5v41.6
			c0,3.2-2.7,5.9-5.9,5.9h-41.6c-2.4,0-4.5-1.5-5.5-3.7c-0.9-2.1-0.5-4.7,1.3-6.4l13.4-13.4l-33-33l-33,33l13.4,13.4
			c1.8,1.7,2.2,4.3,1.3,6.4c-0.9,2.2-3.1,3.7-5.5,3.7H80.6c-3.2,0-5.9-2.7-5.9-5.9v-41.6c0-2.4,1.5-4.6,3.7-5.5
			c2.1-0.9,4.7-0.5,6.4,1.3L98.1,179l33-33l-33-33l-13.4,13.4c-1.1,1.1-2.6,1.8-4.2,1.8c-0.7,0-1.6-0.2-2.2-0.5
			c-2.2-0.9-3.7-3.1-3.7-5.5V80.5c0-3.2,2.7-5.9,5.9-5.9h41.6c2.4,0,4.6,1.5,5.5,3.7c0.9,2.1,0.5,4.7-1.3,6.4L113,98.1l33,33l33-33
			l-13.4-13.4c-1.8-1.7-2.2-4.3-1.3-6.4c0.9-2.2,3.1-3.7,5.5-3.7h41.6c3.3,0,5.9,2.7,5.9,5.9v41.6c0,2.4-1.5,4.6-3.6,5.5
			c-0.7,0.3-1.6,0.5-2.3,0.5c-1.6,0-3.1-0.6-4.2-1.8L193.9,113z"/>
	</g>
</g>
</svg>
