<?xml version="1.0" encoding="utf-8"?>
<!-- Generator: Adobe Illustrator 24.3.0, SVG Export Plug-In . SVG Version: 6.00 Build 0)  -->
<svg version="1.1" id="Calque_1" xmlns="http://www.w3.org/2000/svg" xmlns:xlink="http://www.w3.org/1999/xlink" x="0px" y="0px"
	 viewBox="0 0 2063.5 292" style="enable-background:new 0 0 2063.5 292;" xml:space="preserve">
<style type="text/css">
	.st0{fill:url(#SVGID_1_);}
	.st1{fill:url(#SVGID_2_);}
	.st2{fill:#FFFFFF;}
	.st3{fill:#333333;}
</style>
<g>
	
		<linearGradient id="SVGID_1_" gradientUnits="userSpaceOnUse" x1="-501.8362" y1="1852" x2="-501.8362" y2="1560" gradientTransform="matrix(-1 0 0 1 529.9 -1560)">
		<stop  offset="0" style="stop-color:#BBBBBB"/>
		<stop  offset="1" style="stop-color:#DCDCDC"/>
	</linearGradient>
	<path class="st0" d="M25,282c-8,0-15-7-15-15V25c0-8,7-15,15-15h2013.6c8,0,15,7,15,15v242c0,8-7,15-15,15H25z M2038.5,292
		c14,0,25-11,25-25V25c0-14-11-25-25-25H25C11,0,0,11,0,25v242c0,14,11,25,25,25H2038.5z"/>
</g>
<linearGradient id="SVGID_2_" gradientUnits="userSpaceOnUse" x1="-501.8862" y1="-400" x2="-501.8862" y2="-128" gradientTransform="matrix(-1 0 0 -1 529.9 -118)">
	<stop  offset="0" style="stop-color:#E8E8E8"/>
	<stop  offset="1" style="stop-color:#F9F9F9"/>
</linearGradient>
<path class="st1" d="M25,282c-8,0-15-7-15-15V25c0-8,7-15,15-15h2013.6c8,0,15,7,15,15v242c0,8-7,15-15,15H25z"/>
<path class="st2" d="M211.9,134.1V155c0,2.8-2.4,5.2-5.2,5.2h-5.2c-2.8,0-5.2-2.4-5.2-5.2v-20.9c0-11.5-9.4-20.9-20.9-20.9
	c-11.5,0-20.9,9.4-20.9,20.9v15.7h7.8c4.3,0,7.8,3.5,7.8,7.8v47c0,4.3-3.5,7.8-7.8,7.8H84c-4.3,0-7.8-3.5-7.8-7.8v-47
	c0-4.3,3.5-7.8,7.8-7.8h54.8v-15.7c0-20.1,16.4-36.5,36.5-36.5S211.9,114,211.9,134.1L211.9,134.1z"/>
<path class="st3" d="M201.9,124.1V145c0,2.8-2.4,5.2-5.2,5.2h-5.2c-2.8,0-5.2-2.4-5.2-5.2v-20.9c0-11.5-9.4-20.9-20.9-20.9
	c-11.5,0-20.9,9.4-20.9,20.9v15.7h7.8c4.3,0,7.8,3.5,7.8,7.8v47c0,4.3-3.5,7.8-7.8,7.8H74c-4.3,0-7.8-3.5-7.8-7.8v-47
	c0-4.3,3.5-7.8,7.8-7.8h54.8v-15.7c0-20.1,16.4-36.5,36.5-36.5S201.9,104,201.9,124.1L201.9,124.1z"/>
<g>
	<path class="st2" d="M378.9,203.4h-14.6c-1.6,0-3-0.4-4-1.2s-1.8-1.8-2.3-3l-7.6-20.7h-41.9l-7.6,20.7c-0.4,1.1-1.1,2.1-2.2,2.9
		c-1.1,0.9-2.4,1.3-4,1.3h-14.6l39.8-101.2h19.2L378.9,203.4z M313.4,165.2h32.3l-12.3-33.7c-0.6-1.5-1.2-3.3-1.9-5.3
		c-0.7-2-1.3-4.2-2-6.6c-0.7,2.4-1.3,4.6-1.9,6.7c-0.6,2.1-1.2,3.8-1.9,5.4L313.4,165.2z"/>
	<path class="st2" d="M404.1,131.6v45.6c0,4.4,1,7.8,3,10.2c2,2.4,5.1,3.6,9.1,3.6c3,0,5.8-0.7,8.4-2c2.6-1.3,5.1-3.2,7.4-5.5v-51.9
		h17.3v71.8h-10.6c-2.2,0-3.7-1-4.4-3.2l-1.2-5.7c-1.5,1.5-3,2.9-4.6,4.1c-1.6,1.2-3.3,2.3-5.1,3.2c-1.8,0.9-3.7,1.5-5.8,2
		c-2.1,0.5-4.3,0.7-6.7,0.7c-3.9,0-7.4-0.7-10.4-2c-3-1.3-5.5-3.2-7.6-5.6c-2.1-2.4-3.6-5.3-4.7-8.6c-1.1-3.3-1.6-7-1.6-11v-45.6
		H404.1z"/>
	<path class="st2" d="M491.5,204.5c-6.2,0-11-1.8-14.4-5.3c-3.4-3.5-5-8.4-5-14.6v-40.1h-7.3c-0.9,0-1.7-0.3-2.4-0.9
		c-0.7-0.6-1-1.5-1-2.7V134l11.5-1.9l3.6-19.6c0.2-0.9,0.6-1.7,1.3-2.2c0.7-0.5,1.5-0.8,2.6-0.8h9v22.6h18.9v12.3h-18.9v38.9
		c0,2.2,0.6,4,1.7,5.2c1.1,1.3,2.6,1.9,4.5,1.9c1.1,0,2-0.1,2.7-0.4c0.7-0.3,1.4-0.5,1.9-0.8c0.5-0.3,1-0.5,1.4-0.8
		c0.4-0.3,0.8-0.4,1.3-0.4c0.5,0,0.9,0.1,1.3,0.4c0.3,0.3,0.7,0.6,1,1.2l5.2,8.4c-2.5,2.1-5.4,3.7-8.7,4.8
		C498.4,204,495,204.5,491.5,204.5z"/>
	<path class="st2" d="M552.7,130.5c5.4,0,10.2,0.9,14.6,2.6c4.4,1.7,8.1,4.2,11.2,7.3c3.1,3.2,5.5,7,7.1,11.6
		c1.7,4.6,2.5,9.7,2.5,15.3c0,5.7-0.8,10.8-2.5,15.4c-1.7,4.6-4.1,8.5-7.1,11.7s-6.8,5.7-11.2,7.4c-4.4,1.7-9.2,2.6-14.6,2.6
		c-5.4,0-10.2-0.9-14.6-2.6s-8.1-4.2-11.2-7.4c-3.1-3.2-5.5-7.1-7.2-11.7c-1.7-4.6-2.6-9.7-2.6-15.4c0-5.6,0.9-10.8,2.6-15.3
		c1.7-4.6,4.1-8.4,7.2-11.6c3.1-3.2,6.8-5.6,11.2-7.3S547.4,130.5,552.7,130.5z M552.7,191.1c6,0,10.4-2,13.3-6s4.3-9.9,4.3-17.6
		c0-7.7-1.4-13.6-4.3-17.7c-2.9-4.1-7.3-6.1-13.3-6.1c-6.1,0-10.5,2-13.4,6.1c-2.9,4.1-4.3,10-4.3,17.7s1.4,13.6,4.3,17.6
		C542.2,189.1,546.7,191.1,552.7,191.1z"/>
	<path class="st2" d="M601.7,203.4v-71.8h10.1c1.8,0,3,0.3,3.7,1c0.7,0.7,1.2,1.8,1.4,3.4l1,8.7c2.6-4.4,5.6-7.9,9-10.5
		c3.5-2.6,7.3-3.9,11.6-3.9c3.5,0,6.5,0.8,8.8,2.5l-2.2,13c-0.1,0.8-0.4,1.4-0.9,1.8c-0.5,0.3-1.1,0.5-1.9,0.5
		c-0.7,0-1.7-0.2-2.9-0.5c-1.2-0.3-2.8-0.5-4.8-0.5c-3.6,0-6.7,1-9.2,3c-2.6,2-4.7,4.9-6.5,8.7v44.7H601.7z"/>
	<path class="st2" d="M679.9,110.6c0,1.5-0.3,2.9-0.9,4.2c-0.6,1.3-1.4,2.5-2.4,3.4c-1,1-2.2,1.8-3.5,2.3c-1.4,0.6-2.8,0.9-4.3,0.9
		c-1.5,0-2.9-0.3-4.2-0.9c-1.3-0.6-2.5-1.4-3.5-2.3c-1-1-1.8-2.1-2.3-3.4c-0.6-1.3-0.9-2.7-0.9-4.2c0-1.5,0.3-3,0.9-4.3
		c0.6-1.4,1.4-2.5,2.3-3.5c1-1,2.1-1.8,3.5-2.3c1.3-0.6,2.7-0.9,4.2-0.9c1.5,0,3,0.3,4.3,0.9c1.4,0.6,2.5,1.4,3.5,2.3
		c1,1,1.8,2.1,2.4,3.5C679.6,107.7,679.9,109.1,679.9,110.6z M677.3,131.6v71.8H660v-71.8H677.3z"/>
	<path class="st2" d="M739.4,145.6c-0.5,0.7-1,1.3-1.5,1.6c-0.5,0.3-1.2,0.5-2,0.5c-0.8,0-1.7-0.2-2.7-0.7c-1-0.5-2.1-1-3.3-1.6
		c-1.3-0.6-2.7-1.1-4.3-1.6c-1.6-0.5-3.5-0.7-5.7-0.7c-3.4,0-6.1,0.7-8,2.2c-2,1.4-2.9,3.3-2.9,5.7c0,1.5,0.5,2.8,1.5,3.9
		c1,1,2.3,2,4,2.8c1.7,0.8,3.5,1.5,5.6,2.1c2.1,0.6,4.2,1.3,6.4,2.1c2.2,0.7,4.3,1.6,6.4,2.6c2.1,1,4,2.2,5.6,3.6
		c1.7,1.5,3,3.2,4,5.3c1,2.1,1.5,4.5,1.5,7.4c0,3.5-0.6,6.6-1.9,9.6c-1.3,2.9-3.1,5.4-5.5,7.6c-2.4,2.1-5.4,3.8-9,5
		c-3.6,1.2-7.7,1.8-12.3,1.8c-2.5,0-4.9-0.2-7.2-0.7c-2.4-0.4-4.6-1.1-6.8-1.9c-2.2-0.8-4.2-1.7-6-2.8c-1.8-1.1-3.5-2.2-4.9-3.5
		l4-6.6c0.5-0.8,1.1-1.4,1.8-1.8s1.6-0.6,2.7-0.6c1.1,0,2.1,0.3,3,0.9c1,0.6,2.1,1.3,3.3,2c1.3,0.7,2.7,1.4,4.4,2
		c1.7,0.6,3.9,0.9,6.5,0.9c2.1,0,3.8-0.2,5.3-0.7c1.5-0.5,2.7-1.1,3.6-1.9c1-0.8,1.7-1.7,2.1-2.8s0.7-2.1,0.7-3.3
		c0-1.7-0.5-3.1-1.5-4.1c-1-1.1-2.3-2-4-2.8c-1.7-0.8-3.5-1.5-5.7-2.1c-2.1-0.6-4.3-1.3-6.5-2.1c-2.2-0.7-4.4-1.6-6.5-2.6
		c-2.1-1-4-2.3-5.7-3.8c-1.7-1.5-3-3.4-4-5.7c-1-2.2-1.5-4.9-1.5-8.1c0-2.9,0.6-5.7,1.8-8.4c1.2-2.7,2.9-5,5.1-7s5.1-3.6,8.5-4.8
		c3.4-1.2,7.3-1.8,11.7-1.8c4.9,0,9.5,0.8,13.5,2.5c4.1,1.6,7.4,3.8,10.2,6.4L739.4,145.6z"/>
	<path class="st2" d="M787.7,130.5c4.5,0,8.7,0.7,12.5,2.2c3.8,1.4,7.1,3.6,9.8,6.3c2.8,2.8,4.9,6.2,6.4,10.2
		c1.5,4,2.3,8.6,2.3,13.8c0,1.3-0.1,2.4-0.2,3.3c-0.1,0.9-0.3,1.5-0.6,2c-0.3,0.5-0.7,0.8-1.2,1.1s-1.2,0.3-2,0.3h-44.4
		c0.5,7.4,2.5,12.8,6,16.2c3.5,3.5,8,5.2,13.7,5.2c2.8,0,5.2-0.3,7.2-1c2-0.7,3.8-1.4,5.3-2.2c1.5-0.8,2.8-1.5,4-2.2
		c1.1-0.7,2.2-1,3.3-1c0.7,0,1.3,0.1,1.8,0.4c0.5,0.3,1,0.7,1.3,1.2l5,6.3c-1.9,2.2-4.1,4.1-6.4,5.6c-2.4,1.5-4.9,2.7-7.5,3.6
		c-2.6,0.9-5.2,1.6-7.9,1.9c-2.7,0.4-5.3,0.6-7.8,0.6c-5,0-9.6-0.8-13.9-2.5c-4.3-1.7-8-4.1-11.2-7.4c-3.2-3.2-5.7-7.3-7.5-12
		c-1.8-4.8-2.7-10.3-2.7-16.6c0-4.9,0.8-9.5,2.4-13.8c1.6-4.3,3.9-8.1,6.8-11.3c3-3.2,6.6-5.7,10.8-7.6
		C777.5,131.4,782.3,130.5,787.7,130.5z M788,142.9c-5,0-9,1.4-11.8,4.3c-2.8,2.8-4.7,6.9-5.5,12.1h32.5c0-2.2-0.3-4.4-0.9-6.3
		c-0.6-2-1.5-3.7-2.8-5.2c-1.3-1.5-2.8-2.7-4.8-3.5C792.8,143.3,790.6,142.9,788,142.9z"/>
	<path class="st2" d="M832.8,203.4v-71.8H843c1.8,0,3,0.3,3.7,1c0.7,0.7,1.2,1.8,1.4,3.4l1,8.7c2.6-4.4,5.6-7.9,9-10.5
		c3.5-2.6,7.3-3.9,11.6-3.9c3.5,0,6.5,0.8,8.8,2.5l-2.2,13c-0.1,0.8-0.4,1.4-0.9,1.8c-0.5,0.3-1.1,0.5-1.9,0.5
		c-0.7,0-1.7-0.2-2.9-0.5c-1.2-0.3-2.8-0.5-4.8-0.5c-3.6,0-6.7,1-9.2,3c-2.6,2-4.7,4.9-6.5,8.7v44.7H832.8z"/>
	<path class="st2" d="M935.4,99.4v104h-17.3v-104H935.4z"/>
	<path class="st2" d="M969.9,102.2v20.2l-1.6,10.9c-0.3,2.1-0.9,3.6-1.8,4.7c-0.9,1.1-2.3,1.6-4.2,1.6c-1.7,0-3-0.5-4-1.6
		c-1-1.1-1.6-2.7-1.9-4.7l-1.5-10.9v-20.2H969.9z"/>
	<path class="st2" d="M1039.9,203.4h-7.8c-1.6,0-2.9-0.2-3.8-0.7c-0.9-0.5-1.6-1.5-2.1-3l-1.5-5.1c-1.8,1.6-3.6,3.1-5.4,4.3
		s-3.6,2.3-5.4,3.1c-1.9,0.8-3.9,1.5-6,1.9c-2.1,0.4-4.4,0.6-7,0.6c-3,0-5.8-0.4-8.4-1.2c-2.6-0.8-4.8-2-6.6-3.7
		c-1.8-1.6-3.3-3.7-4.3-6.1c-1-2.4-1.5-5.3-1.5-8.5c0-2.7,0.7-5.4,2.1-8c1.4-2.6,3.8-5,7.1-7.2c3.3-2.1,7.7-3.9,13.2-5.3
		c5.5-1.4,12.3-2.1,20.5-2.1v-4.2c0-4.8-1-8.4-3-10.8c-2-2.3-5-3.5-8.9-3.5c-2.8,0-5.1,0.3-7,1c-1.9,0.7-3.5,1.4-4.9,2.2
		c-1.4,0.8-2.6,1.6-3.8,2.2c-1.2,0.7-2.5,1-3.9,1c-1.2,0-2.2-0.3-3-0.9c-0.8-0.6-1.5-1.4-2-2.2l-3.1-5.5
		c8.3-7.6,18.2-11.3,29.9-11.3c4.2,0,7.9,0.7,11.2,2.1c3.3,1.4,6.1,3.3,8.4,5.7s4,5.4,5.2,8.8c1.2,3.4,1.8,7.1,1.8,11.2V203.4z
		 M1006.3,192.6c1.8,0,3.4-0.2,4.9-0.5c1.5-0.3,2.9-0.8,4.2-1.4c1.3-0.6,2.6-1.4,3.9-2.4c1.2-0.9,2.5-2.1,3.7-3.3v-12
		c-5,0-9.3,0.3-12.6,1c-3.4,0.6-6.1,1.4-8.2,2.4c-2.1,1-3.5,2.1-4.4,3.5c-0.9,1.3-1.3,2.7-1.3,4.3c0,3.1,0.9,5.2,2.7,6.6
		C1001.1,192,1003.4,192.6,1006.3,192.6z"/>
	<path class="st2" d="M1107.4,146.8c-0.5,0.7-1,1.2-1.5,1.5c-0.5,0.4-1.2,0.6-2.1,0.6c-0.9,0-1.8-0.3-2.6-0.8
		c-0.8-0.5-1.8-1.1-3-1.8c-1.2-0.7-2.6-1.3-4.2-1.8c-1.6-0.5-3.6-0.8-6-0.8c-3,0-5.7,0.5-8,1.6c-2.3,1.1-4.2,2.7-5.7,4.7
		c-1.5,2.1-2.6,4.5-3.4,7.5c-0.7,2.9-1.1,6.2-1.1,9.9c0,3.8,0.4,7.2,1.2,10.2c0.8,3,2,5.5,3.5,7.5c1.5,2,3.4,3.6,5.6,4.6
		c2.2,1,4.7,1.6,7.4,1.6c2.8,0,5-0.3,6.7-1c1.7-0.7,3.1-1.4,4.3-2.2c1.2-0.8,2.2-1.6,3-2.2c0.9-0.7,1.8-1,2.9-1
		c1.4,0,2.5,0.5,3.2,1.6l5,6.3c-1.9,2.2-4,4.1-6.2,5.6c-2.2,1.5-4.6,2.7-7,3.6c-2.4,0.9-4.9,1.6-7.5,1.9c-2.6,0.4-5.1,0.6-7.6,0.6
		c-4.4,0-8.6-0.8-12.5-2.5c-3.9-1.7-7.3-4.1-10.3-7.2c-2.9-3.2-5.2-7.1-6.9-11.7c-1.7-4.6-2.6-9.8-2.6-15.7c0-5.3,0.8-10.2,2.3-14.7
		c1.5-4.5,3.7-8.4,6.7-11.7c2.9-3.3,6.6-5.9,10.9-7.7s9.3-2.8,15-2.8c5.4,0,10.1,0.9,14.1,2.6c4,1.7,7.7,4.2,10.9,7.4L1107.4,146.8z
		"/>
	<path class="st2" d="M1174.2,146.8c-0.5,0.7-1,1.2-1.5,1.5c-0.5,0.4-1.2,0.6-2.1,0.6c-0.9,0-1.8-0.3-2.6-0.8
		c-0.8-0.5-1.8-1.1-3-1.8c-1.2-0.7-2.6-1.3-4.2-1.8c-1.6-0.5-3.6-0.8-6-0.8c-3,0-5.7,0.5-8,1.6c-2.3,1.1-4.2,2.7-5.7,4.7
		c-1.5,2.1-2.6,4.5-3.4,7.5c-0.7,2.9-1.1,6.2-1.1,9.9c0,3.8,0.4,7.2,1.2,10.2c0.8,3,2,5.5,3.5,7.5c1.5,2,3.4,3.6,5.6,4.6
		c2.2,1,4.7,1.6,7.4,1.6c2.8,0,5-0.3,6.7-1c1.7-0.7,3.1-1.4,4.3-2.2c1.2-0.8,2.2-1.6,3-2.2c0.9-0.7,1.8-1,2.9-1
		c1.4,0,2.5,0.5,3.2,1.6l5,6.3c-1.9,2.2-4,4.1-6.2,5.6c-2.2,1.5-4.6,2.7-7,3.6c-2.4,0.9-4.9,1.6-7.5,1.9c-2.6,0.4-5.1,0.6-7.6,0.6
		c-4.4,0-8.6-0.8-12.5-2.5c-3.9-1.7-7.3-4.1-10.3-7.2c-2.9-3.2-5.2-7.1-6.9-11.7c-1.7-4.6-2.6-9.8-2.6-15.7c0-5.3,0.8-10.2,2.3-14.7
		c1.5-4.5,3.7-8.4,6.7-11.7c2.9-3.3,6.6-5.9,10.9-7.7s9.3-2.8,15-2.8c5.4,0,10.1,0.9,14.1,2.6c4,1.7,7.7,4.2,10.9,7.4L1174.2,146.8z
		"/>
	<path class="st2" d="M1220.2,130.5c4.5,0,8.7,0.7,12.5,2.2c3.8,1.4,7.1,3.6,9.8,6.3c2.8,2.8,4.9,6.2,6.4,10.2
		c1.5,4,2.3,8.6,2.3,13.8c0,1.3-0.1,2.4-0.2,3.3c-0.1,0.9-0.3,1.5-0.6,2c-0.3,0.5-0.7,0.8-1.2,1.1s-1.2,0.3-2,0.3h-44.4
		c0.5,7.4,2.5,12.8,6,16.2c3.5,3.5,8,5.2,13.7,5.2c2.8,0,5.2-0.3,7.2-1c2-0.7,3.8-1.4,5.3-2.2c1.5-0.8,2.8-1.5,4-2.2
		c1.1-0.7,2.2-1,3.3-1c0.7,0,1.3,0.1,1.8,0.4c0.5,0.3,1,0.7,1.3,1.2l5,6.3c-1.9,2.2-4.1,4.1-6.4,5.6c-2.4,1.5-4.9,2.7-7.5,3.6
		c-2.6,0.9-5.2,1.6-7.9,1.9c-2.7,0.4-5.3,0.6-7.8,0.6c-5,0-9.6-0.8-13.9-2.5c-4.3-1.7-8-4.1-11.2-7.4c-3.2-3.2-5.7-7.3-7.5-12
		c-1.8-4.8-2.7-10.3-2.7-16.6c0-4.9,0.8-9.5,2.4-13.8c1.6-4.3,3.9-8.1,6.8-11.3c3-3.2,6.6-5.7,10.8-7.6
		C1210,131.4,1214.8,130.5,1220.2,130.5z M1214.4,101.1c1.9,0,3.3,0.3,4.2,0.9c0.9,0.6,1.7,1.6,2.4,2.8l10,17h-9.9
		c-1.3,0-2.4-0.2-3.2-0.5c-0.8-0.4-1.6-1-2.5-1.9l-17.3-18.3H1214.4z M1220.5,142.9c-5,0-9,1.4-11.8,4.3c-2.8,2.8-4.7,6.9-5.5,12.1
		h32.5c0-2.2-0.3-4.4-0.9-6.3c-0.6-2-1.5-3.7-2.8-5.2c-1.3-1.5-2.8-2.7-4.8-3.5C1225.3,143.3,1223.1,142.9,1220.5,142.9z"/>
	<path class="st2" d="M1308,145.6c-0.5,0.7-1,1.3-1.5,1.6c-0.5,0.3-1.2,0.5-2,0.5c-0.8,0-1.7-0.2-2.7-0.7c-1-0.5-2.1-1-3.3-1.6
		c-1.3-0.6-2.7-1.1-4.3-1.6c-1.6-0.5-3.5-0.7-5.7-0.7c-3.4,0-6.1,0.7-8,2.2c-2,1.4-2.9,3.3-2.9,5.7c0,1.5,0.5,2.8,1.5,3.9
		c1,1,2.3,2,4,2.8c1.7,0.8,3.5,1.5,5.6,2.1c2.1,0.6,4.2,1.3,6.4,2.1c2.2,0.7,4.3,1.6,6.4,2.6c2.1,1,4,2.2,5.6,3.6
		c1.7,1.5,3,3.2,4,5.3c1,2.1,1.5,4.5,1.5,7.4c0,3.5-0.6,6.6-1.9,9.6c-1.3,2.9-3.1,5.4-5.5,7.6c-2.4,2.1-5.4,3.8-9,5
		c-3.6,1.2-7.7,1.8-12.3,1.8c-2.5,0-4.9-0.2-7.2-0.7c-2.4-0.4-4.6-1.1-6.8-1.9c-2.2-0.8-4.2-1.7-6-2.8c-1.8-1.1-3.5-2.2-4.9-3.5
		l4-6.6c0.5-0.8,1.1-1.4,1.8-1.8s1.6-0.6,2.7-0.6c1.1,0,2.1,0.3,3,0.9c1,0.6,2.1,1.3,3.3,2c1.3,0.7,2.7,1.4,4.4,2
		c1.7,0.6,3.9,0.9,6.5,0.9c2.1,0,3.8-0.2,5.3-0.7c1.5-0.5,2.7-1.1,3.6-1.9c1-0.8,1.7-1.7,2.1-2.8s0.7-2.1,0.7-3.3
		c0-1.7-0.5-3.1-1.5-4.1c-1-1.1-2.3-2-4-2.8c-1.7-0.8-3.5-1.5-5.7-2.1c-2.1-0.6-4.3-1.3-6.5-2.1c-2.2-0.7-4.4-1.6-6.5-2.6
		c-2.1-1-4-2.3-5.7-3.8c-1.7-1.5-3-3.4-4-5.7c-1-2.2-1.5-4.9-1.5-8.1c0-2.9,0.6-5.7,1.8-8.4c1.2-2.7,2.9-5,5.1-7s5.1-3.6,8.5-4.8
		c3.4-1.2,7.3-1.8,11.7-1.8c4.9,0,9.5,0.8,13.5,2.5c4.1,1.6,7.4,3.8,10.2,6.4L1308,145.6z"/>
	<path class="st2" d="M1409.8,203.4h-7.8c-1.6,0-2.9-0.2-3.8-0.7c-0.9-0.5-1.6-1.5-2.1-3l-1.5-5.1c-1.8,1.6-3.6,3.1-5.4,4.3
		s-3.6,2.3-5.4,3.1c-1.9,0.8-3.9,1.5-6,1.9c-2.1,0.4-4.4,0.6-7,0.6c-3,0-5.8-0.4-8.4-1.2c-2.6-0.8-4.8-2-6.6-3.7
		c-1.8-1.6-3.3-3.7-4.3-6.1c-1-2.4-1.5-5.3-1.5-8.5c0-2.7,0.7-5.4,2.1-8c1.4-2.6,3.8-5,7.1-7.2c3.3-2.1,7.7-3.9,13.2-5.3
		c5.5-1.4,12.3-2.1,20.5-2.1v-4.2c0-4.8-1-8.4-3-10.8c-2-2.3-5-3.5-8.9-3.5c-2.8,0-5.1,0.3-7,1c-1.9,0.7-3.5,1.4-4.9,2.2
		c-1.4,0.8-2.6,1.6-3.8,2.2c-1.2,0.7-2.5,1-3.9,1c-1.2,0-2.2-0.3-3-0.9c-0.8-0.6-1.5-1.4-2-2.2l-3.1-5.5
		c8.3-7.6,18.2-11.3,29.9-11.3c4.2,0,7.9,0.7,11.2,2.1c3.3,1.4,6.1,3.3,8.4,5.7s4,5.4,5.2,8.8c1.2,3.4,1.8,7.1,1.8,11.2V203.4z
		 M1376.2,192.6c1.8,0,3.4-0.2,4.9-0.5c1.5-0.3,2.9-0.8,4.2-1.4c1.3-0.6,2.6-1.4,3.9-2.4c1.2-0.9,2.5-2.1,3.7-3.3v-12
		c-5,0-9.3,0.3-12.6,1c-3.4,0.6-6.1,1.4-8.2,2.4c-2.1,1-3.5,2.1-4.4,3.5c-0.9,1.3-1.3,2.7-1.3,4.3c0,3.1,0.9,5.2,2.7,6.6
		C1371,192,1373.3,192.6,1376.2,192.6z"/>
	<path class="st2" d="M1442.6,131.6v45.6c0,4.4,1,7.8,3,10.2c2,2.4,5.1,3.6,9.1,3.6c3,0,5.8-0.7,8.4-2s5.1-3.2,7.4-5.5v-51.9h17.3
		v71.8h-10.6c-2.2,0-3.7-1-4.4-3.2l-1.2-5.7c-1.5,1.5-3,2.9-4.6,4.1c-1.6,1.2-3.3,2.3-5.1,3.2c-1.8,0.9-3.7,1.5-5.8,2
		c-2.1,0.5-4.3,0.7-6.7,0.7c-3.9,0-7.4-0.7-10.4-2c-3-1.3-5.5-3.2-7.6-5.6c-2.1-2.4-3.6-5.3-4.7-8.6c-1-3.3-1.6-7-1.6-11v-45.6
		H1442.6z"/>
	<path class="st2" d="M1576.1,145.6c-0.5,0.7-1,1.3-1.5,1.6c-0.5,0.3-1.2,0.5-2,0.5c-0.8,0-1.7-0.2-2.7-0.7c-1-0.5-2.1-1-3.3-1.6
		c-1.3-0.6-2.7-1.1-4.3-1.6c-1.6-0.5-3.5-0.7-5.7-0.7c-3.4,0-6.1,0.7-8,2.2c-2,1.4-2.9,3.3-2.9,5.7c0,1.5,0.5,2.8,1.5,3.9
		c1,1,2.3,2,4,2.8c1.7,0.8,3.5,1.5,5.6,2.1c2.1,0.6,4.2,1.3,6.4,2.1c2.2,0.7,4.3,1.6,6.4,2.6c2.1,1,4,2.2,5.6,3.6
		c1.7,1.5,3,3.2,4,5.3c1,2.1,1.5,4.5,1.5,7.4c0,3.5-0.6,6.6-1.9,9.6c-1.3,2.9-3.1,5.4-5.5,7.6c-2.4,2.1-5.4,3.8-9,5
		c-3.6,1.2-7.7,1.8-12.3,1.8c-2.5,0-4.9-0.2-7.2-0.7c-2.4-0.4-4.6-1.1-6.8-1.9c-2.2-0.8-4.2-1.7-6-2.8c-1.8-1.1-3.5-2.2-4.9-3.5
		l4-6.6c0.5-0.8,1.1-1.4,1.8-1.8s1.6-0.6,2.7-0.6c1.1,0,2.1,0.3,3,0.9c1,0.6,2.1,1.3,3.3,2c1.3,0.7,2.7,1.4,4.4,2
		c1.7,0.6,3.9,0.9,6.5,0.9c2.1,0,3.8-0.2,5.3-0.7c1.5-0.5,2.7-1.1,3.6-1.9c1-0.8,1.7-1.7,2.1-2.8s0.7-2.1,0.7-3.3
		c0-1.7-0.5-3.1-1.5-4.1c-1-1.1-2.3-2-4-2.8c-1.7-0.8-3.5-1.5-5.7-2.1c-2.1-0.6-4.3-1.3-6.5-2.1c-2.2-0.7-4.4-1.6-6.5-2.6
		c-2.1-1-4-2.3-5.7-3.8c-1.7-1.5-3-3.4-4-5.7c-1-2.2-1.5-4.9-1.5-8.1c0-2.9,0.6-5.7,1.8-8.4c1.2-2.7,2.9-5,5.1-7s5.1-3.6,8.5-4.8
		c3.4-1.2,7.3-1.8,11.7-1.8c4.9,0,9.5,0.8,13.5,2.5c4.1,1.6,7.4,3.8,10.2,6.4L1576.1,145.6z"/>
	<path class="st2" d="M1610.4,131.6v45.6c0,4.4,1,7.8,3,10.2c2,2.4,5.1,3.6,9.1,3.6c3,0,5.8-0.7,8.4-2s5.1-3.2,7.4-5.5v-51.9h17.3
		v71.8h-10.6c-2.2,0-3.7-1-4.4-3.2l-1.2-5.7c-1.5,1.5-3,2.9-4.6,4.1c-1.6,1.2-3.3,2.3-5.1,3.2c-1.8,0.9-3.7,1.5-5.8,2
		c-2.1,0.5-4.3,0.7-6.7,0.7c-3.9,0-7.4-0.7-10.4-2c-3-1.3-5.5-3.2-7.6-5.6c-2.1-2.4-3.6-5.3-4.7-8.6c-1-3.3-1.6-7-1.6-11v-45.6
		H1610.4z"/>
	<path class="st2" d="M1674.2,226.9v-95.3h10.6c1.1,0,2.1,0.3,2.9,0.8c0.8,0.5,1.3,1.3,1.5,2.4l1.4,6.7c2.9-3.3,6.2-6,10-8.1
		c3.8-2.1,8.2-3.1,13.2-3.1c3.9,0,7.5,0.8,10.7,2.5c3.2,1.6,6,4,8.4,7.1s4.2,6.9,5.5,11.5s1.9,9.8,1.9,15.6c0,5.4-0.7,10.3-2.2,14.9
		c-1.4,4.6-3.5,8.5-6.2,11.9c-2.7,3.4-5.9,6-9.7,7.9c-3.8,1.9-8.1,2.8-12.8,2.8c-4.1,0-7.5-0.6-10.3-1.9c-2.8-1.2-5.4-3-7.6-5.1
		v29.4H1674.2z M1707.8,143.9c-3.6,0-6.7,0.8-9.2,2.3c-2.5,1.5-4.9,3.7-7.1,6.4v32.2c2,2.4,4.1,4.1,6.4,5.1c2.3,1,4.8,1.4,7.5,1.4
		c2.6,0,5-0.5,7.1-1.5c2.1-1,3.9-2.5,5.4-4.5c1.5-2,2.6-4.5,3.4-7.6c0.8-3.1,1.2-6.7,1.2-10.8c0-4.2-0.3-7.8-1-10.7
		c-0.7-2.9-1.6-5.3-2.9-7.1s-2.8-3.2-4.6-4C1712.1,144.3,1710.1,143.9,1707.8,143.9z"/>
	<path class="st2" d="M1753.4,226.9v-95.3h10.6c1.1,0,2.1,0.3,2.9,0.8c0.8,0.5,1.3,1.3,1.5,2.4l1.4,6.7c2.9-3.3,6.2-6,10-8.1
		c3.8-2.1,8.2-3.1,13.2-3.1c3.9,0,7.5,0.8,10.7,2.5c3.2,1.6,6,4,8.4,7.1s4.2,6.9,5.5,11.5s1.9,9.8,1.9,15.6c0,5.4-0.7,10.3-2.2,14.9
		c-1.4,4.6-3.5,8.5-6.2,11.9c-2.7,3.4-5.9,6-9.7,7.9c-3.8,1.9-8.1,2.8-12.8,2.8c-4.1,0-7.5-0.6-10.3-1.9c-2.8-1.2-5.4-3-7.6-5.1
		v29.4H1753.4z M1787,143.9c-3.6,0-6.7,0.8-9.2,2.3c-2.5,1.5-4.9,3.7-7.1,6.4v32.2c2,2.4,4.1,4.1,6.4,5.1c2.3,1,4.8,1.4,7.5,1.4
		c2.6,0,5-0.5,7.1-1.5c2.1-1,3.9-2.5,5.4-4.5c1.5-2,2.6-4.5,3.4-7.6c0.8-3.1,1.2-6.7,1.2-10.8c0-4.2-0.3-7.8-1-10.7
		c-0.7-2.9-1.6-5.3-2.9-7.1s-2.8-3.2-4.6-4C1791.3,144.3,1789.3,143.9,1787,143.9z"/>
	<path class="st2" d="M1863.2,130.5c5.4,0,10.2,0.9,14.6,2.6c4.4,1.7,8.1,4.2,11.2,7.3c3.1,3.2,5.5,7,7.1,11.6
		c1.7,4.6,2.5,9.7,2.5,15.3c0,5.7-0.8,10.8-2.5,15.4c-1.7,4.6-4.1,8.5-7.1,11.7s-6.8,5.7-11.2,7.4c-4.4,1.7-9.2,2.6-14.6,2.6
		c-5.4,0-10.2-0.9-14.6-2.6s-8.1-4.2-11.2-7.4c-3.1-3.2-5.5-7.1-7.2-11.7c-1.7-4.6-2.6-9.7-2.6-15.4c0-5.6,0.9-10.8,2.6-15.3
		c1.7-4.6,4.1-8.4,7.2-11.6c3.1-3.2,6.8-5.6,11.2-7.3S1857.8,130.5,1863.2,130.5z M1863.2,191.1c6,0,10.4-2,13.3-6s4.3-9.9,4.3-17.6
		c0-7.7-1.4-13.6-4.3-17.7c-2.9-4.1-7.3-6.1-13.3-6.1c-6.1,0-10.5,2-13.4,6.1c-2.9,4.1-4.3,10-4.3,17.7s1.4,13.6,4.3,17.6
		C1852.7,189.1,1857.1,191.1,1863.2,191.1z"/>
	<path class="st2" d="M1912.1,203.4v-71.8h10.1c1.8,0,3,0.3,3.7,1c0.7,0.7,1.2,1.8,1.4,3.4l1,8.7c2.6-4.4,5.6-7.9,9-10.5
		c3.5-2.6,7.3-3.9,11.6-3.9c3.5,0,6.5,0.8,8.8,2.5l-2.2,13c-0.1,0.8-0.4,1.4-0.9,1.8c-0.5,0.3-1.1,0.5-1.9,0.5
		c-0.7,0-1.7-0.2-2.9-0.5c-1.2-0.3-2.8-0.5-4.8-0.5c-3.6,0-6.7,1-9.2,3c-2.6,2-4.7,4.9-6.5,8.7v44.7H1912.1z"/>
	<path class="st2" d="M1992.9,204.5c-6.2,0-11-1.8-14.3-5.3c-3.4-3.5-5-8.4-5-14.6v-40.1h-7.3c-0.9,0-1.7-0.3-2.4-0.9
		c-0.7-0.6-1-1.5-1-2.7V134l11.5-1.9l3.6-19.6c0.2-0.9,0.6-1.7,1.3-2.2c0.7-0.5,1.5-0.8,2.6-0.8h9v22.6h18.9v12.3h-18.9v38.9
		c0,2.2,0.6,4,1.7,5.2s2.6,1.9,4.5,1.9c1.1,0,2-0.1,2.7-0.4c0.7-0.3,1.4-0.5,1.9-0.8c0.5-0.3,1-0.5,1.4-0.8c0.4-0.3,0.8-0.4,1.3-0.4
		c0.5,0,0.9,0.1,1.3,0.4c0.3,0.3,0.7,0.6,1.1,1.2l5.2,8.4c-2.5,2.1-5.4,3.7-8.7,4.8C1999.8,204,1996.4,204.5,1992.9,204.5z"/>
</g>
<g>
	<path class="st3" d="M368.9,193.4h-14.6c-1.6,0-3-0.4-4-1.2s-1.8-1.8-2.3-3l-7.6-20.7h-41.9l-7.6,20.7c-0.4,1.1-1.1,2.1-2.2,2.9
		c-1.1,0.9-2.4,1.3-4,1.3h-14.6l39.8-101.2h19.2L368.9,193.4z M303.4,155.2h32.3l-12.3-33.7c-0.6-1.5-1.2-3.3-1.9-5.3
		c-0.7-2-1.3-4.2-2-6.6c-0.7,2.4-1.3,4.6-1.9,6.7c-0.6,2.1-1.2,3.8-1.9,5.4L303.4,155.2z"/>
	<path class="st3" d="M394.1,121.6v45.6c0,4.4,1,7.8,3,10.2c2,2.4,5.1,3.6,9.1,3.6c3,0,5.8-0.7,8.4-2c2.6-1.3,5.1-3.2,7.4-5.5v-51.9
		h17.3v71.8h-10.6c-2.2,0-3.7-1-4.4-3.2l-1.2-5.7c-1.5,1.5-3,2.9-4.6,4.1c-1.6,1.2-3.3,2.3-5.1,3.2c-1.8,0.9-3.7,1.5-5.8,2
		c-2.1,0.5-4.3,0.7-6.7,0.7c-3.9,0-7.4-0.7-10.4-2c-3-1.3-5.5-3.2-7.6-5.6c-2.1-2.4-3.6-5.3-4.7-8.6c-1.1-3.3-1.6-7-1.6-11v-45.6
		H394.1z"/>
	<path class="st3" d="M481.5,194.5c-6.2,0-11-1.8-14.4-5.3c-3.4-3.5-5-8.4-5-14.6v-40.1h-7.3c-0.9,0-1.7-0.3-2.4-0.9
		c-0.7-0.6-1-1.5-1-2.7V124l11.5-1.9l3.6-19.6c0.2-0.9,0.6-1.7,1.3-2.2c0.7-0.5,1.5-0.8,2.6-0.8h9v22.6h18.9v12.3h-18.9v38.9
		c0,2.2,0.6,4,1.7,5.2c1.1,1.3,2.6,1.9,4.5,1.9c1.1,0,2-0.1,2.7-0.4c0.7-0.3,1.4-0.5,1.9-0.8c0.5-0.3,1-0.5,1.4-0.8
		c0.4-0.3,0.8-0.4,1.3-0.4c0.5,0,0.9,0.1,1.3,0.4c0.3,0.3,0.7,0.6,1,1.2l5.2,8.4c-2.5,2.1-5.4,3.7-8.7,4.8
		C488.4,194,485,194.5,481.5,194.5z"/>
	<path class="st3" d="M542.7,120.5c5.4,0,10.2,0.9,14.6,2.6c4.4,1.7,8.1,4.2,11.2,7.3c3.1,3.2,5.5,7,7.1,11.6
		c1.7,4.6,2.5,9.7,2.5,15.3c0,5.7-0.8,10.8-2.5,15.4c-1.7,4.6-4.1,8.5-7.1,11.7s-6.8,5.7-11.2,7.4c-4.4,1.7-9.2,2.6-14.6,2.6
		c-5.4,0-10.2-0.9-14.6-2.6s-8.1-4.2-11.2-7.4c-3.1-3.2-5.5-7.1-7.2-11.7c-1.7-4.6-2.6-9.7-2.6-15.4c0-5.6,0.9-10.8,2.6-15.3
		c1.7-4.6,4.1-8.4,7.2-11.6c3.1-3.2,6.8-5.6,11.2-7.3S537.4,120.5,542.7,120.5z M542.7,181.1c6,0,10.4-2,13.3-6s4.3-9.9,4.3-17.6
		c0-7.7-1.4-13.6-4.3-17.7c-2.9-4.1-7.3-6.1-13.3-6.1c-6.1,0-10.5,2-13.4,6.1c-2.9,4.1-4.3,10-4.3,17.7s1.4,13.6,4.3,17.6
		C532.2,179.1,536.7,181.1,542.7,181.1z"/>
	<path class="st3" d="M591.7,193.4v-71.8h10.1c1.8,0,3,0.3,3.7,1c0.7,0.7,1.2,1.8,1.4,3.4l1,8.7c2.6-4.4,5.6-7.9,9-10.5
		c3.5-2.6,7.3-3.9,11.6-3.9c3.5,0,6.5,0.8,8.8,2.5l-2.2,13c-0.1,0.8-0.4,1.4-0.9,1.8c-0.5,0.3-1.1,0.5-1.9,0.5
		c-0.7,0-1.7-0.2-2.9-0.5c-1.2-0.3-2.8-0.5-4.8-0.5c-3.6,0-6.7,1-9.2,3c-2.6,2-4.7,4.9-6.5,8.7v44.7H591.7z"/>
	<path class="st3" d="M669.9,100.6c0,1.5-0.3,2.9-0.9,4.2c-0.6,1.3-1.4,2.5-2.4,3.4c-1,1-2.2,1.8-3.5,2.3c-1.4,0.6-2.8,0.9-4.3,0.9
		c-1.5,0-2.9-0.3-4.2-0.9c-1.3-0.6-2.5-1.4-3.5-2.3c-1-1-1.8-2.1-2.3-3.4c-0.6-1.3-0.9-2.7-0.9-4.2c0-1.5,0.3-3,0.9-4.3
		c0.6-1.4,1.4-2.5,2.3-3.5c1-1,2.1-1.8,3.5-2.3c1.3-0.6,2.7-0.9,4.2-0.9c1.5,0,3,0.3,4.3,0.9c1.4,0.6,2.5,1.4,3.5,2.3
		c1,1,1.8,2.1,2.4,3.5C669.6,97.7,669.9,99.1,669.9,100.6z M667.3,121.6v71.8H650v-71.8H667.3z"/>
	<path class="st3" d="M729.4,135.6c-0.5,0.7-1,1.3-1.5,1.6c-0.5,0.3-1.2,0.5-2,0.5c-0.8,0-1.7-0.2-2.7-0.7c-1-0.5-2.1-1-3.3-1.6
		c-1.3-0.6-2.7-1.1-4.3-1.6c-1.6-0.5-3.5-0.7-5.7-0.7c-3.4,0-6.1,0.7-8,2.2c-2,1.4-2.9,3.3-2.9,5.7c0,1.5,0.5,2.8,1.5,3.9
		c1,1,2.3,2,4,2.8c1.7,0.8,3.5,1.5,5.6,2.1c2.1,0.6,4.2,1.3,6.4,2.1c2.2,0.7,4.3,1.6,6.4,2.6c2.1,1,4,2.2,5.6,3.6
		c1.7,1.5,3,3.2,4,5.3c1,2.1,1.5,4.5,1.5,7.4c0,3.5-0.6,6.6-1.9,9.6c-1.3,2.9-3.1,5.4-5.5,7.6c-2.4,2.1-5.4,3.8-9,5
		c-3.6,1.2-7.7,1.8-12.3,1.8c-2.5,0-4.9-0.2-7.2-0.7c-2.4-0.4-4.6-1.1-6.8-1.9c-2.2-0.8-4.2-1.7-6-2.8c-1.8-1.1-3.5-2.2-4.9-3.5
		l4-6.6c0.5-0.8,1.1-1.4,1.8-1.8s1.6-0.6,2.7-0.6c1.1,0,2.1,0.3,3,0.9c1,0.6,2.1,1.3,3.3,2c1.3,0.7,2.7,1.4,4.4,2
		c1.7,0.6,3.9,0.9,6.5,0.9c2.1,0,3.8-0.2,5.3-0.7c1.5-0.5,2.7-1.1,3.6-1.9c1-0.8,1.7-1.7,2.1-2.8s0.7-2.1,0.7-3.3
		c0-1.7-0.5-3.1-1.5-4.1c-1-1.1-2.3-2-4-2.8c-1.7-0.8-3.5-1.5-5.7-2.1c-2.1-0.6-4.3-1.3-6.5-2.1c-2.2-0.7-4.4-1.6-6.5-2.6
		c-2.1-1-4-2.3-5.7-3.8c-1.7-1.5-3-3.4-4-5.7c-1-2.2-1.5-4.9-1.5-8.1c0-2.9,0.6-5.7,1.8-8.4c1.2-2.7,2.9-5,5.1-7s5.1-3.6,8.5-4.8
		c3.4-1.2,7.3-1.8,11.7-1.8c4.9,0,9.5,0.8,13.5,2.5c4.1,1.6,7.4,3.8,10.2,6.4L729.4,135.6z"/>
	<path class="st3" d="M777.7,120.5c4.5,0,8.7,0.7,12.5,2.2c3.8,1.4,7.1,3.6,9.8,6.3c2.8,2.8,4.9,6.2,6.4,10.2
		c1.5,4,2.3,8.6,2.3,13.8c0,1.3-0.1,2.4-0.2,3.3c-0.1,0.9-0.3,1.5-0.6,2c-0.3,0.5-0.7,0.8-1.2,1.1s-1.2,0.3-2,0.3h-44.4
		c0.5,7.4,2.5,12.8,6,16.2c3.5,3.5,8,5.2,13.7,5.2c2.8,0,5.2-0.3,7.2-1c2-0.7,3.8-1.4,5.3-2.2c1.5-0.8,2.8-1.5,4-2.2
		c1.1-0.7,2.2-1,3.3-1c0.7,0,1.3,0.1,1.8,0.4c0.5,0.3,1,0.7,1.3,1.2l5,6.3c-1.9,2.2-4.1,4.1-6.4,5.6c-2.4,1.5-4.9,2.7-7.5,3.6
		c-2.6,0.9-5.2,1.6-7.9,1.9c-2.7,0.4-5.3,0.6-7.8,0.6c-5,0-9.6-0.8-13.9-2.5c-4.3-1.7-8-4.1-11.2-7.4c-3.2-3.2-5.7-7.3-7.5-12
		c-1.8-4.8-2.7-10.3-2.7-16.6c0-4.9,0.8-9.5,2.4-13.8c1.6-4.3,3.9-8.1,6.8-11.3c3-3.2,6.6-5.7,10.8-7.6
		C767.5,121.4,772.3,120.5,777.7,120.5z M778,132.9c-5,0-9,1.4-11.8,4.3c-2.8,2.8-4.7,6.9-5.5,12.1h32.5c0-2.2-0.3-4.4-0.9-6.3
		c-0.6-2-1.5-3.7-2.8-5.2c-1.3-1.5-2.8-2.7-4.8-3.5C782.8,133.3,780.6,132.9,778,132.9z"/>
	<path class="st3" d="M822.8,193.4v-71.8H833c1.8,0,3,0.3,3.7,1c0.7,0.7,1.2,1.8,1.4,3.4l1,8.7c2.6-4.4,5.6-7.9,9-10.5
		c3.5-2.6,7.3-3.9,11.6-3.9c3.5,0,6.5,0.8,8.8,2.5l-2.2,13c-0.1,0.8-0.4,1.4-0.9,1.8c-0.5,0.3-1.1,0.5-1.9,0.5
		c-0.7,0-1.7-0.2-2.9-0.5c-1.2-0.3-2.8-0.5-4.8-0.5c-3.6,0-6.7,1-9.2,3c-2.6,2-4.7,4.9-6.5,8.7v44.7H822.8z"/>
	<path class="st3" d="M925.4,89.4v104h-17.3v-104H925.4z"/>
	<path class="st3" d="M959.9,92.2v20.2l-1.6,10.9c-0.3,2.1-0.9,3.6-1.8,4.7c-0.9,1.1-2.3,1.6-4.2,1.6c-1.7,0-3-0.5-4-1.6
		c-1-1.1-1.6-2.7-1.9-4.7l-1.5-10.9V92.2H959.9z"/>
	<path class="st3" d="M1029.9,193.4h-7.8c-1.6,0-2.9-0.2-3.8-0.7c-0.9-0.5-1.6-1.5-2.1-3l-1.5-5.1c-1.8,1.6-3.6,3.1-5.4,4.3
		s-3.6,2.3-5.4,3.1c-1.9,0.8-3.9,1.5-6,1.9c-2.1,0.4-4.4,0.6-7,0.6c-3,0-5.8-0.4-8.4-1.2c-2.6-0.8-4.8-2-6.6-3.7
		c-1.8-1.6-3.3-3.7-4.3-6.1c-1-2.4-1.5-5.3-1.5-8.5c0-2.7,0.7-5.4,2.1-8c1.4-2.6,3.8-5,7.1-7.2c3.3-2.1,7.7-3.9,13.2-5.3
		c5.5-1.4,12.3-2.1,20.5-2.1v-4.2c0-4.8-1-8.4-3-10.8c-2-2.3-5-3.5-8.9-3.5c-2.8,0-5.1,0.3-7,1c-1.9,0.7-3.5,1.4-4.9,2.2
		c-1.4,0.8-2.6,1.6-3.8,2.2c-1.2,0.7-2.5,1-3.9,1c-1.2,0-2.2-0.3-3-0.9c-0.8-0.6-1.5-1.4-2-2.2l-3.1-5.5
		c8.3-7.6,18.2-11.3,29.9-11.3c4.2,0,7.9,0.7,11.2,2.1c3.3,1.4,6.1,3.3,8.4,5.7s4,5.4,5.2,8.8c1.2,3.4,1.8,7.1,1.8,11.2V193.4z
		 M996.3,182.6c1.8,0,3.4-0.2,4.9-0.5c1.5-0.3,2.9-0.8,4.2-1.4c1.3-0.6,2.6-1.4,3.9-2.4c1.2-0.9,2.5-2.1,3.7-3.3v-12
		c-5,0-9.3,0.3-12.6,1c-3.4,0.6-6.1,1.4-8.2,2.4c-2.1,1-3.5,2.1-4.4,3.5c-0.9,1.3-1.3,2.7-1.3,4.3c0,3.1,0.9,5.2,2.7,6.6
		C991.1,182,993.4,182.6,996.3,182.6z"/>
	<path class="st3" d="M1097.4,136.8c-0.5,0.7-1,1.2-1.5,1.5c-0.5,0.4-1.2,0.6-2.1,0.6c-0.9,0-1.8-0.3-2.6-0.8
		c-0.8-0.5-1.8-1.1-3-1.8c-1.2-0.7-2.6-1.3-4.2-1.8c-1.6-0.5-3.6-0.8-6-0.8c-3,0-5.7,0.5-8,1.6c-2.3,1.1-4.2,2.7-5.7,4.7
		c-1.5,2.1-2.6,4.5-3.4,7.5c-0.7,2.9-1.1,6.2-1.1,9.9c0,3.8,0.4,7.2,1.2,10.2c0.8,3,2,5.5,3.5,7.5c1.5,2,3.4,3.6,5.6,4.6
		c2.2,1,4.7,1.6,7.4,1.6c2.8,0,5-0.3,6.7-1c1.7-0.7,3.1-1.4,4.3-2.2c1.2-0.8,2.2-1.6,3-2.2c0.9-0.7,1.8-1,2.9-1
		c1.4,0,2.5,0.5,3.2,1.6l5,6.3c-1.9,2.2-4,4.1-6.2,5.6c-2.2,1.5-4.6,2.7-7,3.6c-2.4,0.9-4.9,1.6-7.5,1.9c-2.6,0.4-5.1,0.6-7.6,0.6
		c-4.4,0-8.6-0.8-12.5-2.5c-3.9-1.7-7.3-4.1-10.3-7.2c-2.9-3.2-5.2-7.1-6.9-11.7c-1.7-4.6-2.6-9.8-2.6-15.7c0-5.3,0.8-10.2,2.3-14.7
		c1.5-4.5,3.7-8.4,6.7-11.7c2.9-3.3,6.6-5.9,10.9-7.7s9.3-2.8,15-2.8c5.4,0,10.1,0.9,14.1,2.6c4,1.7,7.7,4.2,10.9,7.4L1097.4,136.8z
		"/>
	<path class="st3" d="M1164.2,136.8c-0.5,0.7-1,1.2-1.5,1.5c-0.5,0.4-1.2,0.6-2.1,0.6c-0.9,0-1.8-0.3-2.6-0.8
		c-0.8-0.5-1.8-1.1-3-1.8c-1.2-0.7-2.6-1.3-4.2-1.8c-1.6-0.5-3.6-0.8-6-0.8c-3,0-5.7,0.5-8,1.6c-2.3,1.1-4.2,2.7-5.7,4.7
		c-1.5,2.1-2.6,4.5-3.4,7.5c-0.7,2.9-1.1,6.2-1.1,9.9c0,3.8,0.4,7.2,1.2,10.2c0.8,3,2,5.5,3.5,7.5c1.5,2,3.4,3.6,5.6,4.6
		c2.2,1,4.7,1.6,7.4,1.6c2.8,0,5-0.3,6.7-1c1.7-0.7,3.1-1.4,4.3-2.2c1.2-0.8,2.2-1.6,3-2.2c0.9-0.7,1.8-1,2.9-1
		c1.4,0,2.5,0.5,3.2,1.6l5,6.3c-1.9,2.2-4,4.1-6.2,5.6c-2.2,1.5-4.6,2.7-7,3.6c-2.4,0.9-4.9,1.6-7.5,1.9c-2.6,0.4-5.1,0.6-7.6,0.6
		c-4.4,0-8.6-0.8-12.5-2.5c-3.9-1.7-7.3-4.1-10.3-7.2c-2.9-3.2-5.2-7.1-6.9-11.7c-1.7-4.6-2.6-9.8-2.6-15.7c0-5.3,0.8-10.2,2.3-14.7
		c1.5-4.5,3.7-8.4,6.7-11.7c2.9-3.3,6.6-5.9,10.9-7.7s9.3-2.8,15-2.8c5.4,0,10.1,0.9,14.1,2.6c4,1.7,7.7,4.2,10.9,7.4L1164.2,136.8z
		"/>
	<path class="st3" d="M1210.2,120.5c4.5,0,8.7,0.7,12.5,2.2c3.8,1.4,7.1,3.6,9.8,6.3c2.8,2.8,4.9,6.2,6.4,10.2
		c1.5,4,2.3,8.6,2.3,13.8c0,1.3-0.1,2.4-0.2,3.3c-0.1,0.9-0.3,1.5-0.6,2c-0.3,0.5-0.7,0.8-1.2,1.1s-1.2,0.3-2,0.3h-44.4
		c0.5,7.4,2.5,12.8,6,16.2c3.5,3.5,8,5.2,13.7,5.2c2.8,0,5.2-0.3,7.2-1c2-0.7,3.8-1.4,5.3-2.2c1.5-0.8,2.8-1.5,4-2.2
		c1.1-0.7,2.2-1,3.3-1c0.7,0,1.3,0.1,1.8,0.4c0.5,0.3,1,0.7,1.3,1.2l5,6.3c-1.9,2.2-4.1,4.1-6.4,5.6c-2.4,1.5-4.9,2.7-7.5,3.6
		c-2.6,0.9-5.2,1.6-7.9,1.9c-2.7,0.4-5.3,0.6-7.8,0.6c-5,0-9.6-0.8-13.9-2.5c-4.3-1.7-8-4.1-11.2-7.4c-3.2-3.2-5.7-7.3-7.5-12
		c-1.8-4.8-2.7-10.3-2.7-16.6c0-4.9,0.8-9.5,2.4-13.8c1.6-4.3,3.9-8.1,6.8-11.3c3-3.2,6.6-5.7,10.8-7.6
		C1200,121.4,1204.8,120.5,1210.2,120.5z M1204.4,91.1c1.9,0,3.3,0.3,4.2,0.9c0.9,0.6,1.7,1.6,2.4,2.8l10,17h-9.9
		c-1.3,0-2.4-0.2-3.2-0.5c-0.8-0.4-1.6-1-2.5-1.9l-17.3-18.3H1204.4z M1210.5,132.9c-5,0-9,1.4-11.8,4.3c-2.8,2.8-4.7,6.9-5.5,12.1
		h32.5c0-2.2-0.3-4.4-0.9-6.3c-0.6-2-1.5-3.7-2.8-5.2c-1.3-1.5-2.8-2.7-4.8-3.5C1215.3,133.3,1213.1,132.9,1210.5,132.9z"/>
	<path class="st3" d="M1298,135.6c-0.5,0.7-1,1.3-1.5,1.6c-0.5,0.3-1.2,0.5-2,0.5c-0.8,0-1.7-0.2-2.7-0.7c-1-0.5-2.1-1-3.3-1.6
		c-1.3-0.6-2.7-1.1-4.3-1.6c-1.6-0.5-3.5-0.7-5.7-0.7c-3.4,0-6.1,0.7-8,2.2c-2,1.4-2.9,3.3-2.9,5.7c0,1.5,0.5,2.8,1.5,3.9
		c1,1,2.3,2,4,2.8c1.7,0.8,3.5,1.5,5.6,2.1c2.1,0.6,4.2,1.3,6.4,2.1c2.2,0.7,4.3,1.6,6.4,2.6c2.1,1,4,2.2,5.6,3.6
		c1.7,1.5,3,3.2,4,5.3c1,2.1,1.5,4.5,1.5,7.4c0,3.5-0.6,6.6-1.9,9.6c-1.3,2.9-3.1,5.4-5.5,7.6c-2.4,2.1-5.4,3.8-9,5
		c-3.6,1.2-7.7,1.8-12.3,1.8c-2.5,0-4.9-0.2-7.2-0.7c-2.4-0.4-4.6-1.1-6.8-1.9c-2.2-0.8-4.2-1.7-6-2.8c-1.8-1.1-3.5-2.2-4.9-3.5
		l4-6.6c0.5-0.8,1.1-1.4,1.8-1.8s1.6-0.6,2.7-0.6c1.1,0,2.1,0.3,3,0.9c1,0.6,2.1,1.3,3.3,2c1.3,0.7,2.7,1.4,4.4,2
		c1.7,0.6,3.9,0.9,6.5,0.9c2.1,0,3.8-0.2,5.3-0.7c1.5-0.5,2.7-1.1,3.6-1.9c1-0.8,1.7-1.7,2.1-2.8s0.7-2.1,0.7-3.3
		c0-1.7-0.5-3.1-1.5-4.1c-1-1.1-2.3-2-4-2.8c-1.7-0.8-3.5-1.5-5.7-2.1c-2.1-0.6-4.3-1.3-6.5-2.1c-2.2-0.7-4.4-1.6-6.5-2.6
		c-2.1-1-4-2.3-5.7-3.8c-1.7-1.5-3-3.4-4-5.7c-1-2.2-1.5-4.9-1.5-8.1c0-2.9,0.6-5.7,1.8-8.4c1.2-2.7,2.9-5,5.1-7s5.1-3.6,8.5-4.8
		c3.4-1.2,7.3-1.8,11.7-1.8c4.9,0,9.5,0.8,13.5,2.5c4.1,1.6,7.4,3.8,10.2,6.4L1298,135.6z"/>
	<path class="st3" d="M1399.8,193.4h-7.8c-1.6,0-2.9-0.2-3.8-0.7c-0.9-0.5-1.6-1.5-2.1-3l-1.5-5.1c-1.8,1.6-3.6,3.1-5.4,4.3
		s-3.6,2.3-5.4,3.1c-1.9,0.8-3.9,1.5-6,1.9c-2.1,0.4-4.4,0.6-7,0.6c-3,0-5.8-0.4-8.4-1.2c-2.6-0.8-4.8-2-6.6-3.7
		c-1.8-1.6-3.3-3.7-4.3-6.1c-1-2.4-1.5-5.3-1.5-8.5c0-2.7,0.7-5.4,2.1-8c1.4-2.6,3.8-5,7.1-7.2c3.3-2.1,7.7-3.9,13.2-5.3
		c5.5-1.4,12.3-2.1,20.5-2.1v-4.2c0-4.8-1-8.4-3-10.8c-2-2.3-5-3.5-8.9-3.5c-2.8,0-5.1,0.3-7,1c-1.9,0.7-3.5,1.4-4.9,2.2
		c-1.4,0.8-2.6,1.6-3.8,2.2c-1.2,0.7-2.5,1-3.9,1c-1.2,0-2.2-0.3-3-0.9c-0.8-0.6-1.5-1.4-2-2.2l-3.1-5.5
		c8.3-7.6,18.2-11.3,29.9-11.3c4.2,0,7.9,0.7,11.2,2.1c3.3,1.4,6.1,3.3,8.4,5.7s4,5.4,5.2,8.8c1.2,3.4,1.8,7.1,1.8,11.2V193.4z
		 M1366.2,182.6c1.8,0,3.4-0.2,4.9-0.5c1.5-0.3,2.9-0.8,4.2-1.4c1.3-0.6,2.6-1.4,3.9-2.4c1.2-0.9,2.5-2.1,3.7-3.3v-12
		c-5,0-9.3,0.3-12.6,1c-3.4,0.6-6.1,1.4-8.2,2.4c-2.1,1-3.5,2.1-4.4,3.5c-0.9,1.3-1.3,2.7-1.3,4.3c0,3.1,0.9,5.2,2.7,6.6
		C1361,182,1363.3,182.6,1366.2,182.6z"/>
	<path class="st3" d="M1432.6,121.6v45.6c0,4.4,1,7.8,3,10.2c2,2.4,5.1,3.6,9.1,3.6c3,0,5.8-0.7,8.4-2s5.1-3.2,7.4-5.5v-51.9h17.3
		v71.8h-10.6c-2.2,0-3.7-1-4.4-3.2l-1.2-5.7c-1.5,1.5-3,2.9-4.6,4.1c-1.6,1.2-3.3,2.3-5.1,3.2c-1.8,0.9-3.7,1.5-5.8,2
		c-2.1,0.5-4.3,0.7-6.7,0.7c-3.9,0-7.4-0.7-10.4-2c-3-1.3-5.5-3.2-7.6-5.6c-2.1-2.4-3.6-5.3-4.7-8.6c-1-3.3-1.6-7-1.6-11v-45.6
		H1432.6z"/>
	<path class="st3" d="M1566.1,135.6c-0.5,0.7-1,1.3-1.5,1.6c-0.5,0.3-1.2,0.5-2,0.5c-0.8,0-1.7-0.2-2.7-0.7c-1-0.5-2.1-1-3.3-1.6
		c-1.3-0.6-2.7-1.1-4.3-1.6c-1.6-0.5-3.5-0.7-5.7-0.7c-3.4,0-6.1,0.7-8,2.2c-2,1.4-2.9,3.3-2.9,5.7c0,1.5,0.5,2.8,1.5,3.9
		c1,1,2.3,2,4,2.8c1.7,0.8,3.5,1.5,5.6,2.1c2.1,0.6,4.2,1.3,6.4,2.1c2.2,0.7,4.3,1.6,6.4,2.6c2.1,1,4,2.2,5.6,3.6
		c1.7,1.5,3,3.2,4,5.3c1,2.1,1.5,4.5,1.5,7.4c0,3.5-0.6,6.6-1.9,9.6c-1.3,2.9-3.1,5.4-5.5,7.6c-2.4,2.1-5.4,3.8-9,5
		c-3.6,1.2-7.7,1.8-12.3,1.8c-2.5,0-4.9-0.2-7.2-0.7c-2.4-0.4-4.6-1.1-6.8-1.9c-2.2-0.8-4.2-1.7-6-2.8c-1.8-1.1-3.5-2.2-4.9-3.5
		l4-6.6c0.5-0.8,1.1-1.4,1.8-1.8s1.6-0.6,2.7-0.6c1.1,0,2.1,0.3,3,0.9c1,0.6,2.1,1.3,3.3,2c1.3,0.7,2.7,1.4,4.4,2
		c1.7,0.6,3.9,0.9,6.5,0.9c2.1,0,3.8-0.2,5.3-0.7c1.5-0.5,2.7-1.1,3.6-1.9c1-0.8,1.7-1.7,2.1-2.8s0.7-2.1,0.7-3.3
		c0-1.7-0.5-3.1-1.5-4.1c-1-1.1-2.3-2-4-2.8c-1.7-0.8-3.5-1.5-5.7-2.1c-2.1-0.6-4.3-1.3-6.5-2.1c-2.2-0.7-4.4-1.6-6.5-2.6
		c-2.1-1-4-2.3-5.7-3.8c-1.7-1.5-3-3.4-4-5.7c-1-2.2-1.5-4.9-1.5-8.1c0-2.9,0.6-5.7,1.8-8.4c1.2-2.7,2.9-5,5.1-7s5.1-3.6,8.5-4.8
		c3.4-1.2,7.3-1.8,11.7-1.8c4.9,0,9.5,0.8,13.5,2.5c4.1,1.6,7.4,3.8,10.2,6.4L1566.1,135.6z"/>
	<path class="st3" d="M1600.4,121.6v45.6c0,4.4,1,7.8,3,10.2c2,2.4,5.1,3.6,9.1,3.6c3,0,5.8-0.7,8.4-2s5.1-3.2,7.4-5.5v-51.9h17.3
		v71.8h-10.6c-2.2,0-3.7-1-4.4-3.2l-1.2-5.7c-1.5,1.5-3,2.9-4.6,4.1c-1.6,1.2-3.3,2.3-5.1,3.2c-1.8,0.9-3.7,1.5-5.8,2
		c-2.1,0.5-4.3,0.7-6.7,0.7c-3.9,0-7.4-0.7-10.4-2c-3-1.3-5.5-3.2-7.6-5.6c-2.1-2.4-3.6-5.3-4.7-8.6c-1-3.3-1.6-7-1.6-11v-45.6
		H1600.4z"/>
	<path class="st3" d="M1664.2,216.9v-95.3h10.6c1.1,0,2.1,0.3,2.9,0.8c0.8,0.5,1.3,1.3,1.5,2.4l1.4,6.7c2.9-3.3,6.2-6,10-8.1
		c3.8-2.1,8.2-3.1,13.2-3.1c3.9,0,7.5,0.8,10.7,2.5c3.2,1.6,6,4,8.4,7.1s4.2,6.9,5.5,11.5s1.9,9.8,1.9,15.6c0,5.4-0.7,10.3-2.2,14.9
		c-1.4,4.6-3.5,8.5-6.2,11.9c-2.7,3.4-5.9,6-9.7,7.9c-3.8,1.9-8.1,2.8-12.8,2.8c-4.1,0-7.5-0.6-10.3-1.9c-2.8-1.2-5.4-3-7.6-5.1
		v29.4H1664.2z M1697.8,133.9c-3.6,0-6.7,0.8-9.2,2.3c-2.5,1.5-4.9,3.7-7.1,6.4v32.2c2,2.4,4.1,4.1,6.4,5.1c2.3,1,4.8,1.4,7.5,1.4
		c2.6,0,5-0.5,7.1-1.5c2.1-1,3.9-2.5,5.4-4.5c1.5-2,2.6-4.5,3.4-7.6c0.8-3.1,1.2-6.7,1.2-10.8c0-4.2-0.3-7.8-1-10.7
		c-0.7-2.9-1.6-5.3-2.9-7.1s-2.8-3.2-4.6-4C1702.1,134.3,1700.1,133.9,1697.8,133.9z"/>
	<path class="st3" d="M1743.4,216.9v-95.3h10.6c1.1,0,2.1,0.3,2.9,0.8c0.8,0.5,1.3,1.3,1.5,2.4l1.4,6.7c2.9-3.3,6.2-6,10-8.1
		c3.8-2.1,8.2-3.1,13.2-3.1c3.9,0,7.5,0.8,10.7,2.5c3.2,1.6,6,4,8.4,7.1s4.2,6.9,5.5,11.5s1.9,9.8,1.9,15.6c0,5.4-0.7,10.3-2.2,14.9
		c-1.4,4.6-3.5,8.5-6.2,11.9c-2.7,3.4-5.9,6-9.7,7.9c-3.8,1.9-8.1,2.8-12.8,2.8c-4.1,0-7.5-0.6-10.3-1.9c-2.8-1.2-5.4-3-7.6-5.1
		v29.4H1743.4z M1777,133.9c-3.6,0-6.7,0.8-9.2,2.3c-2.5,1.5-4.9,3.7-7.1,6.4v32.2c2,2.4,4.1,4.1,6.4,5.1c2.3,1,4.8,1.4,7.5,1.4
		c2.6,0,5-0.5,7.1-1.5c2.1-1,3.9-2.5,5.4-4.5c1.5-2,2.6-4.5,3.4-7.6c0.8-3.1,1.2-6.7,1.2-10.8c0-4.2-0.3-7.8-1-10.7
		c-0.7-2.9-1.6-5.3-2.9-7.1s-2.8-3.2-4.6-4C1781.3,134.3,1779.3,133.9,1777,133.9z"/>
	<path class="st3" d="M1853.2,120.5c5.4,0,10.2,0.9,14.6,2.6c4.4,1.7,8.1,4.2,11.2,7.3c3.1,3.2,5.5,7,7.1,11.6
		c1.7,4.6,2.5,9.7,2.5,15.3c0,5.7-0.8,10.8-2.5,15.4c-1.7,4.6-4.1,8.5-7.1,11.7s-6.8,5.7-11.2,7.4c-4.4,1.7-9.2,2.6-14.6,2.6
		c-5.4,0-10.2-0.9-14.6-2.6s-8.1-4.2-11.2-7.4c-3.1-3.2-5.5-7.1-7.2-11.7c-1.7-4.6-2.6-9.7-2.6-15.4c0-5.6,0.9-10.8,2.6-15.3
		c1.7-4.6,4.1-8.4,7.2-11.6c3.1-3.2,6.8-5.6,11.2-7.3S1847.8,120.5,1853.2,120.5z M1853.2,181.1c6,0,10.4-2,13.3-6s4.3-9.9,4.3-17.6
		c0-7.7-1.4-13.6-4.3-17.7c-2.9-4.1-7.3-6.1-13.3-6.1c-6.1,0-10.5,2-13.4,6.1c-2.9,4.1-4.3,10-4.3,17.7s1.4,13.6,4.3,17.6
		C1842.7,179.1,1847.1,181.1,1853.2,181.1z"/>
	<path class="st3" d="M1902.1,193.4v-71.8h10.1c1.8,0,3,0.3,3.7,1c0.7,0.7,1.2,1.8,1.4,3.4l1,8.7c2.6-4.4,5.6-7.9,9-10.5
		c3.5-2.6,7.3-3.9,11.6-3.9c3.5,0,6.5,0.8,8.8,2.5l-2.2,13c-0.1,0.8-0.4,1.4-0.9,1.8c-0.5,0.3-1.1,0.5-1.9,0.5
		c-0.7,0-1.7-0.2-2.9-0.5c-1.2-0.3-2.8-0.5-4.8-0.5c-3.6,0-6.7,1-9.2,3c-2.6,2-4.7,4.9-6.5,8.7v44.7H1902.1z"/>
	<path class="st3" d="M1982.9,194.5c-6.2,0-11-1.8-14.3-5.3c-3.4-3.5-5-8.4-5-14.6v-40.1h-7.3c-0.9,0-1.7-0.3-2.4-0.9
		c-0.7-0.6-1-1.5-1-2.7V124l11.5-1.9l3.6-19.6c0.2-0.9,0.6-1.7,1.3-2.2c0.7-0.5,1.5-0.8,2.6-0.8h9v22.6h18.9v12.3h-18.9v38.9
		c0,2.2,0.6,4,1.7,5.2s2.6,1.9,4.5,1.9c1.1,0,2-0.1,2.7-0.4c0.7-0.3,1.4-0.5,1.9-0.8c0.5-0.3,1-0.5,1.4-0.8c0.4-0.3,0.8-0.4,1.3-0.4
		c0.5,0,0.9,0.1,1.3,0.4c0.3,0.3,0.7,0.6,1.1,1.2l5.2,8.4c-2.5,2.1-5.4,3.7-8.7,4.8C1989.8,194,1986.4,194.5,1982.9,194.5z"/>
</g>
</svg>
