<?xml version="1.0" encoding="utf-8"?>
<!-- Generator: Adobe Illustrator 26.0.2, SVG Export Plug-In . SVG Version: 6.00 Build 0)  -->
<svg version="1.1" id="Calque_1" xmlns="http://www.w3.org/2000/svg" xmlns:xlink="http://www.w3.org/1999/xlink" x="0px" y="0px"
	 viewBox="0 0 1000 1000" style="enable-background:new 0 0 1000 1000;" xml:space="preserve">
<path d="M288.4,802.2c0-33.5-26.9-60.4-60.4-60.4s-60.5,26.9-60.5,60.4s26.9,60.5,60.5,60.5S288.4,835.8,288.4,802.2L288.4,802.2z
	 M469.8,802.2c0-33.5-26.9-60.4-60.5-60.4s-60.4,26.9-60.4,60.4s26.9,60.5,60.4,60.5S469.8,835.8,469.8,802.2z M288.4,620.9
	c0-33.6-26.9-60.5-60.4-60.5s-60.5,26.9-60.5,60.5s26.9,60.4,60.5,60.4S288.4,654.4,288.4,620.9L288.4,620.9z M651.1,802.2
	c0-33.5-27-60.4-60.5-60.4s-60.4,26.9-60.4,60.4s26.9,60.5,60.4,60.5S651.1,835.8,651.1,802.2z M469.8,620.9
	c0-33.6-26.9-60.5-60.5-60.5s-60.4,26.9-60.4,60.5s26.9,60.4,60.4,60.4S469.8,654.4,469.8,620.9z M288.4,439.6
	c0-33.5-26.9-60.5-60.4-60.5s-60.5,27-60.5,60.5S194.4,500,228,500S288.4,473.1,288.4,439.6L288.4,439.6z M651.1,620.9
	c0-33.6-27-60.5-60.5-60.5s-60.4,26.9-60.4,60.5s26.9,60.4,60.4,60.4S651.1,654.4,651.1,620.9z M469.8,439.6
	c0-33.5-26.9-60.5-60.5-60.5s-60.4,27-60.4,60.5s26.9,60.4,60.4,60.4S469.8,473.1,469.8,439.6z M832.4,802.2V620.9
	c0-33.1-27.3-60.5-60.4-60.5l0,0c-33,0-60.4,27.4-60.4,60.5v181.3c0,33.1,27.4,60.5,60.4,60.5l0,0
	C805.1,862.7,832.4,835.3,832.4,802.2z M651.1,439.6c0-33.5-27-60.5-60.5-60.5s-60.4,27-60.4,60.5s26.9,60.4,60.4,60.4
	S651.1,473.1,651.1,439.6z M832.4,288.4V167.5c0-16.5-13.6-30.2-30.2-30.2H197.7c-16.5,0-30.2,13.7-30.2,30.2v120.9
	c0,16.5,13.7,30.2,30.2,30.2h604.5C818.8,318.6,832.4,304.9,832.4,288.4L832.4,288.4z M832.4,439.6c0-33.5-26.9-60.5-60.4-60.5
	s-60.4,27-60.4,60.5S738.5,500,772,500S832.4,473.1,832.4,439.6z M892.9,137.3v725.4c0,33-27.4,60.4-60.5,60.4H167.5
	c-33,0-60.4-27.4-60.4-60.4V137.3c0-33,27.4-60.4,60.4-60.4h664.9C865.5,76.9,892.9,104.3,892.9,137.3z"/>
</svg>
