<?xml version="1.0" encoding="utf-8"?>
<!-- Generator: Adobe Illustrator 23.0.2, SVG Export Plug-In . SVG Version: 6.00 Build 0)  -->
<svg version="1.1" id="Calque_1" xmlns="http://www.w3.org/2000/svg" xmlns:xlink="http://www.w3.org/1999/xlink" x="0px" y="0px"
	 viewBox="0 0 857.1 1000" style="enable-background:new 0 0 857.1 1000;" xml:space="preserve">
<style type="text/css">
	.st0{fill:#65A907;}
</style>
<path class="st0" d="M716.5,409.6c0-9.5-3.3-19-10-25.7l-50.8-50.2c-6.7-6.7-15.6-10.6-25.1-10.6s-18.4,3.9-25.1,10.6L377.8,560.8
	L251.7,434.7c-6.7-6.7-15.7-10.6-25.1-10.6s-18.5,3.9-25.1,10.6l-50.8,50.2c-6.7,6.7-10.1,16.2-10.1,25.7c0,9.5,3.4,18.4,10.1,25.1
	l202,202c6.7,6.7,16.2,10.6,25.1,10.6c9.5,0,19-3.9,25.7-10.6l303-303C713.2,428,716.5,419.1,716.5,409.6z M857.1,500
	c0,236.6-191.9,428.6-428.5,428.6S0,736.6,0,500S192,71.4,428.6,71.4S857.1,263.4,857.1,500L857.1,500z"/>
</svg>
