<?xml version="1.0" encoding="utf-8"?>
<!-- Generator: Adobe Illustrator 22.1.0, SVG Export Plug-In . SVG Version: 6.00 Build 0)  -->
<svg version="1.1" id="Calque_1" xmlns="http://www.w3.org/2000/svg" xmlns:xlink="http://www.w3.org/1999/xlink" x="0px" y="0px"
	 viewBox="0 0 877 293" style="enable-background:new 0 0 877 293;" xml:space="preserve">
<style type="text/css">
	.st0{fill:#D81E08;}
	.st1{fill:#F7D2CE;}
</style>
<g>
	<path class="st0" d="M0,267V26C0,11.6,11.6,0,26,0h825c14.4,0,26,11.6,26,26v241c0,14.4-11.6,26-26,26H26C11.6,293,0,281.4,0,267z"
		/>
	<path class="st1" d="M853.1,274.6H23.9c-3.3,0-6-2.7-6-6V24.4c0-3.3,2.7-6,6-6h829.3c3.3,0,6,2.7,6,6v244.3
		C859.1,271.9,856.4,274.6,853.1,274.6z"/>
</g>
<g>
	<path class="st0" d="M152.1,169c0.9,0,1.6,0.3,2.3,1l6.4,6.9c-3.5,4.4-7.9,7.7-13,10c-5.1,2.3-11.3,3.5-18.5,3.5
		c-6.4,0-12.2-1.1-17.4-3.3c-5.1-2.2-9.5-5.3-13.2-9.2c-3.6-3.9-6.4-8.6-8.4-14c-1.9-5.4-2.9-11.4-2.9-17.8c0-6.5,1.1-12.5,3.2-17.9
		c2.2-5.4,5.2-10.1,9.1-14c3.9-3.9,8.6-7,14.1-9.2c5.5-2.2,11.5-3.3,18.1-3.3c6.4,0,12.1,1,16.9,3.1c4.8,2.1,8.9,4.8,12.4,8.2
		l-5.4,7.5c-0.3,0.5-0.7,0.9-1.2,1.3c-0.5,0.4-1.2,0.5-2.1,0.5c-0.9,0-1.9-0.4-2.8-1.1s-2.2-1.5-3.7-2.3c-1.5-0.8-3.4-1.6-5.6-2.3
		c-2.3-0.7-5.1-1.1-8.6-1.1c-4.1,0-7.8,0.7-11.2,2.1s-6.4,3.5-8.8,6.1s-4.4,5.8-5.8,9.6s-2.1,8-2.1,12.8c0,4.9,0.7,9.2,2.1,13
		s3.2,7,5.6,9.6c2.4,2.6,5.1,4.6,8.3,6c3.2,1.4,6.6,2.1,10.3,2.1c2.2,0,4.2-0.1,6-0.4c1.8-0.2,3.4-0.6,4.9-1.1
		c1.5-0.5,2.9-1.2,4.3-2c1.3-0.8,2.7-1.8,4-3c0.4-0.4,0.8-0.6,1.3-0.9C151.1,169.1,151.5,169,152.1,169z"/>
	<path class="st0" d="M256.1,146c0,6.4-1.1,12.2-3.2,17.7c-2.1,5.4-5.1,10.1-8.9,14.1c-3.8,4-8.5,7-13.9,9.3
		c-5.4,2.2-11.4,3.3-17.9,3.3c-6.6,0-12.6-1.1-18-3.3c-5.4-2.2-10.1-5.3-13.9-9.3c-3.9-4-6.9-8.6-9-14.1c-2.1-5.4-3.2-11.3-3.2-17.7
		s1.1-12.2,3.2-17.7c2.1-5.4,5.1-10.1,9-14.1c3.9-4,8.5-7,13.9-9.3c5.4-2.2,11.4-3.3,18-3.3c6.6,0,12.5,1.1,17.9,3.4
		s10,5.3,13.9,9.3c3.8,3.9,6.8,8.6,8.9,14C255,133.8,256.1,139.7,256.1,146z M239.5,146c0-4.8-0.6-9-1.9-12.8
		c-1.3-3.8-3.1-7-5.4-9.6c-2.4-2.6-5.2-4.7-8.6-6.1c-3.4-1.4-7.2-2.1-11.4-2.1c-4.2,0-8.1,0.7-11.5,2.1c-3.4,1.4-6.3,3.4-8.7,6.1
		c-2.4,2.6-4.2,5.8-5.5,9.6c-1.3,3.8-1.9,8-1.9,12.8c0,4.8,0.6,9,1.9,12.8c1.3,3.8,3.1,7,5.5,9.6c2.4,2.6,5.3,4.6,8.7,6
		c3.4,1.4,7.2,2.1,11.5,2.1c4.2,0,8-0.7,11.4-2.1c3.4-1.4,6.2-3.4,8.6-6c2.4-2.6,4.2-5.8,5.4-9.6C238.9,155.1,239.5,150.8,239.5,146
		z"/>
	<path class="st0" d="M279.1,102.8c0.5,0.1,0.9,0.2,1.3,0.4c0.4,0.2,0.8,0.4,1.1,0.8s0.8,0.8,1.2,1.3l45.5,58
		c-0.2-1.4-0.3-2.8-0.3-4.1c-0.1-1.3-0.1-2.6-0.1-3.8v-52.7H342v86.8h-8.3c-1.3,0-2.3-0.2-3.2-0.6c-0.8-0.4-1.7-1.1-2.5-2.2
		l-45.4-57.8c0.1,1.3,0.2,2.5,0.3,3.8c0.1,1.3,0.1,2.4,0.1,3.5v53.3h-14.2v-86.8h8.5C278,102.7,278.6,102.7,279.1,102.8z"/>
	<path class="st0" d="M414.3,102.7v12.8h-38.5v25.7h32.5v12.9h-32.5v35.3h-16.3v-86.8H414.3z"/>
	<path class="st0" d="M445.1,189.4h-16.2v-86.8h16.2V189.4z"/>
	<path class="st0" d="M481.3,155.5v33.9h-16.1v-86.8h26.5c5.9,0,11,0.6,15.2,1.8c4.2,1.2,7.7,2.9,10.4,5.1c2.7,2.2,4.7,4.8,5.9,7.9
		c1.3,3.1,1.9,6.4,1.9,10.1c0,2.9-0.4,5.7-1.3,8.3c-0.9,2.6-2.1,5-3.7,7.1s-3.6,4-6,5.6s-5.1,2.9-8.1,3.8c2,1.2,3.8,2.8,5.3,5
		l21.7,32h-14.5c-1.4,0-2.6-0.3-3.6-0.8c-1-0.6-1.8-1.4-2.5-2.4l-18.2-27.8c-0.7-1-1.4-1.8-2.2-2.2c-0.8-0.4-2-0.7-3.6-0.7H481.3z
		 M481.3,144h10.1c3,0,5.7-0.4,7.9-1.1c2.3-0.8,4.1-1.8,5.6-3.1c1.5-1.3,2.6-2.9,3.3-4.8c0.7-1.8,1.1-3.9,1.1-6.1
		c0-4.4-1.4-7.8-4.3-10.1c-2.9-2.4-7.3-3.5-13.3-3.5h-10.3V144z"/>
	<path class="st0" d="M588.6,157.4c0.6,1.4,1.2,2.8,1.7,4.2c0.6-1.4,1.1-2.9,1.7-4.3c0.6-1.4,1.2-2.7,1.9-4l25.7-48.1
		c0.3-0.6,0.6-1.1,1-1.4c0.3-0.4,0.7-0.6,1.1-0.8s0.9-0.3,1.4-0.3c0.5,0,1.1-0.1,1.9-0.1h12.2v86.8h-14.2v-56c0-1,0-2.2,0.1-3.4
		c0.1-1.2,0.2-2.5,0.3-3.8l-26.2,49.2c-0.6,1.1-1.4,2-2.3,2.6c-1,0.6-2.1,0.9-3.4,0.9h-2.2c-1.3,0-2.4-0.3-3.4-0.9s-1.7-1.5-2.3-2.6
		L557,126c0.2,1.3,0.3,2.6,0.3,3.9s0.1,2.4,0.1,3.5v56h-14.2v-86.8h12.2c0.7,0,1.3,0,1.9,0.1c0.5,0,1,0.1,1.4,0.3s0.8,0.4,1.2,0.8
		c0.4,0.4,0.7,0.8,1,1.4l25.9,48.2C587.4,154.7,588.1,156,588.6,157.4z"/>
	<path class="st0" d="M709.5,102.7v12.8h-38.5v24.1h30.3V152h-30.3v24.5h38.5v12.9h-54.7v-86.8H709.5z"/>
	<path class="st0" d="M740.2,155.5v33.9H724v-86.8h26.5c5.9,0,11,0.6,15.2,1.8c4.2,1.2,7.7,2.9,10.4,5.1c2.7,2.2,4.7,4.8,5.9,7.9
		c1.3,3.1,1.9,6.4,1.9,10.1c0,2.9-0.4,5.7-1.3,8.3c-0.9,2.6-2.1,5-3.7,7.1s-3.6,4-6,5.6s-5.1,2.9-8.1,3.8c2,1.2,3.8,2.8,5.3,5
		l21.7,32h-14.5c-1.4,0-2.6-0.3-3.6-0.8c-1-0.6-1.8-1.4-2.5-2.4L753,158.4c-0.7-1-1.4-1.8-2.2-2.2c-0.8-0.4-2-0.7-3.6-0.7H740.2z
		 M740.2,144h10.1c3,0,5.7-0.4,7.9-1.1c2.3-0.8,4.1-1.8,5.6-3.1c1.5-1.3,2.6-2.9,3.3-4.8c0.7-1.8,1.1-3.9,1.1-6.1
		c0-4.4-1.4-7.8-4.3-10.1c-2.9-2.4-7.3-3.5-13.3-3.5h-10.3V144z"/>
</g>
</svg>
