<?xml version="1.0" encoding="utf-8"?>
<!-- Generator: Adobe Illustrator 24.3.0, SVG Export Plug-In . SVG Version: 6.00 Build 0)  -->
<svg version="1.1" id="Calque_1" xmlns="http://www.w3.org/2000/svg" xmlns:xlink="http://www.w3.org/1999/xlink" x="0px" y="0px"
	 viewBox="0 0 834 832" style="enable-background:new 0 0 834 832;" xml:space="preserve">
<style type="text/css">
	.st0{fill:#333333;}
</style>
<path class="st0" d="M820.3,386.7c9.1,7.8,13.7,17.6,13.7,29.3s-4.6,21.5-13.7,29.3l-375,375c-7.8,7.8-17.6,11.7-29.3,11.7
	s-21.5-3.9-29.3-11.7l-375-375C3.9,437.5,0,427.7,0,416s3.9-21.5,11.7-29.3l375-375C394.5,3.9,404.3,0,416,0s21.5,3.9,29.3,11.7
	L820.3,386.7z M500,519.5L646.5,375L500,228.5V332H291c-11.7,0-21.5,4.2-29.3,12.7c-7.8,8.5-11.7,18.6-11.7,30.3v166h84V416h166
	V519.5z"/>
</svg>
