<?xml version="1.0" encoding="utf-8"?>
<!-- Generator: Adobe Illustrator 26.0.2, SVG Export Plug-In . SVG Version: 6.00 Build 0)  -->
<svg version="1.1" id="Calque_1" xmlns="http://www.w3.org/2000/svg" xmlns:xlink="http://www.w3.org/1999/xlink" x="0px" y="0px"
	 viewBox="0 0 300 300" style="enable-background:new 0 0 300 300;" xml:space="preserve">
<style type="text/css">
	.st0{fill:#FFFFFF;}
	.st1{fill:#0778CB;}
</style>
<g>
	<g>
		<path class="st0" d="M161.1,232.6l-11.1-6.4l25.4-44.5h38.1c7,0,12.7-5.7,12.7-12.7V92.8c0-7-5.7-12.7-12.7-12.7H86.4
			c-7,0-12.7,5.7-12.7,12.7v76.3c0,7,5.7,12.7,12.7,12.7h57.2v12.7H86.4c-14,0-25.4-11.4-25.4-25.4V92.8c0-14,11.4-25.4,25.4-25.4
			h127.1c14,0,25.4,11.4,25.4,25.4v76.3c0,14-11.4,25.4-25.4,25.4h-30.8L161.1,232.6z"/>
		<path class="st0" d="M99.1,105.5h101.7v12.7H99.1V105.5z M99.1,143.6h63.6v12.7H99.1V143.6z"/>
	</g>
</g>
<path class="st1" d="M270,300H30c-16.5,0-30-13.5-30-30V30C0,13.5,13.5,0,30,0h240c16.5,0,30,13.5,30,30v240
	C300,286.5,286.5,300,270,300z"/>
<g>
	<g>
		<path class="st0" d="M125.7,84.8c-8.7,0-15.6,7.4-15.6,16.3c0,9,6.9,16.3,15.6,16.3c8.7,0,15.7-7.4,15.7-16.3
			S134.3,84.8,125.7,84.8z M129.7,104.1c-3.5,0-6.5-3.1-6.5-6.9s2.9-6.9,6.5-6.9c3.5,0,6.5,3.1,6.5,6.9
			C136.1,101,133.2,104.1,129.7,104.1z"/>
		<path class="st0" d="M179.8,84.8c-8.7,0-15.6,7.4-15.6,16.3c0,9,6.9,16.3,15.6,16.3s15.7-7.4,15.7-16.3
			C195.3,92.1,188.3,84.8,179.8,84.8z M183.7,104.1c-3.5,0-6.5-3.1-6.5-6.9s2.9-6.9,6.5-6.9c3.5,0,6.5,3.1,6.5,6.9
			C190.2,101,187.2,104.1,183.7,104.1z"/>
	</g>
	<path class="st0" d="M182.4,235.8c-0.5,2.5-1.6,5-2.7,6.9c-0.7,1.4-2.8,1-3.1-0.5c0-0.1-0.1-0.3-0.1-0.4c-0.4-1.7-2.7-1.7-3.2,0
		c-0.5,1.4-1.1,2.8-2,4.1c-0.7,1-2.2,0.9-2.9-0.2c-1-1.8-2.4-5-3.7-9.9l0,0c-0.6,2.3-1.1,4.9-1.5,6.9c-0.2,1.4-1.9,1.9-2.9,0.9
		c-2.3-2.4-3.2-5.7-3.5-7.8h-11.6c-0.3,2.1-1.1,5.3-3.4,7.7c-0.9,1-2.7,0.5-2.9-0.9c-0.3-1.9-0.7-4.5-1.4-6.8h-0.2
		c-1.2,4.8-2.6,8-3.6,9.9c-0.6,1.1-2.1,1.2-2.9,0.2c-0.9-1.3-1.6-2.7-1.9-4c-0.6-1.6-2.9-1.4-3.2,0.3v0.1c-0.4,1.5-2.4,1.8-3.1,0.5
		c-1-1.9-2.1-4.3-2.6-6.8H50v13.5h200v-13.7H182.4z"/>
	<path class="st0" d="M198,71.3c5.3-1.8,10.5-4,15.8-6.4c0.5-0.2,0.7-0.6,0.9-1l3.3-10c0.5-1.5-1-2.7-2.4-2
		c-10,5.3-19.6,9-29.3,11.8c-10.3-5.2-22.1-7.6-34.6-7.6c-11.9,0-22.9,2.2-32.6,6.9c-9.8-2.9-19.4-7.1-29.1-12.4
		c-1.3-0.7-2.9,0.6-2.4,1.9l3.1,10c0.2,0.5,0.5,0.8,0.9,1c5.3,2.6,10.5,4.8,15.9,6.7C92,82.9,82.3,104.1,82.3,135.5
		c0,39.3,15.9,73.2,39,89.7c0.7-1.8,1.8-2.9,3.1-2.9c1.3,0,2.2,0.4,2.8,0.8c0.7,0.6,1.8,0.6,2.4-0.3c0.7-0.9,1.8-1.8,3.7-1.8
		c1.8-0.1,2.9,0.7,3.6,2.3c0.4,0.9,1.5,1,2.3,0.6c0.9-0.6,2.1-0.6,3.3-0.6c2.9,0,3.4,3.5,3.1,11.9c0,0.1,0,0.2,0,0.3
		c2.4,0.4,4.9,0.6,7.4,0.6c1.4,0,2.9-0.2,4.2-0.3c0-0.2-0.1-0.4-0.1-0.6c-0.3-8.4,0.2-11.8,3.1-11.9c1.3-0.1,2.5,0,3.4,0.6
		c0.8,0.5,1.9,0.4,2.3-0.6c0.6-1.5,1.8-2.4,3.6-2.3c1.8,0.1,2.9,0.9,3.7,1.8c0.6,0.7,1.7,0.8,2.4,0.3c0.6-0.5,1.5-0.8,2.9-0.8
		c1.8,0,3,2,3.8,4.6c24.3-15.9,41.3-50.7,41.3-91.2C223.4,104.9,213.4,84,198,71.3z M125.6,200.2c-0.4,1.8-2.9,1.8-3.2,0l-2.1-9.3
		l2.4,3.2c0.6,0.9,2,0.9,2.7,0l2.6-3.5L125.6,200.2z M133.4,176.1c-0.4,1.8-2.9,1.8-3.2,0l-2.1-9.3l2.4,3.2c0.6,0.9,2,0.9,2.7,0
		l2.6-3.5L133.4,176.1z M154.3,162.5c-0.4,1.8-2.9,1.8-3.2,0l-2.1-9.3l2.4,3.2c0.6,0.9,2,0.9,2.7,0l2.6-3.5L154.3,162.5z
		 M175.2,176.1c-0.4,1.8-2.9,1.8-3.2,0l-2.1-9.3l2.4,3.2c0.6,0.9,2,0.9,2.7,0l2.6-3.5L175.2,176.1z M183,200.2
		c-0.4,1.8-2.9,1.8-3.2,0l-2.1-9.3l2.4,3.2c0.6,0.9,2,0.9,2.7,0l2.6-3.5L183,200.2z M200.8,132c-14.7,6.5-29.3-0.2-41.3-12.8
		c-0.6,3.8-3.5,8.7-5.3,11.4c-0.6,1-2.1,1-2.8,0c-1.6-2.2-3.9-6-5-9.3c-12.6,12.7-27.9,18.8-43,11.4c-17.5-8.6-12.9-40.1,8-60
		c0.5-0.5,1.1-0.6,1.7-0.4c0,0,0,0,0.1,0c3,1,6.1,1.8,9.2,2.6c0.6,0.2,1.1,0.3,1.8,0.4c2.5,0.6,4.9,1.1,7.4,1.5
		c0.7,0.1,1.5,0.3,2.3,0.4c2.6,0.4,5.2,0.7,7.7,1c0.5,0,0.9,0.1,1.4,0.2c3.1,0.3,6.3,0.5,9.4,0.5c0.4,0,0.8,0,1.2,0
		c2.7,0,5.3-0.1,8-0.2c0.8,0,1.6-0.1,2.4-0.2c2.5-0.2,5-0.5,7.5-0.8c0.6-0.1,1.3-0.2,1.9-0.3c3.1-0.5,6.4-1,9.5-1.8
		c0.1,0,0.2,0,0.3-0.1c3-0.6,6-1.5,9-2.4c0.3-0.1,0.6-0.2,0.9-0.3c0.6-0.2,1.1-0.1,1.6,0.3C218.2,92.9,217.5,124.8,200.8,132z"/>
</g>
</svg>
