<?xml version="1.0" encoding="utf-8"?>
<!-- Generator: Adobe Illustrator 24.3.0, SVG Export Plug-In . SVG Version: 6.00 Build 0)  -->
<svg version="1.1" id="Calque_1" focusable="false" xmlns="http://www.w3.org/2000/svg" xmlns:xlink="http://www.w3.org/1999/xlink"
	 x="0px" y="0px" viewBox="0 0 352 512" style="enable-background:new 0 0 352 512;" xml:space="preserve">
<style type="text/css">
	.st0{fill:#333333;}
</style>
<path class="st0" d="M176,351.8c53.1,0,96-42.9,96-96V96c0-53.1-42.9-96-96-96S80,42.9,80,96v159.9C80,308.9,122.9,351.8,176,351.8z
	 M335.9,191.8h-16c-8.9,0-16,7.2-16,16v48c0,74.7-64.5,134.8-140.7,127.4c-66.4-6.5-115.1-66.3-115.1-133V208c0-8.9-7.2-16-16-16
	h-16c-8.9,0-16,7.2-16,16v40.1c0,89.6,63.9,169.4,152,181.6v34.2h-56c-8.9,0-16,7.2-16,16v16c0,8.9,7.2,16,16,16H256
	c8.9,0,16-7.2,16-16v-16c0-8.9-7.2-16-16-16h-56v-33.8c85.7-11.8,152-85.3,152-174.1v-48C351.9,199,344.7,191.8,335.9,191.8z"/>
</svg>
