<?xml version="1.0" encoding="utf-8"?>
<!-- Generator: Adobe Illustrator 23.0.2, SVG Export Plug-In . SVG Version: 6.00 Build 0)  -->
<svg version="1.1" id="Calque_1" xmlns="http://www.w3.org/2000/svg" xmlns:xlink="http://www.w3.org/1999/xlink" x="0px" y="0px"
	 viewBox="0 0 857.1 1000" style="enable-background:new 0 0 857.1 1000;" xml:space="preserve">
<style type="text/css">
	.st0{fill:#FF8811;}
</style>
<path class="st0" d="M428.6,71.4c236.6,0,428.5,192,428.5,428.6S665.2,928.6,428.6,928.6S0,736.6,0,500S192,71.4,428.6,71.4
	L428.6,71.4z M500,767.3v-106c0-10.1-7.8-18.4-17.3-18.4H375.6c-10.1,0-18.5,8.3-18.5,18.4v106c0,10,8.4,18.4,18.5,18.4h107.1
	C492.2,785.7,500,777.3,500,767.3z M498.9,575.3l10-346.5c0-3.9-1.6-7.8-5.6-10c-3.3-2.8-8.3-4.5-13.3-4.5H367.2
	c-5,0-10.1,1.7-13.4,4.5c-3.9,2.2-5.6,6.1-5.6,10l9.5,346.5c0,7.8,8.4,14,19,14h103.2C490,589.3,498.3,583.1,498.9,575.3
	L498.9,575.3z"/>
</svg>
