<?xml version="1.0" encoding="utf-8"?>
<!-- Generator: Adobe Illustrator 22.1.0, SVG Export Plug-In . SVG Version: 6.00 Build 0)  -->
<svg version="1.1" id="Calque_1" xmlns="http://www.w3.org/2000/svg" xmlns:xlink="http://www.w3.org/1999/xlink" x="0px" y="0px"
	 viewBox="0 0 847 293" style="enable-background:new 0 0 847 293;" xml:space="preserve">
<style type="text/css">
	.st0{fill:#D81E08;}
	.st1{fill:#F7D2CE;}
</style>
<g>
	<path class="st0" d="M0,267V26C0,11.6,11.6,0,26,0h795c14.4,0,26,11.6,26,26v241c0,14.4-11.6,26-26,26H26C11.6,293,0,281.4,0,267z"
		/>
	<path class="st1" d="M823.1,274.6H23.9c-3.3,0-6-2.7-6-6V24.4c0-3.3,2.7-6,6-6h799.3c3.3,0,6,2.7,6,6v244.3
		C829.1,271.9,826.4,274.6,823.1,274.6z"/>
</g>
<g>
	<path class="st0" d="M250.2,102.7v12.8h-38.5v25.7h32.5v12.9h-32.5v35.3h-16.3v-86.8h54.8V102.7z"/>
	<path class="st0" d="M317.6,102.7v12.8h-38.5v24.1h30.3V152h-30.3v24.5h38.5v12.9h-54.7v-86.8h54.7V102.7z"/>
	<path class="st0" d="M348.2,155.5v33.9h-16.1v-86.8h26.5c5.9,0,11,0.6,15.2,1.8c4.2,1.2,7.7,2.9,10.4,5.1c2.7,2.2,4.7,4.8,5.9,7.9
		c1.3,3.1,1.9,6.4,1.9,10.1c0,2.9-0.4,5.7-1.3,8.3c-0.9,2.6-2.1,5-3.7,7.1s-3.6,4-6,5.6s-5.1,2.9-8.1,3.8c2,1.2,3.8,2.8,5.3,5
		l21.7,32h-14.5c-1.4,0-2.6-0.3-3.6-0.8c-1-0.6-1.8-1.4-2.5-2.4L361,158.4c-0.7-1-1.4-1.8-2.2-2.2c-0.8-0.4-2-0.7-3.6-0.7H348.2z
		 M348.2,144h10.1c3,0,5.7-0.4,8-1.1c2.3-0.8,4.1-1.8,5.6-3.1s2.6-2.9,3.3-4.8c0.7-1.8,1.1-3.9,1.1-6.1c0-4.4-1.5-7.8-4.4-10.1
		c-2.9-2.4-7.3-3.5-13.3-3.5h-10.3V144H348.2z"/>
	<path class="st0" d="M455.6,157.4c0.6,1.4,1.2,2.8,1.7,4.2c0.6-1.4,1.1-2.9,1.7-4.3c0.6-1.4,1.2-2.7,1.9-4l25.7-48.1
		c0.3-0.6,0.6-1.1,1-1.4c0.3-0.4,0.7-0.6,1.1-0.8s0.9-0.3,1.4-0.3s1.1-0.1,1.9-0.1h12.2v86.8H490v-56c0-1,0-2.2,0.1-3.4
		s0.2-2.5,0.3-3.8l-26.2,49.2c-0.6,1.1-1.4,2-2.3,2.6c-1,0.6-2.1,0.9-3.4,0.9h-2.2c-1.3,0-2.4-0.3-3.4-0.9s-1.7-1.5-2.3-2.6L424,126
		c0.2,1.3,0.3,2.6,0.3,3.9s0.1,2.4,0.1,3.5v56h-14.2v-86.8h12.2c0.7,0,1.3,0,1.9,0.1c0.5,0,1,0.1,1.4,0.3s0.8,0.4,1.2,0.8
		c0.4,0.4,0.7,0.8,1,1.4l25.9,48.2C454.4,154.7,455,156,455.6,157.4z"/>
	<path class="st0" d="M576.5,102.7v12.8H538v24.1h30.3V152H538v24.5h38.5v12.9h-54.7v-86.8h54.7V102.7z"/>
	<path class="st0" d="M607.1,155.5v33.9H591v-86.8h26.5c5.9,0,11,0.6,15.2,1.8c4.2,1.2,7.7,2.9,10.4,5.1s4.7,4.8,5.9,7.9
		c1.3,3.1,1.9,6.4,1.9,10.1c0,2.9-0.4,5.7-1.3,8.3c-0.9,2.6-2.1,5-3.7,7.1s-3.6,4-6,5.6s-5.1,2.9-8.1,3.8c2,1.2,3.8,2.8,5.3,5
		l21.7,32h-14.5c-1.4,0-2.6-0.3-3.6-0.8c-1-0.6-1.8-1.4-2.5-2.4L620,158.3c-0.7-1-1.4-1.8-2.2-2.2s-2-0.7-3.6-0.7L607.1,155.5
		L607.1,155.5z M607.1,144h10.1c3,0,5.7-0.4,7.9-1.1c2.3-0.8,4.1-1.8,5.6-3.1s2.6-2.9,3.3-4.8c0.7-1.8,1.1-3.9,1.1-6.1
		c0-4.4-1.4-7.8-4.3-10.1c-2.9-2.4-7.3-3.5-13.3-3.5h-10.3L607.1,144L607.1,144z"/>
</g>
</svg>
