<?xml version="1.0" encoding="utf-8"?>
<!-- Generator: Adobe Illustrator 24.3.0, SVG Export Plug-In . SVG Version: 6.00 Build 0)  -->
<svg version="1.1" id="Calque_1" xmlns="http://www.w3.org/2000/svg" xmlns:xlink="http://www.w3.org/1999/xlink" x="0px" y="0px"
	 viewBox="0 0 1000 1000" style="enable-background:new 0 0 1000 1000;" xml:space="preserve">
<style type="text/css">
	.st0{fill:#688ED8;stroke:#000000;stroke-miterlimit:10;}
	.st1{fill:#FFFFFF;}
</style>
<rect class="st0" width="1000" height="1000"/>
<path class="st1" d="M769.3,545.7v224.4c0,16.5-13.6,29.9-29.9,29.9H559.9V620.5H440.2V800H260.6c-16.5,0-29.9-13.5-29.9-29.9V545.7
	c0-0.9,0.5-1.9,0.5-2.8L500,321.2l268.9,221.7C769.3,543.8,769.3,544.8,769.3,545.7z M873.6,513.4l-29,34.6
	c-2.4,2.8-6.2,4.6-9.9,5.1h-1.4c-3.8,0-7.1-0.9-9.9-3.3L500,280.1L176.4,549.9c-3.3,2.4-7,3.8-11.2,3.3c-3.7-0.5-7.4-2.4-9.8-5.1
	l-29-34.6c-5.1-6.2-4.2-15.9,1.8-21.1l336.3-280.1c19.6-16.4,51.5-16.4,71.1,0l114.1,95.3v-91.2c0-8.4,6.5-14.9,14.9-14.9h89.8
	c8.4,0,14.9,6.5,14.9,14.9v190.8l102.4,85.1C877.8,497.5,878.8,507.3,873.6,513.4L873.6,513.4z"/>
</svg>
