<?xml version="1.0" encoding="utf-8"?>
<!-- Generator: Adobe Illustrator 23.0.2, SVG Export Plug-In . SVG Version: 6.00 Build 0)  -->
<svg version="1.1" id="Calque_1" xmlns="http://www.w3.org/2000/svg" xmlns:xlink="http://www.w3.org/1999/xlink" x="0px" y="0px"
	 viewBox="0 0 857.1 1000" style="enable-background:new 0 0 857.1 1000;" xml:space="preserve">
<style type="text/css">
	.st0{fill:#688ED8;}
</style>
<path class="st0" d="M571.4,767.9v-89.3c0-10.1-7.8-17.9-17.8-17.9H500V375c0-10-7.8-17.9-17.9-17.9H303.6
	c-10.1,0-17.9,7.9-17.9,17.9v89.3c0,10,7.8,17.8,17.9,17.8h53.5v178.6h-53.5c-10.1,0-17.9,7.8-17.9,17.9v89.3
	c0,10,7.8,17.8,17.9,17.8h250C563.6,785.7,571.4,777.9,571.4,767.9L571.4,767.9z M500,267.9v-89.3c0-10.1-7.8-17.9-17.9-17.9H375
	c-10,0-17.9,7.8-17.9,17.9v89.3c0,10,7.9,17.8,17.9,17.8h107.1C492.2,285.7,500,277.9,500,267.9z M857.1,500
	c0,236.6-191.9,428.6-428.5,428.6S0,736.6,0,500S192,71.4,428.6,71.4S857.1,263.4,857.1,500z"/>
</svg>
