<?xml version="1.0" encoding="utf-8"?>
<!-- Generator: Adobe Illustrator 24.3.0, SVG Export Plug-In . SVG Version: 6.00 Build 0)  -->
<svg version="1.1" id="Calque_1" xmlns="http://www.w3.org/2000/svg" xmlns:xlink="http://www.w3.org/1999/xlink" x="0px" y="0px"
	 viewBox="0 0 673.4 292" style="enable-background:new 0 0 673.4 292;" xml:space="preserve">
<style type="text/css">
	.st0{fill:url(#SVGID_1_);}
	.st1{fill:url(#SVGID_2_);}
	.st2{opacity:0.8;}
	.st3{fill:#FFFFFF;}
	.st4{fill:#333333;}
</style>
<g>
	
		<linearGradient id="SVGID_1_" gradientUnits="userSpaceOnUse" x1="-148.7" y1="1434" x2="-148.7" y2="1142" gradientTransform="matrix(-1 0 0 1 188 -1142)">
		<stop  offset="0" style="stop-color:#BBBBBB"/>
		<stop  offset="1" style="stop-color:#DCDCDC"/>
	</linearGradient>
	<path class="st0" d="M25,282c-8,0-15-7-15-15V25c0-8,7-15,15-15h623.5c8,0,15,7,15,15v242c0,8-7,15-15,15H25z M648.4,292
		c14,0,25-11,25-25V25c0-14-11-25-25-25H25C11,0,0,11,0,25v242c0,14,11,25,25,25H648.4z"/>
</g>
<linearGradient id="SVGID_2_" gradientUnits="userSpaceOnUse" x1="-148.75" y1="-924" x2="-148.75" y2="-652" gradientTransform="matrix(-1 0 0 -1 188 -642)">
	<stop  offset="0" style="stop-color:#E8E8E8"/>
	<stop  offset="1" style="stop-color:#F9F9F9"/>
</linearGradient>
<path class="st1" d="M25,282c-8,0-15-7-15-15V25c0-8,7-15,15-15h623.5c8,0,15,7,15,15v242c0,8-7,15-15,15H25z"/>
<g>
	<g class="st2">
		<g>
			<path class="st3" d="M329.9,188.1h40.5v15.5H311V102.4h18.8v85.7H329.9z"/>
			<path class="st3" d="M403.5,110.9c0,1.5-0.3,2.9-0.9,4.2c-0.6,1.3-1.4,2.4-2.4,3.4s-2.2,1.8-3.5,2.3c-1.4,0.6-2.8,0.9-4.3,0.9
				s-2.9-0.3-4.2-0.9c-1.3-0.6-2.5-1.4-3.5-2.3s-1.8-2.1-2.3-3.4c-0.6-1.3-0.9-2.7-0.9-4.2s0.3-3,0.9-4.3c0.6-1.4,1.4-2.5,2.3-3.5
				s2.1-1.8,3.5-2.3c1.3-0.6,2.7-0.9,4.2-0.9s3,0.3,4.3,0.9c1.4,0.6,2.5,1.4,3.5,2.3c1,1,1.8,2.1,2.4,3.5
				C403.2,107.9,403.5,109.4,403.5,110.9z M400.9,131.9v71.8h-17.3v-71.8H400.9z"/>
			<path class="st3" d="M463,145.9c-0.5,0.7-1,1.3-1.5,1.6s-1.2,0.5-2,0.5s-1.7-0.2-2.7-0.7s-2.1-1-3.3-1.6
				c-1.3-0.6-2.7-1.1-4.3-1.6c-1.6-0.5-3.5-0.7-5.7-0.7c-3.4,0-6.1,0.7-8.1,2.2c-2,1.4-2.9,3.3-2.9,5.7c0,1.5,0.5,2.8,1.5,3.9
				c1,1.1,2.3,2,4,2.8s3.5,1.5,5.6,2.1s4.2,1.3,6.4,2.1c2.2,0.7,4.3,1.6,6.4,2.6s4,2.2,5.6,3.6c1.7,1.5,3,3.2,4,5.3s1.5,4.5,1.5,7.4
				c0,3.5-0.6,6.6-1.9,9.6c-1.3,2.9-3.1,5.4-5.5,7.6c-2.4,2.1-5.4,3.8-9,5s-7.7,1.8-12.3,1.8c-2.5,0-4.9-0.2-7.2-0.7
				c-2.4-0.4-4.6-1.1-6.8-1.9c-2.2-0.8-4.2-1.7-6-2.8s-3.5-2.2-4.9-3.5l4-6.6c0.5-0.8,1.1-1.4,1.8-1.8s1.6-0.6,2.7-0.6
				s2.1,0.3,3,0.9c1,0.6,2.1,1.3,3.3,2c1.3,0.7,2.7,1.4,4.4,2c1.7,0.6,3.9,0.9,6.5,0.9c2.1,0,3.8-0.2,5.3-0.7s2.7-1.1,3.6-1.9
				c1-0.8,1.7-1.7,2.1-2.8c0.4-1,0.7-2.1,0.7-3.3c0-1.7-0.5-3.1-1.5-4.1c-1-1.1-2.3-2-4-2.8s-3.5-1.5-5.7-2.1
				c-2.1-0.6-4.3-1.3-6.5-2.1c-2.2-0.7-4.4-1.6-6.5-2.6s-4-2.3-5.7-3.8s-3-3.4-4-5.7c-1-2.2-1.5-4.9-1.5-8.1c0-2.9,0.6-5.7,1.8-8.4
				c1.2-2.7,2.9-5,5.1-7c2.3-2,5.1-3.6,8.5-4.8s7.3-1.8,11.7-1.8c4.9,0,9.5,0.8,13.5,2.4c4.1,1.6,7.4,3.8,10.1,6.4L463,145.9z"/>
			<path class="st3" d="M505.2,204.8c-6.2,0-11-1.8-14.4-5.3s-5-8.4-5-14.6v-40.1h-7.3c-0.9,0-1.7-0.3-2.4-0.9c-0.7-0.6-1-1.5-1-2.7
				v-6.9l11.5-1.9l3.6-19.6c0.2-0.9,0.6-1.7,1.3-2.2c0.7-0.5,1.5-0.8,2.6-0.8h9v22.6H522v12.3h-18.9v38.9c0,2.2,0.6,4,1.7,5.2
				c1.1,1.3,2.6,1.9,4.5,1.9c1.1,0,2-0.1,2.7-0.4c0.7-0.3,1.4-0.5,1.9-0.8s1-0.5,1.4-0.8s0.8-0.4,1.3-0.4s0.9,0.1,1.3,0.4
				c0.3,0.3,0.7,0.6,1,1.2l5.2,8.4c-2.5,2.1-5.4,3.7-8.7,4.8C512.1,204.3,508.7,204.8,505.2,204.8z"/>
			<path class="st3" d="M565.4,130.7c4.5,0,8.7,0.7,12.5,2.2c3.8,1.4,7.1,3.6,9.8,6.3c2.8,2.8,4.9,6.2,6.4,10.2s2.3,8.6,2.3,13.8
				c0,1.3-0.1,2.4-0.2,3.3c-0.1,0.9-0.3,1.5-0.6,2s-0.7,0.8-1.2,1.1c-0.5,0.2-1.2,0.3-2,0.3H548c0.5,7.4,2.5,12.8,6,16.2
				c3.5,3.5,8,5.2,13.7,5.2c2.8,0,5.2-0.3,7.2-1s3.8-1.4,5.3-2.2s2.8-1.5,4-2.2c1.1-0.7,2.2-1,3.3-1c0.7,0,1.3,0.1,1.8,0.4
				c0.5,0.3,1,0.7,1.3,1.2l5,6.3c-1.9,2.2-4.1,4.1-6.4,5.6c-2.4,1.5-4.9,2.7-7.5,3.6c-2.6,0.9-5.2,1.6-7.9,1.9
				c-2.7,0.4-5.3,0.6-7.8,0.6c-5,0-9.6-0.8-13.9-2.5c-4.3-1.7-8-4.1-11.2-7.4c-3.2-3.2-5.7-7.3-7.5-12c-1.8-4.8-2.7-10.3-2.7-16.6
				c0-4.9,0.8-9.5,2.4-13.8c1.6-4.3,3.9-8.1,6.8-11.3c3-3.2,6.6-5.7,10.8-7.6C555.3,131.7,560.1,130.7,565.4,130.7z M565.8,143.1
				c-5,0-9,1.4-11.8,4.3c-2.8,2.8-4.7,6.9-5.5,12.1H581c0-2.2-0.3-4.4-0.9-6.3s-1.5-3.7-2.8-5.2s-2.8-2.7-4.8-3.5
				C570.6,143.6,568.4,143.1,565.8,143.1z"/>
		</g>
	</g>
	<g>
		<g>
			<path class="st4" d="M319.9,178.1h40.5v15.5H301V92.4h18.8v85.7H319.9z"/>
			<path class="st4" d="M393.5,100.9c0,1.5-0.3,2.9-0.9,4.2c-0.6,1.3-1.4,2.4-2.4,3.4s-2.2,1.8-3.5,2.3c-1.4,0.6-2.8,0.9-4.3,0.9
				s-2.9-0.3-4.2-0.9c-1.3-0.6-2.5-1.4-3.5-2.3s-1.8-2.1-2.3-3.4c-0.6-1.3-0.9-2.7-0.9-4.2s0.3-3,0.9-4.3c0.6-1.4,1.4-2.5,2.3-3.5
				s2.1-1.8,3.5-2.3c1.3-0.6,2.7-0.9,4.2-0.9s3,0.3,4.3,0.9c1.4,0.6,2.5,1.4,3.5,2.3c1,1,1.8,2.1,2.4,3.5
				C393.2,97.9,393.5,99.4,393.5,100.9z M390.9,121.9v71.8h-17.3v-71.8C373.6,121.9,390.9,121.9,390.9,121.9z"/>
			<path class="st4" d="M453,135.9c-0.5,0.7-1,1.3-1.5,1.6s-1.2,0.5-2,0.5s-1.7-0.2-2.7-0.7s-2.1-1-3.3-1.6
				c-1.3-0.6-2.7-1.1-4.3-1.6c-1.6-0.5-3.5-0.7-5.7-0.7c-3.4,0-6.1,0.7-8.1,2.2c-2,1.4-2.9,3.3-2.9,5.7c0,1.5,0.5,2.8,1.5,3.9
				c1,1.1,2.3,2,4,2.8s3.5,1.5,5.6,2.1s4.2,1.3,6.4,2.1c2.2,0.7,4.3,1.6,6.4,2.6s4,2.2,5.6,3.6c1.7,1.5,3,3.2,4,5.3s1.5,4.5,1.5,7.4
				c0,3.5-0.6,6.6-1.9,9.6c-1.3,2.9-3.1,5.4-5.5,7.6c-2.4,2.1-5.4,3.8-9,5s-7.7,1.8-12.3,1.8c-2.5,0-4.9-0.2-7.2-0.7
				c-2.4-0.4-4.6-1.1-6.8-1.9c-2.2-0.8-4.2-1.7-6-2.8s-3.5-2.2-4.9-3.5l4-6.6c0.5-0.8,1.1-1.4,1.8-1.8s1.6-0.6,2.7-0.6
				s2.1,0.3,3,0.9c1,0.6,2.1,1.3,3.3,2c1.3,0.7,2.7,1.4,4.4,2c1.7,0.6,3.9,0.9,6.5,0.9c2.1,0,3.8-0.2,5.3-0.7s2.7-1.1,3.6-1.9
				c1-0.8,1.7-1.7,2.1-2.8c0.4-1,0.7-2.1,0.7-3.3c0-1.7-0.5-3.1-1.5-4.1c-1-1.1-2.3-2-4-2.8s-3.5-1.5-5.7-2.1
				c-2.1-0.6-4.3-1.3-6.5-2.1c-2.2-0.7-4.4-1.6-6.5-2.6s-4-2.3-5.7-3.8s-3-3.4-4-5.7c-1-2.2-1.5-4.9-1.5-8.1c0-2.9,0.6-5.7,1.8-8.4
				c1.2-2.7,2.9-5,5.1-7c2.3-2,5.1-3.6,8.5-4.8c3.4-1.2,7.3-1.8,11.7-1.8c4.9,0,9.5,0.8,13.5,2.4c4.1,1.6,7.4,3.8,10.1,6.4
				L453,135.9z"/>
			<path class="st4" d="M495.2,194.8c-6.2,0-11-1.8-14.4-5.3s-5-8.4-5-14.6v-40.1h-7.3c-0.9,0-1.7-0.3-2.4-0.9c-0.7-0.6-1-1.5-1-2.7
				v-6.9l11.5-1.9l3.6-19.6c0.2-0.9,0.6-1.7,1.3-2.2c0.7-0.5,1.5-0.8,2.6-0.8h9v22.6H512v12.3h-18.9v38.9c0,2.2,0.6,4,1.7,5.2
				c1.1,1.3,2.6,1.9,4.5,1.9c1.1,0,2-0.1,2.7-0.4c0.7-0.3,1.4-0.5,1.9-0.8s1-0.5,1.4-0.8s0.8-0.4,1.3-0.4s0.9,0.1,1.3,0.4
				c0.3,0.3,0.7,0.6,1,1.2l5.2,8.4c-2.5,2.1-5.4,3.7-8.7,4.8C502.1,194.3,498.7,194.8,495.2,194.8z"/>
			<path class="st4" d="M555.4,120.7c4.5,0,8.7,0.7,12.5,2.2c3.8,1.4,7.1,3.6,9.8,6.3c2.8,2.8,4.9,6.2,6.4,10.2s2.3,8.6,2.3,13.8
				c0,1.3-0.1,2.4-0.2,3.3c-0.1,0.9-0.3,1.5-0.6,2s-0.7,0.8-1.2,1.1c-0.5,0.2-1.2,0.3-2,0.3H538c0.5,7.4,2.5,12.8,6,16.2
				c3.5,3.5,8,5.2,13.7,5.2c2.8,0,5.2-0.3,7.2-1s3.8-1.4,5.3-2.2s2.8-1.5,4-2.2c1.1-0.7,2.2-1,3.3-1c0.7,0,1.3,0.1,1.8,0.4
				c0.5,0.3,1,0.7,1.3,1.2l5,6.3c-1.9,2.2-4.1,4.1-6.4,5.6c-2.4,1.5-4.9,2.7-7.5,3.6c-2.6,0.9-5.2,1.6-7.9,1.9
				c-2.7,0.4-5.3,0.6-7.8,0.6c-5,0-9.6-0.8-13.9-2.5c-4.3-1.7-8-4.1-11.2-7.4c-3.2-3.2-5.7-7.3-7.5-12c-1.8-4.8-2.7-10.3-2.7-16.6
				c0-4.9,0.8-9.5,2.4-13.8c1.6-4.3,3.9-8.1,6.8-11.3c3-3.2,6.6-5.7,10.8-7.6C545.3,121.7,550.1,120.7,555.4,120.7z M555.8,133.1
				c-5,0-9,1.4-11.8,4.3c-2.8,2.8-4.7,6.9-5.5,12.1H571c0-2.2-0.3-4.4-0.9-6.3c-0.6-2-1.5-3.7-2.8-5.2s-2.8-2.7-4.8-3.5
				C560.6,133.6,558.4,133.1,555.8,133.1z"/>
		</g>
	</g>
</g>
<path class="st3" d="M125.9,194.2v15.3c0,1.4-1.2,2.6-2.6,2.6h-15.2c-1.4,0-2.6-1.2-2.6-2.6v-15.3c0-1.3,1.2-2.6,2.6-2.6h15.3
	C124.7,191.7,125.9,192.9,125.9,194.2z M125.9,163.7V179c0,1.4-1.2,2.6-2.6,2.6h-15.2c-1.4,0-2.6-1.2-2.6-2.6v-15.3
	c0-1.4,1.2-2.6,2.6-2.6h15.3C124.7,161.1,125.9,162.3,125.9,163.7z M125.9,133.1v15.3c0,1.4-1.2,2.6-2.6,2.6h-15.2
	c-1.4,0-2.6-1.2-2.6-2.6v-15.3c0-1.4,1.2-2.6,2.6-2.6h15.3C124.7,130.5,125.9,131.7,125.9,133.1z M248.1,194.2v15.3
	c0,1.4-1.2,2.6-2.6,2.6h-107c-1.3,0-2.6-1.2-2.6-2.6v-15.3c0-1.3,1.2-2.6,2.6-2.6h107C247,191.7,248.1,192.9,248.1,194.2z
	 M125.9,102.5v15.3c0,1.4-1.2,2.6-2.6,2.6h-15.2c-1.4,0-2.6-1.2-2.6-2.6v-15.3c0-1.4,1.2-2.6,2.6-2.6h15.3
	C124.7,99.9,125.9,101.1,125.9,102.5z M248.1,163.7V179c0,1.4-1.2,2.6-2.6,2.6h-107c-1.3,0-2.6-1.2-2.6-2.6v-15.3
	c0-1.4,1.2-2.6,2.6-2.6h107C247,161.1,248.1,162.3,248.1,163.7z M248.1,133.1v15.3c0,1.4-1.2,2.6-2.6,2.6h-107
	c-1.3,0-2.6-1.2-2.6-2.6v-15.3c0-1.4,1.2-2.6,2.6-2.6h107C247,130.5,248.1,131.7,248.1,133.1z M248.1,102.5v15.3
	c0,1.4-1.2,2.6-2.6,2.6h-107c-1.3,0-2.6-1.2-2.6-2.6v-15.3c0-1.4,1.2-2.6,2.6-2.6h107C247,99.9,248.1,101.1,248.1,102.5z"/>
<path class="st4" d="M115.9,184.2v15.3c0,1.4-1.2,2.6-2.6,2.6H98.1c-1.4,0-2.6-1.2-2.6-2.6v-15.3c0-1.3,1.2-2.6,2.6-2.6h15.3
	C114.7,181.7,115.9,182.9,115.9,184.2z M115.9,153.7V169c0,1.4-1.2,2.6-2.6,2.6H98.1c-1.4,0-2.6-1.2-2.6-2.6v-15.3
	c0-1.4,1.2-2.6,2.6-2.6h15.3C114.7,151.1,115.9,152.3,115.9,153.7z M115.9,123.1v15.3c0,1.4-1.2,2.6-2.6,2.6H98.1
	c-1.4,0-2.6-1.2-2.6-2.6v-15.3c0-1.4,1.2-2.6,2.6-2.6h15.3C114.7,120.5,115.9,121.7,115.9,123.1z M238.1,184.2v15.3
	c0,1.4-1.2,2.6-2.6,2.6h-107c-1.3,0-2.6-1.2-2.6-2.6v-15.3c0-1.3,1.2-2.6,2.6-2.6h107C237,181.7,238.1,182.9,238.1,184.2z
	 M115.9,92.5v15.3c0,1.4-1.2,2.6-2.6,2.6H98.1c-1.4,0-2.6-1.2-2.6-2.6V92.5c0-1.4,1.2-2.6,2.6-2.6h15.3
	C114.7,89.9,115.9,91.1,115.9,92.5z M238.1,153.7V169c0,1.4-1.2,2.6-2.6,2.6h-107c-1.3,0-2.6-1.2-2.6-2.6v-15.3
	c0-1.4,1.2-2.6,2.6-2.6h107C237,151.1,238.1,152.3,238.1,153.7z M238.1,123.1v15.3c0,1.4-1.2,2.6-2.6,2.6h-107
	c-1.3,0-2.6-1.2-2.6-2.6v-15.3c0-1.4,1.2-2.6,2.6-2.6h107C237,120.5,238.1,121.7,238.1,123.1z M238.1,92.5v15.3
	c0,1.4-1.2,2.6-2.6,2.6h-107c-1.3,0-2.6-1.2-2.6-2.6V92.5c0-1.4,1.2-2.6,2.6-2.6h107C237,89.9,238.1,91.1,238.1,92.5z"/>
</svg>
