<?xml version="1.0" encoding="utf-8"?>
<!-- Generator: Adobe Illustrator 22.0.1, SVG Export Plug-In . SVG Version: 6.00 Build 0)  -->
<svg version="1.1" id="Calque_1" xmlns="http://www.w3.org/2000/svg" xmlns:xlink="http://www.w3.org/1999/xlink" x="0px" y="0px"
	 viewBox="0 0 578.5 785.7" style="enable-background:new 0 0 578.5 785.7;" xml:space="preserve">
<style type="text/css">
	.st0{fill:#7499DD;}
</style>
<path class="st0" d="M160.7,360.8h257.1v-96.5c0-70.8-57.8-128.5-128.6-128.5s-128.5,57.7-128.5,128.5L160.7,360.8L160.7,360.8z
	 M578.5,408.9v289.4c0,26.5-21.6,48.2-48.2,48.2H48.2C21.6,746.5,0,724.9,0,698.3V408.9c0-26.5,21.6-48.1,48.2-48.1h16v-96.5
	c0-123.5,101.5-225,225-225s225,101.5,225,225v96.5h16.1C557,360.8,578.5,382.4,578.5,408.9L578.5,408.9z"/>
</svg>
