<?xml version="1.0" encoding="utf-8"?>
<!-- Generator: Adobe Illustrator 23.0.6, SVG Export Plug-In . SVG Version: 6.00 Build 0)  -->
<svg version="1.1" id="Calque_1" xmlns="http://www.w3.org/2000/svg" xmlns:xlink="http://www.w3.org/1999/xlink" x="0px" y="0px"
	 viewBox="0 0 35 35" style="enable-background:new 0 0 35 35;" xml:space="preserve">
<style type="text/css">
	.st0{fill-rule:evenodd;clip-rule:evenodd;fill:#FFFFFF;}
	.st1{fill-rule:evenodd;clip-rule:evenodd;}
</style>
<g id="Page-1">
	<g id="move">
		<path id="resize-border" class="st0" d="M22.2,10.4h2.4v2.4h-2.4V10.4z M24.6,24.6h-2.4v-2.4h2.4V24.6z M12.8,12.8h-2.4v-2.4h2.4
			V12.8z M12.8,24.6h-2.4v-2.4h2.4V24.6z M17.5-1.4L-1.4,17.5L11,29.8l6.5,6.5l18.9-18.9L17.5-1.4z"/>
		<path id="resize-horizontal" class="st1" d="M33,17.5l-6-6.6v4.3h-9.5H8v-4.3L2,17.5l6.1,6.6l0-4.3h9.5H27l0,4.3L33,17.5z"/>
		<path id="resize-vertical" class="st1" d="M19.8,17.5L19.8,17.5l0-9.5l4.3,0L17.5,2l-6.6,6.1h4.3v9.5h0V27l-4.3,0l6.6,6.1l6.6-6.1
			h-4.3V17.5z"/>
	</g>
</g>
</svg>
