<?xml version="1.0" encoding="utf-8"?>
<!-- Generator: Adobe Illustrator 24.3.0, SVG Export Plug-In . SVG Version: 6.00 Build 0)  -->
<svg version="1.1" id="Calque_1" xmlns="http://www.w3.org/2000/svg" xmlns:xlink="http://www.w3.org/1999/xlink" x="0px" y="0px"
	 viewBox="0 0 693.4 292" style="enable-background:new 0 0 693.4 292;" xml:space="preserve">
<style type="text/css">
	.st0{fill:url(#SVGID_1_);}
	.st1{fill:url(#SVGID_2_);}
	.st2{opacity:0.8;}
	.st3{fill:#FFFFFF;}
	.st4{fill:#333333;}
</style>
<g>
	
		<linearGradient id="SVGID_1_" gradientUnits="userSpaceOnUse" x1="-272.7" y1="-934" x2="-272.7" y2="-642" gradientTransform="matrix(-1 0 0 -1 74 -642)">
		<stop  offset="0" style="stop-color:#BBBBBB"/>
		<stop  offset="1" style="stop-color:#DCDCDC"/>
	</linearGradient>
	<path class="st0" d="M25,282c-8,0-15-7-15-15V25c0-8,7-15,15-15h643.5c8,0,15,7,15,15v242c0,8-7,15-15,15H25z M668.4,292
		c14,0,25-11,25-25V25c0-14-11-25-25-25H25C11,0,0,11,0,25v242c0,14,11,25,25,25H668.4z"/>
</g>
<linearGradient id="SVGID_2_" gradientUnits="userSpaceOnUse" x1="-272.75" y1="1218" x2="-272.75" y2="946" gradientTransform="matrix(-1 0 0 1 74 -936)">
	<stop  offset="0" style="stop-color:#E8E8E8"/>
	<stop  offset="1" style="stop-color:#F9F9F9"/>
</linearGradient>
<path class="st1" d="M25,282c-8,0-15-7-15-15V25c0-8,7-15,15-15h643.5c8,0,15,7,15,15v242c0,8-7,15-15,15H25z"/>
<g>
	<g class="st2">
		<g>
			<path class="st3" d="M302.6,168v35.6h-18.8V102.4h33c6.8,0,12.6,0.8,17.6,2.4c4.9,1.6,9,3.8,12.2,6.6c3.2,2.8,5.6,6.3,7.1,10.2
				c1.5,4,2.3,8.3,2.3,13c0,4.9-0.8,9.4-2.4,13.5s-4.1,7.6-7.4,10.5s-7.4,5.2-12.2,6.9c-4.9,1.6-10.6,2.5-17.2,2.5H302.6z
				 M302.6,153.3h14.1c3.5,0,6.5-0.4,9-1.3c2.6-0.9,4.7-2.1,6.4-3.7c1.7-1.6,2.9-3.6,3.8-5.9s1.3-4.9,1.3-7.7c0-2.7-0.4-5.2-1.3-7.3
				c-0.8-2.2-2.1-4.1-3.8-5.6c-1.7-1.5-3.8-2.7-6.4-3.5s-5.6-1.2-9-1.2h-14.1V153.3z"/>
			<path class="st3" d="M422.5,203.7h-7.8c-1.6,0-2.9-0.2-3.9-0.7c-0.9-0.5-1.6-1.5-2.1-3l-1.5-5.1c-1.8,1.6-3.6,3.1-5.4,4.3
				s-3.6,2.3-5.4,3.1c-1.9,0.8-3.9,1.5-6,1.9s-4.4,0.6-7,0.6c-3,0-5.8-0.4-8.4-1.2s-4.8-2-6.6-3.7c-1.8-1.6-3.3-3.7-4.3-6.1
				c-1-2.4-1.5-5.3-1.5-8.5c0-2.7,0.7-5.4,2.1-8s3.8-5,7.1-7.2c3.3-2.1,7.7-3.9,13.2-5.3c5.5-1.4,12.3-2.1,20.5-2.1v-4.2
				c0-4.8-1-8.4-3-10.8c-2-2.3-5-3.5-8.9-3.5c-2.8,0-5.1,0.3-7,1s-3.5,1.4-4.9,2.2s-2.6,1.6-3.8,2.2c-1.2,0.7-2.4,1-3.8,1
				c-1.2,0-2.2-0.3-3-0.9s-1.5-1.4-2-2.2l-3.2-5.5c8.3-7.6,18.2-11.3,29.9-11.3c4.2,0,7.9,0.7,11.2,2.1c3.3,1.4,6.1,3.3,8.4,5.7
				c2.3,2.5,4,5.4,5.2,8.8c1.2,3.4,1.8,7.1,1.8,11.2L422.5,203.7L422.5,203.7z M388.9,192.9c1.8,0,3.4-0.2,4.9-0.5s2.9-0.8,4.2-1.4
				c1.3-0.6,2.6-1.4,3.8-2.4c1.2-0.9,2.5-2.1,3.7-3.3v-12c-5,0-9.3,0.3-12.6,1c-3.4,0.6-6.1,1.4-8.2,2.4s-3.5,2.1-4.4,3.5
				c-0.9,1.3-1.3,2.7-1.3,4.3c0,3.1,0.9,5.2,2.7,6.6C383.6,192.2,386,192.9,388.9,192.9z"/>
			<path class="st3" d="M472.9,203.7h-15.7l-28.6-71.8H443c1.3,0,2.3,0.3,3.2,0.9c0.9,0.6,1.5,1.4,1.8,2.3l13.9,38.4
				c0.8,2.2,1.5,4.4,2,6.6c0.5,2.1,1,4.3,1.4,6.4c0.4-2.1,0.9-4.3,1.4-6.4c0.5-2.1,1.2-4.3,2.1-6.6l14.2-38.4
				c0.3-0.9,0.9-1.7,1.8-2.3c0.8-0.6,1.8-0.9,3-0.9h13.7L472.9,203.7z"/>
			<path class="st3" d="M539,130.7c4.5,0,8.7,0.7,12.5,2.2c3.8,1.4,7.1,3.6,9.8,6.3c2.8,2.8,4.9,6.2,6.4,10.2s2.3,8.6,2.3,13.8
				c0,1.3-0.1,2.4-0.2,3.3s-0.3,1.5-0.6,2s-0.7,0.8-1.2,1.1c-0.5,0.2-1.2,0.3-2,0.3h-44.4c0.5,7.4,2.5,12.8,6,16.2
				c3.5,3.5,8,5.2,13.7,5.2c2.8,0,5.2-0.3,7.2-1s3.8-1.4,5.3-2.2s2.8-1.5,4-2.2c1.1-0.7,2.2-1,3.3-1c0.7,0,1.3,0.1,1.8,0.4
				c0.5,0.3,1,0.7,1.3,1.2l5,6.3c-1.9,2.2-4.1,4.1-6.4,5.6c-2.4,1.5-4.9,2.7-7.5,3.6c-2.6,0.9-5.2,1.6-7.9,1.9
				c-2.7,0.4-5.3,0.6-7.8,0.6c-5,0-9.6-0.8-13.9-2.5s-8-4.1-11.2-7.4c-3.2-3.2-5.7-7.3-7.5-12c-1.8-4.8-2.7-10.3-2.7-16.6
				c0-4.9,0.8-9.5,2.4-13.8s3.9-8.1,6.8-11.3c3-3.2,6.6-5.7,10.8-7.6C528.8,131.7,533.7,130.7,539,130.7z M539.4,143.1
				c-5,0-9,1.4-11.8,4.3c-2.8,2.8-4.7,6.9-5.5,12.1h32.5c0-2.2-0.3-4.4-0.9-6.3c-0.6-2-1.5-3.7-2.8-5.2s-2.8-2.7-4.8-3.5
				C544.2,143.6,541.9,143.1,539.4,143.1z M563.7,101.3l-17.3,18.3c-0.9,0.9-1.7,1.6-2.6,1.9s-1.9,0.5-3.2,0.5h-10.4l9.9-17
				c0.7-1.2,1.5-2.1,2.4-2.8s2.3-0.9,4.2-0.9H563.7z"/>
			<path class="st3" d="M626.8,145.9c-0.5,0.7-1,1.3-1.5,1.6s-1.2,0.5-2,0.5s-1.7-0.2-2.7-0.7s-2.1-1-3.3-1.6
				c-1.3-0.6-2.7-1.1-4.3-1.6s-3.5-0.7-5.7-0.7c-3.4,0-6.1,0.7-8,2.2c-2,1.4-2.9,3.3-2.9,5.7c0,1.5,0.5,2.8,1.5,3.9
				c1,1.1,2.3,2,4,2.8s3.5,1.5,5.6,2.1s4.2,1.3,6.4,2.1c2.2,0.7,4.3,1.6,6.4,2.6c2.1,1,4,2.2,5.6,3.6c1.7,1.5,3,3.2,4,5.3
				s1.5,4.5,1.5,7.4c0,3.5-0.6,6.6-1.9,9.6c-1.3,2.9-3.1,5.4-5.5,7.6c-2.4,2.1-5.4,3.8-9,5s-7.7,1.8-12.3,1.8
				c-2.5,0-4.9-0.2-7.2-0.7c-2.4-0.4-4.6-1.1-6.8-1.9c-2.2-0.8-4.2-1.7-6-2.8s-3.5-2.2-4.9-3.5l4-6.6c0.5-0.8,1.1-1.4,1.8-1.8
				s1.6-0.6,2.7-0.6c1.1,0,2.1,0.3,3,0.9c1,0.6,2.1,1.3,3.3,2c1.3,0.7,2.7,1.4,4.4,2s3.9,0.9,6.5,0.9c2.1,0,3.8-0.2,5.3-0.7
				s2.7-1.1,3.6-1.9c1-0.8,1.7-1.7,2.1-2.8s0.7-2.1,0.7-3.3c0-1.7-0.5-3.1-1.5-4.1c-1-1.1-2.3-2-4-2.8s-3.5-1.5-5.7-2.1
				c-2.1-0.6-4.3-1.3-6.5-2.1c-2.2-0.7-4.4-1.6-6.5-2.6s-4-2.3-5.7-3.8s-3-3.4-4-5.7c-1-2.2-1.5-4.9-1.5-8.1c0-2.9,0.6-5.7,1.8-8.4
				s2.9-5,5.1-7c2.3-2,5.1-3.6,8.5-4.8s7.3-1.8,11.7-1.8c4.9,0,9.5,0.8,13.5,2.4c4.1,1.6,7.4,3.8,10.2,6.4L626.8,145.9z"/>
		</g>
	</g>
	<g>
		<g>
			<path class="st4" d="M292.6,158v35.6h-18.8V92.4h33c6.8,0,12.6,0.8,17.6,2.4c4.9,1.6,9,3.8,12.2,6.6c3.2,2.8,5.6,6.3,7.1,10.2
				c1.5,4,2.3,8.3,2.3,13c0,4.9-0.8,9.4-2.4,13.5s-4.1,7.6-7.4,10.5s-7.4,5.2-12.2,6.9c-4.9,1.6-10.6,2.5-17.2,2.5H292.6z
				 M292.6,143.3h14.1c3.5,0,6.5-0.4,9-1.3c2.6-0.9,4.7-2.1,6.4-3.7c1.7-1.6,2.9-3.6,3.8-5.9s1.3-4.9,1.3-7.7c0-2.7-0.4-5.2-1.3-7.3
				c-0.8-2.2-2.1-4.1-3.8-5.6c-1.7-1.5-3.8-2.7-6.4-3.5s-5.6-1.2-9-1.2h-14.1V143.3z"/>
			<path class="st4" d="M412.5,193.7h-7.8c-1.6,0-2.9-0.2-3.9-0.7c-0.9-0.5-1.6-1.5-2.1-3l-1.5-5.1c-1.8,1.6-3.6,3.1-5.4,4.3
				s-3.6,2.3-5.4,3.1c-1.9,0.8-3.9,1.5-6,1.9s-4.4,0.6-7,0.6c-3,0-5.8-0.4-8.4-1.2s-4.8-2-6.6-3.7c-1.8-1.6-3.3-3.7-4.3-6.1
				c-1-2.4-1.5-5.3-1.5-8.5c0-2.7,0.7-5.4,2.1-8s3.8-5,7.1-7.2c3.3-2.1,7.7-3.9,13.2-5.3c5.5-1.4,12.3-2.1,20.5-2.1v-4.2
				c0-4.8-1-8.4-3-10.8s-5-3.5-8.9-3.5c-2.8,0-5.1,0.3-7,1s-3.5,1.4-4.9,2.2s-2.6,1.6-3.8,2.2c-1.2,0.7-2.4,1-3.8,1
				c-1.2,0-2.2-0.3-3-0.9c-0.8-0.6-1.5-1.4-2-2.2l-3.2-5.5c8.3-7.6,18.2-11.3,29.9-11.3c4.2,0,7.9,0.7,11.2,2.1
				c3.3,1.4,6.1,3.3,8.4,5.7c2.3,2.5,4,5.4,5.2,8.8c1.2,3.4,1.8,7.1,1.8,11.2L412.5,193.7L412.5,193.7z M378.9,182.9
				c1.8,0,3.4-0.2,4.9-0.5s2.9-0.8,4.2-1.4c1.3-0.6,2.6-1.4,3.8-2.4c1.2-0.9,2.5-2.1,3.7-3.3v-12c-5,0-9.3,0.3-12.6,1
				c-3.4,0.6-6.1,1.4-8.2,2.4s-3.5,2.1-4.4,3.5c-0.9,1.3-1.3,2.7-1.3,4.3c0,3.1,0.9,5.2,2.7,6.6C373.6,182.2,376,182.9,378.9,182.9z
				"/>
			<path class="st4" d="M462.9,193.7h-15.7l-28.6-71.8H433c1.3,0,2.3,0.3,3.2,0.9c0.9,0.6,1.5,1.4,1.8,2.3l13.9,38.4
				c0.8,2.2,1.5,4.4,2,6.6c0.5,2.1,1,4.3,1.4,6.4c0.4-2.1,0.9-4.3,1.4-6.4c0.5-2.1,1.2-4.3,2.1-6.6l14.2-38.4
				c0.3-0.9,0.9-1.7,1.8-2.3c0.8-0.6,1.8-0.9,3-0.9h13.7L462.9,193.7z"/>
			<path class="st4" d="M529,120.7c4.5,0,8.7,0.7,12.5,2.2c3.8,1.4,7.1,3.6,9.8,6.3c2.8,2.8,4.9,6.2,6.4,10.2s2.3,8.6,2.3,13.8
				c0,1.3-0.1,2.4-0.2,3.3s-0.3,1.5-0.6,2s-0.7,0.8-1.2,1.1c-0.5,0.2-1.2,0.3-2,0.3h-44.4c0.5,7.4,2.5,12.8,6,16.2
				c3.5,3.5,8,5.2,13.7,5.2c2.8,0,5.2-0.3,7.2-1s3.8-1.4,5.3-2.2s2.8-1.5,4-2.2c1.1-0.7,2.2-1,3.3-1c0.7,0,1.3,0.1,1.8,0.4
				c0.5,0.3,1,0.7,1.3,1.2l5,6.3c-1.9,2.2-4.1,4.1-6.4,5.6c-2.4,1.5-4.9,2.7-7.5,3.6c-2.6,0.9-5.2,1.6-7.9,1.9
				c-2.7,0.4-5.3,0.6-7.8,0.6c-5,0-9.6-0.8-13.9-2.5c-4.3-1.7-8-4.1-11.2-7.4c-3.2-3.2-5.7-7.3-7.5-12c-1.8-4.8-2.7-10.3-2.7-16.6
				c0-4.9,0.8-9.5,2.4-13.8s3.9-8.1,6.8-11.3c3-3.2,6.6-5.7,10.8-7.6C518.8,121.7,523.7,120.7,529,120.7z M529.4,133.1
				c-5,0-9,1.4-11.8,4.3c-2.8,2.8-4.7,6.9-5.5,12.1h32.5c0-2.2-0.3-4.4-0.9-6.3c-0.6-2-1.5-3.7-2.8-5.2s-2.8-2.7-4.8-3.5
				C534.2,133.6,531.9,133.1,529.4,133.1z M553.7,91.3l-17.3,18.3c-0.9,0.9-1.7,1.6-2.6,1.9s-1.9,0.5-3.2,0.5h-10.4l9.9-17
				c0.7-1.2,1.5-2.1,2.4-2.8s2.3-0.9,4.2-0.9H553.7z"/>
			<path class="st4" d="M616.8,135.9c-0.5,0.7-1,1.3-1.5,1.6s-1.2,0.5-2,0.5s-1.7-0.2-2.7-0.7s-2.1-1-3.3-1.6
				c-1.3-0.6-2.7-1.1-4.3-1.6s-3.5-0.7-5.7-0.7c-3.4,0-6.1,0.7-8,2.2c-2,1.4-2.9,3.3-2.9,5.7c0,1.5,0.5,2.8,1.5,3.9
				c1,1.1,2.3,2,4,2.8s3.5,1.5,5.6,2.1s4.2,1.3,6.4,2.1c2.2,0.7,4.3,1.6,6.4,2.6c2.1,1,4,2.2,5.6,3.6c1.7,1.5,3,3.2,4,5.3
				s1.5,4.5,1.5,7.4c0,3.5-0.6,6.6-1.9,9.6c-1.3,2.9-3.1,5.4-5.5,7.6c-2.4,2.1-5.4,3.8-9,5s-7.7,1.8-12.3,1.8
				c-2.5,0-4.9-0.2-7.2-0.7c-2.4-0.4-4.6-1.1-6.8-1.9c-2.2-0.8-4.2-1.7-6-2.8s-3.5-2.2-4.9-3.5l4-6.6c0.5-0.8,1.1-1.4,1.8-1.8
				s1.6-0.6,2.7-0.6c1.1,0,2.1,0.3,3,0.9c1,0.6,2.1,1.3,3.3,2c1.3,0.7,2.7,1.4,4.4,2s3.9,0.9,6.5,0.9c2.1,0,3.8-0.2,5.3-0.7
				s2.7-1.1,3.6-1.9c1-0.8,1.7-1.7,2.1-2.8s0.7-2.1,0.7-3.3c0-1.7-0.5-3.1-1.5-4.1c-1-1.1-2.3-2-4-2.8s-3.5-1.5-5.7-2.1
				c-2.1-0.6-4.3-1.3-6.5-2.1c-2.2-0.7-4.4-1.6-6.5-2.6s-4-2.3-5.7-3.8s-3-3.4-4-5.7c-1-2.2-1.5-4.9-1.5-8.1c0-2.9,0.6-5.7,1.8-8.4
				s2.9-5,5.1-7c2.3-2,5.1-3.6,8.5-4.8c3.4-1.2,7.3-1.8,11.7-1.8c4.9,0,9.5,0.8,13.5,2.4c4.1,1.6,7.4,3.8,10.2,6.4L616.8,135.9z"/>
		</g>
	</g>
</g>
<path class="st3" d="M96,203.3v-43.7h124v43.7H96z M96,108.7h124v43.7H96V108.7z"/>
<path class="st4" d="M86,193.3v-43.7h124v43.7H86z M86,98.7h124v43.7H86V98.7z"/>
</svg>
