<?xml version="1.0" encoding="utf-8"?>
<!-- Generator: Adobe Illustrator 22.1.0, SVG Export Plug-In . SVG Version: 6.00 Build 0)  -->
<svg version="1.1" id="Calque_1" xmlns="http://www.w3.org/2000/svg" xmlns:xlink="http://www.w3.org/1999/xlink" x="0px" y="0px"
	 viewBox="0 0 847 293" style="enable-background:new 0 0 847 293;" xml:space="preserve">
<style type="text/css">
	.st0{fill:#D81E08;}
	.st1{fill:#F7D2CE;}
</style>
<g>
	<path class="st0" d="M0,267V26C0,11.6,11.6,0,26,0h795c14.4,0,26,11.6,26,26v241c0,14.4-11.6,26-26,26H26C11.6,293,0,281.4,0,267z"
		/>
	<path class="st1" d="M823.1,274.6H23.9c-3.3,0-6-2.7-6-6V24.4c0-3.3,2.7-6,6-6h799.3c3.3,0,6,2.7,6,6v244.3
		C829.1,271.9,826.4,274.6,823.1,274.6z"/>
</g>
<g>
	<path class="st0" d="M143.6,155.5v33.9h-16.1v-86.8H154c5.9,0,11,0.6,15.2,1.8c4.2,1.2,7.7,2.9,10.4,5.1s4.7,4.8,5.9,7.9
		c1.3,3.1,1.9,6.4,1.9,10.1c0,2.9-0.4,5.7-1.3,8.3c-0.9,2.6-2.1,5-3.7,7.1s-3.6,4-6,5.6s-5.1,2.9-8.1,3.8c2,1.2,3.8,2.8,5.3,5
		l21.7,32h-14.5c-1.4,0-2.6-0.3-3.6-0.8c-1-0.6-1.8-1.4-2.5-2.4l-18.2-27.8c-0.7-1-1.4-1.8-2.2-2.2s-2-0.7-3.6-0.7L143.6,155.5
		L143.6,155.5z M143.6,144h10.1c3,0,5.7-0.4,8-1.1c2.3-0.8,4.1-1.8,5.6-3.1s2.6-2.9,3.3-4.8c0.7-1.8,1.1-3.9,1.1-6.1
		c0-4.4-1.5-7.8-4.4-10.1c-2.9-2.4-7.3-3.5-13.3-3.5h-10.3V144H143.6z"/>
	<path class="st0" d="M260.2,102.7v12.8h-38.5v24.1H252V152h-30.3v24.5h38.5v12.9h-54.7v-86.8h54.7V102.7z M256.8,82L239,95
		c-0.4,0.3-0.9,0.6-1.2,0.8c-0.4,0.2-0.8,0.4-1.1,0.5c-0.4,0.1-0.8,0.2-1.2,0.2s-0.9,0.1-1.5,0.1h-11.6l11.8-12.1
		c0.5-0.5,0.9-0.9,1.4-1.2c0.4-0.3,0.8-0.6,1.3-0.8c0.4-0.2,0.9-0.3,1.5-0.4s1.2-0.1,2-0.1H256.8z"/>
	<path class="st0" d="M357.4,146c0,6.4-1.1,12.2-3.2,17.7c-2.1,5.4-5.1,10.1-8.9,14.1s-8.5,7-13.9,9.3c-5.4,2.2-11.4,3.3-17.9,3.3
		c-6.6,0-12.6-1.1-18-3.3s-10.1-5.3-13.9-9.3c-3.9-4-6.9-8.6-9-14.1c-2.1-5.4-3.2-11.3-3.2-17.7s1.1-12.2,3.2-17.7
		c2.1-5.4,5.1-10.1,9-14.1s8.5-7,13.9-9.3c5.4-2.2,11.4-3.3,18-3.3s12.5,1.1,17.9,3.4s10,5.3,13.9,9.3c3.8,3.9,6.8,8.6,8.9,14
		C356.4,133.8,357.4,139.7,357.4,146z M340.9,146c0-4.8-0.6-9-1.9-12.8s-3.1-7-5.4-9.6c-2.4-2.6-5.2-4.7-8.6-6.1s-7.2-2.1-11.4-2.1
		c-4.2,0-8.1,0.7-11.5,2.1s-6.3,3.4-8.7,6.1c-2.4,2.6-4.2,5.8-5.5,9.6s-1.9,8-1.9,12.8s0.6,9,1.9,12.8s3.1,7,5.5,9.6s5.3,4.6,8.7,6
		c3.4,1.4,7.2,2.1,11.5,2.1c4.2,0,8-0.7,11.4-2.1c3.4-1.4,6.2-3.4,8.6-6s4.2-5.8,5.4-9.6C340.3,155.1,340.9,150.8,340.9,146z"/>
	<path class="st0" d="M405.1,176.4c3.1,0,5.9-0.5,8.4-1.6c2.5-1,4.5-2.5,6.2-4.4s3-4.2,3.9-6.8c0.9-2.7,1.4-5.7,1.4-9v-52h16.1v52
		c0,5.2-0.8,9.9-2.5,14.3c-1.7,4.4-4,8.2-7.2,11.3c-3.1,3.2-6.9,5.7-11.3,7.4s-9.4,2.7-15,2.7s-10.6-0.9-15-2.7s-8.2-4.3-11.3-7.4
		c-3.1-3.2-5.5-7-7.1-11.3c-1.7-4.4-2.5-9.1-2.5-14.3v-52h16.1v51.9c0,3.3,0.5,6.3,1.4,9s2.2,5,3.9,6.9c1.7,1.9,3.8,3.4,6.2,4.4
		C399.2,175.9,402,176.4,405.1,176.4z"/>
	<path class="st0" d="M449,102.7h13c1.4,0,2.5,0.3,3.4,1s1.5,1.6,2,2.6l20.4,52.9c0.7,1.7,1.3,3.6,1.9,5.7c0.6,2.1,1.2,4.2,1.8,6.5
		c0.9-4.6,2.1-8.7,3.4-12.2l20.3-52.9c0.4-0.9,1-1.8,1.9-2.5c0.9-0.8,2.1-1.1,3.4-1.1h13l-35,86.8H484L449,102.7z"/>
	<path class="st0" d="M559.4,155.5v33.9h-16.1v-86.8h26.5c5.9,0,11,0.6,15.2,1.8c4.2,1.2,7.7,2.9,10.4,5.1s4.7,4.8,5.9,7.9
		c1.3,3.1,1.9,6.4,1.9,10.1c0,2.9-0.4,5.7-1.3,8.3c-0.9,2.6-2.1,5-3.7,7.1c-1.6,2.1-3.6,4-6,5.6s-5.1,2.9-8.1,3.8
		c2,1.2,3.8,2.8,5.3,5l21.7,32h-14.5c-1.4,0-2.6-0.3-3.6-0.8c-1-0.6-1.8-1.4-2.5-2.4l-18.2-27.8c-0.7-1-1.4-1.8-2.2-2.2
		s-2-0.7-3.6-0.7L559.4,155.5L559.4,155.5z M559.4,144h10.1c3,0,5.7-0.4,8-1.1c2.3-0.8,4.1-1.8,5.6-3.1s2.5-2.9,3.3-4.8
		c0.7-1.8,1.1-3.9,1.1-6.1c0-4.4-1.5-7.8-4.3-10.1c-2.9-2.4-7.3-3.5-13.3-3.5h-10.3V144H559.4z"/>
	<path class="st0" d="M639.5,189.4h-16.2v-86.8h16.2V189.4z"/>
	<path class="st0" d="M675.7,155.5v33.9h-16.1v-86.8H686c5.9,0,11,0.6,15.2,1.8c4.2,1.2,7.7,2.9,10.4,5.1s4.7,4.8,5.9,7.9
		c1.3,3.1,1.9,6.4,1.9,10.1c0,2.9-0.4,5.7-1.3,8.3c-0.9,2.6-2.1,5-3.7,7.1c-1.6,2.1-3.6,4-6,5.6s-5.1,2.9-8.1,3.8
		c2,1.2,3.8,2.8,5.3,5l21.7,32h-14.5c-1.4,0-2.6-0.3-3.6-0.8c-1-0.6-1.8-1.4-2.5-2.4l-18.2-27.8c-0.7-1-1.4-1.8-2.2-2.2
		s-2-0.7-3.6-0.7L675.7,155.5L675.7,155.5z M675.7,144h10.1c3,0,5.7-0.4,8-1.1c2.3-0.8,4.1-1.8,5.6-3.1s2.5-2.9,3.3-4.8
		c0.7-1.8,1.1-3.9,1.1-6.1c0-4.4-1.5-7.8-4.3-10.1c-2.9-2.4-7.3-3.5-13.3-3.5h-10.3V144H675.7z"/>
</g>
</svg>
