<?xml version="1.0" encoding="utf-8"?>
<!-- Generator: Adobe Illustrator 23.0.1, SVG Export Plug-In . SVG Version: 6.00 Build 0)  -->
<svg version="1.1" id="Layer_1" xmlns="http://www.w3.org/2000/svg" xmlns:xlink="http://www.w3.org/1999/xlink" x="0px" y="0px"
	 viewBox="0 0 500 500" style="enable-background:new 0 0 500 500;" xml:space="preserve">
<style type="text/css">
	.st0{fill:url(#SVGID_1_);}
	.st1{fill:#B1FFAD;}
	.st2{fill:url(#SVGID_2_);}
	.st3{fill:#FFFFFF;}
</style>
<g>
	
		<linearGradient id="SVGID_1_" gradientUnits="userSpaceOnUse" x1="71.0804977" y1="430.9208069" x2="499.9752502" y2="2.0260532" gradientTransform="matrix(1 0 0 -1 0 502)">
		<stop  offset="0" style="stop-color:#754C29"/>
		<stop  offset="1" style="stop-color:#3C2415"/>
	</linearGradient>
	<path class="st0" d="M500,250.0048065C500,388.0715332,388.0736389,500,250,500
		c-2.70755,0-5.3960876-0.0473938-8.0846405-0.1325378C107.5905609,495.6073303,0,385.3640442,0,250.0048065
		C0,111.9284744,111.9357605,0,250,0c135.7069092,0,246.1565247,108.1227188,249.8958435,242.9234161
		C499.9716187,245.2806854,500,247.6380463,500,250.0048065z"/>
	<g>
		<path class="st1" d="M45.9139481,288.4443359c6.3651466,0.109314,11.8940659,4.534729,13.3777428,10.8058472
			c1.7822227,7.53302-2.8794212,15.1367798-10.4503441,16.9281006c-7.532753,1.7821045-15.1455612-2.9178162-16.9276352-10.4505615
			c-1.5108585-6.3857422,1.6221046-12.9414368,7.4345703-15.8512268l0.6964607,2.9445496
			c-4.2245178,2.4528809-6.4413414,7.4192505-5.3015175,12.2370911c1.4202538,6.0034485,7.4636841,9.7016296,13.4286919,8.2905579
			c6.0031776-1.4205627,9.739624-7.4730225,8.3284302-13.4381409c-1.1126442-4.703186-5.1486778-8.1090698-9.8897896-8.5219727
			L45.9139481,288.4443359z"/>
		<path class="st1" d="M39.2643623,257.2268372c7.6756363-0.6241455,14.4085464,5.096344,15.0294075,12.7329102
			c0.6241264,7.6757812-5.0962486,14.4088135-12.7718849,15.032959c-7.6754875,0.6241455-14.4083996-5.0961914-15.032526-12.7721252
			C25.8684978,264.5838623,31.5888729,257.8509827,39.2643623,257.2268372z M39.4968147,260.0856628
			c-6.0700188,0.4935913-10.6030369,5.8292236-10.1094685,11.899353c0.4935684,6.0699768,5.8289509,10.603241,11.8989697,10.1098022
			c6.070015-0.4937439,10.6422462-5.8323364,10.1486778-11.902771
			C50.9414253,264.1220703,45.5668297,259.5921021,39.4968147,260.0856628z"/>
		<path class="st1" d="M26.3004265,232.3414764l0.1691761-2.9420013l28.0466671,1.6129303l-0.1353111,2.3536682
			l-23.4872112,16.2810822l22.4766064,1.2925415l-0.169178,2.9420166l-28.0466652-1.6129303l0.1353111-2.3536682
			l23.4872093-16.2809448L26.3004265,232.3414764z"/>
		<path class="st1" d="M27.0029774,223.7045441l3.7377834-20.6448669l2.8994751,0.5250702l-1.6099281,8.8918304
			l24.7422981,4.4797668l-0.5179291,2.8609161l-24.7422962-4.4797821l-1.6099281,8.891983L27.0029774,223.7045441z"/>
		<path class="st1" d="M48.6378593,195.8713837l16.1742821-9.881958l-1.2766228,4.1702423l-15.2940903,9.288559l11.3834152,3.485199
			l-0.8626671,2.817688l-26.8618336-8.2240295l3.2549076-10.6321869c1.2423134-4.0575104,5.5981369-6.3400269,9.6555557-5.0978394
			c4.0950012,1.2537842,6.4264908,5.5835419,5.1843262,9.6411896L48.6378593,195.8713837z M44.7851105,198.3900757
			l2.3922424-7.8145142c0.7707253-2.5172119-0.663044-5.216217-3.2176285-5.9982452
			c-2.5171547-0.7707367-5.2161102,0.6630554-5.9866905,3.1802673l-2.3923912,7.8144989L44.7851105,198.3900757z"/>
		<path class="st1" d="M45.7594757,158.79245l30.6781921,0.4900055l-1.326088,2.8931427l-9.4814758-0.1534424l-5.3860321,11.7511139
			l6.3055878,7.0826874l-1.326088,2.8931427l-20.3971672-22.9208527L45.7594757,158.79245z M62.446785,161.9893341
			l-12.8238716-0.2159576l8.5184059,9.6098328L62.446785,161.9893341z"/>
		<path class="st1" d="M49.6671791,149.9477081l10.4968338-18.1659851l2.5514641,1.4741974l-4.5212822,7.8243103
			l21.7716789,12.5808105l-1.454567,2.5175018l-21.7716751-12.5808105l-4.5211372,7.8243103L49.6671791,149.9477081z"/>
		<path class="st1" d="M103.4385223,105.3172989c3.5751419,5.266716,3.139946,12.3348465-1.132843,17.1580353
			c-5.1324921,5.7937088-14.0324707,6.3600693-19.8554764,1.2014923c-5.793602-5.1325912-6.3339615-14.0621414-1.2014694-19.8558502
			c4.3509216-4.9114227,11.514122-6.1241989,17.2389526-3.0471725l-2.0060577,2.2645416
			c-4.4376602-2.0415955-9.7737885-0.9950256-13.0566177,2.7105942c-4.0902481,4.6173248-3.6347046,11.687233,0.953125,15.751564
			c4.6172333,4.090477,11.716423,3.6609192,15.7806778-0.9269943c3.2045517-3.6173935,3.665596-8.8780136,1.2736511-12.9916611
			L103.4385223,105.3172989z"/>
		<path class="st1" d="M125.1697998,81.9625854c4.9371643,5.910759,4.147583,14.7109375-1.7329102,19.6231003
			c-5.9106445,4.9372635-14.7108078,4.1476593-19.6479797-1.763092c-4.9373169-5.910759-4.147583-14.7110901,1.7630615-19.6483536
			C111.4324646,75.2620773,120.2326279,76.0518341,125.1697998,81.9625854z M122.9684219,83.8014374
			c-3.9044342-4.6743622-10.8781128-5.3001328-15.5523834-1.3956223s-5.3000336,10.8783188-1.3955994,15.5526733
			c3.9044342,4.6743622,10.9033661,5.3302841,15.5774841,1.4257812
			C126.2722015,95.4797592,126.8728561,88.4757996,122.9684219,83.8014374z"/>
		<path class="st1" d="M138.1032867,57.1751175l2.5015564-1.5575256l14.848053,23.8488846l-2.0013123,1.2460556
			l-26.8419266-9.808876l11.8991165,19.1124344l-2.5015564,1.5575256l-14.848053-23.8488846l2.0013123-1.246048l26.8419342,9.808876
			L138.1032867,57.1751175z"/>
		<path class="st1" d="M145.3706055,52.6553841l17.3816986-8.1894112l1.2559814,2.6658821l-14.7158661,6.9334106
			l4.1030273,8.7086868l10.9124298-5.1413498l1.2559662,2.6660347l-10.9124146,5.1413498l5.3589935,11.3747177l-2.6658325,1.2560043
			L145.3706055,52.6553841z"/>
		<path class="st1" d="M194.1269531,48.043705c2.4999237,7.2845459-1.3811798,15.2220421-8.6284637,17.7093925
			c-7.2844086,2.4999695-15.221756-1.3813705-17.7216797-8.6659126c-2.5000763-7.2843933,1.3811951-15.2218933,8.6656036-17.7220116
			C183.689682,36.8779755,191.6268921,40.7591629,194.1269531,48.043705z M191.4138947,48.974865
			c-1.9770966-5.7607346-8.2669373-8.8364258-14.0275726-6.8594398c-5.7606201,1.9771347-8.8364105,8.2672424-6.859314,14.027977
			s8.2797241,8.873558,14.0403442,6.8965721C190.3279877,61.0628433,193.3909912,54.7355995,191.4138947,48.974865z"/>
		<path class="st1" d="M204.7788544,47.2466736l16.3546143,9.5811729l-4.2784424,0.8464928l-15.4155884-9.0859604
			l2.3106995,11.6789169l-2.8907166,0.5720024l-5.452713-27.5592575l10.907959-2.1583462
			c4.162735-0.8236198,8.2332306,1.9356937,9.056839,6.0985012c0.8313141,4.2014275-1.881897,8.3030396-6.044632,9.1266594
			L204.7788544,47.2466736z M200.7379303,45.0422821l8.0171051-1.5863419
			c2.5823669-0.5109558,4.2828979-3.0502892,3.7642212-5.6713142c-0.5109406-2.5825577-3.0502319-4.2829742-5.6327362-3.7720184
			L198.8694,35.5988007L200.7379303,45.0422821z"/>
		<path class="st1" d="M248.5072784,26.3779697l1.7822266,28.037241l-2.940918,0.1868553l-1.2861176-20.2338676
			l-8.2424316,20.8395882l-2.1566772,0.1371002l-10.6945343-19.5965118l1.2836151,20.1946564l-2.940918,0.1870041
			l-1.7822266-28.0372429l2.5095825-0.1595249l12.4283295,22.7146816l9.4912872-24.1080761L248.5072784,26.3779697z"/>
		<path class="st1" d="M254.2956848,26.4409485l18.4711609,1.1324215l-0.1802979,2.941267l-15.5299683-0.9521027
			l-0.5890808,9.6083565l11.3336792,0.6948395l-0.1803284,2.9412689l-11.3336487-0.6948433l-0.5890808,9.6083565
			l15.5299377,0.9521027l-0.1802979,2.9412651l-18.4711761-1.1324234L254.2956848,26.4409485z"/>
		<path class="st1" d="M307.5828247,33.8071861l4.8492432,30.2974815l-3.0796509-0.8031235l-1.4967346-9.3641663
			L295.34729,50.6754265l-5.8790283,7.4408035l-3.0794678-0.8031235l19.026825-24.0710907L307.5828247,33.8071861z
			 M307.3346252,50.7967796l-2.0160217-12.6668129l-7.9829407,10.0591545L307.3346252,50.7967796z M308.0784607,31.9061012
			l-2.1290283-0.5552197l-2.8831482-4.2033577l2.6233521,0.6841469L308.0784607,31.9061012z"/>
		<path class="st1" d="M345.1550903,75.0814667l-1.2650452,2.6180573l-16.7339478-8.0860367l12.2229004-25.2959023
			l2.6533508,1.2821465l-10.9578552,22.6778412L345.1550903,75.0814667z"/>
		<path class="st1" d="M373.6378174,62.8195534l-4.9820251,30.2762413l-2.66745-1.7359161l1.541748-9.3568878L356.695343,74.95224
			l-7.9305115,5.1994247l-2.6674805-1.7359161l25.6633606-16.8177376L373.6378174,62.8195534z M368.0291443,78.8586807
			l2.0935669-12.6541901l-10.7546997,7.0179214L368.0291443,78.8586807z"/>
		<path class="st1" d="M407.6612244,114.7760849c-5.4923706,3.218132-12.5161133,2.3150482-17.0454102-2.2682571
			c-5.4403992-5.5057068-5.4154358-14.424118,0.1182251-19.89254c5.5054626-5.4406509,14.4511719-5.387619,19.8918762,0.1180801
			c4.6121826,4.6672287,5.3471069,11.8953323,1.8973389,17.4038544l-2.1266785-2.1519547
			c2.3313599-4.2926254,1.6409912-9.6867828-1.8388062-13.2082214c-4.3082886-4.3597641-11.4205627-4.401947-15.7802429-0.0935745
			c-4.3876038,4.3359985-4.4297791,11.4483871-0.1214905,15.8081512c3.3969116,3.4376678,8.615387,4.246582,12.8788452,2.1324997
			L407.6612244,114.7760849z"/>
		<path class="st1" d="M436.0146179,122.7983932l1.7642517,2.3603516l-22.5009766,16.8196793l-1.7642212-2.3603516
			l10.0703735-7.5276947l-9.9976196-13.3748779l-10.0704041,7.5276947l-1.7642517-2.3603516l22.5009766-16.8196716
			l1.7642517,2.3603516l-10.0704041,7.5276871l9.9976196,13.3748856L436.0146179,122.7983932z"/>
		<path class="st1" d="M448.4199219,142.8091736l-18.615387,24.3907318l-1.539978-2.7851562l5.7550049-7.5370483
			l-6.2549438-11.3129425l-9.4432983,0.8662567l-1.539978-2.7851562l30.5549011-2.7967377L448.4199219,142.8091736z
			 M435.9364929,154.3359833l7.790741-10.1891174l-12.7908936,1.1457825L435.9364929,154.3359833z"/>
		<path class="st1" d="M444.8311157,170.6831665l-6.5395203,17.7913818l-1.5895691-4.0615082l6.2181091-16.7795715
			l-11.0866699,4.3388214l-1.0738831-2.7443085l26.1616821-10.2384338l4.0522156,10.3550415
			c1.5465088,3.9517365-0.4497681,8.4460754-4.4015808,9.9925995c-3.9880371,1.5608063-8.5048828-0.3846893-10.0513916-4.336441
			L444.8311157,170.6831665z M446.286438,166.315979l2.9783325,7.6108704
			c0.9595032,2.4515533,3.759613,3.6763611,6.2475281,2.7027283c2.4516296-0.9593811,3.6764221-3.759552,2.7169189-6.2110901
			l-2.9783325-7.610733L446.286438,166.315979z"/>
		<path class="st1" d="M465.0375671,179.4683533l5.6807251,20.1986694l-2.8366394,0.7977753l-2.4468994-8.6997833
			l-24.2075806,6.8087921l-0.7872314-2.7989655l24.2076111-6.8087921l-2.4468994-8.6997681L465.0375671,179.4683533z"/>
		<path class="st1" d="M472.0206299,205.0412598l2.9753723,18.2659454l-2.9085388,0.4738312l-2.5015564-15.3573608
			l-9.5012512,1.5477295l1.8257446,11.2077637l-2.9085388,0.4738159l-1.8257446-11.2077637l-9.5012207,1.5477295
			l2.5015564,15.3573456l-2.9085388,0.4738312l-2.9753723-18.2659454L472.0206299,205.0412598z"/>
		<path class="st1" d="M462.3919373,266.508728c-7.7779541-0.1580505-13.9351807-6.5710144-13.7780151-14.3096161
			l0.1820984-8.9564362l28.0866089,0.570816l-0.1820984,8.9564362
			C476.5430908,260.5085449,470.1304016,266.6661682,462.3919373,266.508728z M462.4510498,263.6018982
			c6.1278076,0.1244812,11.2179565-4.763031,11.3424377-10.8910828l0.1223755-6.0101166l-22.2727966-0.4527435l-0.1221008,6.0102844
			C451.3962097,258.3862915,456.2837524,263.476532,462.4510498,263.6018982z"/>
		<path class="st1" d="M475.4998169,275.6535034l-5.9171753-2.7467041l0.1945496-1.8761292l5.9858093,2.0826111
			L475.4998169,275.6535034z"/>
		<path class="st1" d="M471.6186829,300.5195312l-0.5358887,2.8577881l-16.7602539-3.1426697
			c-5.9857788-1.1223145-9.9393921-6.9005737-8.8170776-12.8865051c1.057251-5.6383362,6.212738-9.4687195,11.8052368-9.0198364
			l0.0071411-0.0386353l1.0812988,0.2026062l16.7602234,3.1426697l-0.5430298,2.8964233l-16.8760681-3.1643677
			c-4.3638611-0.8181152-8.5586548,2.1531372-9.3770752,6.5170593c-0.8109741,4.3253174,2.015564,8.6529846,6.3407898,9.4639893
			l0.15448,0.0288086L471.6186829,300.5195312z"/>
		<path class="st1" d="M469.8404846,308.9675598l-6.34021,20.000061l-2.809021-0.8903198l2.7306213-8.6143494l-23.9699402-7.598999
			l0.8786926-2.771637l23.9699402,7.598999l2.730896-8.6143799L469.8404846,308.9675598z"/>
		<path class="st1" d="M455.8744202,339.7942505l-20.4390564-8.7617188l-1.8884277,4.4058228l-2.6723938-1.1457825
			l4.9380798-11.5196838l2.6723633,1.1454773l-1.8887024,4.4058228l20.4393311,8.7616882l1.8884277-4.4057922l2.708313,1.1609497
			l-4.9380493,11.5199585l-2.708313-1.1612244L455.8744202,339.7942505z"/>
		<path class="st1" d="M423.7349548,354.3909607l-2.555603-1.3858032l8.8586731-16.3369446l24.6947632,13.39151
			l-1.4047852,2.5901489l-22.138855-12.0054016L423.7349548,354.3909607z"/>
		<path class="st1" d="M436.5166626,375.546051l-18.5028076-12.3372192l-2.6593018,3.9884338l-2.419281-1.6130981
			l6.9533386-10.4285583l2.4189758,1.6130981l-2.6589966,3.9881287l18.5028076,12.3375244l2.6593018-3.9884338l2.4519348,1.6347656
			l-6.9533386,10.4285583l-2.4519348-1.6347656L436.5166626,375.546051z"/>
		<path class="st1" d="M405.5042725,387.7489929c-3.3342285-2.6881714-3.4613647-8.0395508-0.3294373-11.9242859l1.504303-1.8659058
			c3.1319275-3.8847351,8.3884583-4.8959656,11.7226868-2.2077942c0.0305786,0.0246582,0.0611877,0.0493164,0.1223755,0.0986328
			l0.8317871,0.721283l-1.9234924,2.3857422l-0.9541626-0.8196106c-2.0001221-1.7134705-5.4335632-0.8980408-7.5049744,1.6712952
			l-1.5043335,1.8658752c-2.0714111,2.5693665-2.0906982,6.036438-0.0412903,7.6887207
			c2.0800476,1.6769409,5.4638672,0.922699,7.5352783-1.646637l0.0493164-0.0612183
			c0.0496216-0.0611877,0.1482544-0.1835632,0.2468567-0.3059692l0.3945007-0.4892578
			c1.072113-1.2049255,2.5814819-2.763916,3.8719177-3.2377625c3.3553162-1.282135,6.0054016-1.0634766,8.1769104,0.687439
			c3.3036499,2.6634827,3.4613647,8.0395203,0.3294678,11.9242859l-0.4441223,0.5507507
			c-3.0329895,3.7623596-8.0569153,4.8600464-11.4163818,2.4543762l-0.9669495-0.6788025l1.9234924-2.3860474l0.8751221,0.6048279
			c2.1115417,1.4499817,5.2933655,0.633667,7.290802-1.8439026l0.4438171-0.5507507
			c2.0714111-2.5693359,2.0660706-6.0058289,0.0166321-7.6581116c-2.0188293-1.6276245-5.2793884-1.0263672-7.313385,1.371582
			l-0.1232605,0.1526794l-0.0493164,0.0617981c0,0,0,0,0-0.0006104l-0.7399902,0.9176636l-0.0305786-0.0246582
			c-0.868927,1.0153503-1.3186646,1.5108643-1.3739319,1.5168152l-0.0739746,0.0917969
			C412.9640808,389.8266907,408.4101257,390.0916748,405.5042725,387.7489929z"/>
		<path class="st1" d="M408.6225281,413.7444763l-28.4252625-11.5505676l2.2823181-2.217926l8.784729,3.5716553l9.2706909-9.0082703
			l-3.3178711-8.8838196l2.2826233-2.2178955l10.7290039,28.7460327L408.6225281,413.7444763z M394.2200623,404.7293701
			l11.8783264,4.8386536l-4.4672241-12.039856L394.2200623,404.7293701z"/>
		<path class="st1" d="M401.796051,420.5639648l-16.3488159,13.1491089l-1.8468323-2.2960205l7.0418396-5.6636047
			l-15.7592773-19.594574l2.2655334-1.8222351l15.7591553,19.5946045l7.0415649-5.6636047L401.796051,420.5639648z"/>
		<path class="st1" d="M373.1213989,438.511322l-12.192627-18.5979309l-4.0085449,2.6281738l-1.5941772-2.4318237
			l10.4816589-6.8717651l1.5940552,2.4315186l-4.0085754,2.6281433l12.1924744,18.5979309l4.0088501-2.6281738l1.6154175,2.4644775
			l-10.4815369,6.8717651l-1.6157227-2.4644775L373.1213989,438.511322z"/>
		<path class="st1" d="M337.9943848,445.6438904c-3.5653381-6.8260193-0.9202881-15.2555847,5.870697-18.802887
			c6.8258972-3.5653992,15.2554626-0.9203186,18.8208008,5.9057007s0.9203186,15.2559204-5.9055786,18.8213196
			C349.9893188,455.1150208,341.5597229,452.4699097,337.9943848,445.6438904z M340.5366516,444.3160095
			c2.8195801,5.3983154,9.4996033,7.4944153,14.8976746,4.6746521c5.3979187-2.819458,7.493988-9.4996338,4.6745605-14.8979492
			c-2.8195801-5.3980103-9.5178833-7.5288696-14.9157715-4.7094116
			C339.7950439,432.2030945,337.7171021,438.9179993,340.5366516,444.3160095z"/>
		<path class="st1" d="M320.0640259,467.2136841l-2.7769165,0.9859619l-9.3987732-26.4740601l2.2215881-0.7887268
			l24.1196594,15.3272095l-7.5320129-21.2162781l2.776947-0.9859619l9.3987427,26.4740906l-2.2215881,0.7886963
			l-24.119812-15.3272095L320.0640259,467.2136841z"/>
		<path class="st1" d="M272.3092346,462.9959106c-1.1303406-7.6972961,4.1759338-14.8305054,11.8338928-15.9552002
			l8.8631592-1.3017578l4.0820618,27.7948608l-8.8631287,1.3017273
			C280.5671082,475.9602356,273.4338989,470.6540222,272.3092346,462.9959106z M275.1858215,462.5731812
			c0.8907471,6.0643616,6.5526123,10.2764587,12.6169739,9.3858643l5.9476318-0.8736877l-3.2372437-22.0415039l-5.9476318,0.8733826
			C278.5013428,450.808136,274.2895813,456.4702454,275.1858215,462.5731812z"/>
		<path class="st1" d="M268.7697449,477.2590332l-18.4973145,0.5531311l-0.088089-2.9454346l15.5519562-0.46521
			l-0.2878723-9.6217041l-11.3496857,0.3392334l-0.088089-2.9454041l11.3498535-0.3395691l-0.2878418-9.6217041
			l-15.5518036,0.4649048l-0.0880737-2.9454346l18.4972992-0.5531311L268.7697449,477.2590332z"/>
		<path class="st1" d="M225.9602814,455.8689575c0.3414612-4.2691345,4.6904602-7.3898315,9.6644592-6.9920654l2.3891296,0.1913147
			c4.973999,0.3977661,8.771637,4.1702271,8.4301758,8.4393921c-0.0032806,0.0392151-0.0063934,0.0784302-0.0126343,0.1568604
			l-0.1268463,1.0935059l-3.0549774-0.2445068l0.1394653-1.250061c0.2882996-2.618042-2.3202057-4.9945984-5.6101685-5.257782
			l-2.3891144-0.1910095c-3.2899628-0.2632141-6.1646423,1.6745605-6.3745117,4.2988586
			c-0.2131348,2.663208,2.3170929,5.0335083,5.6069031,5.2967224l0.0784149,0.0062256
			c0.0782776,0.0065308,0.2349854,0.0190125,0.3916779,0.0314941l0.6265106,0.0502014
			c1.5996704,0.2067566,3.7380829,0.5748291,4.8566589,1.3739319c2.9499817,2.0491638,4.2628479,4.3615417,4.0403442,7.142395
			c-0.3383484,4.22995-4.6904602,7.3898621-9.6644592,6.9917908l-0.7050781-0.0561523
			c-4.8173065-0.3855896-8.5553894-3.9168396-8.4613647-8.0478516l0.0155945-1.181427l3.0549774,0.2444763l-0.0062408,1.0637817
			c-0.0078735,2.5613403,2.4596863,4.7296143,5.6320038,4.9833374l0.7050781,0.056427
			c3.2898102,0.2632141,6.125412-1.6778259,6.335434-4.302124c0.2067566-2.5847778-2.1275482-4.9396362-5.2545776-5.2684937
			l-0.195755-0.0157471l-0.0782776-0.0062561c0,0,0,0-0.0001526,0l-1.174881-0.0938721l0.0031128-0.0392151
			c-1.3284607-0.1458435-1.9911957-0.2382202-2.027298-0.280426l-0.1174774-0.009491
			C228.4481659,463.2026672,225.6626129,459.5897522,225.9602814,455.8689575z"/>
		<path class="st1" d="M185.4470978,453.371521c2.0613251-7.5012512,9.7886505-11.8972473,17.2520294-9.8463135l8.6376801,2.3738708
			l-7.4439392,27.0881042l-8.6376648-2.3738403C187.7918091,468.5623779,183.3960419,460.8347473,185.4470978,453.371521z
			 M188.2506256,454.1418152c-1.6241913,5.9101562,1.8649597,12.0440063,7.7750092,13.6680908l5.7962646,1.592865
			l5.9030762-21.480957l-5.7962799-1.592865C196.0186462,444.7045898,189.8850555,448.1939392,188.2506256,454.1418152z"/>
		<path class="st1" d="M155.8080292,441.4442444c3.0604858-7.0672302,11.2760315-10.3174438,18.3069-7.2724915
			c7.0669556,3.0603943,10.3172607,11.2760925,7.2567749,18.3433228
			c-3.0603333,7.0669556-11.2760315,10.3171692-18.3428345,7.2567749
			C155.9978638,456.7268982,152.7476959,448.5112,155.8080292,441.4442444z M158.440155,442.5841064
			c-2.420166,5.5887451,0.155365,12.0992737,5.7441406,14.5194702c5.588623,2.4205017,12.0990448-0.155365,14.5193481-5.7440796
			c2.420166-5.5887451-0.1399078-12.1355286-5.7285461-14.5557251
			C167.3864746,434.3835449,160.860321,436.9953613,158.440155,442.5841064z"/>
		<path class="st1" d="M127.6949768,441.2324524l-2.5144806-1.536438l14.6488647-23.9718628l2.0115662,1.229248
			l3.2801514,28.3898621l11.7395935-19.2110596l2.5144806,1.5367432l-14.6488647,23.9715576l-2.0115509-1.229248
			l-3.2801666-28.3895874L127.6949768,441.2324524z"/>
		<path class="st1" d="M104.7106934,424.0162048l-2.299408-1.8430176l17.5694351-21.9206238l1.8395538,1.4743652
			l-0.3454819,28.5758057l14.0801544-17.5670776l2.2992554,1.8429871l-17.5694351,21.9206238l-1.8394089-1.4743347
			l0.3453293-28.5758362L104.7106934,424.0162048z"/>
		<path class="st1" d="M84.9520569,412.651886l5.1387253,0.3817139l1.5496292,1.5622864l-4.7788391-0.0190125L84.9520569,412.651886
			z M98.2654877,418.4848022l-13.0340424-13.1393127l2.0922089-2.075592l10.9586182,11.0470276l6.8345032-6.7799683
			l-7.9976501-8.0621033l2.0922089-2.0756226l7.9976501,8.0621338l6.8345032-6.7799988l-10.9586182-11.0470581l2.0922089-2.075592
			l13.0340424,13.1392822L98.2654877,418.4848022z"/>
		<path class="st1" d="M82.1758652,402.133606l-11.610817-14.4095764l2.2945023-1.848938l9.7619095,12.1150208l7.4953156-6.0397034
			l-7.1242905-8.8413086l2.2943573-1.8489685l7.1242905,8.8413391l7.4953232-6.0396729l-9.7620544-12.1150208l2.2945099-1.848938
			l11.610817,14.4095459L82.1758652,402.133606z"/>
		<path class="st1" d="M73.287323,355.1375122c3.6107864-2.3031616,8.7233734-0.7171326,11.4067383,3.4899292l1.2888031,2.0209656
			c2.6833572,4.2070618,1.9655075,9.5118103-1.6452789,11.8149719c-0.0331268,0.0210876-0.066246,0.0421753-0.1324921,0.0843506
			l-0.9486694,0.5585022l-1.6480942-2.5838928l1.0811539-0.643158c2.2618332-1.3492737,2.5836945-4.8632812,0.8088989-7.6462097
			l-1.2888031-2.0206604c-1.7747955-2.7826233-5.054657-3.9064331-7.2741547-2.4909058
			c-2.2527695,1.4369202-2.6168213,4.8846741-0.8420258,7.6672974l0.0423355,0.0662537
			c0.0421829,0.0662537,0.1266937,0.1990356,0.2112045,0.331543l0.3380585,0.5299683
			c0.7999878,1.4003601,1.7964859,3.3280334,1.8340607,4.7022705c0.1452637,3.5888672-0.906929,6.0310669-3.2589188,7.53125
			c-3.5778122,2.2817688-8.7235184,0.7171326-11.4067345-3.4902344l-0.3803864-0.5962219
			c-2.5988503-4.074585-2.0375519-9.1862183,1.3140526-11.6034546l0.9516373-0.7001953l1.6479492,2.5838928l-0.8521194,0.6369019
			c-2.0476494,1.5388184-2.2884178,4.8148804-0.5770416,7.498291l0.3803864,0.5962219
			c1.7747955,2.7826233,5.0335693,3.8734741,7.253067,2.4576416c2.1863785-1.3944397,2.6561813-4.6767273,1.0321426-7.3690491
			l-0.1057587-0.1657715l-0.0421829-0.0665588c0,0,0,0,0,0.0003052l-0.6339264-0.993988l0.0331192-0.0210876
			c-0.685173-1.1472778-1.0112-1.7315979-0.9991684-1.7859802l-0.0634232-0.0992126
			C68.9393768,361.5458374,70.1402435,357.1447754,73.287323,355.1375122z"/>
	</g>
	
		<radialGradient id="SVGID_2_" cx="331.4664917" cy="268.8721924" r="598.5830078" gradientTransform="matrix(0.3041915 0 0 -0.3041973 149.1706848 334.020874)" gradientUnits="userSpaceOnUse">
		<stop  offset="0" style="stop-color:#603913"/>
		<stop  offset="1" style="stop-color:#231F20"/>
	</radialGradient>
	<path class="st2" d="M432.0865173,252.2361603c0,6.2229462-0.3137207,12.3701324-0.9197998,18.4308929
		c-2.7597351,27.4784851-11.6340942,53.1496887-25.2378235,75.6389771
		c-2.2510986,3.7229614-4.6319885,7.3593445-7.1319275,10.898407
		c-28.1056824,39.7729492-71.7632751,67.7818298-122.1090393,75.173645
		c-8.7120056,1.2770691-17.6187744,1.9372559-26.6879272,1.9372559c-2.8030243,0-5.5951233-0.0649719-8.3656616-0.1947937
		c-7.5432281-0.3355713-14.9565125-1.1364136-22.229187-2.359375c-9.5994873-1.6341858-18.939209-4.0043335-27.9650421-7.0671692
		h-0.010788c-8.7661896-2.9762268-17.2400818-6.6126099-25.356842-10.833313
		c-49.8046417-25.9093323-86.1245651-74.1672363-95.6699905-131.4837036
		c-1.3635635-8.1819153-2.1753006-16.5477295-2.4241867-25.0542603c-0.0323715-1.6991577-0.0648499-3.3983154-0.0648499-5.0865631
		c0-26.1150055,5.4977722-50.9527588,15.4002151-73.39888c2.2185974-5.0216827,4.6536713-9.9242096,7.2942505-14.6970062
		c9.7401123-17.5975647,22.3158646-33.4094086,37.1099472-46.8076935
		c6.2012482-5.6386185,12.7812347-10.8334198,19.718338-15.5737381h0.01091
		c8.0626984-5.5194626,16.5906677-10.3896179,25.519165-14.5671768c8.9825897-4.1991501,18.3547821-7.6840134,28.0516357-10.3896179
		c15.5842438-4.3398972,32.0125885-6.655983,48.9820862-6.655983c62.098877,0,116.9249878,31.0825195,149.81427,78.5395126
		c16.1470032,23.3335266,26.9910278,50.6173096,30.7896729,80.1088104
		C431.5780029,236.4676056,432.0865173,244.2923584,432.0865173,252.2361603z"/>
	<g>
		<path class="st3" d="M169.1568298,284.8425903l23.7329559,75.8217163h-19.0892944l-4.6695709-15.6087341h-24.5143127
			l-4.7528687,15.6087341h-15.5732574l24.3013763-75.8217163H169.1568298z M148.8769989,331.0577087h16.0638885
			l-7.9615784-26.6070251L148.8769989,331.0577087z"/>
		<path class="st3" d="M257.7119751,320.1149292v40.5493774h-8.109726
			c-0.5869293-2.8514404-1.4293823-5.7583923-2.5273438-8.7209167c-5.4101715,6.5916138-12.3015747,9.8873901-20.6742249,9.8873901
			c-9.8927307,0-17.5895538-3.536499-23.0923157-10.6094971c-5.5027618-7.0729675-8.2522736-16.2197266-8.2522736-27.4402466
			c0-12.0722351,2.9346771-21.7744141,8.8040314-29.1066284c5.8693695-7.3322144,13.84021-10.9983215,23.9125671-10.9983215
			c8.4429779,0,15.2566223,2.3699951,20.4409027,7.1100159c5.1842957,4.7400208,8.3504333,11.0538635,9.4983826,18.9415283
			l-16.8859863,2.2218933c-1.3701324-9.1837769-5.7212372-13.7756653-13.053299-13.7756653
			c-4.8140106,0-8.4522552,2.1755981-10.9148102,6.5267944c-2.4625244,4.3511963-3.6937866,10.5631714-3.6937866,18.6360168
			c0,7.7766113,1.3330994,13.7201233,3.9992981,17.8305969c2.666214,4.1104736,6.461853,6.1657104,11.3869324,6.1657104
			c3.1846313,0,6.0267334-1.0368652,8.5263062-3.1106262s3.7493591-5.3880615,3.7493591-9.9429016h-14.2753143v-14.1645203
			H257.7119751z"/>
		<path class="st3" d="M289.5953674,330.6133423v30.0509644h-17.8858032v-75.8217163h33.3275757
			c6.1471252,0,11.0814514,0.7128296,14.803009,2.1385498c3.7215881,1.4238586,6.8044128,4.0419617,9.2484436,7.8543396
			c2.4440002,3.8105164,3.6660156,8.0487671,3.6660156,12.7109985c0,9.1041565-4.3881531,15.6365051-13.1643982,19.5951843
			l13.9976196,33.522644h-19.6244202l-11.6443176-30.0509644H289.5953674z M289.5953674,298.3405151v19.3303833h10.8869934
			c3.5549927,0,6.1378784-0.25,7.7486877-0.7499084c1.6108704-0.499939,3.0457764-1.6108704,4.3048401-3.3328247
			c1.2590332-1.7219543,1.8885193-3.6938782,1.8885193-5.915741c0-2.1107788-0.6294861-3.9993896-1.8885193-5.665802
			c-1.2590637-1.6664429-2.6291809-2.6940308-4.1104126-3.0828857c-1.4812317-0.3888245-4.2585449-0.5832214-8.3319092-0.5832214
			H289.5953674z"/>
		<path class="st3" d="M364.193634,284.8425903v75.8217163h-17.7191467v-75.8217163H364.193634z"/>
	</g>
	<g>
		<g>
			<path class="st3" d="M407.6614685,244.7774963l-0.5759277-1.4405212
				c-1.3682251-3.4202881-5.9296265-2.8535309-9.5780029-2.3458405c0,0-23.196167,3.9712372-31.6469421,11.0125732
				l-19.8885193-2.8143005c-0.5231018-7.0805664-0.9108276-7.5409393-0.8657227-8.0643921
				c0.0440369-0.5194244,0.5036621-0.9093628,1.0267639-0.8660889l16.0570984,1.3697205
				c3.1825256,0.2718353,6.3235779-1.6528931,7.0891724-4.7544098c0.9683838-3.9239349-2.4184265-5.6949768-6.2696838-6.0214539
				l-8.2757874-0.7086945c-0.5095215-0.0983124-1.0142822-0.1925812-1.5237732-0.291275l-9.328949-2.845459
				c-3.1322632-0.9563141-6.4761658-0.9720764-9.6161499-0.0432739l-12.3647156,5.2738342h-15.0505981v21.4934235h15.0505981
				l8.9170227,2.6605988c1.0637817,0.3187561,2.1550293,0.5351868,3.259491,0.6452332l24.9180298,2.5424805
				c5.3430481,0.4566956,10.7246704-0.1298828,15.8447266-1.7237244l30.3370056-7.8559418
				C407.3687439,249.3151245,408.5142822,246.9105835,407.6614685,244.7774963L407.6614685,244.7774963z"/>
		</g>
		<g>
			<path class="st3" d="M113.7232819,167.5952454h19.5184784c7.9563751,0,13.8857727,1.4859619,17.7850952,4.4578857
				c3.9008942,2.9719391,7.395752,7.6722412,10.4846039,14.1008759c3.0888519,6.4286499,4.6348419,14.5540466,4.6348419,24.3761749
				c0,12.3514404-2.7000275,22.6688995-8.0969086,30.9523773c-5.3984528,8.2834625-12.8410645,12.4252014-22.3278046,12.4252014
				h-21.9983063V167.5952454z M128.4335785,183.4666138v54.1903687h6.171463c5.453125,0,9.5054779-2.7506104,12.1539612-8.2518616
				c2.6500397-5.501236,3.9742889-11.9615021,3.9742889-19.3807831c0-5.2272491-0.7558289-10.0645447-2.2674561-14.5119019
				c-1.5116425-4.4473572-3.3886871-7.5668335-5.6342621-9.358429c-2.2440338-1.7915802-4.9393463-2.6873932-8.0859833-2.6873932
				H128.4335785z"/>
			<path class="st3" d="M205.1582642,167.5952454l20.0166321,86.3125153h-16.1001282l-3.9383545-17.7683563h-20.6756287
				l-4.0086365,17.7683563h-13.1346436l20.4960327-86.3125153H205.1582642z M188.0540314,220.2047882h13.5484619
				l-6.7148895-30.2884369L188.0540314,220.2047882z"/>
			<path class="st3" d="M267.7129517,167.5952454v17.0728149h-15.8346405v69.2397003h-15.1787872v-69.2397003h-15.9283447
				v-17.0728149H267.7129517z"/>
			<path class="st3" d="M301.0563049,167.5952454l20.0166321,86.3125153h-16.1001282l-3.9383545-17.7683563h-20.6756287
				l-4.0086365,17.7683563h-13.1346436l20.4960327-86.3125153H301.0563049z M283.9520569,220.2047882h13.5484924
				l-6.7149048-30.2884369L283.9520569,220.2047882z"/>
		</g>
		<g>
			<path class="st1" d="M350.4150085,197.8800507c-0.7446289,2.693222-1.9221497,8.1875458-2.4789734,12.456665
				c-1.6782227-4.4958191-3.1065979-7.5731201-4.3057251-9.6735535c6.400238-13.7655029-19.8386841-27.3758392-44.8993835-12.207962
				c15.864563,4.1715393,29.0913391,34.6675873,41.0789795,16.6733246
				c-5.4197693-10.8525391-17.4877625-20.1424103-36.1859436-17.2543793
				c22.8304443-4.7404785,33.2227478,7.8757324,36.6011353,13.4324188c0.355835,0.7171478,0.7831726,1.5329742,1.3110352,2.4786377
				l0.0132141,0.0623779c0.004364-0.0051422,0.0087891-0.009552,0.0131836-0.0146942
				c2.179657,3.8979034,5.1578369,10.0136108,5.2506409,15.2063904c0.0425415,2.3671265-0.0179749,3.7574005-0.0179749,5.2808228
				c0,1.2846375,1.2779846,2.1242981,3.2290955,2.1242981c1.6917725,0,3.4286804-0.7406311,3.4198608-2.1184235
				c-0.0476379-9.5563202,2.5805664-54.9422455,41.27005-60.0145111
				c-22.4023438,4.6528168-34.9743347,17.4271545-37.2005615,38.3310699
				c29.9614258,20.1761475,27.5095825-32.7171631,47.2121277-40.6670074
				C350.7289734,153.9747009,334.466095,181.7342072,350.4150085,197.8800507z"/>
			<path class="st1" d="M394.7142029,164.3114624c-22.4023438,4.6528168-34.9743347,17.4267883-37.2005615,38.3310699
				c29.9614258,20.1761475,27.5095825-32.7171631,47.2121277-40.6670074
				C404.725769,161.9755249,400.6607056,163.1115875,394.7142029,164.3114624z"/>
			<g>
				<path class="st1" d="M339.809906,205.1285248c-5.4197693-10.8525391-17.4877625-20.1424103-36.1859436-17.2543793
					l-4.8930359,0.5810547C314.5954895,192.6267395,327.8222656,223.1227875,339.809906,205.1285248z"/>
				<path class="st1" d="M303.6239624,187.8741455c0.2868347-0.0594177,0.5630188-0.104538,0.8462524-0.1584778
					C303.9317322,187.8070221,303.6239624,187.8741455,303.6239624,187.8741455z"/>
			</g>
		</g>
	</g>
</g>
</svg>
