<?xml version="1.0" encoding="utf-8"?>
<!-- Generator: Adobe Illustrator 22.0.1, SVG Export Plug-In . SVG Version: 6.00 Build 0)  -->
<svg version="1.1" id="Calque_1" xmlns="http://www.w3.org/2000/svg" xmlns:xlink="http://www.w3.org/1999/xlink" x="0px" y="0px"
	 viewBox="0 0 1286.6 1792" style="enable-background:new 0 0 1286.6 1792;" xml:space="preserve">
<path d="M643.3,789.4c131.6,0,254.6-11.9,368.9-35.8c114.4-23.9,204.6-59.1,270.7-105.8v141.6c0,38.3-28.6,73.8-85.8,106.6
	s-134.9,58.7-233.2,77.9s-205.1,28.7-320.6,28.7S421,993,322.7,973.9s-176-45.1-233.2-77.9S3.7,827.7,3.7,789.4V647.8
	c66.1,46.6,156.3,81.9,270.7,105.8C388.8,777.5,511.7,789.4,643.3,789.4z M643.3,1429c131.6,0,254.6-11.9,368.9-35.8
	c114.4-23.9,204.6-59.1,270.7-105.8V1429c0,38.3-28.6,73.8-85.8,106.6s-134.9,58.7-233.2,77.9c-98.3,19.2-205.1,28.7-320.6,28.7
	s-222.4-9.6-320.6-28.7c-98.3-19.2-176-45.1-233.2-77.9S3.7,1467.3,3.7,1429v-141.6c66.1,46.6,156.3,81.9,270.7,105.8
	C388.8,1417,511.7,1429,643.3,1429z M643.3,1109.2c131.6,0,254.6-11.9,368.9-35.8c114.4-23.9,204.6-59.1,270.7-105.8v141.6
	c0,38.3-28.6,73.8-85.8,106.6c-57.2,32.8-134.9,58.7-233.2,77.9s-205.1,28.7-320.6,28.7s-222.4-9.6-320.6-28.7s-176-45.1-233.2-77.9
	c-57.2-32.8-85.8-68.3-85.8-106.6V967.6c66.1,46.6,156.3,81.9,270.7,105.8C388.8,1097.3,511.7,1109.2,643.3,1109.2z M643.3,149.8
	c115.5,0,222.4,9.6,320.6,28.7s176,45.1,233.2,77.9s85.8,68.3,85.8,106.6v106.6c0,38.3-28.6,73.8-85.8,106.6s-134.9,58.7-233.2,77.9
	c-98.3,19.2-205.1,28.7-320.6,28.7s-222.4-9.6-320.6-28.7c-98.3-19.2-176-45.1-233.2-77.9S3.7,507.9,3.7,469.6V363
	c0-38.3,28.6-73.8,85.8-106.6s134.9-58.7,233.2-77.9S527.8,149.8,643.3,149.8z"/>
</svg>
