<?xml version="1.0" encoding="utf-8"?>
<!-- Generator: Adobe Illustrator 22.0.1, SVG Export Plug-In . SVG Version: 6.00 Build 0)  -->
<svg version="1.1" id="Calque_1" xmlns="http://www.w3.org/2000/svg" xmlns:xlink="http://www.w3.org/1999/xlink" x="0px" y="0px"
	 viewBox="0 0 1588.9 1792" style="enable-background:new 0 0 1588.9 1792;" xml:space="preserve">
<path d="M1500.2,444.3c23.5,0,43.5,8.2,60,24.7c16.5,16.5,24.7,36.5,24.7,60v1072.8c0,23.5-8.2,43.5-24.7,60
	c-16.5,16.5-36.5,24.7-60,24.7H653.3c-23.5,0-43.5-8.2-60-24.7c-16.5-16.5-24.7-36.5-24.7-60v-254.1H88.7c-23.5,0-43.5-8.2-60-24.7
	C12.2,1306.5,4,1286.5,4,1263V670.2c0-23.5,5.9-49.4,17.6-77.6c11.8-28.2,25.9-50.6,42.3-67l359.9-359.9
	c16.5-16.5,38.8-30.6,67-42.3c28.2-11.8,54.1-17.6,77.6-17.6h367c23.5,0,43.5,8.2,60,24.7c16.5,16.5,24.7,36.5,24.7,60v289.4
	c40-23.5,77.6-35.3,112.9-35.3H1500.2z M1020.3,632.2L756.5,896h263.8V632.2z M455.7,293.5L191.9,557.2h263.8V293.5z M628.6,864.2
	l278.8-278.8v-367H568.6v367c0,23.5-8.2,43.5-24.7,60c-16.5,16.5-36.5,24.7-60,24.7h-367v564.6h451.7v-225.8
	c0-23.5,5.9-49.4,17.6-77.6C598,903.1,612.1,880.7,628.6,864.2z M1472,1573.5V557.2h-338.8v367c0,23.5-8.2,43.5-24.7,60
	c-16.5,16.5-36.5,24.7-60,24.7h-367v564.6H1472z"/>
</svg>
