<?xml version="1.0" encoding="utf-8"?>
<!-- Generator: Adobe Illustrator 22.0.1, SVG Export Plug-In . SVG Version: 6.00 Build 0)  -->
<svg version="1.1" id="Calque_1" xmlns="http://www.w3.org/2000/svg" xmlns:xlink="http://www.w3.org/1999/xlink" x="0px" y="0px"
	 viewBox="0 0 500 500" style="enable-background:new 0 0 500 500;" xml:space="preserve">
<style type="text/css">
	.st0{fill:#293133;}
	.st1{fill:#FFFFFF;}
</style>
<g>
	<circle class="st0" cx="250" cy="250" r="250"/>
</g>
<g>
	<path class="st1" d="M235,341c17.3,0,30.7-5.8,40.2-17.4c9.5-11.6,15.3-27.4,17.4-47.4c-17.1,11.5-35.5,17.2-55.2,17.2
		c-26.1,0-47.9-8.6-65.4-25.8c-17.5-17.2-26.2-39.9-26.2-68.2c0-28.3,9.4-51,28.2-68.2c18.8-17.2,42.5-25.8,71-25.8
		c19.7,0,36.9,3.8,51.4,11.4c14.5,7.6,25.9,18.2,34.2,31.8c15.7,26.4,23.6,59.5,23.6,99.2c0,25.6-3.1,48.1-9.4,67.4
		c-6.3,19.3-14.7,34.6-25.4,45.8c-21.9,22.4-48.4,33.6-79.6,33.6c-13.1,0-25.6-1.9-37.6-5.8c-12-3.9-21.1-7.7-27.2-11.6
		c-6.1-3.9-13.2-8.9-21.2-15l31.2-44c1.9,1.6,4.3,3.7,7.4,6.2c3.1,2.5,9,5.9,17.8,10.2C219,338.9,227.3,341,235,341z M243.6,240.2
		c12.4,0,22.7-3.6,31-10.8c8.3-7.2,12.4-16.7,12.4-28.4c0-11.7-4-21.9-12-30.4c-8-8.5-18-12.8-30-12.8s-21.8,3.8-29.4,11.4
		c-7.6,7.6-11.4,17.3-11.4,29c0,11.7,3.5,21.7,10.4,29.8C221.5,236.1,231.2,240.2,243.6,240.2z"/>
</g>
</svg>
