<?xml version="1.0" encoding="utf-8"?>
<!-- Generator: Adobe Illustrator 23.0.2, SVG Export Plug-In . SVG Version: 6.00 Build 0)  -->
<svg version="1.1" id="Calque_1" xmlns="http://www.w3.org/2000/svg" xmlns:xlink="http://www.w3.org/1999/xlink" x="0px" y="0px"
	 viewBox="0 0 500 500" style="enable-background:new 0 0 500 500;" xml:space="preserve">
<style type="text/css">
	.st0{fill:#293133;}
	.st1{fill:#FFFFFF;}
</style>
<g>
	<circle class="st0" cx="250" cy="250" r="250"/>
</g>
<g>
	<path class="st1" d="M75.4,111.8h113.2v279.6h-60V165H75.4V111.8z"/>
	<path class="st1" d="M344.8,220.8c7.1-10,10.6-19.7,10.6-29c0-9.3-3.1-17.1-9.2-23.4c-6.1-6.3-14-9.4-23.6-9.4
		c-17.6,0-34.3,12.5-50,37.6l-50-29.6c13.1-20.3,27.4-35.6,43-46s35.5-15.6,59.6-15.6c24.1,0,45.3,7.7,63.6,23
		c18.3,15.3,27.4,36.2,27.4,62.6c0,14.4-3.7,28.2-11,41.4c-7.3,13.2-20.9,30.1-40.6,50.6l-50.4,52.4h110.4v56H227.4V345l82-84
		C325.9,244.2,337.7,230.8,344.8,220.8z"/>
</g>
</svg>
