<?xml version="1.0" encoding="utf-8"?>
<!-- Generator: Adobe Illustrator 21.1.0, SVG Export Plug-In . SVG Version: 6.00 Build 0)  -->
<svg version="1.1" id="Calque_1" xmlns="http://www.w3.org/2000/svg" xmlns:xlink="http://www.w3.org/1999/xlink" x="0px" y="0px"
	 viewBox="0 0 500 500" style="enable-background:new 0 0 500 500;" xml:space="preserve">
<style type="text/css">
	.st0{fill:#293133;}
	.st1{fill:#FFFFFF;}
</style>
<g>
	<circle class="st0" cx="250" cy="250" r="250"/>
</g>
<g>
	<path class="st1" d="M333.2,108.6v54H222.8v46.8c8.3-2.4,17.7-3.6,28.4-3.6c26.9,0,50.1,8.1,69.6,24.4
		c19.5,16.3,29.2,38.2,29.2,65.8c0,27.6-10.1,50.4-30.2,68.4c-20.1,18-45,27-74.6,27c-37.9,0-69.5-14-94.8-42l32.8-45.6
		c2.4,2.4,5.6,5.3,9.6,8.8c4,3.5,11.3,8.1,22,13.8c10.7,5.7,21.3,8.6,32,8.6c10.7,0,20.1-3.2,28.4-9.6c8.3-6.4,12.4-15.9,12.4-28.4
		c0-12.5-4.5-22.2-13.4-29c-8.9-6.8-20.5-10.2-34.6-10.2c-14.1,0-30.5,5.1-49.2,15.2l-26-28V108.6H333.2z"/>
</g>
</svg>
