<?xml version="1.0" encoding="utf-8"?>
<!-- Generator: Adobe Illustrator 26.5.0, SVG Export Plug-In . SVG Version: 6.00 Build 0)  -->
<svg version="1.1" id="Calque_1" xmlns="http://www.w3.org/2000/svg" xmlns:xlink="http://www.w3.org/1999/xlink" x="0px" y="0px"
	 viewBox="0 0 700 1000" style="enable-background:new 0 0 700 1000;" xml:space="preserve">
<style type="text/css">
	.st0{fill:#6C3657;}
</style>
<path class="st0" d="M584.7,338.2L422.8,500l161.9,161.9l65.6-65.7c8.8-9.4,19.4-11.5,31.9-6.4c11.8,5.2,17.7,14.1,17.7,26.8v204.2
	c0,7.9-2.9,14.7-8.6,20.5c-5.7,5.7-12.6,8.6-20.5,8.6H466.6c-12.8,0-21.8-6.1-26.8-18.2c-5.2-11.8-3-22.3,6.4-31.4l65.6-65.6
	L349.9,572.9L188.1,734.7l65.6,65.6c9.4,9.1,11.5,19.6,6.4,31.4c-5.2,12.1-14.2,18.2-26.9,18.2h-204c-7.9,0-14.7-2.9-20.5-8.6
	C3,835.6,0,828.7,0,820.9V616.7c0-12.8,6.1-21.8,18.2-26.8c11.8-5.2,22.3-3,31.4,6.4l65.6,65.6L277,500L115.2,338.2l-65.6,65.6
	c-5.7,5.7-12.6,8.7-20.5,8.7c-3.7,0-7.3-0.8-11-2.3C6.1,405.1,0,396.1,0,383.3V179.2c0-7.9,2.9-14.7,8.7-20.5
	c5.8-5.7,12.6-8.7,20.5-8.7h204.2c12.8,0,21.8,6.1,26.9,18.2c5.2,11.8,3,22.3-6.4,31.4l-65.6,65.6L350.1,427l161.8-161.8l-65.6-65.6
	c-9.4-9.1-11.5-19.5-6.4-31.4c5.2-12.1,14.1-18.2,26.8-18.2h204.2c7.9,0,14.7,2.9,20.5,8.7c5.7,5.8,8.6,12.6,8.6,20.5v204.2
	c0,12.8-5.9,21.8-17.7,26.9c-3.9,1.5-7.7,2.3-11.4,2.3c-7.9,0-14.7-2.9-20.5-8.7L584.7,338.2z"/>
</svg>
