<?xml version="1.0" encoding="utf-8"?>
<!-- Generator: Adobe Illustrator 24.3.0, SVG Export Plug-In . SVG Version: 6.00 Build 0)  -->
<svg version="1.1" id="Calque_1" xmlns="http://www.w3.org/2000/svg" xmlns:xlink="http://www.w3.org/1999/xlink" x="0px" y="0px"
	 viewBox="0 0 928.6 1000" style="enable-background:new 0 0 928.6 1000;" xml:space="preserve">
<style type="text/css">
	.st0{fill:#333333;}
</style>
<path class="st0" d="M821.5,783.7c38.6,61.2,11.3,111.1-61.2,111.1h-592c-72.5,0-99.7-49.9-61.2-111.1l258.4-407.6v-205h-32.9
	c-18,0-32.9-14.9-32.9-33s14.9-32.9,32.9-32.9h263.1c18.1,0,33,14.9,33,32.9s-14.9,33-33,33h-32.9v205L821.5,783.7z M421.1,411.1
	L281.3,631.6h365.9L507.5,411.1l-10.3-15.9v-19.1v-205h-65.8v205v19.1L421.1,411.1z"/>
</svg>
