<?xml version="1.0" encoding="utf-8"?>
<!-- Generator: Adobe Illustrator 24.3.0, SVG Export Plug-In . SVG Version: 6.00 Build 0)  -->
<svg version="1.1" id="Calque_1" xmlns="http://www.w3.org/2000/svg" xmlns:xlink="http://www.w3.org/1999/xlink" x="0px" y="0px"
	 viewBox="0 0 300 300" style="enable-background:new 0 0 300 300;" xml:space="preserve">
<style type="text/css">
	.st0{fill:#640038;}
	.st1{fill:#FFFFFF;}
</style>
<rect class="st0" width="300" height="300"/>
<path class="st1" d="M234.9,143.4L72,61.9c-2.6-1.3-5.7-0.9-7.9,0.9c-2.1,1.8-3.1,4.7-2.4,7.4L83.6,150l-22.3,79.5
	c-1.1,4,1.2,8,5.2,9.1c0.7,0.2,1.4,0.3,2.2,0.2c1.2,0,2.3-0.3,3.3-0.8l162.9-81.4c3.6-1.8,5.1-6.3,3.2-10
	C237.4,145.2,236.3,144.1,234.9,143.4z M80.2,217.4l16.4-60.1H165v-14.8H96.6l-16.4-60L215,150L80.2,217.4z"/>
</svg>
