<?xml version="1.0" encoding="utf-8"?>
<!-- Generator: Adobe Illustrator 24.3.0, SVG Export Plug-In . SVG Version: 6.00 Build 0)  -->
<svg version="1.1" id="Calque_1" xmlns="http://www.w3.org/2000/svg" xmlns:xlink="http://www.w3.org/1999/xlink" x="0px" y="0px"
	 viewBox="0 0 300 300" style="enable-background:new 0 0 300 300;" xml:space="preserve">
<style type="text/css">
	.st0{fill:#640038;}
	.st1{fill:#FFFFFF;}
</style>
<rect class="st0" width="300" height="300"/>
<path class="st1" d="M150,183.3c18.4,0,33.3-14.9,33.3-33.3V94.5c0-18.4-14.9-33.3-33.3-33.3s-33.3,14.9-33.3,33.3V150
	C116.7,168.4,131.6,183.3,150,183.3z M205.5,127.8H200c-3.1,0-5.6,2.5-5.6,5.6V150c0,26-22.4,46.8-48.9,44.2
	c-23.1-2.3-40-23-40-46.2v-14.7c0-3.1-2.5-5.6-5.6-5.6h-5.6c-3.1,0-5.6,2.5-5.6,5.6v13.9c0,31.1,22.2,58.8,52.8,63.1v11.9h-19.4
	c-3.1,0-5.6,2.5-5.6,5.6v5.6c0,3.1,2.5,5.6,5.6,5.6h55.5c3.1,0,5.6-2.5,5.6-5.6v-5.6c0-3.1-2.5-5.6-5.6-5.6h-19.4v-11.7
	c29.7-4.1,52.8-29.6,52.8-60.5v-16.7C211.1,130.3,208.6,127.8,205.5,127.8z"/>
</svg>
