<?xml version="1.0" encoding="utf-8"?>
<!-- Generator: Adobe Illustrator 24.3.0, SVG Export Plug-In . SVG Version: 6.00 Build 0)  -->
<svg version="1.1" id="Calque_1" xmlns="http://www.w3.org/2000/svg" xmlns:xlink="http://www.w3.org/1999/xlink" x="0px" y="0px"
	 viewBox="0 0 1453.4 292" style="enable-background:new 0 0 1453.4 292;" xml:space="preserve">
<style type="text/css">
	.st0{fill:url(#SVGID_1_);}
	.st1{fill:url(#SVGID_2_);}
	.st2{fill:#FFFFFF;}
	.st3{fill:#333333;}
</style>
<g>
	
		<linearGradient id="SVGID_1_" gradientUnits="userSpaceOnUse" x1="2189.2" y1="1558" x2="2189.2" y2="1266" gradientTransform="matrix(-1 0 0 1 2915.8999 -1266)">
		<stop  offset="0" style="stop-color:#BBBBBB"/>
		<stop  offset="1" style="stop-color:#DCDCDC"/>
	</linearGradient>
	<path class="st0" d="M25,282c-8,0-15-7-15-15V25c0-8,7-15,15-15h1403.5c8,0,15,7,15,15v242c0,8-7,15-15,15H25z M1428.4,292
		c14,0,25-11,25-25V25c0-14-11-25-25-25H25C11,0,0,11,0,25v242c0,14,11,25,25,25H1428.4z"/>
</g>
<linearGradient id="SVGID_2_" gradientUnits="userSpaceOnUse" x1="2189.1499" y1="-606" x2="2189.1499" y2="-334" gradientTransform="matrix(-1 0 0 -1 2915.8999 -324)">
	<stop  offset="0" style="stop-color:#E8E8E8"/>
	<stop  offset="1" style="stop-color:#F9F9F9"/>
</linearGradient>
<path class="st1" d="M25,282c-8,0-15-7-15-15V25c0-8,7-15,15-15h1403.5c8,0,15,7,15,15v242c0,8-7,15-15,15H25z"/>
<g>
	<path class="st2" d="M343.1,166.1c0.7,1.6,1.3,3.2,2,4.9c0.7-1.7,1.3-3.3,2-5c0.7-1.6,1.4-3.2,2.2-4.7l30-56.1
		c0.4-0.7,0.8-1.3,1.2-1.7c0.4-0.4,0.8-0.7,1.3-0.9c0.5-0.2,1-0.3,1.6-0.4c0.6,0,1.3-0.1,2.2-0.1h14.2v101.2h-16.6V138
		c0-1.2,0-2.5,0.1-4c0.1-1.4,0.2-2.9,0.3-4.4L353.1,187c-0.7,1.3-1.6,2.3-2.7,3s-2.4,1.1-3.9,1.1h-2.6c-1.5,0-2.8-0.4-3.9-1.1
		c-1.1-0.7-2-1.7-2.7-3l-31-57.6c0.2,1.5,0.3,3,0.4,4.5s0.1,2.8,0.1,4.1v65.4h-16.6V102.2h14.2c0.8,0,1.6,0,2.2,0.1
		c0.6,0,1.2,0.2,1.6,0.4c0.5,0.2,0.9,0.5,1.4,0.9s0.8,1,1.2,1.7l30.2,56.2C341.7,162.9,342.4,164.4,343.1,166.1z"/>
	<path class="st2" d="M450,130.5c5.4,0,10.2,0.9,14.6,2.6c4.4,1.7,8.1,4.2,11.2,7.4s5.5,7,7.1,11.6c1.7,4.6,2.5,9.7,2.5,15.3
		c0,5.7-0.8,10.8-2.5,15.4c-1.7,4.6-4.1,8.5-7.1,11.7c-3.1,3.2-6.8,5.7-11.2,7.4c-4.4,1.7-9.2,2.6-14.6,2.6s-10.2-0.9-14.6-2.6
		c-4.4-1.7-8.1-4.2-11.2-7.4s-5.5-7.1-7.2-11.7c-1.7-4.6-2.6-9.7-2.6-15.4c0-5.6,0.9-10.8,2.6-15.3c1.7-4.6,4.1-8.4,7.2-11.6
		c3.1-3.2,6.8-5.6,11.2-7.4C439.7,131.3,444.6,130.5,450,130.5z M450,191.1c6,0,10.4-2,13.3-6s4.3-9.9,4.3-17.6
		c0-7.7-1.4-13.6-4.3-17.7s-7.3-6.1-13.3-6.1c-6.1,0-10.5,2-13.4,6.1s-4.3,10-4.3,17.7s1.4,13.6,4.3,17.6
		C439.4,189.1,443.9,191.1,450,191.1z"/>
	<path class="st2" d="M549.4,203.4c-2.2,0-3.7-1-4.4-3.1l-1.4-6.9c-1.5,1.7-3.1,3.2-4.7,4.6c-1.6,1.4-3.4,2.5-5.3,3.5
		s-3.9,1.7-6.1,2.3c-2.2,0.5-4.5,0.8-7,0.8c-3.9,0-7.5-0.8-10.8-2.4c-3.3-1.6-6.1-4-8.4-7.1c-2.4-3.1-4.2-6.9-5.5-11.5
		s-1.9-9.8-1.9-15.7c0-5.3,0.7-10.3,2.2-14.8c1.4-4.6,3.5-8.5,6.2-11.9s6-6,9.7-7.9c3.8-1.9,8-2.8,12.7-2.8c4,0,7.4,0.6,10.3,1.9
		c2.8,1.3,5.4,3,7.6,5.1V99.4H560v104H549.4z M526.4,190.7c3.6,0,6.6-0.7,9.2-2.2c2.5-1.5,4.9-3.6,7.1-6.4v-32.2
		c-2-2.4-4.1-4.1-6.4-5c-2.3-1-4.8-1.5-7.5-1.5c-2.6,0-5,0.5-7.1,1.5c-2.1,1-3.9,2.5-5.4,4.4c-1.5,2-2.6,4.5-3.4,7.6
		s-1.2,6.7-1.2,10.8c0,4.2,0.3,7.8,1,10.7s1.6,5.3,2.9,7.1s2.8,3.2,4.6,4C522.1,190.3,524.2,190.7,526.4,190.7z"/>
	<path class="st2" d="M599.7,110.6c0,1.5-0.3,2.9-0.9,4.2c-0.6,1.3-1.4,2.4-2.4,3.4s-2.2,1.8-3.5,2.3c-1.4,0.6-2.8,0.9-4.3,0.9
		s-2.9-0.3-4.2-0.9s-2.5-1.4-3.5-2.3c-1-1-1.8-2.1-2.3-3.4c-0.6-1.3-0.9-2.7-0.9-4.2s0.3-3,0.9-4.3c0.6-1.4,1.4-2.5,2.3-3.5
		c1-1,2.1-1.8,3.5-2.3c1.3-0.6,2.7-0.9,4.2-0.9s3,0.3,4.3,0.9c1.4,0.6,2.5,1.4,3.5,2.3c1,1,1.8,2.1,2.4,3.5S599.7,109.1,599.7,110.6
		z M597.1,131.6v71.8h-17.3v-71.8H597.1z"/>
	<path class="st2" d="M619.7,203.4v-58.8l-6.2-1c-1.4-0.2-2.4-0.7-3.3-1.4c-0.8-0.7-1.2-1.7-1.2-2.9v-7.1h10.7v-2.3
		c0-4.4,0.7-8.5,2.2-12.2c1.4-3.8,3.6-7,6.6-9.8c2.9-2.8,6.6-4.9,11.1-6.5s9.8-2.3,15.9-2.3c2,0,4,0.1,6,0.3c2.1,0.2,3.8,0.5,5.3,1
		l-0.6,9c-0.1,1.1-0.7,1.7-1.8,1.9c-1.1,0.2-2.4,0.3-4,0.3c-4.5,0-8.3,0.4-11.4,1.2c-3.1,0.8-5.5,2-7.4,3.5
		c-1.9,1.6-3.2,3.5-4.1,5.9c-0.8,2.4-1.2,5.1-1.2,8.2v1.8H681v71.2h-17.3v-58.9H637v58.9H619.7z"/>
	<path class="st2" d="M730.5,130.5c4.5,0,8.7,0.7,12.5,2.2c3.8,1.4,7.1,3.6,9.8,6.3c2.8,2.8,4.9,6.2,6.4,10.2s2.3,8.6,2.3,13.8
		c0,1.3-0.1,2.4-0.2,3.3c-0.1,0.9-0.3,1.5-0.6,2s-0.7,0.8-1.2,1s-1.2,0.3-2,0.3h-44.4c0.5,7.4,2.5,12.8,6,16.2
		c3.5,3.5,8,5.2,13.7,5.2c2.8,0,5.2-0.3,7.2-1s3.8-1.4,5.3-2.2s2.8-1.5,4-2.2c1.1-0.7,2.2-1,3.3-1c0.7,0,1.3,0.1,1.8,0.4
		c0.5,0.3,1,0.7,1.3,1.2l5,6.3c-1.9,2.2-4.1,4.1-6.4,5.6c-2.4,1.5-4.9,2.7-7.5,3.6c-2.6,0.9-5.2,1.6-7.9,1.9
		c-2.7,0.4-5.3,0.6-7.8,0.6c-5,0-9.6-0.8-13.9-2.5c-4.3-1.7-8-4.1-11.2-7.4c-3.2-3.2-5.7-7.3-7.5-12c-1.8-4.8-2.7-10.3-2.7-16.6
		c0-4.9,0.8-9.5,2.4-13.8c1.6-4.3,3.9-8.1,6.8-11.3c3-3.2,6.6-5.7,10.8-7.6C720.3,131.4,725.1,130.5,730.5,130.5z M730.8,142.9
		c-5,0-9,1.4-11.8,4.3c-2.8,2.8-4.7,6.9-5.5,12.1H746c0-2.2-0.3-4.4-0.9-6.3c-0.6-2-1.5-3.7-2.8-5.2s-2.8-2.7-4.8-3.5
		C735.6,143.3,733.4,142.9,730.8,142.9z"/>
	<path class="st2" d="M775.6,203.4v-71.8h10.1c1.8,0,3,0.3,3.7,1s1.2,1.8,1.4,3.4l1,8.7c2.6-4.4,5.6-7.9,9-10.5
		c3.5-2.6,7.3-3.9,11.6-3.9c3.5,0,6.5,0.8,8.8,2.4l-2.2,13c-0.1,0.8-0.4,1.4-0.9,1.8c-0.5,0.3-1.1,0.5-1.9,0.5
		c-0.7,0-1.7-0.2-2.9-0.5s-2.8-0.5-4.8-0.5c-3.6,0-6.7,1-9.2,3c-2.6,2-4.7,4.9-6.5,8.7v44.7L775.6,203.4L775.6,203.4z"/>
	<path class="st2" d="M878.2,99.4v104h-17.3v-104C860.9,99.4,878.2,99.4,878.2,99.4z"/>
	<path class="st2" d="M912.7,102.2v20.2l-1.6,10.9c-0.3,2.1-0.9,3.6-1.8,4.7c-0.9,1.1-2.3,1.6-4.2,1.6c-1.7,0-3-0.5-4-1.6
		s-1.6-2.7-1.9-4.7l-1.5-10.9v-20.2L912.7,102.2L912.7,102.2z"/>
	<path class="st2" d="M982.7,203.4H975c-1.6,0-2.9-0.2-3.8-0.7c-0.9-0.5-1.6-1.5-2.1-3l-1.5-5.1c-1.8,1.6-3.6,3.1-5.4,4.3
		c-1.8,1.2-3.6,2.3-5.4,3.1c-1.9,0.8-3.9,1.5-6,1.9s-4.4,0.6-7,0.6c-3,0-5.8-0.4-8.4-1.2c-2.6-0.8-4.8-2-6.6-3.7
		c-1.8-1.6-3.3-3.7-4.3-6.1c-1-2.4-1.5-5.3-1.5-8.5c0-2.7,0.7-5.4,2.1-8c1.4-2.6,3.8-5,7.1-7.2c3.3-2.1,7.7-3.9,13.2-5.3
		c5.5-1.4,12.3-2.1,20.5-2.1v-4.2c0-4.8-1-8.4-3-10.8c-2-2.3-5-3.5-8.9-3.5c-2.8,0-5.1,0.3-7,1s-3.5,1.4-4.9,2.2s-2.6,1.6-3.8,2.2
		c-1.2,0.7-2.5,1-3.9,1c-1.2,0-2.2-0.3-3-0.9c-0.8-0.6-1.5-1.4-2-2.2l-3.1-5.5c8.3-7.6,18.2-11.3,29.9-11.3c4.2,0,7.9,0.7,11.2,2.1
		c3.3,1.4,6.1,3.3,8.4,5.7c2.3,2.5,4,5.4,5.2,8.8c1.2,3.4,1.8,7.1,1.8,11.2L982.7,203.4L982.7,203.4z M949.1,192.6
		c1.8,0,3.4-0.2,4.9-0.5s2.9-0.8,4.2-1.4s2.6-1.4,3.9-2.4c1.2-0.9,2.5-2.1,3.7-3.3v-12c-5,0-9.3,0.3-12.6,1s-6.1,1.4-8.2,2.4
		c-2.1,1-3.5,2.1-4.4,3.5c-0.9,1.3-1.3,2.7-1.3,4.3c0,3.1,0.9,5.2,2.7,6.6C943.9,192,946.2,192.6,949.1,192.6z"/>
	<path class="st2" d="M999.8,203.4v-71.8h10.6c2.2,0,3.7,1,4.4,3.1l1.2,5.7c1.4-1.5,3-2.8,4.6-4.1c1.6-1.2,3.3-2.3,5.1-3.1
		c1.8-0.9,3.7-1.6,5.8-2c2.1-0.5,4.3-0.7,6.7-0.7c3.9,0,7.4,0.7,10.4,2s5.6,3.2,7.6,5.6c2,2.4,3.6,5.3,4.6,8.6s1.6,7,1.6,11v45.7
		H1045v-45.7c0-4.4-1-7.8-3-10.2s-5.1-3.6-9.1-3.6c-3,0-5.8,0.7-8.4,2c-2.6,1.4-5.1,3.2-7.4,5.5v51.9h-17.3V203.4z"/>
	<path class="st2" d="M1135.6,203.4h-7.8c-1.6,0-2.9-0.2-3.8-0.7s-1.6-1.5-2.1-3l-1.5-5.1c-1.8,1.6-3.6,3.1-5.4,4.3
		s-3.6,2.3-5.4,3.1c-1.9,0.8-3.9,1.5-6,1.9s-4.4,0.6-7,0.6c-3,0-5.8-0.4-8.4-1.2s-4.8-2-6.6-3.7c-1.8-1.6-3.3-3.7-4.3-6.1
		c-1-2.4-1.5-5.3-1.5-8.5c0-2.7,0.7-5.4,2.1-8s3.8-5,7.1-7.2c3.3-2.1,7.7-3.9,13.2-5.3c5.5-1.4,12.3-2.1,20.5-2.1v-4.2
		c0-4.8-1-8.4-3-10.8c-2-2.3-5-3.5-8.9-3.5c-2.8,0-5.1,0.3-7,1s-3.5,1.4-4.9,2.2s-2.6,1.6-3.8,2.2c-1.2,0.7-2.5,1-3.9,1
		c-1.2,0-2.2-0.3-3-0.9c-0.8-0.6-1.5-1.4-2-2.2l-3.1-5.5c8.3-7.6,18.2-11.3,29.9-11.3c4.2,0,7.9,0.7,11.2,2.1
		c3.3,1.4,6.1,3.3,8.4,5.7c2.3,2.5,4,5.4,5.2,8.8c1.2,3.4,1.8,7.1,1.8,11.2L1135.6,203.4L1135.6,203.4z M1102,192.6
		c1.8,0,3.4-0.2,4.9-0.5s2.9-0.8,4.2-1.4s2.6-1.4,3.9-2.4c1.2-0.9,2.5-2.1,3.7-3.3v-12c-5,0-9.3,0.3-12.6,1s-6.1,1.4-8.2,2.4
		s-3.5,2.1-4.4,3.5c-0.9,1.3-1.3,2.7-1.3,4.3c0,3.1,0.9,5.2,2.7,6.6C1096.8,192,1099.1,192.6,1102,192.6z"/>
	<path class="st2" d="M1171,99.4v104h-17.3v-104C1153.7,99.4,1171,99.4,1171,99.4z"/>
	<path class="st2" d="M1216,223.1c-0.5,1.2-1.2,2.1-2,2.8s-2.1,0.9-3.7,0.9h-12.9l13.4-28.8l-29-66.5h15.1c1.4,0,2.5,0.3,3.2,1
		s1.3,1.4,1.7,2.2l15.3,37.2c0.5,1.2,1,2.5,1.3,3.8c0.4,1.3,0.7,2.6,1,3.9c0.4-1.4,0.8-2.7,1.2-3.9c0.4-1.3,0.9-2.5,1.4-3.9
		l14.4-37.2c0.4-0.9,1-1.7,1.9-2.3s1.8-0.9,2.9-0.9h13.9L1216,223.1z"/>
	<path class="st2" d="M1307.9,145.6c-0.5,0.7-1,1.3-1.5,1.6s-1.2,0.5-2,0.5s-1.7-0.2-2.7-0.7s-2.1-1-3.3-1.6
		c-1.3-0.6-2.7-1.1-4.3-1.6c-1.6-0.5-3.5-0.7-5.7-0.7c-3.4,0-6.1,0.7-8,2.2c-2,1.4-2.9,3.3-2.9,5.7c0,1.5,0.5,2.8,1.5,3.9
		c1,1.1,2.3,2,4,2.8s3.5,1.5,5.6,2.1s4.2,1.3,6.4,2.1c2.2,0.7,4.3,1.6,6.4,2.6s4,2.2,5.6,3.6c1.7,1.5,3,3.2,4,5.3s1.5,4.5,1.5,7.4
		c0,3.5-0.6,6.6-1.9,9.6c-1.3,2.9-3.1,5.4-5.5,7.6c-2.4,2.1-5.4,3.8-9,5s-7.7,1.8-12.3,1.8c-2.5,0-4.9-0.2-7.2-0.7
		c-2.4-0.4-4.6-1.1-6.8-1.9c-2.2-0.8-4.2-1.7-6-2.8s-3.5-2.2-4.9-3.5l4-6.6c0.5-0.8,1.1-1.4,1.8-1.8s1.6-0.6,2.7-0.6s2.1,0.3,3,0.9
		c1,0.6,2.1,1.3,3.3,2c1.3,0.7,2.7,1.4,4.4,2c1.7,0.6,3.9,0.9,6.5,0.9c2.1,0,3.8-0.2,5.3-0.7s2.7-1.1,3.6-1.9c1-0.8,1.7-1.7,2.1-2.8
		s0.7-2.1,0.7-3.3c0-1.7-0.5-3.1-1.5-4.1c-1-1.1-2.3-2-4-2.8s-3.5-1.5-5.7-2.1c-2.1-0.6-4.3-1.3-6.5-2.1c-2.2-0.7-4.4-1.6-6.5-2.6
		s-4-2.3-5.7-3.8s-3-3.4-4-5.7c-1-2.2-1.5-4.9-1.5-8.1c0-2.9,0.6-5.7,1.8-8.4c1.2-2.7,2.9-5,5.1-7c2.3-2,5.1-3.6,8.5-4.8
		s7.3-1.8,11.7-1.8c4.9,0,9.5,0.8,13.5,2.4c4.1,1.6,7.4,3.8,10.2,6.4L1307.9,145.6z"/>
	<path class="st2" d="M1356.1,130.5c4.5,0,8.7,0.7,12.5,2.2c3.8,1.4,7.1,3.6,9.8,6.3c2.8,2.8,4.9,6.2,6.4,10.2s2.3,8.6,2.3,13.8
		c0,1.3-0.1,2.4-0.2,3.3c-0.1,0.9-0.3,1.5-0.6,2c-0.3,0.5-0.7,0.8-1.2,1s-1.2,0.3-2,0.3h-44.4c0.5,7.4,2.5,12.8,6,16.2
		c3.5,3.5,8,5.2,13.7,5.2c2.8,0,5.2-0.3,7.2-1s3.8-1.4,5.3-2.2s2.8-1.5,4-2.2c1.1-0.7,2.2-1,3.3-1c0.7,0,1.3,0.1,1.8,0.4
		c0.5,0.3,1,0.7,1.3,1.2l5,6.3c-1.9,2.2-4.1,4.1-6.4,5.6c-2.4,1.5-4.9,2.7-7.5,3.6c-2.6,0.9-5.2,1.6-7.9,1.9
		c-2.7,0.4-5.3,0.6-7.8,0.6c-5,0-9.6-0.8-13.9-2.5s-8-4.1-11.2-7.4c-3.2-3.2-5.7-7.3-7.5-12c-1.8-4.8-2.7-10.3-2.7-16.6
		c0-4.9,0.8-9.5,2.4-13.8s3.9-8.1,6.8-11.3c3-3.2,6.6-5.7,10.8-7.6C1345.9,131.4,1350.8,130.5,1356.1,130.5z M1356.5,142.9
		c-5,0-9,1.4-11.8,4.3c-2.8,2.8-4.7,6.9-5.5,12.1h32.5c0-2.2-0.3-4.4-0.9-6.3c-0.6-2-1.5-3.7-2.8-5.2s-2.8-2.7-4.8-3.5
		C1361.3,143.3,1359,142.9,1356.5,142.9z"/>
</g>
<g>
	<path class="st3" d="M333.1,156.1c0.7,1.6,1.3,3.2,2,4.9c0.7-1.7,1.3-3.3,2-5c0.7-1.6,1.4-3.2,2.2-4.7l30-56.1
		c0.4-0.7,0.8-1.3,1.2-1.7c0.4-0.4,0.8-0.7,1.3-0.9c0.5-0.2,1-0.3,1.6-0.4c0.6,0,1.3-0.1,2.2-0.1h14.2v101.2h-16.6V128
		c0-1.2,0-2.5,0.1-4c0.1-1.4,0.2-2.9,0.3-4.4L343.1,177c-0.7,1.3-1.6,2.3-2.7,3s-2.4,1.1-3.9,1.1h-2.6c-1.5,0-2.8-0.4-3.9-1.1
		c-1.1-0.7-2-1.7-2.7-3l-31-57.6c0.2,1.5,0.3,3,0.4,4.5s0.1,2.8,0.1,4.1v65.4h-16.6V92.2h14.2c0.8,0,1.6,0,2.2,0.1
		c0.6,0,1.2,0.2,1.6,0.4c0.5,0.2,0.9,0.5,1.4,0.9s0.8,1,1.2,1.7l30.2,56.2C331.7,152.9,332.4,154.4,333.1,156.1z"/>
	<path class="st3" d="M440,120.5c5.4,0,10.2,0.9,14.6,2.6s8.1,4.2,11.2,7.4c3.1,3.2,5.5,7,7.1,11.6c1.7,4.6,2.5,9.7,2.5,15.3
		c0,5.7-0.8,10.8-2.5,15.4c-1.7,4.6-4.1,8.5-7.1,11.7c-3.1,3.2-6.8,5.7-11.2,7.4c-4.4,1.7-9.2,2.6-14.6,2.6s-10.2-0.9-14.6-2.6
		c-4.4-1.7-8.1-4.2-11.2-7.4s-5.5-7.1-7.2-11.7c-1.7-4.6-2.6-9.7-2.6-15.4c0-5.6,0.9-10.8,2.6-15.3c1.7-4.6,4.1-8.4,7.2-11.6
		c3.1-3.2,6.8-5.6,11.2-7.4C429.7,121.3,434.6,120.5,440,120.5z M440,181.1c6,0,10.4-2,13.3-6s4.3-9.9,4.3-17.6
		c0-7.7-1.4-13.6-4.3-17.7s-7.3-6.1-13.3-6.1c-6.1,0-10.5,2-13.4,6.1s-4.3,10-4.3,17.7s1.4,13.6,4.3,17.6
		C429.4,179.1,433.9,181.1,440,181.1z"/>
	<path class="st3" d="M539.4,193.4c-2.2,0-3.7-1-4.4-3.1l-1.4-6.9c-1.5,1.7-3.1,3.2-4.7,4.6c-1.6,1.4-3.4,2.5-5.3,3.5
		s-3.9,1.7-6.1,2.3c-2.2,0.5-4.5,0.8-7,0.8c-3.9,0-7.5-0.8-10.8-2.4c-3.3-1.6-6.1-4-8.4-7.1c-2.4-3.1-4.2-6.9-5.5-11.5
		s-1.9-9.8-1.9-15.7c0-5.3,0.7-10.3,2.2-14.8c1.4-4.6,3.5-8.5,6.2-11.9c2.7-3.4,6-6,9.7-7.9c3.8-1.9,8-2.8,12.7-2.8
		c4,0,7.4,0.6,10.3,1.9c2.8,1.3,5.4,3,7.6,5.1V89.4H550v104H539.4z M516.4,180.7c3.6,0,6.6-0.7,9.2-2.2c2.5-1.5,4.9-3.6,7.1-6.4
		v-32.2c-2-2.4-4.1-4.1-6.4-5c-2.3-1-4.8-1.5-7.5-1.5c-2.6,0-5,0.5-7.1,1.5c-2.1,1-3.9,2.5-5.4,4.4c-1.5,2-2.6,4.5-3.4,7.6
		s-1.2,6.7-1.2,10.8c0,4.2,0.3,7.8,1,10.7s1.6,5.3,2.9,7.1s2.8,3.2,4.6,4C512.1,180.3,514.2,180.7,516.4,180.7z"/>
	<path class="st3" d="M589.7,100.6c0,1.5-0.3,2.9-0.9,4.2c-0.6,1.3-1.4,2.4-2.4,3.4s-2.2,1.8-3.5,2.3c-1.4,0.6-2.8,0.9-4.3,0.9
		s-2.9-0.3-4.2-0.9s-2.5-1.4-3.5-2.3c-1-1-1.8-2.1-2.3-3.4c-0.6-1.3-0.9-2.7-0.9-4.2s0.3-3,0.9-4.3c0.6-1.4,1.4-2.5,2.3-3.5
		c1-1,2.1-1.8,3.5-2.3c1.3-0.6,2.7-0.9,4.2-0.9s3,0.3,4.3,0.9c1.4,0.6,2.5,1.4,3.5,2.3c1,1,1.8,2.1,2.4,3.5S589.7,99.1,589.7,100.6z
		 M587.1,121.6v71.8h-17.3v-71.8C569.8,121.6,587.1,121.6,587.1,121.6z"/>
	<path class="st3" d="M609.7,193.4v-58.8l-6.2-1c-1.4-0.2-2.4-0.7-3.3-1.4c-0.8-0.7-1.2-1.7-1.2-2.9v-7.1h10.7v-2.3
		c0-4.4,0.7-8.5,2.2-12.2c1.4-3.8,3.6-7,6.6-9.8c2.9-2.8,6.6-4.9,11.1-6.5s9.8-2.3,15.9-2.3c2,0,4,0.1,6,0.3c2.1,0.2,3.8,0.5,5.3,1
		l-0.6,9c-0.1,1.1-0.7,1.7-1.8,1.9c-1.1,0.2-2.4,0.3-4,0.3c-4.5,0-8.3,0.4-11.4,1.2c-3.1,0.8-5.5,2-7.4,3.5
		c-1.9,1.6-3.2,3.5-4.1,5.9c-0.8,2.4-1.2,5.1-1.2,8.2v1.8H671v71.2h-17.3v-58.9H627v58.9H609.7z"/>
	<path class="st3" d="M720.5,120.5c4.5,0,8.7,0.7,12.5,2.2c3.8,1.4,7.1,3.6,9.8,6.3c2.8,2.8,4.9,6.2,6.4,10.2s2.3,8.6,2.3,13.8
		c0,1.3-0.1,2.4-0.2,3.3c-0.1,0.9-0.3,1.5-0.6,2s-0.7,0.8-1.2,1s-1.2,0.3-2,0.3h-44.4c0.5,7.4,2.5,12.8,6,16.2
		c3.5,3.5,8,5.2,13.7,5.2c2.8,0,5.2-0.3,7.2-1s3.8-1.4,5.3-2.2s2.8-1.5,4-2.2c1.1-0.7,2.2-1,3.3-1c0.7,0,1.3,0.1,1.8,0.4
		c0.5,0.3,1,0.7,1.3,1.2l5,6.3c-1.9,2.2-4.1,4.1-6.4,5.6c-2.4,1.5-4.9,2.7-7.5,3.6c-2.6,0.9-5.2,1.6-7.9,1.9
		c-2.7,0.4-5.3,0.6-7.8,0.6c-5,0-9.6-0.8-13.9-2.5c-4.3-1.7-8-4.1-11.2-7.4c-3.2-3.2-5.7-7.3-7.5-12c-1.8-4.8-2.7-10.3-2.7-16.6
		c0-4.9,0.8-9.5,2.4-13.8c1.6-4.3,3.9-8.1,6.8-11.3c3-3.2,6.6-5.7,10.8-7.6C710.3,121.4,715.1,120.5,720.5,120.5z M720.8,132.9
		c-5,0-9,1.4-11.8,4.3c-2.8,2.8-4.7,6.9-5.5,12.1H736c0-2.2-0.3-4.4-0.9-6.3c-0.6-2-1.5-3.7-2.8-5.2s-2.8-2.7-4.8-3.5
		C725.6,133.3,723.4,132.9,720.8,132.9z"/>
	<path class="st3" d="M765.6,193.4v-71.8h10.1c1.8,0,3,0.3,3.7,1s1.2,1.8,1.4,3.4l1,8.7c2.6-4.4,5.6-7.9,9-10.5
		c3.5-2.6,7.3-3.9,11.6-3.9c3.5,0,6.5,0.8,8.8,2.4l-2.2,13c-0.1,0.8-0.4,1.4-0.9,1.8c-0.5,0.3-1.1,0.5-1.9,0.5
		c-0.7,0-1.7-0.2-2.9-0.5s-2.8-0.5-4.8-0.5c-3.6,0-6.7,1-9.2,3c-2.6,2-4.7,4.9-6.5,8.7v44.7H765.6z"/>
	<path class="st3" d="M868.2,89.4v104h-17.3v-104C850.9,89.4,868.2,89.4,868.2,89.4z"/>
	<path class="st3" d="M902.7,92.2v20.2l-1.6,10.9c-0.3,2.1-0.9,3.6-1.8,4.7c-0.9,1.1-2.3,1.6-4.2,1.6c-1.7,0-3-0.5-4-1.6
		s-1.6-2.7-1.9-4.7l-1.5-10.9V92.2H902.7z"/>
	<path class="st3" d="M972.7,193.4H965c-1.6,0-2.9-0.2-3.8-0.7c-0.9-0.5-1.6-1.5-2.1-3l-1.5-5.1c-1.8,1.6-3.6,3.1-5.4,4.3
		c-1.8,1.2-3.6,2.3-5.4,3.1c-1.9,0.8-3.9,1.5-6,1.9s-4.4,0.6-7,0.6c-3,0-5.8-0.4-8.4-1.2c-2.6-0.8-4.8-2-6.6-3.7
		c-1.8-1.6-3.3-3.7-4.3-6.1c-1-2.4-1.5-5.3-1.5-8.5c0-2.7,0.7-5.4,2.1-8c1.4-2.6,3.8-5,7.1-7.2c3.3-2.1,7.7-3.9,13.2-5.3
		c5.5-1.4,12.3-2.1,20.5-2.1v-4.2c0-4.8-1-8.4-3-10.8c-2-2.3-5-3.5-8.9-3.5c-2.8,0-5.1,0.3-7,1s-3.5,1.4-4.9,2.2s-2.6,1.6-3.8,2.2
		c-1.2,0.7-2.5,1-3.9,1c-1.2,0-2.2-0.3-3-0.9c-0.8-0.6-1.5-1.4-2-2.2l-3.1-5.5c8.3-7.6,18.2-11.3,29.9-11.3c4.2,0,7.9,0.7,11.2,2.1
		s6.1,3.3,8.4,5.7c2.3,2.5,4,5.4,5.2,8.8c1.2,3.4,1.8,7.1,1.8,11.2L972.7,193.4L972.7,193.4z M939.1,182.6c1.8,0,3.4-0.2,4.9-0.5
		s2.9-0.8,4.2-1.4s2.6-1.4,3.9-2.4c1.2-0.9,2.5-2.1,3.7-3.3v-12c-5,0-9.3,0.3-12.6,1s-6.1,1.4-8.2,2.4c-2.1,1-3.5,2.1-4.4,3.5
		c-0.9,1.3-1.3,2.7-1.3,4.3c0,3.1,0.9,5.2,2.7,6.6C933.9,182,936.2,182.6,939.1,182.6z"/>
	<path class="st3" d="M989.8,193.4v-71.8h10.6c2.2,0,3.7,1,4.4,3.1l1.2,5.7c1.4-1.5,3-2.8,4.6-4.1c1.6-1.2,3.3-2.3,5.1-3.1
		c1.8-0.9,3.7-1.6,5.8-2c2.1-0.5,4.3-0.7,6.7-0.7c3.9,0,7.4,0.7,10.4,2s5.6,3.2,7.6,5.6c2,2.4,3.6,5.3,4.6,8.6s1.6,7,1.6,11v45.7
		H1035v-45.7c0-4.4-1-7.8-3-10.2s-5.1-3.6-9.1-3.6c-3,0-5.8,0.7-8.4,2c-2.6,1.4-5.1,3.2-7.4,5.5v51.9L989.8,193.4L989.8,193.4z"/>
	<path class="st3" d="M1125.6,193.4h-7.8c-1.6,0-2.9-0.2-3.8-0.7s-1.6-1.5-2.1-3l-1.5-5.1c-1.8,1.6-3.6,3.1-5.4,4.3
		s-3.6,2.3-5.4,3.1c-1.9,0.8-3.9,1.5-6,1.9s-4.4,0.6-7,0.6c-3,0-5.8-0.4-8.4-1.2s-4.8-2-6.6-3.7c-1.8-1.6-3.3-3.7-4.3-6.1
		c-1-2.4-1.5-5.3-1.5-8.5c0-2.7,0.7-5.4,2.1-8s3.8-5,7.1-7.2c3.3-2.1,7.7-3.9,13.2-5.3c5.5-1.4,12.3-2.1,20.5-2.1v-4.2
		c0-4.8-1-8.4-3-10.8c-2-2.3-5-3.5-8.9-3.5c-2.8,0-5.1,0.3-7,1s-3.5,1.4-4.9,2.2s-2.6,1.6-3.8,2.2c-1.2,0.7-2.5,1-3.9,1
		c-1.2,0-2.2-0.3-3-0.9c-0.8-0.6-1.5-1.4-2-2.2l-3.1-5.5c8.3-7.6,18.2-11.3,29.9-11.3c4.2,0,7.9,0.7,11.2,2.1
		c3.3,1.4,6.1,3.3,8.4,5.7c2.3,2.5,4,5.4,5.2,8.8c1.2,3.4,1.8,7.1,1.8,11.2L1125.6,193.4L1125.6,193.4z M1092,182.6
		c1.8,0,3.4-0.2,4.9-0.5s2.9-0.8,4.2-1.4s2.6-1.4,3.9-2.4c1.2-0.9,2.5-2.1,3.7-3.3v-12c-5,0-9.3,0.3-12.6,1s-6.1,1.4-8.2,2.4
		s-3.5,2.1-4.4,3.5c-0.9,1.3-1.3,2.7-1.3,4.3c0,3.1,0.9,5.2,2.7,6.6C1086.8,182,1089.1,182.6,1092,182.6z"/>
	<path class="st3" d="M1161,89.4v104h-17.3v-104C1143.7,89.4,1161,89.4,1161,89.4z"/>
	<path class="st3" d="M1206,213.1c-0.5,1.2-1.2,2.1-2,2.8s-2.1,0.9-3.7,0.9h-12.9l13.4-28.8l-29-66.5h15.1c1.4,0,2.5,0.3,3.2,1
		s1.3,1.4,1.7,2.2l15.3,37.2c0.5,1.2,1,2.5,1.3,3.8c0.4,1.3,0.7,2.6,1,3.9c0.4-1.4,0.8-2.7,1.2-3.9c0.4-1.3,0.9-2.5,1.4-3.9
		l14.4-37.2c0.4-0.9,1-1.7,1.9-2.3c0.9-0.6,1.8-0.9,2.9-0.9h13.9L1206,213.1z"/>
	<path class="st3" d="M1297.9,135.6c-0.5,0.7-1,1.3-1.5,1.6s-1.2,0.5-2,0.5s-1.7-0.2-2.7-0.7s-2.1-1-3.3-1.6
		c-1.3-0.6-2.7-1.1-4.3-1.6c-1.6-0.5-3.5-0.7-5.7-0.7c-3.4,0-6.1,0.7-8,2.2c-2,1.4-2.9,3.3-2.9,5.7c0,1.5,0.5,2.8,1.5,3.9
		c1,1.1,2.3,2,4,2.8s3.5,1.5,5.6,2.1s4.2,1.3,6.4,2.1c2.2,0.7,4.3,1.6,6.4,2.6s4,2.2,5.6,3.6c1.7,1.5,3,3.2,4,5.3s1.5,4.5,1.5,7.4
		c0,3.5-0.6,6.6-1.9,9.6c-1.3,2.9-3.1,5.4-5.5,7.6c-2.4,2.1-5.4,3.8-9,5s-7.7,1.8-12.3,1.8c-2.5,0-4.9-0.2-7.2-0.7
		c-2.4-0.4-4.6-1.1-6.8-1.9c-2.2-0.8-4.2-1.7-6-2.8s-3.5-2.2-4.9-3.5l4-6.6c0.5-0.8,1.1-1.4,1.8-1.8s1.6-0.6,2.7-0.6s2.1,0.3,3,0.9
		c1,0.6,2.1,1.3,3.3,2c1.3,0.7,2.7,1.4,4.4,2c1.7,0.6,3.9,0.9,6.5,0.9c2.1,0,3.8-0.2,5.3-0.7s2.7-1.1,3.6-1.9c1-0.8,1.7-1.7,2.1-2.8
		s0.7-2.1,0.7-3.3c0-1.7-0.5-3.1-1.5-4.1c-1-1.1-2.3-2-4-2.8s-3.5-1.5-5.7-2.1c-2.1-0.6-4.3-1.3-6.5-2.1c-2.2-0.7-4.4-1.6-6.5-2.6
		s-4-2.3-5.7-3.8s-3-3.4-4-5.7c-1-2.2-1.5-4.9-1.5-8.1c0-2.9,0.6-5.7,1.8-8.4c1.2-2.7,2.9-5,5.1-7c2.3-2,5.1-3.6,8.5-4.8
		c3.4-1.2,7.3-1.8,11.7-1.8c4.9,0,9.5,0.8,13.5,2.4c4.1,1.6,7.4,3.8,10.2,6.4L1297.9,135.6z"/>
	<path class="st3" d="M1346.1,120.5c4.5,0,8.7,0.7,12.5,2.2c3.8,1.4,7.1,3.6,9.8,6.3c2.8,2.8,4.9,6.2,6.4,10.2s2.3,8.6,2.3,13.8
		c0,1.3-0.1,2.4-0.2,3.3c-0.1,0.9-0.3,1.5-0.6,2c-0.3,0.5-0.7,0.8-1.2,1s-1.2,0.3-2,0.3h-44.4c0.5,7.4,2.5,12.8,6,16.2
		c3.5,3.5,8,5.2,13.7,5.2c2.8,0,5.2-0.3,7.2-1s3.8-1.4,5.3-2.2s2.8-1.5,4-2.2c1.1-0.7,2.2-1,3.3-1c0.7,0,1.3,0.1,1.8,0.4
		c0.5,0.3,1,0.7,1.3,1.2l5,6.3c-1.9,2.2-4.1,4.1-6.4,5.6c-2.4,1.5-4.9,2.7-7.5,3.6c-2.6,0.9-5.2,1.6-7.9,1.9
		c-2.7,0.4-5.3,0.6-7.8,0.6c-5,0-9.6-0.8-13.9-2.5s-8-4.1-11.2-7.4c-3.2-3.2-5.7-7.3-7.5-12c-1.8-4.8-2.7-10.3-2.7-16.6
		c0-4.9,0.8-9.5,2.4-13.8s3.9-8.1,6.8-11.3c3-3.2,6.6-5.7,10.8-7.6C1335.9,121.4,1340.8,120.5,1346.1,120.5z M1346.5,132.9
		c-5,0-9,1.4-11.8,4.3c-2.8,2.8-4.7,6.9-5.5,12.1h32.5c0-2.2-0.3-4.4-0.9-6.3c-0.6-2-1.5-3.7-2.8-5.2s-2.8-2.7-4.8-3.5
		C1351.3,133.3,1349,132.9,1346.5,132.9z"/>
</g>
<path class="st2" d="M120.8,201.8l7.2-7.2L109.4,176l-7.2,7.2v8.4h10.2v10.2L120.8,201.8L120.8,201.8z M162.3,128.3
	c0-1-0.7-1.7-1.7-1.7c-0.5,0-0.9,0.1-1.4,0.6l-42.9,42.9c-0.3,0.3-0.6,0.9-0.6,1.4c0,1,0.7,1.7,1.7,1.7c0.5,0,0.9-0.1,1.4-0.6
	l42.9-42.9C162,129.3,162.3,128.8,162.3,128.3L162.3,128.3z M158,113.1l32.9,33L125,212H92.1v-33L158,113.1z M212,120.7
	c0,2.7-1.2,5.3-2.9,7.2L195.9,141L163,108l13.2-13c1.8-1.8,4.5-3,7.2-3s5.3,1.2,7.2,3l18.6,18.6C210.9,115.4,212,118.1,212,120.7z"
	/>
<path class="st3" d="M110.8,191.8l7.2-7.2L99.4,166l-7.2,7.2v8.4h10.2v10.2L110.8,191.8L110.8,191.8z M152.3,118.3
	c0-1-0.7-1.7-1.7-1.7c-0.5,0-0.9,0.1-1.4,0.6l-42.9,42.9c-0.3,0.3-0.6,0.9-0.6,1.4c0,1,0.7,1.7,1.7,1.7c0.5,0,0.9-0.1,1.4-0.6
	l42.9-42.9C152,119.3,152.3,118.8,152.3,118.3L152.3,118.3z M148,103.1l32.9,33L115,202H82.1v-33L148,103.1z M202,110.7
	c0,2.7-1.2,5.3-2.9,7.2L185.9,131L153,98l13.2-13c1.8-1.8,4.5-3,7.2-3s5.3,1.2,7.2,3l18.6,18.6C200.9,105.4,202,108.1,202,110.7z"/>
</svg>
