<?xml version="1.0" encoding="utf-8"?>
<!-- Generator: Adobe Illustrator 24.3.0, SVG Export Plug-In . SVG Version: 6.00 Build 0)  -->
<svg version="1.1" id="Calque_1" xmlns="http://www.w3.org/2000/svg" xmlns:xlink="http://www.w3.org/1999/xlink" x="0px" y="0px"
	 viewBox="0 0 1000 1000" style="enable-background:new 0 0 1000 1000;" xml:space="preserve">
<style type="text/css">
	.st0{fill:#333333;}
</style>
<path class="st0" d="M752.1,53.3C664.6,78.5,539.7,185.1,508.8,276l15.3,10c3.8-16.2,19.6-41.2,36.1-60.4
	c20.4,5.9,16.5,31.2,24.7,46.9c-11.8,17.5-33.1,36.1-35.4,46.2c19,27.8,12.7,56.9,12,68.3c43.1-11.1,75.2-19.4,115.5,18.4
	c36.5,34.3,26.4,61.5,24.4,100.4l39.5,22.2c0,0,20.8-53.9,15.2-73.2c-10.2-35.5-18.9-54.1-23.9-63.1c10.2,15.3,35.8,51.5,58.5,61.5
	c47.1,20.8,156.1,3.1,156.1,3.1s-5.4-122.7-49.8-158.9c-33.8-27.6-132.8-18.7-132.8-18.7c63.8-9.2,89.3-32.1,126.1-65.4
	c0,0-92.5-74.8-165.9-68.6C650.8,150.9,602,249.5,602,249.5L584.7,207c34.8-58.7,91.1-110.8,185.7-105.3L752.1,53.3L752.1,53.3z
	 M357.9,128.1c-22.8,0.1-45.8,9.4-69.2,31.2c-45.2,43.8-52.2,108.9-15.5,145.4c31.2,31.2,83.9,31.4,126.8,3.8
	c-13.4,12.9-24.6,29.2-31.9,48.2c-2.9,7.5-5.1,15.1-6.6,22.6c-4-17.3-12.2-32.8-23.9-44.6c-6.1-0.4-12.7-1.3-19.6-2.7
	c-22.2-4.6-39.5-13.2-42.4-20.7c-40.4,2.3-80.6,33-98.5,79.1c-22.5,58.2-1,119.2,48.3,136.2c29.4,10.1,62.1,2.2,88.4-18.2
	c-13.5,12.9-24.7,29.3-32.2,48.4c-2.2,5.7-4,11.4-5.4,17.2c-4.4-15-12-28.4-22.4-38.9c-6.1-0.4-12.7-1.3-19.6-2.7
	c-22.2-4.6-39.5-13.3-42.4-20.8c-40.4,2.4-80.6,33-98.5,79.1c-22.5,58.2-0.9,119.2,48.3,136.2c49.2,16.9,107.4-16.5,130-74.8
	c2.2-5.7,4-11.5,5.4-17.2c8,27.2,26.4,49,52.8,58.2c34.6,11.8,73.4-1.1,101.4-29.8c-0.4,0.9-0.7,1.8-1.1,2.8
	c-22.6,58.2-1,119.2,48.2,136.1c49.2,17,107.4-16.5,130-74.8c17.2-44.2,8.8-90.1-17.8-116.9c-6.1-0.4-12.7-1.3-19.7-2.7
	c-22.1-4.6-39.5-13.3-42.4-20.7c-25.1,1.4-50.1,13.8-69.8,34c0.4-0.9,0.8-1.8,1.2-2.7c17.2-44.3,8.8-90.1-17.9-117
	c-6.1-0.4-12.7-1.3-19.6-2.7c-22.2-4.6-39.5-13.2-42.4-20.7c-19.8,1.2-39.6,9.1-56.7,22.4c13.5-12.9,24.7-29.3,32.1-48.3
	c2.9-7.6,5.1-15.2,6.5-22.7c7,29.8,26.1,54.1,54.3,63.8c30.3,10.4,64,1.8,90.6-19.9c-16.7,55.1,5.1,110.4,51.6,126.4
	c25.6,8.8,53.5,4,77.6-10.7c-10.7,18.1-17,40.2-17,64.1c0.1,62,42.6,112.3,95.1,112.4c52.4,0,95-50.1,94.9-112.1
	c-0.1-47.1-24.7-87.5-59.5-104.2c-5.8,1.6-12.3,2.9-19.4,3.8c-22.4,2.8-41.9,0.3-47.4-5.9c-2.5,1.1-5,2.2-7.5,3.6
	c5.2-7.9,9.6-16.4,13.2-25.7c17.2-44.2,8.8-90.1-17.8-116.9c-16.3-22.5-47.8-19.6-62-23.4c-20.7,1.2-41.5,9.8-59.1,24.2
	c12.5-41.1,3.5-82.4-21.2-107.3c-9.3-16.9-31.9-21.9-62-23.5c-16.3,1-32.4,6.5-47.1,15.7c0.5-0.5,1.2-1.1,1.7-1.7
	c34.3-33.2,46.5-78.8,34.4-114.8C423.7,147.6,391.2,128,357.9,128.1L357.9,128.1z M381.9,136.6c2.8,0,4.3,0.1,4.3,0.1
	s-37.2,12-65.9,29.7c-38.1,23.4-56.4,74.9-56.4,74.9s3.7-51.1,44.8-82.2C335.5,138.9,369.9,136.6,381.9,136.6L381.9,136.6z
	 M447.7,294.8c0,0-28.9,26.5-47.7,54.5c-24.8,37.2-19.5,90.8-19.5,90.8s-18.7-47.1,5.8-92.3C405.8,311.6,447.7,294.8,447.7,294.8z
	 M256.8,328.5c0,0-28.9,26.4-47.7,54.5c-24.8,37.1-19.5,90.8-19.5,90.8s-18.7-47.1,5.8-92.4C215,345.2,256.8,328.5,256.8,328.5
	L256.8,328.5z M590,401.3c0,0-28.9,26.5-47.7,54.6c-24.8,37.1-19.6,90.7-19.6,90.7s-18.6-47.1,5.8-92.3
	C548.1,418.1,590,401.3,590,401.3L590,401.3z M361.3,494.8c0,0-28.9,26.4-47.7,54.5c-24.8,37.1-19.5,90.8-19.5,90.8
	s-18.7-47.1,5.8-92.4C319.4,511.6,361.3,494.8,361.3,494.8L361.3,494.8z M173.1,528.7c0,0-28.9,26.5-47.7,54.5
	c-24.8,37.2-19.5,90.8-19.5,90.8s-18.6-47.1,5.8-92.3C131.3,545.5,173.1,528.7,173.1,528.7z M671.5,568.8c0,0-17.6,34.3-24.9,66.6
	c-9.7,42.8,14.8,91.5,14.8,91.5s-34.7-38.2-28.2-88.6C638.3,598.1,671.5,568.8,671.5,568.8z M509.9,603.8c0,0-29,26.5-47.7,54.6
	c-24.8,37.1-19.6,90.8-19.6,90.8s-18.6-47.1,5.8-92.4C468,620.6,509.9,603.8,509.9,603.8L509.9,603.8z M315,694.6
	c-38,13.1-67.1,53.3-70.1,102.3c-3.8,61.8,35.6,114.4,87.9,117.4c52.4,2.9,97.8-44.8,101.7-106.7c2.9-47.1-19.1-88.7-52.9-107.3
	c-5.9,1.3-12.5,2.2-19.6,2.8C339.4,704.6,320.1,700.9,315,694.6L315,694.6z M302.4,716.2c0,0-19.7,33.2-29,65.1
	c-12.4,42.2,9.1,92.1,9.1,92.1s-32.3-40-22.7-90C267.4,743.5,302.4,716.2,302.4,716.2L302.4,716.2z M130.3,726
	c-38.7,11.1-70.1,49.7-76,98.4C46.8,886,83,940.5,135,946.2c52.1,5.6,100.3-39.7,107.8-101.2c5.6-46.8-13.8-89.5-46.5-109.8
	c-6,1-12.6,1.5-19.7,1.7C154.1,737.3,135,732.6,130.3,726z M116.5,746.9c0,0-21.5,32.1-32.8,63.4c-14.9,41.5,3.6,92.6,3.6,92.6
	s-29.8-41.7-17.3-91C79.9,772.4,116.5,746.9,116.5,746.9L116.5,746.9z"/>
</svg>
