<?xml version="1.0" encoding="utf-8"?>
<!-- Generator: Adobe Illustrator 24.0.2, SVG Export Plug-In . SVG Version: 6.00 Build 0)  -->
<svg version="1.1" id="Calque_1" focusable="false" xmlns="http://www.w3.org/2000/svg" xmlns:xlink="http://www.w3.org/1999/xlink"
	 x="0px" y="0px" viewBox="0 0 512 512" style="enable-background:new 0 0 512 512;" xml:space="preserve">
<style type="text/css">
	.st0{fill:#773D61;}
</style>
<path class="st0" d="M507.3,72.6L439.4,4.7c-6.2-6.2-16.4-6.2-22.6,0l-22.6,22.6c-6.2,6.2-6.2,16.4,0,22.6l-76.7,76.7
	c-46.6-19.7-102.4-10.7-140.4,27.2L18.8,312.2c-25,25-25,65.5,0,90.5l90.5,90.5c25,25,65.5,25,90.5,0l158.4-158.4
	c38-38,46.9-93.8,27.2-140.4l76.7-76.7c6.2,6.2,16.4,6.2,22.6,0l22.6-22.6C513.6,89,513.6,78.8,507.3,72.6L507.3,72.6z M179.2,423.3
	l-90.5-90.5l122-122l90.5,90.5L179.2,423.3z"/>
</svg>
