<?xml version="1.0" encoding="utf-8"?>
<!-- Generator: Adobe Illustrator 24.3.0, SVG Export Plug-In . SVG Version: 6.00 Build 0)  -->
<svg version="1.1" id="Calque_1" xmlns="http://www.w3.org/2000/svg" xmlns:xlink="http://www.w3.org/1999/xlink" x="0px" y="0px"
	 viewBox="0 0 2048 2048" style="enable-background:new 0 0 2048 2048;" xml:space="preserve">
<style type="text/css">
	.st0{fill:url(#SVGID_1_);}
	.st1{fill:#DCDCDC;}
	.st2{fill:#333333;}
</style>
<g>
	
		<linearGradient id="SVGID_1_" gradientUnits="userSpaceOnUse" x1="1024" y1="-2084.5" x2="1024" y2="-4107.5" gradientTransform="matrix(1 0 0 1 0 4120)">
		<stop  offset="0" style="stop-color:#E8E8E8"/>
		<stop  offset="1" style="stop-color:#F9F9F9"/>
	</linearGradient>
	<path class="st0" d="M50,2035.5c-20.7,0-37.5-16.8-37.5-37.5V50c0-20.7,16.8-37.5,37.5-37.5h1948c20.7,0,37.5,16.8,37.5,37.5v1948
		c0,20.7-16.8,37.5-37.5,37.5H50z"/>
	<path class="st1" d="M1998,25c13.8,0,25,11.2,25,25v1948c0,13.8-11.2,25-25,25H50c-13.8,0-25-11.2-25-25V50c0-13.8,11.2-25,25-25
		H1998 M1998,0H50C22.5,0,0,22.5,0,50v1948c0,27.5,22.5,50,50,50h1948c27.5,0,50-22.5,50-50V50C2048,22.5,2025.5,0,1998,0L1998,0z"
		/>
</g>
<path class="st2" d="M1740.8,1211.2v89.7H307.2V225.7h89.6v985.5H1740.8z M1651.1,337.7v304.5c0,19.6-23.7,30.1-38.5,15.3
	l-84.7-84.7l-443,443.1c-9.2,9-23.1,9-32.2,0L889.6,852.8l-291.3,291.3L464,1009.6l409.5-409.4c9-9.2,23.1-9.2,32.1,0l163.1,163.1
	l324.9-324.7l-84.8-84.8c-14.7-14.7-4.1-38.4,15.4-38.4h304.5C1641.3,315.4,1651.1,325.2,1651.1,337.7L1651.1,337.7z"/>
<g>
	<path class="st2" d="M436.2,1624.3v27.8h-83.3v52.1h65.6v26.9h-65.6v53.2h83.3v28H317.7v-188H436.2z M428.8,1579.5l-38.5,28.1
		c-1,0.7-1.8,1.3-2.7,1.7c-0.8,0.4-1.6,0.8-2.5,1c-0.8,0.3-1.7,0.4-2.6,0.5c-0.9,0.1-2,0.1-3.2,0.1h-25.2l25.5-26.3
		c1-1,2-1.9,2.9-2.6c0.9-0.7,1.8-1.2,2.8-1.6c1-0.4,2-0.6,3.2-0.8c1.2-0.1,2.7-0.2,4.4-0.2H428.8z"/>
	<path class="st2" d="M558.4,1707.2c-1,1.2-1.9,2.2-2.8,2.9c-0.9,0.7-2.2,1-4,1c-1.6,0-3.2-0.5-4.8-1.5c-1.6-1-3.4-2.1-5.6-3.4
		c-2.2-1.3-4.7-2.4-7.7-3.4c-3-1-6.7-1.5-11.1-1.5c-5.6,0-10.6,1-14.8,3.1c-4.2,2-7.8,5-10.6,8.8c-2.8,3.8-4.9,8.4-6.3,13.8
		c-1.4,5.4-2.1,11.5-2.1,18.4c0,7.1,0.8,13.4,2.3,19c1.5,5.5,3.7,10.2,6.6,14c2.9,3.8,6.3,6.6,10.4,8.6c4.1,2,8.7,2.9,13.8,2.9
		c5.1,0,9.2-0.6,12.4-1.9c3.2-1.3,5.8-2.6,8-4.2c2.2-1.5,4.1-2.9,5.7-4.2c1.6-1.3,3.4-1.9,5.4-1.9c2.6,0,4.6,1,5.9,3l9.2,11.7
		c-3.6,4.2-7.4,7.6-11.6,10.5c-4.2,2.8-8.5,5.1-12.9,6.8c-4.5,1.7-9.1,2.9-13.8,3.6c-4.8,0.7-9.5,1-14.2,1c-8.2,0-16-1.5-23.3-4.6
		c-7.3-3.1-13.6-7.6-19-13.5c-5.4-5.9-9.7-13.1-12.9-21.6c-3.2-8.5-4.7-18.3-4.7-29.2c0-9.8,1.4-18.9,4.2-27.2
		c2.8-8.4,7-15.6,12.4-21.7c5.5-6.1,12.2-10.9,20.3-14.4c8.1-3.5,17.3-5.2,27.8-5.2c10,0,18.7,1.6,26.2,4.8
		c7.5,3.2,14.2,7.8,20.2,13.8L558.4,1707.2z"/>
	<path class="st2" d="M645.6,1676.9c10,0,19,1.6,27.1,4.8c8.1,3.2,15,7.8,20.7,13.7c5.7,5.9,10.1,13.1,13.3,21.6
		c3.1,8.5,4.7,18,4.7,28.5c0,10.6-1.6,20.1-4.7,28.6c-3.1,8.5-7.5,15.7-13.3,21.7c-5.7,6-12.6,10.6-20.7,13.8
		c-8.1,3.2-17.1,4.8-27.1,4.8c-10,0-19-1.6-27.2-4.8c-8.1-3.2-15.1-7.8-20.9-13.8c-5.8-6-10.2-13.2-13.4-21.7
		c-3.2-8.5-4.7-18-4.7-28.6c0-10.5,1.6-20,4.7-28.5c3.2-8.5,7.6-15.7,13.4-21.6c5.8-5.9,12.7-10.4,20.9-13.7
		C626.6,1678.5,635.7,1676.9,645.6,1676.9z M645.6,1789.6c11.1,0,19.3-3.7,24.6-11.2c5.3-7.5,8-18.4,8-32.8c0-14.4-2.7-25.3-8-32.9
		s-13.5-11.3-24.6-11.3c-11.3,0-19.6,3.8-25,11.4c-5.4,7.6-8.1,18.5-8.1,32.8c0,14.3,2.7,25.2,8.1,32.7
		C626,1785.8,634.4,1789.6,645.6,1789.6z"/>
	<path class="st2" d="M736.5,1812.3V1679h19.6c4.2,0,6.9,2,8.2,5.8l2.2,10.5c2.7-2.8,5.5-5.3,8.5-7.5c3-2.3,6.2-4.2,9.5-5.8
		c3.3-1.6,6.9-2.9,10.7-3.8c3.8-0.9,8-1.3,12.5-1.3c7.3,0,13.7,1.2,19.4,3.7c5.6,2.5,10.3,5.9,14.1,10.4c3.8,4.5,6.6,9.8,8.6,16
		c2,6.2,2.9,13,2.9,20.5v84.9h-32.1v-84.9c0-8.1-1.9-14.5-5.7-18.9c-3.8-4.5-9.4-6.7-17-6.7c-5.5,0-10.7,1.3-15.6,3.8
		c-4.9,2.5-9.4,5.9-13.8,10.3v96.5H736.5z"/>
	<path class="st2" d="M941.3,1676.9c10,0,19,1.6,27.1,4.8c8.1,3.2,15,7.8,20.7,13.7c5.7,5.9,10.1,13.1,13.3,21.6
		c3.1,8.5,4.7,18,4.7,28.5c0,10.6-1.6,20.1-4.7,28.6c-3.1,8.5-7.5,15.7-13.3,21.7c-5.7,6-12.6,10.6-20.7,13.8
		c-8.1,3.2-17.1,4.8-27.1,4.8c-10,0-19-1.6-27.2-4.8c-8.1-3.2-15.1-7.8-20.9-13.8c-5.8-6-10.2-13.2-13.4-21.7
		c-3.2-8.5-4.7-18-4.7-28.6c0-10.5,1.6-20,4.7-28.5c3.2-8.5,7.6-15.7,13.4-21.6c5.8-5.9,12.7-10.4,20.9-13.7
		C922.2,1678.5,931.3,1676.9,941.3,1676.9z M941.3,1789.6c11.1,0,19.3-3.7,24.6-11.2c5.3-7.5,8-18.4,8-32.8c0-14.4-2.7-25.3-8-32.9
		s-13.5-11.3-24.6-11.3c-11.3,0-19.6,3.8-25,11.4c-5.4,7.6-8.1,18.5-8.1,32.8c0,14.3,2.7,25.2,8.1,32.7
		C921.7,1785.8,930,1789.6,941.3,1789.6z"/>
	<path class="st2" d="M1032.1,1812.3V1679h19.6c4.2,0,6.9,2,8.2,5.8l2.1,9.9c2.3-2.6,4.8-5,7.3-7.1c2.6-2.2,5.3-4,8.2-5.6
		c2.9-1.6,6-2.8,9.4-3.7c3.3-0.9,7-1.4,11-1.4c8.4,0,15.3,2.3,20.7,6.8c5.4,4.5,9.5,10.6,12.2,18.1c2.1-4.4,4.7-8.2,7.8-11.4
		c3.1-3.2,6.5-5.7,10.3-7.7c3.7-2,7.7-3.5,11.9-4.4c4.2-1,8.4-1.4,12.7-1.4c7.4,0,13.9,1.1,19.6,3.4c5.7,2.3,10.5,5.5,14.4,9.9
		c3.9,4.3,6.9,9.6,8.9,15.9c2,6.2,3.1,13.4,3.1,21.5v84.9h-32.1v-84.9c0-8.5-1.9-14.9-5.6-19.2c-3.7-4.3-9.2-6.4-16.4-6.4
		c-3.3,0-6.3,0.6-9.2,1.7c-2.8,1.1-5.3,2.8-7.4,4.9c-2.1,2.1-3.8,4.8-5,8c-1.2,3.2-1.8,6.9-1.8,11.1v84.9h-32.2v-84.9
		c0-8.9-1.8-15.4-5.4-19.5c-3.6-4.1-8.9-6.1-15.9-6.1c-4.6,0-8.9,1.1-12.9,3.4c-4,2.3-7.8,5.4-11.2,9.4v97.6H1032.1z"/>
	<path class="st2" d="M1290,1640.1c0,2.8-0.6,5.4-1.7,7.8c-1.1,2.4-2.6,4.5-4.5,6.4c-1.9,1.8-4.1,3.3-6.6,4.4
		c-2.5,1.1-5.2,1.6-8.1,1.6c-2.8,0-5.4-0.5-7.9-1.6c-2.5-1.1-4.6-2.5-6.4-4.4c-1.8-1.8-3.3-3.9-4.4-6.4c-1.1-2.4-1.6-5-1.6-7.8
		c0-2.9,0.5-5.5,1.6-8.1c1.1-2.5,2.5-4.7,4.4-6.5c1.8-1.8,4-3.3,6.4-4.4c2.5-1.1,5.1-1.6,7.9-1.6c2.9,0,5.5,0.5,8.1,1.6
		c2.5,1.1,4.7,2.5,6.6,4.4c1.9,1.8,3.4,4,4.5,6.5C1289.5,1634.5,1290,1637.2,1290,1640.1z M1285.2,1679v133.4h-32.1V1679H1285.2z"/>
	<path class="st2" d="M1435,1679v176.9h-32.1v-60.3c-2.7,2.9-5.5,5.4-8.5,7.7c-3,2.3-6.2,4.2-9.6,5.9c-3.4,1.6-7,2.9-10.8,3.8
		c-3.8,0.9-7.9,1.4-12.3,1.4c-7.3,0-14-1.5-20-4.5c-6.1-3-11.3-7.4-15.7-13.2c-4.4-5.8-7.8-12.9-10.1-21.4
		c-2.4-8.5-3.6-18.2-3.6-29.1c0-9.9,1.3-19.1,4-27.6c2.7-8.5,6.5-15.9,11.6-22.1c5-6.2,11-11.1,18.1-14.6c7-3.5,14.9-5.3,23.7-5.3
		c4.2,0,8,0.4,11.4,1.1c3.4,0.7,6.6,1.8,9.5,3.2c2.9,1.4,5.6,3,8,4.9c2.4,1.9,4.8,4.1,7,6.5l1.7-7.4c0.4-2,1.4-3.5,2.9-4.4
		c1.5-1,3.2-1.4,5.3-1.4H1435z M1372.6,1788.8c6.7,0,12.3-1.4,17-4.2c4.7-2.8,9.1-6.7,13.3-11.8V1713c-3.6-4.4-7.6-7.5-11.9-9.4
		c-4.3-1.8-8.9-2.7-13.8-2.7c-4.9,0-9.3,0.9-13.2,2.7c-3.9,1.8-7.3,4.6-10,8.3c-2.7,3.7-4.8,8.4-6.3,14c-1.5,5.7-2.2,12.4-2.2,20.1
		c0,7.8,0.6,14.4,1.9,19.8c1.3,5.4,3.1,9.8,5.4,13.3c2.3,3.4,5.2,5.9,8.6,7.4C1364.7,1788,1368.4,1788.8,1372.6,1788.8z"/>
	<path class="st2" d="M1499.1,1679v84.8c0,8.1,1.9,14.5,5.7,18.9c3.8,4.5,9.4,6.7,17,6.7c5.5,0,10.7-1.2,15.6-3.7
		c4.9-2.5,9.4-5.9,13.8-10.2V1679h32.1v133.4h-19.6c-4.2,0-6.9-2-8.2-5.8l-2.2-10.7c-2.8,2.8-5.6,5.3-8.6,7.6
		c-2.9,2.3-6.1,4.2-9.4,5.9c-3.3,1.6-6.9,2.9-10.8,3.8c-3.9,0.9-8,1.4-12.4,1.4c-7.3,0-13.7-1.2-19.3-3.7c-5.6-2.5-10.3-6-14.1-10.5
		c-3.8-4.5-6.7-9.9-8.6-16.1c-2-6.2-2.9-13-2.9-20.5V1679H1499.1z"/>
	<path class="st2" d="M1672.6,1676.9c8.4,0,16.1,1.3,23.2,4c7.1,2.7,13.2,6.6,18.3,11.8c5.1,5.2,9.1,11.5,12,19
		c2.9,7.5,4.3,16.1,4.3,25.7c0,2.4-0.1,4.4-0.3,6c-0.2,1.6-0.6,2.9-1.2,3.8c-0.6,0.9-1.3,1.6-2.3,2c-1,0.4-2.2,0.6-3.6,0.6h-82.4
		c1,13.7,4.6,23.7,11,30.2c6.4,6.4,14.9,9.6,25.5,9.6c5.2,0,9.7-0.6,13.5-1.8c3.8-1.2,7.1-2.6,9.9-4c2.8-1.5,5.3-2.8,7.4-4
		c2.1-1.2,4.2-1.8,6.2-1.8c1.3,0,2.4,0.3,3.4,0.8c1,0.5,1.8,1.3,2.5,2.2l9.4,11.7c-3.6,4.2-7.5,7.6-12,10.5c-4.4,2.8-9,5.1-13.8,6.8
		c-4.8,1.7-9.7,2.9-14.7,3.6c-5,0.7-9.8,1-14.5,1c-9.3,0-17.9-1.5-25.9-4.6c-8-3.1-14.9-7.6-20.8-13.7c-5.9-6-10.5-13.5-13.9-22.4
		c-3.4-8.9-5.1-19.2-5.1-30.9c0-9.1,1.5-17.7,4.4-25.7c2.9-8,7.2-15,12.7-20.9c5.5-5.9,12.2-10.6,20.1-14.1
		C1653.7,1678.6,1662.7,1676.9,1672.6,1676.9z M1673.3,1699.9c-9.4,0-16.7,2.6-22,7.9c-5.3,5.3-8.7,12.8-10.1,22.5h60.3
		c0-4.2-0.6-8.1-1.7-11.8c-1.1-3.7-2.9-6.9-5.2-9.7c-2.3-2.8-5.3-5-8.8-6.6C1682.2,1700.7,1678,1699.9,1673.3,1699.9z"/>
</g>
</svg>
