<?xml version="1.0" encoding="utf-8"?>
<!-- Generator: Adobe Illustrator 24.3.0, SVG Export Plug-In . SVG Version: 6.00 Build 0)  -->
<svg version="1.1" id="Calque_1" xmlns="http://www.w3.org/2000/svg" xmlns:xlink="http://www.w3.org/1999/xlink" x="0px" y="0px"
	 viewBox="0 0 2048 2048" style="enable-background:new 0 0 2048 2048;" xml:space="preserve">
<style type="text/css">
	.st0{fill:url(#SVGID_1_);}
	.st1{fill:#DCDCDC;}
	.st2{fill:#333333;}
</style>
<g>
	
		<linearGradient id="SVGID_1_" gradientUnits="userSpaceOnUse" x1="1024" y1="2584.5" x2="1024" y2="4607.5" gradientTransform="matrix(1 0 0 -1 0 4620)">
		<stop  offset="0" style="stop-color:#E8E8E8"/>
		<stop  offset="1" style="stop-color:#F9F9F9"/>
	</linearGradient>
	<path class="st0" d="M50,2035.5c-20.7,0-37.5-16.8-37.5-37.5V50c0-20.7,16.8-37.5,37.5-37.5h1948c20.7,0,37.5,16.8,37.5,37.5v1948
		c0,20.7-16.8,37.5-37.5,37.5H50z"/>
	<path class="st1" d="M1998,25c13.8,0,25,11.2,25,25v1948c0,13.8-11.2,25-25,25H50c-13.8,0-25-11.2-25-25V50c0-13.8,11.2-25,25-25
		H1998 M1998,0H50C22.5,0,0,22.5,0,50v1948c0,27.5,22.5,50,50,50h1948c27.5,0,50-22.5,50-50V50C2048,22.5,2025.5,0,1998,0L1998,0z"
		/>
</g>
<path class="st2" d="M558.6,1270.9H749v-190.4H558.6V1270.9z M791.3,1270.9h211.4v-190.4H791.3V1270.9z M558.6,1038.1H749V826.7
	H558.6V1038.1z M791.3,1038.1h211.4V826.7H791.3V1038.1z M558.6,784.4H749V593.9H558.6V784.4z M1045.1,1270.9h211.6v-190.4h-211.6
	V1270.9z M791.3,784.4h211.4V593.9H791.3V784.4z M1298.9,1270.9h190.4v-190.4h-190.4V1270.9z M1045.1,1038.1h211.6V826.7h-211.6
	V1038.1L1045.1,1038.1z M812.4,467.1V276.7c0-11.3-10-21.2-21.1-21.2h-42.4c-11.1,0-21.1,10-21.1,21.2v190.4
	c0,11.3,10,21.2,21.1,21.2h42.4C802.5,488.3,812.4,478.3,812.4,467.1z M1298.9,1038.1h190.4V826.7h-190.4V1038.1z M1045.1,784.4
	h211.6V593.9h-211.6V784.4L1045.1,784.4z M1298.9,784.4h190.4V593.9h-190.4V784.4z M1320.1,467.1V276.7c0-11.3-10-21.2-21.2-21.2
	h-42.3c-11.3,0-21.1,10-21.1,21.2v190.4c0,11.3,9.8,21.2,21.1,21.2h42.3C1310.2,488.3,1320.1,478.3,1320.1,467.1z M1574,424.8v846.1
	c0,46.2-38.4,84.6-84.7,84.6H558.6c-46.2,0-84.6-38.4-84.6-84.6V424.8c0-46.3,38.4-84.6,84.6-84.6h84.7v-63.5
	c0-58.2,47.5-105.8,105.7-105.8h42.4c58.2,0,105.7,47.6,105.7,105.8v63.5H1151v-63.5c0-58.2,47.6-105.8,105.8-105.8h42.3
	c58.2,0,105.8,47.6,105.8,105.8v63.5h84.6C1535.6,340.2,1574,378.4,1574,424.8L1574,424.8z"/>
<g>
	<path class="st2" d="M341.1,1745.9v66.2h-35v-188h61.2c12.6,0,23.4,1.5,32.6,4.4s16.8,7.1,22.8,12.4s10.4,11.6,13.3,19
		s4.3,15.4,4.3,24.2c0,9.1-1.5,17.4-4.5,25s-7.6,14.1-13.6,19.6c-6.1,5.5-13.7,9.7-22.8,12.7c-9.1,3-19.8,4.6-32,4.6L341.1,1745.9
		L341.1,1745.9z M341.1,1718.6h26.3c6.4,0,12-0.8,16.8-2.4s8.7-3.9,11.8-6.9c3.1-3,5.5-6.6,7-10.9s2.3-9.1,2.3-14.4
		c0-5-0.8-9.6-2.3-13.7c-1.6-4.1-3.9-7.5-7-10.4s-7.1-5-11.8-6.6c-4.8-1.5-10.4-2.3-16.8-2.3h-26.3V1718.6z"/>
	<path class="st2" d="M499.8,1618.9v193.2h-32.1v-193.2H499.8z"/>
	<path class="st2" d="M640.6,1812.1h-14.4c-3,0-5.4-0.5-7.2-1.4c-1.7-0.9-3-2.8-3.9-5.5l-2.9-9.5c-3.4,3-6.7,5.7-9.9,8
		s-6.6,4.2-10.1,5.8c-3.5,1.6-7.2,2.7-11.1,3.5c-3.9,0.8-8.2,1.2-13,1.2c-5.6,0-10.8-0.8-15.6-2.3s-8.9-3.8-12.3-6.8
		c-3.4-3-6.1-6.8-8-11.3s-2.9-9.8-2.9-15.8c0-5,1.3-10,4-14.9c2.6-4.9,7-9.3,13.2-13.3s14.3-7.2,24.6-9.8
		c10.2-2.6,22.9-3.9,38.1-3.9v-7.9c0-9-1.9-15.7-5.7-20s-9.3-6.5-16.4-6.5c-5.2,0-9.5,0.6-13,1.8c-3.5,1.2-6.5,2.6-9,4.1
		c-2.6,1.5-4.9,2.9-7.1,4.1c-2.2,1.2-4.5,1.8-7.1,1.8c-2.2,0-4-0.6-5.6-1.7s-2.8-2.5-3.8-4.2l-5.9-10.3c15.3-14,33.8-21.1,55.5-21.1
		c7.8,0,14.8,1.3,20.9,3.8c6.1,2.6,11.3,6.1,15.5,10.7c4.2,4.5,7.5,10,9.7,16.3s3.3,13.3,3.3,20.8v84.3H640.6z M578.2,1792.1
		c3.3,0,6.3-0.3,9.1-0.9s5.4-1.5,7.9-2.7s4.9-2.7,7.1-4.4c2.3-1.7,4.6-3.8,7-6.2v-22.3c-9.4,0-17.2,0.6-23.5,1.8
		c-6.3,1.2-11.3,2.7-15.1,4.5s-6.5,4-8.1,6.4s-2.4,5.1-2.4,8c0,5.7,1.7,9.7,5,12.2C568.4,1790.9,572.8,1792.1,578.2,1792.1z"/>
	<path class="st2" d="M672.2,1812.1v-133.4h19.6c4.2,0,6.9,1.9,8.2,5.9l2.2,10.5c2.7-2.8,5.5-5.3,8.5-7.5c3-2.3,6.2-4.2,9.5-5.9
		c3.3-1.6,6.9-2.9,10.7-3.8s8-1.3,12.5-1.3c7.3,0,13.7,1.2,19.4,3.7c5.6,2.5,10.3,5.9,14.1,10.4s6.6,9.8,8.6,16s2.9,13,2.9,20.5
		v84.9h-32.1v-84.9c0-8.1-1.9-14.5-5.7-18.9c-3.8-4.5-9.4-6.7-17-6.7c-5.5,0-10.7,1.3-15.6,3.8c-4.9,2.5-9.4,5.9-13.8,10.3v96.5
		L672.2,1812.1L672.2,1812.1z"/>
	<path class="st2" d="M859,1639.8c0,2.8-0.6,5.4-1.7,7.8c-1.1,2.4-2.6,4.6-4.5,6.4s-4.1,3.3-6.6,4.4s-5.2,1.6-8.1,1.6
		c-2.8,0-5.4-0.5-7.9-1.6s-4.6-2.5-6.4-4.4c-1.8-1.8-3.3-3.9-4.4-6.4c-1.1-2.4-1.6-5-1.6-7.8c0-2.9,0.5-5.5,1.6-8.1
		c1.1-2.5,2.5-4.7,4.4-6.5c1.8-1.8,4-3.3,6.4-4.4c2.5-1.1,5.1-1.6,7.9-1.6c2.9,0,5.5,0.5,8.1,1.6c2.5,1.1,4.7,2.5,6.6,4.4
		c1.9,1.8,3.4,4,4.5,6.5C858.4,1634.3,859,1637,859,1639.8z M854.2,1678.7v133.4H822v-133.4H854.2z"/>
	<path class="st2" d="M896.1,1812.1v-109.2l-11.6-1.8c-2.5-0.4-4.5-1.3-6-2.6c-1.5-1.3-2.3-3.1-2.3-5.5v-13.1h19.9v-4.3
		c0-8.1,1.3-15.7,4-22.7s6.8-13,12.2-18.1c5.5-5.1,12.4-9.1,20.7-12s18.2-4.4,29.5-4.4c3.6,0,7.4,0.2,11.2,0.6s7.1,1,9.9,1.9
		l-1,16.6c-0.2,2-1.3,3.2-3.2,3.6c-2,0.4-4.5,0.6-7.4,0.6c-8.4,0-15.4,0.7-21.1,2.2c-5.7,1.5-10.3,3.7-13.8,6.6s-6,6.5-7.5,10.9
		s-2.3,9.5-2.3,15.3v3.2h82.7v132.2h-32.1v-109.3h-49.5v109.3L896.1,1812.1L896.1,1812.1z"/>
	<path class="st2" d="M1140.4,1706.9c-1,1.2-1.9,2.2-2.8,2.9c-0.9,0.7-2.2,1-4,1c-1.6,0-3.2-0.5-4.8-1.5c-1.6-1-3.4-2.1-5.6-3.4
		s-4.7-2.4-7.7-3.4s-6.7-1.5-11.1-1.5c-5.6,0-10.6,1-14.8,3.1c-4.2,2-7.8,5-10.6,8.8c-2.8,3.8-4.9,8.4-6.3,13.8s-2.1,11.5-2.1,18.4
		c0,7.1,0.8,13.4,2.3,19c1.5,5.5,3.7,10.2,6.6,14s6.3,6.6,10.4,8.6s8.7,2.9,13.8,2.9c5.1,0,9.3-0.6,12.4-1.9c3.2-1.3,5.8-2.6,8-4.2
		c2.2-1.5,4.1-2.9,5.7-4.2c1.6-1.3,3.4-1.9,5.4-1.9c2.6,0,4.6,1,5.9,3l9.2,11.7c-3.6,4.2-7.4,7.6-11.6,10.5
		c-4.2,2.8-8.5,5.1-12.9,6.8c-4.5,1.7-9.1,2.9-13.8,3.6c-4.8,0.7-9.5,1-14.2,1c-8.2,0-16-1.5-23.3-4.6s-13.6-7.6-19-13.5
		s-9.7-13.1-12.9-21.6c-3.2-8.5-4.7-18.3-4.7-29.2c0-9.8,1.4-18.9,4.2-27.2c2.8-8.4,7-15.6,12.4-21.7s12.2-10.9,20.3-14.4
		c8.1-3.5,17.3-5.2,27.8-5.2c10,0,18.7,1.6,26.2,4.8c7.5,3.2,14.2,7.8,20.2,13.8L1140.4,1706.9z"/>
	<path class="st2" d="M1275.2,1812.1h-14.4c-3,0-5.4-0.5-7.2-1.4c-1.7-0.9-3-2.8-3.9-5.5l-2.9-9.5c-3.4,3-6.7,5.7-9.9,8
		c-3.2,2.3-6.6,4.2-10.1,5.8c-3.5,1.6-7.2,2.7-11.1,3.5s-8.2,1.2-13,1.2c-5.6,0-10.8-0.8-15.6-2.3c-4.8-1.5-8.9-3.8-12.3-6.8
		s-6.1-6.8-8-11.3s-2.9-9.8-2.9-15.8c0-5,1.3-10,4-14.9c2.6-4.9,7-9.3,13.2-13.3s14.3-7.2,24.6-9.8c10.2-2.6,22.9-3.9,38.1-3.9v-7.9
		c0-9-1.9-15.7-5.7-20c-3.8-4.3-9.3-6.5-16.4-6.5c-5.2,0-9.5,0.6-13,1.8c-3.5,1.2-6.5,2.6-9,4.1c-2.6,1.5-4.9,2.9-7.1,4.1
		s-4.5,1.8-7.1,1.8c-2.2,0-4-0.6-5.6-1.7s-2.8-2.5-3.8-4.2l-5.9-10.3c15.3-14,33.8-21.1,55.5-21.1c7.8,0,14.8,1.3,20.9,3.8
		c6.1,2.6,11.3,6.1,15.5,10.7c4.2,4.5,7.5,10,9.7,16.3s3.3,13.3,3.3,20.8v84.3H1275.2z M1212.8,1792.1c3.3,0,6.3-0.3,9.1-0.9
		c2.8-0.6,5.4-1.5,7.9-2.7s4.9-2.7,7.1-4.4c2.3-1.7,4.6-3.8,7-6.2v-22.3c-9.4,0-17.2,0.6-23.5,1.8c-6.3,1.2-11.3,2.7-15.1,4.5
		c-3.8,1.8-6.5,4-8.1,6.4s-2.4,5.1-2.4,8c0,5.7,1.7,9.7,5,12.2C1203.1,1790.9,1207.4,1792.1,1212.8,1792.1z"/>
	<path class="st2" d="M1350.6,1814.2c-11.5,0-20.4-3.3-26.6-9.8s-9.4-15.6-9.4-27.1v-74.5h-13.5c-1.7,0-3.2-0.6-4.5-1.7
		s-1.9-2.8-1.9-5.1v-12.7l21.4-3.5l6.8-36.4c0.3-1.7,1.1-3.1,2.4-4c1.3-1,2.8-1.4,4.7-1.4h16.6v42h35.1v22.9h-35.1v72.3
		c0,4.2,1,7.4,3.1,9.8c2.1,2.3,4.9,3.5,8.3,3.5c2,0,3.7-0.2,5-0.7s2.5-1,3.5-1.5s1.9-1,2.7-1.5c0.8-0.5,1.6-0.7,2.3-0.7
		c1,0,1.7,0.2,2.3,0.7c0.6,0.5,1.3,1.2,2,2.1l9.6,15.6c-4.7,3.9-10.1,6.8-16.1,8.8C1363.4,1813.2,1357.1,1814.2,1350.6,1814.2z"/>
	<path class="st2" d="M1446.4,1639.8c0,2.8-0.6,5.4-1.7,7.8s-2.6,4.6-4.5,6.4s-4.1,3.3-6.6,4.4s-5.2,1.6-8.1,1.6
		c-2.8,0-5.4-0.5-7.9-1.6s-4.6-2.5-6.4-4.4c-1.8-1.8-3.3-3.9-4.4-6.4c-1.1-2.4-1.6-5-1.6-7.8c0-2.9,0.5-5.5,1.6-8.1
		c1.1-2.5,2.5-4.7,4.4-6.5c1.8-1.8,4-3.3,6.4-4.4c2.5-1.1,5.1-1.6,7.9-1.6c2.9,0,5.5,0.5,8.1,1.6c2.5,1.1,4.7,2.5,6.6,4.4
		c1.9,1.8,3.4,4,4.5,6.5C1445.9,1634.3,1446.4,1637,1446.4,1639.8z M1441.6,1678.7v133.4h-32.1v-133.4H1441.6z"/>
	<path class="st2" d="M1534.8,1676.6c10,0,19,1.6,27.1,4.8c8.1,3.2,15,7.8,20.7,13.6c5.7,5.9,10.1,13.1,13.3,21.6
		c3.1,8.5,4.7,18,4.7,28.5c0,10.6-1.6,20.1-4.7,28.6s-7.5,15.7-13.3,21.7c-5.7,6-12.6,10.6-20.7,13.8c-8.1,3.2-17.1,4.8-27.1,4.8
		s-19-1.6-27.2-4.8c-8.1-3.2-15.1-7.8-20.9-13.8s-10.2-13.2-13.4-21.7c-3.2-8.5-4.7-18-4.7-28.6c0-10.5,1.6-20,4.7-28.5
		c3.2-8.5,7.6-15.7,13.4-21.6s12.7-10.4,20.9-13.6C1515.8,1678.2,1524.9,1676.6,1534.8,1676.6z M1534.8,1789.3
		c11.1,0,19.3-3.7,24.6-11.2c5.3-7.5,8-18.4,8-32.8s-2.7-25.4-8-32.9s-13.5-11.3-24.6-11.3c-11.3,0-19.6,3.8-25,11.4
		s-8.1,18.5-8.1,32.8s2.7,25.2,8.1,32.7C1515.2,1785.6,1523.6,1789.3,1534.8,1789.3z"/>
	<path class="st2" d="M1625.7,1812.1v-133.4h19.6c4.2,0,6.9,1.9,8.2,5.9l2.2,10.5c2.7-2.8,5.5-5.3,8.5-7.5c3-2.3,6.2-4.2,9.5-5.9
		c3.3-1.6,6.9-2.9,10.7-3.8c3.8-0.9,8-1.3,12.5-1.3c7.3,0,13.7,1.2,19.4,3.7c5.6,2.5,10.3,5.9,14.1,10.4c3.8,4.5,6.6,9.8,8.6,16
		s2.9,13,2.9,20.5v84.9h-32.1v-84.9c0-8.1-1.9-14.5-5.7-18.9c-3.8-4.5-9.4-6.7-17-6.7c-5.5,0-10.7,1.3-15.6,3.8s-9.4,5.9-13.8,10.3
		v96.5L1625.7,1812.1L1625.7,1812.1z"/>
</g>
</svg>
