<?xml version="1.0" encoding="utf-8"?>
<!-- Generator: Adobe Illustrator 26.0.2, SVG Export Plug-In . SVG Version: 6.00 Build 0)  -->
<svg version="1.1" id="Calque_1" xmlns="http://www.w3.org/2000/svg" xmlns:xlink="http://www.w3.org/1999/xlink" x="0px" y="0px"
	 viewBox="0 0 2048 2048" style="enable-background:new 0 0 2048 2048;" xml:space="preserve">
<style type="text/css">
	.st0{fill:url(#SVGID_1_);}
	.st1{fill:#DCDCDC;}
	.st2{fill:#333333;stroke:#333333;}
	.st3{fill:#333333;}
</style>
<g>
	
		<linearGradient id="SVGID_1_" gradientUnits="userSpaceOnUse" x1="1024" y1="-2244.3425" x2="1024" y2="-4267.3428" gradientTransform="matrix(1 0 0 1 0 4279.8428)">
		<stop  offset="0" style="stop-color:#E8E8E8"/>
		<stop  offset="1" style="stop-color:#F9F9F9"/>
	</linearGradient>
	<path class="st0" d="M50,2035.5c-20.7,0-37.5-16.8-37.5-37.5V50c0-20.7,16.8-37.5,37.5-37.5h1948c20.7,0,37.5,16.8,37.5,37.5v1948
		c0,20.7-16.8,37.5-37.5,37.5H50z"/>
	<path class="st1" d="M1998,25c13.8,0,25,11.2,25,25v1948c0,13.8-11.2,25-25,25H50c-13.8,0-25-11.2-25-25V50c0-13.8,11.2-25,25-25
		H1998 M1998,0H50C22.5,0,0,22.5,0,50v1948c0,27.5,22.5,50,50,50h1948c27.5,0,50-22.5,50-50V50C2048,22.5,2025.5,0,1998,0L1998,0z"
		/>
</g>
<g>
	<path class="st2" d="M895.7,1738.7v73.5h-35v-188H918c12.8,0,23.8,1.3,33,4c9.1,2.6,16.6,6.3,22.5,11.1
		c5.9,4.8,10.1,10.5,12.9,17.1c2.7,6.6,4.1,13.9,4.1,21.9c0,6.3-0.9,12.3-2.8,17.9c-1.9,5.6-4.6,10.7-8.1,15.3
		c-3.5,4.6-7.8,8.6-13,12.1s-11,6.2-17.6,8.3c4.4,2.5,8.2,6.1,11.4,10.8l47.1,69.4H976c-3,0-5.6-0.6-7.7-1.8
		c-2.1-1.2-3.9-2.9-5.4-5.2l-39.5-60.2c-1.5-2.3-3.1-3.9-4.9-4.8c-1.8-1-4.4-1.4-7.9-1.4L895.7,1738.7L895.7,1738.7z M895.7,1713.7
		h21.8c6.6,0,12.3-0.8,17.2-2.5c4.9-1.6,8.9-3.9,12.1-6.8c3.2-2.9,5.5-6.3,7.1-10.3s2.3-8.4,2.3-13.1c0-9.5-3.1-16.9-9.4-22
		c-6.3-5.1-15.9-7.7-28.8-7.7h-22.4v62.4H895.7z"/>
	<path class="st2" d="M1188.5,1812.2h-35.2V1730h-88.1v82.2H1030v-188h35.2v80.9h88.1v-80.9h35.2L1188.5,1812.2L1188.5,1812.2z"/>
</g>
<path id="path2" class="st3" d="M1310.4,447.4c-26.6-119.9-78.3-274.6-155.4-274.6c-25.1,0-47.6,10.9-66.3,25.4
	c-36.9,28.7-88.9,28.7-125.7,0c-18.7-14.5-41-25.4-66.1-25.4c-79.3,0-129.1,155.9-155.9,275.8c63.1,23.9,154.2,44.7,280.8,44.7
	C1154.8,493.3,1247.3,472.1,1310.4,447.4L1310.4,447.4z M714.7,713.8c0,170.9,138.7,309.9,307.2,309.9
	c171,0,307.2-138.4,307.2-309.4c170.4-98.5,229-254,229.9-258.4c6.6-18.4-2.6-38.2-21-47c-14.1-8.4-36.1-3.1-48.6,12.9
	c-0.9,1.5-108.1,149-465.3,149c-355,0-463.1-145.9-465.3-149c-12.4-16-34.4-21.4-52.8-13c-18.7,8.5-27.8,28.7-21.1,47.1
	C485.7,458.3,544.3,615.4,714.7,713.8L714.7,713.8z M1563,1314.1c-31.4-125.2-143.8-213.2-273.1-213.2H758.2
	c-129.2,0-241.7,87.9-273.1,213.3c-12.2,48.7,24.6,96.1,74.9,96.1h925.9C1538.3,1410.3,1575.3,1363,1563,1314.1z"/>
</svg>
