<?xml version="1.0" encoding="utf-8"?>
<!-- Generator: Adobe Illustrator 22.0.1, SVG Export Plug-In . SVG Version: 6.00 Build 0)  -->
<svg version="1.1" id="Calque_1" xmlns="http://www.w3.org/2000/svg" xmlns:xlink="http://www.w3.org/1999/xlink" x="0px" y="0px"
	 viewBox="0 0 500 500" style="enable-background:new 0 0 500 500;" xml:space="preserve">
<style type="text/css">
	.st0{fill:#FFFFFF;}
	.st1{fill:#487BD4;}
</style>
<circle class="st0" cx="250" cy="250" r="250"/>
<path d="M250,8c32.7,0,64.4,6.4,94.2,19c28.8,12.2,54.7,29.6,76.9,51.9s39.7,48.1,51.9,76.9c12.6,29.8,19,61.5,19,94.2
	s-6.4,64.4-19,94.2c-12.2,28.8-29.6,54.7-51.9,76.9S373,460.8,344.2,473c-29.8,12.6-61.5,19-94.2,19s-64.4-6.4-94.2-19
	c-28.8-12.2-54.7-29.6-76.9-51.9S39.2,373,27,344.2C14.4,314.4,8,282.7,8,250s6.4-64.4,19-94.2c12.2-28.8,29.6-54.7,51.9-76.9
	S127,39.2,155.8,27C185.6,14.4,217.3,8,250,8 M250,0C111.9,0,0,111.9,0,250s111.9,250,250,250s250-111.9,250-250S388.1,0,250,0
	L250,0z"/>
<g>
	<path class="st1" d="M293.4,273.8h31.9v25c0,2.3-0.8,4.3-2.3,6c-1.5,1.7-3.7,2.5-6.7,2.5h-22.9v61.8h-37.8v-61.8H148.8
		c-2.9,0-5.5-0.9-7.7-2.7c-2.2-1.8-3.6-4.1-4.2-6.7l-4.4-21.9l119.9-160.1h41V273.8z M255.6,191c0-3.7,0.1-7.8,0.3-12.1
		c0.2-4.3,0.6-8.8,1.2-13.5l-78.6,108.3h77V191z"/>
</g>
</svg>
