<?xml version="1.0" encoding="utf-8"?>
<!-- Generator: Adobe Illustrator 21.1.0, SVG Export Plug-In . SVG Version: 6.00 Build 0)  -->
<svg version="1.1" id="Calque_1" xmlns="http://www.w3.org/2000/svg" xmlns:xlink="http://www.w3.org/1999/xlink" x="0px" y="0px"
	 viewBox="0 0 1792 1792" style="enable-background:new 0 0 1792 1792;" xml:space="preserve">
<style type="text/css">
	.st0{fill:#E31F00;}
</style>
<path class="st0" d="M1647.5,306.9h-1503C64.9,306.9,0,371,0,449.6v972.9c0,78.9,64.9,142.7,144.5,142.7h1503.1
	c79.5,0,144.5-63.8,144.5-142.7V449.6C1792,371,1727.1,306.9,1647.5,306.9z M1647.5,364c15,0,29,3.7,41.3,10.3L964.2,998.6
	c-37,31.8-99.3,31.8-136.3,0L103.4,374.3c12.2-6.5,26.2-10.3,41.1-10.3H1647.5z M1734.1,1422.4c0,47.4-38.6,85.6-86.6,85.6h-1503
	c-47.7,0-86.6-38.2-86.6-85.6V449.6c0-11.6,2.4-22.7,6.7-32.8L652.2,923l-331.1,306.4c-11.5,10.8-12.1,29-1.1,40.4
	c5.6,5.9,13.2,8.9,21.2,8.9c7,0,14.1-2.5,19.7-7.8L693.6,963c0.8-0.8,1.5-1.5,2.2-2.4l94.3,81.2c29,25.1,67.4,37.7,106,37.7
	c38.4,0,76.8-12.6,106.1-38l94.1-81.1c0.7,0.9,1.5,1.7,2.4,2.5l332.4,307.9c5.7,5.3,12.7,7.8,19.8,7.8c7.9,0,15.6-3,21.2-8.9
	c11-11.4,10.4-29.5-1.2-40.4l-331-306.4l587.7-506.1c4.2,10.1,6.6,21.2,6.6,32.8v972.8H1734.1z"/>
</svg>
