<?xml version="1.0" encoding="utf-8"?>
<!-- Generator: Adobe Illustrator 21.1.0, SVG Export Plug-In . SVG Version: 6.00 Build 0)  -->
<svg version="1.1" id="Capa_1" xmlns="http://www.w3.org/2000/svg" xmlns:xlink="http://www.w3.org/1999/xlink" x="0px" y="0px"
	 viewBox="0 0 320 320" style="enable-background:new 0 0 320 320;" xml:space="preserve">
<style type="text/css">
	.st0{fill:#999999;}
</style>
<g>
	<path class="st0" d="M0,235c0,2.6,1.1,5.2,2.9,7.1S7.4,245,10,245h140v65c0,3.9,2.6,7.7,6.2,9.2s8.1,0.6,10.9-2.2l150-150
		c1.8-1.9,2.9-4.4,2.9-7.1s-1.1-5.2-2.9-7.1l-150-150c-2.8-2.8-7.3-3.7-10.9-2.2c-3.6,1.5-6.2,5.3-6.2,9.2v65H10
		c-2.6,0-5.2,1.1-7.1,2.9C1.1,79.8,0,82.4,0,85V235z"/>
</g>
</svg>
