<?xml version="1.0" encoding="utf-8"?>
<!-- Generator: Adobe Illustrator 23.0.6, SVG Export Plug-In . SVG Version: 6.00 Build 0)  -->
<svg version="1.1" id="Calque_1" xmlns="http://www.w3.org/2000/svg" xmlns:xlink="http://www.w3.org/1999/xlink" x="0px" y="0px"
	 viewBox="0 0 512 512" style="enable-background:new 0 0 512 512;" xml:space="preserve">
<style type="text/css">
	.st0{fill:#00C05E;}
	.st1{fill:#FFFFFF;}
</style>
<path class="st0" d="M492.7999878,512H19.2000008C8.6400003,512,0,503.3599854,0,492.7999878V19.2000008
	C0,8.6400003,8.6400003,0,19.2000008,0h473.5999756C503.3599854,0,512,8.6400003,512,19.2000008v473.5999756
	C512,503.3599854,503.3599854,512,492.7999878,512z"/>
<path class="st1" d="M381.3357239,276.6742859V381.108551c0,7.6434326-6.3175354,13.9219666-13.9219971,13.9219666H283.842926
	v-83.5317993h-55.6878815v83.5317993h-83.570816c-7.6434326,0-13.9219666-6.2785034-13.9219666-13.9219666V276.6742859
	c0-0.4289551,0.1949921-0.8969421,0.1949921-1.3258972L255.9989929,172.201004l125.1417236,103.1473846
	C381.3357239,275.7773438,381.3357239,276.2453003,381.3357239,276.6742859z M429.8871155,261.6604004l-13.492981,16.1058044
	c-1.0919189,1.2868958-2.8468018,2.1448364-4.6016541,2.3788147h-0.6239624c-1.7548523,0-3.2757568-0.4289551-4.6016541-1.5209045
	L255.9990082,153.0534058L105.3921509,278.624115c-1.5208893,1.0919189-3.236763,1.7548828-5.2256165,1.5209045
	c-1.7158737-0.2339783-3.4707413-1.0919189-4.5626602-2.3788147l-13.4930038-16.1058044
	c-2.3788223-2.8468018-1.9498596-7.4094543,0.857933-9.7882843l156.4954224-130.3673401
	c9.1253357-7.6044388,23.9442291-7.6044388,33.0695648,0l53.1140747,44.3787308V123.454628
	c0-3.8997116,3.0417786-6.9414825,6.9414978-6.9414825h41.8049011c3.8997192,0,6.9414673,3.0417709,6.9414673,6.9414825v88.7964401
	l47.65448,39.6210632c2.8468018,2.37883,3.2757874,6.9414673,0.8969421,9.788269H429.8871155z"/>
</svg>
