<?xml version="1.0" encoding="utf-8"?>
<!-- Generator: Adobe Illustrator 23.0.6, SVG Export Plug-In . SVG Version: 6.00 Build 0)  -->
<svg version="1.1" id="Calque_1" focusable="false" xmlns="http://www.w3.org/2000/svg" xmlns:xlink="http://www.w3.org/1999/xlink"
	 x="0px" y="0px" viewBox="0 0 512 512" style="enable-background:new 0 0 512 512;" xml:space="preserve">
<style type="text/css">
	.st0{fill:#FFFFFF;}
</style>
<rect width="512" height="512"/>
<path class="st0" d="M421.5698547,267.7696228L305.290741,384.0487061
	c-10.3820496,10.3820801-28.3776245,3.114624-28.3776245-11.7663269v-66.4452209h-94.130722
	c-9.2054291,0-16.6112976-7.4058533-16.6112976-16.6112976v-66.4451904c0-9.2054291,7.4058685-16.6112976,16.6112976-16.6112976
	h94.130722v-66.4452057c0-14.8117447,17.9263306-22.148407,28.3776245-11.7663422l116.2791138,116.2791138
	C428.0067139,250.7430267,428.0067139,261.2635193,421.5698547,267.7696228z M210.4678955,380.5880127v-27.6854858
	c0-4.5681152-3.7375336-8.3056641-8.3056488-8.3056641h-58.1395569c-12.250824,0-22.1483994-9.8975525-22.1483994-22.1483765
	V189.5580597c0-12.250824,9.8975754-22.1483917,22.1483994-22.1483917h58.1395569
	c4.5681152,0,8.3056488-3.7375488,8.3056488-8.3056488v-27.6855011c0-4.5681076-3.7375336-8.3056564-8.3056488-8.3056564
	h-58.1395569c-36.6832809,0-66.4451981,29.7619095-66.4451981,66.4451981v132.8904266
	c0,36.6832886,29.7619171,66.4451904,66.4451981,66.4451904h58.1395569
	C206.7303619,388.8936768,210.4678955,385.1561279,210.4678955,380.5880127z"/>
</svg>
