<?xml version="1.0" encoding="utf-8"?>
<!-- Generator: Adobe Illustrator 21.1.0, SVG Export Plug-In . SVG Version: 6.00 Build 0)  -->
<svg version="1.1" id="Calque_1" xmlns="http://www.w3.org/2000/svg" xmlns:xlink="http://www.w3.org/1999/xlink" x="0px" y="0px"
	 viewBox="0 0 500 500" style="enable-background:new 0 0 500 500;" xml:space="preserve">
<style type="text/css">
	.st0{fill:#293133;}
	.st1{fill:#FFFFFF;}
</style>
<g>
	<circle class="st0" cx="250" cy="250" r="250"/>
</g>
<g>
	<path class="st1" d="M161.8,161.8v-53.2H333v43.2L275.8,217c22.4,3.7,39.7,13.1,52,28.2c12.3,15.1,18.4,32.5,18.4,52.2
		c0,29.3-9.9,52.3-29.8,69c-19.9,16.7-45.3,25-76.2,25c-30.9,0-62.3-10.9-94-32.8l25.6-49.6c26.4,18.7,50,28,70.8,28
		c12.5,0,22.9-3.1,31-9.2c8.1-6.1,12.2-15,12.2-26.6s-4.7-20.8-14-27.6c-9.3-6.8-22.3-10.2-38.8-10.2c-8.8,0-21.2,2.5-37.2,7.6v-46
		l53.6-63.2H161.8z"/>
</g>
</svg>
