<?xml version="1.0" encoding="utf-8"?>
<!-- Generator: Adobe Illustrator 21.1.0, SVG Export Plug-In . SVG Version: 6.00 Build 0)  -->
<svg version="1.1" id="Calque_1" xmlns="http://www.w3.org/2000/svg" xmlns:xlink="http://www.w3.org/1999/xlink" x="0px" y="0px"
	 viewBox="0 0 500 500" style="enable-background:new 0 0 500 500;" xml:space="preserve">
<style type="text/css">
	.st0{fill:#293133;}
	.st1{fill:#FFFFFF;}
</style>
<g>
	<circle class="st0" cx="250" cy="250" r="250"/>
</g>
<g>
	<path class="st1" d="M265.6,159c-17.3,0-30.7,5.8-40.2,17.4c-9.5,11.6-15.3,27.4-17.4,47.4c17.3-11.2,35.7-16.8,55.2-16.8
		c26.1,0,47.9,8.5,65.4,25.6c17.5,17.1,26.2,39.8,26.2,68.2c0,28.4-9.4,51.1-28.2,68.2c-18.8,17.1-42.5,25.6-71,25.6
		c-19.7,0-36.9-3.8-51.4-11.4c-14.5-7.6-25.8-18.2-33.8-31.8c-16-26.4-24-59.5-24-99.2c0-25.6,3.1-48.1,9.4-67.4
		c6.3-19.3,14.9-34.6,25.8-45.8c21.3-22.4,47.7-33.6,79.2-33.6c13.1,0,25.5,1.9,37.4,5.8c11.9,3.9,21,7.8,27.4,11.8
		c6.4,4,13.5,9.1,21.2,15.2l-29.6,44c-1.6-1.6-3.9-3.7-7-6.4c-3.1-2.7-9.1-6.1-18.2-10.4C282.9,161.1,274.1,159,265.6,159z
		 M257.4,259.8c-12.4,0-22.8,3.7-31.2,11c-8.4,7.3-12.6,16.9-12.6,28.6c0,11.7,4,21.8,12,30.2c8,8.4,18,12.6,30,12.6s22-3.7,30-11.2
		c8-7.5,12-17.1,12-29c0-11.9-3.6-21.9-10.8-30C279.6,263.9,269.8,259.8,257.4,259.8z"/>
</g>
</svg>
