<?xml version="1.0" encoding="utf-8"?>
<!-- Generator: Adobe Illustrator 21.1.0, SVG Export Plug-In . SVG Version: 6.00 Build 0)  -->
<svg version="1.1" id="Calque_1" xmlns="http://www.w3.org/2000/svg" xmlns:xlink="http://www.w3.org/1999/xlink" x="0px" y="0px"
	 viewBox="0 0 500 500" style="enable-background:new 0 0 500 500;" xml:space="preserve">
<style type="text/css">
	.st0{fill:#293133;}
	.st1{fill:#FFFFFF;}
</style>
<g>
	<circle class="st0" cx="250" cy="250" r="250"/>
</g>
<g>
	<path class="st1" d="M180.6,127.4c18.5-14.7,41.7-22,69.4-22c27.7,0,50.8,7.3,69.2,22c18.4,14.7,27.6,32.7,27.6,54.2
		c0,21.5-8.3,39.9-24.8,55.4c23.2,17.9,34.8,41.3,34.8,70.4c0,24.5-9.9,45.2-29.6,62c-19.7,16.8-45.5,25.2-77.2,25.2
		c-31.7,0-57.5-8.4-77.2-25.2c-19.7-16.8-29.6-37.5-29.6-62c0-29.1,11.6-52.5,34.8-70.4c-16.8-15.7-25.2-34.3-25.2-55.6
		C152.8,160.1,162.1,142.1,180.6,127.4z M219.6,333.2c9.3,6.3,19.5,9.4,30.4,9.4c10.9,0,21.1-3.1,30.4-9.4c9.3-6.3,14-15.4,14-27.4
		s-4.5-21.2-13.6-27.6c-9.1-6.4-19.3-9.6-30.8-9.6c-11.5,0-21.7,3.2-30.8,9.6c-9.1,6.4-13.6,15.6-13.6,27.6S210.3,326.9,219.6,333.2
		z M223.4,211c7.6,6.4,16.5,9.6,26.6,9.6c10.1,0,19-3.2,26.6-9.6c7.6-6.4,11.4-14.3,11.4-23.8c0-9.5-3.7-17.4-11.2-23.8
		c-7.5-6.4-16.4-9.6-26.8-9.6c-10.4,0-19.3,3.2-26.8,9.6c-7.5,6.4-11.2,14.3-11.2,23.8C212,196.7,215.8,204.6,223.4,211z"/>
</g>
</svg>
