<?xml version="1.0" encoding="utf-8"?>
<!-- Generator: Adobe Illustrator 22.1.0, SVG Export Plug-In . SVG Version: 6.00 Build 0)  -->
<svg version="1.1" id="Calque_1" xmlns="http://www.w3.org/2000/svg" xmlns:xlink="http://www.w3.org/1999/xlink" x="0px" y="0px"
	 viewBox="0 0 500 500" style="enable-background:new 0 0 500 500;" xml:space="preserve">
<style type="text/css">
	.st0{fill:#293133;}
	.st1{fill:#FFFFFF;}
</style>
<g>
	<circle class="st0" cx="250" cy="250" r="250"/>
</g>
<g>
	<path class="st1" d="M75.3,111.8h113.2v279.6h-60V165H75.3V111.8z"/>
	<path class="st1" d="M341.1,394.6c-38.7,0-67.6-13.1-86.8-39.4c-19.2-26.3-28.8-61.3-28.8-105.2c0-43.9,9.6-78.9,28.8-105.2
		c19.2-26.3,48.1-39.4,86.8-39.4c38.7,0,67.6,13.1,86.8,39.4c19.2,26.3,28.8,61.3,28.8,105.2c0,43.9-9.6,78.9-28.8,105.2
		C408.7,381.5,379.8,394.6,341.1,394.6z M299.9,182.6c-8.8,17.1-13.2,39.6-13.2,67.6s4.4,50.5,13.2,67.6
		c8.8,17.1,22.5,25.6,41.2,25.6c18.7,0,32.4-8.5,41.2-25.6c8.8-17.1,13.2-39.6,13.2-67.6s-4.4-50.5-13.2-67.6
		c-8.8-17.1-22.5-25.6-41.2-25.6C322.4,157,308.7,165.5,299.9,182.6z"/>
</g>
</svg>
