<?xml version="1.0" encoding="utf-8"?>
<!-- Generator: Adobe Illustrator 24.0.2, SVG Export Plug-In . SVG Version: 6.00 Build 0)  -->
<svg version="1.1" id="Calque_1" xmlns="http://www.w3.org/2000/svg" xmlns:xlink="http://www.w3.org/1999/xlink" x="0px" y="0px"
	 viewBox="0 0 857.1 1000" style="enable-background:new 0 0 857.1 1000;" xml:space="preserve">
<style type="text/css">
	.st0{fill:#6C3657;}
</style>
<path class="st0" d="M668,571.4h-60.9c-19.5,0-35.7-16.2-35.7-35.7v-71.4c0-19.5,16.2-35.7,35.7-35.7H668c-24-80.4-87.6-144-168-168
	v60.8c0,19.6-16.2,35.7-35.7,35.7h-71.4c-19.6,0-35.8-16.1-35.8-35.7v-60.8c-80.3,24-143.9,87.6-167.9,168H250
	c19.5,0,35.7,16.2,35.7,35.7v71.4c0,19.5-16.2,35.7-35.7,35.7h-60.8c24,80.4,87.6,144,167.9,168v-60.8c0-19.6,16.2-35.7,35.8-35.7
	h71.4c19.5,0,35.7,16.1,35.7,35.7v60.8C580.4,715.4,644,651.8,668,571.4z M857.1,464.3v71.4c0,19.5-16.1,35.7-35.7,35.7h-79.8
	C714.3,691.4,620,785.7,500,813.1v79.8c0,19.5-16.2,35.7-35.7,35.7h-71.4c-19.6,0-35.8-16.2-35.8-35.7v-79.8
	c-119.9-27.4-214.2-121.7-241.6-241.7H35.7C16.2,571.4,0,555.2,0,535.7v-71.4c0-19.5,16.2-35.7,35.7-35.7h79.8
	c27.4-120,121.7-214.3,241.6-241.7v-79.8c0-19.5,16.2-35.7,35.8-35.7h71.4c19.5,0,35.7,16.2,35.7,35.7v79.8
	c120,27.4,214.3,121.7,241.6,241.7h79.8C841,428.6,857.1,444.8,857.1,464.3z"/>
</svg>
