<?xml version="1.0" encoding="utf-8"?>
<!-- Generator: Adobe Illustrator 24.3.0, SVG Export Plug-In . SVG Version: 6.00 Build 0)  -->
<svg version="1.1" id="Calque_1" xmlns="http://www.w3.org/2000/svg" xmlns:xlink="http://www.w3.org/1999/xlink" x="0px" y="0px"
	 viewBox="0 0 300 300" style="enable-background:new 0 0 300 300;" xml:space="preserve">
<style type="text/css">
	.st0{fill:#640038;}
	.st1{fill:#FFFFFF;}
</style>
<rect class="st0" width="300" height="300"/>
<g>
	<g>
		<path class="st1" d="M161.1,232.6l-11.1-6.4l25.4-44.5h38.1c7,0,12.7-5.7,12.7-12.7V92.8c0-7-5.7-12.7-12.7-12.7H86.4
			c-7,0-12.7,5.7-12.7,12.7v76.3c0,7,5.7,12.7,12.7,12.7h57.2v12.7H86.4c-14,0-25.4-11.4-25.4-25.4V92.8c0-14,11.4-25.4,25.4-25.4
			h127.1c14,0,25.4,11.4,25.4,25.4v76.3c0,14-11.4,25.4-25.4,25.4h-30.8L161.1,232.6z"/>
		<path class="st1" d="M99.1,105.5h101.7v12.7H99.1V105.5z M99.1,143.6h63.6v12.7H99.1V143.6z"/>
	</g>
</g>
</svg>
