<?xml version="1.0" encoding="utf-8"?>
<!-- Generator: Adobe Illustrator 24.3.0, SVG Export Plug-In . SVG Version: 6.00 Build 0)  -->
<svg version="1.1" id="Calque_1" xmlns="http://www.w3.org/2000/svg" xmlns:xlink="http://www.w3.org/1999/xlink" x="0px" y="0px"
	 viewBox="0 0 207 300" style="enable-background:new 0 0 207 300;" xml:space="preserve">
<style type="text/css">
	.st0{fill:#640038;}
</style>
<path class="st0" d="M103.8,206c31,0,56.2-25.1,56.2-56.2V56.2c0-31-25.1-56.2-56.2-56.2S47.6,25.1,47.6,56.2v93.6
	C47.6,180.9,72.7,206,103.8,206z M197.4,112.4h-9.3c-5.2,0-9.4,4.2-9.4,9.4v28c0,43.9-37.8,79-82.5,74.6c-39-3.9-67.5-38.8-67.5-78
	v-24.8c0-5.2-4.2-9.4-9.4-9.4H9.8c-5.2,0-9.4,4.2-9.4,9.4v23.5c0,52.5,37.5,99.2,89.1,106.5v20.1H56.7c-5.2,0-9.4,4.2-9.4,9.4v9.4
	c0,5.2,4.2,9.4,9.4,9.4h93.6c5.2,0,9.4-4.2,9.4-9.4v-9.4c0-5.2-4.2-9.4-9.4-9.4h-32.7v-19.7c50.1-6.9,89.1-49.9,89.1-102.1v-28.2
	C206.8,116.6,202.6,112.4,197.4,112.4z"/>
</svg>
