<?xml version="1.0" encoding="utf-8"?>
<!-- Generator: Adobe Illustrator 26.2.1, SVG Export Plug-In . SVG Version: 6.00 Build 0)  -->
<svg version="1.1" id="Calque_1" xmlns="http://www.w3.org/2000/svg" xmlns:xlink="http://www.w3.org/1999/xlink" x="0px" y="0px"
	 viewBox="0 0 1792 1792" style="enable-background:new 0 0 1792 1792;" xml:space="preserve">
<style type="text/css">
	.st0{fill:#F8F8F8;}
	.st1{fill:#E3E3E3;}
	.st2{fill:#6C3657;}
</style>
<g>
	<rect x="25" y="25" class="st0" width="1742" height="1742"/>
	<path class="st1" d="M1742,50v1692H50V50H1742 M1792,0H0v1792h1792V0L1792,0z"/>
</g>
<path class="st2" d="M1353.6,833.6v124.8c0,17.3-6.1,32.1-18.2,44.2c-12.1,12.1-26.9,18.2-44.2,18.2H500.8
	c-17.3,0-32.1-6.1-44.2-18.2c-12.1-12.1-18.2-26.9-18.2-44.2V833.6c0-17.3,6.1-32.1,18.2-44.2c12.1-12.1,26.9-18.2,44.2-18.2h790.4
	c17.3,0,32.1,6.1,44.2,18.2C1347.5,801.5,1353.6,816.3,1353.6,833.6z"/>
</svg>
