<?xml version="1.0" encoding="utf-8"?>
<!-- Generator: Adobe Illustrator 26.2.1, SVG Export Plug-In . SVG Version: 6.00 Build 0)  -->
<svg version="1.1" id="Calque_1" xmlns="http://www.w3.org/2000/svg" xmlns:xlink="http://www.w3.org/1999/xlink" x="0px" y="0px"
	 viewBox="0 0 1792 1792" style="enable-background:new 0 0 1792 1792;" xml:space="preserve">
<style type="text/css">
	.st0{fill:#F8F8F8;}
	.st1{fill:#E3E3E3;}
	.st2{fill:#6C3657;}
</style>
<g>
	<rect x="25" y="25" class="st0" width="1742" height="1742"/>
	<path class="st1" d="M1742,50v1692H50V50H1742 M1792,0H0v1792h1792V0L1792,0z"/>
</g>
<path class="st2" d="M659.3,1273.7l54.6-54.6l-141-141l-54.6,54.6v64.2h76.8v76.8H659.3z M973.1,716.9c0-8.8-4.4-13.2-13.2-13.2
	c-4,0-7.4,1.4-10.2,4.2l-325.2,325.2c-2.8,2.8-4.2,6.2-4.2,10.2c0,8.8,4.4,13.2,13.2,13.2c4,0,7.4-1.4,10.2-4.2l325.2-325.2
	C971.7,724.3,973.1,720.9,973.1,716.9z M940.7,601.7l249.6,249.6l-499.2,499.2H441.5v-249.6L940.7,601.7z M1350.5,659.3
	c0,21.2-7.4,39.2-22.2,54l-99.6,99.6L979.1,563.3l99.6-99c14.4-15.2,32.4-22.8,54-22.8c21.2,0,39.4,7.6,54.6,22.8l141,140.4
	C1343.1,620.3,1350.5,638.5,1350.5,659.3z"/>
</svg>
