<?xml version="1.0" encoding="utf-8"?>
<!-- Generator: Adobe Illustrator 24.3.0, SVG Export Plug-In . SVG Version: 6.00 Build 0)  -->
<svg version="1.1" id="Calque_1" xmlns="http://www.w3.org/2000/svg" xmlns:xlink="http://www.w3.org/1999/xlink" x="0px" y="0px"
	 viewBox="0 0 857.1 1000" style="enable-background:new 0 0 857.1 1000;" xml:space="preserve">
<style type="text/css">
	.st0{fill:#333333;}
</style>
<path class="st0" d="M661.5,674.7c0-31.9-26.4-58.2-58.2-58.2c-31.8,0-58.3,26.3-58.3,58.2s26.4,58.2,58.3,58.2
	S661.5,706.5,661.5,674.7z M312.1,325.3c0-31.8-26.4-58.2-58.2-58.2s-58.2,26.4-58.2,58.2s26.3,58.2,58.2,58.2
	S312.1,357.2,312.1,325.3z M777.9,674.7c0,96.4-78.2,174.7-174.6,174.7s-174.7-78.3-174.7-174.7S506.9,500,603.3,500
	S777.9,578.3,777.9,674.7z M734.3,179.7c0,6.4-2.3,12.3-6,17.3L247.9,837.6c-5.5,7.3-14.1,11.8-23.2,11.8H152
	c-15.9,0-29.1-13.2-29.1-29.1c0-6.4,2.3-12.3,5.9-17.3l480.4-640.7c5.5-7.3,14.1-11.8,23.2-11.8h72.8
	C721.1,150.6,734.3,163.8,734.3,179.7L734.3,179.7z M428.6,325.3c0,96.4-78.3,174.7-174.7,174.7S79.2,421.7,79.2,325.3
	s78.3-174.7,174.7-174.7S428.6,228.8,428.6,325.3L428.6,325.3z"/>
</svg>
