<?xml version="1.0" encoding="utf-8"?>
<!-- Generator: Adobe Illustrator 24.0.2, SVG Export Plug-In . SVG Version: 6.00 Build 0)  -->
<svg version="1.1" id="Calque_1" xmlns="http://www.w3.org/2000/svg" xmlns:xlink="http://www.w3.org/1999/xlink" x="0px" y="0px"
	 viewBox="0 0 785.7 1000" style="enable-background:new 0 0 785.7 1000;" xml:space="preserve">
<style type="text/css">
	.st0{fill:#6C3657;}
</style>
<path class="st0" d="M714,456.2v87.6c0,24.1-19.6,43.7-43.8,43.7H480.4v189.8c0,24.1-19.6,43.7-43.8,43.7h-87.5
	c-24.2,0-43.8-19.6-43.8-43.7V587.6H115.6c-24.2,0-43.8-19.6-43.8-43.7v-87.6c0-24.2,19.6-43.8,43.8-43.8h189.7V222.7
	c0-24.2,19.6-43.8,43.8-43.8h87.5c24.2,0,43.8,19.6,43.8,43.8v189.7h189.7C694.3,412.4,714,432,714,456.2z"/>
</svg>
