<?xml version="1.0" encoding="utf-8"?>
<!-- Generator: Adobe Illustrator 26.0.2, SVG Export Plug-In . SVG Version: 6.00 Build 0)  -->
<svg version="1.1" id="Calque_1" xmlns="http://www.w3.org/2000/svg" xmlns:xlink="http://www.w3.org/1999/xlink" x="0px" y="0px"
	 viewBox="0 0 875 1000" style="enable-background:new 0 0 875 1000;" xml:space="preserve">
<style type="text/css">
	.st0{fill:#6C3657;}
</style>
<path class="st0" d="M357.1,803.6c0,15.6,7.3,53.5-17.8,53.5H160.7C72,857.1,0,785.2,0,696.4V303.6c0-88.8,72-160.7,160.7-160.7
	h178.6c9.5,0,17.8,8.3,17.8,17.8c0,15.6,7.3,53.6-17.8,53.6H160.7c-49.1,0-89.3,40.2-89.3,89.3v392.8c0,49.1,40.2,89.3,89.3,89.3
	h160.7C335.4,785.7,357.1,782.9,357.1,803.6L357.1,803.6z M875,500c0,9.5-3.9,18.4-10.6,25.1L560.8,828.7
	c-6.7,6.7-15.6,10.6-25.1,10.6c-19.5,0-35.7-16.2-35.7-35.7V642.9H250c-19.5,0-35.7-16.2-35.7-35.8V392.9
	c0-19.6,16.2-35.8,35.7-35.8h250V196.4c0-19.5,16.2-35.7,35.7-35.7c9.5,0,18.4,3.9,25.1,10.6l303.6,303.6
	C871.1,481.6,875,490.5,875,500L875,500z"/>
</svg>
