<?xml version="1.0" encoding="utf-8"?>
<!-- Generator: Adobe Illustrator 24.3.0, SVG Export Plug-In . SVG Version: 6.00 Build 0)  -->
<svg version="1.1" id="Calque_1" xmlns="http://www.w3.org/2000/svg" xmlns:xlink="http://www.w3.org/1999/xlink" x="0px" y="0px"
	 viewBox="0 0 700 1000" style="enable-background:new 0 0 700 1000;" xml:space="preserve">
<style type="text/css">
	.st0{fill:#333333;}
</style>
<path class="st0" d="M403.9,68.1c-14.7-53.1-91.3-55.6-108,0C209.6,359.4,25,438.6,25,643.8c0,181.8,145.4,328.9,325,328.9
	s325-147.1,325-328.9C675,437.5,490.7,360.7,403.9,68.1z M350,854.6c-114,0-206.8-92.8-206.8-206.8c0-16.3,13.2-29.6,29.6-29.6
	s29.6,13.2,29.6,29.6c0,81.4,66.3,147.8,147.8,147.8c16.3,0,29.6,13.2,29.6,29.6S366.3,854.6,350,854.6z"/>
</svg>
