<?xml version="1.0" encoding="utf-8"?>
<!-- Generator: Adobe Illustrator 23.0.2, SVG Export Plug-In . SVG Version: 6.00 Build 0)  -->
<svg version="1.1" id="Calque_1" xmlns="http://www.w3.org/2000/svg" xmlns:xlink="http://www.w3.org/1999/xlink" x="0px" y="0px"
	 viewBox="0 0 2048 2048" style="enable-background:new 0 0 2048 2048;" xml:space="preserve">
<style type="text/css">
	.st0{fill:url(#SVGID_1_);}
	.st1{fill:#DCDCDC;}
	.st2{fill:#333333;stroke:#333333;}
	.st3{fill:#333333;}
</style>
<g>
	
		<linearGradient id="SVGID_1_" gradientUnits="userSpaceOnUse" x1="1024" y1="487.5" x2="1024" y2="-1535.5" gradientTransform="matrix(1 0 0 1 0 1548)">
		<stop  offset="0" style="stop-color:#E8E8E8"/>
		<stop  offset="1" style="stop-color:#F9F9F9"/>
	</linearGradient>
	<path class="st0" d="M50,2035.5c-20.7000008,0-37.5-16.8000488-37.5-37.5V50c0-20.7000008,16.7999992-37.5,37.5-37.5h1948
		c20.6999512,0,37.5,16.7999992,37.5,37.5v1948c0,20.6999512-16.8000488,37.5-37.5,37.5H50z"/>
	<path class="st1" d="M1998,25c13.8000488,0,25,11.2000008,25,25v1948c0,13.8000488-11.1999512,25-25,25H50
		c-13.7999992,0-25-11.1999512-25-25V50c0-13.7999992,11.2000008-25,25-25H1998 M1998,0H50C22.5,0,0,22.5,0,50v1948
		c0,27.5,22.5,50,50,50h1948c27.5,0,50-22.5,50-50V50C2048,22.5,2025.5,0,1998,0L1998,0z"/>
</g>
<g>
	<path class="st2" d="M624.1500244,1624.1999512h28.1999512c3,0,5.5,0.6999512,7.4000244,2.1999512
		c1.8999634,1.5,3.2999878,3.4000244,4.2999878,5.6999512L708.25,1746.7998047
		c1.5,3.6999512,2.9000244,7.8000488,4.2000122,12.3000488s2.6000366,9.1999512,3.7999878,14.0999756
		c2-10,4.5-18.8000488,7.4000244-26.4000244L767.75,1632.0998535c0.7999878-2,2.2000122-3.8000488,4.2000122-5.5
		c2-1.5999756,4.5-2.5,7.3999634-2.5h28.2000732l-75.9000244,188h-31.5999756L624.1500244,1624.1999512z"/>
	<path class="st2" d="M864.5499878,1676.6999512c8.3999634,0,16.1000366,1.3000488,23.2000122,4
		s13.2000122,6.5999756,18.2999878,11.8000488c5.1000366,5.1999512,9.1000366,11.5,12,19s4.2999878,16.0999756,4.2999878,25.6999512
		c0,2.4000244-0.0999756,4.4000244-0.2999878,6s-0.6000366,2.9000244-1.2000122,3.8000488s-1.2999878,1.5999756-2.2999878,2
		s-2.2000122,0.5999756-3.6000366,0.5999756h-82.3999634c1,13.6999512,4.6000366,23.6999512,11.1000366,30.1999512
		c6.3999634,6.4000244,14.8999634,9.5999756,25.5,9.5999756c5.1999512,0,9.6999512-0.5999756,13.5-1.8000488
		c3.7999268-1.1999512,7.0999756-2.5999756,9.8999634-4c2.7999878-1.5,5.2999878-2.8000488,7.3999634-4
		c2.1000366-1.1999512,4.2000732-1.8000488,6.2000732-1.8000488c1.2999268,0,2.3999634,0.3000488,3.3999634,0.8000488
		s1.7999878,1.3000488,2.5,2.1999512l9.3999634,11.6999512c-3.5999756,4.1999512-7.5,7.6999512-12,10.5
		c-4.3999634,2.8000488-9,5.0999756-13.7999268,6.8000488c-4.8000488,1.6999512-9.7000732,2.9000244-14.7000732,3.5999756
		s-9.7999268,1-14.5,1c-9.2999268,0-17.8999634-1.5-25.8999634-4.5999756s-14.8999634-7.5999756-20.7999878-13.6999512
		c-5.9000244-6-10.5-13.5-13.9000244-22.4000244c-3.3999634-8.9000244-5.0999756-19.1999512-5.0999756-30.9000244
		c0-9.0999756,1.5-17.6999512,4.4000244-25.6999512c2.8999634-8,7.1999512-15,12.6999512-20.9000244
		s12.2000732-10.5999756,20.1000366-14.0999756C845.6500244,1678.5,854.5499878,1676.6999512,864.5499878,1676.6999512z
		 M865.1500244,1699.6999512c-9.4000244,0-16.7000732,2.5999756-22,7.9000244
		c-5.3000488,5.3000488-8.7000732,12.8000488-10.1000366,22.5h60.2999878c0-4.1999512-0.5999756-8.0999756-1.7000122-11.8000488
		c-1.1000366-3.6999512-2.8999634-6.9000244-5.2000122-9.6999512c-2.2999878-2.8000488-5.2999878-5-8.7999878-6.5999756
		C874.1500244,1700.5,869.9499512,1699.6999512,865.1500244,1699.6999512z"/>
	<path class="st2" d="M948.3499756,1812.1999512v-133.4000244h19.5999756c4.2000732,0,6.9000244,1.9000244,8.2000732,5.8000488
		l2.1999512,10.5c2.7000732-2.8000488,5.5-5.3000488,8.5-7.5c3-2.3000488,6.2000732-4.1999512,9.5-5.9000244
		c3.3000488-1.5999756,6.9000244-2.9000244,10.7000732-3.8000488c3.7999268-0.9000244,8-1.3000488,12.5-1.3000488
		c7.2999268,0,13.6999512,1.1999512,19.4000244,3.6999512c5.5999756,2.5,10.2999268,5.9000244,14.0999756,10.4000244
		c3.7999268,4.5,6.5999756,9.8000488,8.5999756,16c1.9000244,6.1999512,2.9000244,13,2.9000244,20.5v84.9000244h-32.0999756
		v-84.9000244c0-8.0999756-1.9000244-14.5-5.7000732-18.9000244c-3.7999268-4.5-9.4000244-6.6999512-17-6.6999512
		c-5.5,0-10.6999512,1.3000488-15.5999756,3.8000488s-9.4000244,5.9000244-13.7999268,10.3000488v96.5H948.3499756z"/>
	<path class="st2" d="M1139.9499512,1814.3000488c-11.5,0-20.4000244-3.3000488-26.6999512-9.8000488
		c-6.2000732-6.5-9.4000244-15.5999756-9.4000244-27.0999756v-74.5h-13.5c-1.7000732,0-3.2000732-0.5999756-4.5-1.6999512
		c-1.3000488-1.0999756-1.9000244-2.8000488-1.9000244-5.0999756v-12.6999512l21.5-3.5l6.7999268-36.4000244
		c0.3000488-1.6999512,1.0999756-3.0999756,2.4000244-4c1.3000488-1,2.8000488-1.4000244,4.7000732-1.4000244h16.5999756v42
		h35.0999756v22.9000244h-35.0999756v72.3000488c0,4.1999512,1,7.4000244,3.0999756,9.8000488
		c2.0999756,2.3000488,4.9000244,3.5,8.2999268,3.5c2,0,3.7000732-0.1999512,5-0.6999512c1.3000488-0.5,2.5-1,3.5-1.5
		s1.9000244-1,2.7000732-1.5c0.7999268-0.5,1.5999756-0.6999512,2.2999268-0.6999512c1,0,1.7000732,0.1999512,2.3000488,0.6999512
		s1.2999268,1.1999512,1.9000244,2.0999756l9.5999756,15.5999756c-4.7000732,3.9000244-10.0999756,6.8000488-16.0999756,8.8000488
		C1152.75,1813.3000488,1146.4499512,1814.3000488,1139.9499512,1814.3000488z"/>
	<path class="st2" d="M1251.9499512,1676.6999512c8.4000244,0,16.0999756,1.3000488,23.2000732,4
		c7.0999756,2.6999512,13.1999512,6.5999756,18.2999268,11.8000488c5.0999756,5.1999512,9.0999756,11.5,12,19
		s4.3000488,16.0999756,4.3000488,25.6999512c0,2.4000244-0.0999756,4.4000244-0.3000488,6
		C1309.25,1744.7999268,1308.8499756,1746.0999756,1308.25,1747s-1.3000488,1.5999756-2.3000488,2
		s-2.1999512,0.5999756-3.5999756,0.5999756h-82.4000244c1,13.6999512,4.5999756,23.6999512,11.0999756,30.1999512
		c6.4000244,6.4000244,14.9000244,9.5999756,25.5,9.5999756c5.2000732,0,9.7000732-0.5999756,13.5-1.8000488
		c3.8000488-1.1999512,7.0999756-2.5999756,9.9000244-4c2.8000488-1.5,5.3000488-2.8000488,7.4000244-4
		s4.2000732-1.8000488,6.2000732-1.8000488c1.2999268,0,2.4000244,0.3000488,3.4000244,0.8000488s1.7999268,1.3000488,2.5,2.1999512
		l9.4000244,11.6999512c-3.5999756,4.1999512-7.5,7.6999512-12,10.5c-4.4000244,2.8000488-9,5.0999756-13.8000488,6.8000488
		c-4.7999268,1.6999512-9.6999512,2.9000244-14.6999512,3.5999756s-9.8000488,1-14.5,1
		c-9.3000488,0-17.9000244-1.5-25.9000244-4.5999756s-14.9000244-7.5999756-20.8000488-13.6999512
		c-5.9000244-6-10.5-13.5-13.9000244-22.4000244s-5.0999756-19.1999512-5.0999756-30.9000244
		c0-9.0999756,1.5-17.6999512,4.4000244-25.6999512s7.2000732-15,12.7000732-20.9000244
		s12.1999512-10.5999756,20.0999756-14.0999756C1233.0500488,1678.5,1241.9499512,1676.6999512,1251.9499512,1676.6999512z
		 M1252.5500488,1699.6999512c-9.4000244,0-16.7000732,2.5999756-22,7.9000244
		c-5.3000488,5.3000488-8.7000732,12.8000488-10.0999756,22.5H1280.75c0-4.1999512-0.5999756-8.0999756-1.6999512-11.8000488
		c-1.0999756-3.6999512-2.9000244-6.9000244-5.2000732-9.6999512c-2.2999268-2.8000488-5.2999268-5-8.7999268-6.5999756
		C1261.5500488,1700.5,1257.3499756,1699.6999512,1252.5500488,1699.6999512z"/>
	<path class="st2" d="M1414.9499512,1704.8000488c-0.9000244,1.4000244-1.7999268,2.4000244-2.6999512,2.9000244
		c-1,0.5999756-2.2000732,0.8000488-3.5999756,0.8000488c-1.5999756,0-3.2000732-0.4000244-5-1.3000488
		c-1.8000488-0.9000244-3.8000488-1.8000488-6.2000732-2.9000244c-2.2999268-1.0999756-5-2.0999756-8-2.9000244
		c-3-0.9000244-6.5-1.3000488-10.5999756-1.3000488c-6.2999268,0-11.2999268,1.3000488-14.9000244,4
		c-3.5999756,2.6999512-5.5,6.1999512-5.5,10.5c0,2.9000244,0.9000244,5.3000488,2.8000488,7.1999512
		c1.9000244,2,4.2999268,3.6999512,7.4000244,5.0999756c3.0999756,1.5,6.5999756,2.8000488,10.5,4s7.9000244,2.5,12,3.8000488
		c4.0999756,1.4000244,8.0999756,3,12,4.6999512c3.9000244,1.8000488,7.4000244,4,10.5,6.8000488
		c3.0999756,2.6999512,5.5,6,7.4000244,9.8000488s2.7999268,8.4000244,2.7999268,13.8000488
		c0,6.4000244-1.1999512,12.3000488-3.5,17.6999512c-2.2999268,5.4000244-5.7999268,10.0999756-10.2999268,14
		s-10.0999756,7-16.7000732,9.1999512C1386.75,1812.8999023,1379.1500244,1814,1370.5500488,1814
		c-4.5999756,0-9.0999756-0.4000244-13.5-1.1999512c-4.4000244-0.8000488-8.5999756-2-12.5999756-3.4000244
		c-4-1.5-7.8000488-3.1999512-11.2000732-5.1999512s-6.4000244-4.1999512-9-6.5l7.4000244-12.1999512
		c1-1.5,2.0999756-2.5999756,3.4000244-3.4000244s2.9000244-1.1999512,4.9000244-1.1999512s3.9000244,0.5999756,5.7000732,1.6999512
		c1.7999268,1.0999756,3.7999268,2.3000488,6.1999512,3.5999756s5.0999756,2.5,8.3000488,3.5999756
		c3.1999512,1.0999756,7.1999512,1.6999512,12,1.6999512c3.7999268,0,7.0999756-0.5,9.7999268-1.4000244
		c2.7000732-0.9000244,5-2.0999756,6.8000488-3.5999756c1.7999268-1.5,3.0999756-3.1999512,3.9000244-5.0999756
		c0.7999268-2,1.1999512-4,1.1999512-6c0-3.0999756-0.9000244-5.6999512-2.7999268-7.6999512
		c-1.9000244-2-4.3000488-3.6999512-7.4000244-5.1999512s-6.5999756-2.8000488-10.5-4s-8-2.4000244-12.0999756-3.8000488
		s-8.0999756-3-12.0999756-4.9000244c-3.9000244-1.9000244-7.5-4.1999512-10.5-7.0999756
		c-3.0999756-2.9000244-5.5-6.4000244-7.4000244-10.5c-1.9000244-4.1999512-2.8000488-9.1999512-2.8000488-15.0999756
		c0-5.5,1.0999756-10.6999512,3.2000732-15.5999756c2.1999512-4.9000244,5.4000244-9.1999512,9.5999756-12.9000244
		c4.1999512-3.6999512,9.4000244-6.5999756,15.6999512-8.8000488c6.3000488-2.1999512,13.5-3.3000488,21.8000488-3.3000488
		c9.1999512,0,17.5999756,1.5,25.0999756,4.5s13.7999268,7,18.9000244,12L1414.9499512,1704.8000488z"/>
</g>
<path class="st3" d="M755.2000122,763.2000122v358.3999634H576V763.2000122H755.2000122z M1024,404.7999878v716.7999878H844.7999878
	V404.7999878H1024z M1740.8000488,1211.1999512v89.5999756H307.2000122V225.6000061h89.6000061v985.5999756H1740.8000488z
	 M1292.8000488,584v537.5999756h-179.1999512V584H1292.8000488z M1561.5999756,315.2000122v806.4000854h-179.1999512V315.2000122
	H1561.5999756z"/>
</svg>
