<?xml version="1.0" encoding="utf-8"?>
<!-- Generator: Adobe Illustrator 24.3.0, SVG Export Plug-In . SVG Version: 6.00 Build 0)  -->
<svg version="1.1" id="Calque_1" xmlns="http://www.w3.org/2000/svg" xmlns:xlink="http://www.w3.org/1999/xlink" x="0px" y="0px"
	 viewBox="0 0 1000 700" style="enable-background:new 0 0 1000 700;" xml:space="preserve">
<style type="text/css">
	.st0{fill:#333333;}
</style>
<path class="st0" d="M805.0999756,392.7000122C805.0999756,406,794,417.1000061,780.6999512,417.1000061h-85.4000244
	c0,47.7000122-10.2999878,83.5-25.5999756,110.6000061l79.2999878,79.7000122c9.5,9.5,9.5,24.7999878,0,34.2999878
	c-4.5999756,5-11.0999756,7.2000122-17.2000122,7.2000122s-12.5999756-2.2999878-17.2000122-7.2000122l-75.5-75.0999756
	c0,0-50,45.7000122-114.7999878,45.7000122V270.7000122H475.499939v341.7000122
	c-69,0-119.3999939-50.2999878-119.3999939-50.2999878L286.3999939,641c-5,5.2999878-11.5,8-18.2999878,8
	c-5.7000122,0-11.3999939-1.9000244-16.3999939-6.0999756c-9.8999939-9.2000122-10.6999969-24.4000244-1.8999939-34.7000122
	l77-86.5999756c-13.2999878-26.2999878-22.1000061-60.2000122-22.1000061-104.5h-85.3999939
	c-13.3999939,0-24.3999939-11.1000061-24.3999939-24.3999939s11-24.3999939,24.3999939-24.3999939h85.3999939V256.2000122
	l-66-65.8999939c-9.5-9.6000061-9.5-24.8000031,0-34.3000031s24.7999878-9.6000061,34.3999939,0L339,221.9000244h321.9000244
	l65.9000244-65.8999939c9.5999756-9.6000061,24.7999878-9.6000061,34.2999878,0s9.5999756,24.6999969,0,34.3000031
	l-65.9000244,65.9000092v112.1000061h85.4000244C794,368.2999878,805.0999756,379.3999939,805.0999756,392.7000122z
	 M622.0999756,173.1000061H377.8999939C377.8999939,105.5,432.5,51,500,51S622.0999756,105.5,622.0999756,173.1000061z"/>
</svg>
