<?xml version="1.0" encoding="utf-8"?>
<!-- Generator: Adobe Illustrator 24.3.0, SVG Export Plug-In . SVG Version: 6.00 Build 0)  -->
<svg version="1.1" id="Calque_1" xmlns="http://www.w3.org/2000/svg" xmlns:xlink="http://www.w3.org/1999/xlink" x="0px" y="0px"
	 viewBox="0 0 1183.4 292" style="enable-background:new 0 0 1183.4 292;" xml:space="preserve">
<style type="text/css">
	.st0{fill:url(#SVGID_1_);}
	.st1{fill:url(#SVGID_2_);}
	.st2{fill:#FFFFFF;}
	.st3{fill:#333333;}
</style>
<g>
	
		<linearGradient id="SVGID_1_" gradientUnits="userSpaceOnUse" x1="1200.3" y1="-1140" x2="1200.3" y2="-848" gradientTransform="matrix(-1 0 0 -1 1792 -848)">
		<stop  offset="0" style="stop-color:#BBBBBB"/>
		<stop  offset="1" style="stop-color:#DCDCDC"/>
	</linearGradient>
	<path class="st0" d="M25,282c-8,0-15-7-15-15V25c0-8,7-15,15-15h1133.5c8,0,15,7,15,15v242c0,8-7,15-15,15H25z M1158.4,292
		c14,0,25-11,25-25V25c0-14-11-25-25-25H25C11,0,0,11,0,25v242c0,14,11,25,25,25H1158.4z"/>
</g>
<linearGradient id="SVGID_2_" gradientUnits="userSpaceOnUse" x1="1200.25" y1="1480" x2="1200.25" y2="1208" gradientTransform="matrix(-1 0 0 1 1792 -1198)">
	<stop  offset="0" style="stop-color:#E8E8E8"/>
	<stop  offset="1" style="stop-color:#F9F9F9"/>
</linearGradient>
<path class="st1" d="M25,282c-8,0-15-7-15-15V25c0-8,7-15,15-15h1133.5c8,0,15,7,15,15v242c0,8-7,15-15,15H25z"/>
<path class="st2" d="M110.6,202.8h66.9v-19.1h-66.9V202.8L110.6,202.8z M110.6,155h66.9v-28.7h-11.9c-4,0-7.2-3.2-7.2-7.2v-11.9
	h-47.8L110.6,155L110.6,155z M196.6,159.8c0-2.6-2.2-4.8-4.8-4.8s-4.8,2.2-4.8,4.8s2.2,4.8,4.8,4.8
	C194.5,164.5,196.6,162.4,196.6,159.8z M206.2,159.8v31.1c0,1.3-1.1,2.4-2.4,2.4h-16.7v11.9c0,4-3.2,7.2-7.2,7.2h-71.7
	c-3.9,0-7.2-3.2-7.2-7.2v-11.9H84.3c-1.3,0-2.4-1.1-2.4-2.4v-31.1c0-7.8,6.5-14.3,14.3-14.3h4.8v-40.7c0-4,3.2-7.2,7.2-7.2h50.2
	c4,0,9.4,2.2,12.2,5.1L182,114c2.8,2.8,5.1,8.3,5.1,12.2v19.1h4.8C199.7,145.4,206.2,151.9,206.2,159.8L206.2,159.8z"/>
<path class="st2" d="M1124,134.6c0,1.4-0.6,2.7-1.6,3.7l-36.8,36.8c-1,1-2.3,1.6-3.7,1.6s-2.7-0.6-3.7-1.6l-36.8-36.8
	c-1-1-1.6-2.3-1.6-3.7c0-2.9,2.4-5.3,5.2-5.3h73.5C1121.6,129.4,1124,131.8,1124,134.6z"/>
<path class="st3" d="M100.6,192.8h66.9v-19.1h-66.9V192.8L100.6,192.8z M100.6,145h66.9v-28.7h-11.9c-4,0-7.2-3.2-7.2-7.2V97.2
	h-47.8L100.6,145L100.6,145z M186.6,149.8c0-2.6-2.2-4.8-4.8-4.8s-4.8,2.2-4.8,4.8s2.2,4.8,4.8,4.8
	C184.5,154.5,186.6,152.4,186.6,149.8z M196.2,149.8v31.1c0,1.3-1.1,2.4-2.4,2.4h-16.7v11.9c0,4-3.2,7.2-7.2,7.2H98.2
	c-3.9,0-7.2-3.2-7.2-7.2v-11.9H74.3c-1.3,0-2.4-1.1-2.4-2.4v-31.1c0-7.8,6.5-14.3,14.3-14.3H91V94.8c0-4,3.2-7.2,7.2-7.2h50.2
	c4,0,9.4,2.2,12.2,5.1L172,104c2.8,2.8,5.1,8.3,5.1,12.2v19.1h4.8C189.7,135.4,196.2,141.9,196.2,149.8L196.2,149.8z"/>
<path class="st3" d="M1114,124.6c0,1.4-0.6,2.7-1.6,3.7l-36.8,36.8c-1,1-2.3,1.6-3.7,1.6s-2.7-0.6-3.7-1.6l-36.8-36.8
	c-1-1-1.6-2.3-1.6-3.7c0-2.9,2.4-5.3,5.2-5.3h73.5C1111.6,119.4,1114,121.8,1114,124.6z"/>
<g>
	<path class="st2" d="M370,152.8c0,7.4-1.2,14.2-3.7,20.4c-2.5,6.2-6,11.5-10.4,16s-9.9,8-16.2,10.4c-6.3,2.5-13.3,3.7-20.9,3.7
		h-38.6V102.2h38.6c7.7,0,14.6,1.2,20.9,3.7c6.3,2.5,11.7,6,16.2,10.4c4.5,4.5,8,9.8,10.4,16C368.7,138.6,370,145.4,370,152.8z
		 M350.7,152.8c0-5.6-0.7-10.5-2.2-14.9c-1.5-4.4-3.6-8.1-6.4-11.2c-2.8-3.1-6.1-5.4-10-7c-3.9-1.6-8.4-2.5-13.3-2.5h-19.7v71.3
		h19.7c4.9,0,9.4-0.8,13.3-2.5c3.9-1.6,7.3-4,10-7c2.8-3.1,4.9-6.8,6.4-11.2C350,163.3,350.7,158.3,350.7,152.8z"/>
	<path class="st2" d="M414.4,130.5c5.4,0,10.2,0.9,14.6,2.6c4.4,1.7,8.1,4.2,11.2,7.4c3.1,3.2,5.5,7,7.1,11.6
		c1.7,4.6,2.5,9.7,2.5,15.3c0,5.7-0.8,10.8-2.5,15.4c-1.7,4.6-4.1,8.5-7.1,11.7c-3.1,3.2-6.8,5.7-11.2,7.4
		c-4.4,1.7-9.2,2.6-14.6,2.6c-5.4,0-10.2-0.9-14.6-2.6c-4.4-1.7-8.1-4.2-11.2-7.4c-3.1-3.2-5.5-7.1-7.2-11.7
		c-1.7-4.6-2.6-9.7-2.6-15.4c0-5.6,0.9-10.8,2.6-15.3c1.7-4.6,4.1-8.4,7.2-11.6c3.1-3.2,6.8-5.6,11.2-7.4
		C404.2,131.3,409.1,130.5,414.4,130.5z M414.4,191.1c6,0,10.4-2,13.3-6c2.9-4,4.3-9.9,4.3-17.6c0-7.7-1.4-13.6-4.3-17.7
		s-7.3-6.1-13.3-6.1c-6.1,0-10.5,2-13.4,6.1c-2.9,4.1-4.3,10-4.3,17.7c0,7.7,1.4,13.6,4.3,17.6C403.9,189.1,408.4,191.1,414.4,191.1
		z"/>
	<path class="st2" d="M513.8,146.8c-0.5,0.7-1,1.2-1.5,1.5c-0.5,0.4-1.2,0.6-2.1,0.6c-0.9,0-1.8-0.3-2.6-0.8c-0.8-0.5-1.8-1.1-3-1.8
		c-1.2-0.7-2.6-1.3-4.2-1.8c-1.6-0.5-3.6-0.8-6-0.8c-3,0-5.7,0.5-8,1.6c-2.3,1.1-4.2,2.7-5.7,4.7c-1.5,2.1-2.6,4.5-3.4,7.5
		c-0.7,2.9-1.1,6.2-1.1,9.9c0,3.8,0.4,7.2,1.2,10.2c0.8,3,2,5.5,3.5,7.5c1.5,2,3.4,3.6,5.6,4.6c2.2,1.1,4.7,1.6,7.4,1.6
		c2.8,0,5-0.3,6.7-1c1.7-0.7,3.1-1.4,4.3-2.2c1.2-0.8,2.2-1.6,3-2.2c0.9-0.7,1.8-1,2.9-1c1.4,0,2.5,0.5,3.2,1.6l5,6.3
		c-1.9,2.2-4,4.1-6.2,5.6c-2.2,1.5-4.6,2.7-7,3.6c-2.4,0.9-4.9,1.6-7.5,1.9c-2.6,0.4-5.1,0.6-7.6,0.6c-4.4,0-8.6-0.8-12.5-2.5
		s-7.3-4.1-10.3-7.2c-2.9-3.2-5.2-7.1-6.9-11.7c-1.7-4.6-2.6-9.8-2.6-15.7c0-5.3,0.8-10.2,2.3-14.7c1.5-4.5,3.7-8.4,6.7-11.7
		c2.9-3.3,6.6-5.9,10.9-7.7c4.3-1.9,9.3-2.8,15-2.8c5.4,0,10.1,0.9,14.1,2.6c4,1.7,7.7,4.2,10.9,7.4L513.8,146.8z"/>
	<path class="st2" d="M546,131.6v45.6c0,4.4,1,7.8,3,10.2c2,2.4,5.1,3.6,9.1,3.6c3,0,5.8-0.7,8.4-2c2.6-1.3,5.1-3.2,7.4-5.5v-51.9
		h17.3v71.8h-10.6c-2.2,0-3.7-1-4.4-3.1l-1.2-5.7c-1.5,1.5-3,2.9-4.6,4.1c-1.6,1.2-3.3,2.3-5.1,3.1c-1.8,0.9-3.7,1.5-5.8,2
		c-2.1,0.5-4.3,0.7-6.7,0.7c-3.9,0-7.4-0.7-10.4-2c-3-1.3-5.5-3.2-7.6-5.6c-2.1-2.4-3.6-5.3-4.7-8.6c-1.1-3.3-1.6-7-1.6-11v-45.6
		H546z"/>
	<path class="st2" d="M609.7,203.4v-71.8h10.6c2.2,0,3.7,1,4.4,3.1l1.1,5.3c1.3-1.4,2.6-2.7,4-3.9c1.4-1.2,2.8-2.2,4.4-3
		c1.6-0.8,3.2-1.5,5-2c1.8-0.5,3.8-0.7,5.9-0.7c4.5,0,8.2,1.2,11.2,3.7c2.9,2.5,5.1,5.7,6.5,9.8c1.1-2.4,2.5-4.4,4.2-6.1
		c1.7-1.7,3.5-3.1,5.5-4.2c2-1.1,4.1-1.9,6.4-2.4c2.3-0.5,4.5-0.8,6.8-0.8c4,0,7.5,0.6,10.6,1.8c3.1,1.2,5.7,3,7.8,5.3
		c2.1,2.3,3.7,5.2,4.8,8.5c1.1,3.4,1.6,7.2,1.6,11.5v45.7h-17.3v-45.7c0-4.6-1-8-3-10.3c-2-2.3-4.9-3.5-8.8-3.5
		c-1.8,0-3.4,0.3-4.9,0.9c-1.5,0.6-2.8,1.5-4,2.6c-1.1,1.1-2,2.6-2.7,4.3c-0.7,1.7-1,3.7-1,6v45.7h-17.4v-45.7c0-4.8-1-8.3-2.9-10.5
		c-1.9-2.2-4.8-3.3-8.6-3.3c-2.5,0-4.8,0.6-7,1.9c-2.2,1.2-4.2,2.9-6.1,5.1v52.6H609.7z"/>
	<path class="st2" d="M757.3,130.5c4.5,0,8.7,0.7,12.5,2.2c3.8,1.4,7.1,3.6,9.8,6.3c2.8,2.8,4.9,6.2,6.4,10.2
		c1.5,4,2.3,8.6,2.3,13.8c0,1.3-0.1,2.4-0.2,3.3c-0.1,0.9-0.3,1.5-0.6,2c-0.3,0.5-0.7,0.8-1.2,1s-1.2,0.3-2,0.3H740
		c0.5,7.4,2.5,12.8,6,16.2c3.5,3.5,8,5.2,13.7,5.2c2.8,0,5.2-0.3,7.2-1c2-0.7,3.8-1.4,5.3-2.2c1.5-0.8,2.8-1.5,4-2.2
		c1.1-0.7,2.2-1,3.3-1c0.7,0,1.3,0.1,1.8,0.4c0.5,0.3,1,0.7,1.3,1.2l5,6.3c-1.9,2.2-4.1,4.1-6.4,5.6c-2.4,1.5-4.9,2.7-7.5,3.6
		s-5.2,1.6-7.9,1.9c-2.7,0.4-5.3,0.6-7.8,0.6c-5,0-9.6-0.8-13.9-2.5c-4.3-1.7-8-4.1-11.2-7.4c-3.2-3.2-5.7-7.3-7.5-12
		c-1.8-4.8-2.7-10.3-2.7-16.6c0-4.9,0.8-9.5,2.4-13.8c1.6-4.3,3.9-8.1,6.8-11.3c3-3.2,6.6-5.7,10.8-7.6
		C747.1,131.4,751.9,130.5,757.3,130.5z M757.6,142.9c-5,0-9,1.4-11.8,4.3c-2.8,2.8-4.7,6.9-5.5,12.1h32.5c0-2.2-0.3-4.4-0.9-6.3
		c-0.6-2-1.5-3.7-2.8-5.2c-1.3-1.5-2.8-2.7-4.8-3.5C762.4,143.3,760.2,142.9,757.6,142.9z"/>
	<path class="st2" d="M802.4,203.4v-71.8H813c2.2,0,3.7,1,4.4,3.1l1.2,5.7c1.4-1.5,3-2.8,4.6-4.1c1.6-1.2,3.3-2.3,5.1-3.1
		c1.8-0.9,3.7-1.6,5.8-2c2.1-0.5,4.3-0.7,6.7-0.7c3.9,0,7.4,0.7,10.4,2c3,1.3,5.6,3.2,7.6,5.6c2,2.4,3.6,5.3,4.6,8.6
		c1.1,3.3,1.6,7,1.6,11v45.7h-17.3v-45.7c0-4.4-1-7.8-3-10.2c-2-2.4-5.1-3.6-9.1-3.6c-3,0-5.8,0.7-8.4,2c-2.6,1.4-5.1,3.2-7.4,5.5
		v51.9H802.4z"/>
	<path class="st2" d="M905.6,204.5c-6.2,0-11-1.8-14.3-5.3c-3.4-3.5-5-8.4-5-14.6v-40.1h-7.3c-0.9,0-1.7-0.3-2.4-0.9
		c-0.7-0.6-1-1.5-1-2.7V134l11.5-1.9l3.6-19.6c0.2-0.9,0.6-1.7,1.3-2.2c0.7-0.5,1.5-0.8,2.6-0.8h9v22.6h18.9v12.3h-18.9v38.9
		c0,2.2,0.6,4,1.7,5.2c1.1,1.3,2.6,1.9,4.5,1.9c1.1,0,2-0.1,2.7-0.4c0.7-0.3,1.4-0.5,1.9-0.8c0.5-0.3,1-0.5,1.4-0.8
		c0.4-0.3,0.8-0.4,1.3-0.4c0.5,0,0.9,0.1,1.3,0.4c0.3,0.3,0.7,0.6,1.1,1.2l5.2,8.4c-2.5,2.1-5.4,3.7-8.7,4.8
		C912.5,204,909.1,204.5,905.6,204.5z"/>
	<path class="st2" d="M978.8,145.6c-0.5,0.7-1,1.3-1.5,1.6c-0.5,0.3-1.2,0.5-2,0.5c-0.8,0-1.7-0.2-2.7-0.7c-1-0.5-2.1-1-3.3-1.6
		c-1.3-0.6-2.7-1.1-4.3-1.6c-1.6-0.5-3.5-0.7-5.7-0.7c-3.4,0-6.1,0.7-8,2.2c-2,1.4-2.9,3.3-2.9,5.7c0,1.5,0.5,2.8,1.5,3.9
		c1,1.1,2.3,2,4,2.8c1.7,0.8,3.5,1.5,5.6,2.1c2.1,0.6,4.2,1.3,6.4,2.1c2.2,0.7,4.3,1.6,6.4,2.6c2.1,1,4,2.2,5.6,3.6
		c1.7,1.5,3,3.2,4,5.3c1,2.1,1.5,4.5,1.5,7.4c0,3.5-0.6,6.6-1.9,9.6c-1.3,2.9-3.1,5.4-5.5,7.6c-2.4,2.1-5.4,3.8-9,5
		c-3.6,1.2-7.7,1.8-12.3,1.8c-2.5,0-4.9-0.2-7.2-0.7c-2.4-0.4-4.6-1.1-6.8-1.9c-2.2-0.8-4.2-1.7-6-2.8c-1.8-1.1-3.5-2.2-4.9-3.5
		l4-6.6c0.5-0.8,1.1-1.4,1.8-1.8c0.7-0.4,1.6-0.6,2.7-0.6s2.1,0.3,3,0.9c1,0.6,2.1,1.3,3.3,2c1.3,0.7,2.7,1.4,4.4,2
		c1.7,0.6,3.9,0.9,6.5,0.9c2.1,0,3.8-0.2,5.3-0.7c1.5-0.5,2.7-1.1,3.6-1.9c1-0.8,1.7-1.7,2.1-2.8s0.7-2.1,0.7-3.3
		c0-1.7-0.5-3.1-1.5-4.1c-1-1.1-2.3-2-4-2.8c-1.7-0.8-3.5-1.5-5.7-2.1c-2.1-0.6-4.3-1.3-6.5-2.1c-2.2-0.7-4.4-1.6-6.5-2.6
		c-2.1-1-4-2.3-5.7-3.8c-1.7-1.5-3-3.4-4-5.7c-1-2.2-1.5-4.9-1.5-8.1c0-2.9,0.6-5.7,1.8-8.4c1.2-2.7,2.9-5,5.1-7
		c2.3-2,5.1-3.6,8.5-4.8c3.4-1.2,7.3-1.8,11.7-1.8c4.9,0,9.4,0.8,13.5,2.4c4.1,1.6,7.4,3.8,10.2,6.4L978.8,145.6z"/>
</g>
<g>
	<path class="st3" d="M360,142.8c0,7.4-1.2,14.2-3.7,20.4c-2.5,6.2-6,11.5-10.4,16s-9.9,8-16.2,10.4c-6.3,2.5-13.3,3.7-20.9,3.7
		h-38.6V92.2h38.6c7.7,0,14.6,1.2,20.9,3.7c6.3,2.5,11.7,6,16.2,10.4c4.5,4.5,8,9.8,10.4,16C358.7,128.6,360,135.4,360,142.8z
		 M340.7,142.8c0-5.6-0.7-10.5-2.2-14.9c-1.5-4.4-3.6-8.1-6.4-11.2c-2.8-3.1-6.1-5.4-10-7c-3.9-1.6-8.4-2.5-13.3-2.5h-19.7v71.3
		h19.7c4.9,0,9.4-0.8,13.3-2.5c3.9-1.6,7.3-4,10-7c2.8-3.1,4.9-6.8,6.4-11.2C340,153.3,340.7,148.3,340.7,142.8z"/>
	<path class="st3" d="M404.4,120.5c5.4,0,10.2,0.9,14.6,2.6c4.4,1.7,8.1,4.2,11.2,7.4c3.1,3.2,5.5,7,7.1,11.6
		c1.7,4.6,2.5,9.7,2.5,15.3c0,5.7-0.8,10.8-2.5,15.4c-1.7,4.6-4.1,8.5-7.1,11.7c-3.1,3.2-6.8,5.7-11.2,7.4
		c-4.4,1.7-9.2,2.6-14.6,2.6c-5.4,0-10.2-0.9-14.6-2.6c-4.4-1.7-8.1-4.2-11.2-7.4c-3.1-3.2-5.5-7.1-7.2-11.7
		c-1.7-4.6-2.6-9.7-2.6-15.4c0-5.6,0.9-10.8,2.6-15.3c1.7-4.6,4.1-8.4,7.2-11.6c3.1-3.2,6.8-5.6,11.2-7.4
		C394.2,121.3,399.1,120.5,404.4,120.5z M404.4,181.1c6,0,10.4-2,13.3-6c2.9-4,4.3-9.9,4.3-17.6c0-7.7-1.4-13.6-4.3-17.7
		s-7.3-6.1-13.3-6.1c-6.1,0-10.5,2-13.4,6.1c-2.9,4.1-4.3,10-4.3,17.7c0,7.7,1.4,13.6,4.3,17.6C393.9,179.1,398.4,181.1,404.4,181.1
		z"/>
	<path class="st3" d="M503.8,136.8c-0.5,0.7-1,1.2-1.5,1.5c-0.5,0.4-1.2,0.6-2.1,0.6c-0.9,0-1.8-0.3-2.6-0.8c-0.8-0.5-1.8-1.1-3-1.8
		c-1.2-0.7-2.6-1.3-4.2-1.8c-1.6-0.5-3.6-0.8-6-0.8c-3,0-5.7,0.5-8,1.6c-2.3,1.1-4.2,2.7-5.7,4.7c-1.5,2.1-2.6,4.5-3.4,7.5
		c-0.7,2.9-1.1,6.2-1.1,9.9c0,3.8,0.4,7.2,1.2,10.2c0.8,3,2,5.5,3.5,7.5c1.5,2,3.4,3.6,5.6,4.6c2.2,1.1,4.7,1.6,7.4,1.6
		c2.8,0,5-0.3,6.7-1c1.7-0.7,3.1-1.4,4.3-2.2c1.2-0.8,2.2-1.6,3-2.2c0.9-0.7,1.8-1,2.9-1c1.4,0,2.5,0.5,3.2,1.6l5,6.3
		c-1.9,2.2-4,4.1-6.2,5.6c-2.2,1.5-4.6,2.7-7,3.6c-2.4,0.9-4.9,1.6-7.5,1.9c-2.6,0.4-5.1,0.6-7.6,0.6c-4.4,0-8.6-0.8-12.5-2.5
		s-7.3-4.1-10.3-7.2c-2.9-3.2-5.2-7.1-6.9-11.7c-1.7-4.6-2.6-9.8-2.6-15.7c0-5.3,0.8-10.2,2.3-14.7c1.5-4.5,3.7-8.4,6.7-11.7
		c2.9-3.3,6.6-5.9,10.9-7.7c4.3-1.9,9.3-2.8,15-2.8c5.4,0,10.1,0.9,14.1,2.6c4,1.7,7.7,4.2,10.9,7.4L503.8,136.8z"/>
	<path class="st3" d="M536,121.6v45.6c0,4.4,1,7.8,3,10.2c2,2.4,5.1,3.6,9.1,3.6c3,0,5.8-0.7,8.4-2c2.6-1.3,5.1-3.2,7.4-5.5v-51.9
		h17.3v71.8h-10.6c-2.2,0-3.7-1-4.4-3.1l-1.2-5.7c-1.5,1.5-3,2.9-4.6,4.1c-1.6,1.2-3.3,2.3-5.1,3.1c-1.8,0.9-3.7,1.5-5.8,2
		c-2.1,0.5-4.3,0.7-6.7,0.7c-3.9,0-7.4-0.7-10.4-2c-3-1.3-5.5-3.2-7.6-5.6c-2.1-2.4-3.6-5.3-4.7-8.6c-1.1-3.3-1.6-7-1.6-11v-45.6
		H536z"/>
	<path class="st3" d="M599.7,193.4v-71.8h10.6c2.2,0,3.7,1,4.4,3.1l1.1,5.3c1.3-1.4,2.6-2.7,4-3.9c1.4-1.2,2.8-2.2,4.4-3
		c1.6-0.8,3.2-1.5,5-2c1.8-0.5,3.8-0.7,5.9-0.7c4.5,0,8.2,1.2,11.2,3.7c2.9,2.5,5.1,5.7,6.5,9.8c1.1-2.4,2.5-4.4,4.2-6.1
		c1.7-1.7,3.5-3.1,5.5-4.2c2-1.1,4.1-1.9,6.4-2.4c2.3-0.5,4.5-0.8,6.8-0.8c4,0,7.5,0.6,10.6,1.8c3.1,1.2,5.7,3,7.8,5.3
		c2.1,2.3,3.7,5.2,4.8,8.5c1.1,3.4,1.6,7.2,1.6,11.5v45.7h-17.3v-45.7c0-4.6-1-8-3-10.3s-4.9-3.5-8.8-3.5c-1.8,0-3.4,0.3-4.9,0.9
		c-1.5,0.6-2.8,1.5-4,2.6c-1.1,1.1-2,2.6-2.7,4.3c-0.7,1.7-1,3.7-1,6v45.7h-17.4v-45.7c0-4.8-1-8.3-2.9-10.5
		c-1.9-2.2-4.8-3.3-8.6-3.3c-2.5,0-4.8,0.6-7,1.9c-2.2,1.2-4.2,2.9-6.1,5.1v52.6H599.7z"/>
	<path class="st3" d="M747.3,120.5c4.5,0,8.7,0.7,12.5,2.2c3.8,1.4,7.1,3.6,9.8,6.3c2.8,2.8,4.9,6.2,6.4,10.2
		c1.5,4,2.3,8.6,2.3,13.8c0,1.3-0.1,2.4-0.2,3.3c-0.1,0.9-0.3,1.5-0.6,2c-0.3,0.5-0.7,0.8-1.2,1s-1.2,0.3-2,0.3H730
		c0.5,7.4,2.5,12.8,6,16.2c3.5,3.5,8,5.2,13.7,5.2c2.8,0,5.2-0.3,7.2-1c2-0.7,3.8-1.4,5.3-2.2c1.5-0.8,2.8-1.5,4-2.2
		c1.1-0.7,2.2-1,3.3-1c0.7,0,1.3,0.1,1.8,0.4c0.5,0.3,1,0.7,1.3,1.2l5,6.3c-1.9,2.2-4.1,4.1-6.4,5.6c-2.4,1.5-4.9,2.7-7.5,3.6
		c-2.6,0.9-5.2,1.6-7.9,1.9c-2.7,0.4-5.3,0.6-7.8,0.6c-5,0-9.6-0.8-13.9-2.5c-4.3-1.7-8-4.1-11.2-7.4c-3.2-3.2-5.7-7.3-7.5-12
		c-1.8-4.8-2.7-10.3-2.7-16.6c0-4.9,0.8-9.5,2.4-13.8c1.6-4.3,3.9-8.1,6.8-11.3c3-3.2,6.6-5.7,10.8-7.6
		C737.1,121.4,741.9,120.5,747.3,120.5z M747.6,132.9c-5,0-9,1.4-11.8,4.3c-2.8,2.8-4.7,6.9-5.5,12.1h32.5c0-2.2-0.3-4.4-0.9-6.3
		c-0.6-2-1.5-3.7-2.8-5.2c-1.3-1.5-2.8-2.7-4.8-3.5C752.4,133.3,750.2,132.9,747.6,132.9z"/>
	<path class="st3" d="M792.4,193.4v-71.8H803c2.2,0,3.7,1,4.4,3.1l1.2,5.7c1.4-1.5,3-2.8,4.6-4.1c1.6-1.2,3.3-2.3,5.1-3.1
		c1.8-0.9,3.7-1.6,5.8-2c2.1-0.5,4.3-0.7,6.7-0.7c3.9,0,7.4,0.7,10.4,2c3,1.3,5.6,3.2,7.6,5.6c2,2.4,3.6,5.3,4.6,8.6
		c1,3.3,1.6,7,1.6,11v45.7h-17.3v-45.7c0-4.4-1-7.8-3-10.2c-2-2.4-5.1-3.6-9.1-3.6c-3,0-5.8,0.7-8.4,2c-2.6,1.4-5.1,3.2-7.4,5.5
		v51.9H792.4z"/>
	<path class="st3" d="M895.6,194.5c-6.2,0-11-1.8-14.3-5.3c-3.4-3.5-5-8.4-5-14.6v-40.1h-7.3c-0.9,0-1.7-0.3-2.4-0.9
		c-0.7-0.6-1-1.5-1-2.7V124l11.5-1.9l3.6-19.6c0.2-0.9,0.6-1.7,1.3-2.2c0.7-0.5,1.5-0.8,2.6-0.8h9v22.6h18.9v12.3h-18.9v38.9
		c0,2.2,0.6,4,1.7,5.2c1.1,1.3,2.6,1.9,4.5,1.9c1.1,0,2-0.1,2.7-0.4c0.7-0.3,1.4-0.5,1.9-0.8c0.5-0.3,1-0.5,1.4-0.8
		c0.4-0.3,0.8-0.4,1.3-0.4c0.5,0,0.9,0.1,1.3,0.4c0.3,0.3,0.7,0.6,1.1,1.2l5.2,8.4c-2.5,2.1-5.4,3.7-8.7,4.8
		C902.5,194,899.1,194.5,895.6,194.5z"/>
	<path class="st3" d="M968.8,135.6c-0.5,0.7-1,1.3-1.5,1.6c-0.5,0.3-1.2,0.5-2,0.5c-0.8,0-1.7-0.2-2.7-0.7c-1-0.5-2.1-1-3.3-1.6
		c-1.3-0.6-2.7-1.1-4.3-1.6c-1.6-0.5-3.5-0.7-5.7-0.7c-3.4,0-6.1,0.7-8,2.2c-2,1.4-2.9,3.3-2.9,5.7c0,1.5,0.5,2.8,1.5,3.9
		c1,1.1,2.3,2,4,2.8c1.7,0.8,3.5,1.5,5.6,2.1c2.1,0.6,4.2,1.3,6.4,2.1c2.2,0.7,4.3,1.6,6.4,2.6c2.1,1,4,2.2,5.6,3.6
		c1.7,1.5,3,3.2,4,5.3c1,2.1,1.5,4.5,1.5,7.4c0,3.5-0.6,6.6-1.9,9.6c-1.3,2.9-3.1,5.4-5.5,7.6c-2.4,2.1-5.4,3.8-9,5
		c-3.6,1.2-7.7,1.8-12.3,1.8c-2.5,0-4.9-0.2-7.2-0.7c-2.4-0.4-4.6-1.1-6.8-1.9c-2.2-0.8-4.2-1.7-6-2.8c-1.8-1.1-3.5-2.2-4.9-3.5
		l4-6.6c0.5-0.8,1.1-1.4,1.8-1.8s1.6-0.6,2.7-0.6c1.1,0,2.1,0.3,3,0.9c1,0.6,2.1,1.3,3.3,2c1.3,0.7,2.7,1.4,4.4,2
		c1.7,0.6,3.9,0.9,6.5,0.9c2.1,0,3.8-0.2,5.3-0.7c1.5-0.5,2.7-1.1,3.6-1.9c1-0.8,1.7-1.7,2.1-2.8s0.7-2.1,0.7-3.3
		c0-1.7-0.5-3.1-1.5-4.1c-1-1.1-2.3-2-4-2.8c-1.7-0.8-3.5-1.5-5.7-2.1c-2.1-0.6-4.3-1.3-6.5-2.1c-2.2-0.7-4.4-1.6-6.5-2.6
		c-2.1-1-4-2.3-5.7-3.8c-1.7-1.5-3-3.4-4-5.7c-1-2.2-1.5-4.9-1.5-8.1c0-2.9,0.6-5.7,1.8-8.4c1.2-2.7,2.9-5,5.1-7
		c2.3-2,5.1-3.6,8.5-4.8c3.4-1.2,7.3-1.8,11.7-1.8c4.9,0,9.5,0.8,13.5,2.4c4.1,1.6,7.4,3.8,10.2,6.4L968.8,135.6z"/>
</g>
</svg>
