<?xml version="1.0" encoding="utf-8"?>
<!-- Generator: Adobe Illustrator 24.3.0, SVG Export Plug-In . SVG Version: 6.00 Build 0)  -->
<svg version="1.1" id="Calque_1" xmlns="http://www.w3.org/2000/svg" xmlns:xlink="http://www.w3.org/1999/xlink" x="0px" y="0px"
	 viewBox="0 0 1000 700" style="enable-background:new 0 0 1000 700;" xml:space="preserve">
<style type="text/css">
	.st0{fill:#333333;}
</style>
<path class="st0" d="M770.5357056,564.8659058c29.2301025,46.3217163,8.5806274,84.1325073-46.3217773,84.1325073h-448.427887
	c-54.9024048,0-75.5518646-37.810791-46.3217316-84.1325073l195.7512054-308.6953125V100.8811569h-24.9049072
	c-13.6035461,0-24.9049377-11.301384-24.9049377-24.974678s11.3013916-24.9049034,24.9049377-24.9049034h199.309021
	c13.6732788,0,24.9746704,11.301384,24.9746704,24.9049034s-11.3013916,24.974678-24.9746704,24.974678h-24.9049072v155.2894287
	L770.5357056,564.8659058z M467.2817688,282.6800232L361.383606,449.6894226h277.1630249L532.7182007,282.6800537
	l-7.8132935-12.0687561v-14.4406738V100.8811722h-49.809845v155.2894592v14.4406738L467.2817688,282.6800232z"/>
</svg>
