<?xml version="1.0" encoding="utf-8"?>
<!-- Generator: Adobe Illustrator 23.0.2, SVG Export Plug-In . SVG Version: 6.00 Build 0)  -->
<svg version="1.1" id="Calque_1" xmlns="http://www.w3.org/2000/svg" xmlns:xlink="http://www.w3.org/1999/xlink" x="0px" y="0px"
	 viewBox="0 0 195 292" style="enable-background:new 0 0 195 292;" xml:space="preserve">
<style type="text/css">
	.st0{fill:url(#SVGID_1_);}
	.st1{fill:url(#SVGID_2_);}
	.st2{fill:#333333;}
</style>
<linearGradient id="SVGID_1_" gradientUnits="userSpaceOnUse" x1="-2030.5" y1="1790" x2="-2030.5" y2="1518" gradientTransform="matrix(-1 0 0 1 -1933 -1508)">
	<stop  offset="0" style="stop-color:#E8E8E8"/>
	<stop  offset="1" style="stop-color:#F9F9F9"/>
</linearGradient>
<path class="st0" d="M10,282V10h160c8,0,15,7,15,15v242c0,8-7,15-15,15H10z"/>
<linearGradient id="SVGID_2_" gradientUnits="userSpaceOnUse" x1="-2030.5" y1="1800" x2="-2030.5" y2="1508" gradientTransform="matrix(-1 0 0 1 -1933 -1508)">
	<stop  offset="0" style="stop-color:#BBBBBB"/>
	<stop  offset="1" style="stop-color:#DCDCDC"/>
</linearGradient>
<path class="st1" d="M10,282V10h160c8,0,15,7,15,15v242c0,8-7,15-15,15H10z M170,292c14,0,25-11,25-25V25c0-14-11-25-25-25H0v292
	H170z"/>
<path class="st2" d="M54.7,100.4c-2.1-2.2-2.1-5.6,0-7.7l14.3-14.2c2.1-2.1,5.6-2.1,7.7,0l63.7,63.7c2.1,2.1,2.1,5.6,0,7.7
	l-63.7,63.7c-2.2,2.1-5.6,2.1-7.7,0l-14.3-14.3c-2.1-2.1-2.1-5.6,0-7.7l45.6-45.6L54.7,100.4L54.7,100.4z"/>
</svg>
