<?xml version="1.0" encoding="utf-8"?>
<!-- Generator: Adobe Illustrator 23.0.2, SVG Export Plug-In . SVG Version: 6.00 Build 0)  -->
<svg version="1.1" id="Calque_1" xmlns="http://www.w3.org/2000/svg" xmlns:xlink="http://www.w3.org/1999/xlink" x="0px" y="0px"
	 viewBox="0 0 195 292" style="enable-background:new 0 0 195 292;" xml:space="preserve">
<style type="text/css">
	.st0{fill:url(#SVGID_1_);}
	.st1{fill:url(#SVGID_2_);}
	.st2{fill:#333333;}
</style>
<linearGradient id="SVGID_1_" gradientUnits="userSpaceOnUse" x1="97.5" y1="-718" x2="97.5" y2="-446" gradientTransform="matrix(1 0 0 -1 0 -436)">
	<stop  offset="0" style="stop-color:#E8E8E8"/>
	<stop  offset="1" style="stop-color:#F9F9F9"/>
</linearGradient>
<path class="st0" d="M185,10v272H25c-8,0-15-7-15-15V25c0-8,7-15,15-15H185z"/>
<linearGradient id="SVGID_2_" gradientUnits="userSpaceOnUse" x1="97.5" y1="-728" x2="97.5" y2="-436" gradientTransform="matrix(1 0 0 -1 0 -436)">
	<stop  offset="0" style="stop-color:#BBBBBB"/>
	<stop  offset="1" style="stop-color:#DCDCDC"/>
</linearGradient>
<path class="st1" d="M185,10v272H25c-8,0-15-7-15-15V25c0-8,7-15,15-15H185z M25,0C11,0,0,11,0,25v242c0,14,11,25,25,25h170V0H25z"
	/>
<path class="st2" d="M140.3,100.4L94.7,146l45.6,45.6c2.1,2.2,2.1,5.6,0,7.7l-14.3,14.3c-2.1,2.1-5.6,2.1-7.7,0l-63.7-63.7
	c-2.1-2.2-2.1-5.6,0-7.7l63.7-63.7c2.2-2.1,5.6-2.1,7.7,0l14.3,14.2C142.5,94.8,142.5,98.3,140.3,100.4L140.3,100.4z"/>
</svg>
