<?xml version="1.0" encoding="utf-8"?>
<!-- Generator: Adobe Illustrator 24.3.0, SVG Export Plug-In . SVG Version: 6.00 Build 0)  -->
<svg version="1.1" id="Calque_1" xmlns="http://www.w3.org/2000/svg" xmlns:xlink="http://www.w3.org/1999/xlink" x="0px" y="0px"
	 viewBox="0 0 1000 700" style="enable-background:new 0 0 1000 700;" xml:space="preserve">
<style type="text/css">
	.st0{fill:#333333;}
</style>
<path class="st0" d="M422.2000122,453.8999939H578v-39h-52V233.1999969h-46.2000122l-60,55.5000153l31.2999878,32.5
	c9.7000122-8.5,15.7999878-13,22.2999878-23.1000061h0.7999878v116.8000183h-51.8999939L422.2000122,453.8999939
	L422.2000122,453.8999939z M629.7999878,350c0,73.7999878-44.5999756,168.7000122-129.7999878,168.7000122
	S370.2000122,423.7999878,370.2000122,350S414.7999878,181.3000031,500,181.3000031S629.7999878,276.2000122,629.7999878,350z
	 M837.5,453.8999939V246.1000061c-57.2000122,0-103.9000244-46.6000061-103.9000244-103.8000031H266.3999939
	c0,57.1999969-46.6999969,103.8000031-103.8999939,103.8000031v207.6999817
	c57.1999969,0,103.8999939,46.6000061,103.8999939,103.7999878h467.1999817
	C733.5999756,500.5,780.2999878,453.8999939,837.5,453.8999939L837.5,453.8999939z M889.4000244,116.4000015v467.2000427
	c0,14.2000122-11.7999878,25.9000244-25.9000244,25.9000244H136.6000061c-14.1999969,0-25.9000015-11.7000122-25.9000015-25.9000244
	V116.4000015c0-14.1999969,11.8000031-25.9000015,25.9000015-25.9000015h726.8000488
	C877.5999756,90.4000015,889.4000244,102.0999985,889.4000244,116.4000015z"/>
</svg>
