<?xml version="1.0" encoding="utf-8"?>
<!-- Generator: Adobe Illustrator 24.0.2, SVG Export Plug-In . SVG Version: 6.00 Build 0)  -->
<svg version="1.1" id="Capa_1" xmlns="http://www.w3.org/2000/svg" xmlns:xlink="http://www.w3.org/1999/xlink" x="0px" y="0px"
	 viewBox="0 0 330.1 477.9" style="enable-background:new 0 0 330.1 477.9;" xml:space="preserve">
<g>
	<g>
		<g>
			<path d="M123.8,46.4h-110C6.2,46.4,0,52.5,0,60.1v357.6c0,7.6,6.2,13.8,13.8,13.8h110c7.6,0,13.8-6.2,13.8-13.8V60.1
				C137.6,52.5,131.4,46.4,123.8,46.4z"/>
		</g>
	</g>
	<g>
		<g>
			<path d="M316.4,46.4h-110c-7.6,0-13.8,6.2-13.8,13.8v357.6c0,7.6,6.2,13.8,13.8,13.8h110c7.6,0,13.8-6.2,13.8-13.8V60.1
				C330.1,52.5,324,46.4,316.4,46.4z"/>
		</g>
	</g>
</g>
</svg>
