<?xml version="1.0" encoding="utf-8"?>
<!-- Generator: Adobe Illustrator 23.0.2, SVG Export Plug-In . SVG Version: 6.00 Build 0)  -->
<svg version="1.1" id="Calque_1" xmlns="http://www.w3.org/2000/svg" xmlns:xlink="http://www.w3.org/1999/xlink" x="0px" y="0px"
	 viewBox="0 0 785.7 1000" style="enable-background:new 0 0 785.7 1000;" xml:space="preserve">
<path d="M785.7,446.4v107.2c0,29.5-24,53.5-53.6,53.5H500v232.2c0,29.5-24,53.5-53.6,53.5H339.3c-29.6,0-53.6-24-53.6-53.5V607.2
	H53.6C24,607.2,0,583.2,0,553.7V446.4c0-29.6,24-53.6,53.6-53.6h232.1V160.7c0-29.6,24-53.6,53.6-53.6h107.1
	c29.6,0,53.6,24,53.6,53.6v232.1h232.1C761.7,392.8,785.7,416.8,785.7,446.4z"/>
</svg>
