<?xml version="1.0" encoding="utf-8"?>
<!-- Generator: Adobe Illustrator 26.0.2, SVG Export Plug-In . SVG Version: 6.00 Build 0)  -->
<svg version="1.1" id="Calque_1" xmlns="http://www.w3.org/2000/svg" xmlns:xlink="http://www.w3.org/1999/xlink" x="0px" y="0px"
	 viewBox="0 0 2048 2048" style="enable-background:new 0 0 2048 2048;" xml:space="preserve">
<style type="text/css">
	.st0{fill:url(#SVGID_1_);}
	.st1{fill:#DCDCDC;}
	.st2{fill:#333333;stroke:#333333;}
	.st3{fill:#333333;}
</style>
<g>
	
		<linearGradient id="SVGID_1_" gradientUnits="userSpaceOnUse" x1="1024" y1="-2244.3425" x2="1024" y2="-4267.3428" gradientTransform="matrix(1 0 0 1 0 4279.8428)">
		<stop  offset="0" style="stop-color:#E8E8E8"/>
		<stop  offset="1" style="stop-color:#F9F9F9"/>
	</linearGradient>
	<path class="st0" d="M50,2035.5c-20.7,0-37.5-16.8-37.5-37.5V50c0-20.7,16.8-37.5,37.5-37.5h1948c20.7,0,37.5,16.8,37.5,37.5v1948
		c0,20.7-16.8,37.5-37.5,37.5H50z"/>
	<path class="st1" d="M1998,25c13.8,0,25,11.2,25,25v1948c0,13.8-11.2,25-25,25H50c-13.8,0-25-11.2-25-25V50c0-13.8,11.2-25,25-25
		H1998 M1998,0H50C22.5,0,0,22.5,0,50v1948c0,27.5,22.5,50,50,50h1948c27.5,0,50-22.5,50-50V50C2048,22.5,2025.5,0,1998,0L1998,0z"
		/>
</g>
<g>
	<path class="st2" d="M427.5,1746v66.2h-35v-188h61.2c12.6,0,23.4,1.5,32.6,4.4s16.8,7.1,22.8,12.4c6,5.3,10.4,11.6,13.3,19
		s4.3,15.4,4.3,24.2c0,9.1-1.5,17.4-4.6,25c-3,7.6-7.6,14.1-13.6,19.6c-6.1,5.5-13.6,9.7-22.8,12.7c-9.1,3-19.8,4.6-32,4.6
		L427.5,1746L427.5,1746z M427.5,1718.7h26.3c6.4,0,12-0.8,16.8-2.4s8.7-3.9,11.8-6.9c3.1-3,5.5-6.6,7-10.9s2.3-9.1,2.3-14.4
		c0-5-0.8-9.6-2.3-13.7c-1.6-4.1-3.9-7.5-7-10.4s-7.1-5-11.8-6.6c-4.8-1.5-10.4-2.3-16.8-2.3h-26.3V1718.7z"/>
	<path class="st2" d="M552,1812.2v-133.4h18.8c3.3,0,5.6,0.6,6.9,1.8c1.3,1.2,2.2,3.3,2.6,6.2l2,16.1c4.8-8.2,10.4-14.7,16.8-19.5
		c6.4-4.8,13.6-7.2,21.6-7.2c6.6,0,12,1.5,16.4,4.6l-4.2,24c-0.3,1.6-0.8,2.7-1.7,3.3c-0.9,0.7-2,1-3.5,1c-1.3,0-3.1-0.3-5.3-0.9
		c-2.3-0.6-5.2-0.9-9-0.9c-6.7,0-12.4,1.8-17.2,5.5s-8.8,9.1-12.1,16.2v83.1H552V1812.2z"/>
	<path class="st2" d="M715.2,1676.7c10,0,19,1.6,27.1,4.8c8.1,3.2,15,7.8,20.7,13.7c5.7,5.9,10.1,13.1,13.3,21.6
		c3.1,8.5,4.7,18,4.7,28.5c0,10.6-1.6,20.1-4.7,28.6c-3.1,8.5-7.5,15.7-13.3,21.7c-5.7,6-12.6,10.6-20.7,13.8
		c-8.1,3.2-17.1,4.8-27.1,4.8s-19-1.6-27.2-4.8c-8.1-3.2-15.1-7.8-20.9-13.8c-5.8-6-10.2-13.2-13.4-21.7s-4.7-18-4.7-28.6
		c0-10.5,1.6-20,4.7-28.5c3.2-8.5,7.6-15.7,13.4-21.6c5.8-5.9,12.7-10.4,20.9-13.7C696.2,1678.3,705.2,1676.7,715.2,1676.7z
		 M715.2,1789.4c11.1,0,19.3-3.7,24.6-11.2s8-18.4,8-32.8s-2.7-25.3-8-32.9s-13.5-11.3-24.6-11.3c-11.3,0-19.6,3.8-25,11.4
		s-8.1,18.5-8.1,32.8s2.7,25.2,8.1,32.7C695.6,1785.7,703.9,1789.4,715.2,1789.4z"/>
	<path class="st2" d="M899.9,1812.2c-4.2,0-6.9-2-8.2-5.9l-2.6-12.9c-2.8,3.1-5.7,5.9-8.7,8.5c-3,2.5-6.3,4.7-9.8,6.5
		s-7.3,3.2-11.3,4.2s-8.4,1.5-13.1,1.5c-7.3,0-14-1.5-20-4.6c-6.1-3-11.3-7.4-15.7-13.2c-4.4-5.8-7.8-12.9-10.1-21.4
		c-2.4-8.5-3.6-18.2-3.6-29.1c0-9.9,1.3-19.1,4-27.6s6.5-15.9,11.6-22.1c5-6.2,11.1-11.1,18.1-14.6s14.9-5.3,23.7-5.3
		c7.5,0,13.8,1.2,19.1,3.6s10,5.6,14.2,9.6V1619h32.1v193.2H899.9z M857.1,1788.7c6.7,0,12.4-1.4,17-4.2c4.7-2.8,9.1-6.7,13.3-11.8
		v-59.8c-3.6-4.4-7.6-7.5-11.9-9.4c-4.3-1.8-8.9-2.7-13.8-2.7c-4.9,0-9.3,0.9-13.2,2.7c-3.9,1.8-7.3,4.6-10,8.3
		c-2.7,3.7-4.8,8.4-6.3,14c-1.5,5.7-2.2,12.4-2.2,20.1c0,7.8,0.6,14.4,1.9,19.8c1.3,5.4,3.1,9.8,5.4,13.3c2.3,3.4,5.2,5.9,8.6,7.4
		C849.2,1787.9,853,1788.7,857.1,1788.7z"/>
	<path class="st2" d="M983.6,1678.8v84.8c0,8.1,1.9,14.5,5.7,18.9c3.8,4.5,9.4,6.7,17,6.7c5.5,0,10.7-1.2,15.6-3.7
		s9.4-5.9,13.8-10.2v-96.5h32.1v133.4h-19.6c-4.2,0-6.9-2-8.2-5.9l-2.2-10.7c-2.8,2.8-5.6,5.3-8.6,7.6c-2.9,2.3-6.1,4.2-9.4,5.8
		c-3.3,1.6-6.9,2.9-10.8,3.8c-3.9,0.9-8,1.4-12.4,1.4c-7.3,0-13.7-1.2-19.3-3.7s-10.3-6-14.1-10.5s-6.7-9.9-8.6-16.1
		c-2-6.2-2.9-13-2.9-20.5v-84.8h31.9L983.6,1678.8L983.6,1678.8z"/>
	<path class="st2" d="M1195.8,1707c-1,1.2-1.9,2.2-2.8,2.9c-0.9,0.7-2.2,1-4,1c-1.6,0-3.2-0.5-4.8-1.5c-1.6-1-3.4-2.1-5.6-3.4
		s-4.7-2.4-7.7-3.4s-6.7-1.5-11.1-1.5c-5.6,0-10.6,1-14.8,3.1c-4.2,2-7.8,5-10.6,8.8c-2.8,3.8-4.9,8.4-6.3,13.8s-2.1,11.5-2.1,18.4
		c0,7.1,0.8,13.4,2.3,19c1.5,5.5,3.7,10.2,6.6,14s6.3,6.6,10.4,8.6s8.7,2.9,13.8,2.9c5.1,0,9.2-0.6,12.4-1.9c3.2-1.3,5.8-2.6,8-4.2
		c2.2-1.5,4.1-2.9,5.7-4.2c1.6-1.3,3.4-1.9,5.4-1.9c2.6,0,4.5,1,5.9,3l9.2,11.7c-3.6,4.2-7.4,7.7-11.6,10.5s-8.5,5.1-12.9,6.8
		c-4.5,1.7-9.1,2.9-13.8,3.6c-4.8,0.7-9.5,1-14.2,1c-8.2,0-16-1.5-23.3-4.6s-13.6-7.6-19-13.5s-9.7-13.1-12.9-21.6
		c-3.2-8.5-4.7-18.3-4.7-29.2c0-9.8,1.4-18.9,4.2-27.2c2.8-8.4,7-15.6,12.4-21.7c5.5-6.1,12.2-10.9,20.3-14.4
		c8.1-3.5,17.3-5.2,27.8-5.2c10,0,18.7,1.6,26.2,4.8c7.5,3.2,14.2,7.8,20.2,13.8L1195.8,1707z"/>
	<path class="st2" d="M1269.9,1814.3c-11.5,0-20.4-3.3-26.7-9.8c-6.2-6.5-9.4-15.6-9.4-27.1v-74.5h-13.5c-1.7,0-3.2-0.6-4.5-1.7
		s-1.9-2.8-1.9-5.1v-12.7l21.5-3.5l6.8-36.4c0.3-1.7,1.1-3.1,2.4-4c1.3-1,2.8-1.4,4.7-1.4h16.6v42h35.1v22.9h-35v72.3
		c0,4.2,1,7.4,3.1,9.8c2.1,2.3,4.9,3.5,8.3,3.5c2,0,3.7-0.2,5-0.7s2.5-1,3.5-1.5s1.9-1,2.7-1.5c0.8-0.5,1.6-0.7,2.3-0.7
		c1,0,1.7,0.2,2.3,0.7c0.6,0.5,1.3,1.2,1.9,2.1l9.6,15.6c-4.7,3.9-10.1,6.8-16.1,8.8C1282.7,1813.3,1276.4,1814.3,1269.9,1814.3z"/>
	<path class="st2" d="M1365.7,1639.9c0,2.8-0.6,5.4-1.7,7.8s-2.6,4.5-4.5,6.4c-1.9,1.8-4.1,3.3-6.6,4.4s-5.2,1.6-8.1,1.6
		c-2.8,0-5.4-0.5-7.9-1.6s-4.6-2.5-6.4-4.4s-3.3-3.9-4.4-6.4c-1.1-2.4-1.6-5-1.6-7.8c0-2.9,0.5-5.5,1.6-8.1c1.1-2.5,2.5-4.7,4.4-6.5
		c1.8-1.8,4-3.3,6.4-4.4c2.5-1.1,5.1-1.6,7.9-1.6c2.9,0,5.5,0.5,8.1,1.6c2.5,1.1,4.7,2.5,6.6,4.4c1.9,1.8,3.4,4,4.5,6.5
		C1365.1,1634.4,1365.7,1637.1,1365.7,1639.9z M1360.9,1678.8v133.4h-32.1v-133.4H1360.9z"/>
	<path class="st2" d="M1454.1,1676.7c10,0,19,1.6,27.1,4.8c8.1,3.2,15,7.8,20.7,13.7c5.7,5.9,10.1,13.1,13.3,21.6
		c3.1,8.5,4.7,18,4.7,28.5c0,10.6-1.6,20.1-4.7,28.6s-7.5,15.7-13.3,21.7c-5.7,6-12.6,10.6-20.7,13.8c-8.1,3.2-17.1,4.8-27.1,4.8
		s-19-1.6-27.2-4.8c-8.1-3.2-15.1-7.8-20.9-13.8s-10.2-13.2-13.4-21.7c-3.2-8.5-4.7-18-4.7-28.6c0-10.5,1.6-20,4.7-28.5
		c3.2-8.5,7.6-15.7,13.4-21.6s12.7-10.4,20.9-13.7C1435.1,1678.3,1444.1,1676.7,1454.1,1676.7z M1454.1,1789.4
		c11.1,0,19.3-3.7,24.6-11.2c5.3-7.5,8-18.4,8-32.8s-2.7-25.3-8-32.9s-13.5-11.3-24.6-11.3c-11.3,0-19.6,3.8-25,11.4
		s-8.1,18.5-8.1,32.8s2.7,25.2,8.1,32.7C1434.5,1785.7,1442.8,1789.4,1454.1,1789.4z"/>
	<path class="st2" d="M1545,1812.2v-133.4h19.6c4.2,0,6.9,1.9,8.2,5.8l2.2,10.5c2.7-2.8,5.5-5.3,8.5-7.5c3-2.3,6.2-4.2,9.5-5.9
		c3.3-1.6,6.9-2.9,10.7-3.8c3.8-0.9,8-1.3,12.5-1.3c7.3,0,13.7,1.2,19.4,3.7c5.6,2.5,10.3,5.9,14.1,10.4c3.8,4.5,6.6,9.8,8.6,16
		s2.9,13,2.9,20.5v84.9h-32.1v-84.9c0-8.1-1.9-14.5-5.7-18.9c-3.8-4.5-9.4-6.7-17-6.7c-5.5,0-10.7,1.3-15.6,3.8s-9.4,5.9-13.8,10.3
		v96.5H1545z"/>
</g>
<path class="st3" d="M887.3,481l0.8-0.4C864.2,355.8,743.7,274,619,297.8C510.4,318.6,431.9,413.5,432,524v822.2h263.1V829.3
	c0-20.4,4.7-40.5,13.9-58.8l114.1-228.1C836.7,515,859.4,493.5,887.3,481L887.3,481z M1609,799.8l-114-228.1
	c-6.8-13.7-18.2-24.5-32.1-30.7l-247.7-110c-17-7.5-36.4-7.5-53.4,0L914,541.1c-13.9,6.2-25.3,17.1-32.1,30.7l-114,228
	c-4.6,9.1-7,19.2-7,29.3v517H1024v-197.3h328.9v197.3H1616V829.3C1616,819,1613.6,809,1609,799.8z M1287.1,951.5h-197.3V754.2h197.3
	V951.5z"/>
</svg>
