<?xml version="1.0" encoding="utf-8"?>
<!-- Generator: Adobe Illustrator 21.1.0, SVG Export Plug-In . SVG Version: 6.00 Build 0)  -->
<svg version="1.1" id="Calque_1" xmlns="http://www.w3.org/2000/svg" xmlns:xlink="http://www.w3.org/1999/xlink" x="0px" y="0px"
	 viewBox="0 0 2048 2048" style="enable-background:new 0 0 2048 2048;" xml:space="preserve">
<style type="text/css">
	.st0{fill:url(#SVGID_1_);}
	.st1{fill:#DCDCDC;}
	.st2{fill:#333333;stroke:#333333;}
	.st3{fill:#333333;}
</style>
<g>
	
		<linearGradient id="SVGID_1_" gradientUnits="userSpaceOnUse" x1="1024" y1="12.5" x2="1024" y2="2035.5" gradientTransform="matrix(1 0 0 -1 0 2048)">
		<stop  offset="0" style="stop-color:#E8E8E8"/>
		<stop  offset="1" style="stop-color:#F9F9F9"/>
	</linearGradient>
	<path class="st0" d="M50,2035.5c-20.7,0-37.5-16.8-37.5-37.5V50c0-20.7,16.8-37.5,37.5-37.5h1948c20.7,0,37.5,16.8,37.5,37.5v1948
		c0,20.7-16.8,37.5-37.5,37.5H50z"/>
	<path class="st1" d="M1998,25c13.8,0,25,11.2,25,25v1948c0,13.8-11.2,25-25,25H50c-13.8,0-25-11.2-25-25V50c0-13.8,11.2-25,25-25
		H1998 M1998,0H50C22.5,0,0,22.5,0,50v1948c0,27.5,22.5,50,50,50h1948c27.5,0,50-22.5,50-50V50C2048,22.5,2025.5,0,1998,0L1998,0z"
		/>
</g>
<g>
	<path class="st2" d="M427.5,1746v66.2h-35v-188h61.2c12.6,0,23.4,1.5,32.6,4.4c9.2,2.9,16.8,7.1,22.8,12.4c6,5.3,10.4,11.6,13.3,19
		c2.9,7.4,4.3,15.4,4.3,24.2c0,9.1-1.5,17.4-4.6,25c-3,7.6-7.6,14.1-13.6,19.6c-6.1,5.5-13.6,9.7-22.8,12.7c-9.1,3-19.8,4.6-32,4.6
		H427.5z M427.5,1718.7h26.3c6.4,0,12-0.8,16.8-2.4c4.8-1.6,8.7-3.9,11.8-6.9c3.1-3,5.5-6.6,7-10.9s2.3-9.1,2.3-14.4
		c0-5-0.8-9.6-2.3-13.7c-1.6-4.1-3.9-7.5-7-10.4c-3.1-2.9-7.1-5-11.8-6.6c-4.8-1.5-10.4-2.3-16.8-2.3h-26.3V1718.7z"/>
	<path class="st2" d="M552,1812.2v-133.4h18.8c3.3,0,5.6,0.6,6.9,1.8c1.3,1.2,2.2,3.3,2.6,6.2l2,16.1c4.8-8.2,10.4-14.7,16.8-19.5
		c6.4-4.8,13.6-7.2,21.6-7.2c6.6,0,12,1.5,16.4,4.6l-4.2,24c-0.3,1.6-0.8,2.7-1.7,3.3c-0.9,0.7-2,1-3.5,1c-1.3,0-3.1-0.3-5.3-0.9
		c-2.3-0.6-5.2-0.9-9-0.9c-6.7,0-12.4,1.8-17.2,5.5c-4.8,3.7-8.8,9.1-12.1,16.2v83.1H552z"/>
	<path class="st2" d="M715.2,1676.7c10,0,19,1.6,27.1,4.8c8.1,3.2,15,7.8,20.7,13.7c5.7,5.9,10.1,13.1,13.3,21.6
		c3.1,8.5,4.7,18,4.7,28.5c0,10.6-1.6,20.1-4.7,28.6c-3.1,8.5-7.5,15.7-13.3,21.7c-5.7,6-12.6,10.6-20.7,13.8
		c-8.1,3.2-17.1,4.8-27.1,4.8c-10,0-19-1.6-27.2-4.8c-8.1-3.2-15.1-7.8-20.9-13.8c-5.8-6-10.2-13.2-13.4-21.7
		c-3.2-8.5-4.7-18-4.7-28.6c0-10.5,1.6-20,4.7-28.5c3.2-8.5,7.6-15.7,13.4-21.6c5.8-5.9,12.7-10.4,20.9-13.7
		C696.2,1678.3,705.2,1676.7,715.2,1676.7z M715.2,1789.4c11.1,0,19.3-3.7,24.6-11.2c5.3-7.5,8-18.4,8-32.8c0-14.4-2.7-25.3-8-32.9
		s-13.5-11.3-24.6-11.3c-11.3,0-19.6,3.8-25,11.4c-5.4,7.6-8.1,18.5-8.1,32.8s2.7,25.2,8.1,32.7
		C695.6,1785.7,703.9,1789.4,715.2,1789.4z"/>
	<path class="st2" d="M899.9,1812.2c-4.2,0-6.9-2-8.2-5.9l-2.6-12.9c-2.8,3.1-5.7,5.9-8.7,8.5c-3,2.5-6.3,4.7-9.8,6.5
		c-3.5,1.8-7.3,3.2-11.3,4.2c-4,1-8.4,1.5-13.1,1.5c-7.3,0-14-1.5-20-4.6c-6.1-3-11.3-7.4-15.7-13.2c-4.4-5.8-7.8-12.9-10.1-21.4
		c-2.4-8.5-3.6-18.2-3.6-29.1c0-9.9,1.3-19.1,4-27.6c2.7-8.5,6.5-15.9,11.6-22.1c5-6.2,11.1-11.1,18.1-14.6c7-3.5,14.9-5.3,23.7-5.3
		c7.5,0,13.8,1.2,19.1,3.6c5.3,2.4,10,5.6,14.2,9.6V1619h32.1v193.2H899.9z M857.1,1788.7c6.7,0,12.4-1.4,17-4.2
		c4.7-2.8,9.1-6.7,13.3-11.8v-59.8c-3.6-4.4-7.6-7.5-11.9-9.4c-4.3-1.8-8.9-2.7-13.8-2.7c-4.9,0-9.3,0.9-13.2,2.7
		c-3.9,1.8-7.3,4.6-10,8.3c-2.7,3.7-4.8,8.4-6.3,14c-1.5,5.7-2.2,12.4-2.2,20.1c0,7.8,0.6,14.4,1.9,19.8c1.3,5.4,3.1,9.8,5.4,13.3
		c2.3,3.4,5.2,5.9,8.6,7.4C849.2,1787.9,853,1788.7,857.1,1788.7z"/>
	<path class="st2" d="M983.6,1678.8v84.8c0,8.1,1.9,14.5,5.7,18.9c3.8,4.5,9.4,6.7,17,6.7c5.5,0,10.7-1.2,15.6-3.7
		c4.9-2.5,9.4-5.9,13.8-10.2v-96.5h32.1v133.4h-19.6c-4.2,0-6.9-2-8.2-5.9l-2.2-10.7c-2.8,2.8-5.6,5.3-8.6,7.6
		c-2.9,2.3-6.1,4.2-9.4,5.8c-3.3,1.6-6.9,2.9-10.8,3.8c-3.9,0.9-8,1.4-12.4,1.4c-7.3,0-13.7-1.2-19.3-3.7c-5.6-2.5-10.3-6-14.1-10.5
		c-3.8-4.5-6.7-9.9-8.6-16.1c-2-6.2-2.9-13-2.9-20.5v-84.8H983.6z"/>
	<path class="st2" d="M1195.8,1707c-1,1.2-1.9,2.2-2.8,2.9c-0.9,0.7-2.2,1-4,1c-1.6,0-3.2-0.5-4.8-1.5c-1.6-1-3.4-2.1-5.6-3.4
		c-2.2-1.3-4.7-2.4-7.7-3.4c-3-1-6.7-1.5-11.1-1.5c-5.6,0-10.6,1-14.8,3.1c-4.2,2-7.8,5-10.6,8.8c-2.8,3.8-4.9,8.4-6.3,13.8
		c-1.4,5.4-2.1,11.5-2.1,18.4c0,7.1,0.8,13.4,2.3,19c1.5,5.5,3.7,10.2,6.6,14c2.9,3.8,6.3,6.6,10.4,8.6c4.1,2,8.7,2.9,13.8,2.9
		c5.1,0,9.2-0.6,12.4-1.9c3.2-1.3,5.8-2.6,8-4.2c2.2-1.5,4.1-2.9,5.7-4.2c1.6-1.3,3.4-1.9,5.4-1.9c2.6,0,4.5,1,5.9,3l9.2,11.7
		c-3.6,4.2-7.4,7.7-11.6,10.5c-4.2,2.8-8.5,5.1-12.9,6.8c-4.5,1.7-9.1,2.9-13.8,3.6c-4.8,0.7-9.5,1-14.2,1c-8.2,0-16-1.5-23.3-4.6
		c-7.3-3.1-13.6-7.6-19-13.5c-5.4-5.9-9.7-13.1-12.9-21.6c-3.2-8.5-4.7-18.3-4.7-29.2c0-9.8,1.4-18.9,4.2-27.2
		c2.8-8.4,7-15.6,12.4-21.7c5.5-6.1,12.2-10.9,20.3-14.4c8.1-3.5,17.3-5.2,27.8-5.2c10,0,18.7,1.6,26.2,4.8
		c7.5,3.2,14.2,7.8,20.2,13.8L1195.8,1707z"/>
	<path class="st2" d="M1269.9,1814.3c-11.5,0-20.4-3.3-26.7-9.8c-6.2-6.5-9.4-15.6-9.4-27.1v-74.5h-13.5c-1.7,0-3.2-0.6-4.5-1.7
		c-1.3-1.1-1.9-2.8-1.9-5.1v-12.7l21.5-3.5l6.8-36.4c0.3-1.7,1.1-3.1,2.4-4c1.3-1,2.8-1.4,4.7-1.4h16.6v42h35.1v22.9H1266v72.3
		c0,4.2,1,7.4,3.1,9.8c2.1,2.3,4.9,3.5,8.3,3.5c2,0,3.7-0.2,5-0.7c1.3-0.5,2.5-1,3.5-1.5c1-0.5,1.9-1,2.7-1.5
		c0.8-0.5,1.6-0.7,2.3-0.7c1,0,1.7,0.2,2.3,0.7c0.6,0.5,1.3,1.2,1.9,2.1l9.6,15.6c-4.7,3.9-10.1,6.8-16.1,8.8
		C1282.7,1813.3,1276.4,1814.3,1269.9,1814.3z"/>
	<path class="st2" d="M1365.7,1639.9c0,2.8-0.6,5.4-1.7,7.8c-1.1,2.4-2.6,4.5-4.5,6.4c-1.9,1.8-4.1,3.3-6.6,4.4
		c-2.5,1.1-5.2,1.6-8.1,1.6c-2.8,0-5.4-0.5-7.9-1.6c-2.5-1.1-4.6-2.5-6.4-4.4s-3.3-3.9-4.4-6.4c-1.1-2.4-1.6-5-1.6-7.8
		c0-2.9,0.5-5.5,1.6-8.1c1.1-2.5,2.5-4.7,4.4-6.5c1.8-1.8,4-3.3,6.4-4.4c2.5-1.1,5.1-1.6,7.9-1.6c2.9,0,5.5,0.5,8.1,1.6
		c2.5,1.1,4.7,2.5,6.6,4.4c1.9,1.8,3.4,4,4.5,6.5C1365.1,1634.4,1365.7,1637.1,1365.7,1639.9z M1360.9,1678.8v133.4h-32.1v-133.4
		H1360.9z"/>
	<path class="st2" d="M1454.1,1676.7c10,0,19,1.6,27.1,4.8c8.1,3.2,15,7.8,20.7,13.7c5.7,5.9,10.1,13.1,13.3,21.6
		c3.1,8.5,4.7,18,4.7,28.5c0,10.6-1.6,20.1-4.7,28.6c-3.1,8.5-7.5,15.7-13.3,21.7c-5.7,6-12.6,10.6-20.7,13.8
		c-8.1,3.2-17.1,4.8-27.1,4.8c-10,0-19-1.6-27.2-4.8c-8.1-3.2-15.1-7.8-20.9-13.8c-5.8-6-10.2-13.2-13.4-21.7
		c-3.2-8.5-4.7-18-4.7-28.6c0-10.5,1.6-20,4.7-28.5c3.2-8.5,7.6-15.7,13.4-21.6c5.8-5.9,12.7-10.4,20.9-13.7
		C1435.1,1678.3,1444.1,1676.7,1454.1,1676.7z M1454.1,1789.4c11.1,0,19.3-3.7,24.6-11.2c5.3-7.5,8-18.4,8-32.8
		c0-14.4-2.7-25.3-8-32.9s-13.5-11.3-24.6-11.3c-11.3,0-19.6,3.8-25,11.4c-5.4,7.6-8.1,18.5-8.1,32.8s2.7,25.2,8.1,32.7
		C1434.5,1785.7,1442.8,1789.4,1454.1,1789.4z"/>
	<path class="st2" d="M1545,1812.2v-133.4h19.6c4.2,0,6.9,1.9,8.2,5.8l2.2,10.5c2.7-2.8,5.5-5.3,8.5-7.5c3-2.3,6.2-4.2,9.5-5.9
		c3.3-1.6,6.9-2.9,10.7-3.8c3.8-0.9,8-1.3,12.5-1.3c7.3,0,13.7,1.2,19.4,3.7c5.6,2.5,10.3,5.9,14.1,10.4c3.8,4.5,6.6,9.8,8.6,16
		c2,6.2,2.9,13,2.9,20.5v84.9h-32.1v-84.9c0-8.1-1.9-14.5-5.7-18.9c-3.8-4.5-9.4-6.7-17-6.7c-5.5,0-10.7,1.3-15.6,3.8
		c-4.9,2.5-9.4,5.9-13.8,10.3v96.5H1545z"/>
</g>
<path class="st3" d="M979.2,762.9c0-49.5-17.5-91.7-52.5-126.7s-77.2-52.5-126.7-52.5s-91.7,17.5-126.7,52.5s-52.5,77.2-52.5,126.7
	s17.5,91.7,52.5,126.7s77.2,52.5,126.7,52.5s91.7-17.5,126.7-52.5S979.2,812.4,979.2,762.9z M1516.8,1121.3c0-24.3-8.9-45.3-26.6-63
	c-17.7-17.7-38.7-26.6-63-26.6c-24.3,0-45.3,8.9-63,26.6c-17.7,17.7-26.6,38.7-26.6,63c0,24.7,8.8,45.9,26.2,63.4
	s38.6,26.2,63.3,26.2c24.7,0,45.9-8.8,63.4-26.2S1516.8,1146,1516.8,1121.3z M1516.8,404.5c0-24.3-8.9-45.3-26.6-63
	c-17.7-17.7-38.7-26.6-63-26.6c-24.3,0-45.3,8.9-63,26.6c-17.7,17.7-26.6,38.7-26.6,63c0,24.7,8.8,45.8,26.2,63.3
	s38.6,26.2,63.3,26.2c24.7,0,45.9-8.8,63.4-26.2S1516.8,429.2,1516.8,404.5z M1248,699.2v129.5c0,4.7-1.6,9.2-4.9,13.6
	c-3.3,4.4-7,6.9-11.2,7.4l-108.5,16.8c-5.1,16.3-12.6,34.1-22.4,53.2c15.9,22.4,36.9,49.2,63,80.5c3.3,5.1,4.9,9.8,4.9,14
	c0,5.6-1.6,10-4.9,13.3c-10.7,14-30,34.9-57.8,62.7c-27.8,27.8-46.1,41.6-54.9,41.6c-5.1,0-10-1.6-14.7-4.9l-80.5-63
	c-17.3,8.9-35.2,16.1-53.9,21.7c-5.1,50.4-10.5,86.6-16.1,108.5c-3.3,11.2-10.3,16.8-21,16.8H734.9c-5.1,0-9.8-1.8-14-5.2
	c-4.2-3.5-6.5-7.6-7-12.2l-16.1-107.1c-15.9-4.7-33.4-11.9-52.5-21.7l-82.6,62.3c-3.3,3.3-7.9,4.9-14,4.9c-5.1,0-10-1.9-14.7-5.6
	c-67.2-62.1-100.8-99.4-100.8-112c0-4.2,1.6-8.6,4.9-13.3c4.7-6.5,14.2-18.9,28.7-37.1c14.5-18.2,25.4-32.4,32.9-42.7
	c-10.7-20.5-18.9-39.7-24.5-57.4l-106.4-16.8c-4.7-0.5-8.6-2.7-11.9-6.6s-4.9-8.5-4.9-13.7V697.1c0-4.7,1.6-9.2,4.9-13.6
	c3.3-4.4,7-6.9,11.2-7.4l108.5-16.8c5.1-16.3,12.6-34.1,22.4-53.2c-15.9-22.4-36.9-49.2-63-80.5c-3.3-5.1-4.9-9.8-4.9-14
	c0-5.6,1.6-10.3,4.9-14c10.3-14,29.4-34.8,57.4-62.3c28-27.5,46.4-41.3,55.3-41.3c5.1,0,10,1.6,14.7,4.9l80.5,63
	c15.9-8.4,33.8-15.9,53.9-22.4c5.1-50.4,10.5-86.3,16.1-107.8c3.3-11.2,10.3-16.8,21-16.8h130.2c5.1,0,9.8,1.8,14,5.2
	c4.2,3.5,6.5,7.6,7,12.2l16.1,107.1c15.9,4.7,33.4,11.9,52.5,21.7l82.6-62.3c3.7-3.3,8.4-4.9,14-4.9c5.1,0,10,1.9,14.7,5.6
	c67.2,62.1,100.8,99.4,100.8,112c0,3.7-1.6,8.2-4.9,13.3c-5.6,7.5-15.4,20.1-29.4,37.8c-14,17.7-24.5,31.7-31.5,42
	c10.7,22.4,18.7,41.5,23.8,57.4l106.4,16.1c4.7,0.9,8.6,3.4,11.9,7.3C1246.4,689.5,1248,694.1,1248,699.2z M1696,1072.3v98
	c0,7.5-34.8,14.7-104.3,21.7c-5.6,12.6-12.6,24.7-21,36.4c23.8,52.7,35.7,84.9,35.7,96.6c0,1.9-0.9,3.5-2.8,4.9
	c-56.9,33.1-85.9,49.7-86.8,49.7c-3.7,0-14.5-11-32.2-32.9c-17.7-21.9-29.9-37.8-36.4-47.6c-9.3,0.9-16.3,1.4-21,1.4
	c-4.7,0-11.7-0.5-21-1.4c-6.5,9.8-18.7,25.7-36.4,47.6c-17.7,21.9-28.5,32.9-32.2,32.9c-0.9,0-29.9-16.6-86.8-49.7
	c-1.9-1.4-2.8-3-2.8-4.9c0-11.7,11.9-43.9,35.7-96.6c-8.4-11.7-15.4-23.8-21-36.4c-69.5-7-104.3-14.2-104.3-21.7v-98
	c0-7.5,34.8-14.7,104.3-21.7c6.1-13.5,13.1-25.7,21-36.4c-23.8-52.7-35.7-84.9-35.7-96.6c0-1.9,0.9-3.5,2.8-4.9
	c1.9-0.9,10-5.6,24.5-14c14.5-8.4,28.2-16.3,41.3-23.8c13.1-7.5,20.1-11.2,21-11.2c3.7,0,14.5,10.8,32.2,32.5
	c17.7,21.7,29.9,37.5,36.4,47.2c9.3-0.9,16.3-1.4,21-1.4c4.7,0,11.7,0.5,21,1.4c23.8-33.1,45.3-59.3,64.4-78.4l4.2-1.4
	c1.9,0,30.8,16.3,86.8,49c1.9,1.4,2.8,3,2.8,4.9c0,11.7-11.9,43.9-35.7,96.6c7.9,10.7,14.9,22.9,21,36.4
	C1661.2,1057.6,1696,1064.8,1696,1072.3z M1696,355.5v98c0,7.5-34.8,14.7-104.3,21.7c-5.6,12.6-12.6,24.7-21,36.4
	c23.8,52.7,35.7,84.9,35.7,96.6c0,1.9-0.9,3.5-2.8,4.9c-56.9,33.1-85.9,49.7-86.8,49.7c-3.7,0-14.5-11-32.2-32.9
	c-17.7-21.9-29.9-37.8-36.4-47.6c-9.3,0.9-16.3,1.4-21,1.4c-4.7,0-11.7-0.5-21-1.4c-6.5,9.8-18.7,25.7-36.4,47.6
	c-17.7,21.9-28.5,32.9-32.2,32.9c-0.9,0-29.9-16.6-86.8-49.7c-1.9-1.4-2.8-3-2.8-4.9c0-11.7,11.9-43.9,35.7-96.6
	c-8.4-11.7-15.4-23.8-21-36.4c-69.5-7-104.3-14.2-104.3-21.7v-98c0-7.5,34.8-14.7,104.3-21.7c6.1-13.5,13.1-25.7,21-36.4
	c-23.8-52.7-35.7-84.9-35.7-96.6c0-1.9,0.9-3.5,2.8-4.9c1.9-0.9,10-5.6,24.5-14c14.5-8.4,28.2-16.3,41.3-23.8
	c13.1-7.5,20.1-11.2,21-11.2c3.7,0,14.5,10.9,32.2,32.6c17.7,21.7,29.9,37.4,36.4,47.2c9.3-0.9,16.3-1.4,21-1.4
	c4.7,0,11.7,0.5,21,1.4c23.8-33.1,45.3-59.3,64.4-78.4l4.2-1.4c1.9,0,30.8,16.3,86.8,49c1.9,1.4,2.8,3,2.8,4.9
	c0,11.7-11.9,43.9-35.7,96.6c7.9,10.7,14.9,22.9,21,36.4C1661.2,340.8,1696,348,1696,355.5z"/>
</svg>
