<?xml version="1.0" encoding="utf-8"?>
<!-- Generator: Adobe Illustrator 24.3.0, SVG Export Plug-In . SVG Version: 6.00 Build 0)  -->
<svg version="1.1" id="Calque_1" xmlns="http://www.w3.org/2000/svg" xmlns:xlink="http://www.w3.org/1999/xlink" x="0px" y="0px"
	 viewBox="0 0 802.7000122 1000" style="enable-background:new 0 0 802.7000122 1000;" xml:space="preserve">
<style type="text/css">
	.st0{fill:#333333;}
</style>
<path class="st0" d="M720.7000122,189.5l58.5999756,58.5l-58.5999756,60.6000061
	c54.666687,67.7333374,82,145.2000122,82,232.3999939c0,75.5333252-20.833313,144.5333862-62.5,207l-60.5-60.5
	c26.0666504-45.6000366,39.0999756-94.4333496,39.0999756-146.5c0-80.7333069-28.333374-149.3999939-85-206
	c-56.666687-56.6000061-125.3666687-84.9333344-206.1000061-85c-52.0666809,0-100.8666687,13.0333252-146.3999939,39.1000061
	L220.6999817,228.5c62.5333252-41.6666718,131.5333252-62.5,207-62.5c87.2666321,0,165.3999939,27.3333282,234.3999939,82
	L720.7000122,189.5z M552.7000122,41v84h-250V41H552.7000122z M384.8000183,392.6000061V334h84v142.6000061L384.8000183,392.6000061
	z M52.7000122,166l418,418L791,906.2999878L738.2999878,959l-103.5-105.5C572.2666626,895.166687,503.2333069,916,427.6999817,916
	c-104.1333313,0-192.6666565-36.4666138-265.6000061-109.4000244C89.166626,733.666687,52.6999626,645.1333008,52.6999741,541
	c-0.0000038-75.5333252,20.8333282-144.5333252,62.5-207L-0.0000229,218.8000031L52.7000122,166z M427.7000122,834
	c52.1333313,0,100.9666748-13.666687,146.5-41L175.8000183,394.5c-27.3333282,45.6000061-41,94.4333496-41,146.5
	c0,80.7333374,28.6333313,149.7333374,85.8999939,207S346.9666748,833.9333496,427.7000122,834z"/>
</svg>
