<?xml version="1.0" encoding="utf-8"?>
<!-- Generator: Adobe Illustrator 24.0.2, SVG Export Plug-In . SVG Version: 6.00 Build 0)  -->
<svg version="1.1"
	 id="svg2" xmlns:cc="http://creativecommons.org/ns#" xmlns:dc="http://purl.org/dc/elements/1.1/" xmlns:inkscape="http://www.inkscape.org/namespaces/inkscape" xmlns:rdf="http://www.w3.org/1999/02/22-rdf-syntax-ns#" xmlns:sodipodi="http://sodipodi.sourceforge.net/DTD/sodipodi-0.dtd" xmlns:svg="http://www.w3.org/2000/svg"
	 xmlns="http://www.w3.org/2000/svg" xmlns:xlink="http://www.w3.org/1999/xlink" x="0px" y="0px" viewBox="0 0 92.2480011 100"
	 style="enable-background:new 0 0 92.2480011 100;" xml:space="preserve">
<style type="text/css">
	.st0{fill-rule:evenodd;clip-rule:evenodd;}
</style>
<sodipodi:namedview  bordercolor="#666666" borderlayer="true" borderopacity="1.0" id="base" inkscape:current-layer="layer1" inkscape:cx="32.837394" inkscape:cy="88.785531" inkscape:document-units="px" inkscape:guide-bbox="true" inkscape:pageopacity="0.0" inkscape:pageshadow="2" inkscape:showpageshadow="false" inkscape:window-height="1057" inkscape:window-maximized="1" inkscape:window-width="1920" inkscape:window-x="0" inkscape:window-y="0" inkscape:zoom="2.8" pagecolor="#ffffff" showgrid="false" showguides="true" units="px">
	<sodipodi:guide  id="guide4136" inkscape:color="rgb(0,0,255)" inkscape:label="" orientation="1,0" position="100,0">
		</sodipodi:guide>
	<sodipodi:guide  id="guide4138" inkscape:color="rgb(0,0,255)" inkscape:label="" orientation="1,0" position="200,0">
		</sodipodi:guide>
	<sodipodi:guide  id="guide4142" inkscape:color="rgb(0,0,255)" inkscape:label="" orientation="0,1" position="0,50">
		</sodipodi:guide>
	<sodipodi:guide  id="guide4149" orientation="1,0" position="164.0625,73.125"></sodipodi:guide>
</sodipodi:namedview>
<g id="layer1" transform="translate(0,-952.36216)" inkscape:groupmode="layer" inkscape:label="Calque 1">
	<path id="path4144" class="st0" d="M75.4919815,952.3621826l-3.7150345,3.9836426l9.5176086,8.876709H25.6914253
		c-16.5001602-0.1196899-25.6800499,11.4655762-25.6914158,23.0613403
		c-0.011302,11.5957642,9.1356173,23.2315674,25.672802,23.2315674h40.8467178
		c12.9204559,0,19.2029419,8.826416,19.4473953,17.6950073c0.1222229,4.4342041-1.3548965,8.8015137-4.4755859,12.0758057
		c-3.1206894,3.2741699-7.9214706,5.5792236-14.9904251,5.6296387H5.2494521v5.4462891h61.2807159h0.0079803
		c8.2713394-0.0585938,14.6957092-2.9133301,18.8942642-7.3183594c4.198555-4.4051514,6.1365891-10.2348633,5.9780884-15.9849854
		c-0.3170471-11.5001221-9.3766251-22.989624-24.8909683-22.989624H25.6728115
		c-14.103982,0-20.2352772-8.8969727-20.226572-17.7800293c0.0087128-8.8830566,6.1472301-17.7224121,20.2079563-17.6204224
		h0.0079784h54.9276695l-9.4670792,7.9459229l3.5022888,4.1724243l17.6231232-14.7936401L75.4919815,952.3621826z"/>
</g>
</svg>
