<?xml version="1.0" encoding="utf-8"?>
<!-- Generator: Adobe Illustrator 26.0.2, SVG Export Plug-In . SVG Version: 6.00 Build 0)  -->
<svg version="1.1" id="Calque_1" xmlns="http://www.w3.org/2000/svg" xmlns:xlink="http://www.w3.org/1999/xlink" x="0px" y="0px"
	 viewBox="0 0 2048 2048" style="enable-background:new 0 0 2048 2048;" xml:space="preserve">
<style type="text/css">
	.st0{fill:url(#SVGID_1_);}
	.st1{fill:#DCDCDC;}
	.st2{fill:#333333;stroke:#333333;}
	.st3{fill:#333333;}
</style>
<g>
	
		<linearGradient id="SVGID_1_" gradientUnits="userSpaceOnUse" x1="1024" y1="-2244.3425" x2="1024" y2="-4267.3428" gradientTransform="matrix(1 0 0 1 0 4279.8428)">
		<stop  offset="0" style="stop-color:#E8E8E8"/>
		<stop  offset="1" style="stop-color:#F9F9F9"/>
	</linearGradient>
	<path class="st0" d="M50,2035.5c-20.7,0-37.5-16.8-37.5-37.5V50c0-20.7,16.8-37.5,37.5-37.5h1948c20.7,0,37.5,16.8,37.5,37.5v1948
		c0,20.7-16.8,37.5-37.5,37.5H50z"/>
	<path class="st1" d="M1998,25c13.8,0,25,11.2,25,25v1948c0,13.8-11.2,25-25,25H50c-13.8,0-25-11.2-25-25V50c0-13.8,11.2-25,25-25
		H1998 M1998,0H50C22.5,0,0,22.5,0,50v1948c0,27.5,22.5,50,50,50h1948c27.5,0,50-22.5,50-50V50C2048,22.5,2025.5,0,1998,0L1998,0z"
		/>
</g>
<g>
	<path class="st2" d="M410.2,1767.9c1.9,0,3.6,0.7,4.9,2.2l13.8,15c-7.6,9.4-17,16.7-28.1,21.7s-24.5,7.5-40.1,7.5
		c-14,0-26.5-2.4-37.6-7.2c-11.1-4.8-20.6-11.4-28.5-19.9s-13.9-18.6-18.1-30.4s-6.3-24.7-6.3-38.6c0-14.1,2.3-27.1,7-38.8
		c4.7-11.7,11.3-21.9,19.8-30.4s18.7-15.1,30.5-19.8c11.8-4.7,24.9-7.1,39.2-7.1c14,0,26.2,2.2,36.6,6.7s19.4,10.4,26.8,17.7
		l-11.7,16.2c-0.7,1-1.6,2-2.7,2.7c-1.1,0.8-2.6,1.2-4.5,1.2c-2,0-4-0.8-6.1-2.3c-2.1-1.6-4.7-3.2-7.9-5.1
		c-3.2-1.8-7.3-3.5-12.2-5.1c-4.9-1.6-11.1-2.3-18.7-2.3c-8.8,0-17,1.5-24.4,4.6s-13.8,7.5-19.1,13.2c-5.3,5.7-9.5,12.7-12.5,20.9
		c-3,8.2-4.5,17.4-4.5,27.6c0,10.6,1.5,20,4.5,28.2s7,15.2,12.2,20.8c5.1,5.6,11.1,9.9,18.1,12.9c6.9,3,14.4,4.5,22.4,4.5
		c4.8,0,9.1-0.3,12.9-0.8c3.9-0.5,7.4-1.3,10.7-2.5c3.2-1.1,6.3-2.6,9.2-4.4c2.9-1.8,5.8-4,8.6-6.6c0.9-0.8,1.8-1.4,2.7-1.9
		C408,1768.1,409.1,1767.9,410.2,1767.9z"/>
	<path class="st2" d="M510.4,1676.7c10,0,19,1.6,27.1,4.8c8.1,3.2,15,7.8,20.7,13.7c5.7,5.9,10.1,13.1,13.3,21.6
		c3.1,8.5,4.7,18,4.7,28.5c0,10.6-1.6,20.1-4.7,28.6c-3.1,8.5-7.5,15.7-13.3,21.7c-5.7,6-12.6,10.6-20.7,13.8
		c-8.1,3.2-17.1,4.8-27.1,4.8c-10,0-19-1.6-27.2-4.8c-8.1-3.2-15.1-7.8-20.9-13.8s-10.2-13.2-13.4-21.7c-3.2-8.5-4.7-18-4.7-28.6
		c0-10.5,1.6-20,4.7-28.5c3.2-8.5,7.6-15.7,13.4-21.6s12.7-10.4,20.9-13.7C491.4,1678.3,500.5,1676.7,510.4,1676.7z M510.4,1789.4
		c11.1,0,19.3-3.7,24.6-11.2s8-18.4,8-32.8s-2.7-25.3-8-32.9s-13.5-11.3-24.6-11.3c-11.3,0-19.6,3.8-25,11.4s-8.1,18.5-8.1,32.8
		s2.7,25.2,8.1,32.7C490.9,1785.7,499.2,1789.4,510.4,1789.4z"/>
	<path class="st2" d="M601.3,1812.2v-133.4h19.6c4.2,0,6.9,1.9,8.2,5.8l2.1,9.9c2.3-2.6,4.8-5,7.3-7.1c2.6-2.2,5.3-4,8.2-5.6
		s6-2.8,9.4-3.7c3.3-0.9,7-1.4,11-1.4c8.4,0,15.3,2.3,20.7,6.8s9.5,10.6,12.2,18.1c2.1-4.4,4.7-8.2,7.8-11.4
		c3.1-3.2,6.5-5.7,10.3-7.7c3.7-2,7.7-3.5,11.9-4.4c4.2-1,8.4-1.4,12.7-1.4c7.4,0,13.9,1.1,19.6,3.4c5.7,2.3,10.5,5.5,14.4,9.9
		c3.9,4.3,6.9,9.6,8.9,15.9c2,6.2,3.1,13.4,3.1,21.4v84.9h-32.1v-84.9c0-8.5-1.9-14.9-5.6-19.2c-3.7-4.3-9.2-6.4-16.4-6.4
		c-3.3,0-6.3,0.6-9.2,1.7c-2.8,1.1-5.3,2.8-7.4,4.9c-2.1,2.1-3.8,4.8-5,8s-1.8,6.9-1.8,11v84.9H679v-84.9c0-8.9-1.8-15.4-5.4-19.5
		c-3.6-4.1-8.9-6.1-15.9-6.1c-4.6,0-8.9,1.1-12.9,3.4s-7.8,5.4-11.2,9.4v97.6L601.3,1812.2L601.3,1812.2z"/>
	<path class="st2" d="M820.2,1855.7v-176.9h19.6c2.1,0,3.9,0.5,5.3,1.4c1.5,1,2.4,2.4,2.9,4.4l2.6,12.3c5.4-6.2,11.5-11.1,18.5-14.9
		s15.1-5.7,24.5-5.7c7.3,0,13.9,1.5,20,4.6c6,3,11.2,7.4,15.6,13.2c4.4,5.8,7.8,12.9,10.1,21.3c2.4,8.5,3.6,18.1,3.6,29.1
		c0,10-1.3,19.2-4,27.7s-6.5,15.9-11.5,22.1s-11,11.1-18.1,14.6s-15,5.3-23.7,5.3c-7.5,0-13.9-1.2-19.2-3.4
		c-5.2-2.3-9.9-5.5-14.1-9.6v54.6L820.2,1855.7L820.2,1855.7z M882.6,1701.7c-6.7,0-12.4,1.4-17.1,4.2c-4.7,2.8-9.1,6.8-13.2,11.9
		v59.8c3.6,4.5,7.6,7.6,11.9,9.4c4.3,1.8,8.9,2.7,13.8,2.7c4.9,0,9.3-0.9,13.2-2.7c3.9-1.8,7.3-4.6,10-8.3c2.7-3.7,4.8-8.4,6.3-14.1
		s2.2-12.4,2.2-20.1c0-7.8-0.6-14.4-1.9-19.8c-1.3-5.4-3.1-9.8-5.4-13.2c-2.3-3.4-5.2-5.9-8.5-7.4
		C890.7,1702.5,886.9,1701.7,882.6,1701.7z"/>
	<path class="st2" d="M1011.1,1814.3c-11.5,0-20.4-3.3-26.7-9.8c-6.2-6.5-9.4-15.6-9.4-27.1v-74.5h-13.5c-1.7,0-3.2-0.6-4.5-1.7
		s-1.9-2.8-1.9-5.1v-12.7l21.5-3.5l6.8-36.4c0.3-1.7,1.1-3.1,2.4-4c1.3-1,2.8-1.4,4.7-1.4h16.6v42h35.1v22.9h-35.1v72.3
		c0,4.2,1,7.4,3.1,9.8c2.1,2.3,4.9,3.5,8.3,3.5c2,0,3.7-0.2,5-0.7s2.5-1,3.5-1.5s1.9-1,2.7-1.5c0.8-0.5,1.6-0.7,2.3-0.7
		c1,0,1.7,0.2,2.3,0.7c0.6,0.5,1.3,1.2,2,2.1l9.6,15.6c-4.7,3.9-10.1,6.8-16.1,8.8C1023.9,1813.3,1017.6,1814.3,1011.1,1814.3z"/>
	<path class="st2" d="M1172.4,1812.2H1158c-3,0-5.4-0.5-7.1-1.4s-3-2.8-3.9-5.5l-2.9-9.5c-3.4,3-6.7,5.7-9.9,8
		c-3.2,2.3-6.6,4.2-10.1,5.8c-3.5,1.6-7.1,2.7-11,3.5s-8.2,1.2-13,1.2c-5.6,0-10.8-0.8-15.6-2.3c-4.8-1.5-8.9-3.8-12.3-6.8
		s-6.1-6.8-8-11.3s-2.9-9.8-2.9-15.8c0-5,1.3-10,4-14.9c2.6-4.9,7-9.3,13.2-13.3s14.3-7.2,24.6-9.8c10.2-2.6,22.9-3.9,38.1-3.9v-7.9
		c0-9-1.9-15.7-5.7-20c-3.8-4.3-9.3-6.5-16.4-6.5c-5.2,0-9.5,0.6-13,1.8c-3.5,1.2-6.5,2.6-9,4.1c-2.6,1.5-4.9,2.9-7.1,4.1
		s-4.5,1.8-7.2,1.8c-2.2,0-4-0.6-5.6-1.7s-2.8-2.5-3.8-4.2l-5.8-10.3c15.3-14,33.8-21.1,55.5-21.1c7.8,0,14.8,1.3,20.9,3.8
		c6.1,2.6,11.3,6.1,15.5,10.7c4.2,4.5,7.5,10,9.7,16.3s3.3,13.3,3.3,20.8L1172.4,1812.2L1172.4,1812.2z M1110,1792.2
		c3.3,0,6.3-0.3,9.1-0.9c2.8-0.6,5.4-1.5,7.9-2.7s4.9-2.7,7.2-4.4c2.3-1.7,4.6-3.8,7-6.2v-22.3c-9.4,0-17.2,0.6-23.5,1.8
		c-6.3,1.2-11.3,2.7-15.1,4.5c-3.8,1.8-6.5,4-8.1,6.4s-2.4,5.1-2.4,8c0,5.7,1.7,9.7,5,12.2C1100.3,1791,1104.6,1792.2,1110,1792.2z"
		/>
	<path class="st2" d="M1204.4,1812.2V1619h32.1v76.2c5.3-5.6,11.3-10.1,17.9-13.5c6.7-3.3,14.5-5,23.4-5c7.3,0,13.9,1.5,20,4.5
		c6,3,11.2,7.3,15.6,13.1c4.4,5.7,7.8,12.8,10.1,21.2c2.4,8.4,3.6,18.1,3.6,29c0,10-1.3,19.2-4,27.7s-6.5,15.9-11.5,22.1
		s-11,11.1-18.1,14.6s-15,5.3-23.7,5.3c-4.1,0-7.8-0.4-11.2-1.2c-3.4-0.8-6.5-2-9.2-3.4c-2.8-1.5-5.4-3.3-7.7-5.4
		c-2.4-2.1-4.7-4.5-6.8-7.1l-1.4,9c-0.5,2.3-1.4,3.9-2.7,4.8c-1.3,1-3,1.4-5.1,1.4L1204.4,1812.2L1204.4,1812.2z M1266.8,1701.7
		c-6.7,0-12.4,1.4-17.1,4.2c-4.7,2.8-9.1,6.8-13.2,11.9v59.8c3.6,4.5,7.6,7.6,11.9,9.4s8.9,2.7,14,2.7c4.9,0,9.2-0.9,13.1-2.7
		c3.9-1.8,7.2-4.6,9.9-8.3c2.7-3.7,4.8-8.4,6.3-14.1s2.2-12.4,2.2-20.1c0-7.8-0.6-14.4-1.9-19.8s-3.1-9.8-5.4-13.2s-5.2-5.9-8.5-7.4
		C1274.8,1702.5,1271,1701.7,1266.8,1701.7z"/>
	<path class="st2" d="M1391.2,1639.9c0,2.8-0.6,5.4-1.7,7.8s-2.6,4.5-4.5,6.4c-1.9,1.8-4.1,3.3-6.6,4.4s-5.2,1.6-8.1,1.6
		c-2.8,0-5.4-0.5-7.9-1.6s-4.6-2.5-6.4-4.4c-1.8-1.8-3.3-3.9-4.4-6.4c-1.1-2.4-1.6-5-1.6-7.8c0-2.9,0.5-5.5,1.6-8.1
		c1.1-2.5,2.5-4.7,4.4-6.5c1.8-1.8,4-3.3,6.4-4.4c2.5-1.1,5.1-1.6,7.9-1.6c2.9,0,5.5,0.5,8.1,1.6c2.5,1.1,4.7,2.5,6.6,4.4
		c1.9,1.8,3.4,4,4.5,6.5C1390.6,1634.4,1391.2,1637.1,1391.2,1639.9z M1386.4,1678.8v133.4h-32.1v-133.4H1386.4z"/>
	<path class="st2" d="M1456.8,1619v193.2h-32.1V1619H1456.8z"/>
	<path class="st2" d="M1532.1,1639.9c0,2.8-0.6,5.4-1.7,7.8s-2.6,4.5-4.5,6.4c-1.9,1.8-4.1,3.3-6.6,4.4s-5.2,1.6-8.1,1.6
		c-2.8,0-5.4-0.5-7.9-1.6s-4.6-2.5-6.4-4.4c-1.8-1.8-3.3-3.9-4.4-6.4c-1.1-2.4-1.6-5-1.6-7.8c0-2.9,0.5-5.5,1.6-8.1
		c1.1-2.5,2.5-4.7,4.4-6.5c1.8-1.8,4-3.3,6.4-4.4c2.5-1.1,5.1-1.6,7.9-1.6c2.9,0,5.5,0.5,8.1,1.6c2.5,1.1,4.7,2.5,6.6,4.4
		c1.9,1.8,3.4,4,4.5,6.5C1531.5,1634.4,1532.1,1637.1,1532.1,1639.9z M1527.3,1678.8v133.4h-32.1v-133.4H1527.3z"/>
	<path class="st2" d="M1607.4,1814.3c-11.5,0-20.4-3.3-26.7-9.8c-6.2-6.5-9.4-15.6-9.4-27.1v-74.5h-13.5c-1.7,0-3.2-0.6-4.5-1.7
		s-1.9-2.8-1.9-5.1v-12.7l21.4-3.5l6.8-36.4c0.3-1.7,1.1-3.1,2.4-4c1.3-1,2.8-1.4,4.7-1.4h16.6v42h35.1v22.9h-35.1v72.3
		c0,4.2,1,7.4,3.1,9.8c2.1,2.3,4.9,3.5,8.3,3.5c2,0,3.7-0.2,5-0.7s2.5-1,3.5-1.5s1.9-1,2.7-1.5c0.8-0.5,1.6-0.7,2.3-0.7
		c1,0,1.7,0.2,2.3,0.7c0.6,0.5,1.3,1.2,2,2.1l9.6,15.6c-4.7,3.9-10.1,6.8-16.1,8.8C1620.2,1813.3,1613.9,1814.3,1607.4,1814.3z"/>
	<path class="st2" d="M1719.3,1676.7c8.4,0,16.1,1.3,23.2,4s13.2,6.6,18.3,11.8c5.1,5.2,9.1,11.5,12,19s4.3,16.1,4.3,25.7
		c0,2.4-0.1,4.4-0.3,6c-0.2,1.6-0.6,2.9-1.2,3.8s-1.3,1.6-2.3,2s-2.2,0.6-3.6,0.6h-82.4c1,13.7,4.6,23.7,11,30.2
		c6.4,6.4,14.9,9.6,25.5,9.6c5.2,0,9.7-0.6,13.5-1.8c3.8-1.2,7.1-2.6,9.9-4c2.8-1.5,5.3-2.8,7.4-4s4.2-1.8,6.2-1.8
		c1.3,0,2.4,0.3,3.4,0.8s1.8,1.3,2.5,2.2l9.4,11.7c-3.6,4.2-7.5,7.7-12,10.5c-4.4,2.8-9,5.1-13.8,6.8c-4.8,1.7-9.7,2.9-14.7,3.6
		s-9.8,1-14.5,1c-9.3,0-17.9-1.5-25.9-4.6s-14.9-7.6-20.8-13.7c-5.9-6-10.5-13.5-13.9-22.4s-5.1-19.2-5.1-30.9
		c0-9.1,1.5-17.7,4.4-25.7s7.2-15,12.7-20.9s12.2-10.6,20.1-14.1C1700.4,1678.5,1709.3,1676.7,1719.3,1676.7z M1719.9,1699.7
		c-9.4,0-16.7,2.6-22,7.9s-8.7,12.8-10.1,22.5h60.3c0-4.2-0.6-8.1-1.7-11.8c-1.1-3.7-2.9-6.9-5.2-9.7c-2.3-2.8-5.3-5-8.8-6.6
		C1728.9,1700.5,1724.7,1699.7,1719.9,1699.7z M1765.1,1622.1L1733,1656c-1.6,1.7-3.2,2.9-4.7,3.6s-3.5,1-5.9,1H1703l18.5-31.6
		c1.3-2.3,2.8-4,4.5-5.1c1.7-1.2,4.3-1.8,7.8-1.8H1765.1z"/>
</g>
<path class="st3" d="M721.2,1252.4c0-48-38.5-86.5-86.5-86.5s-86.6,38.5-86.6,86.5s38.5,86.6,86.6,86.6S721.2,1300.5,721.2,1252.4
	L721.2,1252.4z M980.8,1252.4c0-48-38.5-86.5-86.6-86.5s-86.5,38.5-86.5,86.5s38.5,86.6,86.5,86.6S980.8,1300.5,980.8,1252.4z
	 M721.2,993c0-48.1-38.5-86.6-86.5-86.6s-86.6,38.5-86.6,86.6s38.5,86.5,86.6,86.5S721.2,1040.9,721.2,993L721.2,993z
	 M1240.3,1252.4c0-48-38.6-86.5-86.6-86.5s-86.5,38.5-86.5,86.5s38.5,86.6,86.5,86.6S1240.3,1300.5,1240.3,1252.4z M980.8,993
	c0-48.1-38.5-86.6-86.6-86.6s-86.5,38.5-86.5,86.6s38.5,86.5,86.5,86.5S980.8,1040.9,980.8,993z M721.2,733.4
	c0-48-38.5-86.6-86.5-86.6s-86.6,38.6-86.6,86.6s38.5,86.5,86.6,86.5S721.2,781.4,721.2,733.4L721.2,733.4z M1240.3,993
	c0-48.1-38.6-86.6-86.6-86.6s-86.5,38.5-86.5,86.6s38.5,86.5,86.5,86.5S1240.3,1040.9,1240.3,993z M980.8,733.4
	c0-48-38.5-86.6-86.6-86.6s-86.5,38.6-86.5,86.6s38.5,86.5,86.5,86.5S980.8,781.4,980.8,733.4z M1499.7,1252.4V993
	c0-47.4-39.1-86.6-86.5-86.6l0,0c-47.2,0-86.5,39.2-86.5,86.6v259.4c0,47.4,39.2,86.6,86.5,86.6l0,0
	C1460.6,1339,1499.7,1299.7,1499.7,1252.4z M1240.3,733.4c0-48-38.6-86.6-86.6-86.6s-86.5,38.6-86.5,86.6s38.5,86.5,86.5,86.5
	S1240.3,781.4,1240.3,733.4z M1499.7,517.1V344c0-23.6-19.5-43.2-43.2-43.2H591.4c-23.6,0-43.2,19.6-43.2,43.2v173.1
	c0,23.6,19.6,43.2,43.2,43.2h865.1C1480.2,560.3,1499.7,540.7,1499.7,517.1L1499.7,517.1z M1499.7,733.4c0-48-38.5-86.6-86.5-86.6
	s-86.5,38.6-86.5,86.6s38.5,86.5,86.5,86.5S1499.7,781.4,1499.7,733.4z M1586.3,300.8V1339c0,47.2-39.2,86.5-86.6,86.5H548.1
	c-47.2,0-86.5-39.2-86.5-86.5V300.8c0-47.2,39.2-86.5,86.5-86.5h951.6C1547.1,214.3,1586.3,253.6,1586.3,300.8z"/>
</svg>
