<?xml version="1.0" encoding="utf-8"?>
<!-- Generator: Adobe Illustrator 26.0.2, SVG Export Plug-In . SVG Version: 6.00 Build 0)  -->
<svg version="1.1"
	 id="svg4" inkscape:version="0.92.5 (2060ec1f9f, 2020-04-08)" sodipodi:docname="ufa46-magnifying-glass-dollar.svg" xmlns:cc="http://creativecommons.org/ns#" xmlns:dc="http://purl.org/dc/elements/1.1/" xmlns:inkscape="http://www.inkscape.org/namespaces/inkscape" xmlns:rdf="http://www.w3.org/1999/02/22-rdf-syntax-ns#" xmlns:sodipodi="http://sodipodi.sourceforge.net/DTD/sodipodi-0.dtd" xmlns:svg="http://www.w3.org/2000/svg"
	 xmlns="http://www.w3.org/2000/svg" xmlns:xlink="http://www.w3.org/1999/xlink" x="0px" y="0px" viewBox="0 0 1000 1000"
	 style="enable-background:new 0 0 1000 1000;" xml:space="preserve">
<style type="text/css">
	.st0{fill:#333333;}
</style>
<sodipodi:namedview  bordercolor="#666666" borderopacity="1" gridtolerance="10" guidetolerance="10" id="namedview6" inkscape:current-layer="svg4" inkscape:cx="256" inkscape:cy="256" inkscape:pageopacity="0" inkscape:pageshadow="2" inkscape:window-height="1016" inkscape:window-maximized="1" inkscape:window-width="1920" inkscape:window-x="0" inkscape:window-y="27" inkscape:zoom="0.4609375" objecttolerance="10" pagecolor="#ffffff" showgrid="false">
	</sodipodi:namedview>
<path id="path2" inkscape:connector-curvature="0" class="st0" d="M977.1,866.7L743.3,632.9c53.2-78.9,79.4-177.5,65.4-282.6
	C784.8,171.4,638.2,26,459.3,3.4c-266-33.7-489.7,190-455.9,455.9c22.7,179,168.1,325.6,346.9,349.4c105.1,14,203.7-12.2,282.6-65.4
	l233.8,233.8c30.5,30.5,80,30.5,110.5,0C1007.6,946.8,1007.6,897.2,977.1,866.7z M534.5,495.8c-7.6,44.1-41.2,73.2-89.3,82.6v15.4
	c0,21.5-17.5,39.1-39.1,39.1c-21.6,0-39.1-17.6-39.1-39.1v-17.2c-19.1-3.9-38.3-10.4-55.5-16.4l-9.4-3.3
	c-20.3-7.2-31.1-29.7-23.8-50c7-20.3,29.3-30.9,49.8-23.8l9.9,3.5c16.7,6,35.6,12.8,50.6,15.1c31.7,4.9,65.4-0.1,68.7-19.2
	c2.4-13.9,0.8-20.7-62.1-38.8l-12.2-3.5c-35.9-12.3-120.5-35.4-105.3-123.4c7.6-44.1,41.4-73,89.3-82.4v-15.6
	c0-21.5,17.5-39.1,39.1-39.1c21.6,0,39.1,15.8,39.1,39.1v17c12.2,2.5,25.5,6,41.9,11.7c20.4,7.1,31.2,29.4,24.1,49.7
	c-7,20.4-29.3,31.1-49.8,24.1c-15.8-5.5-28.3-9-38.1-10.4c-31.5-5.1-65.2,0.1-68.5,19.2c-2,11.4-3.4,19.5,50.2,35.2l11.7,3.4
	C466.6,382.9,549.8,406.7,534.5,495.8z"/>
</svg>
