<?xml version="1.0" encoding="utf-8"?>
<!-- Generator: Adobe Illustrator 26.0.2, SVG Export Plug-In . SVG Version: 6.00 Build 0)  -->
<svg version="1.1"
	 id="svg4" inkscape:version="0.92.5 (2060ec1f9f, 2020-04-08)" sodipodi:docname="ufa45-hand-holding-dollar.svg" xmlns:cc="http://creativecommons.org/ns#" xmlns:dc="http://purl.org/dc/elements/1.1/" xmlns:inkscape="http://www.inkscape.org/namespaces/inkscape" xmlns:rdf="http://www.w3.org/1999/02/22-rdf-syntax-ns#" xmlns:sodipodi="http://sodipodi.sourceforge.net/DTD/sodipodi-0.dtd" xmlns:svg="http://www.w3.org/2000/svg"
	 xmlns="http://www.w3.org/2000/svg" xmlns:xlink="http://www.w3.org/1999/xlink" x="0px" y="0px" viewBox="0 0 1000 1000"
	 style="enable-background:new 0 0 1000 1000;" xml:space="preserve">
<style type="text/css">
	.st0{fill:#333333;}
</style>
<sodipodi:namedview  bordercolor="#666666" borderopacity="1" gridtolerance="10" guidetolerance="10" id="namedview6" inkscape:current-layer="svg4" inkscape:cx="-168.67797" inkscape:cy="256" inkscape:pageopacity="0" inkscape:pageshadow="2" inkscape:window-height="1016" inkscape:window-maximized="1" inkscape:window-width="1920" inkscape:window-x="0" inkscape:window-y="27" inkscape:zoom="0.4609375" objecttolerance="10" pagecolor="#ffffff" showgrid="false">
	</sodipodi:namedview>
<path id="path2" inkscape:connector-curvature="0" class="st0" d="M986.7,639.4c-22.8-30.9-66.2-37.6-97.1-14.7L681.7,777.8H472.3
	c-15.2,0-26.2-12.6-26.2-27.8c0-15.2,12.6-27.8,26.2-27.8h135.9c26.2,0,53.4-18.9,57.9-46.2c5.6-34.7-21-64.9-54.9-64.9H331.8
	c-45.3,0-92.2,16.1-128.7,45.6l-80.7,65.5l-96.2-1.6C12.6,720.7,0,734.9,0,750v166.7c0,15.3,12.6,27.8,26.2,27.8h601
	c38.3,0,76.3-12.5,107.1-35.2l234.6-172.8C1002.8,713.8,1009.4,670.3,986.7,639.4z M485,359.3c-13.2-1.9-30.6-8.2-45.8-13.7l-8.5-3
	c-21.7-9.2-45.5,3.6-53.1,23.8c-7.6,20.1,3.7,45.5,25.3,53.2l8.1,2.9c14.7,5.3,31,10.6,47.6,14.4v21.3c0,23,18.6,41.7,41.6,41.7
	c23,0,41.7-18.7,41.7-41.7v-18.1c43.9-9.9,74.5-37.9,80.1-79.4C636.9,274,554.3,250.3,510,237.7l-9.2-3.2
	c-45.7-13-43.1-18.5-41.8-25.7c2-11.7,26.6-17.5,55.9-12.8c8.6,1.4,19.7,4.4,34.1,9.4c21.8,7.4,45.5-4,53-25.8s-4-45.5-25.8-53
	c-13.2-4.6-24.2-7.6-34.4-9.9V97.1c0-23-18.7-41.7-41.7-41.7s-41.6,18.7-41.6,41.7v18.3c-43.8,9.9-74.6,37.7-83.2,79.2
	c-13.4,85.9,70.5,110.6,102.1,119.9l11.3,3.3c55,15.7,54.1,20.6,52.7,28.9C539.3,358.5,514.9,364.2,485,359.3L485,359.3z"/>
</svg>
