<?xml version="1.0" encoding="utf-8"?>
<!-- Generator: Adobe Illustrator 26.0.2, SVG Export Plug-In . SVG Version: 6.00 Build 0)  -->
<svg version="1.1" id="Calque_1" xmlns="http://www.w3.org/2000/svg" xmlns:xlink="http://www.w3.org/1999/xlink" x="0px" y="0px"
	 viewBox="0 0 850 1000" style="enable-background:new 0 0 850 1000;" xml:space="preserve">
<style type="text/css">
	.st0{fill:#487BD4;}
</style>
<path class="st0" d="M425,75c234.8,0,425,190.2,425,425S659.8,925,425,925S0,734.8,0,500S190.2,75,425,75z M425,135.7
	c-61.6,0-120,15.6-171.3,42.8l92.1,92c25.2-8.5,51.7-13.3,79.2-13.3c28,0,54.1,4.8,79.2,13.3l92.1-92
	C545,151.3,486.6,135.7,425,135.7z M103.4,671.3l92-92.1c-8.5-25.2-13.3-51.7-13.3-79.2c0-28,4.8-54.1,13.3-79.2l-92-92.1
	C76.3,380,60.7,438.4,60.7,500S76.3,620,103.4,671.3z M425,864.3c61.6,0,120-15.6,171.3-42.8l-92.1-92
	c-25.2,8.5-51.3,13.3-79.2,13.3c-27.5,0-54.1-4.8-79.2-13.3l-92.1,92C305,848.7,363.4,864.3,425,864.3z M425,682.2
	c100.6,0,182.2-81.6,182.2-182.2S525.6,317.8,425,317.8S242.8,399.4,242.8,500S324.4,682.2,425,682.2z M654.6,579.2l92,92.1
	c27.1-51.3,42.8-109.7,42.8-171.3s-15.6-120-42.8-171.3l-92,92.1c8.5,25.2,13.3,51.7,13.3,79.2C667.8,527.5,663.1,554.1,654.6,579.2
	z"/>
</svg>
