<?xml version="1.0" encoding="utf-8"?>
<!-- Generator: Adobe Illustrator 26.0.2, SVG Export Plug-In . SVG Version: 6.00 Build 0)  -->
<svg version="1.1" id="Calque_1" xmlns="http://www.w3.org/2000/svg" xmlns:xlink="http://www.w3.org/1999/xlink" x="0px" y="0px"
	 viewBox="0 0 237.9 226.6" style="enable-background:new 0 0 237.9 226.6;" xml:space="preserve">
<style type="text/css">
	.st0{clip-path:url(#SVGID_00000085220619556999862970000006099076565410827196_);}
	.st1{fill:url(#SVGID_00000027570641008333052000000012615485412551606427_);}
	.st2{fill:#97C355;}
	.st3{clip-path:url(#SVGID_00000054960456126887962810000008843362184003589803_);fill:#006E6F;}
	.st4{fill:#5CB057;}
	.st5{fill:#FFFFFF;}
</style>
<g>
	<g>
		<g>
			<g>
				<defs>
					<path id="SVGID_1_" d="M237.9,205.3c0,11.7-9.5,21.2-21.2,21.2H32.6c-11.7,0-21.2-9.5-21.2-21.2V21.2C11.3,9.5,20.8,0,32.6,0
						h184.1c11.7,0,21.2,9.5,21.2,21.2L237.9,205.3L237.9,205.3z"/>
				</defs>
				<clipPath id="SVGID_00000042008135988053188100000011533834341822229398_">
					<use xlink:href="#SVGID_1_"  style="overflow:visible;"/>
				</clipPath>
				<g style="clip-path:url(#SVGID_00000042008135988053188100000011533834341822229398_);">
					<g>
						<g>
							<g>
								
									<linearGradient id="SVGID_00000149356181786834014230000009216336507527848848_" gradientUnits="userSpaceOnUse" x1="127.0015" y1="325.034" x2="160.1224" y2="105.7576" gradientTransform="matrix(1 0 0 1 0 -112.4183)">
									<stop  offset="0" style="stop-color:#FFFFFF"/>
									<stop  offset="0.1427" style="stop-color:#C3EBFA"/>
									<stop  offset="0.2991" style="stop-color:#88D7F4"/>
									<stop  offset="0.4503" style="stop-color:#58C7F0"/>
									<stop  offset="0.5924" style="stop-color:#32BBEC"/>
									<stop  offset="0.7232" style="stop-color:#16B1EA"/>
									<stop  offset="0.8385" style="stop-color:#06ACE9"/>
									<stop  offset="0.9264" style="stop-color:#00AAE8"/>
								</linearGradient>
								<path style="fill:url(#SVGID_00000149356181786834014230000009216336507527848848_);" d="M240.1,23.2
									c-1.3-9.1-7.2-25.8-25.4-11.3c-3.1,2.5-103.9,86.4-191.5,157.7C-2.4,190.5,5.2,194,22,194c27.3,0,232.8-6.3,232.8-6.3
									S242.3,38.9,240.1,23.2z"/>
							</g>
						</g>
					</g>
					<path class="st2" d="M8.2,169.6c0.3,12.2-2.1,54.4,1.3,60.7c4.4,8.1,210.9,8.8,228.5-3.8c9.9-7.1,145.8,4.9,133.3-4.4
						C325.5,188.4,6.9,110.2,8.2,169.6z"/>
				</g>
			</g>
		</g>
		<g>
			<g>
				<defs>
					<path id="SVGID_00000095298050900246538500000007444933746910944400_" d="M237.9,205.3c0,11.7-9.5,21.2-21.2,21.2H32.6
						c-11.7,0-21.2-9.5-21.2-21.2V21.2C11.3,9.5,20.8,0,32.6,0h184.1c11.7,0,21.2,9.5,21.2,21.2L237.9,205.3L237.9,205.3z"/>
				</defs>
				<clipPath id="SVGID_00000080207180582775848580000016032976921590292871_">
					<use xlink:href="#SVGID_00000095298050900246538500000007444933746910944400_"  style="overflow:visible;"/>
				</clipPath>
				<path style="clip-path:url(#SVGID_00000080207180582775848580000016032976921590292871_);fill:#006E6F;" d="M135.2,87.6
					c0,7.6-6.2,13.8-13.8,13.8c-7.6,0-13.8-6.2-13.8-13.8c0-7.6,6.2-13.8,13.8-13.8C129.1,73.9,135.2,80,135.2,87.6z"/>
			</g>
		</g>
	</g>
	<path class="st4" d="M53.9,13.4c1.4,0.5,29.8-35.1,35.1,13.3c0,0,37.8,26.1-7.5,34.1c0,0,4.3,50-31.9,9.6c0,0-36.7,31.4-28.7-12.8
		c0,0-44.7-16.5-3.2-29.8C17.7,27.8,8.6-1.5,53.9,13.4z"/>
	<g>
		<path class="st5" d="M37.4,180.9h21.4v6.5H44.4v6.5h13.3v6.5H44.4v12.4h-7V180.9z"/>
		<path class="st5" d="M90.6,189.2c-0.7-0.8-1.5-1.5-2.5-1.9s-2.2-0.7-3.5-0.7s-2.5,0.3-3.7,0.8c-1.1,0.5-2.1,1.2-2.9,2.1
			c-0.8,0.9-1.5,2-1.9,3.3c-0.5,1.3-0.7,2.6-0.7,4.1s0.2,2.9,0.7,4.1c0.5,1.2,1.1,2.3,1.9,3.2s1.8,1.6,2.9,2.1s2.3,0.8,3.5,0.8
			c1.4,0,2.7-0.3,3.8-0.9c1.1-0.6,2-1.4,2.8-2.5l5.9,4.4c-1.4,1.9-3.1,3.3-5.1,4.2c-2.1,0.9-4.2,1.4-6.4,1.4c-2.5,0-4.8-0.4-6.9-1.2
			s-3.9-1.9-5.5-3.4c-1.5-1.5-2.7-3.2-3.6-5.3s-1.3-4.4-1.3-6.9s0.4-4.9,1.3-6.9c0.9-2.1,2.1-3.8,3.6-5.3s3.3-2.6,5.5-3.4
			c2.1-0.8,4.4-1.2,6.9-1.2c0.9,0,1.8,0.1,2.8,0.2c1,0.2,1.9,0.4,2.9,0.8s1.9,0.8,2.7,1.4c0.9,0.6,1.7,1.3,2.3,2.2L90.6,189.2z"/>
		<path class="st5" d="M135.3,210.6c-2.1,1.1-4.2,1.9-6.5,2.3c-2.3,0.5-4.6,0.7-6.9,0.7c-2.5,0-4.8-0.4-6.9-1.2s-3.9-1.9-5.5-3.4
			c-1.5-1.5-2.7-3.2-3.6-5.3s-1.3-4.4-1.3-6.9s0.4-4.9,1.3-6.9c0.9-2.1,2.1-3.8,3.6-5.3s3.4-2.6,5.5-3.4c2.1-0.8,4.4-1.2,6.9-1.2
			c2.6,0,4.9,0.3,7.1,0.9c2.1,0.6,4,1.7,5.7,3.2l-5,5.4c-1-1-2-1.7-3.2-2.3s-2.7-0.8-4.5-0.8c-1.5,0-2.9,0.3-4.1,0.8
			s-2.3,1.2-3.1,2.1c-0.9,0.9-1.5,2-2,3.3s-0.7,2.6-0.7,4.1s0.2,2.9,0.7,4.1c0.5,1.2,1.1,2.3,2,3.2s1.9,1.6,3.1,2.1s2.6,0.8,4.1,0.8
			s2.9-0.2,4-0.5s2-0.7,2.7-1.1v-5.2H123v-6.5h12.5L135.3,210.6L135.3,210.6z"/>
		<path class="st5" d="M157.9,180.9h5.8l13.9,31.9h-7.9L167,206h-12.4l-2.7,6.8h-7.8L157.9,180.9z M160.6,190.2l-3.9,9.9h7.8
			L160.6,190.2z"/>
		<path class="st5" d="M197.1,180.9h5.8l13.9,31.9h-7.9l-2.7-6.8h-12.4l-2.7,6.8h-7.8L197.1,180.9z M199.8,190.2l-3.9,9.9h7.8
			L199.8,190.2z"/>
	</g>
</g>
</svg>
