<?xml version="1.0" encoding="utf-8"?>
<!-- Generator: Adobe Illustrator 26.0.2, SVG Export Plug-In . SVG Version: 6.00 Build 0)  -->
<svg version="1.1" id="Calque_1" xmlns="http://www.w3.org/2000/svg" xmlns:xlink="http://www.w3.org/1999/xlink" x="0px" y="0px"
	 viewBox="0 0 640 512" style="enable-background:new 0 0 640 512;" xml:space="preserve">
<style type="text/css">
	.st0{fill:#333333;}
</style>
<path class="st0" d="M256,336c0-16.1,1.4-8.8-85.1-181.5C162.1,136.9,145,128,128,128s-34.1,8.9-43,26.5C-2,328.8,0,320.4,0,336
	c0,44.1,57.2,80,127.1,80S256,380.1,256,336z M127.9,176l72.2,144H56L127.9,176z M519.1,464H344V155.9c27.4-8.7,48.6-31.3,54.4-59.9
	H520c13.2,0,23.1-10.8,23.1-23.1c0-14.1-9.8-24.9-24-24.9H392.4C380.9,19.8,352.7,0,320,0s-60.9,19.8-73.2,48H120
	c-13.2,0-23.1,10.8-23.1,23.1S106.7,96,120,96h121.6c5.8,28.6,27,51.3,54.4,59.9V464H120c-13.2,0-23.1,10.8-23.1,23.1
	S106.7,512,120,512h399.1c13.2,0,23.1-10.8,23.1-23.1C543.1,474.7,533.3,464,519.1,464z M320,112c-17.6,0-31.1-14.4-31.1-32
	s14.4-32,31.1-32s31.1,14.4,31.1,32S337.6,112,320,112z M639.1,336c0-16.1,1.4-8.8-85.1-181.5c-7.9-17.6-25.9-26.5-42.9-26.5
	s-34.1,8.9-43,26.5C382,328.8,384,320.4,384,336c0,44.1,57.2,80,128,80S639.1,380.1,639.1,336z M439.1,320c0,0,53.5-106.5,72-144
	l72.2,144H439.1z"/>
</svg>
