<?xml version="1.0" encoding="utf-8"?>
<!-- Generator: Adobe Illustrator 22.0.1, SVG Export Plug-In . SVG Version: 6.00 Build 0)  -->
<svg version="1.1" id="Capa_1" xmlns="http://www.w3.org/2000/svg" xmlns:xlink="http://www.w3.org/1999/xlink" x="0px" y="0px"
	 viewBox="0 0 338.5 438.5" style="enable-background:new 0 0 338.5 438.5;" xml:space="preserve">
<style type="text/css">
	.st0{fill:#666666;}
</style>
<g>
	<g>
		<path class="st0" d="M338,229.3c0-4.9-1.8-9.2-5.4-12.9L177.3,61.1c-3.6-3.6-7.9-5.4-12.8-5.4s-9.2,1.8-12.9,5.4
			c-3.6,3.6-5.4,7.9-5.4,12.9v82.2H18.3c-5,0-9.2,1.8-12.9,5.4c-3.6,3.6-5.4,7.9-5.4,12.9v109.6c0,4.9,1.8,9.2,5.4,12.8
			c3.6,3.6,7.9,5.4,12.9,5.4h127.9v82.2c0,4.9,1.8,9.2,5.4,12.8c3.6,3.6,7.9,5.4,12.9,5.4c4.9,0,9.2-1.8,12.8-5.4L332.6,242
			C336.2,238.5,338,234.2,338,229.3z"/>
	</g>
</g>
</svg>
