<?xml version="1.0" encoding="utf-8"?>
<!-- Generator: Adobe Illustrator 21.1.0, SVG Export Plug-In . SVG Version: 6.00 Build 0)  -->
<svg version="1.1" id="Calque_1" xmlns="http://www.w3.org/2000/svg" xmlns:xlink="http://www.w3.org/1999/xlink" x="0px" y="0px"
	 viewBox="0 0 2048 2048" style="enable-background:new 0 0 2048 2048;" xml:space="preserve">
<style type="text/css">
	.st0{fill:url(#SVGID_1_);}
	.st1{fill:#DCDCDC;}
	.st2{fill:#333333;stroke:#333333;}
	.st3{fill:#333333;}
</style>
<g>
	
		<linearGradient id="SVGID_1_" gradientUnits="userSpaceOnUse" x1="1024" y1="12.5" x2="1024" y2="2035.5" gradientTransform="matrix(1 0 0 -1 0 2048)">
		<stop  offset="0" style="stop-color:#E8E8E8"/>
		<stop  offset="1" style="stop-color:#F9F9F9"/>
	</linearGradient>
	<path class="st0" d="M50,2035.5c-20.7,0-37.5-16.8-37.5-37.5V50c0-20.7,16.8-37.5,37.5-37.5h1948c20.7,0,37.5,16.8,37.5,37.5v1948
		c0,20.7-16.8,37.5-37.5,37.5H50z"/>
	<path class="st1" d="M1998,25c13.8,0,25,11.2,25,25v1948c0,13.8-11.2,25-25,25H50c-13.8,0-25-11.2-25-25V50c0-13.8,11.2-25,25-25
		H1998 M1998,0H50C22.5,0,0,22.5,0,50v1948c0,27.5,22.5,50,50,50h1948c27.5,0,50-22.5,50-50V50C2048,22.5,2025.5,0,1998,0L1998,0z"
		/>
</g>
<g>
	<path class="st2" d="M177.5,1624.2h28.2c3,0,5.5,0.7,7.4,2.2c1.9,1.5,3.3,3.4,4.3,5.7l44.2,114.7c1.5,3.7,2.9,7.8,4.2,12.3
		c1.3,4.5,2.6,9.2,3.8,14.1c2-10,4.5-18.8,7.4-26.4l44.1-114.7c0.8-2,2.2-3.8,4.2-5.5c2-1.6,4.5-2.5,7.4-2.5h28.2l-75.9,188h-31.6
		L177.5,1624.2z"/>
	<path class="st2" d="M417.9,1676.7c8.4,0,16.1,1.3,23.2,4c7.1,2.7,13.2,6.6,18.3,11.8c5.1,5.2,9.1,11.5,12,19
		c2.9,7.5,4.3,16.1,4.3,25.7c0,2.4-0.1,4.4-0.3,6c-0.2,1.6-0.6,2.9-1.2,3.8c-0.6,0.9-1.3,1.6-2.3,2c-1,0.4-2.2,0.6-3.6,0.6h-82.4
		c1,13.7,4.6,23.7,11.1,30.2c6.4,6.4,14.9,9.6,25.5,9.6c5.2,0,9.7-0.6,13.5-1.8c3.8-1.2,7.1-2.6,9.9-4c2.8-1.5,5.3-2.8,7.4-4
		c2.1-1.2,4.2-1.8,6.2-1.8c1.3,0,2.4,0.3,3.4,0.8c1,0.5,1.8,1.3,2.5,2.2l9.4,11.7c-3.6,4.2-7.5,7.7-12,10.5c-4.4,2.8-9,5.1-13.8,6.8
		c-4.8,1.7-9.7,2.9-14.7,3.6c-5,0.7-9.8,1-14.5,1c-9.3,0-17.9-1.5-25.9-4.6c-8-3.1-14.9-7.6-20.8-13.7c-5.9-6-10.5-13.5-13.9-22.4
		c-3.4-8.9-5.1-19.2-5.1-30.9c0-9.1,1.5-17.7,4.4-25.7c2.9-8,7.2-15,12.7-20.9c5.5-5.9,12.2-10.6,20.1-14.1
		C399,1678.5,407.9,1676.7,417.9,1676.7z M418.5,1699.7c-9.4,0-16.7,2.6-22,7.9c-5.3,5.3-8.7,12.8-10.1,22.5h60.3
		c0-4.2-0.6-8.1-1.7-11.8c-1.1-3.7-2.9-6.9-5.2-9.7c-2.3-2.8-5.3-5-8.8-6.6C427.5,1700.5,423.3,1699.7,418.5,1699.7z"/>
	<path class="st2" d="M501.7,1812.2v-133.4h19.6c4.2,0,6.9,1.9,8.2,5.8l2.2,10.5c2.7-2.8,5.5-5.3,8.5-7.5c3-2.3,6.2-4.2,9.5-5.9
		c3.3-1.6,6.9-2.9,10.7-3.8c3.8-0.9,8-1.3,12.5-1.3c7.3,0,13.7,1.2,19.4,3.7c5.6,2.5,10.3,5.9,14.1,10.4c3.8,4.5,6.6,9.8,8.6,16
		c1.9,6.2,2.9,13,2.9,20.5v84.9h-32.1v-84.9c0-8.1-1.9-14.5-5.7-18.9c-3.8-4.5-9.4-6.7-17-6.7c-5.5,0-10.7,1.3-15.6,3.8
		c-4.9,2.5-9.4,5.9-13.8,10.3v96.5H501.7z"/>
	<path class="st2" d="M693.3,1814.3c-11.5,0-20.4-3.3-26.7-9.8c-6.2-6.5-9.4-15.6-9.4-27.1v-74.5h-13.5c-1.7,0-3.2-0.6-4.5-1.7
		c-1.3-1.1-1.9-2.8-1.9-5.1v-12.7l21.5-3.5l6.8-36.4c0.3-1.7,1.1-3.1,2.4-4c1.3-1,2.8-1.4,4.7-1.4h16.6v42h35.1v22.9h-35.1v72.3
		c0,4.2,1,7.4,3.1,9.8c2.1,2.3,4.9,3.5,8.3,3.5c2,0,3.7-0.2,5-0.7c1.3-0.5,2.5-1,3.5-1.5c1-0.5,1.9-1,2.7-1.5
		c0.8-0.5,1.6-0.7,2.3-0.7c1,0,1.7,0.2,2.3,0.7c0.6,0.5,1.3,1.2,1.9,2.1l9.6,15.6c-4.7,3.9-10.1,6.8-16.1,8.8
		C706.1,1813.3,699.8,1814.3,693.3,1814.3z"/>
	<path class="st2" d="M805.3,1676.7c8.4,0,16.1,1.3,23.2,4c7.1,2.7,13.2,6.6,18.3,11.8c5.1,5.2,9.1,11.5,12,19
		c2.9,7.5,4.3,16.1,4.3,25.7c0,2.4-0.1,4.4-0.3,6c-0.2,1.6-0.6,2.9-1.2,3.8c-0.6,0.9-1.3,1.6-2.3,2c-1,0.4-2.2,0.6-3.6,0.6h-82.4
		c1,13.7,4.6,23.7,11.1,30.2c6.4,6.4,14.9,9.6,25.5,9.6c5.2,0,9.7-0.6,13.5-1.8c3.8-1.2,7.1-2.6,9.9-4c2.8-1.5,5.3-2.8,7.4-4
		c2.1-1.2,4.2-1.8,6.2-1.8c1.3,0,2.4,0.3,3.4,0.8c1,0.5,1.8,1.3,2.5,2.2l9.4,11.7c-3.6,4.2-7.5,7.7-12,10.5c-4.4,2.8-9,5.1-13.8,6.8
		c-4.8,1.7-9.7,2.9-14.7,3.6c-5,0.7-9.8,1-14.5,1c-9.3,0-17.9-1.5-25.9-4.6c-8-3.1-14.9-7.6-20.8-13.7c-5.9-6-10.5-13.5-13.9-22.4
		c-3.4-8.9-5.1-19.2-5.1-30.9c0-9.1,1.5-17.7,4.4-25.7c2.9-8,7.2-15,12.7-20.9c5.5-5.9,12.2-10.6,20.1-14.1
		C786.4,1678.5,795.3,1676.7,805.3,1676.7z M805.9,1699.7c-9.4,0-16.7,2.6-22,7.9c-5.3,5.3-8.7,12.8-10.1,22.5h60.3
		c0-4.2-0.6-8.1-1.7-11.8c-1.1-3.7-2.9-6.9-5.2-9.7c-2.3-2.8-5.3-5-8.8-6.6C814.9,1700.5,810.7,1699.7,805.9,1699.7z"/>
	<path class="st2" d="M968.3,1704.8c-0.9,1.4-1.8,2.4-2.7,2.9c-1,0.6-2.2,0.8-3.6,0.8c-1.6,0-3.2-0.4-5-1.3
		c-1.8-0.9-3.8-1.8-6.2-2.9c-2.3-1.1-5-2.1-8-2.9c-3-0.9-6.5-1.3-10.6-1.3c-6.3,0-11.3,1.3-14.9,4c-3.6,2.7-5.5,6.2-5.5,10.5
		c0,2.9,0.9,5.3,2.8,7.2c1.9,2,4.3,3.7,7.4,5.1c3.1,1.5,6.6,2.8,10.5,4c3.9,1.2,7.9,2.5,12,3.8c4.1,1.4,8.1,3,12,4.7
		c3.9,1.8,7.4,4,10.5,6.8c3.1,2.7,5.5,6,7.4,9.8c1.9,3.8,2.8,8.4,2.8,13.8c0,6.4-1.2,12.3-3.5,17.7c-2.3,5.4-5.8,10.1-10.3,14
		c-4.5,3.9-10.1,7-16.7,9.2c-6.6,2.2-14.2,3.3-22.8,3.3c-4.6,0-9.1-0.4-13.5-1.2c-4.4-0.8-8.6-2-12.6-3.4c-4-1.5-7.8-3.2-11.2-5.2
		c-3.4-2-6.4-4.2-9-6.5l7.4-12.2c1-1.5,2.1-2.6,3.4-3.4s2.9-1.2,4.9-1.2c2,0,3.9,0.6,5.7,1.7c1.8,1.1,3.8,2.3,6.2,3.6
		s5.1,2.5,8.3,3.6c3.2,1.1,7.2,1.7,12,1.7c3.8,0,7.1-0.5,9.8-1.4c2.7-0.9,5-2.1,6.8-3.6c1.8-1.5,3.1-3.2,3.9-5.1c0.8-2,1.2-4,1.2-6
		c0-3.1-0.9-5.7-2.8-7.7c-1.9-2-4.3-3.7-7.4-5.2c-3.1-1.5-6.6-2.8-10.5-4c-3.9-1.2-8-2.4-12.1-3.8c-4.1-1.4-8.1-3-12.1-4.9
		c-3.9-1.9-7.5-4.2-10.5-7.1c-3.1-2.9-5.5-6.4-7.4-10.5c-1.9-4.2-2.8-9.2-2.8-15.1c0-5.5,1.1-10.7,3.2-15.6
		c2.2-4.9,5.4-9.2,9.6-12.9c4.2-3.7,9.4-6.6,15.7-8.8c6.3-2.2,13.5-3.3,21.8-3.3c9.2,0,17.6,1.5,25.1,4.5c7.5,3,13.8,7,18.9,12
		L968.3,1704.8z"/>
	<path class="st2" d="M1013.9,1812.6c-0.8,2-1.8,3.7-3,5.2c-1.2,1.5-2.6,2.7-4.2,3.7c-1.6,1-3.2,1.8-4.9,2.3
		c-1.7,0.5-3.4,0.8-5.1,0.8h-13.5l75.9-194.2c1.5-3.6,3.6-6.4,6.4-8.4c2.8-2,6.1-2.9,10-2.9h13.7L1013.9,1812.6z"/>
	<path class="st2" d="M1248.4,1812.2h-27c-3,0-5.5-0.8-7.5-2.3c-2-1.5-3.4-3.4-4.2-5.7l-14-38.3h-77.9l-14,38.3
		c-0.7,2-2.1,3.8-4.1,5.5c-2,1.6-4.5,2.5-7.5,2.5H1065l73.8-188h35.8L1248.4,1812.2z M1126.8,1741.2h59.9l-22.9-62.5
		c-1-2.8-2.2-6-3.4-9.8c-1.3-3.8-2.5-7.9-3.7-12.3c-1.2,4.4-2.4,8.5-3.6,12.4c-1.2,3.8-2.3,7.1-3.4,10L1126.8,1741.2z"/>
	<path class="st2" d="M1359.7,1707c-1,1.2-1.9,2.2-2.8,2.9c-0.9,0.7-2.2,1-4,1c-1.6,0-3.2-0.5-4.8-1.5c-1.6-1-3.4-2.1-5.6-3.4
		c-2.2-1.3-4.7-2.4-7.7-3.4c-3-1-6.7-1.5-11.1-1.5c-5.6,0-10.6,1-14.8,3.1c-4.2,2-7.8,5-10.6,8.8c-2.8,3.8-4.9,8.4-6.3,13.8
		c-1.4,5.4-2.1,11.5-2.1,18.4c0,7.1,0.8,13.4,2.3,19c1.5,5.5,3.7,10.2,6.6,14c2.9,3.8,6.3,6.6,10.4,8.6c4.1,2,8.7,2.9,13.8,2.9
		c5.1,0,9.2-0.6,12.4-1.9c3.2-1.3,5.8-2.6,8-4.2c2.2-1.5,4.1-2.9,5.7-4.2c1.6-1.3,3.4-1.9,5.4-1.9c2.6,0,4.5,1,5.8,3l9.2,11.7
		c-3.6,4.2-7.4,7.7-11.6,10.5c-4.2,2.8-8.5,5.1-12.9,6.8c-4.5,1.7-9.1,2.9-13.8,3.6c-4.8,0.7-9.5,1-14.2,1c-8.2,0-16-1.5-23.3-4.6
		c-7.3-3.1-13.6-7.6-19-13.5c-5.4-5.9-9.7-13.1-12.9-21.6c-3.2-8.5-4.7-18.3-4.7-29.2c0-9.8,1.4-18.9,4.2-27.2
		c2.8-8.4,7-15.6,12.4-21.7c5.5-6.1,12.2-10.9,20.3-14.4c8.1-3.5,17.3-5.2,27.8-5.2c10,0,18.7,1.6,26.2,4.8
		c7.5,3.2,14.2,7.8,20.2,13.8L1359.7,1707z"/>
	<path class="st2" d="M1390,1812.2V1619h32.1v74.2c5.2-4.9,10.9-8.9,17.2-12c6.2-3,13.6-4.5,22-4.5c7.3,0,13.7,1.2,19.4,3.7
		c5.6,2.5,10.3,5.9,14.1,10.4c3.8,4.5,6.6,9.8,8.6,16c1.9,6.2,2.9,13,2.9,20.5v84.9h-32.1v-84.9c0-8.1-1.9-14.5-5.7-18.9
		c-3.8-4.5-9.4-6.7-17-6.7c-5.5,0-10.7,1.3-15.6,3.8c-4.9,2.5-9.4,5.9-13.8,10.3v96.5H1390z"/>
	<path class="st2" d="M1642.3,1812.2h-14.4c-3,0-5.4-0.5-7.2-1.4c-1.7-0.9-3-2.8-3.9-5.5l-2.9-9.5c-3.4,3-6.7,5.7-9.9,8
		c-3.2,2.3-6.6,4.2-10.1,5.8c-3.5,1.6-7.2,2.7-11.1,3.5c-3.9,0.8-8.2,1.2-13,1.2c-5.6,0-10.8-0.8-15.6-2.3
		c-4.8-1.5-8.9-3.8-12.3-6.8c-3.4-3-6.1-6.8-8-11.3c-1.9-4.5-2.9-9.8-2.9-15.8c0-5,1.3-10,4-14.9c2.6-4.9,7-9.3,13.2-13.3
		c6.2-4,14.3-7.2,24.6-9.8c10.2-2.6,22.9-3.9,38.1-3.9v-7.9c0-9-1.9-15.7-5.7-20c-3.8-4.3-9.3-6.5-16.4-6.5c-5.2,0-9.5,0.6-13,1.8
		c-3.5,1.2-6.5,2.6-9,4.1c-2.6,1.5-4.9,2.9-7.1,4.1c-2.2,1.2-4.5,1.8-7.1,1.8c-2.2,0-4-0.6-5.6-1.7c-1.6-1.1-2.8-2.5-3.8-4.2
		l-5.9-10.3c15.3-14,33.8-21.1,55.5-21.1c7.8,0,14.8,1.3,20.9,3.8c6.1,2.6,11.3,6.1,15.5,10.7c4.2,4.5,7.5,10,9.7,16.3
		c2.2,6.3,3.3,13.3,3.3,20.8V1812.2z M1579.9,1792.2c3.3,0,6.3-0.3,9.1-0.9c2.8-0.6,5.4-1.5,7.9-2.7s4.9-2.7,7.1-4.4
		c2.3-1.7,4.6-3.8,7-6.2v-22.3c-9.4,0-17.2,0.6-23.5,1.8c-6.3,1.2-11.3,2.7-15.1,4.5c-3.8,1.8-6.5,4-8.1,6.4c-1.6,2.4-2.4,5.1-2.4,8
		c0,5.7,1.7,9.7,5,12.2C1570.2,1791,1574.6,1792.2,1579.9,1792.2z"/>
	<path class="st2" d="M1717.7,1814.3c-11.5,0-20.4-3.3-26.7-9.8c-6.2-6.5-9.4-15.6-9.4-27.1v-74.5h-13.5c-1.7,0-3.2-0.6-4.5-1.7
		c-1.3-1.1-1.9-2.8-1.9-5.1v-12.7l21.5-3.5l6.8-36.4c0.3-1.7,1.1-3.1,2.4-4c1.3-1,2.8-1.4,4.7-1.4h16.6v42h35.1v22.9h-35.1v72.3
		c0,4.2,1,7.4,3.1,9.8c2.1,2.3,4.9,3.5,8.3,3.5c2,0,3.7-0.2,5-0.7c1.3-0.5,2.5-1,3.5-1.5c1-0.5,1.9-1,2.7-1.5
		c0.8-0.5,1.6-0.7,2.3-0.7c1,0,1.7,0.2,2.3,0.7c0.6,0.5,1.3,1.2,1.9,2.1l9.6,15.6c-4.7,3.9-10.1,6.8-16.1,8.8
		C1730.5,1813.3,1724.2,1814.3,1717.7,1814.3z"/>
	<path class="st2" d="M1853.7,1704.8c-0.9,1.4-1.8,2.4-2.7,2.9c-1,0.6-2.2,0.8-3.6,0.8c-1.6,0-3.2-0.4-5-1.3
		c-1.8-0.9-3.8-1.8-6.2-2.9c-2.3-1.1-5-2.1-8-2.9c-3-0.9-6.5-1.3-10.6-1.3c-6.3,0-11.3,1.3-14.9,4c-3.6,2.7-5.5,6.2-5.5,10.5
		c0,2.9,0.9,5.3,2.8,7.2c1.9,2,4.3,3.7,7.4,5.1c3.1,1.5,6.6,2.8,10.5,4c3.9,1.2,7.9,2.5,12,3.8c4.1,1.4,8.1,3,12,4.7
		c3.9,1.8,7.4,4,10.5,6.8c3.1,2.7,5.5,6,7.4,9.8c1.9,3.8,2.8,8.4,2.8,13.8c0,6.4-1.2,12.3-3.5,17.7c-2.3,5.4-5.8,10.1-10.3,14
		c-4.5,3.9-10.1,7-16.7,9.2c-6.6,2.2-14.2,3.3-22.8,3.3c-4.6,0-9.1-0.4-13.5-1.2c-4.4-0.8-8.6-2-12.6-3.4c-4-1.5-7.8-3.2-11.2-5.2
		c-3.4-2-6.4-4.2-9-6.5l7.4-12.2c1-1.5,2.1-2.6,3.4-3.4s2.9-1.2,4.9-1.2c2,0,3.9,0.6,5.7,1.7c1.8,1.1,3.8,2.3,6.2,3.6
		s5.1,2.5,8.3,3.6c3.2,1.1,7.2,1.7,12,1.7c3.8,0,7.1-0.5,9.8-1.4s5-2.1,6.8-3.6c1.8-1.5,3.1-3.2,3.9-5.1c0.8-2,1.2-4,1.2-6
		c0-3.1-0.9-5.7-2.8-7.7c-1.9-2-4.3-3.7-7.4-5.2c-3.1-1.5-6.6-2.8-10.5-4c-3.9-1.2-8-2.4-12.1-3.8c-4.1-1.4-8.1-3-12.1-4.9
		c-3.9-1.9-7.5-4.2-10.5-7.1s-5.5-6.4-7.4-10.5s-2.8-9.2-2.8-15.1c0-5.5,1.1-10.7,3.2-15.6c2.2-4.9,5.4-9.2,9.6-12.9
		c4.2-3.7,9.4-6.6,15.7-8.8c6.3-2.2,13.5-3.3,21.8-3.3c9.2,0,17.6,1.5,25.1,4.5c7.5,3,13.8,7,18.8,12L1853.7,1704.8z"/>
</g>
<path class="st3" d="M755.2,763.2v358.4H576V763.2H755.2z M1024,404.8v716.8H844.8V404.8H1024z M1740.8,1211.2v89.6H307.2V225.6
	h89.6v985.6H1740.8z M1292.8,584v537.6h-179.2V584H1292.8z M1561.6,315.2v806.4h-179.2V315.2H1561.6z"/>
</svg>
