<?xml version="1.0" encoding="utf-8"?>
<!-- Generator: Adobe Illustrator 22.1.0, SVG Export Plug-In . SVG Version: 6.00 Build 0)  -->
<svg version="1.1" id="Calque_1" xmlns="http://www.w3.org/2000/svg" xmlns:xlink="http://www.w3.org/1999/xlink" x="0px" y="0px"
	 viewBox="0 0 260 260" style="enable-background:new 0 0 260 260;" xml:space="preserve">
<style type="text/css">
	.st0{fill:#666666;}
</style>
<g>
	<path class="st0" d="M198.6990967,24.6500053c-14.2999878,9-27.1999817,13.2000008-38.1999817,12.5
		c-3.3999939-0.2000008-6.6000061-0.9000015-9.6000061-2c-3.7000122-1.2999992-5.8999939-2.9000015-8.3000183-4.5
		c-2.1000061-1.5-4.3999939-3-7.5-4.2999992c-6.1999817-2.5-13.3999863-3-21.2999954-1.5v-0.1000023l-2.5,0.6000023l-1.5,0.3999977
		l0,0c-11.1999969,3-24.1999969,9.9000015-38.5999985,20.5l-0.8000031,0.5999985v15.4999962h-0.0999985v148.8000183h4v-80.6999969
		c14.3000031-10.3999939,27.0999985-17.0999908,37.9000015-19.6999969c8.0999985-2,15.2999954-1.6999969,21.3999939,0.8000031
		c2.8000183,1.1000061,4.7000122,2.5,6.8000183,3.9000092c2.5,1.6999969,5.1000061,3.5,9.1999817,5
		c2.8000183,1,5.8000183,1.6999969,8.8999939,2v0.0999908l1.8999939,0.1000061l2.1000061,0.1000061v-0.2000275
		c0.1000061,0,0.3000183,0,0.3999939,0c11.3000183,0,24-4.3999939,38-13.1999969l0.8999939-0.5999985V22.6500053
		L198.6990967,24.6500053z M150.7991028,116.5500031c-3.6999817-1.3000031-5.8999939-2.8999939-8.2999878-4.5
		c-2.1000061-1.5-4.3999939-3-7.5-4.3000031c-3.8999939-1.5999985-8.1000137-2.4000015-12.6000137-2.4000015
		c-2.8000031,0-5.6999969,0.3000031-8.6999969,0.9000015V28.8500061c7.5-1.5999985,14.1999969-1.2000008,19.8000107,1.0999985
		c2.7999878,1.0999985,4.6999817,2.5,6.7999878,3.9000015c2.5,1.7000008,5.1000061,3.5,9.2000122,5
		c2.7999878,1,5.7999878,1.7000008,8.8999939,2V118.25C155.6990967,118.0500031,153.1990967,117.4500122,150.7991028,116.5500031z"
		/>
	<g>
		<path class="st0" d="M40.0999832,219.3999939L35.799984,218c-0.9000015-0.3000031-1.5-1.1000061-1.5999985-2
			s0.5-1.8000031,1.2999992-2.1999969l4.0999985-1.8999939l1.4000015,3l0.4000015,0.1000061l-0.0999985,0.5l0.2000008,0.3999939
			l-0.4000015,0.1999969L40.0999832,219.3999939z"/>
		<path class="st0" d="M101.0999832,238.8000031l-7.5999985-2.3999939l1.4000015-4.3000031L102.4999847,234.5
			L101.0999832,238.8000031z M85.8999863,234l-7.5999985-2.3999939l1.4000015-4.3000031l7.5999985,2.3999939L85.8999863,234z
			 M70.5999832,229.1000061l-7.5999985-2.3999939l1.4000015-4.3000031l7.5999985,2.3999939L70.5999832,229.1000061z
			 M55.3999863,224.1999969l-7.6000023-2.3999939L49.1999855,217.5l7.6000023,2.3999939L55.3999863,224.1999969z"/>
		<path class="st0" d="M113.6999893,242.7000122c-0.1999969,0-0.5,0-0.6999969-0.1000061l-4.3000031-1.3999939l1.4000015-4.3000031
			l3.4000015,1.1000061l3.1000061-1.6999969l2.1999969,3.8999939l-3.8999939,2.2000122
			C114.4999847,242.6000061,114.0999832,242.7000122,113.6999893,242.7000122z"/>
		<path class="st0" d="M126.5999832,235.8999939L124.3999863,232l7.7999954-4.3999939L134.3999939,231.5L126.5999832,235.8999939z
			 M142.2999878,227.1999969l-2.2000122-3.8999939l7.8000183-4.3999939l2.1999817,3.8999939L142.2999878,227.1999969z M158,218.5
			l-2.2000122-3.8999939l7.8000183-4.3999939l2.1999817,3.8999939L158,218.5z M173.6999817,209.6999969L171.5,205.8000031
			l7.7999878-4.3999939L181.5,205.3000031L173.6999817,209.6999969z M189.3999939,201l-2.2000122-3.8999939L195,192.7000122
			l2.1999817,3.8999939L189.3999939,201z M205.0999756,192.3000031l-2.1999817-3.8999939l7.7999878-4.3999939l2.2000122,3.8999939
			L205.0999756,192.3000031z"/>
		<path class="st0" d="M220.7999878,183.6000061l-1.7000122-3L218.6999817,180.5l0.1000061-0.3999939l-0.1999817-0.3999939
			L219,179.5000153l0.8999939-3.3000031l4.3999939,1.1000061c0.8999939,0.1999969,1.5,1,1.6999817,1.8999939
			c0.1000061,0.8999939-0.2999878,1.8000031-1.1000061,2.1999969L220.7999878,183.6000061z"/>
		<path class="st0" d="M49.799984,212.1000061L47.8999825,208l8.3000069-3.8999939l1.9000015,4.1000061L49.799984,212.1000061z
			 M66.3999863,204.3000031l-1.9000015-4.1000061l8.3000031-3.8999939l1.9000015,4.1000061L66.3999863,204.3000031z
			 M83.0999832,196.5l-1.9000015-4.1000061L89.4999847,188.5l1.9000015,4.1000061L83.0999832,196.5z M99.6999893,188.6999969
			l-1.9000015-4.1000061l8.3000031-3.8999939l1.9000015,4.1000061L99.6999893,188.6999969z M116.2999802,180.8999939
			l-1.9000015-4.1000061l8.2999954-3.8999939L124.599968,177L116.2999802,180.8999939z M209.7999878,178.1000061
			l-8.8999939-2.3000031L202,171.4000092l8.8999939,2.3000031L209.7999878,178.1000061z M192.0999756,173.5l-8.8999939-2.3000031
			l1.1000061-4.3999939l8.8999939,2.3000031L192.0999756,173.5z M132.8999939,173.1000061L131,169l8.2999878-3.8999939
			l1.8999939,4.1000061L132.8999939,173.1000061z M174.2999878,168.8000031L165.3999939,166.5L166.5,162.1000061
			l8.8999939,2.3000031L174.2999878,168.8000031z M149.5,165.1999969l-1.8999939-4.1000061l4.7999878-2.1999969
			c0.5-0.1999969,1-0.3000031,1.5-0.1000061l3.8000183,1l-1.1000061,4.3999939l-3-0.8000031L149.5,165.1999969z"/>
	</g>
</g>
</svg>
