<?xml version="1.0" encoding="utf-8"?>
<!-- Generator: Adobe Illustrator 22.1.0, SVG Export Plug-In . SVG Version: 6.00 Build 0)  -->
<svg version="1.1" id="Calque_1" xmlns="http://www.w3.org/2000/svg" xmlns:xlink="http://www.w3.org/1999/xlink" x="0px" y="0px"
	 viewBox="0 0 260 260" style="enable-background:new 0 0 260 260;" xml:space="preserve">
<style type="text/css">
	.st0{fill:#666666;}
</style>
<g>
	<g>
		<path class="st0" d="M239.6999817,34.0000229c-0.3000031-2.2000008-1.5-4.0999985-3.3000031-5.5l-11-8
			c-1.8000031-1.2999992-4-1.7999992-6.1999969-1.5s-4.1000061,1.5-5.5,3.2999992l-86.8000031,118.6000061
			c0,0,0,0.1000061-0.1000061,0.1000061c0,0.1000061-0.1000061,0.1000061-0.1000061,0.1999969
			c-0.1000061,0.1000061-0.1000061,0.1999969-0.1000061,0.3000031v0.1000061l-10.6999741,33.4999847c-0.5,1.6999969,0,3.5,1.5,4.5
			c0.6999969,0.5,1.5999985,0.8000031,2.4000015,0.8000031s1.5999985-0.3000031,2.2999878-0.8000031l28.6999969-20.3000031
			c0,0,0,0,0.1000061-0.1000061s0.1000061-0.1000061,0.1999969-0.1999969
			c0.1000061-0.1000061,0.1000061-0.1000061,0.1999969-0.1999969c0,0,0,0,0.1000061-0.1000061l86.8000031-118.5999985
			C239.4999847,38.4000244,239.9999847,36.2000237,239.6999817,34.0000229z M128.5999756,169.6000214l-5-3.6999969l6.3999939-20
			l7.8999939,5.8000031l7.8999939,5.8000031L128.5999756,169.6000214z M234.4999847,37.6000252l-7.3000031,9.8999977
			l-17.1999969-12.5999985l7.3000031-9.9000015c0.6000061-0.7999992,1.5-1.4000015,2.5-1.5
			c1-0.2000008,2,0.0999985,2.8999939,0.7000008l11,8c0.8000031,0.5999985,1.3999939,1.5,1.5,2.5
			C235.3999786,35.7000237,235.0999756,36.7000237,234.4999847,37.6000252z"/>
		<g>
			
				<rect x="109.3741074" y="178.0010071" transform="matrix(0.9044331 -0.4266156 0.4266156 0.9044331 -66.2302856 64.8465805)" class="st0" width="4.4998322" height="4.4998322"/>
			<path class="st0" d="M49.099987,212.3000183l-1.9000015-4.1000061l7.7000008-3.6000061l1.9000015,4.1000061
				L49.099987,212.3000183z M64.4999847,205.0000305l-1.9000015-4.1000061l7.6999969-3.6000061l1.9000015,4.1000061
				L64.4999847,205.0000305z M79.8999863,197.8000183l-1.9000015-4.1000061l7.6999969-3.6000061l1.9000015,4.1000061
				L79.8999863,197.8000183z M95.1999893,190.5000305l-1.9000015-4.1000061l7.6999969-3.6000061l1.9000015,4.1000061
				L95.1999893,190.5000305z"/>
			<path class="st0" d="M39.9999847,219.3000183l-4.2999992-1.3999939c-0.9000015-0.3000031-1.5-1.1000061-1.5999985-2
				s0.4000015-1.8000031,1.2999992-2.1999969l4.0999985-1.8999939l1.4000015,3l0.4000015,0.1000061l-0.0999985,0.5
				l0.2000008,0.3999939l-0.4000015,0.1999969L39.9999847,219.3000183z"/>
			<path class="st0" d="M101.0999832,238.7000275l-7.5999985-2.3999939l1.4000015-4.3000031l7.5999985,2.3999939
				L101.0999832,238.7000275z M85.7999878,233.9000244l-7.5999985-2.3999939l1.4000015-4.3000031l7.5999985,2.3999939
				L85.7999878,233.9000244z M70.5999832,229.0000305l-7.5999985-2.3999939l1.4000015-4.3000031l7.5999985,2.3999939
				L70.5999832,229.0000305z M55.2999878,224.1000214l-7.5999985-2.3999939l1.4000015-4.3000031l7.5999985,2.3999939
				L55.2999878,224.1000214z"/>
			<path class="st0" d="M113.6999893,242.7000122c-0.1999969,0-0.5,0-0.6999969-0.1000061l-4.3000031-1.3999939l1.4000015-4.3000031
				l3.4000015,1.1000061l3.0999985-1.6999969l2.1999969,3.8999939l-3.9000015,2.2000122
				C114.3999863,242.6000366,114.0999832,242.7000122,113.6999893,242.7000122z"/>
			<path class="st0" d="M126.5999756,235.8000183l-2.1999969-3.8999939l7.8000031-4.3999939l2.1999969,3.8999939
				L126.5999756,235.8000183z M142.2999725,227.1000214l-2.1999969-3.8999939l7.8000031-4.3999939l2.1999969,3.8999939
				L142.2999725,227.1000214z M157.8999786,218.4000244l-2.1999969-3.8999939l7.8000031-4.3999939l2.1999969,3.8999939
				L157.8999786,218.4000244z M173.5999756,209.7000275l-2.1999969-3.8999939l7.8000031-4.3999939l2.1999969,3.8999939
				L173.5999756,209.7000275z M189.2999725,200.9000244l-2.1999969-3.8999939l7.8000031-4.3999939l2.1999969,3.8999939
				L189.2999725,200.9000244z M204.9999847,192.2000275l-2.1999969-3.8999939l7.8000031-4.3999939l2.1999969,3.8999939
				L204.9999847,192.2000275z"/>
			<path class="st0" d="M220.6999817,183.5000305l-1.6999969-3l-0.3999939-0.1000061l0.1000061-0.3999939L218.5,179.6000366
				l0.3999939-0.1999969l0.8999939-3.3000031l4.3999939,1.1000061c0.8999939,0.1999969,1.6000061,1,1.6999969,1.8999939
				c0.1000061,0.8999939-0.3000031,1.8000031-1.1000061,2.3000031L220.6999817,183.5000305z"/>
			
				<rect x="205.6750946" y="171.3688507" transform="matrix(0.2497056 -0.9683218 0.9683218 0.2497056 -13.7115765 332.8415222)" class="st0" width="4.4998932" height="7.7998352"/>
			
				<rect x="192.2161713" y="169.5834656" transform="matrix(0.2496119 -0.9683459 0.9683459 0.2496119 -20.4691181 317.2521362)" class="st0" width="4.4997859" height="4.4997859"/>
		</g>
	</g>
</g>
</svg>
