<?xml version="1.0" encoding="utf-8"?>
<!-- Generator: Adobe Illustrator 23.0.6, SVG Export Plug-In . SVG Version: 6.00 Build 0)  -->
<svg version="1.1" id="Calque_1" xmlns="http://www.w3.org/2000/svg" xmlns:xlink="http://www.w3.org/1999/xlink" x="0px" y="0px"
	 viewBox="0 0 1000 1000" style="enable-background:new 0 0 1000 1000;" xml:space="preserve">
<style type="text/css">
	.st0{fill:#6BC728;}
</style>
<path class="st0" d="M932.5,315.8c0,14-5.6,28-15.6,38l-404.1,404l-75.9,75.9c-10,10.1-24,15.6-37.9,15.6s-27.9-5.5-38-15.6
	l-75.8-75.9l-202.1-202c-10-10-15.6-24-15.6-37.9s5.6-27.9,15.6-38L159,404c10.1-10,24-15.6,38-15.6s27.9,5.6,37.9,15.6L399,568.6
	L765.1,202c10-10,24-15.6,37.9-15.6s27.9,5.6,38,15.6l75.9,75.9C926.9,287.9,932.5,301.9,932.5,315.8L932.5,315.8z"/>
</svg>
