<?xml version="1.0" encoding="utf-8"?>
<!-- Generator: Adobe Illustrator 23.0.6, SVG Export Plug-In . SVG Version: 6.00 Build 0)  -->
<svg version="1.1" id="Calque_1" xmlns="http://www.w3.org/2000/svg" xmlns:xlink="http://www.w3.org/1999/xlink" x="0px" y="0px"
	 viewBox="0 0 857.1 1000" style="enable-background:new 0 0 857.1 1000;" xml:space="preserve">
<style type="text/css">
	.st0{fill:#7499DD;}
</style>
<path class="st0" d="M428.6,535.7v250c0,19.5-16.2,35.7-35.7,35.7c-9.5,0-18.5-3.9-25.2-10.6l-80.3-80.3L102.1,915.7
	c-3.3,3.4-8.4,5.6-12.8,5.6s-9.5-2.2-12.8-5.6l-63.7-63.6c-3.3-3.3-5.5-8.3-5.5-12.8s2.2-9.5,5.5-12.8l185.3-185.3l-80.4-80.4
	c-6.7-6.7-10.6-15.6-10.6-25.1c0-19.5,16.2-35.7,35.8-35.7h250C412.4,500,428.6,516.2,428.6,535.7L428.6,535.7z M849.9,160.7
	c0,4.5-2.2,9.5-5.6,12.8L659,358.8l80.4,80.4c6.7,6.7,10.6,15.6,10.6,25.1c0,19.5-16.2,35.7-35.7,35.7h-250
	c-19.5,0-35.7-16.2-35.7-35.7v-250c0-19.5,16.2-35.7,35.7-35.7c9.5,0,18.4,3.9,25.1,10.6l80.4,80.3L755,84.3
	c3.4-3.4,8.4-5.6,12.9-5.6s9.4,2.2,12.8,5.6l63.6,63.6C847.7,151.2,849.9,156.3,849.9,160.7L849.9,160.7z"/>
</svg>
