<?xml version="1.0" encoding="utf-8"?>
<!-- Generator: Adobe Illustrator 23.0.6, SVG Export Plug-In . SVG Version: 6.00 Build 0)  -->
<svg version="1.1" id="Calque_1" xmlns="http://www.w3.org/2000/svg" xmlns:xlink="http://www.w3.org/1999/xlink" x="0px" y="0px"
	 viewBox="0 0 1000 1000" style="enable-background:new 0 0 1000 1000;" xml:space="preserve">
<style type="text/css">
	.st0{fill:#FFA500;}
</style>
<path class="st0" d="M571.4,767.3v-106c0-10.1-7.8-18.4-17.8-18.4H446.4c-10,0-17.8,8.3-17.8,18.4v106c0,10,7.8,18.4,17.8,18.4
	h107.2C563.6,785.7,571.4,777.3,571.4,767.3z M570.3,558.6l10.1-256.1c0-3.4-1.7-7.9-5.6-10.6c-3.4-2.8-8.4-6.2-13.4-6.2H438.6
	c-5,0-10,3.4-13.4,6.2c-3.9,2.7-5.6,8.3-5.6,11.7l9.5,255c0,7.2,8.4,12.8,19,12.8h103.2C561.4,571.4,569.8,565.8,570.3,558.6z
	 M562.5,37.4l428.6,785.7c12.2,21.8,11.7,48.6-1.1,70.3s-36.3,35.2-61.4,35.2H71.4c-25.1,0-48.5-13.4-61.4-35.2s-13.3-48.5-1.1-70.3
	L437.5,37.4C449.8,14.5,473.8,0,500,0C526.2,0,550.2,14.5,562.5,37.4L562.5,37.4z"/>
</svg>
