<?xml version="1.0" encoding="utf-8"?>
<!-- Generator: Adobe Illustrator 21.1.0, SVG Export Plug-In . SVG Version: 6.00 Build 0)  -->
<svg version="1.1" id="Calque_1" xmlns="http://www.w3.org/2000/svg" xmlns:xlink="http://www.w3.org/1999/xlink" x="0px" y="0px"
	 viewBox="0 0 195 292" style="enable-background:new 0 0 195 292;" xml:space="preserve">
<style type="text/css">
	.st0{fill:url(#SVGID_1_);}
	.st1{fill:url(#SVGID_2_);}
	.st2{fill:#333333;}
</style>
<linearGradient id="SVGID_1_" gradientUnits="userSpaceOnUse" x1="-226.5" y1="210" x2="-226.5" y2="482" gradientTransform="matrix(-1 0 0 -1 -129 492)">
	<stop  offset="0" style="stop-color:#E8E8E8"/>
	<stop  offset="1" style="stop-color:#F9F9F9"/>
</linearGradient>
<path class="st0" d="M10,282V10h160c8,0,15,7,15,15v242c0,8-7,15-15,15H10z"/>
<linearGradient id="SVGID_2_" gradientUnits="userSpaceOnUse" x1="-226.5" y1="200" x2="-226.5" y2="492" gradientTransform="matrix(-1 0 0 -1 -129 492)">
	<stop  offset="0" style="stop-color:#BBBBBB"/>
	<stop  offset="1" style="stop-color:#DCDCDC"/>
</linearGradient>
<path class="st1" d="M10,282V10h160c8,0,15,7,15,15v242c0,8-7,15-15,15H10z M170,292c14,0,25-11,25-25V25c0-14-11-25-25-25H0v292
	H170z"/>
<path class="st2" d="M58.5,82.4l6.9-6.9c0.8-0.8,2.1-1.3,3.1-1.3c1.2,0,2.4,0.5,3.2,1.3l64.6,64.7c0.9,0.8,1.4,2.1,1.4,3.1
	c0,1.1-0.6,2.3-1.4,3.1l-64.6,64.7c-0.9,0.9-2.2,1.4-3.2,1.4s-2.3-0.6-3.1-1.4l-6.9-6.9c-0.9-0.8-1.4-2.1-1.4-3.1
	c0-1.2,0.6-2.4,1.4-3.2l54.6-54.6L58.6,88.8c-0.9-0.8-1.4-2.1-1.4-3.1C57.2,84.4,57.7,83.3,58.5,82.4z"/>
</svg>
