<?xml version="1.0" encoding="utf-8"?>
<!-- Generator: Adobe Illustrator 24.3.0, SVG Export Plug-In . SVG Version: 6.00 Build 0)  -->
<svg version="1.1" id="Calque_1" xmlns="http://www.w3.org/2000/svg" xmlns:xlink="http://www.w3.org/1999/xlink" x="0px" y="0px"
	 viewBox="0 0 642.9 1000" style="enable-background:new 0 0 642.9 1000;" xml:space="preserve">
<style type="text/css">
	.st0{fill:#333333;}
</style>
<path class="st0" d="M178.6,428.6h285.7V321.4c0-78.7-64.2-142.8-142.9-142.8s-142.8,64.1-142.8,142.8L178.6,428.6L178.6,428.6z
	 M642.9,482.1v321.5c0,29.5-24,53.5-53.6,53.5H53.6C24,857.1,0,833.1,0,803.6V482.1c0-29.5,24-53.5,53.6-53.5h17.8V321.4
	c0-137.2,112.8-250,250-250s250,112.8,250,250v107.2h17.9C618.9,428.6,642.9,452.6,642.9,482.1L642.9,482.1z"/>
</svg>
