<?xml version="1.0" encoding="utf-8"?>
<!-- Generator: Adobe Illustrator 26.0.2, SVG Export Plug-In . SVG Version: 6.00 Build 0)  -->
<svg version="1.1" id="Calque_1" xmlns="http://www.w3.org/2000/svg" xmlns:xlink="http://www.w3.org/1999/xlink" x="0px" y="0px"
	 viewBox="0 0 500 500" style="enable-background:new 0 0 500 500;" xml:space="preserve">
<style type="text/css">
	.st0{fill:#476BA8;}
	.st1{fill:#FFFFFF;}
	.st2{fill:#E9E9E0;}
	.st3{fill:#CC4B4C;}
</style>
<circle class="st0" cx="250" cy="250" r="250"/>
<g>
	<path class="st1" d="M67.5996094,104.1679688c0.1889648-0.1635742,0.3837891-0.2871094,0.5844727-0.3710938
		c0.2001953-0.0834961,0.4282227-0.1357422,0.6831055-0.1567383c0.2553711-0.0205078,0.565918-0.0180664,0.9331055,0.0063477
		l38.0214844,2.5732422c-0.5927734-0.4223633-1.1567383-0.8540039-1.6923828-1.2944336
		c-0.5351562-0.4399414-1.0253906-0.8603516-1.4707031-1.2617188l-20.25-18.2333984l4.9160156-5.4599609l33.3120117,29.9946289
		l-2.8833008,3.2021484c-0.4423828,0.4916992-0.8852539,0.8295898-1.3295898,1.0136719
		c-0.4438477,0.1845703-1.0039062,0.2504883-1.6796875,0.1977539l-37.8671875-2.559082
		c0.5332031,0.3964844,1.0517578,0.8007812,1.5566406,1.2133789c0.5043945,0.4125977,0.956543,0.7988281,1.3554688,1.1582031
		l20.4575195,18.4199219l-4.9165039,5.4599609l-33.3120117-29.9946289l2.9248047-3.2485352
		C67.1918945,104.5512695,67.4106445,104.331543,67.5996094,104.1679688z"/>
	<path class="st1" d="M159.2182617,83.4794922l-5.2631836,3.7250977c-0.5908203,0.4179688-1.1796875,0.6137695-1.7685547,0.5869141
		c-0.5883789-0.0263672-1.1225586-0.1987305-1.6015625-0.5185547l-8.015625-5.5302734l-15.1567383,10.7270508l2.550293,9.3989258
		c0.1391602,0.4838867,0.1245117,1.0263672-0.0449219,1.6269531c-0.1699219,0.6010742-0.5415039,1.1044922-1.1147461,1.5102539
		l-5.2885742,3.7431641L111.9912109,61.987793l6.9584961-4.9248047L159.2182617,83.4794922z M125.7558594,86.4267578
		l11.6650391-8.2563477l-13.0678711-9.019043c-0.5844727-0.3964844-1.2587891-0.875-2.0224609-1.4355469
		c-0.7641602-0.5610352-1.5688477-1.1875-2.4135742-1.8808594c0.3725586,1.0273438,0.7080078,1.9926758,1.0053711,2.8959961
		c0.2978516,0.9038086,0.5336914,1.7114258,0.7084961,2.4233398L125.7558594,86.4267578z"/>
	<path class="st1" d="M134.1464844,46.4160156l6.1303711-2.7700195c0.6586914-0.2973633,1.2680664-0.3798828,1.8271484-0.2470703
		c0.5585938,0.1333008,1.0566406,0.4072266,1.4936523,0.8217773l20.8623047,20.5776367
		c0.6860352,0.6655273,1.394043,1.4174805,2.1245117,2.2548828c0.7299805,0.8383789,1.4692383,1.734375,2.2182617,2.6889648
		c-0.5454102-2.3613281-0.8725586-4.515625-0.980957-6.4624023l-1.6796875-29.2441406
		c-0.0263672-0.5092773,0.0961914-1.0410156,0.3676758-1.5947266c0.2714844-0.5532227,0.7275391-0.9750977,1.3681641-1.2641602
		l6.1303711-2.7695312l1.9570312,48.3041992L169.1000977,79.8125L134.1464844,46.4160156z"/>
	<path class="st1" d="M204.5263672,67.1230469l-8.0771484,2.1943359L184.6977539,26.059082l8.0776367-2.1943359
		L204.5263672,67.1230469z"/>
	<path class="st1" d="M232.0888672,56.3066406c1.8701172-0.1967773,3.4814453-0.5375977,4.8330078-1.0224609
		s2.6230469-1.0913086,3.8139648-1.8193359l-0.8525391-8.1083984l-5.5800781,0.5869141
		c-0.534668,0.0561523-0.9711914-0.0483398-1.3110352-0.3144531c-0.3393555-0.2651367-0.5322266-0.6142578-0.5776367-1.0458984
		l-0.4926758-4.6860352l14.8295898-1.559082l1.8959961,18.0356445c-1.0439453,0.940918-2.1459961,1.7792969-3.3046875,2.5136719
		c-1.1591797,0.7353516-2.4116211,1.3710938-3.7583008,1.9072266c-1.3461914,0.5361328-2.800293,0.9848633-4.3623047,1.3466797
		c-1.5625,0.3618164-3.2578125,0.6386719-5.0869141,0.8310547c-3.2480469,0.3417969-6.2978516,0.0908203-9.1499023-0.7524414
		c-2.8525391-0.8422852-5.3818359-2.1665039-7.5869141-3.9711914c-2.2055664-1.8046875-4.015625-4.0454102-5.4291992-6.7231445
		c-1.4145508-2.6772461-2.2954102-5.6704102-2.6430664-8.9799805c-0.3525391-3.3496094-0.1308594-6.4799805,0.6645508-9.3896484
		s2.0893555-5.4770508,3.8813477-7.7021484c1.7924805-2.2250977,4.0585938-4.0424805,6.7988281-5.453125
		c2.7397461-1.4101562,5.8876953-2.3022461,9.4438477-2.6762695c3.6376953-0.3823242,6.8442383-0.1738281,9.6196289,0.625
		c2.7749023,0.7993164,5.1782227,1.9648438,7.2094727,3.4970703l-2.0092773,4.0141602
		c-0.3930664,0.8100586-0.9794922,1.2563477-1.7607422,1.3383789c-0.4931641,0.0517578-1.0141602-0.0595703-1.5625-0.3344727
		c-0.6987305-0.3208008-1.4130859-0.6411133-2.1425781-0.9594727c-0.7294922-0.3173828-1.5253906-0.5766602-2.3881836-0.7773438
		c-0.862793-0.2001953-1.8232422-0.3383789-2.8798828-0.4140625c-1.0576172-0.0756836-2.2646484-0.0424805-3.6210938,0.1000977
		c-2.199707,0.2314453-4.1489258,0.8105469-5.8491211,1.7373047s-3.1044922,2.1450195-4.2133789,3.6533203
		c-1.1088867,1.5092773-1.9008789,3.265625-2.3759766,5.2685547c-0.4750977,2.003418-0.5874023,4.1972656-0.3369141,6.581543
		c0.2705078,2.5693359,0.8701172,4.8178711,1.800293,6.7460938s2.1152344,3.5131836,3.5546875,4.7539062
		c1.4399414,1.2407227,3.0917969,2.1323242,4.9570312,2.6738281
		C227.980957,56.3696289,229.9716797,56.5292969,232.0888672,56.3066406z"/>
	<path class="st1" d="M292.8828125,65.2421875l-6.4082031-0.7133789c-0.71875-0.0800781-1.2890625-0.3251953-1.7109375-0.7363281
		c-0.421875-0.4106445-0.7070312-0.8945312-0.8515625-1.4516602l-2.3164062-9.4594727l-18.4550781-2.0546875l-4.3398438,8.71875
		c-0.2167969,0.4541016-0.5878906,0.8496094-1.1132812,1.1855469c-0.5273438,0.3369141-1.1386719,0.4658203-1.8378906,0.3881836
		l-6.4384766-0.7167969l22.4599609-42.6025391l8.4726562,0.9433594L292.8828125,65.2421875z M265.9179688,45.2094727
		l14.203125,1.581543l-3.7714844-15.4233398c-0.1738281-0.6845703-0.359375-1.4902344-0.5585938-2.4169922
		c-0.1972656-0.9267578-0.3828125-1.9296875-0.5527344-3.0092773c-0.40625,1.015625-0.796875,1.9599609-1.1738281,2.8325195
		c-0.3789062,0.8735352-0.7382812,1.6333008-1.0800781,2.2817383L265.9179688,45.2094727z"/>
	<path class="st1" d="M333.5625,31.5302734l-1.9541016,6.565918l-12.9248047-3.847168l-10.8349609,36.3964844l-7.9921875-2.3793945
		l10.8349609-36.3964844l-12.984375-3.8652344l1.9550781-6.5664062L333.5625,31.5302734z"/>
	<path class="st1" d="M332.4755859,80.5625l-7.6035156-3.5004883l18.7480469-40.7172852l7.6025391,3.5004883L332.4755859,80.5625z"
		/>
	<path class="st1" d="M388.0771484,89.1513672c-1.8632812,2.706543-4.0400391,4.9033203-6.5292969,6.5888672
		c-2.4902344,1.6860352-5.1318359,2.809082-7.9267578,3.3696289c-2.7939453,0.5605469-5.6650391,0.5224609-8.6142578-0.1142578
		c-2.9482422-0.637207-5.8183594-1.9165039-8.6103516-3.8378906c-2.7929688-1.921875-5.0166016-4.1484375-6.6728516-6.6811523
		c-1.6572266-2.5327148-2.7265625-5.206543-3.2089844-8.0229492c-0.4833984-2.815918-0.3818359-5.6875,0.3037109-8.6157227
		c0.6845703-2.9277344,1.9589844-5.7451172,3.8222656-8.4516602c1.8632812-2.7070312,4.0390625-4.9033203,6.5292969-6.5893555
		c2.4892578-1.6855469,5.1357422-2.8061523,7.9384766-3.3608398s5.6826172-0.5107422,8.640625,0.1323242
		c2.9570312,0.6425781,5.8310547,1.9248047,8.6230469,3.8461914c2.7919922,1.921875,5.0087891,4.1503906,6.6513672,6.6850586
		c1.6416016,2.5356445,2.703125,5.2041016,3.1835938,8.0053711c0.4804688,2.8017578,0.3769531,5.6665039-0.3076172,8.5942383
		C391.2138672,83.6274414,389.9394531,86.4443359,388.0771484,89.1513672z M381.0292969,84.300293
		c1.3935547-2.0253906,2.3769531-4.0273438,2.9472656-6.0053711c0.5712891-1.9780273,0.7412109-3.8745117,0.5097656-5.6894531
		s-0.8613281-3.5151367-1.8886719-5.1010742c-1.0292969-1.5859375-2.4453125-3-4.25-4.2416992
		c-1.8046875-1.2421875-3.6357422-2.0629883-5.4921875-2.4633789c-1.8583984-0.3999023-3.6796875-0.3867188-5.4658203,0.0395508
		c-1.7861328,0.4267578-3.5048828,1.2568359-5.1572266,2.4907227s-3.1748047,2.8637695-4.5693359,4.8896484
		c-1.3945312,2.0263672-2.3730469,4.0302734-2.9355469,6.0146484c-0.5625,1.9833984-0.7207031,3.8818359-0.4755859,5.6938477
		c0.2460938,1.8120117,0.8867188,3.5141602,1.9238281,5.105957s2.4580078,3.0083008,4.2626953,4.2504883
		c1.8046875,1.2416992,3.6308594,2.0600586,5.4794922,2.4545898c1.8486328,0.394043,3.6591797,0.3793945,5.4306641-0.0444336
		c1.7724609-0.4238281,3.4804688-1.2558594,5.1240234-2.4956055
		C378.1152344,87.9589844,379.6347656,86.3266602,381.0292969,84.300293z"/>
	<path class="st1" d="M414.1884766,83.940918c0.1425781,0.2050781,0.2451172,0.4116211,0.3076172,0.6196289
		c0.0615234,0.2080078,0.0898438,0.4404297,0.0839844,0.6958008c-0.0058594,0.2558594-0.0410156,0.5649414-0.1035156,0.9277344
		l-6.5332031,37.5439453c0.4824219-0.5454102,0.9697266-1.0610352,1.4638672-1.5473633s0.9628906-0.9301758,1.4091797-1.3310547
		l20.25-18.2333984l4.9160156,5.4599609l-33.3125,29.9946289l-2.8828125-3.2021484
		c-0.4433594-0.4916992-0.7324219-0.9677734-0.8691406-1.4287109c-0.1376953-0.4604492-0.1445312-1.0244141-0.0214844-1.6914062
		l6.5029297-37.3916016c-0.4501953,0.4887695-0.90625,0.9619141-1.3691406,1.4208984
		c-0.4628906,0.4584961-0.8945312,0.8676758-1.2939453,1.2270508l-20.4570312,18.4199219l-4.9160156-5.4599609l33.3125-29.9946289
		l2.9248047,3.2485352C413.8496094,83.4951172,414.0449219,83.7358398,414.1884766,83.940918z"/>
</g>
<g>
	<path class="st1" d="M70.0546875,381.8710938c0.2446289,0.3828125,0.3076172,0.8085938,0.1894531,1.2763672l-1.2373047,4.6875
		c-2.8774414-0.3212891-5.5356445-1.2783203-7.9746094-2.8720703c-2.4394531-1.59375-4.6591797-3.9589844-6.6606445-7.0947266
		c-1.7900391-2.8046875-2.9204102-5.6318359-3.390625-8.4824219c-0.4707031-2.8496094-0.3583984-5.6123047,0.3374023-8.2871094
		c0.6953125-2.6748047,1.9580078-5.1914062,3.7885742-7.5478516c1.8295898-2.3574219,4.1469727-4.4306641,6.9521484-6.2207031
		c2.8393555-1.8125,5.7397461-3.0009766,8.7011719-3.5673828c2.9604492-0.5654297,5.8393555-0.5390625,8.6367188,0.078125
		c2.7963867,0.6181641,5.4282227,1.8125,7.8955078,3.5849609s4.6181641,4.0947266,6.4526367,6.9697266
		c1.7900391,2.8046875,2.9057617,5.5429688,3.3486328,8.2148438c0.4423828,2.671875,0.4013672,5.2294922-0.1230469,7.6728516
		l-4.7675781-0.2675781c-0.2978516-0.0058594-0.5947266-0.0673828-0.890625-0.1855469
		c-0.2958984-0.1171875-0.565918-0.3681641-0.8105469-0.7509766c-0.2558594-0.4013672-0.3598633-0.9101562-0.3134766-1.5283203
		c0.046875-0.6181641,0.0473633-1.3671875,0.0019531-2.2451172s-0.2255859-1.9091797-0.5400391-3.09375
		c-0.3149414-1.1845703-0.9555664-2.5341797-1.9228516-4.0498047c-1.1342773-1.7763672-2.4858398-3.2128906-4.0546875-4.3076172
		c-1.5693359-1.0947266-3.2705078-1.8105469-5.1040039-2.1484375s-3.7651367-0.28125-5.7949219,0.1679688
		c-2.0302734,0.4492188-4.0732422,1.3310547-6.128418,2.6425781c-2.1259766,1.3564453-3.8242188,2.8632812-5.0952148,4.5205078
		c-1.2719727,1.6572266-2.1459961,3.3603516-2.6220703,5.1113281c-0.4765625,1.7509766-0.5703125,3.5146484-0.2817383,5.2919922
		c0.2880859,1.7773438,0.9438477,3.4667969,1.9667969,5.0703125c0.6113281,0.9570312,1.2167969,1.7910156,1.8164062,2.5
		c0.5991211,0.7080078,1.2202148,1.3164062,1.8637695,1.8251953c0.6430664,0.5087891,1.3295898,0.9414062,2.0595703,1.296875
		c0.7290039,0.3554688,1.5390625,0.6542969,2.4287109,0.8955078c0.2675781,0.0742188,0.5107422,0.1767578,0.7290039,0.3076172
		C69.7285156,381.4658203,69.9101562,381.6445312,70.0546875,381.8710938z"/>
	<path class="st1" d="M117.9150391,415.8066406c-2.3110352,2.3359375-4.8413086,4.1132812-7.5893555,5.3339844
		c-2.7490234,1.2197266-5.5473633,1.859375-8.3964844,1.9179688c-2.8496094,0.0585938-5.6689453-0.4853516-8.4589844-1.6328125
		s-5.3896484-2.9130859-7.7983398-5.296875c-2.409668-2.3847656-4.2055664-4.96875-5.3891602-7.7539062
		c-1.184082-2.7851562-1.7646484-5.6064453-1.7431641-8.4638672c0.0214844-2.8564453,0.6279297-5.6660156,1.8193359-8.4267578
		c1.190918-2.7607422,2.9428711-5.3085938,5.2539062-7.6445312c2.3115234-2.3359375,4.8408203-4.1132812,7.5898438-5.3330078
		c2.7480469-1.2207031,5.550293-1.8564453,8.4077148-1.9072266c2.8564453-0.0517578,5.6831055,0.5,8.4804688,1.6542969
		s5.4003906,2.9238281,7.8095703,5.3076172s4.1982422,4.96875,5.3671875,7.7539062s1.7426758,5.5996094,1.7211914,8.4414062
		c-0.0219727,2.8427734-0.6289062,5.6445312-1.8198242,8.4052734
		C121.9775391,410.9228516,120.2265625,413.4716797,117.9150391,415.8066406z M111.8339844,409.7880859
		c1.7294922-1.7470703,3.050293-3.5449219,3.9614258-5.390625c0.9106445-1.8457031,1.4125977-3.6826172,1.5053711-5.5097656
		c0.0927734-1.828125-0.2275391-3.6123047-0.9594727-5.3544922c-0.7329102-1.7431641-1.8774414-3.3847656-3.434082-4.9257812
		c-1.5576172-1.5410156-3.2148438-2.671875-4.972168-3.3935547s-3.5527344-1.0302734-5.3862305-0.9257812
		s-3.6723633,0.6181641-5.515625,1.5419922c-1.8442383,0.9228516-3.6308594,2.2587891-5.3608398,4.0058594
		c-1.7299805,1.7490234-3.046875,3.5488281-3.9501953,5.4023438c-0.9038086,1.8535156-1.3950195,3.6943359-1.4731445,5.5205078
		c-0.078125,1.8271484,0.2524414,3.6162109,0.9926758,5.3662109c0.7392578,1.7490234,1.8881836,3.3945312,3.4453125,4.9355469
		c1.5566406,1.5410156,3.2099609,2.6689453,4.9609375,3.3828125c1.7495117,0.7138672,3.5341797,1.0195312,5.3530273,0.9150391
		s3.6464844-0.6220703,5.4833984-1.5527344C108.3208008,412.8759766,110.1035156,411.5371094,111.8339844,409.7880859z"/>
	<path class="st1" d="M141.9121094,437.7871094c-0.0942383,0.7675781-0.1953125,1.5371094-0.3027344,2.3085938
		c0.6206055-0.5019531,1.2446289-0.9902344,1.8730469-1.4648438c0.6279297-0.4736328,1.2583008-0.9101562,1.8920898-1.3105469
		l23.8432617-14.9707031c0.296875-0.1875,0.5683594-0.3173828,0.8129883-0.3916016
		c0.2446289-0.0751953,0.4819336-0.09375,0.7114258-0.0576172s0.4658203,0.1113281,0.7094727,0.2265625
		c0.2431641,0.1162109,0.5268555,0.265625,0.8496094,0.4501953l5.4628906,3.1240234l-22.2490234,38.9140625l-6.378418-3.6464844
		l14.371582-25.1357422c0.2666016-0.4667969,0.5722656-0.9697266,0.9174805-1.5107422
		c0.3447266-0.5410156,0.7080078-1.0830078,1.090332-1.6259766l-24.3774414,15.3427734
		c-0.5566406,0.3486328-1.1293945,0.5390625-1.7192383,0.5712891s-1.1713867-0.1162109-1.7456055-0.4453125l-0.9956055-0.5683594
		c-0.5742188-0.3291016-0.9970703-0.7548828-1.2685547-1.2792969s-0.3984375-1.1142578-0.3803711-1.7705078l0.7416992-28.9648438
		c-0.2670898,0.6328125-0.5483398,1.2402344-0.8447266,1.8203125c-0.2958984,0.5800781-0.5825195,1.1132812-0.859375,1.5976562
		l-14.371582,25.1357422l-6.3779297-3.6474609l22.2495117-38.9140625l5.4628906,3.1230469
		c0.3227539,0.1855469,0.5957031,0.3535156,0.8188477,0.5039062c0.2226562,0.1513672,0.4082031,0.3173828,0.5556641,0.4970703
		c0.1469727,0.1787109,0.2553711,0.3955078,0.324707,0.6494141c0.0688477,0.2539062,0.0981445,0.5566406,0.0878906,0.9072266
		l-0.7294922,28.2578125C142.0639648,436.2607422,142.0053711,437.0185547,141.9121094,437.7871094z"/>
	<path class="st1" d="M183.4165039,457.1015625l-4.3901367,15.15625l-8.0097656-2.3203125l12.4726562-43.0556641l14.0244141,4.0625
		c2.8779297,0.8339844,5.2714844,1.8935547,7.1806641,3.1777344c1.9082031,1.2841797,3.3720703,2.7304688,4.3911133,4.3378906
		s1.6113281,3.3505859,1.777832,5.2275391c0.1660156,1.8769531-0.0410156,3.8173828-0.621582,5.8222656
		c-0.6040039,2.0849609-1.5048828,3.8945312-2.7026367,5.4306641c-1.1987305,1.5351562-2.6733398,2.7265625-4.4248047,3.5751953
		c-1.7519531,0.8476562-3.7705078,1.3173828-6.0561523,1.4082031c-2.2856445,0.0917969-4.8276367-0.2685547-7.6264648-1.0791016
		L183.4165039,457.1015625z M185.2280273,450.8486328l6.0146484,1.7431641
		c1.46875,0.4248047,2.8022461,0.6123047,4.0009766,0.5615234c1.1977539-0.0507812,2.253418-0.3154297,3.1665039-0.7929688
		c0.9130859-0.4785156,1.6904297-1.15625,2.3325195-2.0361328c0.6420898-0.8789062,1.1381836-1.9238281,1.4892578-3.1347656
		c0.3334961-1.1503906,0.456543-2.2451172,0.3696289-3.28125s-0.3930664-1.9863281-0.9179688-2.8476562
		c-0.5249023-0.8623047-1.2832031-1.625-2.2739258-2.2890625c-0.9912109-0.6630859-2.2211914-1.2080078-3.6899414-1.6337891
		l-6.0151367-1.7421875L185.2280273,450.8486328z"/>
	<path class="st1" d="M249.5708008,439.1679688l-0.6464844,6.8203125l-13.4248047-1.2724609l-3.5834961,37.8056641
		l-8.3017578-0.7871094l3.5834961-37.8056641l-13.4863281-1.2783203l0.6459961-6.8203125L249.5708008,439.1679688z"/>
	<path class="st1" d="M290.9179688,480.6347656l-6.4277344,0.5205078c-0.7207031,0.0585938-1.328125-0.0732422-1.8203125-0.3964844
		c-0.4921875-0.3222656-0.8632812-0.7431641-1.1132812-1.2626953l-4.0761719-8.8447266l-18.5078125,1.5L256.375,481.5371094
		c-0.1269531,0.4873047-0.4160156,0.9462891-0.8691406,1.3769531c-0.4511719,0.4306641-1.0292969,0.6738281-1.7285156,0.7314453
		l-6.4575195,0.5234375l13.9282227-46.1025391l8.4980469-0.6884766L290.9179688,480.6347656z M260.6289062,466.1083984
		l14.2441406-1.1552734l-6.6425781-14.4208984c-0.3007812-0.6386719-0.6367188-1.3945312-1.0078125-2.2666016
		s-0.7441406-1.8212891-1.1171875-2.8486328c-0.203125,1.0742188-0.4082031,2.0751953-0.6113281,3.0039062
		c-0.2050781,0.9296875-0.4140625,1.7441406-0.6269531,2.4462891L260.6289062,466.1083984z"/>
	<path class="st1" d="M301.5644531,477.9931641l-12.78125-42.9658203l14.8271484-4.4101562
		c2.8125-0.8369141,5.2939453-1.2841797,7.4443359-1.3417969c2.1494141-0.0576172,4.0107422,0.2197266,5.5830078,0.8300781
		s2.8642578,1.5302734,3.8769531,2.7597656s1.78125,2.7255859,2.3056641,4.4882812
		c0.3007812,1.0107422,0.4394531,2.0205078,0.4160156,3.0302734c-0.0224609,1.0097656-0.2265625,2.0078125-0.6123047,2.9960938
		c-0.3847656,0.9873047-0.9609375,1.9511719-1.7275391,2.890625s-1.7451172,1.8349609-2.9365234,2.6845703
		c6.2978516-0.4277344,10.1982422,1.8828125,11.7001953,6.9335938c0.5429688,1.8232422,0.6962891,3.609375,0.4628906,5.3613281
		c-0.2333984,1.7509766-0.8476562,3.3837891-1.8417969,4.8974609c-0.9941406,1.5146484-2.3681641,2.8769531-4.1201172,4.0878906
		c-1.7529297,1.2119141-3.8769531,2.1884766-6.3730469,2.9316406L301.5644531,477.9931641z M302.3095703,451.25l6.3886719-1.9003906
		c2.7128906-0.8066406,4.6259766-1.9150391,5.7382812-3.3242188c1.1113281-1.4082031,1.3466797-3.1923828,0.7041016-5.3515625
		c-0.6660156-2.2382812-1.7744141-3.6445312-3.3251953-4.21875c-1.5507812-0.5732422-3.6728516-0.4589844-6.3662109,0.3417969
		l-6.8339844,2.0332031L302.3095703,451.25z M303.953125,456.7773438L307.7011719,469.375l8.1123047-2.4130859
		c1.4853516-0.4414062,2.6748047-0.9892578,3.5693359-1.6435547s1.5546875-1.3681641,1.9824219-2.1425781
		c0.4277344-0.7734375,0.6572266-1.5966797,0.6884766-2.46875c0.0322266-0.8720703-0.0849609-1.7539062-0.3496094-2.6445312
		c-0.2773438-0.9316406-0.6748047-1.7246094-1.1923828-2.3789062c-0.5185547-0.6542969-1.1728516-1.1494141-1.9628906-1.4863281
		c-0.7900391-0.3359375-1.7216797-0.4951172-2.7939453-0.4785156c-1.0732422,0.0175781-2.3134766,0.2353516-3.7197266,0.6542969
		L303.953125,456.7773438z"/>
	<path class="st1" d="M352.8925781,459.3388672l-7.5742188,3.5615234l-19.0732422-40.5654297l7.5751953-3.5615234
		L352.8925781,459.3388672z"/>
	<path class="st1" d="M369.1748047,442.4296875l15.1171875-9.6767578l3.7099609,5.796875l-22.140625,14.171875
		l-24.1660156-37.7548828l7.0234375-4.4960938L369.1748047,442.4296875z"/>
	<path class="st1" d="M403.0820312,425.9423828l-6.4101562,5.3828125l-28.828125-34.3271484l6.4101562-5.3828125
		L403.0820312,425.9423828z"/>
	<path class="st1" d="M401.9472656,362.7080078l5.0957031,4.5791016l-9.0136719,10.0292969l28.2441406,25.3847656
		l-5.5742188,6.2021484l-28.2441406-25.3847656l-9.0556641,10.0761719l-5.0957031-4.5791016L401.9472656,362.7080078z"/>
	<path class="st1" d="M408.2392578,331.9375l0.8720703,11.3261719c0.0214844,0.28125,0.0244141,0.53125,0.0087891,0.7529297
		c-0.0146484,0.2216797-0.0478516,0.4316406-0.0986328,0.6308594c-0.0507812,0.2001953-0.1240234,0.3974609-0.2207031,0.5927734
		c-0.0957031,0.1953125-0.2207031,0.4160156-0.3730469,0.6621094l-3.1611328,5.1162109l-2.1328125-8.4609375
		c-0.0800781-0.3408203-0.1337891-0.6474609-0.1601562-0.9189453c-0.0273438-0.2714844-0.0205078-0.5283203,0.0205078-0.7705078
		c0.0400391-0.2421875,0.1230469-0.4941406,0.2490234-0.7568359s0.296875-0.5693359,0.5146484-0.921875L408.2392578,331.9375z
		 M418.265625,336.0576172l5.6435547,3.4873047l-10.4462891,16.9033203l10.5751953,6.5351562l8.2294922-13.3173828
		l5.4589844,3.3730469l-8.2294922,13.3173828l10.7851562,6.6660156l10.4462891-16.9042969l5.6699219,3.5039062
		l-14.8632812,24.0498047l-38.1318359-23.5644531L418.265625,336.0576172z"/>
</g>
<circle class="st2" cx="250" cy="250" r="175"/>
<path class="st3" d="M188.8757629,337.320343c0-9.69104-7.7730255-17.4640503-17.4640656-17.4640503
	s-17.4842529,7.7730103-17.4842529,17.4640503s7.7730255,17.4842529,17.4842529,17.4842529
	S188.8757629,347.0315857,188.8757629,337.320343L188.8757629,337.320343z M241.288147,337.320343
	c0-9.69104-7.7730255-17.4640503-17.4842529-17.4640503s-17.4640656,7.7730103-17.4640656,17.4640503
	s7.7730255,17.4842529,17.4640656,17.4842529S241.288147,347.0315857,241.288147,337.320343z M188.8757629,284.9483337
	c0-9.7112427-7.7730255-17.4842529-17.4640656-17.4842529s-17.4842529,7.7730103-17.4842529,17.4842529
	c0,9.7112122,7.7730255,17.4640503,17.4842529,17.4640503S188.8757629,294.6191711,188.8757629,284.9483337L188.8757629,284.9483337
	z M293.6803589,337.320343c0-9.69104-7.7932129-17.4640503-17.4842529-17.4640503s-17.4640503,7.7730103-17.4640503,17.4640503
	s7.7730103,17.4842529,17.4640503,17.4842529S293.6803589,347.0315857,293.6803589,337.320343z M241.288147,284.9483337
	c0-9.7112427-7.7730255-17.4842529-17.4842529-17.4842529s-17.4640656,7.7730103-17.4640656,17.4842529
	c0,9.7112122,7.7730255,17.4640503,17.4640656,17.4640503S241.288147,294.6191711,241.288147,284.9483337z M188.8757629,232.5359344
	c0-9.69104-7.7730255-17.4842529-17.4640656-17.4842529s-17.4842529,7.7932129-17.4842529,17.4842529S161.70047,250,171.4116974,250
	S188.8757629,242.2269745,188.8757629,232.5359344L188.8757629,232.5359344z M293.6803589,284.9483337
	c0-9.7112427-7.7932129-17.4842529-17.4842529-17.4842529s-17.4640503,7.7730103-17.4640503,17.4842529
	c0,9.7112122,7.7730103,17.4640503,17.4640503,17.4640503S293.6803589,294.6191711,293.6803589,284.9483337z
	 M241.288147,232.5359344c0-9.69104-7.7730255-17.4842529-17.4842529-17.4842529s-17.4640656,7.7932129-17.4640656,17.4842529
	S214.112854,250,223.803894,250S241.288147,242.2269745,241.288147,232.5359344z M346.0523682,337.320343v-52.3720093
	c0-9.5699158-7.894165-17.4842529-17.4640808-17.4842529l0,0c-9.5295105,0-17.4640503,7.9143372-17.4640503,17.4842529v52.3720093
	c0,9.5699158,7.9143372,17.4842529,17.4640503,17.4842529l0,0
	C338.1582031,354.8045959,346.0523682,346.8700562,346.0523682,337.320343z M293.6803589,232.5359344
	c0-9.69104-7.7932129-17.4842529-17.4842529-17.4842529s-17.4640503,7.7932129-17.4640503,17.4842529
	S266.5050659,250,276.196106,250S293.6803589,242.2269745,293.6803589,232.5359344z M346.0523682,188.8656616v-34.9483185
	c0-4.7647705-3.9369812-8.7219391-8.7219238-8.7219391H162.6695709c-4.7647552,0-8.7219391,3.9571686-8.7219391,8.7219391
	v34.9483185c0,4.7647552,3.9571686,8.7219391,8.7219391,8.7219391h174.6608734
	C342.115387,197.5876007,346.0523682,193.6304321,346.0523682,188.8656616L346.0523682,188.8656616z M346.0523682,232.5359344
	c0-9.69104-7.7730408-17.4842529-17.4640808-17.4842529s-17.4640503,7.7932129-17.4640503,17.4842529
	S318.8972473,250,328.5882874,250S346.0523682,242.2269745,346.0523682,232.5359344z M363.5366516,145.1954041v209.6091919
	c0,9.5295105-7.9143677,17.4640808-17.4842529,17.4640808H153.9274292c-9.5295258,0-17.4640656-7.9143372-17.4640656-17.4640808
	V145.1954041c0-9.5295258,7.9143524-17.4640732,17.4640656-17.4640732h192.124939
	C355.6222839,127.7313385,363.5366516,135.6658783,363.5366516,145.1954041z"/>
</svg>
