<?xml version="1.0" encoding="utf-8"?>
<!-- Generator: Adobe Illustrator 24.3.0, SVG Export Plug-In . SVG Version: 6.00 Build 0)  -->
<svg version="1.1" id="Calque_1" xmlns="http://www.w3.org/2000/svg" xmlns:xlink="http://www.w3.org/1999/xlink" x="0px" y="0px"
	 viewBox="0 0 1142.9 1000" style="enable-background:new 0 0 1142.9 1000;" xml:space="preserve">
<style type="text/css">
	.st0{fill:#333333;}
</style>
<path class="st0" d="M535.7,0l535.7,214.3v71.4H1000c0,19.5-17.3,35.7-38.5,35.7H109.9c-21.2,0-38.5-16.2-38.5-35.7H0v-71.4L535.7,0
	z M142.9,357.1h142.8v428.6h71.4V357.1H500v428.6h71.4V357.1h142.9v428.6h71.4V357.1h142.9v428.6h32.9c21.2,0,38.5,16.2,38.5,35.7
	v35.7H71.4v-35.7c0-19.5,17.3-35.7,38.5-35.7h33L142.9,357.1L142.9,357.1z M1032.9,892.9c21.2,0,38.5,16.1,38.5,35.7v71.4H0v-71.4
	c0-19.6,17.3-35.7,38.5-35.7H1032.9z"/>
</svg>
