<?xml version="1.0" encoding="utf-8"?>
<!-- Generator: Adobe Illustrator 23.0.6, SVG Export Plug-In . SVG Version: 6.00 Build 0)  -->
<svg version="1.1" id="Calque_1" xmlns="http://www.w3.org/2000/svg" xmlns:xlink="http://www.w3.org/1999/xlink" x="0px" y="0px"
	 viewBox="0 0 928.6 1000" style="enable-background:new 0 0 928.6 1000;" xml:space="preserve">
<style type="text/css">
	.st0{fill:#688ED8;}
</style>
<path class="st0" d="M714.3,821.4c0-19.5-16.2-35.7-35.7-35.7s-35.7,16.2-35.7,35.7s16.1,35.7,35.7,35.7S714.3,841,714.3,821.4z
	 M857.1,821.4c0-19.5-16.1-35.7-35.7-35.7s-35.7,16.2-35.7,35.7s16.2,35.7,35.7,35.7S857.1,841,857.1,821.4z M928.6,696.4V875
	c0,29.6-24,53.6-53.6,53.6H53.6C24,928.6,0,904.6,0,875V696.4c0-29.5,24-53.5,53.6-53.5h238.3c15,41.3,54.6,71.4,101,71.4h142.8
	c46.3,0,86-30.1,101-71.4H875C904.6,642.9,928.6,666.9,928.6,696.4L928.6,696.4z M747.2,334.8c-5.6,13.4-18.4,22.3-32.9,22.3H571.4
	v250c0,19.6-16.2,35.8-35.7,35.8H392.9c-19.6,0-35.8-16.2-35.8-35.8v-250H214.3c-14.5,0-27.4-8.9-32.9-22.3
	c-5.6-12.8-2.8-28.4,7.8-38.5l250-250c6.7-7.2,16.2-10.6,25.1-10.6s18.4,3.4,25.1,10.6l250,250C750,306.4,752.8,322,747.2,334.8
	L747.2,334.8z"/>
</svg>
