<?xml version="1.0" encoding="utf-8"?>
<!-- Generator: Adobe Illustrator 22.0.1, SVG Export Plug-In . SVG Version: 6.00 Build 0)  -->
<svg version="1.1" id="Calque_1" xmlns="http://www.w3.org/2000/svg" xmlns:xlink="http://www.w3.org/1999/xlink" x="0px" y="0px"
	 viewBox="0 0 785.7 1000" style="enable-background:new 0 0 785.7 1000;" xml:space="preserve">
<style type="text/css">
	.st0{fill:#688ED8;}
</style>
<path class="st0" d="M783.5,772.9c0,87-66.4,153.4-153.5,153.4c-49.1,0-96.5-21.2-131.1-55.8l-433.6-433
	C25.7,397.3,2.2,342.6,2.2,286.3C2.2,168,95.4,73.7,213.7,73.7c56.9,0,111.6,22.8,152.4,63l337.6,338.2c3.3,3.3,5.6,7.8,5.6,12.3
	c0,11.7-31.3,42.9-43,42.9c-5,0-9.5-2.2-12.8-5.5L315.3,185.8c-26.8-26.2-63.1-42.9-101-42.9C135,142.9,73.7,207,73.7,285.7
	c0,38,15.6,74.2,42.4,101l433,433.6c21.2,21.2,50.8,35.2,80.9,35.2c47.5,0,82.6-35.2,82.6-82.6c0-30.7-13.9-59.7-35.1-80.9
	L353.2,367.7c-8.9-8.3-21.2-13.3-33.4-13.3c-21.3,0-37.4,15.6-37.4,37.3c0,12.3,5.5,24,13.9,33l228.8,228.8
	c3.4,3.3,5.6,7.8,5.6,12.2c0,11.8-31.8,43.6-43.5,43.6c-4.5,0-9-2.3-12.3-5.6L246.1,474.9c-22.3-21.8-35.2-52.5-35.2-83.2
	c0-61.3,48-109.3,109.4-109.3c31.3,0,61.4,12.8,83.2,35.1l324.2,324.2C762.8,676.3,783.5,723.8,783.5,772.9L783.5,772.9z"/>
</svg>
