<?xml version="1.0" encoding="utf-8"?>
<!-- Generator: Adobe Illustrator 24.3.0, SVG Export Plug-In . SVG Version: 6.00 Build 0)  -->
<svg version="1.1" id="Calque_1" focusable="false" xmlns="http://www.w3.org/2000/svg" xmlns:xlink="http://www.w3.org/1999/xlink"
	 x="0px" y="0px" viewBox="0 0 512 512" style="enable-background:new 0 0 512 512;" xml:space="preserve">
<style type="text/css">
	.st0{fill:#666666;}
</style>
<path class="st0" d="M489.2,130.6C446.9,47.7,355.4,0,255.9,0C133.3,0,30.5,86.4,5.7,202c26.8-48,89-81.6,154.3-81.6
	c81.9,0,125,50.5,126.1,51.8c22.7,24.6,34.1,52,34.1,85.8c0,10.7-5.5,26.6-15.6,39.8c-1.7,2.1-6.6,5-6.6,11.4
	c0,5.3,3.4,10.2,9.4,14.5c28.8,20,83,17.3,83.1,17.3c21.3-0.1,42.2-5.8,60.5-16.7c37.6-22,60.8-62.2,60.9-105.7
	C512.4,173.5,495.9,143.8,489.2,130.6z M211.4,482.7c-19.1-11.9-35.5-27.8-48.1-46.4c-34-48.9-35.3-98.7-20.7-140.4
	c10.4-32.7,31-61.3,58.8-81.4c60.9-46.7,97.9-5.8,102.3-1c-1.4-3.6-3.1-7.1-5.1-10.4c-9.5-16.4-24.8-37.6-58.4-55.2
	c-34.8-18.3-72.9-19.2-80.1-19.2c-39.9,0-80.4,13.4-111,36.8C28.6,180.9,5,207.2,0.6,242.6c-1.1,12.7-2.9,64.8,23.7,122.1
	c45.9,98.1,148.5,156.5,256.3,146.2C241.3,504,212.8,483.3,211.4,482.7z M470.2,381.2c-2.5-1.5-5.6-1.7-8.2-0.2
	c-6.8,3.6-13.8,6.7-21.1,9.4c-22.9,8.6-47.3,13-71.7,12.9c-94.7,0-177-65.1-177-148.6c0.1-9.6,2.4-19,6.7-27.7
	c-16.5,14.6-30,32-40,51.6c-15.4,30.3-34.1,90.9,13.7,156.6c6.7,9.2,23.7,31,57.8,49.2c24.4,13,50.6,20.2,74,20.2
	c36.2,0,119.1-34.5,168.2-112.4C475,388.6,473.9,383.7,470.2,381.2C470.2,381.3,470.2,381.2,470.2,381.2L470.2,381.2z"/>
</svg>
