<?xml version="1.0" encoding="utf-8"?>
<!-- Generator: Adobe Illustrator 21.1.0, SVG Export Plug-In . SVG Version: 6.00 Build 0)  -->
<svg version="1.1" id="Calque_1" xmlns="http://www.w3.org/2000/svg" xmlns:xlink="http://www.w3.org/1999/xlink" x="0px" y="0px"
	 viewBox="0 0 71 71" style="enable-background:new 0 0 71 71;" xml:space="preserve">
<style type="text/css">
	.st0{fill-rule:evenodd;clip-rule:evenodd;fill:#FF0000;}
	.st1{fill:#FFFFFF;}
</style>
<g>
	<g id="Ellipse_1_3_">
		<g>
			<circle class="st0" cx="35.5" cy="35.5" r="35.5"/>
		</g>
	</g>
	<g>
		<path class="st1" d="M36.9,44.1c3.1,0,5.6-1.2,7.5-3.6l4,4.1c-3.2,3.6-6.9,5.4-11.2,5.4c-4.3,0-7.9-1.4-10.6-4.1
			c-2.8-2.7-4.2-6.2-4.2-10.3c0-4.1,1.4-7.6,4.3-10.4C29.5,22.4,33,21,37.1,21c4.6,0,8.4,1.7,11.5,5.2l-3.9,4.4
			c-2-2.5-4.4-3.7-7.4-3.7c-2.3,0-4.4,0.8-6,2.3c-1.7,1.5-2.5,3.6-2.5,6.2s0.8,4.7,2.4,6.3C32.8,43.3,34.7,44.1,36.9,44.1z"/>
	</g>
</g>
</svg>
