<?xml version="1.0" encoding="utf-8"?>
<!-- Generator: Adobe Illustrator 24.3.0, SVG Export Plug-In . SVG Version: 6.00 Build 0)  -->
<svg version="1.1" id="Calque_1" xmlns="http://www.w3.org/2000/svg" xmlns:xlink="http://www.w3.org/1999/xlink" x="0px" y="0px"
	 viewBox="0 0 1143.4 292" style="enable-background:new 0 0 1143.4 292;" xml:space="preserve">
<style type="text/css">
	.st0{fill:url(#SVGID_1_);}
	.st1{fill:url(#SVGID_2_);}
	.st2{fill:#FFFFFF;}
	.st3{fill:#333333;}
</style>
<g>
	
		<linearGradient id="SVGID_1_" gradientUnits="userSpaceOnUse" x1="2842.3" y1="1342" x2="2842.3" y2="1050" gradientTransform="matrix(-1 0 0 1 3414 -1050)">
		<stop  offset="0" style="stop-color:#BBBBBB"/>
		<stop  offset="1" style="stop-color:#DCDCDC"/>
	</linearGradient>
	<path class="st0" d="M25,282c-8,0-15-7-15-15V25c0-8,7-15,15-15h1093.5c8,0,15,7,15,15v242c0,8-7,15-15,15H25z M1118.4,292
		c14,0,25-11,25-25V25c0-14-11-25-25-25H25C11,0,0,11,0,25v242c0,14,11,25,25,25H1118.4z"/>
</g>
<linearGradient id="SVGID_2_" gradientUnits="userSpaceOnUse" x1="2842.25" y1="-308" x2="2842.25" y2="-36" gradientTransform="matrix(-1 0 0 -1 3414 -26)">
	<stop  offset="0" style="stop-color:#E8E8E8"/>
	<stop  offset="1" style="stop-color:#F9F9F9"/>
</linearGradient>
<path class="st1" d="M25,282c-8,0-15-7-15-15V25c0-8,7-15,15-15h1093.5c8,0,15,7,15,15v242c0,8-7,15-15,15H25z"/>
<g>
	<g>
		<path class="st2" d="M182.6,179.9c1,0,1.9,0.4,2.7,1.2l7.4,8.1c-4.1,5.1-9.2,9-15.2,11.7c-6,2.7-13.2,4.1-21.6,4.1
			c-7.5,0-14.3-1.3-20.3-3.9c-6-2.6-11.1-6.1-15.4-10.7c-4.2-4.6-7.5-10-9.8-16.4c-2.3-6.3-3.4-13.3-3.4-20.8
			c0-7.6,1.3-14.6,3.8-20.9c2.5-6.3,6.1-11.8,10.6-16.3c4.6-4.6,10-8.1,16.4-10.7c6.4-2.5,13.4-3.8,21.1-3.8
			c7.5,0,14.1,1.2,19.7,3.6c5.6,2.4,10.4,5.6,14.5,9.6l-6.3,8.8c-0.4,0.6-0.9,1.1-1.4,1.5c-0.6,0.4-1.4,0.6-2.4,0.6
			c-1.1,0-2.2-0.4-3.3-1.3c-1.1-0.8-2.5-1.8-4.3-2.7c-1.7-1-3.9-1.9-6.5-2.7c-2.6-0.8-6-1.3-10-1.3c-4.8,0-9.1,0.8-13.1,2.5
			c-4,1.7-7.4,4-10.3,7.1c-2.9,3.1-5.1,6.8-6.7,11.2c-1.6,4.4-2.4,9.4-2.4,14.9c0,5.7,0.8,10.8,2.4,15.2c1.6,4.4,3.8,8.2,6.5,11.2
			c2.8,3,6,5.4,9.7,7c3.7,1.6,7.7,2.4,12,2.4c2.6,0,4.9-0.1,7-0.4c2.1-0.3,4-0.7,5.7-1.3c1.8-0.6,3.4-1.4,5-2.3
			c1.6-1,3.1-2.1,4.7-3.5c0.5-0.4,1-0.8,1.5-1C181.5,180.1,182,179.9,182.6,179.9z"/>
		<path class="st2" d="M262.2,203.8h-7.8c-1.6,0-2.9-0.2-3.9-0.7c-0.9-0.5-1.6-1.5-2.1-3l-1.5-5.1c-1.8,1.6-3.6,3.1-5.4,4.3
			c-1.8,1.2-3.6,2.3-5.4,3.1c-1.9,0.8-3.9,1.5-6,1.9c-2.1,0.4-4.4,0.6-7,0.6c-3,0-5.8-0.4-8.4-1.2c-2.6-0.8-4.8-2-6.6-3.7
			c-1.8-1.6-3.3-3.7-4.3-6.1c-1-2.4-1.5-5.3-1.5-8.5c0-2.7,0.7-5.4,2.1-8c1.4-2.6,3.8-5,7.1-7.2c3.3-2.1,7.7-3.9,13.2-5.3
			c5.5-1.4,12.3-2.1,20.5-2.1v-4.2c0-4.8-1-8.4-3-10.8s-5-3.5-8.9-3.5c-2.8,0-5.1,0.3-7,1c-1.9,0.7-3.5,1.4-4.9,2.2
			c-1.4,0.8-2.6,1.6-3.8,2.2c-1.2,0.7-2.4,1-3.8,1c-1.2,0-2.2-0.3-3-0.9c-0.8-0.6-1.5-1.4-2-2.2l-3.2-5.5
			c8.3-7.6,18.2-11.3,29.9-11.3c4.2,0,7.9,0.7,11.2,2.1c3.3,1.4,6.1,3.3,8.4,5.7c2.3,2.5,4,5.4,5.2,8.8c1.2,3.4,1.8,7.1,1.8,11.2
			V203.8z M228.6,193c1.8,0,3.4-0.2,4.9-0.5c1.5-0.3,2.9-0.8,4.2-1.4c1.3-0.6,2.6-1.4,3.8-2.4c1.2-0.9,2.5-2.1,3.7-3.3v-12
			c-5,0-9.3,0.3-12.6,1c-3.4,0.6-6.1,1.4-8.2,2.4c-2.1,1-3.5,2.1-4.4,3.5c-0.9,1.3-1.3,2.7-1.3,4.3c0,3.1,0.9,5.2,2.7,6.6
			C223.4,192.4,225.7,193,228.6,193z"/>
		<path class="st2" d="M297.6,99.8v104h-17.3v-104H297.6z"/>
		<path class="st2" d="M367.6,147.2c-0.5,0.7-1,1.2-1.5,1.5c-0.5,0.4-1.2,0.6-2.1,0.6c-0.9,0-1.8-0.3-2.6-0.8
			c-0.8-0.5-1.8-1.1-3-1.8c-1.2-0.7-2.6-1.3-4.2-1.8c-1.6-0.5-3.6-0.8-6-0.8c-3,0-5.7,0.5-8,1.6c-2.3,1.1-4.2,2.7-5.7,4.7
			c-1.5,2.1-2.6,4.5-3.4,7.5c-0.7,2.9-1.1,6.2-1.1,9.9c0,3.8,0.4,7.2,1.2,10.2c0.8,3,2,5.5,3.5,7.5c1.5,2,3.4,3.6,5.6,4.6
			c2.2,1.1,4.7,1.6,7.4,1.6c2.8,0,5-0.3,6.7-1c1.7-0.7,3.1-1.4,4.3-2.2c1.2-0.8,2.2-1.6,3-2.2c0.9-0.7,1.8-1,2.9-1
			c1.4,0,2.5,0.5,3.2,1.6l5,6.3c-1.9,2.2-4,4.1-6.2,5.6c-2.2,1.5-4.6,2.7-7,3.6c-2.4,0.9-4.9,1.6-7.5,1.9c-2.6,0.4-5.1,0.6-7.6,0.6
			c-4.4,0-8.6-0.8-12.5-2.5s-7.3-4.1-10.3-7.2c-2.9-3.2-5.2-7.1-6.9-11.7c-1.7-4.6-2.6-9.8-2.6-15.7c0-5.3,0.8-10.2,2.3-14.7
			c1.5-4.5,3.7-8.4,6.7-11.7c2.9-3.3,6.6-5.9,10.9-7.7c4.3-1.9,9.3-2.8,15-2.8c5.4,0,10.1,0.9,14.1,2.6c4,1.7,7.7,4.2,10.9,7.4
			L367.6,147.2z"/>
		<path class="st2" d="M399.8,132v45.6c0,4.4,1,7.8,3,10.2c2,2.4,5.1,3.6,9.1,3.6c3,0,5.8-0.7,8.4-2c2.6-1.3,5.1-3.2,7.4-5.5V132
			H445v71.8h-10.6c-2.2,0-3.7-1-4.4-3.1l-1.2-5.7c-1.5,1.5-3,2.9-4.6,4.1c-1.6,1.2-3.3,2.3-5.1,3.1c-1.8,0.9-3.7,1.5-5.8,2
			c-2.1,0.5-4.3,0.7-6.7,0.7c-3.9,0-7.4-0.7-10.4-2c-3-1.3-5.5-3.2-7.6-5.6c-2.1-2.4-3.6-5.3-4.7-8.6c-1.1-3.3-1.6-7-1.6-11V132
			H399.8z"/>
		<path class="st2" d="M481.9,99.8v104h-17.3v-104H481.9z"/>
		<path class="st2" d="M531.1,130.9c4.5,0,8.7,0.7,12.5,2.2c3.8,1.4,7.1,3.6,9.8,6.3c2.8,2.8,4.9,6.2,6.4,10.2
			c1.5,4,2.3,8.6,2.3,13.8c0,1.3-0.1,2.4-0.2,3.3c-0.1,0.9-0.3,1.5-0.6,2c-0.3,0.5-0.7,0.8-1.2,1c-0.5,0.2-1.2,0.3-2,0.3h-44.4
			c0.5,7.4,2.5,12.8,6,16.2c3.5,3.5,8,5.2,13.7,5.2c2.8,0,5.2-0.3,7.2-1c2-0.7,3.8-1.4,5.3-2.2c1.5-0.8,2.8-1.5,4-2.2
			c1.1-0.7,2.3-1,3.3-1c0.7,0,1.3,0.1,1.8,0.4c0.5,0.3,1,0.7,1.3,1.2l5,6.3c-1.9,2.2-4.1,4.1-6.4,5.6c-2.4,1.5-4.9,2.7-7.5,3.6
			c-2.6,0.9-5.2,1.6-7.9,1.9c-2.7,0.4-5.3,0.6-7.8,0.6c-5,0-9.6-0.8-13.9-2.5c-4.3-1.7-8-4.1-11.2-7.4c-3.2-3.2-5.7-7.3-7.5-12
			c-1.8-4.8-2.7-10.3-2.7-16.6c0-4.9,0.8-9.5,2.4-13.8c1.6-4.3,3.9-8.1,6.8-11.3c3-3.2,6.6-5.7,10.8-7.6
			C521,131.8,525.8,130.9,531.1,130.9z M531.5,143.3c-5,0-9,1.4-11.8,4.3c-2.8,2.8-4.7,6.9-5.5,12.1h32.5c0-2.2-0.3-4.4-0.9-6.3
			c-0.6-2-1.5-3.7-2.8-5.2c-1.3-1.5-2.8-2.7-4.8-3.5C536.3,143.7,534.1,143.3,531.5,143.3z"/>
		<path class="st2" d="M576.3,203.8V132h10.2c1.8,0,3,0.3,3.7,1c0.7,0.7,1.2,1.8,1.4,3.4l1,8.7c2.6-4.4,5.6-7.9,9-10.5
			c3.5-2.6,7.3-3.9,11.6-3.9c3.5,0,6.5,0.8,8.8,2.4l-2.2,13c-0.1,0.8-0.4,1.4-0.9,1.8c-0.5,0.3-1.1,0.5-1.9,0.5
			c-0.7,0-1.7-0.2-2.9-0.5c-1.2-0.3-2.8-0.5-4.8-0.5c-3.6,0-6.7,1-9.2,3c-2.6,2-4.7,4.9-6.5,8.7v44.7H576.3z"/>
		<path class="st2" d="M678.9,99.8v104h-17.3v-104H678.9z"/>
		<path class="st2" d="M728.1,130.9c4.5,0,8.7,0.7,12.5,2.2c3.8,1.4,7.1,3.6,9.8,6.3c2.8,2.8,4.9,6.2,6.4,10.2
			c1.5,4,2.3,8.6,2.3,13.8c0,1.3-0.1,2.4-0.2,3.3c-0.1,0.9-0.3,1.5-0.6,2c-0.3,0.5-0.7,0.8-1.2,1s-1.2,0.3-2,0.3h-44.4
			c0.5,7.4,2.5,12.8,6,16.2c3.5,3.5,8,5.2,13.7,5.2c2.8,0,5.2-0.3,7.2-1c2-0.7,3.8-1.4,5.3-2.2c1.5-0.8,2.8-1.5,4-2.2
			c1.1-0.7,2.2-1,3.3-1c0.7,0,1.3,0.1,1.8,0.4c0.5,0.3,1,0.7,1.3,1.2l5,6.3c-1.9,2.2-4.1,4.1-6.4,5.6c-2.4,1.5-4.9,2.7-7.5,3.6
			c-2.6,0.9-5.2,1.6-7.9,1.9c-2.7,0.4-5.3,0.6-7.8,0.6c-5,0-9.6-0.8-13.9-2.5c-4.3-1.7-8-4.1-11.2-7.4c-3.2-3.2-5.7-7.3-7.5-12
			c-1.8-4.8-2.7-10.3-2.7-16.6c0-4.9,0.8-9.5,2.4-13.8c1.6-4.3,3.9-8.1,6.8-11.3c3-3.2,6.6-5.7,10.8-7.6
			C717.9,131.8,722.8,130.9,728.1,130.9z M728.5,143.3c-5,0-9,1.4-11.8,4.3c-2.8,2.8-4.7,6.9-5.5,12.1h32.5c0-2.2-0.3-4.4-0.9-6.3
			c-0.6-2-1.5-3.7-2.8-5.2c-1.3-1.5-2.8-2.7-4.8-3.5C733.3,143.7,731,143.3,728.5,143.3z"/>
		<path class="st2" d="M815.9,146c-0.5,0.7-1,1.3-1.5,1.6c-0.5,0.3-1.2,0.5-2,0.5c-0.8,0-1.7-0.2-2.7-0.7c-1-0.5-2.1-1-3.3-1.6
			c-1.3-0.6-2.7-1.1-4.3-1.6c-1.6-0.5-3.5-0.7-5.7-0.7c-3.4,0-6.1,0.7-8,2.2c-2,1.4-2.9,3.3-2.9,5.7c0,1.5,0.5,2.8,1.5,3.9
			c1,1.1,2.3,2,4,2.8c1.7,0.8,3.5,1.5,5.6,2.1c2.1,0.6,4.2,1.3,6.4,2.1c2.2,0.7,4.3,1.6,6.4,2.6c2.1,1,4,2.2,5.6,3.6
			c1.7,1.5,3,3.2,4,5.3c1,2.1,1.5,4.5,1.5,7.4c0,3.5-0.6,6.6-1.9,9.6c-1.3,2.9-3.1,5.4-5.5,7.6c-2.4,2.1-5.4,3.8-9,5
			c-3.6,1.2-7.7,1.8-12.3,1.8c-2.5,0-4.9-0.2-7.2-0.7c-2.4-0.4-4.6-1.1-6.8-1.9c-2.2-0.8-4.2-1.7-6-2.8c-1.8-1.1-3.5-2.2-4.9-3.5
			l4-6.6c0.5-0.8,1.1-1.4,1.8-1.8s1.6-0.6,2.7-0.6c1.1,0,2.1,0.3,3,0.9c1,0.6,2.1,1.3,3.3,2c1.3,0.7,2.7,1.4,4.4,2
			c1.7,0.6,3.9,0.9,6.5,0.9c2.1,0,3.8-0.2,5.3-0.7c1.5-0.5,2.7-1.1,3.6-1.9c1-0.8,1.7-1.7,2.1-2.8s0.7-2.1,0.7-3.3
			c0-1.7-0.5-3.1-1.5-4.1c-1-1.1-2.3-2-4-2.8c-1.7-0.8-3.5-1.5-5.7-2.1c-2.1-0.6-4.3-1.3-6.5-2.1c-2.2-0.7-4.4-1.6-6.5-2.6
			c-2.1-1-4-2.3-5.7-3.8c-1.7-1.5-3-3.4-4-5.7c-1-2.2-1.5-4.9-1.5-8.1c0-2.9,0.6-5.7,1.8-8.4c1.2-2.7,2.9-5,5.1-7
			c2.3-2,5.1-3.6,8.5-4.8c3.4-1.2,7.3-1.8,11.7-1.8c4.9,0,9.5,0.8,13.5,2.4c4.1,1.6,7.4,3.8,10.2,6.4L815.9,146z"/>
		<path class="st2" d="M883.7,203.8h-18.9V102.6h18.9V203.8z"/>
		<path class="st2" d="M970.2,102.6v15h-44.9v30h37.9v15h-37.9v41.2h-19V102.6H970.2z"/>
		<path class="st2" d="M1056.3,102.6v15.5h-30.5v85.8h-18.8v-85.8h-30.6v-15.5H1056.3z"/>
	</g>
	<g>
		<path class="st3" d="M172.6,169.9c1,0,1.9,0.4,2.7,1.2l7.4,8.1c-4.1,5.1-9.2,9-15.2,11.7c-6,2.7-13.2,4.1-21.6,4.1
			c-7.5,0-14.3-1.3-20.3-3.9c-6-2.6-11.1-6.1-15.4-10.7c-4.2-4.6-7.5-10-9.8-16.4c-2.3-6.3-3.4-13.3-3.4-20.8
			c0-7.6,1.3-14.6,3.8-20.9c2.5-6.3,6.1-11.8,10.6-16.3c4.6-4.6,10-8.1,16.4-10.7c6.4-2.5,13.4-3.8,21.1-3.8
			c7.5,0,14.1,1.2,19.7,3.6c5.6,2.4,10.4,5.6,14.5,9.6l-6.3,8.8c-0.4,0.6-0.9,1.1-1.4,1.5c-0.6,0.4-1.4,0.6-2.4,0.6
			c-1.1,0-2.2-0.4-3.3-1.3c-1.1-0.8-2.5-1.8-4.3-2.7c-1.7-1-3.9-1.9-6.5-2.7c-2.6-0.8-6-1.3-10-1.3c-4.8,0-9.1,0.8-13.1,2.5
			c-4,1.7-7.4,4-10.3,7.1c-2.9,3.1-5.1,6.8-6.7,11.2c-1.6,4.4-2.4,9.4-2.4,14.9c0,5.7,0.8,10.8,2.4,15.2c1.6,4.4,3.8,8.2,6.5,11.2
			c2.8,3,6,5.4,9.7,7c3.7,1.6,7.7,2.4,12,2.4c2.6,0,4.9-0.1,7-0.4c2.1-0.3,4-0.7,5.7-1.3c1.8-0.6,3.4-1.4,5-2.3
			c1.6-1,3.1-2.1,4.7-3.5c0.5-0.4,1-0.8,1.5-1C171.4,170,172,169.9,172.6,169.9z"/>
		<path class="st3" d="M252.2,193.7h-7.8c-1.6,0-2.9-0.2-3.9-0.7c-0.9-0.5-1.6-1.5-2.1-3l-1.5-5.1c-1.8,1.6-3.6,3.1-5.4,4.3
			c-1.8,1.2-3.6,2.3-5.4,3.1c-1.9,0.8-3.9,1.5-6,1.9c-2.1,0.4-4.4,0.6-7,0.6c-3,0-5.8-0.4-8.4-1.2c-2.6-0.8-4.8-2-6.6-3.7
			c-1.8-1.6-3.3-3.7-4.3-6.1c-1-2.4-1.5-5.3-1.5-8.5c0-2.7,0.7-5.4,2.1-8c1.4-2.6,3.8-5,7.1-7.2c3.3-2.1,7.7-3.9,13.2-5.3
			c5.5-1.4,12.3-2.1,20.5-2.1v-4.2c0-4.8-1-8.4-3-10.8s-5-3.5-8.9-3.5c-2.8,0-5.1,0.3-7,1c-1.9,0.7-3.5,1.4-4.9,2.2
			c-1.4,0.8-2.6,1.6-3.8,2.2c-1.2,0.7-2.4,1-3.8,1c-1.2,0-2.2-0.3-3-0.9c-0.8-0.6-1.5-1.4-2-2.2l-3.2-5.5
			c8.3-7.6,18.2-11.3,29.9-11.3c4.2,0,7.9,0.7,11.2,2.1c3.3,1.4,6.1,3.3,8.4,5.7c2.3,2.5,4,5.4,5.2,8.8c1.2,3.4,1.8,7.1,1.8,11.2
			V193.7z M218.6,182.9c1.8,0,3.4-0.2,4.9-0.5c1.5-0.3,2.9-0.8,4.2-1.4c1.3-0.6,2.6-1.4,3.8-2.4c1.2-0.9,2.5-2.1,3.7-3.3v-12
			c-5,0-9.3,0.3-12.6,1c-3.4,0.6-6.1,1.4-8.2,2.4c-2.1,1-3.5,2.1-4.4,3.5c-0.9,1.3-1.3,2.7-1.3,4.3c0,3.1,0.9,5.2,2.7,6.6
			C213.3,182.3,215.7,182.9,218.6,182.9z"/>
		<path class="st3" d="M287.6,89.7v104h-17.3v-104H287.6z"/>
		<path class="st3" d="M357.6,137.1c-0.5,0.7-1,1.2-1.5,1.5c-0.5,0.4-1.2,0.6-2.1,0.6c-0.9,0-1.8-0.3-2.6-0.8
			c-0.8-0.5-1.8-1.1-3-1.8c-1.2-0.7-2.6-1.3-4.2-1.8c-1.6-0.5-3.6-0.8-6-0.8c-3,0-5.7,0.5-8,1.6c-2.3,1.1-4.2,2.7-5.7,4.7
			c-1.5,2.1-2.6,4.5-3.4,7.5c-0.7,2.9-1.1,6.2-1.1,9.9c0,3.8,0.4,7.2,1.2,10.2c0.8,3,2,5.5,3.5,7.5c1.5,2,3.4,3.6,5.6,4.6
			c2.2,1.1,4.7,1.6,7.4,1.6c2.8,0,5-0.3,6.7-1c1.7-0.7,3.1-1.4,4.3-2.2c1.2-0.8,2.2-1.6,3-2.2c0.9-0.7,1.8-1,2.9-1
			c1.4,0,2.5,0.5,3.2,1.6l5,6.3c-1.9,2.2-4,4.1-6.2,5.6c-2.2,1.5-4.6,2.7-7,3.6c-2.4,0.9-4.9,1.6-7.5,1.9c-2.6,0.4-5.1,0.6-7.6,0.6
			c-4.4,0-8.6-0.8-12.5-2.5s-7.3-4.1-10.3-7.2c-2.9-3.2-5.2-7.1-6.9-11.7c-1.7-4.6-2.6-9.8-2.6-15.7c0-5.3,0.8-10.2,2.3-14.7
			c1.5-4.5,3.7-8.4,6.7-11.7c2.9-3.3,6.6-5.9,10.9-7.7c4.3-1.9,9.3-2.8,15-2.8c5.4,0,10.1,0.9,14.1,2.6c4,1.7,7.7,4.2,10.9,7.4
			L357.6,137.1z"/>
		<path class="st3" d="M389.7,121.9v45.6c0,4.4,1,7.8,3,10.2c2,2.4,5.1,3.6,9.1,3.6c3,0,5.8-0.7,8.4-2c2.6-1.3,5.1-3.2,7.4-5.5
			v-51.9H435v71.8h-10.6c-2.2,0-3.7-1-4.4-3.1l-1.2-5.7c-1.5,1.5-3,2.9-4.6,4.1c-1.6,1.2-3.3,2.3-5.1,3.1c-1.8,0.9-3.7,1.5-5.8,2
			c-2.1,0.5-4.3,0.7-6.7,0.7c-3.9,0-7.4-0.7-10.4-2c-3-1.3-5.5-3.2-7.6-5.6c-2.1-2.4-3.6-5.3-4.7-8.6c-1.1-3.3-1.6-7-1.6-11v-45.6
			H389.7z"/>
		<path class="st3" d="M471.9,89.7v104h-17.3v-104H471.9z"/>
		<path class="st3" d="M521.1,120.8c4.5,0,8.7,0.7,12.5,2.2c3.8,1.4,7.1,3.6,9.8,6.3c2.8,2.8,4.9,6.2,6.4,10.2
			c1.5,4,2.3,8.6,2.3,13.8c0,1.3-0.1,2.4-0.2,3.3c-0.1,0.9-0.3,1.5-0.6,2c-0.3,0.5-0.7,0.8-1.2,1c-0.5,0.2-1.2,0.3-2,0.3h-44.4
			c0.5,7.4,2.5,12.8,6,16.2c3.5,3.5,8,5.2,13.7,5.2c2.8,0,5.2-0.3,7.2-1c2-0.7,3.8-1.4,5.3-2.2c1.5-0.8,2.8-1.5,4-2.2
			c1.1-0.7,2.3-1,3.3-1c0.7,0,1.3,0.1,1.8,0.4c0.5,0.3,1,0.7,1.3,1.2l5,6.3c-1.9,2.2-4.1,4.1-6.4,5.6c-2.4,1.5-4.9,2.7-7.5,3.6
			s-5.2,1.6-7.9,1.9c-2.7,0.4-5.3,0.6-7.8,0.6c-5,0-9.6-0.8-13.9-2.5c-4.3-1.7-8-4.1-11.2-7.4c-3.2-3.2-5.7-7.3-7.5-12
			c-1.8-4.8-2.7-10.3-2.7-16.6c0-4.9,0.8-9.5,2.4-13.8c1.6-4.3,3.9-8.1,6.8-11.3c3-3.2,6.6-5.7,10.8-7.6
			C510.9,121.7,515.7,120.8,521.1,120.8z M521.4,133.2c-5,0-9,1.4-11.8,4.3c-2.8,2.8-4.7,6.9-5.5,12.1h32.5c0-2.2-0.3-4.4-0.9-6.3
			c-0.6-2-1.5-3.7-2.8-5.2c-1.3-1.5-2.8-2.7-4.8-3.5C526.2,133.6,524,133.2,521.4,133.2z"/>
		<path class="st3" d="M566.2,193.7v-71.8h10.1c1.8,0,3,0.3,3.7,1c0.7,0.7,1.2,1.8,1.4,3.4l1,8.7c2.6-4.4,5.6-7.9,9-10.5
			c3.5-2.6,7.3-3.9,11.6-3.9c3.5,0,6.5,0.8,8.8,2.4l-2.2,13c-0.1,0.8-0.4,1.4-0.9,1.8c-0.5,0.3-1.1,0.5-1.9,0.5
			c-0.7,0-1.7-0.2-2.9-0.5c-1.2-0.3-2.8-0.5-4.8-0.5c-3.6,0-6.7,1-9.2,3c-2.6,2-4.7,4.9-6.5,8.7v44.7H566.2z"/>
		<path class="st3" d="M668.9,89.7v104h-17.3v-104H668.9z"/>
		<path class="st3" d="M718.1,120.8c4.5,0,8.7,0.7,12.5,2.2c3.8,1.4,7.1,3.6,9.8,6.3c2.8,2.8,4.9,6.2,6.4,10.2
			c1.5,4,2.3,8.6,2.3,13.8c0,1.3-0.1,2.4-0.2,3.3c-0.1,0.9-0.3,1.5-0.6,2c-0.3,0.5-0.7,0.8-1.2,1s-1.2,0.3-2,0.3h-44.4
			c0.5,7.4,2.5,12.8,6,16.2c3.5,3.5,8,5.2,13.7,5.2c2.8,0,5.2-0.3,7.2-1c2-0.7,3.8-1.4,5.3-2.2c1.5-0.8,2.8-1.5,4-2.2
			c1.1-0.7,2.2-1,3.3-1c0.7,0,1.3,0.1,1.8,0.4c0.5,0.3,1,0.7,1.3,1.2l5,6.3c-1.9,2.2-4.1,4.1-6.4,5.6c-2.4,1.5-4.9,2.7-7.5,3.6
			c-2.6,0.9-5.2,1.6-7.9,1.9c-2.7,0.4-5.3,0.6-7.8,0.6c-5,0-9.6-0.8-13.9-2.5c-4.3-1.7-8-4.1-11.2-7.4c-3.2-3.2-5.7-7.3-7.5-12
			c-1.8-4.8-2.7-10.3-2.7-16.6c0-4.9,0.8-9.5,2.4-13.8c1.6-4.3,3.9-8.1,6.8-11.3c3-3.2,6.6-5.7,10.8-7.6
			C707.9,121.7,712.7,120.8,718.1,120.8z M718.4,133.2c-5,0-9,1.4-11.8,4.3c-2.8,2.8-4.7,6.9-5.5,12.1h32.5c0-2.2-0.3-4.4-0.9-6.3
			c-0.6-2-1.5-3.7-2.8-5.2c-1.3-1.5-2.8-2.7-4.8-3.5C723.2,133.6,721,133.2,718.4,133.2z"/>
		<path class="st3" d="M805.8,135.9c-0.5,0.7-1,1.3-1.5,1.6c-0.5,0.3-1.2,0.5-2,0.5c-0.8,0-1.7-0.2-2.7-0.7c-1-0.5-2.1-1-3.3-1.6
			c-1.3-0.6-2.7-1.1-4.3-1.6c-1.6-0.5-3.5-0.7-5.7-0.7c-3.4,0-6.1,0.7-8,2.2c-2,1.4-2.9,3.3-2.9,5.7c0,1.5,0.5,2.8,1.5,3.9
			c1,1.1,2.3,2,4,2.8c1.7,0.8,3.5,1.5,5.6,2.1c2.1,0.6,4.2,1.3,6.4,2.1c2.2,0.7,4.3,1.6,6.4,2.6c2.1,1,4,2.2,5.6,3.6
			c1.7,1.5,3,3.2,4,5.3c1,2.1,1.5,4.5,1.5,7.4c0,3.5-0.6,6.6-1.9,9.6c-1.3,2.9-3.1,5.4-5.5,7.6c-2.4,2.1-5.4,3.8-9,5
			c-3.6,1.2-7.7,1.8-12.3,1.8c-2.5,0-4.9-0.2-7.2-0.7c-2.4-0.4-4.6-1.1-6.8-1.9c-2.2-0.8-4.2-1.7-6-2.8c-1.8-1.1-3.5-2.2-4.9-3.5
			l4-6.6c0.5-0.8,1.1-1.4,1.8-1.8s1.6-0.6,2.7-0.6c1.1,0,2.1,0.3,3,0.9c1,0.6,2.1,1.3,3.3,2c1.3,0.7,2.7,1.4,4.4,2
			c1.7,0.6,3.9,0.9,6.5,0.9c2.1,0,3.8-0.2,5.3-0.7c1.5-0.5,2.7-1.1,3.6-1.9c1-0.8,1.7-1.7,2.1-2.8s0.7-2.1,0.7-3.3
			c0-1.7-0.5-3.1-1.5-4.1c-1-1.1-2.3-2-4-2.8c-1.7-0.8-3.5-1.5-5.7-2.1c-2.1-0.6-4.3-1.3-6.5-2.1c-2.2-0.7-4.4-1.6-6.5-2.6
			c-2.1-1-4-2.3-5.7-3.8c-1.7-1.5-3-3.4-4-5.7c-1-2.2-1.5-4.9-1.5-8.1c0-2.9,0.6-5.7,1.8-8.4c1.2-2.7,2.9-5,5.1-7
			c2.3-2,5.1-3.6,8.5-4.8c3.4-1.2,7.3-1.8,11.7-1.8c4.9,0,9.5,0.8,13.5,2.4c4.1,1.6,7.4,3.8,10.2,6.4L805.8,135.9z"/>
		<path class="st3" d="M873.6,193.7h-18.9V92.5h18.9V193.7z"/>
		<path class="st3" d="M960.2,92.5v15h-44.9v30h37.9v15h-37.9v41.2h-19V92.5H960.2z"/>
		<path class="st3" d="M1046.3,92.5V108h-30.5v85.8H997V108h-30.6V92.5H1046.3z"/>
	</g>
</g>
</svg>
