<?xml version="1.0" encoding="utf-8"?>
<!-- Generator: Adobe Illustrator 22.0.1, SVG Export Plug-In . SVG Version: 6.00 Build 0)  -->
<svg version="1.1" id="Calque_1" xmlns="http://www.w3.org/2000/svg" xmlns:xlink="http://www.w3.org/1999/xlink" x="0px" y="0px"
	 viewBox="0 0 500 500" style="enable-background:new 0 0 500 500;" xml:space="preserve">
<style type="text/css">
	.st0{fill:#FFFFFF;}
</style>
<circle class="st0" cx="250" cy="250" r="250"/>
<path d="M250,8c32.7,0,64.4,6.4,94.2,19c28.8,12.2,54.7,29.6,76.9,51.9s39.7,48.1,51.9,76.9c12.6,29.8,19,61.5,19,94.2
	s-6.4,64.4-19,94.2c-12.2,28.8-29.6,54.7-51.9,76.9S373,460.8,344.2,473c-29.8,12.6-61.5,19-94.2,19s-64.4-6.4-94.2-19
	c-28.8-12.2-54.7-29.6-76.9-51.9S39.2,373,27,344.2C14.4,314.4,8,282.7,8,250s6.4-64.4,19-94.2c12.2-28.8,29.6-54.7,51.9-76.9
	S127,39.2,155.8,27C185.6,14.4,217.3,8,250,8 M250,0C111.9,0,0,111.9,0,250s111.9,250,250,250s250-111.9,250-250S388.1,0,250,0
	L250,0z"/>
<path d="M399.5,185c0-4.9-1.7-9.9-5.2-13.4l-26.5-26.1c-3.5-3.5-8.1-5.5-13.1-5.5c-4.9,0-9.6,2-13.1,5.5L223.1,263.8l-65.7-65.7
	c-3.5-3.5-8.2-5.5-13.1-5.5s-9.6,2-13.1,5.5l-26.5,26.1c-3.5,3.5-5.3,8.4-5.3,13.4c0,4.9,1.8,9.6,5.3,13.1l105.2,105.2
	c3.5,3.5,8.4,5.5,13.1,5.5c4.9,0,9.9-2,13.4-5.5l157.8-157.8C397.8,194.6,399.5,190,399.5,185z"/>
</svg>
