<?xml version="1.0" encoding="utf-8"?>
<!-- Generator: Adobe Illustrator 21.1.0, SVG Export Plug-In . SVG Version: 6.00 Build 0)  -->
<svg version="1.1" id="Calque_1" xmlns="http://www.w3.org/2000/svg" xmlns:xlink="http://www.w3.org/1999/xlink" x="0px" y="0px"
	 viewBox="0 0 71 71" style="enable-background:new 0 0 71 71;" xml:space="preserve">
<style type="text/css">
	.st0{fill-rule:evenodd;clip-rule:evenodd;fill:#FF0000;}
	.st1{fill:#FEFEFE;}
</style>
<g id="Ellipse_1_copie_7_">
	<g>
		<circle class="st0" cx="35.5" cy="35.5" r="35.5"/>
	</g>
</g>
<g>
	<path class="st1" d="M44.2,25.2c2.7,2.4,4,5.8,4,10.2c0,4.3-1.3,7.8-3.9,10.3s-6.6,3.8-11.9,3.8h-9.6v-28h9.9
		C37.7,21.5,41.5,22.7,44.2,25.2z M39.6,41.8c1.5-1.4,2.3-3.5,2.3-6.3c0-2.7-0.8-4.9-2.3-6.3c-1.5-1.5-3.9-2.2-7.1-2.2h-3.5v17h4
		C35.9,44,38.1,43.2,39.6,41.8z"/>
</g>
</svg>
