<?xml version="1.0" encoding="utf-8"?>
<!-- Generator: Adobe Illustrator 24.3.0, SVG Export Plug-In . SVG Version: 6.00 Build 0)  -->
<svg version="1.1" id="Calque_1" xmlns="http://www.w3.org/2000/svg" xmlns:xlink="http://www.w3.org/1999/xlink" x="0px" y="0px"
	 viewBox="0 0 1323.4 292" style="enable-background:new 0 0 1323.4 292;" xml:space="preserve">
<style type="text/css">
	.st0{fill:url(#SVGID_1_);}
	.st1{fill:url(#SVGID_2_);}
	.st2{fill:#FFFFFF;}
	.st3{fill:#333333;}
</style>
<g>
	
		<linearGradient id="SVGID_1_" gradientUnits="userSpaceOnUse" x1="2078.3" y1="-1142" x2="2078.3" y2="-850" gradientTransform="matrix(-1 0 0 -1 2740 -850)">
		<stop  offset="0" style="stop-color:#BBBBBB"/>
		<stop  offset="1" style="stop-color:#DCDCDC"/>
	</linearGradient>
	<path class="st0" d="M25,282c-8,0-15-7-15-15V25c0-8,7-15,15-15h1273.5c8,0,15,7,15,15v242c0,8-7,15-15,15H25z M1298.4,292
		c14,0,25-11,25-25V25c0-14-11-25-25-25H25C11,0,0,11,0,25v242c0,14,11,25,25,25H1298.4z"/>
</g>
<linearGradient id="SVGID_2_" gradientUnits="userSpaceOnUse" x1="2078.25" y1="600" x2="2078.25" y2="328" gradientTransform="matrix(-1 0 0 1 2740 -318)">
	<stop  offset="0" style="stop-color:#E8E8E8"/>
	<stop  offset="1" style="stop-color:#F9F9F9"/>
</linearGradient>
<path class="st1" d="M25,282c-8,0-15-7-15-15V25c0-8,7-15,15-15h1273.5c8,0,15,7,15,15v242c0,8-7,15-15,15H25z"/>
<g>
	<g>
		<path class="st2" d="M172.3,102.5v15h-44.9v28.1h35.4V160h-35.4v28.6h44.9v15h-63.8V102.5H172.3z M168.3,78.3l-20.7,15.1
			c-0.5,0.4-1,0.7-1.4,0.9c-0.4,0.2-0.9,0.4-1.3,0.6c-0.4,0.1-0.9,0.2-1.4,0.3c-0.5,0-1.1,0.1-1.7,0.1h-13.6l13.7-14.1
			c0.6-0.6,1.1-1,1.6-1.4c0.5-0.4,1-0.7,1.5-0.9c0.5-0.2,1.1-0.4,1.8-0.4c0.7-0.1,1.4-0.1,2.4-0.1H168.3z"/>
		<path class="st2" d="M238.1,203.7c-2.2,0-3.7-1-4.4-3.2l-1.4-6.9c-1.5,1.7-3.1,3.2-4.7,4.5c-1.6,1.4-3.4,2.5-5.3,3.5
			c-1.9,1-3.9,1.7-6.1,2.3c-2.2,0.5-4.5,0.8-7,0.8c-3.9,0-7.5-0.8-10.8-2.5c-3.3-1.6-6.1-4-8.4-7.1c-2.4-3.1-4.2-6.9-5.5-11.5
			c-1.3-4.6-1.9-9.8-1.9-15.7c0-5.3,0.7-10.3,2.2-14.8c1.4-4.6,3.5-8.5,6.2-11.9c2.7-3.4,6-6,9.7-7.9c3.8-1.9,8-2.8,12.7-2.8
			c4,0,7.4,0.6,10.3,1.9c2.8,1.3,5.4,3,7.6,5.1V99.7h17.3v104H238.1z M215.1,191c3.6,0,6.6-0.7,9.2-2.2c2.5-1.5,4.9-3.6,7.1-6.4
			v-32.2c-2-2.4-4.1-4.1-6.4-5c-2.3-1-4.8-1.5-7.5-1.5c-2.6,0-5,0.5-7.1,1.5c-2.1,1-3.9,2.5-5.4,4.4c-1.5,2-2.6,4.5-3.4,7.6
			c-0.8,3.1-1.2,6.7-1.2,10.8c0,4.2,0.3,7.8,1,10.7c0.7,2.9,1.6,5.3,2.9,7.1c1.3,1.8,2.8,3.2,4.6,4C210.8,190.6,212.9,191,215.1,191
			z"/>
		<path class="st2" d="M288.4,111c0,1.5-0.3,2.9-0.9,4.2c-0.6,1.3-1.4,2.5-2.4,3.4c-1,1-2.2,1.8-3.5,2.3c-1.4,0.6-2.8,0.9-4.3,0.9
			c-1.5,0-2.9-0.3-4.2-0.9c-1.3-0.6-2.5-1.4-3.5-2.3c-1-1-1.8-2.1-2.3-3.4c-0.6-1.3-0.9-2.7-0.9-4.2c0-1.5,0.3-3,0.9-4.3
			c0.6-1.4,1.4-2.5,2.3-3.5c1-1,2.1-1.8,3.5-2.3c1.3-0.6,2.7-0.9,4.2-0.9c1.5,0,3,0.3,4.3,0.9c1.4,0.6,2.5,1.4,3.5,2.3
			c1,1,1.8,2.1,2.4,3.5C288.1,108,288.4,109.4,288.4,111z M285.8,131.9v71.8h-17.3v-71.8H285.8z"/>
		<path class="st2" d="M328.9,204.8c-6.2,0-11-1.8-14.3-5.3c-3.4-3.5-5-8.4-5-14.6v-40.1h-7.3c-0.9,0-1.7-0.3-2.4-0.9
			c-0.7-0.6-1-1.5-1-2.7v-6.9l11.5-1.9l3.6-19.6c0.2-0.9,0.6-1.7,1.3-2.2c0.7-0.5,1.5-0.8,2.6-0.8h9v22.6h18.9v12.3h-18.9v38.9
			c0,2.2,0.6,4,1.7,5.2s2.6,1.9,4.5,1.9c1.1,0,2-0.1,2.7-0.4c0.7-0.3,1.4-0.5,1.9-0.8c0.5-0.3,1-0.5,1.4-0.8
			c0.4-0.3,0.8-0.4,1.3-0.4c0.5,0,0.9,0.1,1.3,0.4c0.3,0.3,0.7,0.6,1.1,1.2l5.2,8.4c-2.5,2.1-5.4,3.7-8.7,4.8
			C335.8,204.3,332.4,204.8,328.9,204.8z"/>
		<path class="st2" d="M389.2,130.8c4.5,0,8.7,0.7,12.5,2.2c3.8,1.4,7.1,3.6,9.8,6.3c2.8,2.8,4.9,6.2,6.4,10.2
			c1.5,4,2.3,8.6,2.3,13.8c0,1.3-0.1,2.4-0.2,3.3c-0.1,0.9-0.3,1.5-0.6,2c-0.3,0.5-0.7,0.8-1.2,1.1s-1.2,0.3-2,0.3h-44.4
			c0.5,7.4,2.5,12.8,6,16.2c3.5,3.5,8,5.2,13.7,5.2c2.8,0,5.2-0.3,7.2-1c2-0.7,3.8-1.4,5.3-2.2c1.5-0.8,2.8-1.5,4-2.2
			c1.1-0.7,2.2-1,3.3-1c0.7,0,1.3,0.1,1.8,0.4c0.5,0.3,1,0.7,1.3,1.2l5,6.3c-1.9,2.2-4.1,4.1-6.4,5.6c-2.4,1.5-4.9,2.7-7.5,3.6
			c-2.6,0.9-5.2,1.6-7.9,1.9c-2.7,0.4-5.3,0.6-7.8,0.6c-5,0-9.6-0.8-13.9-2.5c-4.3-1.7-8-4.1-11.2-7.4c-3.2-3.2-5.7-7.3-7.5-12
			c-1.8-4.8-2.7-10.3-2.7-16.6c0-4.9,0.8-9.5,2.4-13.8c1.6-4.3,3.9-8.1,6.8-11.3c3-3.2,6.6-5.7,10.8-7.6
			C379,131.7,383.8,130.8,389.2,130.8z M389.5,143.2c-5,0-9,1.4-11.8,4.3c-2.8,2.8-4.7,6.9-5.5,12.1h32.5c0-2.2-0.3-4.4-0.9-6.3
			c-0.6-2-1.5-3.7-2.8-5.2c-1.3-1.5-2.8-2.7-4.8-3.5C394.3,143.6,392.1,143.2,389.5,143.2z"/>
		<path class="st2" d="M434.3,203.7v-71.8h10.1c1.8,0,3,0.3,3.7,1c0.7,0.7,1.2,1.8,1.4,3.4l1,8.7c2.6-4.4,5.6-7.9,9-10.5
			c3.5-2.6,7.3-3.9,11.6-3.9c3.5,0,6.5,0.8,8.8,2.5l-2.2,13c-0.1,0.8-0.4,1.4-0.9,1.8c-0.5,0.3-1.1,0.5-1.9,0.5
			c-0.7,0-1.7-0.2-2.9-0.5c-1.2-0.3-2.8-0.5-4.8-0.5c-3.6,0-6.7,1-9.2,3c-2.6,2-4.7,4.9-6.5,8.7v44.7H434.3z"/>
		<path class="st2" d="M534.4,131.9v45.6c0,4.4,1,7.8,3,10.2c2,2.4,5.1,3.6,9.1,3.6c3,0,5.8-0.7,8.4-2s5.1-3.2,7.4-5.5v-51.9h17.3
			v71.8h-10.6c-2.2,0-3.7-1-4.4-3.2l-1.2-5.7c-1.5,1.5-3,2.9-4.6,4.1c-1.6,1.2-3.3,2.3-5.1,3.2c-1.8,0.9-3.7,1.5-5.8,2
			c-2.1,0.5-4.3,0.7-6.7,0.7c-3.9,0-7.4-0.7-10.4-2c-3-1.3-5.5-3.2-7.6-5.6c-2.1-2.4-3.6-5.3-4.7-8.6c-1-3.3-1.6-7-1.6-11v-45.6
			H534.4z"/>
		<path class="st2" d="M598.1,203.7v-71.8h10.6c2.2,0,3.7,1.1,4.4,3.2l1.2,5.7c1.4-1.5,3-2.8,4.6-4.1s3.3-2.3,5.1-3.2
			c1.8-0.9,3.7-1.6,5.8-2c2.1-0.5,4.3-0.7,6.7-0.7c3.9,0,7.4,0.7,10.4,2c3,1.3,5.6,3.2,7.6,5.6s3.6,5.3,4.6,8.6c1,3.3,1.6,7,1.6,11
			v45.7h-17.3V158c0-4.4-1-7.8-3-10.2c-2-2.4-5.1-3.6-9.1-3.6c-3,0-5.8,0.7-8.4,2c-2.6,1.4-5.1,3.2-7.4,5.5v51.9H598.1z"/>
		<path class="st2" d="M704.9,203.7v-104h17.3v41c2.8-3,6.1-5.4,9.7-7.2c3.6-1.8,7.8-2.7,12.6-2.7c3.9,0,7.5,0.8,10.7,2.4
			c3.2,1.6,6,4,8.4,7s4.2,6.9,5.5,11.4c1.3,4.5,1.9,9.7,1.9,15.6c0,5.4-0.7,10.3-2.2,14.9c-1.4,4.6-3.5,8.5-6.2,11.9
			c-2.7,3.4-5.9,6-9.7,7.9c-3.8,1.9-8.1,2.8-12.8,2.8c-2.2,0-4.2-0.2-6-0.7c-1.8-0.4-3.5-1.1-5-1.9c-1.5-0.8-2.9-1.8-4.2-2.9
			c-1.3-1.1-2.5-2.4-3.7-3.8l-0.8,4.8c-0.3,1.2-0.8,2.1-1.4,2.6c-0.7,0.5-1.6,0.8-2.8,0.8H704.9z M738.5,144.2
			c-3.6,0-6.7,0.8-9.2,2.3c-2.5,1.5-4.9,3.7-7.1,6.4v32.2c2,2.4,4.1,4.1,6.4,5.1c2.3,1,4.8,1.4,7.5,1.4c2.6,0,5-0.5,7.1-1.5
			c2.1-1,3.9-2.5,5.4-4.5c1.5-2,2.6-4.5,3.4-7.6c0.8-3.1,1.2-6.7,1.2-10.8c0-4.2-0.3-7.8-1-10.7c-0.7-2.9-1.6-5.3-2.9-7.1
			s-2.8-3.2-4.6-4C742.9,144.6,740.8,144.2,738.5,144.2z"/>
		<path class="st2" d="M805.5,111c0,1.5-0.3,2.9-0.9,4.2c-0.6,1.3-1.4,2.5-2.4,3.4c-1,1-2.2,1.8-3.5,2.3c-1.4,0.6-2.8,0.9-4.3,0.9
			c-1.5,0-2.9-0.3-4.2-0.9c-1.3-0.6-2.5-1.4-3.5-2.3c-1-1-1.8-2.1-2.3-3.4c-0.6-1.3-0.9-2.7-0.9-4.2c0-1.5,0.3-3,0.9-4.3
			c0.6-1.4,1.4-2.5,2.3-3.5c1-1,2.1-1.8,3.5-2.3c1.3-0.6,2.7-0.9,4.2-0.9c1.5,0,3,0.3,4.3,0.9c1.4,0.6,2.5,1.4,3.5,2.3
			c1,1,1.8,2.1,2.4,3.5C805.2,108,805.5,109.4,805.5,111z M802.9,131.9v71.8h-17.3v-71.8H802.9z"/>
		<path class="st2" d="M840.9,99.7v104h-17.3v-104H840.9z"/>
		<path class="st2" d="M916.7,203.7h-7.8c-1.6,0-2.9-0.2-3.8-0.7c-0.9-0.5-1.6-1.5-2.1-3l-1.5-5.1c-1.8,1.6-3.6,3.1-5.4,4.3
			s-3.6,2.3-5.4,3.1c-1.9,0.8-3.9,1.5-6,1.9c-2.1,0.4-4.4,0.6-7,0.6c-3,0-5.8-0.4-8.4-1.2c-2.6-0.8-4.8-2-6.6-3.7
			c-1.8-1.6-3.3-3.7-4.3-6.1c-1-2.4-1.5-5.3-1.5-8.5c0-2.7,0.7-5.4,2.1-8c1.4-2.6,3.8-5,7.1-7.2c3.3-2.1,7.7-3.9,13.2-5.3
			c5.5-1.4,12.3-2.1,20.5-2.1v-4.2c0-4.8-1-8.4-3-10.8c-2-2.3-5-3.5-8.9-3.5c-2.8,0-5.1,0.3-7,1c-1.9,0.7-3.5,1.4-4.9,2.2
			c-1.4,0.8-2.6,1.6-3.8,2.2c-1.2,0.7-2.5,1-3.9,1c-1.2,0-2.2-0.3-3-0.9c-0.8-0.6-1.5-1.4-2-2.2l-3.1-5.5
			c8.3-7.6,18.2-11.3,29.9-11.3c4.2,0,7.9,0.7,11.2,2.1c3.3,1.4,6.1,3.3,8.4,5.7s4,5.4,5.2,8.8c1.2,3.4,1.8,7.1,1.8,11.2V203.7z
			 M883.1,192.9c1.8,0,3.4-0.2,4.9-0.5c1.5-0.3,2.9-0.8,4.2-1.4c1.3-0.6,2.6-1.4,3.9-2.4c1.2-0.9,2.5-2.1,3.7-3.3v-12
			c-5,0-9.3,0.3-12.6,1c-3.4,0.6-6.1,1.4-8.2,2.4c-2.1,1-3.5,2.1-4.4,3.5c-0.9,1.3-1.3,2.7-1.3,4.3c0,3.1,0.9,5.2,2.7,6.6
			C877.9,192.3,880.2,192.9,883.1,192.9z"/>
		<path class="st2" d="M933.7,203.7v-71.8h10.6c2.2,0,3.7,1.1,4.4,3.2l1.2,5.7c1.4-1.5,3-2.8,4.6-4.1s3.3-2.3,5.1-3.2
			c1.8-0.9,3.7-1.6,5.8-2c2.1-0.5,4.3-0.7,6.7-0.7c3.9,0,7.4,0.7,10.4,2c3,1.3,5.6,3.2,7.6,5.6s3.6,5.3,4.6,8.6c1,3.3,1.6,7,1.6,11
			v45.7H979V158c0-4.4-1-7.8-3-10.2c-2-2.4-5.1-3.6-9.1-3.6c-3,0-5.8,0.7-8.4,2c-2.6,1.4-5.1,3.2-7.4,5.5v51.9H933.7z"/>
		<path class="st2" d="M1062.5,203.7h-18.9V102.5h18.9V203.7z"/>
		<path class="st2" d="M1149.1,102.5v15h-44.9v30h37.9v15h-37.9v41.2h-19V102.5H1149.1z"/>
		<path class="st2" d="M1235.2,102.5V118h-30.5v85.8h-18.8V118h-30.6v-15.5H1235.2z"/>
	</g>
	<g>
		<path class="st3" d="M162.2,92.5v15h-44.9v28.1h35.4V150h-35.4v28.6h44.9v15H98.3V92.5H162.2z M158.2,68.3l-20.7,15.1
			c-0.5,0.4-1,0.7-1.4,0.9c-0.4,0.2-0.9,0.4-1.3,0.6c-0.4,0.1-0.9,0.2-1.4,0.3c-0.5,0-1.1,0.1-1.7,0.1H118l13.7-14.1
			c0.6-0.6,1.1-1,1.6-1.4c0.5-0.4,1-0.7,1.5-0.9c0.5-0.2,1.1-0.4,1.8-0.4c0.7-0.1,1.4-0.1,2.4-0.1H158.2z"/>
		<path class="st3" d="M228,193.7c-2.2,0-3.7-1-4.4-3.2l-1.4-6.9c-1.5,1.7-3.1,3.2-4.7,4.5c-1.6,1.4-3.4,2.5-5.3,3.5
			c-1.9,1-3.9,1.7-6.1,2.3c-2.2,0.5-4.5,0.8-7,0.8c-3.9,0-7.5-0.8-10.8-2.5c-3.3-1.6-6.1-4-8.4-7.1c-2.4-3.1-4.2-6.9-5.5-11.5
			c-1.3-4.6-1.9-9.8-1.9-15.7c0-5.3,0.7-10.3,2.2-14.8c1.4-4.6,3.5-8.5,6.2-11.9c2.7-3.4,6-6,9.7-7.9c3.8-1.9,8-2.8,12.7-2.8
			c4,0,7.4,0.6,10.3,1.9c2.8,1.3,5.4,3,7.6,5.1V89.7h17.3v104H228z M205,181c3.6,0,6.6-0.7,9.2-2.2c2.5-1.5,4.9-3.6,7.1-6.4v-32.2
			c-2-2.4-4.1-4.1-6.4-5c-2.3-1-4.8-1.5-7.5-1.5c-2.6,0-5,0.5-7.1,1.5c-2.1,1-3.9,2.5-5.4,4.4c-1.5,2-2.6,4.5-3.4,7.6
			c-0.8,3.1-1.2,6.7-1.2,10.8c0,4.2,0.3,7.8,1,10.7c0.7,2.9,1.6,5.3,2.9,7.1c1.3,1.8,2.8,3.2,4.6,4C200.7,180.6,202.8,181,205,181z"
			/>
		<path class="st3" d="M278.3,100.9c0,1.5-0.3,2.9-0.9,4.2c-0.6,1.3-1.4,2.5-2.4,3.4c-1,1-2.2,1.8-3.5,2.3c-1.4,0.6-2.8,0.9-4.3,0.9
			c-1.5,0-2.9-0.3-4.2-0.9c-1.3-0.6-2.5-1.4-3.5-2.3c-1-1-1.8-2.1-2.3-3.4c-0.6-1.3-0.9-2.7-0.9-4.2c0-1.5,0.3-3,0.9-4.3
			c0.6-1.4,1.4-2.5,2.3-3.5c1-1,2.1-1.8,3.5-2.3c1.3-0.6,2.7-0.9,4.2-0.9c1.5,0,3,0.3,4.3,0.9c1.4,0.6,2.5,1.4,3.5,2.3
			c1,1,1.8,2.1,2.4,3.5C278,98,278.3,99.4,278.3,100.9z M275.7,121.9v71.8h-17.3v-71.8H275.7z"/>
		<path class="st3" d="M318.8,194.8c-6.2,0-11-1.8-14.3-5.3c-3.4-3.5-5-8.4-5-14.6v-40.1h-7.3c-0.9,0-1.7-0.3-2.4-0.9
			c-0.7-0.6-1-1.5-1-2.7v-6.9l11.5-1.9l3.6-19.6c0.2-0.9,0.6-1.7,1.3-2.2c0.7-0.5,1.5-0.8,2.6-0.8h9v22.6h18.9v12.3h-18.9v38.9
			c0,2.2,0.6,4,1.7,5.2s2.6,1.9,4.5,1.9c1.1,0,2-0.1,2.7-0.4c0.7-0.3,1.4-0.5,1.9-0.8c0.5-0.3,1-0.5,1.4-0.8
			c0.4-0.3,0.8-0.4,1.3-0.4c0.5,0,0.9,0.1,1.3,0.4c0.3,0.3,0.7,0.6,1.1,1.2l5.2,8.4c-2.5,2.1-5.4,3.7-8.7,4.8
			C325.7,194.3,322.3,194.8,318.8,194.8z"/>
		<path class="st3" d="M379.1,120.8c4.5,0,8.7,0.7,12.5,2.2c3.8,1.4,7.1,3.6,9.8,6.3c2.8,2.8,4.9,6.2,6.4,10.2
			c1.5,4,2.3,8.6,2.3,13.8c0,1.3-0.1,2.4-0.2,3.3c-0.1,0.9-0.3,1.5-0.6,2c-0.3,0.5-0.7,0.8-1.2,1.1s-1.2,0.3-2,0.3h-44.4
			c0.5,7.4,2.5,12.8,6,16.2c3.5,3.5,8,5.2,13.7,5.2c2.8,0,5.2-0.3,7.2-1c2-0.7,3.8-1.4,5.3-2.2c1.5-0.8,2.8-1.5,4-2.2
			c1.1-0.7,2.2-1,3.3-1c0.7,0,1.3,0.1,1.8,0.4c0.5,0.3,1,0.7,1.3,1.2l5,6.3c-1.9,2.2-4.1,4.1-6.4,5.6c-2.4,1.5-4.9,2.7-7.5,3.6
			c-2.6,0.9-5.2,1.6-7.9,1.9c-2.7,0.4-5.3,0.6-7.8,0.6c-5,0-9.6-0.8-13.9-2.5c-4.3-1.7-8-4.1-11.2-7.4c-3.2-3.2-5.7-7.3-7.5-12
			c-1.8-4.8-2.7-10.3-2.7-16.6c0-4.9,0.8-9.5,2.4-13.8c1.6-4.3,3.9-8.1,6.8-11.3c3-3.2,6.6-5.7,10.8-7.6
			C368.9,121.7,373.7,120.8,379.1,120.8z M379.4,133.2c-5,0-9,1.4-11.8,4.3c-2.8,2.8-4.7,6.9-5.5,12.1h32.5c0-2.2-0.3-4.4-0.9-6.3
			c-0.6-2-1.5-3.7-2.8-5.2c-1.3-1.5-2.8-2.7-4.8-3.5C384.2,133.6,382,133.2,379.4,133.2z"/>
		<path class="st3" d="M424.2,193.7v-71.8h10.1c1.8,0,3,0.3,3.7,1c0.7,0.7,1.2,1.8,1.4,3.4l1,8.7c2.6-4.4,5.6-7.9,9-10.5
			c3.5-2.6,7.3-3.9,11.6-3.9c3.5,0,6.5,0.8,8.8,2.5l-2.2,13c-0.1,0.8-0.4,1.4-0.9,1.8c-0.5,0.3-1.1,0.5-1.9,0.5
			c-0.7,0-1.7-0.2-2.9-0.5c-1.2-0.3-2.8-0.5-4.8-0.5c-3.6,0-6.7,1-9.2,3c-2.6,2-4.7,4.9-6.5,8.7v44.7H424.2z"/>
		<path class="st3" d="M524.3,121.9v45.6c0,4.4,1,7.8,3,10.2c2,2.4,5.1,3.6,9.1,3.6c3,0,5.8-0.7,8.4-2s5.1-3.2,7.4-5.5v-51.9h17.3
			v71.8H559c-2.2,0-3.7-1-4.4-3.2l-1.2-5.7c-1.5,1.5-3,2.9-4.6,4.1c-1.6,1.2-3.3,2.3-5.1,3.2c-1.8,0.9-3.7,1.5-5.8,2
			c-2.1,0.5-4.3,0.7-6.7,0.7c-3.9,0-7.4-0.7-10.4-2c-3-1.3-5.5-3.2-7.6-5.6c-2.1-2.4-3.6-5.3-4.7-8.6c-1-3.3-1.6-7-1.6-11v-45.6
			H524.3z"/>
		<path class="st3" d="M588,193.7v-71.8h10.6c2.2,0,3.7,1.1,4.4,3.2l1.2,5.7c1.4-1.5,3-2.8,4.6-4.1s3.3-2.3,5.1-3.2
			c1.8-0.9,3.7-1.6,5.8-2c2.1-0.5,4.3-0.7,6.7-0.7c3.9,0,7.4,0.7,10.4,2c3,1.3,5.6,3.2,7.6,5.6s3.6,5.3,4.6,8.6c1,3.3,1.6,7,1.6,11
			v45.7h-17.3V148c0-4.4-1-7.8-3-10.2c-2-2.4-5.1-3.6-9.1-3.6c-3,0-5.8,0.7-8.4,2c-2.6,1.4-5.1,3.2-7.4,5.5v51.9H588z"/>
		<path class="st3" d="M694.8,193.7v-104h17.3v41c2.8-3,6.1-5.4,9.7-7.2c3.6-1.8,7.8-2.7,12.6-2.7c3.9,0,7.5,0.8,10.7,2.4
			c3.2,1.6,6,4,8.4,7s4.2,6.9,5.5,11.4c1.3,4.5,1.9,9.7,1.9,15.6c0,5.4-0.7,10.3-2.2,14.9c-1.4,4.6-3.5,8.5-6.2,11.9
			c-2.7,3.4-5.9,6-9.7,7.9c-3.8,1.9-8.1,2.8-12.8,2.8c-2.2,0-4.2-0.2-6-0.7c-1.8-0.4-3.5-1.1-5-1.9c-1.5-0.8-2.9-1.8-4.2-2.9
			c-1.3-1.1-2.5-2.4-3.7-3.8l-0.8,4.8c-0.3,1.2-0.8,2.1-1.4,2.6c-0.7,0.5-1.6,0.8-2.8,0.8H694.8z M728.4,134.2
			c-3.6,0-6.7,0.8-9.2,2.3c-2.5,1.5-4.9,3.7-7.1,6.4v32.2c2,2.4,4.1,4.1,6.4,5.1c2.3,1,4.8,1.4,7.5,1.4c2.6,0,5-0.5,7.1-1.5
			c2.1-1,3.9-2.5,5.4-4.5c1.5-2,2.6-4.5,3.4-7.6c0.8-3.1,1.2-6.7,1.2-10.8c0-4.2-0.3-7.8-1-10.7c-0.7-2.9-1.6-5.3-2.9-7.1
			s-2.8-3.2-4.6-4C732.8,134.6,730.7,134.2,728.4,134.2z"/>
		<path class="st3" d="M795.4,100.9c0,1.5-0.3,2.9-0.9,4.2c-0.6,1.3-1.4,2.5-2.4,3.4c-1,1-2.2,1.8-3.5,2.3c-1.4,0.6-2.8,0.9-4.3,0.9
			c-1.5,0-2.9-0.3-4.2-0.9c-1.3-0.6-2.5-1.4-3.5-2.3c-1-1-1.8-2.1-2.3-3.4c-0.6-1.3-0.9-2.7-0.9-4.2c0-1.5,0.3-3,0.9-4.3
			c0.6-1.4,1.4-2.5,2.3-3.5c1-1,2.1-1.8,3.5-2.3c1.3-0.6,2.7-0.9,4.2-0.9c1.5,0,3,0.3,4.3,0.9c1.4,0.6,2.5,1.4,3.5,2.3
			c1,1,1.8,2.1,2.4,3.5C795.1,98,795.4,99.4,795.4,100.9z M792.8,121.9v71.8h-17.3v-71.8H792.8z"/>
		<path class="st3" d="M830.8,89.7v104h-17.3v-104H830.8z"/>
		<path class="st3" d="M906.6,193.7h-7.8c-1.6,0-2.9-0.2-3.8-0.7c-0.9-0.5-1.6-1.5-2.1-3l-1.5-5.1c-1.8,1.6-3.6,3.1-5.4,4.3
			s-3.6,2.3-5.4,3.1c-1.9,0.8-3.9,1.5-6,1.9c-2.1,0.4-4.4,0.6-7,0.6c-3,0-5.8-0.4-8.4-1.2c-2.6-0.8-4.8-2-6.6-3.7
			c-1.8-1.6-3.3-3.7-4.3-6.1c-1-2.4-1.5-5.3-1.5-8.5c0-2.7,0.7-5.4,2.1-8c1.4-2.6,3.8-5,7.1-7.2c3.3-2.1,7.7-3.9,13.2-5.3
			c5.5-1.4,12.3-2.1,20.5-2.1v-4.2c0-4.8-1-8.4-3-10.8c-2-2.3-5-3.5-8.9-3.5c-2.8,0-5.1,0.3-7,1c-1.9,0.7-3.5,1.4-4.9,2.2
			c-1.4,0.8-2.6,1.6-3.8,2.2c-1.2,0.7-2.5,1-3.9,1c-1.2,0-2.2-0.3-3-0.9c-0.8-0.6-1.5-1.4-2-2.2l-3.1-5.5
			c8.3-7.6,18.2-11.3,29.9-11.3c4.2,0,7.9,0.7,11.2,2.1c3.3,1.4,6.1,3.3,8.4,5.7s4,5.4,5.2,8.8c1.2,3.4,1.8,7.1,1.8,11.2V193.7z
			 M873,182.9c1.8,0,3.4-0.2,4.9-0.5c1.5-0.3,2.9-0.8,4.2-1.4c1.3-0.6,2.6-1.4,3.9-2.4c1.2-0.9,2.5-2.1,3.7-3.3v-12
			c-5,0-9.3,0.3-12.6,1c-3.4,0.6-6.1,1.4-8.2,2.4c-2.1,1-3.5,2.1-4.4,3.5c-0.9,1.3-1.3,2.7-1.3,4.3c0,3.1,0.9,5.2,2.7,6.6
			C867.8,182.3,870.1,182.9,873,182.9z"/>
		<path class="st3" d="M923.6,193.7v-71.8h10.6c2.2,0,3.7,1.1,4.4,3.2l1.2,5.7c1.4-1.5,3-2.8,4.6-4.1s3.3-2.3,5.1-3.2
			c1.8-0.9,3.7-1.6,5.8-2c2.1-0.5,4.3-0.7,6.7-0.7c3.9,0,7.4,0.7,10.4,2c3,1.3,5.6,3.2,7.6,5.6s3.6,5.3,4.6,8.6c1,3.3,1.6,7,1.6,11
			v45.7h-17.3V148c0-4.4-1-7.8-3-10.2c-2-2.4-5.1-3.6-9.1-3.6c-3,0-5.8,0.7-8.4,2c-2.6,1.4-5.1,3.2-7.4,5.5v51.9H923.6z"/>
		<path class="st3" d="M1052.4,193.7h-18.9V92.5h18.9V193.7z"/>
		<path class="st3" d="M1139,92.5v15h-44.9v30h37.9v15h-37.9v41.2h-19V92.5H1139z"/>
		<path class="st3" d="M1225.1,92.5v15.5h-30.5v85.8h-18.8v-85.8h-30.6V92.5H1225.1z"/>
	</g>
</g>
</svg>
