<?xml version="1.0" encoding="utf-8"?>
<!-- Generator: Adobe Illustrator 21.1.0, SVG Export Plug-In . SVG Version: 6.00 Build 0)  -->
<svg version="1.1" id="Calque_1" xmlns="http://www.w3.org/2000/svg" xmlns:xlink="http://www.w3.org/1999/xlink" x="0px" y="0px"
	 viewBox="0 0 1000 1000" style="enable-background:new 0 0 1000 1000;" xml:space="preserve">
<style type="text/css">
	.st0{fill:#333333;}
</style>
<path class="st0" d="M606.9,28.2C495.2,28.8,389,57.1,284.8,95.5c-37.3-9.3-74.8-19.9-109.6-0.8c-2.4,30.5,9.5,55.2,19.9,80.6
	c-61.5,124.7-83.9,262.4-49.8,419c63.1,27.8,126.2,48,189.3,59.9c-70.5-2.3-131-26.6-188.6-47C66.7,707.9,66.8,827.1,65.6,943.4
	c-11,13.1-27.3,22-26,44.9c24.7,14.5,60.7,3.6,95.7-5c293.6,97,459,6.9,667.7-19.9c24.5,22.2,52.4,36.1,87.5,31.9
	c-1-34.4-15.5-72.1-37.6-111.7c38-94.1,57.9-194,29.9-309.3c-78.5,44.1-158.1,66-239.2,62.2c107.1-12.9,173.9-32.4,240.1-76.9
	c79.8-119.8,61.3-303.8,32.9-453.1C944.1,84.4,941,60,950.7,30.3c-47,2.2-79.4,14.7-121.2,35.3C752.4,38.7,678.5,27.8,606.9,28.2
	L606.9,28.2z M692.7,224.8c5.4,76.6-1,156.9-20.9,225c-112.9,12.6-218,37.1-364.1,0c-5.1-119.5,22.6-173.3,51.6-224.5
	C464.3,258.5,570.8,234,692.7,224.8L692.7,224.8z M497.2,284.4C455,306.6,469.1,297,445.7,297c-8.8,0-17.6,0.1-26.5,0
	c-6.2-0.1-12.6,0-18.7-1.3c-4.2-1.5-6.1-5.7-10.4-7.2l-40.4,27.1c4.1,1.2,6.7,4.7,10.2,6.8c6.4,2.9,13.5,2.6,20.4,2.8
	c8.8,0.1,17.7,0.1,26.6,0.1c8.4-0.1,16.9,0,25.4-0.1c33.4,0.6,18.5-31.5,50.4-0.4c3,4.8,6.5,9.3,11,12.8c4.7,2.3,8.4,5.7,13.7,6.1
	c7.9-0.6,14.6-5.3,21.9-8.2c6.8-2.4,14-3.2,21.2-3.6c6.8,0,13.5,0.1,20.1-1.9c8.1-2.3,15.5-6.3,23.3-9.6c5.5-1.6,12.4-5.4,18.2-3.1
	l0.9,1.2l41.7-24.9l-1.8-2.5c-6.8-5.4-13.7-2.6-21.3-0.3c-7.8,2.8-15,7-22.9,9.6c-2.1,0.7-4.1,1.7-6.2,2.4
	c-4.2,1.2-8.7,0.2-13.1,0.6c-7.4,0.2-14.9,0.6-22.1,2.6c-7.4,2.3-13.9,5.8-20.8,9.1c-1.3,0.2-2.6,0.9-3.9,0.8c-3-0.3-4.7-4.7-8-4.5
	c-4.7-2.6-7.7-7.3-10.7-11.7c-5.2-5.8-11.9-10.4-18.8-14C502.5,284.8,499.9,284.4,497.2,284.4L497.2,284.4z M529.9,415.3
	c4.7,5.9,10.2,10.3,17.3,12.9c7.8,2,15.9,1.8,23.9,1.9c8.3,0.4,16.4-1.3,24.3-3.7c18.4-7.3,37.9-15.2,50.9-30.3
	c-33.3,11.2-63.9,32.5-12.9,0.7c-7.4,3-15.4,5.1-23.4,5c-7.6,0-15.3,0.1-22.9-0.9c-7.2-1.6-12.5-5.5-16.8-11.5
	C538.7,352.2,550.9,389.4,529.9,415.3L529.9,415.3z M507.8,403.7c8.3-19.7,0.2-2.1-12.1-17.3c-5.3-4.6-11.8-4.8-18.6-4
	c-8.1,0.8-16.3,2-23.8,5.4c-6.5,3.1-13.1,4.4-20.4,3.1c-6.8-1.1-13.4-3-20.3-3.7c-7.8-1.8-15-5-22.4-7.8l-39.7,27.8
	c7.8,1.5,14.8,5.1,22.5,7.3c6.8,1.3,13.5,2.8,20.4,4.1c7.5,1.4,14.8,1.3,22.1-1c7.3-3.4,15-5.3,23-6.4c5.3-0.4,11.3-1.6,16.2,1.2
	c4.5,4.7,8.8,9.6,13.3,14.4c4.5,5.1,10.3,7.8,16.9,8.9C545.6,427.1,508.5,417,507.8,403.7z"/>
</svg>
