<?xml version="1.0" encoding="utf-8"?>
<!-- Generator: Adobe Illustrator 24.0.2, SVG Export Plug-In . SVG Version: 6.00 Build 0)  -->
<svg version="1.1" id="Calque_1" xmlns="http://www.w3.org/2000/svg" xmlns:xlink="http://www.w3.org/1999/xlink" x="0px" y="0px"
	 viewBox="0 0 428.6 714.2" style="enable-background:new 0 0 428.6 714.2;" xml:space="preserve">
<path d="M258.9,642.8c0-24.5-20.1-44.6-44.6-44.6s-44.7,20.1-44.7,44.6s20.1,44.7,44.7,44.7S258.9,667.4,258.9,642.8z M375,553.5
	V160.7c0-9.5-8.4-17.9-17.9-17.9H71.4c-9.5,0-17.8,8.4-17.8,17.9v392.8c0,9.5,8.3,17.9,17.8,17.9h285.7
	C366.6,571.4,375,563,375,553.5z M267.9,80.3c0-5-3.9-8.9-9-8.9h-89.3c-5,0-8.9,3.9-8.9,8.9s3.9,8.9,8.9,8.9h89.3
	C264,89.2,267.9,85.3,267.9,80.3z M428.6,71.4v571.4c0,39.1-32.4,71.4-71.5,71.4H71.4c-39,0-71.4-32.3-71.4-71.4V71.4
	C0,32.3,32.4,0,71.4,0h285.7C396.2,0,428.6,32.3,428.6,71.4L428.6,71.4z"/>
</svg>
