<?xml version="1.0" encoding="utf-8"?>
<!-- Generator: Adobe Illustrator 24.0.2, SVG Export Plug-In . SVG Version: 6.00 Build 0)  -->
<svg version="1.1"
	 id="svg2" xmlns:cc="http://creativecommons.org/ns#" xmlns:dc="http://purl.org/dc/elements/1.1/" xmlns:inkscape="http://www.inkscape.org/namespaces/inkscape" xmlns:rdf="http://www.w3.org/1999/02/22-rdf-syntax-ns#" xmlns:sodipodi="http://sodipodi.sourceforge.net/DTD/sodipodi-0.dtd" xmlns:svg="http://www.w3.org/2000/svg"
	 xmlns="http://www.w3.org/2000/svg" xmlns:xlink="http://www.w3.org/1999/xlink" x="0px" y="0px" viewBox="0 0 100 100"
	 style="enable-background:new 0 0 100 100;" xml:space="preserve">
<style type="text/css">
	.st0{opacity:0.95;fill-rule:evenodd;clip-rule:evenodd;enable-background:new    ;}
</style>
<sodipodi:namedview  bordercolor="#666666" borderlayer="true" borderopacity="1.0" id="base" inkscape:current-layer="layer1" inkscape:cx="-19.892962" inkscape:cy="88.785531" inkscape:document-units="px" inkscape:guide-bbox="true" inkscape:pageopacity="0.0" inkscape:pageshadow="2" inkscape:showpageshadow="false" inkscape:window-height="1057" inkscape:window-maximized="1" inkscape:window-width="1920" inkscape:window-x="0" inkscape:window-y="0" inkscape:zoom="2.8" pagecolor="#ffffff" showgrid="false" showguides="true" units="px">
	<sodipodi:guide  id="guide4136" inkscape:color="rgb(0,0,255)" inkscape:label="" orientation="1,0" position="100,0">
		</sodipodi:guide>
	<sodipodi:guide  id="guide4138" inkscape:color="rgb(0,0,255)" inkscape:label="" orientation="1,0" position="200,0">
		</sodipodi:guide>
	<sodipodi:guide  id="guide4142" inkscape:color="rgb(0,0,255)" inkscape:label="" orientation="0,1" position="0,50">
		</sodipodi:guide>
	<sodipodi:guide  id="guide4149" orientation="1,0" position="164.0625,73.125"></sodipodi:guide>
</sodipodi:namedview>
<g id="layer1" transform="translate(0,-952.36216)" inkscape:groupmode="layer" inkscape:label="Calque 1">
	<path id="path4140" class="st0" d="M50.4220619,961.3231812c-20.685854,0.0192261-38.1562805,15.4818115-40.6908264,36.0118408
		l5.089798,0.6287231c2.222187-17.9998779,17.4650555-31.491272,35.6010284-31.5106812
		c16.3073463,0.0215454,30.2664833,10.9360352,34.5289726,26.2229614l-9.9216003-7.0761108l-2.9807434,4.1755371
		l17.6439667,12.586731L100,983.3981934l-4.5086823-2.449707l-5.6107941,10.3273315
		c-4.8843307-17.4318848-20.8654099-29.9281006-39.4534492-29.9526367
		C50.4254036,961.3231812,50.4237328,961.3231812,50.4220619,961.3231812z M11.594821,1002.6276855L0,1020.8327637
		l4.3258286,2.7553101l6.5826712-10.3348999c4.8130884,17.5079346,20.8255234,30.1280518,39.5135612,30.1479492
		c0.0008392,0,0.0016708,0,0.0025063,0c20.9765091,0,38.6062775-15.8778076,40.8035431-36.7381592l-5.0998154-0.5385132
		c-1.9267731,18.2922974-17.3087006,32.1455688-35.7012215,32.1469116
		c-15.9755821-0.0167236-29.666441-10.4803467-34.2434196-25.2186279l8.8795929,7.3115845l3.2612782-3.960083
		L11.594821,1002.6276855z"/>
</g>
</svg>
