<?xml version="1.0" encoding="utf-8"?>
<!-- Generator: Adobe Illustrator 24.3.0, SVG Export Plug-In . SVG Version: 6.00 Build 0)  -->
<svg version="1.1" id="Calque_1" xmlns="http://www.w3.org/2000/svg" xmlns:xlink="http://www.w3.org/1999/xlink" x="0px" y="0px"
	 viewBox="0 0 1000 700" style="enable-background:new 0 0 1000 700;" xml:space="preserve">
<style type="text/css">
	.st0{fill:#333333;}
</style>
<path class="st0" d="M626.0999756,223.1999969c35,35.0000153,52.5,77.3000031,52.5,126.8000031s-17.5,91.7000122-52.5,126.7999878
	s-77.2000122,52.5-126.7999878,52.5s-91.5-17.7999878-126.1000061-53.2000122L499.2999878,350V170.6999969
	C548.7999878,170.6999969,591,188.1999969,626.0999756,223.1999969z M500,51.7000008
	c82.5999756,0,153.0999756,29.2000008,211.5,87.5S799,267.8999939,799,350s-29.2000122,152.3999939-87.5,210.7000122
	c-58.4000244,58.4000244-128.7999878,87.5-211.5,87.5S346.8999939,619,288.5,560.7000122S201,432.1000061,201,350
	s29.1999969-152.3999939,87.5-210.6999969S417.3999939,51.7000008,500,51.7000008L500,51.7000008z M500,589.5
	c65.7999878,0,122.0999756-23.4000244,168.7000122-70.0999756c46.7000122-46.7000122,70-103.2000122,70.0999756-169.3999939
	S715.5,227.3000336,668.7000122,180.6000366s-103-70.0999985-168.7000122-70.0999985s-122,23.4000015-168.7999878,70.0999985
	s-70.1000061,103.2000122-70,169.3999939s23.5,122.6999817,70,169.3999939S434,589.5,500,589.5z"/>
</svg>
