<?xml version="1.0" encoding="utf-8"?>
<!-- Generator: Adobe Illustrator 24.3.0, SVG Export Plug-In . SVG Version: 6.00 Build 0)  -->
<svg version="1.1" id="Calque_1" xmlns="http://www.w3.org/2000/svg" xmlns:xlink="http://www.w3.org/1999/xlink" x="0px" y="0px"
	 viewBox="0 0 1040.7 731.7" style="enable-background:new 0 0 1040.7 731.7;" xml:space="preserve">
<style type="text/css">
	.st0{fill:#333333;}
</style>
<path class="st0" d="M669.3,403.1c-10.9,0-23.1,0-36.1,1.8c43.2,31.3,73.4,72.6,73.4,128.6v93.2h223.6v-93.2
	C930.2,446.8,756.2,403.1,669.3,403.1 M371.3,403.1c-86.8,0-260.8,43.6-260.8,130.4v93.2h521.7v-93.2
	C632.1,446.8,458,403.1,371.3,403.1 M371.3,328.6c61.7,0,111.8-50.1,111.8-111.8S433,105,371.3,105s-111.8,50.1-111.8,111.8
	S309.6,328.6,371.3,328.6 M669.3,328.6c61.7,0,111.8-50.1,111.8-111.8S731.1,105,669.3,105c-61.7,0-111.8,50.1-111.8,111.8
	S607.7,328.6,669.3,328.6z"/>
</svg>
