<?xml version="1.0" encoding="utf-8"?>
<!-- Generator: Adobe Illustrator 23.0.2, SVG Export Plug-In . SVG Version: 6.00 Build 0)  -->
<svg version="1.1" id="Calque_1" xmlns="http://www.w3.org/2000/svg" xmlns:xlink="http://www.w3.org/1999/xlink" x="0px" y="0px"
	 viewBox="0 0 569 292" style="enable-background:new 0 0 569 292;" xml:space="preserve">
<style type="text/css">
	.st0{fill:url(#SVGID_1_);}
	.st1{fill:url(#SVGID_2_);}
	.st2{fill:#333333;}
</style>
<linearGradient id="SVGID_1_" gradientUnits="userSpaceOnUse" x1="284.5" y1="2" x2="284.5" y2="294" gradientTransform="matrix(1 0 0 -1 0 294)">
	<stop  offset="0" style="stop-color:#BBBBBB"/>
	<stop  offset="1" style="stop-color:#DCDCDC"/>
</linearGradient>
<rect class="st0" width="569" height="292"/>
<linearGradient id="SVGID_2_" gradientUnits="userSpaceOnUse" x1="284.5" y1="12" x2="284.5" y2="284" gradientTransform="matrix(1 0 0 -1 0 294)">
	<stop  offset="0" style="stop-color:#E8E8E8"/>
	<stop  offset="1" style="stop-color:#F9F9F9"/>
</linearGradient>
<rect x="10" y="10" class="st1" width="549" height="272"/>
<g>
	<path class="st2" d="M119.7736816,75.2724609c6.8398438,0,12.9985352,0.9975586,18.4775391,2.9926758
		c5.4775391,1.9951172,10.1489258,4.7661133,14.0126953,8.3125c3.8623047,3.5473633,6.8237305,7.7749023,8.8823242,12.6826172
		c2.0571289,4.9086914,3.0874023,10.3071289,3.0874023,16.1972656c0,5.0678711-0.7124023,9.7539062-2.137207,14.0600586
		c-1.425293,4.3076172-3.3725586,8.4072266-5.8427734,12.3022461c-2.4697266,3.8950195-5.3364258,7.6640625-8.5976562,11.3051758
		c-3.262207,3.6425781-6.7299805,7.331543-10.4023438,11.0673828l-27.074707,27.7402344
		c3.4819336-1.012207,6.918457-1.8198242,10.3071289-2.4223633c3.3876953-0.6015625,6.5698242-0.902832,9.5478516-0.902832
		h25.8398438c3.1660156,0,5.6674805,0.871582,7.5048828,2.612793c1.8364258,1.7426758,2.7548828,4.0371094,2.7548828,6.887207
		v17.1000977H68.8537598v-9.5c0-1.8359375,0.3798828-3.7998047,1.1401367-5.8901367
		c0.7597656-2.0898438,2.0898438-3.9897461,3.9897461-5.699707l39.8999023-40.1850586
		c3.4204102-3.4199219,6.3964844-6.6811523,8.9301758-9.7851562c2.5322266-3.1020508,4.6225586-6.1586914,6.2700195-9.1674805
		c1.6459961-3.0073242,2.8813477-6.0161133,3.7050781-9.0249023c0.8222656-3.0073242,1.2348633-6.1899414,1.2348633-9.5473633
		c0-5.5102539-1.3149414-9.737793-3.9423828-12.6826172c-2.6289062-2.9453125-6.6352539-4.4174805-12.0175781-4.4174805
		c-2.2177734,0-4.2436523,0.3173828-6.0800781,0.949707c-1.8374023,0.6337891-3.4838867,1.4892578-4.9399414,2.5654297
		c-1.4575195,1.0776367-2.7075195,2.34375-3.7524414,3.7998047c-1.0449219,1.4575195-1.8852539,3.0400391-2.5175781,4.75
		c-1.0136719,2.8500977-2.2963867,4.9086914-3.8476562,6.1748047c-1.5522461,1.2675781-3.6572266,1.9003906-6.3173828,1.9003906
		c-0.6337891,0-1.3149414-0.03125-2.0424805-0.0952148c-0.7285156-0.0625-1.4726562-0.1572266-2.2324219-0.2851562
		L70.7536621,116.3125c1.012207-6.9023438,2.9599609-12.9199219,5.8427734-18.0498047
		c2.8808594-5.1303711,6.4599609-9.4052734,10.7348633-12.8251953s9.1674805-5.96875,14.6772461-7.6474609
		C107.5187988,76.112793,113.4396973,75.2724609,119.7736816,75.2724609z"/>
	<path class="st2" d="M279.1809082,145.9526367c0,12.0976562-1.2988281,22.5786133-3.8950195,31.4448242
		c-2.5976562,8.8676758-6.1914062,16.2138672-10.7822266,22.0400391
		c-4.5927734,5.8276367-10.0390625,10.1650391-16.340332,13.0151367c-6.3022461,2.8500977-13.1259766,4.2749023-20.472168,4.2749023
		c-7.3476562,0-14.1401367-1.4248047-20.3774414-4.2749023c-6.2392578-2.8500977-11.6376953-7.1875-16.1977539-13.0151367
		c-4.5600586-5.8261719-8.1225586-13.1723633-10.6875-22.0400391c-2.5649414-8.8662109-3.8476562-19.347168-3.8476562-31.4448242
		c0-12.0961914,1.2827148-22.5776367,3.8476562-31.4453125c2.5649414-8.8662109,6.1274414-16.2119141,10.6875-22.0400391
		c4.5600586-5.8261719,9.9584961-10.1484375,16.1977539-12.9672852c6.2373047-2.8173828,13.0297852-4.2275391,20.3774414-4.2275391
		c7.3461914,0,14.1699219,1.4101562,20.472168,4.2275391c6.3012695,2.8188477,11.7475586,7.1411133,16.340332,12.9672852
		c4.5908203,5.828125,8.1845703,13.1738281,10.7822266,22.0400391
		C277.8820801,123.375,279.1809082,133.8564453,279.1809082,145.9526367z M248.7810059,145.9526367
		c0-9.5625-0.6025391-17.3999023-1.8051758-23.5126953c-1.2036133-6.1113281-2.8022461-10.9086914-4.7973633-14.3925781
		c-1.9951172-3.4824219-4.2602539-5.8735352-6.7924805-7.1723633c-2.5336914-1.2973633-5.0986328-1.9472656-7.6948242-1.9472656
		c-2.5976562,0-5.1464844,0.6499023-7.6474609,1.9472656c-2.5029297,1.2988281-4.7192383,3.6899414-6.6503906,7.1723633
		c-1.9326172,3.4838867-3.4833984,8.28125-4.6547852,14.3925781c-1.1728516,6.112793-1.7573242,13.9501953-1.7573242,23.5126953
		c0,9.6274414,0.5844727,17.4799805,1.7573242,23.5600586c1.1713867,6.0795898,2.722168,10.8774414,4.6547852,14.3920898
		c1.9311523,3.5151367,4.1474609,5.9228516,6.6503906,7.2202148c2.5009766,1.2988281,5.0498047,1.9477539,7.6474609,1.9477539
		c2.5961914,0,5.1611328-0.6489258,7.6948242-1.9477539c2.5322266-1.2973633,4.7973633-3.7050781,6.7924805-7.2202148
		c1.9951172-3.5146484,3.59375-8.3125,4.7973633-14.3920898
		C248.1784668,163.4326172,248.7810059,155.5800781,248.7810059,145.9526367z"/>
	<path class="st2" d="M306.9187012,193.9277344h26.6000977v-69.8251953c0-3.4199219,0.0947266-6.9975586,0.2851562-10.7348633
		l-15.675293,13.0146484c-1.0136719,0.8242188-2.0273438,1.4101562-3.0400391,1.7578125
		c-1.0136719,0.3486328-1.9946289,0.5224609-2.9448242,0.5224609c-1.6474609,0-3.1201172-0.3637695-4.4174805-1.0927734
		c-1.2988281-0.7270508-2.2651367-1.503418-2.8974609-2.3271484l-9.3100586-12.3500977l43.1293945-36.1948242h24.3203125
		v117.2299805h22.8007812v21.2797852h-78.8505859V193.9277344z"/>
	<path class="st2" d="M441.8161621,161.2475586c-4.4980469,0-8.9941406-0.8076172-13.4902344-2.4223633
		c-4.4980469-1.6152344-8.5664062-4.0688477-12.2070312-7.362793c-3.6425781-3.2919922-6.6035156-7.440918-8.8828125-12.4448242
		c-2.2802734-5.0024414-3.4199219-10.925293-3.4199219-17.7651367c0-6.2700195,1.1542969-12.190918,3.4667969-17.7651367
		c2.3115234-5.5722656,5.6054688-10.449707,9.8808594-14.6298828c4.2753906-4.1796875,9.3886719-7.4887695,15.3417969-9.9272461
		c5.953125-2.4375,12.6025391-3.6577148,19.9501953-3.6577148c7.4716797,0,14.1552734,1.1401367,20.0458984,3.4199219
		c5.8886719,2.2802734,10.8769531,5.4790039,14.9609375,9.5952148c4.0859375,4.1176758,7.2207031,9.0102539,9.40625,14.6772461
		c2.1855469,5.6689453,3.2773438,11.9228516,3.2773438,18.7626953c0,4.5600586-0.3652344,8.8349609-1.0917969,12.8251953
		c-0.7304688,3.9897461-1.7441406,7.8061523-3.0410156,11.4472656c-1.2988281,3.6425781-2.8671875,7.125-4.703125,10.4501953
		c-1.8378906,3.324707-3.8945312,6.6025391-6.1738281,9.8325195l-29.8300781,42.3696289
		c-1.2675781,1.8378906-3.2636719,3.3891602-5.9853516,4.6552734c-2.7236328,1.2675781-5.7949219,1.8999023-9.2148438,1.8999023
		h-27.1708984l43.890625-52.4399414c0.8867188-1.0761719,1.7246094-2.1049805,2.5175781-3.0874023
		c0.7910156-0.9814453,1.5683594-1.9790039,2.328125-2.9926758c-2.8515625,1.5200195-5.9550781,2.6601562-9.3105469,3.4199219
		C449.0036621,160.8676758,445.4880371,161.2475586,441.8161621,161.2475586z M472.0251465,119.0673828
		c0-3.355957-0.4902344-6.3173828-1.4707031-8.8823242c-0.984375-2.5649414-2.3457031-4.7026367-4.0859375-6.4125977
		c-1.7421875-1.7099609-3.8476562-3.0073242-6.3183594-3.8950195c-2.46875-0.8862305-5.1621094-1.3300781-8.0742188-1.3300781
		c-2.9775391,0-5.6210938,0.5224609-7.9326172,1.5678711c-2.3125,1.0449219-4.2744141,2.4863281-5.8896484,4.3222656
		c-1.6152344,1.8378906-2.8496094,4.0063477-3.7050781,6.5073242c-0.8554688,2.5029297-1.2832031,5.2104492-1.2832031,8.1225586
		c0,13.8076172,6.3964844,20.7099609,19.1904297,20.7099609c6.2705078,0,11.0986328-1.8833008,14.4873047-5.6523438
		C470.3317871,130.3579102,472.0251465,125.3374023,472.0251465,119.0673828z"/>
</g>
</svg>
