<?xml version="1.0" encoding="utf-8"?>
<!-- Generator: Adobe Illustrator 23.0.0, SVG Export Plug-In . SVG Version: 6.00 Build 0)  -->
<svg version="1.1" id="Calque_1" xmlns="http://www.w3.org/2000/svg" xmlns:xlink="http://www.w3.org/1999/xlink" x="0px" y="0px"
	 viewBox="0 0 341 1000" style="enable-background:new 0 0 341 1000;" xml:space="preserve">
<style type="text/css">
	.st0{fill:#FF0000;}
</style>
<g>
	<g>
		<path class="st0" d="M339.0744324,468.5305481c-2.1361694-8.1619263-6.8496094-14.296936-14.1401672-18.4124756
			l-63.1952515-36.5807495l63.1952515-36.5953369c7.2905579-4.1155396,12.0039978-10.2542114,14.1401672-18.4124756
			c2.1360779-8.1582336,1.151886-15.8789368-2.9746094-23.1695557l-15.1937256-26.1260681
			c-4.130127-7.2906494-10.2542419-12.0040283-18.427063-14.1401672
			c-8.1436462-2.1361694-15.8643799-1.1555176-23.1549988,2.9746094l-63.206192,36.3401184v-72.9354553
			c0-8.2456818-3.0073853-15.3649902-9.0294189-21.387085c-6.0220337-6.02565-13.1412811-9.0294037-21.3870239-9.0294037
			h-30.4019165c-8.2457886,0-15.3649902,3.0183258-21.387085,9.0294037
			c-6.0257568,6.0220947-9.0295181,13.1414032-9.0295181,21.387085v72.9354553l-63.1951866-36.3547058
			c-7.2906303-4.1155396-15.0222397-5.1107483-23.1659088-2.960022c-8.1582394,2.1361389-14.2969151,6.8495178-18.427042,14.1257019
			L4.9010715,335.3599548c-4.1302376,7.2796021-5.1107616,15.011322-2.974612,23.1695557
			c2.1361496,8.1436768,6.8495398,14.296936,14.140172,18.4124756l63.1951866,36.5953369l-63.1951866,36.5807495
			c-7.2906322,4.1155396-12.0040226,10.2505493-14.140172,18.4124756
			c-2.1361494,8.1582336-1.1556255,15.8752747,2.974612,23.1660156l15.1936722,26.1296082
			c4.130127,7.2905273,10.2688026,12.0040283,18.427042,14.1401978c8.1581306,2.1361084,15.8752785,1.1518555,23.1659088-2.9746094
			l63.1951866-36.3401489v72.9354858c0,8.2312012,3.0037613,15.3650513,9.0295181,21.3870239
			C139.934494,592.9962158,147.0536957,596,155.2994843,596h30.4019165c8.2457428,0,15.3795166-3.0037842,21.3870239-9.0258789
			c6.0220337-6.0219727,9.0294189-13.1558228,9.0294189-21.3870239v-72.9354858l63.206192,36.3547974
			c7.2906189,4.1118164,15.0113525,5.1106567,23.1549988,2.9599609c8.1582336-2.1361694,14.296936-6.8496704,18.427063-14.1401978
			l15.1937256-26.1296082C340.2263184,484.4058228,341.2105103,476.6887817,339.0744324,468.5305481L339.0744324,468.5305481z
			 M339.0744324,468.5305481"/>
	</g>
</g>
</svg>
