<?xml version="1.0" encoding="utf-8"?>
<!-- Generator: Adobe Illustrator 23.0.2, SVG Export Plug-In . SVG Version: 6.00 Build 0)  -->
<svg version="1.1" id="Calque_1" xmlns="http://www.w3.org/2000/svg" xmlns:xlink="http://www.w3.org/1999/xlink" x="0px" y="0px"
	 viewBox="0 0 1257.2 1208.7" style="enable-background:new 0 0 1257.2 1208.7;" xml:space="preserve">
<style type="text/css">
	.st0{fill:#688ED8;}
	.st1{fill:#FFFFFF;}
	.st2{fill:#D81E08;}
</style>
<rect x="0" class="st0" width="1257.2" height="1208.7"/>
<path class="st1" d="M507.3,1075.6c0-4.1-3.2-7.3-7.3-7.3c-36.2,0-66.1-29.8-66.1-66.1c0-4.1-3.2-7.3-7.3-7.3s-7.3,3.2-7.3,7.3
	c0,44.5,36.2,80.8,80.7,80.8C504.1,1082.9,507.3,1079.7,507.3,1075.6L507.3,1075.6z M201.9,943.5H798
	c-82.1-92.6-122-218.3-122-381.6c0-59.2-56-146.7-176.1-146.7s-176.1,87.5-176.1,146.7C323.9,725.2,284,850.9,201.9,943.5
	L201.9,943.5z M881.6,943.5c0,32.1-26.6,58.7-58.7,58.7H617.4c0,64.7-52.8,117.4-117.4,117.4s-117.4-52.8-117.4-117.4H177.1
	c-32.1,0-58.7-26.5-58.7-58.7c67.9-57.3,146.8-160,146.8-381.6c0-88,72.9-184.3,194.4-202.2c-2.3-5.5-3.7-11.4-3.7-17.8
	c0-24.3,19.7-44,44-44c24.3,0,44,19.7,44,44c0,6.4-1.4,12.3-3.7,17.8c121.5,17.9,194.4,114.2,194.4,202.2
	C734.8,783.5,813.7,886.2,881.6,943.5L881.6,943.5z"/>
<g>
	<g>
		<circle class="st2" cx="957.2" cy="300" r="300"/>
	</g>
	<g>
		<path class="st1" d="M875.5,426.7h68.9V228.6c0-7.7,0.2-15.7,0.7-24.2l-48.9,40.9c-2,1.7-4.1,2.9-6.2,3.5
			c-2.1,0.6-4.2,0.9-6.2,0.9c-3.1,0-6-0.7-8.6-2c-2.6-1.3-4.5-2.9-5.8-4.6L851,218l103.6-88.1h47.7v296.8h61.1v43.5h-188V426.7z"/>
	</g>
</g>
</svg>
