<?xml version="1.0" encoding="utf-8"?>
<!-- Generator: Adobe Illustrator 21.1.0, SVG Export Plug-In . SVG Version: 6.00 Build 0)  -->
<svg version="1.1" id="Calque_1" xmlns="http://www.w3.org/2000/svg" xmlns:xlink="http://www.w3.org/1999/xlink" x="0px" y="0px"
	 viewBox="0 0 1071.4 1000" style="enable-background:new 0 0 1071.4 1000;" xml:space="preserve">
<style type="text/css">
	.st0{fill:#333333;}
</style>
<path class="st0" d="M500,500c0-78.7-64.2-142.9-142.9-142.9S214.3,421.3,214.3,500s64.2,142.9,142.8,142.9S500,578.7,500,500
	L500,500z M928.6,785.7c0-39-32.4-71.4-71.5-71.4s-71.4,32.4-71.4,71.4c0,39.6,32.4,71.4,71.4,71.4
	C896.8,857.1,928.6,824.8,928.6,785.7z M928.6,214.3c0-39.1-32.4-71.4-71.5-71.4s-71.4,32.3-71.4,71.4c0,39.6,32.4,71.4,71.4,71.4
	C896.8,285.7,928.6,253.3,928.6,214.3z M714.3,449.2v103.3c0,7.2-5.6,15.6-12.8,16.7L615,582.6c-4.5,14.5-10.6,28.4-17.9,42.4
	c15.6,22.3,32.4,43,50.2,64.2c2.3,3.3,3.9,6.7,3.9,11.1c0,3.9-1.1,7.8-3.9,10.6c-11.1,15.1-73.6,83.2-89.8,83.2
	c-4.5,0-8.4-1.7-11.7-3.9L481.6,740c-14,7.2-27.9,12.8-43,17.3c-2.8,28.4-5.6,59.1-12.8,86.5c-2.3,7.8-8.9,13.3-16.8,13.3H305.2
	c-7.8,0-15.6-6.1-16.7-13.9l-12.8-85.4c-14.5-4.5-28.5-10.6-41.9-17.3L168,790.2c-2.8,2.8-7.3,3.9-11.2,3.9c-4.5,0-8.4-1.7-11.7-4.5
	c-14.5-13.4-80.4-73.1-80.4-89.3c0-3.9,1.7-7.2,3.9-10.6c16.2-21.2,33-41.8,49.1-63.6c-7.8-15.1-14.5-30.1-19.5-45.7L13.4,567
	C5.6,565.8,0,558.6,0,550.8V447.5c0-7.2,5.6-15.6,12.8-16.7l86.5-13.4c4.5-14.5,10.6-28.4,17.9-42.4c-15.6-22.3-32.4-43-50.2-64.2
	c-2.3-3.3-3.9-7.2-3.9-11.1s1.1-7.8,3.9-11.2c11.1-15.1,73.6-82.6,89.8-82.6c4.5,0,8.4,1.7,11.7,3.9l64.2,50.2
	c14-7.2,27.9-12.8,43-17.8c2.8-27.9,5.6-58.6,12.8-85.9c2.2-7.9,8.9-13.4,16.7-13.4H409c7.9,0,15.7,6.1,16.8,13.9l12.8,85.4
	c14.5,4.5,28.5,10.6,41.9,17.3l65.8-49.7c3.4-2.8,7.3-3.9,11.2-3.9c4.4,0,8.3,1.7,11.7,4.5c14.5,13.4,80.4,73.6,80.4,89.3
	c0,3.9-1.7,7.2-4,10.6c-16.1,21.7-32.9,41.8-48.5,63.6c7.3,15.1,13.9,30.1,19,45.7l84.8,12.9C708.7,434.2,714.3,441.4,714.3,449.2
	L714.3,449.2z M1071.4,746.7v78.1c0,8.3-72,16.2-83.1,17.3c-4.5,10.6-10.1,20.1-16.8,29c5.1,11.2,28.5,67,28.5,77
	c0,1.7-0.6,2.8-2.2,3.9c-6.7,3.9-66.4,39.6-69.2,39.6c-7.3,0-49.1-55.8-54.7-64.1c-5.6,0.5-11.2,1.1-16.8,1.1s-11.1-0.6-16.7-1.1
	c-5.6,8.3-47.4,64.1-54.7,64.1c-2.8,0-62.5-35.7-69.2-39.6c-1.7-1.1-2.2-2.8-2.2-3.9c0-9.5,23.4-65.8,28.4-77
	c-6.7-8.9-12.2-18.4-16.7-29c-11.2-1.1-83.1-9-83.1-17.3v-78.1c0-8.4,71.9-16.2,83.1-17.3c4.5-10.1,10-20.1,16.7-29.1
	c-5-11.1-28.4-67.5-28.4-77c0-1.1,0.5-2.8,2.2-3.9c6.7-3.3,66.4-39,69.2-39c7.3,0,49.1,55.2,54.7,63.6c5.6-0.6,11.2-1.1,16.7-1.1
	s11.2,0.5,16.8,1.1c15.6-21.8,32.4-43.6,51.3-62.5l3.4-1.1c2.8,0,62.5,35.1,69.2,39c1.6,1.1,2.2,2.8,2.2,3.9
	c0,10.1-23.4,65.9-28.5,77c6.7,9,12.3,19,16.8,29.1C999.4,730.5,1071.4,738.3,1071.4,746.7z M1071.4,175.2v78.1
	c0,8.4-72,16.2-83.1,17.3c-4.5,10.7-10.1,20.1-16.8,29.1c5.1,11.1,28.5,66.9,28.5,77c0,1.6-0.6,2.8-2.2,3.9
	c-6.7,3.9-66.4,39.6-69.2,39.6c-7.3,0-49.1-55.8-54.7-64.2c-5.6,0.6-11.2,1.1-16.8,1.1s-11.1-0.5-16.7-1.1
	c-5.6,8.4-47.4,64.2-54.7,64.2c-2.8,0-62.5-35.7-69.2-39.6c-1.7-1.1-2.2-2.8-2.2-3.9c0-9.5,23.4-65.9,28.4-77
	c-6.7-9-12.2-18.4-16.7-29.1c-11.2-1.1-83.1-8.9-83.1-17.3v-78.1c0-8.3,71.9-16.2,83.1-17.3c4.5-10,10-20.1,16.7-29
	c-5-11.2-28.4-67.5-28.4-77c0-1.1,0.5-2.8,2.2-3.9c6.7-3.4,66.4-39.1,69.2-39.1c7.3,0,49.1,55.3,54.7,63.6
	c5.6-0.5,11.2-1.1,16.7-1.1s11.2,0.6,16.8,1.1C889.5,50.8,906.3,29,925.2,10l3.4-1.1c2.8,0,62.5,35.2,69.2,39.1
	c1.6,1.1,2.2,2.8,2.2,3.9c0,10-23.4,65.8-28.5,77c6.7,8.9,12.3,19,16.8,29C999.4,159,1071.4,166.9,1071.4,175.2z"/>
</svg>
