<?xml version="1.0" encoding="utf-8"?>
<!-- Generator: Adobe Illustrator 24.3.0, SVG Export Plug-In . SVG Version: 6.00 Build 0)  -->
<svg version="1.1" id="Calque_1" xmlns="http://www.w3.org/2000/svg" xmlns:xlink="http://www.w3.org/1999/xlink" x="0px" y="0px"
	 viewBox="0 0 1000 1000" style="enable-background:new 0 0 1000 1000;" xml:space="preserve">
<style type="text/css">
	.st0{fill:#333333;}
</style>
<path class="st0" d="M1000,660.7v107.2c0,9.4-8.4,17.8-17.9,17.8H214.3v107.2c0,9.4-7.8,17.8-17.9,17.8c-5,0-9.5-2.2-13.4-5.6
	L5,726.6c-3.3-3.4-5-7.8-5-12.3c0-5,1.7-9.5,5-12.8l178.6-178.6c3.3-3.4,8.4-5,12.8-5c9.5,0,17.9,7.8,17.9,17.8v107.2h767.8
	C991.6,642.9,1000,650.7,1000,660.7z M1000,357.1c0,4.5-1.7,9.5-5,12.9L816.4,548.5c-3.3,3.4-8.4,5.1-12.8,5.1
	c-9.5,0-17.9-8.4-17.9-17.9V428.6H17.9c-9.5,0-17.9-8.4-17.9-17.9V303.6c0-9.5,8.4-17.9,17.9-17.9h767.8V178.6
	c0-10.1,7.8-17.9,17.9-17.9c5,0,9.5,2.2,13.4,5.6l178,178C998.3,347.7,1000,352.7,1000,357.1L1000,357.1z"/>
</svg>
