<?xml version="1.0" encoding="utf-8"?>
<!-- Generator: Adobe Illustrator 26.0.2, SVG Export Plug-In . SVG Version: 6.00 Build 0)  -->
<svg version="1.1" id="Calque_1" xmlns="http://www.w3.org/2000/svg" xmlns:xlink="http://www.w3.org/1999/xlink" x="0px" y="0px"
	 viewBox="0 0 1023.6 292" style="enable-background:new 0 0 1023.6 292;" xml:space="preserve">
<style type="text/css">
	.st0{fill:url(#SVGID_1_);}
	.st1{fill:url(#SVGID_00000165209569598796336450000003408303736998908800_);}
	.st2{fill:#FFFFFF;}
	.st3{fill:#333333;}
	.st4{fill:#3A3A3A;}
</style>
<g>
	
		<linearGradient id="SVGID_1_" gradientUnits="userSpaceOnUse" x1="1315.4213" y1="1228" x2="1315.4213" y2="936" gradientTransform="matrix(-1 0 0 1 1828 -936)">
		<stop  offset="0" style="stop-color:#BBBBBB"/>
		<stop  offset="1" style="stop-color:#DCDCDC"/>
	</linearGradient>
	<path class="st0" d="M25.8,282c-8,0-15-7-15-15V25c0-8,7-15,15-15h973.7c8,0,15,7,15,15v242c0,8-7,15-15,15H25.8z M999.4,292
		c14,0,25-11,25-25V25c0-14-11-25-25-25H25.8c-14,0-25,11-25,25v242c0,14,11,25,25,25H999.4z"/>
</g>
<linearGradient id="SVGID_00000003819160266556090260000013884455115432668592_" gradientUnits="userSpaceOnUse" x1="1316.2712" y1="-194" x2="1316.2712" y2="78" gradientTransform="matrix(-1 0 0 -1 1828 88)">
	<stop  offset="0" style="stop-color:#E8E8E8"/>
	<stop  offset="1" style="stop-color:#F9F9F9"/>
</linearGradient>
<path style="fill:url(#SVGID_00000003819160266556090260000013884455115432668592_);" d="M24.9,282c-8,0-15-7-15-15V25
	c0-8,7-15,15-15h973.7c8,0,15,7,15,15v242c0,8-7,15-15,15H24.9z"/>
<g>
	<path class="st2" d="M388.1,102.4v15h-44.9v28.1h35.3V160h-35.3v28.6h44.9v15h-63.8V102.4H388.1z"/>
	<path class="st2" d="M420.5,166.6l-23.6-34.8h16.7c1.3,0,2.2,0.2,2.8,0.5c0.6,0.3,1.1,0.9,1.6,1.7l15,24c0.2-0.8,0.5-1.6,0.9-2.4
		c0.3-0.8,0.8-1.6,1.3-2.4l12.1-18.9c0.6-0.9,1.1-1.5,1.8-2c0.6-0.4,1.4-0.6,2.2-0.6h15.9l-23.7,34l24.6,37.8h-16.7
		c-1.3,0-2.3-0.3-3-1c-0.8-0.7-1.4-1.4-1.9-2.2l-15.3-25c-0.4,1.7-1,3.1-1.8,4.2L416,200.3c-0.5,0.8-1.1,1.5-1.9,2.2
		c-0.7,0.7-1.7,1-2.8,1h-15.5L420.5,166.6z"/>
	<path class="st2" d="M502.7,204.7c-6.2,0-11-1.8-14.3-5.3c-3.4-3.5-5-8.4-5-14.6v-40.1H476c-0.9,0-1.7-0.3-2.4-0.9
		c-0.7-0.6-1-1.5-1-2.7v-6.9l11.5-1.9l3.6-19.6c0.2-0.9,0.6-1.7,1.3-2.2c0.7-0.5,1.5-0.8,2.6-0.8h9v22.6h18.9v12.3h-18.9v38.9
		c0,2.2,0.6,4,1.7,5.2s2.6,1.9,4.5,1.9c1.1,0,2-0.1,2.7-0.4c0.7-0.3,1.4-0.5,1.9-0.8s1-0.5,1.4-0.8s0.8-0.4,1.3-0.4s0.9,0.1,1.3,0.4
		c0.3,0.3,0.7,0.6,1.1,1.2l5.2,8.4c-2.5,2.1-5.4,3.7-8.7,4.8C509.5,204.2,506.2,204.7,502.7,204.7z"/>
	<path class="st2" d="M533.2,203.6v-71.8h10.1c1.8,0,3,0.3,3.7,1s1.2,1.8,1.4,3.4l1,8.7c2.6-4.4,5.6-7.9,9-10.5
		c3.5-2.6,7.3-3.9,11.6-3.9c3.5,0,6.5,0.8,8.8,2.5l-2.2,13c-0.1,0.8-0.4,1.4-0.9,1.8c-0.5,0.3-1.1,0.5-1.9,0.5
		c-0.7,0-1.7-0.2-2.9-0.5s-2.8-0.5-4.8-0.5c-3.6,0-6.7,1-9.2,3c-2.6,2-4.7,4.9-6.5,8.7v44.7L533.2,203.6L533.2,203.6z"/>
	<path class="st2" d="M644.7,203.6h-7.8c-1.6,0-2.9-0.2-3.8-0.7c-0.9-0.5-1.6-1.5-2.1-3l-1.5-5.1c-1.8,1.6-3.6,3.1-5.4,4.3
		s-3.6,2.3-5.4,3.1c-1.9,0.8-3.9,1.5-6,1.9s-4.4,0.6-7,0.6c-3,0-5.8-0.4-8.4-1.2c-2.6-0.8-4.8-2-6.6-3.7c-1.8-1.6-3.3-3.7-4.3-6.1
		c-1-2.4-1.5-5.3-1.5-8.5c0-2.7,0.7-5.4,2.1-8c1.4-2.6,3.8-5,7.1-7.2c3.3-2.1,7.7-3.9,13.2-5.3c5.5-1.4,12.3-2.1,20.5-2.1v-4.2
		c0-4.8-1-8.4-3-10.8c-2-2.3-5-3.5-8.9-3.5c-2.8,0-5.1,0.3-7,1s-3.5,1.4-4.9,2.2s-2.6,1.6-3.8,2.2c-1.2,0.7-2.5,1-3.9,1
		c-1.2,0-2.2-0.3-3-0.9c-0.8-0.6-1.5-1.4-2-2.2l-3.1-5.5c8.3-7.6,18.2-11.3,29.9-11.3c4.2,0,7.9,0.7,11.2,2.1
		c3.3,1.4,6.1,3.3,8.4,5.7s4,5.4,5.2,8.8c1.2,3.4,1.8,7.1,1.8,11.2V203.6z M611.1,192.8c1.8,0,3.4-0.2,4.9-0.5s2.9-0.8,4.2-1.4
		c1.3-0.6,2.6-1.4,3.9-2.4c1.2-0.9,2.5-2.1,3.7-3.3v-12c-5,0-9.3,0.3-12.6,1c-3.4,0.6-6.1,1.4-8.2,2.4c-2.1,1-3.5,2.1-4.4,3.5
		c-0.9,1.3-1.3,2.7-1.3,4.3c0,3.1,0.9,5.2,2.7,6.6C605.8,192.2,608.2,192.8,611.1,192.8z"/>
	<path class="st2" d="M682.7,110.9c0,1.5-0.3,2.9-0.9,4.2c-0.6,1.3-1.4,2.5-2.4,3.4c-1,1-2.2,1.8-3.5,2.3c-1.4,0.6-2.8,0.9-4.3,0.9
		s-2.9-0.3-4.2-0.9s-2.5-1.4-3.5-2.3c-1-1-1.8-2.1-2.3-3.4c-0.6-1.3-0.9-2.7-0.9-4.2s0.3-3,0.9-4.3c0.6-1.4,1.4-2.5,2.3-3.5
		c1-1,2.1-1.8,3.5-2.3c1.3-0.6,2.7-0.9,4.2-0.9s3,0.3,4.3,0.9c1.4,0.6,2.5,1.4,3.5,2.3c1,1,1.8,2.1,2.4,3.5
		C682.4,107.9,682.7,109.3,682.7,110.9z M680.1,131.8v71.8h-17.3v-71.8H680.1z"/>
	<path class="st2" d="M699.6,203.6v-71.8h10.1c1.8,0,3,0.3,3.7,1s1.2,1.8,1.4,3.4l1,8.7c2.6-4.4,5.6-7.9,9-10.5
		c3.5-2.6,7.3-3.9,11.6-3.9c3.5,0,6.5,0.8,8.8,2.5l-2.2,13c-0.1,0.8-0.4,1.4-0.9,1.8c-0.5,0.3-1.1,0.5-1.9,0.5
		c-0.7,0-1.7-0.2-2.9-0.5s-2.8-0.5-4.8-0.5c-3.6,0-6.7,1-9.2,3c-2.6,2-4.7,4.9-6.5,8.7v44.7L699.6,203.6L699.6,203.6z"/>
	<path class="st2" d="M786.5,130.7c4.5,0,8.7,0.7,12.5,2.2c3.8,1.4,7.1,3.6,9.8,6.3c2.8,2.8,4.9,6.2,6.4,10.2s2.3,8.6,2.3,13.8
		c0,1.3-0.1,2.4-0.2,3.3c-0.1,0.9-0.3,1.5-0.6,2s-0.7,0.8-1.2,1.1s-1.2,0.3-2,0.3h-44.4c0.5,7.4,2.5,12.8,6,16.2
		c3.5,3.5,8,5.2,13.7,5.2c2.8,0,5.2-0.3,7.2-1s3.8-1.4,5.3-2.2s2.8-1.5,4-2.2c1.1-0.7,2.2-1,3.3-1c0.7,0,1.3,0.1,1.8,0.4
		c0.5,0.3,1,0.7,1.3,1.2l5,6.3c-1.9,2.2-4.1,4.1-6.4,5.6c-2.4,1.5-4.9,2.7-7.5,3.6c-2.6,0.9-5.2,1.6-7.9,1.9
		c-2.7,0.4-5.3,0.6-7.8,0.6c-5,0-9.6-0.8-13.9-2.5c-4.3-1.7-8-4.1-11.2-7.4c-3.2-3.2-5.7-7.3-7.5-12c-1.8-4.8-2.7-10.3-2.7-16.6
		c0-4.9,0.8-9.5,2.4-13.8c1.6-4.3,3.9-8.1,6.8-11.3c3-3.2,6.6-5.7,10.8-7.6C776.3,131.6,781.1,130.7,786.5,130.7z M786.8,143.1
		c-5,0-9,1.4-11.8,4.3c-2.8,2.8-4.7,6.9-5.5,12.1H802c0-2.2-0.3-4.4-0.9-6.3c-0.6-2-1.5-3.7-2.8-5.2s-2.8-2.7-4.8-3.5
		C791.7,143.5,789.4,143.1,786.8,143.1z"/>
</g>
<g>
	<path class="st3" d="M378.1,92.4v15h-44.9v28.1h35.3V150h-35.3v28.6h44.9v15h-63.8V92.4H378.1z"/>
	<path class="st3" d="M410.5,156.6l-23.6-34.8h16.7c1.3,0,2.2,0.2,2.8,0.5c0.6,0.3,1.1,0.9,1.6,1.7l15,24c0.2-0.8,0.5-1.6,0.9-2.4
		c0.3-0.8,0.8-1.6,1.3-2.4l12.1-18.9c0.6-0.9,1.1-1.5,1.8-2c0.6-0.4,1.4-0.6,2.2-0.6h15.9l-23.7,34l24.6,37.8h-16.7
		c-1.3,0-2.3-0.3-3-1c-0.8-0.7-1.4-1.4-1.9-2.2l-15.3-25c-0.4,1.7-1,3.1-1.8,4.2L406,190.3c-0.5,0.8-1.1,1.5-1.9,2.2
		c-0.7,0.7-1.7,1-2.8,1h-15.5L410.5,156.6z"/>
	<path class="st3" d="M492.7,194.7c-6.2,0-11-1.8-14.3-5.3c-3.4-3.5-5-8.4-5-14.6v-40.1H466c-0.9,0-1.7-0.3-2.4-0.9
		c-0.7-0.6-1-1.5-1-2.7v-6.9l11.5-1.9l3.6-19.6c0.2-0.9,0.6-1.7,1.3-2.2c0.7-0.5,1.5-0.8,2.6-0.8h9v22.6h18.9v12.3h-18.9v38.9
		c0,2.2,0.6,4,1.7,5.2s2.6,1.9,4.5,1.9c1.1,0,2-0.1,2.7-0.4c0.7-0.3,1.4-0.5,1.9-0.8s1-0.5,1.4-0.8s0.8-0.4,1.3-0.4s0.9,0.1,1.3,0.4
		c0.3,0.3,0.7,0.6,1.1,1.2l5.2,8.4c-2.5,2.1-5.4,3.7-8.7,4.8C499.5,194.2,496.2,194.7,492.7,194.7z"/>
	<path class="st3" d="M523.2,193.6v-71.8h10.1c1.8,0,3,0.3,3.7,1s1.2,1.8,1.4,3.4l1,8.7c2.6-4.4,5.6-7.9,9-10.5
		c3.5-2.6,7.3-3.9,11.6-3.9c3.5,0,6.5,0.8,8.8,2.5l-2.2,13c-0.1,0.8-0.4,1.4-0.9,1.8c-0.5,0.3-1.1,0.5-1.9,0.5
		c-0.7,0-1.7-0.2-2.9-0.5s-2.8-0.5-4.8-0.5c-3.6,0-6.7,1-9.2,3c-2.6,2-4.7,4.9-6.5,8.7v44.7L523.2,193.6L523.2,193.6z"/>
	<path class="st3" d="M634.7,193.6h-7.8c-1.6,0-2.9-0.2-3.8-0.7c-0.9-0.5-1.6-1.5-2.1-3l-1.5-5.1c-1.8,1.6-3.6,3.1-5.4,4.3
		s-3.6,2.3-5.4,3.1c-1.9,0.8-3.9,1.5-6,1.9s-4.4,0.6-7,0.6c-3,0-5.8-0.4-8.4-1.2c-2.6-0.8-4.8-2-6.6-3.7c-1.8-1.6-3.3-3.7-4.3-6.1
		c-1-2.4-1.5-5.3-1.5-8.5c0-2.7,0.7-5.4,2.1-8c1.4-2.6,3.8-5,7.1-7.2c3.3-2.1,7.7-3.9,13.2-5.3c5.5-1.4,12.3-2.1,20.5-2.1v-4.2
		c0-4.8-1-8.4-3-10.8c-2-2.3-5-3.5-8.9-3.5c-2.8,0-5.1,0.3-7,1s-3.5,1.4-4.9,2.2s-2.6,1.6-3.8,2.2c-1.2,0.7-2.5,1-3.9,1
		c-1.2,0-2.2-0.3-3-0.9c-0.8-0.6-1.5-1.4-2-2.2l-3.1-5.5c8.3-7.6,18.2-11.3,29.9-11.3c4.2,0,7.9,0.7,11.2,2.1s6.1,3.3,8.4,5.7
		c2.3,2.4,4,5.4,5.2,8.8c1.2,3.4,1.8,7.1,1.8,11.2V193.6z M601.1,182.8c1.8,0,3.4-0.2,4.9-0.5s2.9-0.8,4.2-1.4
		c1.3-0.6,2.6-1.4,3.9-2.4c1.2-0.9,2.5-2.1,3.7-3.3v-12c-5,0-9.3,0.3-12.6,1c-3.4,0.6-6.1,1.4-8.2,2.4c-2.1,1-3.5,2.1-4.4,3.5
		c-0.9,1.3-1.3,2.7-1.3,4.3c0,3.1,0.9,5.2,2.7,6.6C595.8,182.2,598.2,182.8,601.1,182.8z"/>
	<path class="st3" d="M672.7,100.9c0,1.5-0.3,2.9-0.9,4.2c-0.6,1.3-1.4,2.5-2.4,3.4c-1,1-2.2,1.8-3.5,2.3c-1.4,0.6-2.8,0.9-4.3,0.9
		s-2.9-0.3-4.2-0.9s-2.5-1.4-3.5-2.3c-1-1-1.8-2.1-2.3-3.4c-0.6-1.3-0.9-2.7-0.9-4.2s0.3-3,0.9-4.3c0.6-1.4,1.4-2.5,2.3-3.5
		c1-1,2.1-1.8,3.5-2.3c1.3-0.6,2.7-0.9,4.2-0.9s3,0.3,4.3,0.9c1.4,0.6,2.5,1.4,3.5,2.3c1,1,1.8,2.1,2.4,3.5
		C672.4,97.9,672.7,99.3,672.7,100.9z M670.1,121.8v71.8h-17.3v-71.8H670.1z"/>
	<path class="st3" d="M689.6,193.6v-71.8h10.1c1.8,0,3,0.3,3.7,1s1.2,1.8,1.4,3.4l1,8.7c2.6-4.4,5.6-7.9,9-10.5
		c3.5-2.6,7.3-3.9,11.6-3.9c3.5,0,6.5,0.8,8.8,2.5l-2.2,13c-0.1,0.8-0.4,1.4-0.9,1.8c-0.5,0.3-1.1,0.5-1.9,0.5
		c-0.7,0-1.7-0.2-2.9-0.5s-2.8-0.5-4.8-0.5c-3.6,0-6.7,1-9.2,3c-2.6,2-4.7,4.9-6.5,8.7v44.7L689.6,193.6L689.6,193.6z"/>
	<path class="st3" d="M776.5,120.7c4.5,0,8.7,0.7,12.5,2.2c3.8,1.4,7.1,3.6,9.8,6.3c2.8,2.8,4.9,6.2,6.4,10.2s2.3,8.6,2.3,13.8
		c0,1.3-0.1,2.4-0.2,3.3c-0.1,0.9-0.3,1.5-0.6,2s-0.7,0.8-1.2,1.1s-1.2,0.3-2,0.3h-44.4c0.5,7.4,2.5,12.8,6,16.2
		c3.5,3.5,8,5.2,13.7,5.2c2.8,0,5.2-0.3,7.2-1s3.8-1.4,5.3-2.2s2.8-1.5,4-2.2c1.1-0.7,2.2-1,3.3-1c0.7,0,1.3,0.1,1.8,0.4
		c0.5,0.3,1,0.7,1.3,1.2l5,6.3c-1.9,2.2-4.1,4.1-6.4,5.6c-2.4,1.5-4.9,2.7-7.5,3.6c-2.6,0.9-5.2,1.6-7.9,1.9
		c-2.7,0.4-5.3,0.6-7.8,0.6c-5,0-9.6-0.8-13.9-2.5c-4.3-1.7-8-4.1-11.2-7.4c-3.2-3.2-5.7-7.3-7.5-12c-1.8-4.8-2.7-10.3-2.7-16.6
		c0-4.9,0.8-9.5,2.4-13.8c1.6-4.3,3.9-8.1,6.8-11.3c3-3.2,6.6-5.7,10.8-7.6C766.3,121.6,771.1,120.7,776.5,120.7z M776.8,133.1
		c-5,0-9,1.4-11.8,4.3c-2.8,2.8-4.7,6.9-5.5,12.1H792c0-2.2-0.3-4.4-0.9-6.3c-0.6-2-1.5-3.7-2.8-5.2s-2.8-2.7-4.8-3.5
		C781.7,133.5,779.4,133.1,776.8,133.1z"/>
</g>
<path class="st2" d="M218,213.3c0-3.5-2.9-6.4-6.4-6.4s-6.4,2.9-6.4,6.4s2.9,6.4,6.4,6.4S218,216.8,218,213.3z M243.4,213.3
	c0-3.5-2.9-6.4-6.4-6.4s-6.4,2.9-6.4,6.4s2.9,6.4,6.4,6.4S243.4,216.8,243.4,213.3z M256.2,191v31.8c0,5.3-4.3,9.5-9.6,9.5H100.2
	c-5.3,0-9.6-4.3-9.6-9.5V191c0-5.3,4.3-9.6,9.6-9.6h46.3l13.4,13.5c3.7,3.6,8.5,5.6,13.5,5.6s9.8-2,13.5-5.6l13.5-13.5h46.2
	C251.9,181.5,256.2,185.7,256.2,191z M223.8,134.4c1,2.4,0.5,5.2-1.4,7L177.8,186c-1.2,1.3-2.9,1.9-4.5,1.9s-3.3-0.6-4.5-1.9
	l-44.6-44.6c-1.9-1.8-2.4-4.6-1.4-7c1-2.3,3.3-3.9,5.9-3.9h25.5V86c0-3.5,2.9-6.4,6.4-6.4h25.5c3.5,0,6.4,2.9,6.4,6.4v44.6H218
	C220.6,130.5,222.8,132.1,223.8,134.4z"/>
<path class="st4" d="M208,203.3c0-3.5-2.9-6.4-6.4-6.4s-6.4,2.9-6.4,6.4s2.9,6.4,6.4,6.4S208,206.8,208,203.3z M233.4,203.3
	c0-3.5-2.9-6.4-6.4-6.4s-6.4,2.9-6.4,6.4s2.9,6.4,6.4,6.4S233.4,206.8,233.4,203.3z M246.2,181v31.8c0,5.3-4.3,9.5-9.6,9.5H90.2
	c-5.3,0-9.6-4.3-9.6-9.5V181c0-5.3,4.3-9.6,9.6-9.6h46.3l13.4,13.5c3.7,3.6,8.5,5.6,13.5,5.6s9.8-2,13.5-5.6l13.5-13.5h46.2
	C241.9,171.5,246.2,175.7,246.2,181z M213.8,124.4c1,2.4,0.5,5.2-1.4,7L167.8,176c-1.2,1.3-2.9,1.9-4.5,1.9s-3.3-0.6-4.5-1.9
	l-44.6-44.6c-1.9-1.8-2.4-4.6-1.4-7c1-2.3,3.3-3.9,5.9-3.9h25.5V76c0-3.5,2.9-6.4,6.4-6.4h25.5c3.5,0,6.4,2.9,6.4,6.4v44.6H208
	C210.6,120.5,212.8,122.1,213.8,124.4z"/>
<path class="st2" d="M965,134.6c0,1.4-0.6,2.7-1.6,3.7l-36.8,36.8c-1,1-2.3,1.6-3.7,1.6s-2.7-0.6-3.7-1.6l-36.8-36.8
	c-1-1-1.6-2.3-1.6-3.7c0-2.9,2.4-5.3,5.2-5.3h73.5C962.6,129.4,965,131.8,965,134.6z"/>
<path class="st3" d="M955,124.6c0,1.4-0.6,2.7-1.6,3.7l-36.8,36.8c-1,1-2.3,1.6-3.7,1.6s-2.7-0.6-3.7-1.6l-36.8-36.8
	c-1-1-1.6-2.3-1.6-3.7c0-2.9,2.4-5.3,5.2-5.3h73.5C952.6,119.4,955,121.8,955,124.6z"/>
</svg>
