<?xml version="1.0" encoding="utf-8"?>
<!-- Generator: Adobe Illustrator 21.1.0, SVG Export Plug-In . SVG Version: 6.00 Build 0)  -->
<svg version="1.1" id="Calque_1" xmlns="http://www.w3.org/2000/svg" xmlns:xlink="http://www.w3.org/1999/xlink" x="0px" y="0px"
	 viewBox="0 0 2048 2048" style="enable-background:new 0 0 2048 2048;" xml:space="preserve">
<style type="text/css">
	.st0{fill:url(#SVGID_1_);}
	.st1{fill:#DCDCDC;}
	.st2{fill:#333333;}
	.st3{fill:#333333;stroke:#333333;}
</style>
<g>
	
		<linearGradient id="SVGID_1_" gradientUnits="userSpaceOnUse" x1="1024" y1="12.5" x2="1024" y2="2035.5" gradientTransform="matrix(1 0 0 -1 0 2048)">
		<stop  offset="0" style="stop-color:#E8E8E8"/>
		<stop  offset="1" style="stop-color:#F9F9F9"/>
	</linearGradient>
	<path class="st0" d="M50,2035.5c-20.7,0-37.5-16.8-37.5-37.5V50c0-20.7,16.8-37.5,37.5-37.5h1948c20.7,0,37.5,16.8,37.5,37.5v1948
		c0,20.7-16.8,37.5-37.5,37.5H50z"/>
	<path class="st1" d="M1998,25c13.8,0,25,11.2,25,25v1948c0,13.8-11.2,25-25,25H50c-13.8,0-25-11.2-25-25V50c0-13.8,11.2-25,25-25
		H1998 M1998,0H50C22.5,0,0,22.5,0,50v1948c0,27.5,22.5,50,50,50h1948c27.5,0,50-22.5,50-50V50C2048,22.5,2025.5,0,1998,0L1998,0z"
		/>
</g>
<path class="st2" d="M1265.2,595.7l205.1-205.1l-74.9-74.9l-205.1,205.1L1265.2,595.7z M1578.1,390.6c0,12.6-4.2,23.1-12.6,31.5
	l-900.2,900.2c-8.4,8.4-18.9,12.6-31.5,12.6s-23.1-4.2-31.5-12.6l-138.6-138.6c-8.4-8.4-12.6-18.9-12.6-31.5
	c0-12.6,4.2-23.1,12.6-31.5l900.2-900.2c8.4-8.4,18.9-12.6,31.5-12.6s23.1,4.2,31.5,12.6l138.6,138.6
	C1573.8,367.5,1578.1,378,1578.1,390.6z M632.3,257.6l68.6,21l-68.6,21l-21,68.6l-21-68.6l-68.6-21l68.6-21l21-68.6L632.3,257.6z
	 M877.3,371l137.2,42l-137.2,42l-42,137.2l-42-137.2l-137.2-42l137.2-42l42-137.2L877.3,371z M1528.3,705.6l68.6,21l-68.6,21
	l-21,68.6l-21-68.6l-68.6-21l68.6-21l21-68.6L1528.3,705.6z M1080.3,257.6l68.6,21l-68.6,21l-21,68.6l-21-68.6l-68.6-21l68.6-21
	l21-68.6L1080.3,257.6z"/>
<g>
	<path class="st3" d="M867.9,1718.2c0,13.8-2.3,26.5-6.9,38.3c-4.6,11.7-11,21.9-19.4,30.5c-8.3,8.6-18.3,15.3-30,20.1
		c-11.7,4.8-24.7,7.2-38.9,7.2c-14.2,0-27.2-2.4-38.9-7.2c-11.7-4.8-21.8-11.5-30.2-20.1c-8.4-8.6-14.8-18.7-19.4-30.5
		c-4.6-11.7-6.9-24.5-6.9-38.3s2.3-26.5,6.9-38.3c4.6-11.7,11.1-21.9,19.4-30.5c8.4-8.6,18.4-15.3,30.2-20.1
		c11.7-4.8,24.7-7.2,38.9-7.2c14.2,0,27.2,2.4,38.9,7.3c11.7,4.9,21.7,11.5,30,20.1c8.3,8.5,14.8,18.7,19.4,30.4
		C865.6,1691.7,867.9,1704.4,867.9,1718.2z M832,1718.2c0-10.3-1.4-19.6-4.1-27.8c-2.7-8.2-6.7-15.1-11.8-20.9
		c-5.1-5.7-11.3-10.1-18.7-13.1c-7.3-3-15.6-4.5-24.8-4.5c-9.2,0-17.5,1.5-24.8,4.5c-7.4,3-13.6,7.4-18.8,13.1
		c-5.2,5.7-9.1,12.7-11.9,20.9c-2.8,8.2-4.2,17.4-4.2,27.8c0,10.3,1.4,19.6,4.2,27.8c2.8,8.2,6.7,15.1,11.9,20.8
		c5.2,5.7,11.4,10,18.8,13.1c7.4,3,15.6,4.5,24.8,4.5c9.2,0,17.4-1.5,24.8-4.5c7.3-3,13.5-7.4,18.7-13.1c5.1-5.7,9-12.6,11.8-20.8
		C830.6,1737.8,832,1728.5,832,1718.2z"/>
	<path class="st3" d="M923,1678.8v84.8c0,8.1,1.9,14.5,5.7,18.9c3.8,4.5,9.4,6.7,17,6.7c5.5,0,10.7-1.2,15.6-3.7
		c4.9-2.5,9.4-5.9,13.8-10.2v-96.5h32.1v133.4h-19.6c-4.2,0-6.9-2-8.2-5.9l-2.2-10.7c-2.8,2.8-5.6,5.3-8.6,7.6
		c-2.9,2.3-6.1,4.2-9.4,5.8c-3.3,1.6-6.9,2.9-10.8,3.8c-3.9,0.9-8,1.4-12.4,1.4c-7.3,0-13.7-1.2-19.3-3.7c-5.6-2.5-10.3-6-14.1-10.5
		c-3.8-4.5-6.7-9.9-8.6-16.1c-2-6.2-2.9-13-2.9-20.5v-84.8H923z"/>
	<path class="st3" d="M1085.2,1814.3c-11.5,0-20.4-3.3-26.7-9.8c-6.2-6.5-9.4-15.6-9.4-27.1v-74.5h-13.5c-1.7,0-3.2-0.6-4.5-1.7
		c-1.3-1.1-1.9-2.8-1.9-5.1v-12.7l21.5-3.5l6.8-36.4c0.3-1.7,1.1-3.1,2.4-4c1.3-1,2.8-1.4,4.7-1.4h16.6v42h35.1v22.9h-35.1v72.3
		c0,4.2,1,7.4,3.1,9.8c2.1,2.3,4.9,3.5,8.3,3.5c2,0,3.7-0.2,5-0.7c1.3-0.5,2.5-1,3.5-1.5c1-0.5,1.9-1,2.7-1.5
		c0.8-0.5,1.6-0.7,2.3-0.7c1,0,1.7,0.2,2.3,0.7c0.6,0.5,1.3,1.2,1.9,2.1l9.6,15.6c-4.7,3.9-10.1,6.8-16.1,8.8
		C1098,1813.3,1091.7,1814.3,1085.2,1814.3z"/>
	<path class="st3" d="M1181,1639.9c0,2.8-0.6,5.4-1.7,7.8c-1.1,2.4-2.6,4.5-4.5,6.4c-1.9,1.8-4.1,3.3-6.6,4.4
		c-2.5,1.1-5.2,1.6-8.1,1.6c-2.8,0-5.4-0.5-7.9-1.6c-2.5-1.1-4.6-2.5-6.4-4.4s-3.3-3.9-4.4-6.4c-1.1-2.4-1.6-5-1.6-7.8
		c0-2.9,0.5-5.5,1.6-8.1c1.1-2.5,2.5-4.7,4.4-6.5c1.8-1.8,4-3.3,6.4-4.4c2.5-1.1,5.1-1.6,7.9-1.6c2.9,0,5.5,0.5,8.1,1.6
		c2.5,1.1,4.7,2.5,6.6,4.4c1.9,1.8,3.4,4,4.5,6.5C1180.5,1634.4,1181,1637.1,1181,1639.9z M1176.2,1678.8v133.4h-32.1v-133.4H1176.2
		z"/>
	<path class="st3" d="M1246.7,1619v193.2h-32.1V1619H1246.7z"/>
	<path class="st3" d="M1362.1,1704.8c-0.9,1.4-1.8,2.4-2.7,2.9c-1,0.6-2.2,0.8-3.6,0.8c-1.6,0-3.2-0.4-5-1.3
		c-1.8-0.9-3.8-1.8-6.2-2.9c-2.3-1.1-5-2.1-8-2.9c-3-0.9-6.5-1.3-10.6-1.3c-6.3,0-11.3,1.3-14.9,4c-3.6,2.7-5.5,6.2-5.5,10.5
		c0,2.9,0.9,5.3,2.8,7.2c1.9,2,4.3,3.7,7.4,5.1c3.1,1.5,6.6,2.8,10.5,4s7.9,2.5,12,3.8c4.1,1.4,8.1,3,12,4.7c3.9,1.8,7.4,4,10.5,6.8
		c3.1,2.7,5.5,6,7.4,9.8c1.9,3.8,2.8,8.4,2.8,13.8c0,6.4-1.2,12.3-3.5,17.7c-2.3,5.4-5.8,10.1-10.3,14c-4.5,3.9-10.1,7-16.7,9.2
		c-6.6,2.2-14.2,3.3-22.8,3.3c-4.6,0-9.1-0.4-13.5-1.2c-4.4-0.8-8.6-2-12.6-3.4c-4-1.5-7.8-3.2-11.2-5.2c-3.4-2-6.4-4.2-9-6.5
		l7.4-12.2c1-1.5,2.1-2.6,3.4-3.4c1.3-0.8,2.9-1.2,4.9-1.2c2,0,3.9,0.6,5.7,1.7c1.8,1.1,3.8,2.3,6.2,3.6s5.1,2.5,8.3,3.6
		c3.2,1.1,7.2,1.7,12,1.7c3.8,0,7.1-0.5,9.8-1.4c2.7-0.9,5-2.1,6.8-3.6c1.8-1.5,3.1-3.2,3.9-5.1c0.8-2,1.2-4,1.2-6
		c0-3.1-0.9-5.7-2.8-7.7c-1.9-2-4.3-3.7-7.4-5.2c-3.1-1.5-6.6-2.8-10.5-4c-3.9-1.2-8-2.4-12.1-3.8c-4.1-1.4-8.1-3-12.1-4.9
		c-3.9-1.9-7.5-4.2-10.5-7.1c-3.1-2.9-5.5-6.4-7.4-10.5c-1.9-4.2-2.8-9.2-2.8-15.1c0-5.5,1.1-10.7,3.2-15.6
		c2.2-4.9,5.4-9.2,9.6-12.9c4.2-3.7,9.4-6.6,15.7-8.8c6.3-2.2,13.5-3.3,21.8-3.3c9.2,0,17.5,1.5,25.1,4.5c7.5,3,13.8,7,18.8,12
		L1362.1,1704.8z"/>
</g>
</svg>
