<?xml version="1.0" encoding="utf-8"?>
<!-- Generator: Adobe Illustrator 23.0.2, SVG Export Plug-In . SVG Version: 6.00 Build 0)  -->
<svg version="1.1" id="Calque_1" xmlns="http://www.w3.org/2000/svg" xmlns:xlink="http://www.w3.org/1999/xlink" x="0px" y="0px"
	 viewBox="0 0 4096 2048" style="enable-background:new 0 0 4096 2048;" xml:space="preserve">
<style type="text/css">
	.st0{fill:url(#SVGID_1_);}
	.st1{fill:#DCDCDC;}
	.st2{fill:#333333;}
</style>
<g>
	
		<linearGradient id="SVGID_1_" gradientUnits="userSpaceOnUse" x1="2048" y1="1560.5" x2="2048" y2="3583.5" gradientTransform="matrix(1 0 0 -1 0 3596)">
		<stop  offset="0" style="stop-color:#E8E8E8"/>
		<stop  offset="1" style="stop-color:#F9F9F9"/>
	</linearGradient>
	<path class="st0" d="M50,2035.5c-20.7,0-37.5-16.8-37.5-37.5V50c0-20.7,16.8-37.5,37.5-37.5h3996c20.7,0,37.5,16.8,37.5,37.5v1948
		c0,20.7-16.8,37.5-37.5,37.5H50z"/>
	<path class="st1" d="M4046,25c13.8,0,25,11.2,25,25v1948c0,13.8-11.2,25-25,25H50c-13.8,0-25-11.2-25-25V50c0-13.8,11.2-25,25-25
		H4046 M4046,0H50C22.5,0,0,22.5,0,50v1948c0,27.5,22.5,50,50,50h3996c27.5,0,50-22.5,50-50V50C4096,22.5,4073.5,0,4046,0L4046,0z"
		/>
</g>
<g>
	<path class="st2" d="M577.1,1738.7v73.5h-35v-188h57.3c12.8,0,23.8,1.3,33,4c9.1,2.6,16.6,6.3,22.5,11.1
		c5.9,4.8,10.1,10.5,12.9,17.1c2.7,6.6,4.1,13.9,4.1,21.9c0,6.3-0.9,12.3-2.8,17.9c-1.9,5.6-4.5,10.7-8.1,15.3
		c-3.5,4.6-7.8,8.6-13,12.1s-11,6.2-17.6,8.3c4.4,2.5,8.2,6.1,11.4,10.8l47.1,69.4h-31.5c-3,0-5.6-0.6-7.7-1.8
		c-2.1-1.2-3.9-2.9-5.4-5.2l-39.5-60.2c-1.5-2.3-3.1-3.9-4.9-4.8c-1.8-1-4.4-1.4-7.9-1.4L577.1,1738.7L577.1,1738.7z M577.1,1713.7
		H599c6.6,0,12.3-0.8,17.2-2.5c4.9-1.6,8.9-3.9,12.1-6.8c3.2-2.9,5.5-6.3,7.1-10.3s2.3-8.4,2.3-13.1c0-9.5-3.1-16.9-9.4-22
		c-6.3-5.1-15.9-7.7-28.8-7.7h-22.4L577.1,1713.7L577.1,1713.7z"/>
	<path class="st2" d="M764.6,1676.7c8.4,0,16.1,1.3,23.2,4c7.1,2.7,13.2,6.6,18.3,11.8c5.1,5.2,9.1,11.5,12,19s4.3,16.1,4.3,25.7
		c0,2.4-0.1,4.4-0.3,6s-0.6,2.9-1.2,3.8c-0.6,0.9-1.3,1.6-2.3,2s-2.2,0.6-3.6,0.6h-82.4c1,13.7,4.6,23.7,11,30.2
		c6.4,6.4,14.9,9.6,25.5,9.6c5.2,0,9.7-0.6,13.5-1.8c3.8-1.2,7.1-2.6,9.9-4c2.8-1.5,5.3-2.8,7.4-4c2.1-1.2,4.2-1.8,6.2-1.8
		c1.3,0,2.4,0.3,3.4,0.8s1.8,1.3,2.5,2.2l9.4,11.7c-3.6,4.2-7.5,7.7-12,10.5c-4.4,2.8-9,5.1-13.8,6.8c-4.8,1.7-9.7,2.9-14.7,3.6
		s-9.8,1-14.5,1c-9.3,0-17.9-1.5-25.9-4.6s-14.9-7.6-20.8-13.7c-5.9-6-10.5-13.5-13.9-22.4s-5.1-19.2-5.1-30.9
		c0-9.1,1.5-17.7,4.4-25.7s7.2-15,12.7-20.9s12.2-10.6,20.1-14.1C745.7,1678.5,754.6,1676.7,764.6,1676.7z M765.2,1699.7
		c-9.4,0-16.7,2.6-22,7.9s-8.7,12.8-10.1,22.5h60.3c0-4.2-0.6-8.1-1.7-11.8c-1.1-3.7-2.9-6.9-5.2-9.7c-2.3-2.8-5.3-5-8.8-6.6
		C774.2,1700.6,770,1699.7,765.2,1699.7z"/>
	<path class="st2" d="M894.6,1676.5c5.7,0,11.1,0.6,16.1,1.8c5,1.2,9.6,2.9,13.8,5.1h38.3v12c0,2-0.5,3.6-1.6,4.7
		c-1,1.1-2.8,1.9-5.3,2.3l-12,2.2c0.9,2.3,1.5,4.6,2,7.2c0.5,2.5,0.7,5.2,0.7,7.9c0,6.6-1.3,12.5-4,17.9c-2.6,5.3-6.3,9.9-10.9,13.6
		c-4.6,3.7-10.1,6.6-16.5,8.6s-13.3,3.1-20.7,3.1c-5,0-9.9-0.5-14.7-1.4c-4.2,2.5-6.2,5.4-6.2,8.5c0,2.7,1.2,4.7,3.7,6
		s5.7,2.2,9.8,2.7c4,0.5,8.6,0.8,13.7,0.8c5.1,0,10.4,0.2,15.7,0.7c5.4,0.4,10.6,1.2,15.7,2.3c5.1,1.1,9.7,2.8,13.7,5.2
		c4,2.3,7.3,5.5,9.8,9.6c2.5,4,3.7,9.2,3.7,15.6c0,5.9-1.5,11.7-4.4,17.2c-2.9,5.6-7.1,10.5-12.6,14.9c-5.5,4.3-12.2,7.8-20.2,10.5
		s-17.1,4-27.3,4c-10.1,0-18.9-1-26.4-2.9c-7.5-2-13.6-4.5-18.5-7.8c-4.9-3.2-8.6-7-11-11.2s-3.6-8.7-3.6-13.3
		c0-6.2,1.9-11.5,5.7-15.7s9.1-7.6,15.9-10.1c-3.3-1.8-5.9-4.2-7.9-7.3c-2-3-3-7-3-11.8c0-2,0.3-4,1-6.2c0.7-2.1,1.8-4.2,3.2-6.3
		c1.4-2.1,3.2-4.1,5.4-5.9c2.2-1.9,4.7-3.5,7.7-5c-6.8-3.6-12.1-8.5-15.9-14.6c-3.9-6.1-5.8-13.2-5.8-21.3c0-6.6,1.3-12.5,4-17.9
		c2.6-5.3,6.3-9.9,11-13.6c4.7-3.8,10.3-6.7,16.8-8.6C879.9,1677.5,887,1676.5,894.6,1676.5z M929.8,1817.8c0-2.7-0.8-4.8-2.3-6.5
		c-1.6-1.7-3.7-3-6.4-3.9s-5.8-1.6-9.4-2.1c-3.6-0.4-7.4-0.7-11.4-0.7s-8.2,0-12.5,0s-8.4-0.5-12.4-1.4c-3.6,2-6.6,4.4-8.8,7.1
		s-3.3,5.9-3.3,9.4c0,2.3,0.6,4.5,1.8,6.6c1.2,2,3,3.8,5.6,5.3s5.9,2.6,9.9,3.4c4.1,0.8,9.1,1.2,15,1.2c6,0,11.1-0.5,15.5-1.4
		c4.3-0.9,7.9-2.2,10.7-3.8c2.8-1.6,4.9-3.6,6.2-5.8C929.2,1822.9,929.8,1820.5,929.8,1817.8z M894.6,1742.3c4,0,7.5-0.5,10.4-1.6
		s5.4-2.6,7.3-4.5c2-1.9,3.4-4.2,4.4-6.9c1-2.7,1.5-5.6,1.5-8.8c0-6.6-2-11.8-5.9-15.7c-3.9-3.9-9.9-5.8-17.7-5.8
		c-7.9,0-13.8,1.9-17.7,5.8s-5.9,9.1-5.9,15.7c0,3.1,0.5,6,1.5,8.7s2.5,5,4.4,7s4.4,3.5,7.4,4.5
		C887.2,1741.7,890.7,1742.3,894.6,1742.3z"/>
	<path class="st2" d="M1022,1640c0,2.8-0.6,5.4-1.7,7.8c-1.1,2.4-2.6,4.5-4.5,6.4c-1.9,1.8-4.1,3.3-6.6,4.4s-5.2,1.6-8.1,1.6
		c-2.8,0-5.4-0.5-7.9-1.6s-4.6-2.5-6.4-4.4c-1.8-1.8-3.3-3.9-4.4-6.4c-1.1-2.4-1.6-5-1.6-7.8c0-2.9,0.5-5.5,1.6-8.1
		c1.1-2.5,2.5-4.7,4.4-6.5c1.8-1.8,4-3.3,6.4-4.4c2.5-1.1,5.1-1.6,7.9-1.6c2.9,0,5.5,0.5,8.1,1.6c2.5,1.1,4.7,2.5,6.6,4.4
		c1.9,1.8,3.4,4,4.5,6.5C1021.4,1634.4,1022,1637.1,1022,1640z M1017.2,1678.8v133.4h-32.1v-133.4H1017.2z"/>
	<path class="st2" d="M1132.6,1704.8c-0.9,1.4-1.8,2.4-2.7,2.9c-1,0.6-2.2,0.8-3.6,0.8c-1.6,0-3.2-0.4-5-1.3s-3.8-1.8-6.2-2.9
		c-2.3-1.1-5-2.1-8-2.9c-3-0.9-6.5-1.3-10.6-1.3c-6.3,0-11.3,1.3-15,4c-3.6,2.7-5.5,6.2-5.5,10.5c0,2.9,0.9,5.3,2.8,7.2
		c1.9,2,4.3,3.7,7.4,5.1c3.1,1.5,6.6,2.8,10.5,4s7.9,2.5,12,3.8c4.1,1.4,8.1,3,12,4.7c3.9,1.8,7.4,4,10.5,6.8c3.1,2.7,5.5,6,7.4,9.8
		s2.8,8.4,2.8,13.8c0,6.4-1.2,12.3-3.5,17.7c-2.3,5.4-5.8,10.1-10.3,14s-10.1,7-16.7,9.2s-14.2,3.3-22.8,3.3
		c-4.6,0-9.1-0.4-13.5-1.2c-4.4-0.8-8.6-2-12.6-3.4c-4-1.5-7.8-3.2-11.2-5.2c-3.4-2-6.4-4.2-9-6.5l7.4-12.2c1-1.5,2.1-2.6,3.4-3.4
		s2.9-1.2,4.9-1.2s3.9,0.6,5.7,1.7c1.8,1.1,3.8,2.3,6.2,3.6c2.3,1.3,5.1,2.5,8.3,3.6c3.2,1.1,7.2,1.7,12,1.7c3.8,0,7.1-0.5,9.8-1.4
		c2.7-0.9,5-2.1,6.8-3.6s3.1-3.2,3.9-5.1c0.8-2,1.2-4,1.2-6c0-3.1-0.9-5.7-2.8-7.7s-4.3-3.7-7.4-5.2s-6.6-2.8-10.5-4
		s-8-2.4-12.1-3.8s-8.1-3-12.1-4.9c-3.9-1.9-7.5-4.2-10.5-7.1c-3.1-2.9-5.5-6.4-7.4-10.5c-1.9-4.2-2.8-9.2-2.8-15.1
		c0-5.5,1.1-10.7,3.2-15.6c2.2-4.9,5.3-9.2,9.6-12.9c4.2-3.7,9.4-6.6,15.7-8.8c6.3-2.2,13.5-3.3,21.8-3.3c9.2,0,17.5,1.5,25.1,4.5
		c7.5,3,13.8,7,18.9,12L1132.6,1704.8z"/>
	<path class="st2" d="M1210.9,1814.3c-11.5,0-20.4-3.3-26.6-9.8s-9.4-15.6-9.4-27.1v-74.5h-13.5c-1.7,0-3.2-0.6-4.5-1.7
		s-1.9-2.8-1.9-5.1v-12.7l21.4-3.5l6.8-36.4c0.3-1.7,1.1-3.1,2.4-4c1.3-1,2.8-1.4,4.7-1.4h16.6v42h35.1v22.9h-35v72.3
		c0,4.2,1,7.4,3.1,9.8c2.1,2.3,4.9,3.5,8.3,3.5c2,0,3.7-0.2,5-0.7s2.5-1,3.5-1.5s1.9-1,2.7-1.5c0.8-0.5,1.6-0.7,2.3-0.7
		c1,0,1.7,0.2,2.3,0.7c0.6,0.5,1.3,1.2,2,2.1l9.6,15.6c-4.7,3.9-10.1,6.8-16.1,8.8C1223.7,1813.3,1217.4,1814.3,1210.9,1814.3z"/>
	<path class="st2" d="M1267.7,1812.2v-133.4h18.8c3.3,0,5.6,0.6,6.9,1.8c1.3,1.2,2.2,3.3,2.6,6.2l2,16.1
		c4.8-8.2,10.4-14.7,16.8-19.5s13.6-7.2,21.6-7.2c6.6,0,12,1.5,16.4,4.6l-4.2,24c-0.3,1.6-0.8,2.7-1.7,3.3c-0.9,0.7-2,1-3.5,1
		c-1.3,0-3.1-0.3-5.3-0.9c-2.3-0.6-5.2-0.9-9-0.9c-6.7,0-12.4,1.8-17.2,5.5c-4.8,3.7-8.8,9.1-12.1,16.2v83.1h-32.1V1812.2z"/>
	<path class="st2" d="M1429,1676.7c8.4,0,16.1,1.3,23.2,4s13.2,6.6,18.3,11.8c5.1,5.2,9.1,11.5,12,19s4.3,16.1,4.3,25.7
		c0,2.4-0.1,4.4-0.3,6c-0.2,1.6-0.6,2.9-1.2,3.8s-1.3,1.6-2.3,2s-2.2,0.6-3.6,0.6H1397c1,13.7,4.6,23.7,11,30.2
		c6.4,6.4,14.9,9.6,25.5,9.6c5.2,0,9.7-0.6,13.5-1.8c3.8-1.2,7.1-2.6,9.9-4c2.8-1.5,5.3-2.8,7.4-4s4.2-1.8,6.2-1.8
		c1.3,0,2.4,0.3,3.4,0.8s1.8,1.3,2.5,2.2l9.4,11.7c-3.6,4.2-7.5,7.7-12,10.5c-4.4,2.8-9,5.1-13.8,6.8c-4.8,1.7-9.7,2.9-14.7,3.6
		s-9.8,1-14.5,1c-9.3,0-17.9-1.5-25.9-4.6s-14.9-7.6-20.8-13.7c-5.9-6-10.5-13.5-13.9-22.4s-5.1-19.2-5.1-30.9
		c0-9.1,1.5-17.7,4.4-25.7s7.2-15,12.7-20.9s12.2-10.6,20.1-14.1C1410.1,1678.5,1419,1676.7,1429,1676.7z M1429.7,1699.7
		c-9.4,0-16.7,2.6-22,7.9s-8.7,12.8-10.1,22.5h60.3c0-4.2-0.6-8.1-1.7-11.8c-1.1-3.7-2.9-6.9-5.2-9.7c-2.3-2.8-5.3-5-8.8-6.6
		C1438.6,1700.6,1434.4,1699.7,1429.7,1699.7z"/>
	<path class="st2" d="M1656.9,1812.2c-4.2,0-6.9-2-8.2-5.9l-2.6-12.9c-2.8,3.1-5.7,5.9-8.7,8.5c-3,2.5-6.3,4.7-9.8,6.5
		s-7.3,3.2-11.3,4.2s-8.4,1.5-13.1,1.5c-7.3,0-14-1.5-20-4.6c-6.1-3-11.3-7.4-15.7-13.2c-4.4-5.8-7.8-12.9-10.1-21.4
		c-2.4-8.5-3.6-18.2-3.6-29.1c0-9.9,1.3-19.1,4-27.6s6.5-15.9,11.6-22.1c5-6.2,11-11.1,18.1-14.6c7-3.5,14.9-5.3,23.7-5.3
		c7.5,0,13.8,1.2,19.1,3.6c5.3,2.4,10,5.6,14.2,9.6V1619h32.1v193.2H1656.9z M1614.1,1788.7c6.7,0,12.3-1.4,17-4.2
		c4.7-2.8,9.1-6.7,13.3-11.8v-59.8c-3.6-4.4-7.6-7.5-11.9-9.4c-4.3-1.8-8.9-2.7-13.8-2.7s-9.3,0.9-13.2,2.7c-3.9,1.8-7.3,4.6-10,8.3
		c-2.7,3.7-4.8,8.4-6.3,14c-1.5,5.7-2.2,12.4-2.2,20.1c0,7.8,0.6,14.4,1.9,19.8s3.1,9.8,5.4,13.3c2.3,3.4,5.2,5.9,8.6,7.4
		C1606.2,1787.9,1610,1788.7,1614.1,1788.7z"/>
	<path class="st2" d="M1766.4,1676.7c8.4,0,16.1,1.3,23.2,4s13.2,6.6,18.3,11.8c5.1,5.2,9.1,11.5,12,19s4.3,16.1,4.3,25.7
		c0,2.4-0.1,4.4-0.3,6c-0.2,1.6-0.6,2.9-1.2,3.8s-1.3,1.6-2.3,2s-2.2,0.6-3.6,0.6h-82.4c1,13.7,4.6,23.7,11,30.2
		c6.4,6.4,14.9,9.6,25.5,9.6c5.2,0,9.7-0.6,13.5-1.8c3.8-1.2,7.1-2.6,9.9-4c2.8-1.5,5.3-2.8,7.4-4s4.2-1.8,6.2-1.8
		c1.3,0,2.4,0.3,3.4,0.8s1.8,1.3,2.5,2.2l9.4,11.7c-3.6,4.2-7.5,7.7-12,10.5c-4.4,2.8-9,5.1-13.8,6.8c-4.8,1.7-9.7,2.9-14.7,3.6
		s-9.8,1-14.5,1c-9.3,0-17.9-1.5-25.9-4.6s-14.9-7.6-20.8-13.7c-5.9-6-10.5-13.5-13.9-22.4s-5.1-19.2-5.1-30.9
		c0-9.1,1.5-17.7,4.4-25.7s7.2-15,12.7-20.9s12.2-10.6,20.1-14.1C1747.4,1678.5,1756.4,1676.7,1766.4,1676.7z M1767,1699.7
		c-9.4,0-16.7,2.6-22,7.9s-8.7,12.8-10.1,22.5h60.3c0-4.2-0.6-8.1-1.7-11.8c-1.1-3.7-2.9-6.9-5.2-9.7c-2.3-2.8-5.3-5-8.8-6.6
		C1775.9,1700.6,1771.8,1699.7,1767,1699.7z"/>
	<path class="st2" d="M1929.4,1704.8c-0.9,1.4-1.8,2.4-2.7,2.9c-1,0.6-2.2,0.8-3.6,0.8c-1.6,0-3.2-0.4-5-1.3s-3.8-1.8-6.2-2.9
		c-2.3-1.1-5-2.1-8-2.9c-3-0.9-6.5-1.3-10.6-1.3c-6.3,0-11.3,1.3-15,4c-3.6,2.7-5.5,6.2-5.5,10.5c0,2.9,0.9,5.3,2.8,7.2
		c1.9,2,4.3,3.7,7.4,5.1c3.1,1.5,6.6,2.8,10.5,4s7.9,2.5,12,3.8c4.1,1.4,8.1,3,12,4.7c3.9,1.8,7.4,4,10.5,6.8c3.1,2.7,5.5,6,7.4,9.8
		s2.8,8.4,2.8,13.8c0,6.4-1.2,12.3-3.5,17.7c-2.3,5.4-5.8,10.1-10.3,14s-10.1,7-16.7,9.2s-14.2,3.3-22.8,3.3
		c-4.6,0-9.1-0.4-13.5-1.2c-4.4-0.8-8.6-2-12.6-3.4c-4-1.5-7.8-3.2-11.2-5.2c-3.4-2-6.4-4.2-9-6.5l7.4-12.2c1-1.5,2.1-2.6,3.4-3.4
		s2.9-1.2,4.9-1.2s3.9,0.6,5.7,1.7c1.8,1.1,3.8,2.3,6.2,3.6c2.3,1.3,5.1,2.5,8.3,3.6c3.2,1.1,7.2,1.7,12,1.7c3.8,0,7.1-0.5,9.8-1.4
		c2.7-0.9,5-2.1,6.8-3.6s3.1-3.2,3.9-5.1c0.8-2,1.2-4,1.2-6c0-3.1-0.9-5.7-2.8-7.7s-4.3-3.7-7.4-5.2s-6.6-2.8-10.5-4
		s-8-2.4-12.1-3.8s-8.1-3-12.1-4.9c-3.9-1.9-7.5-4.2-10.5-7.1c-3.1-2.9-5.5-6.4-7.4-10.5c-1.9-4.2-2.8-9.2-2.8-15.1
		c0-5.5,1.1-10.7,3.2-15.6c2.2-4.9,5.3-9.2,9.6-12.9c4.2-3.7,9.4-6.6,15.7-8.8c6.3-2.2,13.5-3.3,21.8-3.3c9.2,0,17.5,1.5,25.1,4.5
		c7.5,3,13.8,7,18.9,12L1929.4,1704.8z"/>
	<path class="st2" d="M2053,1640c0,2.8-0.6,5.4-1.7,7.8c-1.1,2.4-2.6,4.5-4.5,6.4c-1.9,1.8-4.1,3.3-6.6,4.4s-5.2,1.6-8.1,1.6
		c-2.8,0-5.4-0.5-7.9-1.6s-4.6-2.5-6.4-4.4c-1.8-1.8-3.3-3.9-4.4-6.4c-1.1-2.4-1.6-5-1.6-7.8c0-2.9,0.5-5.5,1.6-8.1
		c1.1-2.5,2.5-4.7,4.4-6.5c1.8-1.8,4-3.3,6.4-4.4c2.5-1.1,5.1-1.6,7.9-1.6c2.9,0,5.5,0.5,8.1,1.6c2.5,1.1,4.7,2.5,6.6,4.4
		c1.9,1.8,3.4,4,4.5,6.5C2052.4,1634.4,2053,1637.1,2053,1640z M2048.2,1678.8v133.4h-32.1v-133.4H2048.2z"/>
	<path class="st2" d="M2084.5,1812.2v-133.4h19.6c4.2,0,6.9,1.9,8.2,5.8l2.2,10.5c2.7-2.8,5.5-5.3,8.5-7.5c3-2.3,6.2-4.2,9.5-5.9
		c3.3-1.6,6.9-2.9,10.7-3.8s8-1.3,12.5-1.3c7.3,0,13.7,1.2,19.4,3.7c5.6,2.5,10.3,5.9,14.1,10.4s6.6,9.8,8.6,16s2.9,13,2.9,20.5
		v84.9h-32.1v-84.9c0-8.1-1.9-14.5-5.7-18.9c-3.8-4.5-9.4-6.7-17-6.7c-5.5,0-10.7,1.3-15.6,3.8c-4.9,2.5-9.4,5.9-13.8,10.3v96.5
		H2084.5z"/>
	<path class="st2" d="M2276.1,1814.3c-11.5,0-20.4-3.3-26.6-9.8c-6.2-6.5-9.4-15.6-9.4-27.1v-74.5h-13.5c-1.7,0-3.2-0.6-4.5-1.7
		s-1.9-2.8-1.9-5.1v-12.7l21.4-3.5l6.8-36.4c0.3-1.7,1.1-3.1,2.4-4c1.3-1,2.8-1.4,4.7-1.4h16.6v42h35.1v22.9h-35.1v72.3
		c0,4.2,1,7.4,3.1,9.8c2.1,2.3,4.9,3.5,8.3,3.5c2,0,3.7-0.2,5-0.7s2.5-1,3.5-1.5s1.9-1,2.7-1.5s1.6-0.7,2.3-0.7c1,0,1.7,0.2,2.3,0.7
		s1.3,1.2,2,2.1l9.6,15.6c-4.7,3.9-10.1,6.8-16.1,8.8C2288.9,1813.3,2282.6,1814.3,2276.1,1814.3z"/>
	<path class="st2" d="M2388,1676.7c8.4,0,16.1,1.3,23.2,4c7.1,2.7,13.2,6.6,18.3,11.8c5.1,5.2,9.1,11.5,12,19s4.3,16.1,4.3,25.7
		c0,2.4-0.1,4.4-0.3,6s-0.6,2.9-1.2,3.8c-0.6,0.9-1.3,1.6-2.3,2s-2.2,0.6-3.6,0.6H2356c1,13.7,4.6,23.7,11,30.2
		c6.4,6.4,14.9,9.6,25.5,9.6c5.2,0,9.7-0.6,13.5-1.8c3.8-1.2,7.1-2.6,9.9-4c2.8-1.5,5.3-2.8,7.4-4c2.1-1.2,4.2-1.8,6.2-1.8
		c1.3,0,2.4,0.3,3.4,0.8s1.8,1.3,2.5,2.2l9.4,11.7c-3.6,4.2-7.5,7.7-12,10.5c-4.4,2.8-9,5.1-13.8,6.8c-4.8,1.7-9.7,2.9-14.7,3.6
		s-9.8,1-14.5,1c-9.3,0-17.9-1.5-25.9-4.6s-14.9-7.6-20.8-13.7c-5.9-6-10.5-13.5-13.9-22.4s-5.1-19.2-5.1-30.9
		c0-9.1,1.5-17.7,4.4-25.7s7.2-15,12.7-20.9s12.2-10.6,20.1-14.1C2369.1,1678.5,2378,1676.7,2388,1676.7z M2388.7,1699.7
		c-9.4,0-16.7,2.6-22,7.9s-8.7,12.8-10.1,22.5h60.3c0-4.2-0.6-8.1-1.7-11.8c-1.1-3.7-2.9-6.9-5.2-9.7c-2.3-2.8-5.3-5-8.8-6.6
		C2397.6,1700.6,2393.4,1699.7,2388.7,1699.7z"/>
	<path class="st2" d="M2471.9,1812.2v-133.4h18.8c3.3,0,5.6,0.6,6.9,1.8c1.3,1.2,2.2,3.3,2.6,6.2l2,16.1
		c4.8-8.2,10.4-14.7,16.8-19.5c6.4-4.8,13.6-7.2,21.6-7.2c6.6,0,12,1.5,16.4,4.6l-4.2,24c-0.3,1.6-0.8,2.7-1.7,3.3
		c-0.9,0.7-2,1-3.5,1c-1.3,0-3.1-0.3-5.3-0.9c-2.3-0.6-5.2-0.9-9-0.9c-6.7,0-12.4,1.8-17.2,5.5s-8.8,9.1-12.1,16.2v83.1h-32.1
		V1812.2z"/>
	<path class="st2" d="M2644.9,1812.2h-29.1l-53-133.4h26.6c2.3,0,4.3,0.6,5.9,1.7c1.6,1.1,2.7,2.6,3.3,4.3l25.7,71.2
		c1.5,4.2,2.7,8.2,3.7,12.2s1.9,8,2.7,12c0.8-4,1.7-8,2.7-12s2.3-8.1,3.8-12.2l26.4-71.2c0.6-1.7,1.7-3.2,3.2-4.3
		c1.6-1.1,3.4-1.7,5.6-1.7h25.3L2644.9,1812.2z"/>
	<path class="st2" d="M2767.6,1676.7c8.4,0,16.1,1.3,23.2,4c7.1,2.7,13.2,6.6,18.3,11.8c5.1,5.2,9.1,11.5,12,19s4.3,16.1,4.3,25.7
		c0,2.4-0.1,4.4-0.3,6s-0.6,2.9-1.2,3.8c-0.6,0.9-1.3,1.6-2.3,2s-2.2,0.6-3.6,0.6h-82.4c1,13.7,4.6,23.7,11,30.2
		c6.4,6.4,14.9,9.6,25.5,9.6c5.2,0,9.7-0.6,13.5-1.8c3.8-1.2,7.1-2.6,9.9-4c2.8-1.5,5.3-2.8,7.4-4c2.1-1.2,4.2-1.8,6.2-1.8
		c1.3,0,2.4,0.3,3.4,0.8s1.8,1.3,2.5,2.2l9.4,11.7c-3.6,4.2-7.5,7.7-12,10.5c-4.4,2.8-9,5.1-13.8,6.8c-4.8,1.7-9.7,2.9-14.7,3.6
		s-9.8,1-14.5,1c-9.3,0-17.9-1.5-25.9-4.6s-14.9-7.6-20.8-13.7c-5.9-6-10.5-13.5-13.9-22.4s-5.1-19.2-5.1-30.9
		c0-9.1,1.5-17.7,4.4-25.7s7.2-15,12.7-20.9s12.2-10.6,20.1-14.1C2748.7,1678.5,2757.6,1676.7,2767.6,1676.7z M2768.3,1699.7
		c-9.4,0-16.7,2.6-22,7.9s-8.7,12.8-10.1,22.5h60.3c0-4.2-0.6-8.1-1.7-11.8c-1.1-3.7-2.9-6.9-5.2-9.7c-2.3-2.8-5.3-5-8.8-6.6
		C2777.2,1700.6,2773,1699.7,2768.3,1699.7z"/>
	<path class="st2" d="M2851.4,1812.2v-133.4h19.6c4.2,0,6.9,1.9,8.2,5.8l2.2,10.5c2.7-2.8,5.5-5.3,8.5-7.5c3-2.3,6.2-4.2,9.5-5.9
		c3.3-1.6,6.9-2.9,10.7-3.8s8-1.3,12.5-1.3c7.3,0,13.7,1.2,19.4,3.7c5.6,2.5,10.3,5.9,14.1,10.4s6.6,9.8,8.6,16s2.9,13,2.9,20.5
		v84.9h-32.1v-84.9c0-8.1-1.9-14.5-5.7-18.9c-3.8-4.5-9.4-6.7-17-6.7c-5.5,0-10.7,1.3-15.6,3.8c-4.9,2.5-9.4,5.9-13.8,10.3v96.5
		H2851.4z"/>
	<path class="st2" d="M3043.1,1814.3c-11.5,0-20.4-3.3-26.6-9.8c-6.2-6.5-9.4-15.6-9.4-27.1v-74.5h-13.5c-1.7,0-3.2-0.6-4.5-1.7
		s-1.9-2.8-1.9-5.1v-12.7l21.4-3.5l6.8-36.4c0.3-1.7,1.1-3.1,2.4-4c1.3-1,2.8-1.4,4.7-1.4h16.6v42h35.1v22.9h-35.1v72.3
		c0,4.2,1,7.4,3.1,9.8c2.1,2.3,4.9,3.5,8.3,3.5c2,0,3.7-0.2,5-0.7s2.5-1,3.5-1.5s1.9-1,2.7-1.5s1.6-0.7,2.3-0.7c1,0,1.7,0.2,2.3,0.7
		s1.3,1.2,2,2.1l9.6,15.6c-4.7,3.9-10.1,6.8-16.1,8.8C3055.8,1813.3,3049.6,1814.3,3043.1,1814.3z"/>
	<path class="st2" d="M3138.9,1640c0,2.8-0.6,5.4-1.7,7.8c-1.1,2.4-2.6,4.5-4.5,6.4c-1.9,1.8-4.1,3.3-6.6,4.4s-5.2,1.6-8.1,1.6
		c-2.8,0-5.4-0.5-7.9-1.6s-4.6-2.5-6.4-4.4c-1.8-1.8-3.3-3.9-4.4-6.4c-1.1-2.4-1.6-5-1.6-7.8c0-2.9,0.5-5.5,1.6-8.1
		c1.1-2.5,2.5-4.7,4.4-6.5c1.8-1.8,4-3.3,6.4-4.4c2.5-1.1,5.1-1.6,7.9-1.6c2.9,0,5.5,0.5,8.1,1.6c2.5,1.1,4.7,2.5,6.6,4.4
		c1.9,1.8,3.4,4,4.5,6.5S3138.9,1637.1,3138.9,1640z M3134.1,1678.8v133.4H3102v-133.4H3134.1z"/>
	<path class="st2" d="M3227.3,1676.7c10,0,19,1.6,27.1,4.8c8.1,3.2,15,7.8,20.7,13.7c5.7,5.9,10.1,13.1,13.3,21.6
		c3.1,8.5,4.7,18,4.7,28.5c0,10.6-1.6,20.1-4.7,28.6c-3.1,8.5-7.5,15.7-13.3,21.7c-5.7,6-12.6,10.6-20.7,13.8
		c-8.1,3.2-17.1,4.8-27.1,4.8s-19-1.6-27.2-4.8c-8.1-3.2-15.1-7.8-20.9-13.8c-5.8-6-10.2-13.2-13.4-21.7s-4.7-18-4.7-28.6
		c0-10.5,1.6-20,4.7-28.5c3.2-8.5,7.6-15.7,13.4-21.6c5.8-5.9,12.7-10.4,20.9-13.7C3208.2,1678.3,3217.3,1676.7,3227.3,1676.7z
		 M3227.3,1789.5c11.1,0,19.3-3.7,24.6-11.2s8-18.4,8-32.8s-2.7-25.3-8-32.9s-13.5-11.3-24.6-11.3c-11.3,0-19.6,3.8-25,11.4
		s-8.1,18.5-8.1,32.8s2.7,25.2,8.1,32.7C3207.7,1785.7,3216,1789.5,3227.3,1789.5z"/>
	<path class="st2" d="M3318.1,1812.2v-133.4h19.6c4.2,0,6.9,1.9,8.2,5.8l2.2,10.5c2.7-2.8,5.5-5.3,8.5-7.5c3-2.3,6.2-4.2,9.5-5.9
		c3.3-1.6,6.9-2.9,10.7-3.8s8-1.3,12.5-1.3c7.3,0,13.7,1.2,19.4,3.7c5.6,2.5,10.3,5.9,14.1,10.4s6.6,9.8,8.6,16s2.9,13,2.9,20.5
		v84.9h-32.1v-84.9c0-8.1-1.9-14.5-5.7-18.9c-3.8-4.5-9.4-6.7-17-6.7c-5.5,0-10.7,1.3-15.6,3.8c-4.9,2.5-9.4,5.9-13.8,10.3v96.5
		H3318.1z"/>
	<path class="st2" d="M3545.1,1704.8c-0.9,1.4-1.8,2.4-2.7,2.9c-1,0.6-2.2,0.8-3.6,0.8c-1.6,0-3.2-0.4-5-1.3s-3.8-1.8-6.2-2.9
		c-2.3-1.1-5-2.1-8-2.9c-3-0.9-6.5-1.3-10.6-1.3c-6.3,0-11.3,1.3-15,4c-3.6,2.7-5.5,6.2-5.5,10.5c0,2.9,0.9,5.3,2.8,7.2
		c1.9,2,4.3,3.7,7.4,5.1c3.1,1.5,6.6,2.8,10.5,4s7.9,2.5,12,3.8c4.1,1.4,8.1,3,12,4.7c3.9,1.8,7.4,4,10.5,6.8c3.1,2.7,5.5,6,7.4,9.8
		s2.8,8.4,2.8,13.8c0,6.4-1.2,12.3-3.5,17.7c-2.3,5.4-5.8,10.1-10.3,14s-10.1,7-16.7,9.2s-14.2,3.3-22.8,3.3
		c-4.6,0-9.1-0.4-13.5-1.2c-4.4-0.8-8.6-2-12.6-3.4c-4-1.5-7.8-3.2-11.2-5.2s-6.4-4.2-9-6.5l7.4-12.2c1-1.5,2.1-2.6,3.4-3.4
		s2.9-1.2,4.9-1.2s3.9,0.6,5.7,1.7s3.8,2.3,6.2,3.6c2.3,1.3,5.1,2.5,8.3,3.6s7.2,1.7,12,1.7c3.8,0,7.1-0.5,9.8-1.4s5-2.1,6.8-3.6
		s3.1-3.2,3.9-5.1c0.8-2,1.2-4,1.2-6c0-3.1-0.9-5.7-2.8-7.7c-1.9-2-4.3-3.7-7.4-5.2c-3.1-1.5-6.6-2.8-10.5-4s-8-2.4-12.1-3.8
		s-8.1-3-12.1-4.9c-3.9-1.9-7.5-4.2-10.5-7.1c-3.1-2.9-5.5-6.4-7.4-10.5c-1.9-4.2-2.8-9.2-2.8-15.1c0-5.5,1.1-10.7,3.2-15.6
		c2.2-4.9,5.3-9.2,9.6-12.9c4.2-3.7,9.4-6.6,15.7-8.8c6.3-2.2,13.5-3.3,21.8-3.3c9.2,0,17.5,1.5,25.1,4.5c7.5,3,13.8,7,18.9,12
		L3545.1,1704.8z"/>
</g>
<path class="st2" d="M2056.9,284l-120.5,423.5h-159.9V381.8H1708v322.7l-229.3,27.8l18.6,211.7h-127.9v223.4h88
	c-0.3,4.9-0.5,9.8-0.5,14.8c0,113.1,93,201.7,201.7,201.7c108.9,0,201.7-88.6,201.7-201.7c0-39.5-11.4-76-30.7-106.8h219.8
	c15.9,175.6,165.6,308.6,338.1,308.6c182.3,0,339.6-148.6,339.6-339.6c0-151.8-99.5-277-232-321.8V284H2056.9L2056.9,284z
	 M2126.4,367.5h275.8v338.1c-4.9-0.3-9.9-0.3-14.8-0.3c-40.9,0-80.5,7.5-117.3,21.2l-236.3-19L2126.4,367.5L2126.4,367.5z
	 M2387.4,908.7c86.3,0,137.8,64.2,137.8,135.9c0,71.7-51.4,135.9-137.8,135.9c-86.5,0-137.8-64.2-137.8-135.9
	S2300.9,908.7,2387.4,908.7z M1658.5,1084.5c60,0,103.8,45.5,103.8,97.9s-43.8,97.9-103.8,97.9c-60,0-104-45.5-104-97.9
	C1554.5,1130.1,1598.4,1084.5,1658.5,1084.5z"/>
</svg>
