<?xml version="1.0" encoding="utf-8"?>
<!-- Generator: Adobe Illustrator 24.3.0, SVG Export Plug-In . SVG Version: 6.00 Build 0)  -->
<svg version="1.1" id="Calque_1" xmlns="http://www.w3.org/2000/svg" xmlns:xlink="http://www.w3.org/1999/xlink" x="0px" y="0px"
	 viewBox="0 0 2048 2048" style="enable-background:new 0 0 2048 2048;" xml:space="preserve">
<style type="text/css">
	.st0{fill:url(#SVGID_1_);}
	.st1{fill:#DCDCDC;}
	.st2{fill:#333333;}
</style>
<g>
	
		<linearGradient id="SVGID_1_" gradientUnits="userSpaceOnUse" x1="1024" y1="-2608.5" x2="1024" y2="-4631.5" gradientTransform="matrix(1 0 0 1 0 4644)">
		<stop  offset="0" style="stop-color:#E8E8E8"/>
		<stop  offset="1" style="stop-color:#F9F9F9"/>
	</linearGradient>
	<path class="st0" d="M50,2035.5c-20.7,0-37.5-16.8-37.5-37.5V50c0-20.7,16.8-37.5,37.5-37.5h1948c20.7,0,37.5,16.8,37.5,37.5v1948
		c0,20.7-16.8,37.5-37.5,37.5H50z"/>
	<path class="st1" d="M1998,25c13.8,0,25,11.2,25,25v1948c0,13.8-11.2,25-25,25H50c-13.8,0-25-11.2-25-25V50c0-13.8,11.2-25,25-25
		H1998 M1998,0H50C22.5,0,0,22.5,0,50v1948c0,27.5,22.5,50,50,50h1948c27.5,0,50-22.5,50-50V50C2048,22.5,2025.5,0,1998,0L1998,0z"
		/>
</g>
<path class="st2" d="M1338.9,304.3H709.1c-74.5,0-134.9,60.4-134.9,134.9v1169.5c0,74.5,60.4,134.9,134.9,134.9h629.7
	c74.5,0,134.9-60.4,134.9-134.9V439.3C1473.8,364.8,1413.4,304.3,1338.9,304.3z M1024,1653.7c-49.8,0-90-40.2-90-90
	c0-49.8,40.2-90,90-90c49.8,0,90,40.2,90,90C1114,1613.5,1073.8,1653.7,1024,1653.7z M1338.9,1350.1c0,18.6-15.2,33.7-33.7,33.7
	H742.9c-18.6,0-33.7-15.2-33.7-33.7V473c0-18.6,15.2-33.7,33.7-33.7h562.2c18.6,0,33.7,15.2,33.7,33.7V1350.1z"/>
</svg>
