<?xml version="1.0" encoding="utf-8"?>
<!-- Generator: Adobe Illustrator 23.0.2, SVG Export Plug-In . SVG Version: 6.00 Build 0)  -->
<svg version="1.1" id="Calque_1" xmlns="http://www.w3.org/2000/svg" xmlns:xlink="http://www.w3.org/1999/xlink" x="0px" y="0px"
	 viewBox="0 0 660 700" style="enable-background:new 0 0 660 700;" xml:space="preserve">
<style type="text/css">
	.st0{fill:#FF0000;}
</style>
<path class="st0" d="M635,392.6860352c0,13.2956238-11.0963135,24.3919983-24.3920288,24.3919983h-85.3720093
	c0,47.6843567-10.2966309,83.4726257-25.5916138,110.5637512l79.2739868,79.6738892
	c9.4968872,9.4968872,9.4968872,24.7918701,0,34.2887573c-4.5984497,4.9983521-11.0963135,7.1976318-17.1943359,7.1976318
	c-6.0980835,0-12.5958862-2.2991943-17.194397-7.1976318l-75.4752808-75.0753784c0,0-49.9836121,45.6850586-114.7623596,45.6850586
	V270.7259827h-48.7839966v341.5880432c-68.9773865,0-119.3608704-50.2835083-119.3608704-50.2835083l-69.6771088,78.8741455
	c-4.9983597,5.2982178-11.4962311,7.9973755-18.2939911,7.9973755c-5.698143,0-11.3962555-1.8994141-16.3946228-6.0980225
	c-9.8967438-9.1969604-10.6964874-24.3920288-1.8993683-34.6885986l76.974762-86.5715942
	c-13.2956238-26.2913818-22.0927582-60.1802979-22.0927582-104.4657593H49.3919983
	C35.9963951,417.078064,25,405.9816895,25,392.6860657c0-13.2956543,10.9963951-24.3919983,24.3919983-24.3919983h85.3720093
	v-112.063324L68.7856369,190.352356c-9.4968872-9.5968628-9.4968872-24.7918854,0-34.2887726s24.7918625-9.5968628,34.3887177,0
	l65.8783951,65.878418H490.84729l65.878418-65.8784027c9.5968628-9.5968628,24.7918701-9.5968628,34.2887573,0
	s9.5968628,24.6919098,0,34.2887726l-65.878418,65.8784027v112.0632935h85.3720703
	C623.9036865,368.2940063,635,379.3903503,635,392.6860352z M452.059967,173.1579742H207.9400024
	c0-67.577858,54.5821228-122.0599976,122.0599976-122.0599976S452.059967,105.5801163,452.059967,173.1579742z"/>
</svg>
