<?xml version="1.0" encoding="utf-8"?>
<!-- Generator: Adobe Illustrator 24.3.0, SVG Export Plug-In . SVG Version: 6.00 Build 0)  -->
<svg version="1.1" id="Calque_1" xmlns="http://www.w3.org/2000/svg" xmlns:xlink="http://www.w3.org/1999/xlink" x="0px" y="0px"
	 viewBox="0 0 2048 2048" style="enable-background:new 0 0 2048 2048;" xml:space="preserve">
<style type="text/css">
	.st0{fill:url(#SVGID_1_);}
	.st1{fill:#DCDCDC;}
	.st2{fill:#333333;}
</style>
<g>
	
		<linearGradient id="SVGID_1_" gradientUnits="userSpaceOnUse" x1="1024" y1="-536.5" x2="1024" y2="-2559.5" gradientTransform="matrix(1 0 0 1 0 2572)">
		<stop  offset="0" style="stop-color:#E8E8E8"/>
		<stop  offset="1" style="stop-color:#F9F9F9"/>
	</linearGradient>
	<path class="st0" d="M50,2035.5c-20.7,0-37.5-16.8-37.5-37.5V50c0-20.7,16.8-37.5,37.5-37.5h1948c20.7,0,37.5,16.8,37.5,37.5v1948
		c0,20.7-16.8,37.5-37.5,37.5H50z"/>
	<path class="st1" d="M1998,25c13.8,0,25,11.2,25,25v1948c0,13.8-11.2,25-25,25H50c-13.8,0-25-11.2-25-25V50c0-13.8,11.2-25,25-25
		H1998 M1998,0H50C22.5,0,0,22.5,0,50v1948c0,27.5,22.5,50,50,50h1948c27.5,0,50-22.5,50-50V50C2048,22.5,2025.5,0,1998,0L1998,0z"
		/>
</g>
<path class="st2" d="M703.8,1131.1c0-12.1-4.4-22.6-13.3-31.5c-8.9-8.9-19.4-13.3-31.5-13.3s-22.6,4.4-31.5,13.3
	s-13.3,19.4-13.3,31.5s4.4,22.6,13.3,31.5c8.9,8.9,19.4,13.3,31.5,13.3s22.6-4.4,31.5-13.3C699.3,1153.7,703.8,1143.2,703.8,1131.1z
	 M1154.6,837.1l-477.4,477.4c-17.3,17.3-38.3,25.9-63,25.9c-24.3,0-45.5-8.6-63.7-25.9l-74.2-75.6c-17.7-16.8-26.6-37.8-26.6-63
	c0-24.7,8.9-46,26.6-63.7L953,635.5c18.2,45.7,44.9,86.2,80.1,121.5C1068.3,792.2,1108.8,818.9,1154.6,837.1z M1598.3,532.6
	c0,18.2-5.4,42.9-16.1,74.2c-21.9,62.5-60.3,113.3-115.2,152.2c-54.8,39-115.2,58.4-180.9,58.4c-86.3,0-160.2-30.7-221.6-92
	s-92-135.2-92-221.5s30.7-160.2,92-221.5s135.2-92.1,221.6-92.1c27.1,0,55.4,3.9,85,11.6c29.6,7.7,54.7,18.6,75.2,32.6
	c7.5,5.1,11.2,11.7,11.2,19.6c0,7.9-3.7,14.5-11.2,19.6L1241.2,392v156.8l135.1,74.9c2.3-1.4,20.8-12.7,55.3-34s66.2-40.1,94.8-56.7
	c28.7-16.6,45.2-24.8,49.3-24.8c7,0,12.5,2.3,16.5,7C1596.2,519.9,1598.3,525.6,1598.3,532.6z"/>
<g>
	<path class="st2" d="M368.5,1767.9c1.9,0,3.6,0.7,4.9,2.2l13.8,15c-7.6,9.4-17,16.7-28.1,21.7c-11.1,5-24.5,7.5-40.1,7.5
		c-14,0-26.5-2.4-37.6-7.2c-11.1-4.8-20.6-11.4-28.5-19.9c-7.9-8.5-13.9-18.6-18.1-30.4c-4.2-11.8-6.3-24.7-6.3-38.6
		c0-14.1,2.3-27.1,7-38.8c4.7-11.7,11.3-21.9,19.8-30.4c8.5-8.5,18.7-15.1,30.5-19.8c11.8-4.7,24.9-7.1,39.2-7.1
		c14,0,26.2,2.2,36.6,6.7c10.4,4.5,19.4,10.4,26.8,17.7l-11.7,16.2c-0.7,1-1.6,2-2.7,2.7c-1.1,0.8-2.6,1.2-4.5,1.2
		c-2,0-4-0.8-6.1-2.3c-2.1-1.6-4.7-3.2-7.9-5.1c-3.2-1.8-7.3-3.5-12.2-5.1c-4.9-1.6-11.1-2.3-18.7-2.3c-8.8,0-17,1.5-24.4,4.6
		c-7.4,3.1-13.8,7.5-19.1,13.2c-5.3,5.7-9.5,12.7-12.5,20.9c-3,8.2-4.5,17.4-4.5,27.6c0,10.6,1.5,20,4.5,28.2
		c3,8.2,7,15.2,12.2,20.8c5.1,5.6,11.1,9.9,18.1,12.9c6.9,3,14.4,4.5,22.4,4.5c4.8,0,9.1-0.3,12.9-0.8c3.9-0.5,7.4-1.3,10.7-2.5
		c3.2-1.1,6.3-2.6,9.2-4.4c2.9-1.8,5.8-4,8.6-6.6c0.9-0.8,1.8-1.4,2.7-1.9C366.3,1768.1,367.4,1767.9,368.5,1767.9z"/>
	<path class="st2" d="M468.7,1676.7c10,0,19,1.6,27.1,4.8c8.1,3.2,15,7.8,20.7,13.7c5.7,5.9,10.1,13.1,13.3,21.6
		c3.1,8.5,4.7,18,4.7,28.5c0,10.6-1.6,20.1-4.7,28.6c-3.1,8.5-7.5,15.7-13.3,21.7c-5.7,6-12.6,10.6-20.7,13.8
		c-8.1,3.2-17.1,4.8-27.1,4.8c-10,0-19-1.6-27.2-4.8c-8.1-3.2-15.1-7.8-20.9-13.8c-5.8-6-10.2-13.2-13.4-21.7
		c-3.2-8.5-4.7-18-4.7-28.6c0-10.5,1.6-20,4.7-28.5c3.2-8.5,7.6-15.7,13.4-21.6c5.8-5.9,12.7-10.4,20.9-13.7
		C449.7,1678.3,458.7,1676.7,468.7,1676.7z M468.7,1789.5c11.1,0,19.3-3.7,24.6-11.2c5.3-7.5,8-18.4,8-32.8c0-14.4-2.7-25.4-8-32.9
		s-13.5-11.3-24.6-11.3c-11.3,0-19.6,3.8-25,11.4c-5.4,7.6-8.1,18.5-8.1,32.8c0,14.3,2.7,25.2,8.1,32.7
		C449.1,1785.7,457.4,1789.5,468.7,1789.5z"/>
	<path class="st2" d="M559.6,1812.2v-133.4h19.6c4.2,0,6.9,2,8.2,5.9l2.2,10.5c2.7-2.8,5.5-5.3,8.5-7.5c3-2.3,6.2-4.2,9.5-5.9
		c3.3-1.6,6.9-2.9,10.7-3.8c3.8-0.9,8-1.3,12.5-1.3c7.3,0,13.7,1.2,19.4,3.7c5.6,2.5,10.3,5.9,14.1,10.4c3.8,4.5,6.6,9.8,8.6,16
		c2,6.2,2.9,13,2.9,20.5v84.9h-32.1v-84.9c0-8.1-1.9-14.4-5.7-18.9c-3.8-4.5-9.4-6.7-17-6.7c-5.5,0-10.7,1.3-15.6,3.8
		c-4.9,2.5-9.4,5.9-13.8,10.3v96.5H559.6z"/>
	<path class="st2" d="M713.1,1812.2V1703l-11.6-1.8c-2.5-0.4-4.5-1.3-6-2.6c-1.5-1.3-2.3-3.1-2.3-5.5V1680h19.9v-4.3
		c0-8.1,1.3-15.7,4-22.7c2.7-7,6.8-13,12.2-18.1c5.5-5.1,12.4-9.1,20.7-12c8.3-2.9,18.2-4.4,29.5-4.4c3.6,0,7.4,0.2,11.2,0.6
		c3.8,0.4,7.1,1,9.9,1.9l-1,16.6c-0.2,2-1.3,3.2-3.2,3.6c-2,0.4-4.5,0.6-7.4,0.6c-8.4,0-15.4,0.7-21.1,2.2
		c-5.7,1.5-10.3,3.7-13.8,6.6c-3.5,2.9-6,6.5-7.5,10.9c-1.5,4.4-2.3,9.5-2.3,15.3v3.2h82.7v132.2h-32.1v-109.3h-49.5v109.3H713.1z"
		/>
	<path class="st2" d="M909.8,1676.5c5.7,0,11.1,0.6,16.1,1.8c5,1.2,9.6,2.9,13.8,5.1H978v12c0,2-0.5,3.6-1.6,4.7
		c-1,1.1-2.8,1.9-5.3,2.3l-12,2.2c0.9,2.3,1.5,4.6,2,7.2c0.5,2.5,0.7,5.2,0.7,7.9c0,6.6-1.3,12.5-4,17.9c-2.6,5.3-6.3,9.9-10.9,13.6
		c-4.6,3.7-10.1,6.6-16.5,8.6c-6.4,2-13.3,3.1-20.7,3.1c-5,0-9.9-0.5-14.7-1.4c-4.2,2.5-6.2,5.4-6.2,8.5c0,2.7,1.2,4.7,3.7,6
		s5.7,2.2,9.8,2.7c4,0.5,8.6,0.8,13.7,0.8c5.1,0,10.4,0.2,15.7,0.7c5.4,0.4,10.6,1.2,15.7,2.3c5.1,1.1,9.7,2.8,13.7,5.2
		c4,2.3,7.3,5.5,9.8,9.6c2.5,4,3.7,9.2,3.7,15.6c0,5.9-1.5,11.7-4.4,17.2c-2.9,5.6-7.1,10.5-12.6,14.9c-5.5,4.3-12.2,7.8-20.2,10.5
		c-8,2.7-17.1,4-27.3,4c-10.1,0-18.9-1-26.4-2.9c-7.5-2-13.6-4.5-18.5-7.8c-4.9-3.2-8.6-7-11-11.2c-2.4-4.2-3.6-8.7-3.6-13.3
		c0-6.2,1.9-11.5,5.7-15.7c3.8-4.2,9.1-7.6,15.9-10.1c-3.3-1.8-5.9-4.2-7.9-7.3c-2-3-3-7-3-11.8c0-2,0.3-4.1,1-6.2
		c0.7-2.1,1.8-4.2,3.2-6.3s3.2-4.1,5.4-5.9c2.2-1.9,4.7-3.5,7.7-5c-6.8-3.6-12.1-8.5-15.9-14.6c-3.9-6.1-5.8-13.2-5.8-21.3
		c0-6.6,1.3-12.5,4-17.9c2.6-5.3,6.3-9.9,11-13.6c4.7-3.8,10.3-6.7,16.8-8.6C895.1,1677.5,902.2,1676.5,909.8,1676.5z M945,1817.8
		c0-2.7-0.8-4.8-2.3-6.5c-1.6-1.7-3.7-3-6.4-3.9c-2.7-0.9-5.8-1.6-9.4-2.1c-3.6-0.4-7.4-0.7-11.4-0.7s-8.2,0-12.5,0
		s-8.4-0.5-12.4-1.4c-3.6,2-6.6,4.4-8.8,7.1s-3.3,5.9-3.3,9.4c0,2.3,0.6,4.5,1.8,6.6c1.2,2,3,3.8,5.6,5.3c2.6,1.5,5.9,2.6,9.9,3.4
		c4.1,0.8,9.1,1.2,15,1.2c6,0,11.1-0.5,15.5-1.4c4.3-0.9,7.9-2.2,10.7-3.8c2.8-1.6,4.9-3.6,6.2-5.8
		C944.4,1822.9,945,1820.5,945,1817.8z M909.8,1742.3c4,0,7.5-0.5,10.4-1.6c2.9-1.1,5.4-2.6,7.3-4.5c2-1.9,3.4-4.2,4.4-6.9
		c1-2.7,1.5-5.6,1.5-8.8c0-6.6-2-11.8-5.9-15.7c-3.9-3.9-9.9-5.8-17.7-5.8c-7.9,0-13.8,1.9-17.7,5.8c-3.9,3.9-5.9,9.1-5.9,15.7
		c0,3.1,0.5,6,1.5,8.7c1,2.7,2.5,5,4.4,7c1.9,2,4.4,3.5,7.4,4.6C902.5,1741.7,905.9,1742.3,909.8,1742.3z"/>
	<path class="st2" d="M1027.6,1678.8v84.8c0,8.1,1.9,14.5,5.7,18.9c3.8,4.5,9.4,6.7,17,6.7c5.5,0,10.7-1.2,15.6-3.7
		c4.9-2.5,9.4-5.9,13.8-10.2v-96.5h32.1v133.4h-19.6c-4.2,0-6.9-2-8.2-5.8l-2.2-10.7c-2.8,2.8-5.6,5.3-8.6,7.6
		c-2.9,2.3-6.1,4.2-9.4,5.8c-3.3,1.6-6.9,2.9-10.8,3.8c-3.9,0.9-8,1.4-12.4,1.4c-7.3,0-13.7-1.2-19.3-3.7c-5.6-2.5-10.3-6-14.1-10.5
		c-3.8-4.5-6.7-9.9-8.6-16.1c-2-6.2-2.9-13-2.9-20.5v-84.8H1027.6z"/>
	<path class="st2" d="M1146,1812.2v-133.4h18.8c3.3,0,5.6,0.6,6.9,1.8c1.3,1.2,2.2,3.3,2.6,6.2l2,16.1c4.8-8.2,10.4-14.7,16.8-19.5
		c6.4-4.8,13.6-7.1,21.6-7.1c6.6,0,12,1.5,16.4,4.5l-4.2,24c-0.3,1.6-0.8,2.7-1.7,3.3c-0.9,0.7-2,1-3.5,1c-1.3,0-3.1-0.3-5.3-0.9
		c-2.3-0.6-5.2-0.9-9-0.9c-6.7,0-12.4,1.8-17.2,5.5c-4.8,3.7-8.8,9.1-12.1,16.2v83.1H1146z"/>
	<path class="st2" d="M1353,1812.2h-14.4c-3,0-5.4-0.5-7.2-1.4c-1.7-0.9-3-2.8-3.9-5.5l-2.9-9.5c-3.4,3-6.7,5.7-9.9,8
		c-3.2,2.3-6.6,4.2-10.1,5.8c-3.5,1.6-7.2,2.7-11.1,3.5c-3.9,0.8-8.2,1.2-13,1.2c-5.6,0-10.8-0.8-15.6-2.3
		c-4.8-1.5-8.9-3.8-12.3-6.8c-3.4-3-6.1-6.8-8-11.3c-1.9-4.5-2.9-9.8-2.9-15.8c0-5,1.3-10,4-14.9c2.6-4.9,7-9.3,13.2-13.3
		c6.2-4,14.3-7.2,24.6-9.8c10.2-2.6,22.9-3.9,38.1-3.9v-7.9c0-9-1.9-15.7-5.7-20c-3.8-4.3-9.3-6.5-16.4-6.5c-5.2,0-9.5,0.6-13,1.8
		c-3.5,1.2-6.5,2.6-9,4.1c-2.6,1.5-4.9,2.9-7.1,4.1c-2.2,1.2-4.5,1.8-7.1,1.8c-2.2,0-4-0.6-5.6-1.7c-1.6-1.1-2.8-2.5-3.8-4.2
		l-5.9-10.3c15.3-14,33.8-21.1,55.5-21.1c7.8,0,14.8,1.3,20.9,3.8c6.1,2.6,11.3,6.1,15.5,10.7c4.2,4.6,7.5,10,9.7,16.3
		c2.2,6.3,3.3,13.3,3.3,20.8V1812.2z M1290.6,1792.2c3.3,0,6.3-0.3,9.1-0.9c2.8-0.6,5.4-1.5,7.9-2.7c2.5-1.2,4.9-2.7,7.1-4.4
		c2.3-1.7,4.6-3.8,7-6.2v-22.3c-9.4,0-17.2,0.6-23.5,1.8c-6.3,1.2-11.3,2.7-15.1,4.5c-3.8,1.8-6.5,4-8.1,6.4c-1.6,2.4-2.4,5.1-2.4,8
		c0,5.7,1.7,9.7,5,12.2C1280.8,1791,1285.2,1792.2,1290.6,1792.2z"/>
	<path class="st2" d="M1428.4,1814.3c-11.5,0-20.4-3.3-26.6-9.8c-6.2-6.5-9.4-15.6-9.4-27.1v-74.5h-13.5c-1.7,0-3.2-0.6-4.5-1.7
		c-1.3-1.1-1.9-2.8-1.9-5.1v-12.7l21.4-3.5l6.8-36.4c0.3-1.7,1.1-3.1,2.4-4c1.3-1,2.8-1.4,4.7-1.4h16.6v42h35.1v22.9h-35.1v72.3
		c0,4.2,1,7.4,3.1,9.8c2.1,2.3,4.9,3.5,8.3,3.5c2,0,3.7-0.2,5-0.7c1.3-0.5,2.5-1,3.5-1.5c1-0.5,1.9-1,2.7-1.5
		c0.8-0.5,1.6-0.7,2.3-0.7c1,0,1.7,0.2,2.3,0.7c0.6,0.5,1.3,1.2,2,2.1l9.6,15.6c-4.7,3.9-10.1,6.8-16.1,8.8
		C1441.1,1813.3,1434.9,1814.3,1428.4,1814.3z"/>
	<path class="st2" d="M1524.2,1640c0,2.8-0.6,5.4-1.7,7.8c-1.1,2.4-2.6,4.5-4.5,6.4c-1.9,1.8-4.1,3.3-6.6,4.4
		c-2.5,1.1-5.2,1.6-8.1,1.6c-2.8,0-5.4-0.5-7.9-1.6c-2.5-1.1-4.6-2.5-6.4-4.4c-1.8-1.8-3.3-3.9-4.4-6.4c-1.1-2.4-1.6-5-1.6-7.8
		c0-2.9,0.5-5.5,1.6-8.1c1.1-2.5,2.5-4.7,4.4-6.5c1.8-1.8,4-3.3,6.4-4.4c2.5-1.1,5.1-1.6,7.9-1.6c2.9,0,5.5,0.5,8.1,1.6
		c2.5,1.1,4.7,2.5,6.6,4.4c1.9,1.8,3.4,4,4.5,6.5C1523.6,1634.4,1524.2,1637.1,1524.2,1640z M1519.4,1678.8v133.4h-32.1v-133.4
		H1519.4z"/>
	<path class="st2" d="M1612.6,1676.7c10,0,19,1.6,27.1,4.8c8.1,3.2,15,7.8,20.7,13.7c5.7,5.9,10.1,13.1,13.3,21.6
		c3.1,8.5,4.7,18,4.7,28.5c0,10.6-1.6,20.1-4.7,28.6c-3.1,8.5-7.5,15.7-13.3,21.7c-5.7,6-12.6,10.6-20.7,13.8
		c-8.1,3.2-17.1,4.8-27.1,4.8c-10,0-19-1.6-27.2-4.8c-8.1-3.2-15.1-7.8-20.9-13.8c-5.8-6-10.2-13.2-13.4-21.7
		c-3.2-8.5-4.7-18-4.7-28.6c0-10.5,1.6-20,4.7-28.5c3.2-8.5,7.6-15.7,13.4-21.6c5.8-5.9,12.7-10.4,20.9-13.7
		C1593.5,1678.3,1602.6,1676.7,1612.6,1676.7z M1612.6,1789.5c11.1,0,19.3-3.7,24.6-11.2c5.3-7.5,8-18.4,8-32.8
		c0-14.4-2.7-25.4-8-32.9s-13.5-11.3-24.6-11.3c-11.3,0-19.6,3.8-25,11.4c-5.4,7.6-8.1,18.5-8.1,32.8c0,14.3,2.7,25.2,8.1,32.7
		C1593,1785.7,1601.3,1789.5,1612.6,1789.5z"/>
	<path class="st2" d="M1703.4,1812.2v-133.4h19.6c4.2,0,6.9,2,8.2,5.9l2.2,10.5c2.7-2.8,5.5-5.3,8.5-7.5c3-2.3,6.2-4.2,9.5-5.9
		c3.3-1.6,6.9-2.9,10.7-3.8c3.8-0.9,8-1.3,12.5-1.3c7.3,0,13.7,1.2,19.4,3.7c5.6,2.5,10.3,5.9,14.1,10.4c3.8,4.5,6.6,9.8,8.6,16
		c2,6.2,2.9,13,2.9,20.5v84.9h-32.1v-84.9c0-8.1-1.9-14.4-5.7-18.9c-3.8-4.5-9.4-6.7-17-6.7c-5.5,0-10.7,1.3-15.6,3.8
		c-4.9,2.5-9.4,5.9-13.8,10.3v96.5H1703.4z"/>
</g>
</svg>
