<?xml version="1.0" encoding="utf-8"?>
<!-- Generator: Adobe Illustrator 24.3.0, SVG Export Plug-In . SVG Version: 6.00 Build 0)  -->
<svg version="1.1" id="Calque_1" xmlns="http://www.w3.org/2000/svg" xmlns:xlink="http://www.w3.org/1999/xlink" x="0px" y="0px"
	 viewBox="0 0 2048 2048" style="enable-background:new 0 0 2048 2048;" xml:space="preserve">
<style type="text/css">
	.st0{fill:url(#SVGID_1_);}
	.st1{fill:#DCDCDC;}
	.st2{fill:#333333;}
</style>
<g>
	
		<linearGradient id="SVGID_1_" gradientUnits="userSpaceOnUse" x1="1024" y1="2584.5" x2="1024" y2="4607.5" gradientTransform="matrix(1 0 0 -1 0 4620)">
		<stop  offset="0" style="stop-color:#E8E8E8"/>
		<stop  offset="1" style="stop-color:#F9F9F9"/>
	</linearGradient>
	<path class="st0" d="M50,2035.5c-20.7,0-37.5-16.8-37.5-37.5V50c0-20.7,16.8-37.5,37.5-37.5h1948c20.7,0,37.5,16.8,37.5,37.5v1948
		c0,20.7-16.8,37.5-37.5,37.5H50z"/>
	<path class="st1" d="M1998,25c13.8,0,25,11.2,25,25v1948c0,13.8-11.2,25-25,25H50c-13.8,0-25-11.2-25-25V50c0-13.8,11.2-25,25-25
		H1998 M1998,0H50C22.5,0,0,22.5,0,50v1948c0,27.5,22.5,50,50,50h1948c27.5,0,50-22.5,50-50V50C2048,22.5,2025.5,0,1998,0L1998,0z"
		/>
</g>
<g>
	<path class="st2" d="M615,1718.2c0,13.8-2.3,26.4-6.9,38c-4.6,11.5-11,21.5-19.4,29.8c-8.3,8.3-18.3,14.8-30,19.4
		s-24.7,6.9-38.9,6.9H448v-188h71.8c14.2,0,27.2,2.3,38.9,7c11.7,4.6,21.7,11.1,30,19.4s14.8,18.2,19.4,29.7
		C612.7,1691.8,615,1704.4,615,1718.2z M579.2,1718.2c0-10.3-1.4-19.6-4.2-27.8c-2.8-8.2-6.7-15.1-11.8-20.8
		c-5.1-5.7-11.3-10-18.7-13.1c-7.3-3-15.6-4.5-24.8-4.5h-36.5v132.3h36.5c9.2,0,17.4-1.5,24.8-4.5c7.3-3,13.5-7.4,18.7-13.1
		c5.1-5.7,9.1-12.6,11.8-20.8C577.8,1737.8,579.2,1728.5,579.2,1718.2z"/>
	<path class="st2" d="M669.9,1678.8v84.8c0,8.1,1.9,14.5,5.7,18.9c3.8,4.5,9.4,6.7,17,6.7c5.5,0,10.7-1.2,15.6-3.7
		c4.9-2.5,9.4-5.9,13.8-10.2v-96.5h32.1v133.4h-19.6c-4.2,0-6.9-2-8.2-5.8l-2.2-10.7c-2.8,2.8-5.6,5.3-8.6,7.6
		c-2.9,2.3-6.1,4.2-9.4,5.9c-3.3,1.6-6.9,2.9-10.8,3.8c-3.9,0.9-8,1.4-12.4,1.4c-7.3,0-13.7-1.2-19.3-3.7s-10.3-6-14.1-10.5
		s-6.7-9.9-8.6-16.1c-2-6.2-2.9-13-2.9-20.5v-84.8L669.9,1678.8L669.9,1678.8z"/>
	<path class="st2" d="M788.4,1812.2v-133.4h18.8c3.3,0,5.6,0.6,6.9,1.8c1.3,1.2,2.2,3.3,2.6,6.2l2,16.1c4.8-8.2,10.4-14.7,16.8-19.5
		c6.4-4.8,13.6-7.1,21.6-7.1c6.6,0,12,1.5,16.4,4.5l-4.2,24c-0.3,1.6-0.8,2.7-1.7,3.3c-0.9,0.6-2,1-3.5,1c-1.3,0-3.1-0.3-5.3-0.9
		c-2.3-0.6-5.2-0.9-9-0.9c-6.7,0-12.4,1.8-17.2,5.5s-8.8,9.1-12.1,16.2v83.1h-32.1V1812.2z"/>
	<path class="st2" d="M995.3,1812.2h-14.4c-3,0-5.4-0.5-7.2-1.4c-1.7-0.9-3-2.8-3.9-5.5l-2.9-9.5c-3.4,3-6.7,5.7-9.9,8
		s-6.6,4.2-10.1,5.8c-3.5,1.6-7.2,2.7-11.1,3.5c-3.9,0.8-8.2,1.2-13,1.2c-5.6,0-10.8-0.8-15.6-2.3s-8.9-3.8-12.3-6.8
		c-3.4-3-6.1-6.8-8-11.3s-2.9-9.8-2.9-15.8c0-5,1.3-10,4-14.9c2.6-4.9,7-9.3,13.2-13.3s14.3-7.2,24.6-9.8
		c10.2-2.6,22.9-3.9,38.1-3.9v-7.9c0-9-1.9-15.7-5.7-20s-9.3-6.5-16.4-6.5c-5.2,0-9.5,0.6-13,1.8c-3.5,1.2-6.5,2.6-9,4.1
		c-2.6,1.5-4.9,2.9-7.1,4.1c-2.2,1.2-4.5,1.8-7.1,1.8c-2.2,0-4-0.6-5.6-1.7s-2.8-2.5-3.8-4.2l-5.9-10.3c15.3-14,33.8-21.1,55.5-21.1
		c7.8,0,14.8,1.3,20.9,3.8c6.1,2.6,11.3,6.1,15.5,10.7s7.5,10,9.7,16.3s3.3,13.3,3.3,20.8v84.3L995.3,1812.2L995.3,1812.2z
		 M932.9,1792.2c3.3,0,6.3-0.3,9.1-0.9s5.4-1.5,7.9-2.7s4.9-2.7,7.1-4.4c2.3-1.7,4.6-3.8,7-6.2v-22.3c-9.4,0-17.2,0.6-23.5,1.8
		c-6.3,1.2-11.3,2.7-15.1,4.5s-6.5,4-8.1,6.4s-2.4,5.1-2.4,8c0,5.7,1.7,9.7,5,12.2C923.2,1791,927.6,1792.2,932.9,1792.2z"/>
	<path class="st2" d="M1027.3,1812.2V1619h32.1v76.2c5.3-5.6,11.3-10.1,17.9-13.5c6.7-3.3,14.5-5,23.4-5c7.3,0,13.9,1.5,20,4.5
		c6,3,11.2,7.3,15.6,13.1c4.4,5.7,7.8,12.8,10.1,21.2c2.4,8.4,3.6,18.1,3.6,29c0,10-1.3,19.2-4,27.7s-6.5,15.9-11.5,22.1
		s-11,11.1-18.1,14.6s-15,5.3-23.7,5.3c-4.1,0-7.8-0.4-11.2-1.2c-3.4-0.8-6.5-2-9.2-3.4c-2.8-1.5-5.4-3.3-7.7-5.4
		c-2.4-2.1-4.7-4.5-6.8-7.1l-1.4,9c-0.5,2.3-1.4,3.9-2.7,4.8c-1.3,1-3,1.4-5.1,1.4L1027.3,1812.2L1027.3,1812.2z M1089.7,1701.7
		c-6.7,0-12.4,1.4-17.1,4.2c-4.7,2.8-9.1,6.8-13.2,11.9v59.8c3.6,4.5,7.6,7.6,11.9,9.4s8.9,2.7,14,2.7c4.9,0,9.2-0.9,13.1-2.7
		c3.9-1.8,7.2-4.6,9.9-8.3c2.7-3.7,4.8-8.4,6.3-14.1s2.2-12.4,2.2-20.1c0-7.8-0.6-14.4-1.9-19.8s-3.1-9.8-5.4-13.2s-5.2-5.8-8.5-7.4
		C1097.8,1702.5,1094,1701.7,1089.7,1701.7z"/>
	<path class="st2" d="M1214.1,1639.9c0,2.8-0.6,5.4-1.7,7.8s-2.6,4.5-4.5,6.4c-1.9,1.8-4.1,3.3-6.6,4.4s-5.2,1.6-8.1,1.6
		c-2.8,0-5.4-0.5-7.9-1.6s-4.6-2.5-6.4-4.4c-1.8-1.8-3.3-3.9-4.4-6.4c-1.1-2.4-1.6-5-1.6-7.8c0-2.9,0.5-5.5,1.6-8.1
		c1.1-2.5,2.5-4.7,4.4-6.5c1.8-1.8,4-3.3,6.4-4.4c2.5-1.1,5.1-1.6,7.9-1.6c2.9,0,5.5,0.5,8.1,1.6c2.5,1.1,4.7,2.5,6.6,4.4
		c1.9,1.8,3.4,4,4.5,6.5C1213.6,1634.4,1214.1,1637.1,1214.1,1639.9z M1209.3,1678.8v133.4h-32.1v-133.4H1209.3z"/>
	<path class="st2" d="M1279.8,1619v193.2h-32.1V1619H1279.8z"/>
	<path class="st2" d="M1355,1639.9c0,2.8-0.6,5.4-1.7,7.8s-2.6,4.5-4.5,6.4c-1.9,1.8-4.1,3.3-6.6,4.4s-5.2,1.6-8.1,1.6
		c-2.8,0-5.4-0.5-7.9-1.6s-4.6-2.5-6.4-4.4c-1.8-1.8-3.3-3.9-4.4-6.4c-1.1-2.4-1.6-5-1.6-7.8c0-2.9,0.5-5.5,1.6-8.1
		c1.1-2.5,2.5-4.7,4.4-6.5c1.8-1.8,4-3.3,6.4-4.4c2.5-1.1,5.1-1.6,7.9-1.6c2.9,0,5.5,0.5,8.1,1.6c2.5,1.1,4.7,2.5,6.6,4.4
		c1.9,1.8,3.4,4,4.5,6.5C1354.5,1634.4,1355,1637.1,1355,1639.9z M1350.2,1678.8v133.4h-32.1v-133.4H1350.2z"/>
	<path class="st2" d="M1430.3,1814.3c-11.5,0-20.4-3.3-26.6-9.8s-9.4-15.6-9.4-27.1v-74.5h-13.5c-1.7,0-3.2-0.6-4.5-1.7
		s-1.9-2.8-1.9-5.1v-12.7l21.4-3.5l6.8-36.4c0.3-1.7,1.1-3.1,2.4-4c1.3-1,2.8-1.4,4.7-1.4h16.6v42h35.1v22.9h-35.1v72.3
		c0,4.2,1,7.4,3.1,9.8c2.1,2.3,4.9,3.5,8.3,3.5c2,0,3.7-0.2,5-0.7s2.5-1,3.5-1.5s1.9-1,2.7-1.5c0.8-0.5,1.6-0.7,2.3-0.7
		c1,0,1.7,0.2,2.3,0.7c0.6,0.5,1.3,1.2,2,2.1l9.6,15.6c-4.7,3.9-10.1,6.8-16.1,8.8C1443.1,1813.3,1436.8,1814.3,1430.3,1814.3z"/>
	<path class="st2" d="M1542.2,1676.7c8.4,0,16.1,1.3,23.2,4s13.2,6.6,18.3,11.8c5.1,5.2,9.1,11.5,12,19s4.3,16.1,4.3,25.7
		c0,2.4-0.1,4.4-0.3,6c-0.2,1.6-0.6,2.9-1.2,3.8s-1.3,1.6-2.3,2s-2.2,0.6-3.6,0.6h-82.4c1,13.7,4.6,23.7,11,30.2
		c6.4,6.4,14.9,9.6,25.5,9.6c5.2,0,9.7-0.6,13.5-1.8c3.8-1.2,7.1-2.6,9.9-4c2.8-1.5,5.3-2.8,7.4-4s4.2-1.8,6.2-1.8
		c1.3,0,2.4,0.3,3.4,0.8s1.8,1.3,2.5,2.2l9.4,11.7c-3.6,4.2-7.5,7.6-12,10.5c-4.4,2.8-9,5.1-13.8,6.8c-4.8,1.7-9.7,2.9-14.7,3.6
		s-9.8,1-14.5,1c-9.3,0-17.9-1.5-25.9-4.6s-14.9-7.6-20.8-13.7c-5.9-6-10.5-13.5-13.9-22.4s-5.1-19.2-5.1-30.9
		c0-9.1,1.5-17.7,4.4-25.7s7.2-15,12.7-20.9s12.2-10.6,20.1-14.1C1523.3,1678.5,1532.3,1676.7,1542.2,1676.7z M1542.9,1699.7
		c-9.4,0-16.7,2.6-22,7.9s-8.7,12.8-10.1,22.5h60.3c0-4.2-0.6-8.1-1.7-11.8c-1.1-3.7-2.9-6.9-5.2-9.7c-2.3-2.8-5.3-5-8.8-6.6
		C1551.8,1700.6,1547.7,1699.7,1542.9,1699.7z M1588,1622.1l-32.1,33.9c-1.6,1.7-3.2,2.9-4.7,3.6c-1.5,0.6-3.5,1-5.9,1H1526
		l18.5-31.6c1.3-2.3,2.8-4,4.5-5.1c1.7-1.2,4.3-1.8,7.8-1.8H1588z"/>
</g>
<g>
	<path class="st2" d="M1536.4,1050.4c-21.9-19.7-55.7-18.5-78.7,0L1286.8,1187c-20.9,16.7-47,25.9-73.9,25.9H994.5
		c-16.2,0-29.5-13.4-29.5-29.5s13.4-29.5,29.5-29.5h144.6c29.4,0,56.7-20.2,61.5-49.1c6-37-22.4-69.1-58.4-69.1H846.5
		c-49.9,0-98.1,17.1-137,48.6l-86,69.6H521.3c-16.2,0-29.5,13.4-29.5,29.5v177.5c0,16.2,13.4,29.5,29.5,29.5h659.3
		c26.7,0,52.9-9.1,73.9-25.9l279.3-223.6C1562.1,1118.4,1564.3,1075.5,1536.4,1050.4z"/>
	<path class="st2" d="M1036,140.3c-228.7,0-414,185.2-414,414s185.2,414,414,414s414-185.2,414-414S1264.6,140.3,1036,140.3z
		 M1303,500.1v11.5c0,9.7-5.5,18.9-14.2,23.1l-25.6,12.9c-8.2,4.1-18.2,3.6-26-1.6l-30.4-20.2c-6.6-4.4-15-5.5-22.5-3l-4.4,1.5
		c-16.2,5.4-22.7,24.7-13.4,38.9l22.1,33.1c4.7,7.1,12.9,11.5,21.6,11.5h13.7c14.2,0,25.9,11.5,25.9,25.9v19c0,5.6-1.7,11-5.2,15.5
		l-31.4,41.7c-2.4,3.1-4,6.9-4.6,10.7l-7.1,38c-1.1,5.5-3.9,10.5-8,14.2c-15.7,14.4-29.7,30.7-41.7,48.6l-21.9,32.7
		c-8.6,12.9-23.1,20.6-38.6,20.6c-17.6,0-33.6-9.9-41.5-25.5c-9.2-18.2-13.9-38.5-13.9-58.9v-49.9c0-14.2-11.5-25.9-25.9-25.9h-43.2
		c-24.1,0-47.4-9.6-64.4-26.6c-17-17.1-26.6-40.4-26.6-64.5v-23.5c0-28.7,13.5-55.7,36.5-73l46-34.5c15.7-11.9,35-18.2,54.6-18.2
		h1.5c14.1,0,28.1,3.2,40.7,9.6l24.6,12.2c6.1,3,13.1,3.6,19.7,1.4l79-26.4c10.6-3.6,17.7-13.5,17.7-24.6
		c0-14.2-11.5-25.9-25.9-25.9h-16.9c-6.9,0-13.5-2.7-18.2-7.5l-11.5-11.5c-4.7-4.7-11.4-7.5-18.2-7.5H955
		c-14.2,0-25.9-11.5-25.9-25.9v-7.2c0-11.9,8.1-22.2,19.6-25.1l24.1-6c6.1-1.5,11.6-5.4,15.2-10.7l13.5-20.2
		c4.7-7.1,12.9-11.5,21.6-11.5h40.4c14.2,0,25.9-11.5,25.9-25.9V225c132.2,21.4,238.5,120.6,270.3,249H1329
		C1314.6,474.2,1303,485.8,1303,500.1z"/>
</g>
</svg>
