<?xml version="1.0" encoding="utf-8"?>
<!-- Generator: Adobe Illustrator 23.0.2, SVG Export Plug-In . SVG Version: 6.00 Build 0)  -->
<svg version="1.1" id="Calque_1" xmlns="http://www.w3.org/2000/svg" xmlns:xlink="http://www.w3.org/1999/xlink" x="0px" y="0px"
	 viewBox="0 0 2048 2048" style="enable-background:new 0 0 2048 2048;" xml:space="preserve">
<style type="text/css">
	.st0{fill:url(#SVGID_1_);}
	.st1{fill:#DCDCDC;}
	.st2{fill:#AAAAAA;}
	.st3{fill:#FFFFFF;}
	.st4{fill:none;stroke:#000000;stroke-width:12.1532259;}
</style>
<g>
	
		<linearGradient id="SVGID_1_" gradientUnits="userSpaceOnUse" x1="1024" y1="487.5" x2="1024" y2="-1535.5" gradientTransform="matrix(1 0 0 1 0 1548)">
		<stop  offset="0" style="stop-color:#E8E8E8"/>
		<stop  offset="1" style="stop-color:#F9F9F9"/>
	</linearGradient>
	<path class="st0" d="M50,2035.5c-20.7000008,0-37.5-16.8000488-37.5-37.5V50c0-20.7000008,16.7999992-37.5,37.5-37.5h1948
		c20.6999512,0,37.5,16.7999992,37.5,37.5v1948c0,20.6999512-16.8000488,37.5-37.5,37.5H50z"/>
	<path class="st1" d="M1998,25c13.8000488,0,25,11.2000008,25,25v1948c0,13.8000488-11.1999512,25-25,25H50
		c-13.7999992,0-25-11.1999512-25-25V50c0-13.7999992,11.2000008-25,25-25H1998 M1998,0H50C22.5,0,0,22.5,0,50v1948
		c0,27.5,22.5,50,50,50h1948c27.5,0,50-22.5,50-50V50C2048,22.5,2025.5,0,1998,0L1998,0z"/>
</g>
<g>
	<path class="st2" d="M1539.6271973,928.0419922c0,404.8771973-230.8612061,733.1185303-515.6260986,733.1185303
		c-284.7692261,0-515.6283569-328.241333-515.6283569-733.1185303c0-404.8920288,223.3947754-579.7960205,508.1618042-579.7960205
		C1301.3206787,348.2460022,1539.6271973,523.1499634,1539.6271973,928.0419922L1539.6271973,928.0419922z"/>
	<path class="st3" d="M727.5648804,464.691803c-157.1416626,144.7964172-193.0117188,379.7882996-63.8900757,442.8623962
		c133.1293335,65.0387573,268.5687866-12.6207886,368.3289795-146.6889648
		c94.0654297,122.5389404,217.630127,196.3963013,342.9644775,141.6724243
		c122.7487793-53.6472168,126.8793945-290.5315552-50.9407959-433.2956238
		C1120.3066406,532.5768433,920.6464844,527.5582275,727.5648804,464.691803L727.5648804,464.691803z"/>
	<path class="st3" d="M995.9259644,1057.09375l27.1870728,36.8237305l28.9609375-38.5786133l-28.9609375,120.9770508
		L995.9259644,1057.09375z"/>
	<path class="st3" d="M1148.5195312,1156.1756592l27.1870117,36.8259277l28.9588623-38.5786133l-28.9588623,120.9769287
		L1148.5195312,1156.1756592z"/>
	<path class="st3" d="M843.3345947,1156.1756592l27.1870728,36.8259277l28.9609375-38.5786133l-28.9609375,120.9769287
		L843.3345947,1156.1756592z"/>
	<path class="st3" d="M786.3515015,1331.5628662l27.2061768,36.8237305l28.9609375-38.5933838l-28.9609375,120.9938965
		L786.3515015,1331.5628662z"/>
	<path class="st3" d="M1205.4835205,1331.5628662l27.2039795,36.8237305l28.9610596-38.5933838L1232.6875,1450.7871094
		L1205.4835205,1331.5628662z"/>
	<path class="st2" d="M538.9465332,293.8527527l33.4412842,107.3643799
		c286.8143921,141.6025696,590.505127,156.7919617,901.9400635,9.0814209l35.5224609-107.0888367
		C1166.6971436,494.0681763,850.9896851,473.1121216,538.9465332,293.8527527L538.9465332,293.8527527z"/>
	<path class="st3" d="M826.5111694,557.8713379c-62.9363403,0-113.7373047,53.5094604-113.7373047,119.3641357
		c0,65.8526001,50.8009644,119.3599243,113.7373047,119.3599243c62.9342041,0,114.1356812-53.5073242,114.1356812-119.3599243
		C940.6468506,611.3807983,889.4453735,557.8713379,826.5111694,557.8713379L826.5111694,557.8713379z M1221.0904541,557.8713379
		c-63.0041504,0-113.7373047,53.5094604-113.7373047,119.3641357c0,65.8526001,50.7331543,119.3599243,113.7373047,119.3599243
		c62.9362793,0,114.1356201-53.5073242,114.1356201-119.3599243
		C1335.2260742,611.3807983,1284.0267334,557.8713379,1221.0904541,557.8713379L1221.0904541,557.8713379z"/>
	<path class="st4" d="M826.5111694,557.8713379c-62.9363403,0-113.7373047,53.5264282-113.7373047,119.3768921
		c0,65.8355713,50.8009644,119.3450317,113.7373047,119.3450317c62.9342041,0,114.1356812-53.5094604,114.1356812-119.3450317
		C940.6468506,611.3977661,889.4453735,557.8713379,826.5111694,557.8713379L826.5111694,557.8713379z M1221.0904541,557.8713379
		c-63.0041504,0-113.7373047,53.5264282-113.7373047,119.3768921c0,65.8355713,50.7331543,119.3450317,113.7373047,119.3450317
		c62.9362793,0,114.1356201-53.5094604,114.1356201-119.3450317
		C1335.2260742,611.3977661,1284.0267334,557.8713379,1221.0904541,557.8713379L1221.0904541,557.8713379z"/>
	<path d="M902.5366211,648.552124c0,27.8144531-20.9540405,50.3134766-46.7890015,50.3134766
		c-25.8518677,0-46.8080444-22.4990234-46.8080444-50.3134766c0-27.8143921,20.9561768-50.3834229,46.8080444-50.3834229
		C881.5825806,598.1687012,902.5366211,620.7377319,902.5366211,648.552124L902.5366211,648.552124z"/>
	<path d="M1297.0480957,648.552124c0,27.8144531-20.9541016,50.3134766-46.8081055,50.3134766
		c-25.8327637,0-46.7889404-22.4990234-46.7889404-50.3134766c0-27.8143921,20.9561768-50.3834229,46.7889404-50.3834229
		C1276.0939941,598.1687012,1297.0480957,620.7377319,1297.0480957,648.552124L1297.0480957,648.552124z"/>
	<path d="M973.130188,796.1270142c2.9862061-25.8328247,10.1729126-69.3770752,50.8709106-69.7945557
		c40.6958008-0.3284912,47.8846436,43.961731,50.8686523,69.7945557
		c4.4104004,38.3179321-50.8686523,110.0029907-50.8686523,110.0029907S968.7219238,834.4449463,973.130188,796.1270142
		L973.130188,796.1270142z"/>
	<path d="M888.163147,1555.0275879c-33.3692017,1.6318359-35.8891602,36.7537842-35.8891602,36.7537842
		s1.4242554-27.6046143-29.8955688-27.2591553c-26.1804199,0.3306885-34.3950195,53.4416504-32.5532837,87.5568848
		c2.3079834,44.6209717,39.7421265,94.4660645,39.7421265,94.4660645
		c2.7064209-35.3339844,8.333313-50.6611328,21.2147217-74.8641357c0.8859253,19.3243408,7.6741943,57.432373,33.8566895,82.4661865
		c0,0,20.8840942-25.2944336,36.8916016-90.4709473c9.6176147,32.0170898,13.7694702,74.3256836,13.7694702,74.3256836
		c33.4221802-17.0140381,43.942688-58.5258789,44.8963623-77.3818359c1.8925781-62.328125-1.631897-88.230835-23.2641602-88.5106201
		c-16.753479-1.0045166-32.2946777,1.6340332-36.6329956,20.8354492
		C916.3039551,1568.7949219,908.3712158,1554.0018311,888.163147,1555.0275879L888.163147,1555.0275879z"/>
	<path d="M1158.6923828,1555.0275879c33.7697754,1.6318359,36.2855225,36.7537842,36.2855225,36.7537842
		s-1.4243164-27.6046143,30.2452393-27.2591553c26.5109863,0.3306885,34.793457,53.4416504,32.9517822,87.5568848
		c-2.3609619,44.6209717-40.140625,94.4660645-40.140625,94.4660645
		c-2.7763672-35.3339844-8.5410156-50.6611328-21.4923096-74.8641357
		c-0.9537354,19.3243408-7.8140869,57.432373-34.3250732,82.4661865c0,0-21.0960693-25.2944336-37.3112793-90.4709473
		c-9.6854248,32.0170898-13.8881836,74.3256836-13.8881836,74.3256836
		c-33.8544922-17.0140381-44.4979248-58.5258789-45.4367676-77.3818359
		c-1.9794922-62.328125,1.6170654-88.230835,23.5269775-88.5106201
		c16.9611816-1.0045166,32.6231689,1.6340332,37.0314941,20.8354492
		C1130.2019043,1568.7949219,1138.2745361,1554.0018311,1158.6923828,1555.0275879L1158.6923828,1555.0275879z"/>
</g>
</svg>
