<?xml version="1.0" encoding="utf-8"?>
<!-- Generator: Adobe Illustrator 24.3.0, SVG Export Plug-In . SVG Version: 6.00 Build 0)  -->
<svg version="1.1" id="Calque_1" xmlns="http://www.w3.org/2000/svg" xmlns:xlink="http://www.w3.org/1999/xlink" x="0px" y="0px"
	 viewBox="0 0 2048 2048" style="enable-background:new 0 0 2048 2048;" xml:space="preserve">
<style type="text/css">
	.st0{fill:url(#SVGID_1_);}
	.st1{fill:#DCDCDC;}
	.st2{fill:#333333;}
</style>
<g>
	
		<linearGradient id="SVGID_1_" gradientUnits="userSpaceOnUse" x1="1024" y1="-2084.5" x2="1024" y2="-4107.5" gradientTransform="matrix(1 0 0 1 0 4120)">
		<stop  offset="0" style="stop-color:#E8E8E8"/>
		<stop  offset="1" style="stop-color:#F9F9F9"/>
	</linearGradient>
	<path class="st0" d="M50,2035.5c-20.7,0-37.5-16.8-37.5-37.5V50c0-20.7,16.8-37.5,37.5-37.5h1948c20.7,0,37.5,16.8,37.5,37.5v1948
		c0,20.7-16.8,37.5-37.5,37.5H50z"/>
	<path class="st1" d="M1998,25c13.8,0,25,11.2,25,25v1948c0,13.8-11.2,25-25,25H50c-13.8,0-25-11.2-25-25V50c0-13.8,11.2-25,25-25
		H1998 M1998,0H50C22.5,0,0,22.5,0,50v1948c0,27.5,22.5,50,50,50h1948c27.5,0,50-22.5,50-50V50C2048,22.5,2025.5,0,1998,0L1998,0z"
		/>
</g>
<g>
	<path class="st2" d="M753.6,1624.2v27.8h-83.3v52.1H736v26.9h-65.7v53.2h83.3v28H635v-188H753.6z"/>
	<path class="st2" d="M814.6,1619v110.6h6c2.2,0,3.9-0.3,5.1-0.9c1.2-0.6,2.5-1.7,3.9-3.4l33.1-41c1.5-1.7,3-3.1,4.7-4.1
		c1.6-1,3.8-1.5,6.5-1.5h29.4l-41.5,49.5c-1.5,1.8-3,3.5-4.5,5c-1.6,1.5-3.2,2.8-5.1,4c1.8,1.3,3.4,2.8,4.8,4.5
		c1.4,1.7,2.8,3.6,4.2,5.6l44.5,64.7h-29c-2.5,0-4.6-0.4-6.4-1.3c-1.7-0.9-3.3-2.3-4.7-4.4l-33.9-50.6c-1.3-2-2.6-3.3-3.9-3.9
		c-1.3-0.6-3.2-0.9-5.8-0.9h-7.3v61.1h-32.1v-193H814.6z"/>
	<path class="st2" d="M972.8,1848.8c-1,2.3-2.2,4-3.7,5.1c-1.5,1.2-3.8,1.8-7,1.8h-23.9l25-53.4l-54-123.5h28.1c2.6,0,4.6,0.6,6,1.8
		c1.4,1.2,2.4,2.6,3.1,4.2l28.5,69.2c1,2.3,1.8,4.6,2.5,7s1.3,4.9,1.8,7.3c0.7-2.5,1.5-4.9,2.3-7.3c0.8-2.3,1.7-4.7,2.7-7.2l26.8-69
		c0.7-1.7,1.8-3.2,3.4-4.3c1.6-1.1,3.4-1.7,5.4-1.7h25.7L972.8,1848.8z"/>
	<path class="st2" d="M1131,1812.2h-29.1l-53-133.4h26.6c2.3,0,4.3,0.6,5.9,1.7s2.7,2.6,3.3,4.3l25.7,71.2c1.5,4.2,2.7,8.2,3.7,12.2
		s1.9,8,2.7,12c0.8-4,1.7-8,2.7-12s2.3-8.1,3.8-12.2l26.4-71.2c0.6-1.7,1.7-3.2,3.2-4.3c1.6-1.1,3.4-1.7,5.6-1.7h25.3L1131,1812.2z"
		/>
	<path class="st2" d="M1241.9,1639.9c0,2.8-0.6,5.4-1.7,7.8s-2.6,4.5-4.5,6.4c-1.9,1.8-4.1,3.3-6.6,4.4s-5.2,1.6-8.1,1.6
		c-2.8,0-5.4-0.5-7.9-1.6s-4.6-2.5-6.4-4.4c-1.8-1.8-3.3-3.9-4.4-6.4c-1.1-2.4-1.6-5-1.6-7.8c0-2.9,0.5-5.5,1.6-8.1
		c1.1-2.5,2.5-4.7,4.4-6.5c1.8-1.8,4-3.3,6.4-4.4c2.5-1.1,5.1-1.6,7.9-1.6c2.9,0,5.5,0.5,8.1,1.6c2.5,1.1,4.7,2.5,6.6,4.4
		c1.9,1.8,3.4,4,4.5,6.5C1241.3,1634.4,1241.9,1637.1,1241.9,1639.9z M1237.1,1678.8v133.4H1205v-133.4H1237.1z"/>
	<path class="st2" d="M1317.1,1814.3c-11.5,0-20.4-3.3-26.6-9.8s-9.4-15.6-9.4-27.1v-74.5h-13.5c-1.7,0-3.2-0.6-4.5-1.7
		s-1.9-2.8-1.9-5.1v-12.7l21.4-3.5l6.8-36.4c0.3-1.7,1.1-3.1,2.4-4c1.3-1,2.8-1.4,4.7-1.4h16.6v42h35.1v22.9h-35.1v72.3
		c0,4.2,1,7.4,3.1,9.8c2.1,2.3,4.9,3.5,8.3,3.5c2,0,3.7-0.2,5-0.7s2.5-1,3.5-1.5s1.9-1,2.7-1.5c0.8-0.5,1.6-0.7,2.3-0.7
		c1,0,1.7,0.2,2.3,0.7c0.6,0.5,1.3,1.2,2,2.1l9.6,15.6c-4.7,3.9-10.1,6.8-16.1,8.8C1329.9,1813.3,1323.6,1814.3,1317.1,1814.3z"/>
	<path class="st2" d="M1413,1639.9c0,2.8-0.6,5.4-1.7,7.8s-2.6,4.5-4.5,6.4c-1.9,1.8-4.1,3.3-6.6,4.4s-5.2,1.6-8.1,1.6
		c-2.8,0-5.4-0.5-7.9-1.6s-4.6-2.5-6.4-4.4c-1.8-1.8-3.3-3.9-4.4-6.4c-1.1-2.4-1.6-5-1.6-7.8c0-2.9,0.5-5.5,1.6-8.1
		c1.1-2.5,2.5-4.7,4.4-6.5c1.8-1.8,4-3.3,6.4-4.4c2.5-1.1,5.1-1.6,7.9-1.6c2.9,0,5.5,0.5,8.1,1.6c2.5,1.1,4.7,2.5,6.6,4.4
		c1.9,1.8,3.4,4,4.5,6.5C1412.4,1634.4,1413,1637.1,1413,1639.9z M1408.1,1678.8v133.4H1376v-133.4H1408.1z"/>
</g>
<path class="st2" d="M1355.4,178.1c-115.1,33.1-279.3,173.2-319.8,292.8l20.1,13.2c4.9-21.3,25.7-54.1,47.4-79.4
	c26.8,7.8,21.7,41,32.4,61.7c-15.5,23-43.6,47.4-46.5,60.7c25,36.5,16.7,74.8,15.7,89.8c56.6-14.6,98.9-25.5,151.9,24.2
	c48,45.1,34.8,80.8,32.1,132l51.9,29.1c0,0,27.4-70.8,20-96.2c-13.4-46.6-24.9-71.2-31.5-82.9c13.4,20.1,47.1,67.6,76.9,80.8
	c61.9,27.4,205.2,4.1,205.2,4.1s-7.2-161.2-65.4-208.9c-44.4-36.3-174.6-24.5-174.6-24.5c83.9-12.1,117.3-42.2,165.8-86
	c0,0-121.6-98.3-218.1-90.2c-96.7,8.1-160.8,137.6-160.8,137.6l-22.8-55.9c45.8-77.2,119.8-145.6,244.2-138.5L1355.4,178.1
	L1355.4,178.1z M837.2,276.4c-29.9,0.1-60.2,12.3-91,41c-59.4,57.5-68.6,143.2-20.4,191.1c41,41,110.3,41.3,166.7,4.9
	c-17.6,16.9-32.3,38.4-41.9,63.3c-3.9,9.9-6.7,19.8-8.7,29.7c-5.3-22.8-16-43.1-31.4-58.6c-8-0.5-16.7-1.6-25.7-3.5
	c-29.1-6-51.9-17.4-55.8-27.2c-53.1,3.1-105.9,43.3-129.4,103.9c-29.6,76.6-1.3,156.7,63.5,179c38.6,13.3,81.6,2.9,116.2-24
	c-17.7,16.9-32.5,38.5-42.3,63.7c-2.9,7.5-5.3,15-7,22.5c-5.8-19.7-15.7-37.3-29.5-51.1c-8-0.6-16.7-1.6-25.7-3.5
	c-29.1-6.1-51.9-17.5-55.8-27.4c-53.1,3.2-105.9,43.3-129.4,103.9c-29.6,76.6-1.2,156.7,63.5,179c64.7,22.2,141.2-21.7,170.9-98.3
	c2.9-7.5,5.3-15.2,7-22.7c10.5,35.8,34.8,64.5,69.4,76.5c45.5,15.5,96.5-1.4,133.3-39.2c-0.5,1.2-0.9,2.3-1.4,3.6
	c-29.7,76.6-1.3,156.7,63.4,178.9c64.7,22.3,141.2-21.7,170.9-98.3c22.5-58.1,11.5-118.4-23.4-153.7c-8-0.5-16.7-1.6-25.8-3.5
	c-29-6-51.9-17.5-55.8-27.2c-33,1.9-65.9,18.2-91.7,44.7c0.6-1.2,1.1-2.3,1.5-3.5c22.5-58.3,11.5-118.5-23.5-153.8
	c-8-0.5-16.7-1.6-25.7-3.5c-29.1-6-51.9-17.4-55.8-27.2c-26.1,1.5-52,12-74.6,29.5c17.7-16.9,32.4-38.5,42.2-63.5
	c3.9-10,6.7-20,8.6-29.8c9.2,39.2,34.3,71.1,71.4,83.9c39.8,13.6,84.1,2.3,119.1-26.2c-22,72.5,6.7,145.2,67.9,166.2
	c33.6,11.6,70.3,5.3,102.1-14.1c-14.1,23.8-22.3,52.8-22.3,84.2c0.1,81.5,56,147.6,125,147.7c68.9,0,124.8-65.9,124.7-147.4
	c-0.1-61.9-32.4-115-78.2-136.9c-7.6,2.1-16.2,3.9-25.5,5.1c-29.5,3.6-55.1,0.4-62.4-7.8c-3.3,1.4-6.6,2.9-9.9,4.7
	c6.8-10.3,12.7-21.6,17.4-33.8c22.5-58.1,11.6-118.4-23.4-153.7c-21.5-29.6-62.8-25.7-81.5-30.8c-27.2,1.5-54.5,12.9-77.6,31.8
	c16.4-54,4.6-108.3-27.8-141c-12.2-22.2-41.9-28.8-81.5-30.9c-21.4,1.3-42.6,8.6-61.9,20.7c0.7-0.7,1.5-1.4,2.2-2.2
	c45.1-43.7,61.2-103.6,45.2-150.9C923.7,302.1,881,276.3,837.2,276.4L837.2,276.4z M868.7,287.6c3.6,0,5.6,0.1,5.6,0.1
	s-48.9,15.7-86.7,39c-50,30.8-74.1,98.4-74.1,98.4s4.8-67.2,59-108C807.8,290.6,853,287.7,868.7,287.6L868.7,287.6z M955.3,495.6
	c0,0-38.1,34.9-62.7,71.6C859.9,616.1,867,686.5,867,686.5s-24.5-61.9,7.6-121.3C900.2,517.6,955.3,495.6,955.3,495.6z M704.3,539.8
	c0,0-38.1,34.8-62.7,71.6C609,660.2,616,730.8,616,730.8s-24.5-61.9,7.6-121.4C649.4,561.9,704.3,539.8,704.3,539.8L704.3,539.8z
	 M1142.3,635.6c0,0-38.1,34.9-62.7,71.8c-32.6,48.7-25.7,119.2-25.7,119.2s-24.4-61.9,7.6-121.3
	C1087.2,657.6,1142.3,635.6,1142.3,635.6L1142.3,635.6z M841.7,758.5c0,0-38.1,34.8-62.7,71.6c-32.6,48.7-25.6,119.3-25.6,119.3
	S728.9,887.6,761,828C786.6,780.6,841.7,758.5,841.7,758.5L841.7,758.5z M594.3,803c0,0-38.1,34.9-62.7,71.6
	C498.9,923.5,506,994,506,994s-24.4-61.9,7.6-121.3C539.3,825.1,594.3,803,594.3,803z M1249.5,855.8c0,0-23.1,45.1-32.8,87.6
	c-12.8,56.3,19.5,120.3,19.5,120.3s-45.6-50.3-37.1-116.5C1205.8,894.3,1249.5,855.8,1249.5,855.8z M1037,901.8
	c0,0-38.2,34.9-62.7,71.8c-32.6,48.7-25.7,119.3-25.7,119.3s-24.4-61.9,7.6-121.4C982,923.9,1037,901.8,1037,901.8L1037,901.8z
	 M780.8,1021.1c-49.9,17.3-88.2,70.1-92.2,134.5c-4.9,81.3,46.7,150.4,115.6,154.3s128.6-59,133.6-140.2
	c3.8-61.9-25.1-116.6-69.5-141c-7.8,1.8-16.4,2.9-25.7,3.6C812.8,1034.3,787.5,1029.5,780.8,1021.1L780.8,1021.1z M764.2,1049.5
	c0,0-25.8,43.7-38.2,85.6c-16.3,55.4,12,121.1,12,121.1s-42.4-52.6-29.8-118.3C718.3,1085.5,764.2,1049.5,764.2,1049.5L764.2,1049.5
	z M538,1062.5c-50.9,14.6-92.2,65.3-99.9,129.3c-9.9,81,37.7,152.7,106.2,160.2c68.5,7.4,131.9-52.1,141.8-133.1
	c7.4-61.5-18.2-117.7-61.1-144.3c-7.9,1.3-16.6,2-25.8,2.2C569.3,1077.3,544.2,1071.2,538,1062.5z M519.8,1089.9
	c0,0-28.3,42.2-43.1,83.4c-19.6,54.6,4.7,121.7,4.7,121.7s-39.2-54.8-22.8-119.7C471.8,1123.4,519.8,1089.9,519.8,1089.9
	L519.8,1089.9z"/>
</svg>
