<?xml version="1.0" encoding="utf-8"?>
<!-- Generator: Adobe Illustrator 23.0.2, SVG Export Plug-In . SVG Version: 6.00 Build 0)  -->
<svg version="1.1" id="Calque_1" xmlns="http://www.w3.org/2000/svg" xmlns:xlink="http://www.w3.org/1999/xlink" x="0px" y="0px"
	 viewBox="0 0 2048 2048" style="enable-background:new 0 0 2048 2048;" xml:space="preserve">
<style type="text/css">
	.st0{fill:url(#SVGID_1_);}
	.st1{fill:#DCDCDC;}
	.st2{fill:#333333;stroke:#333333;}
	.st3{fill:#333333;}
</style>
<g>
	
		<linearGradient id="SVGID_1_" gradientUnits="userSpaceOnUse" x1="1024" y1="1560.5" x2="1024" y2="3583.5" gradientTransform="matrix(1 0 0 -1 0 3596)">
		<stop  offset="0" style="stop-color:#E8E8E8"/>
		<stop  offset="1" style="stop-color:#F9F9F9"/>
	</linearGradient>
	<path class="st0" d="M50,2035.5c-20.7000008,0-37.5-16.8000488-37.5-37.5V50c0-20.7000008,16.7999992-37.5,37.5-37.5h1948
		c20.6999512,0,37.5,16.7999992,37.5,37.5v1948c0,20.6999512-16.8000488,37.5-37.5,37.5H50z"/>
	<path class="st1" d="M1998,25c13.8000488,0,25,11.2000008,25,25v1948c0,13.8000488-11.1999512,25-25,25H50
		c-13.7999992,0-25-11.1999512-25-25V50c0-13.7999992,11.2000008-25,25-25H1998 M1998,0H50C22.5,0,0,22.5,0,50v1948
		c0,27.5,22.5,50,50,50h1948c27.5,0,50-22.5,50-50V50C2048,22.5,2025.5,0,1998,0L1998,0z"/>
</g>
<g>
	<path class="st2" d="M808.5999146,1812.1999512h-27c-3,0-5.5-0.8000488-7.5-2.3000488s-3.4000244-3.4000244-4.1999512-5.6999512
		l-14-38.3000488H677.999939l-14,38.3000488c-0.6999512,2-2.0999756,3.8000488-4.0999756,5.5c-2,1.5999756-4.5,2.5-7.5,2.5
		h-27.2000732l73.8000488-188h35.8000488L808.5999146,1812.1999512z M686.999939,1741.1999512h59.9000244l-22.9000244-62.5
		c-1-2.8000488-2.1999512-6-3.4000244-9.8000488c-1.3000488-3.8000488-2.5-7.9000244-3.6999512-12.3000488
		c-1.1999512,4.4000244-2.4000244,8.5-3.5999756,12.4000244c-1.1999512,3.8000488-2.3000488,7.0999756-3.4000244,10
		L686.999939,1741.1999512z"/>
	<path class="st2" d="M919.8998413,1707c-1,1.1999512-1.9000244,2.1999512-2.8000488,2.9000244
		c-0.9000244,0.6999512-2.1999512,1-4,1c-1.5999756,0-3.1999512-0.5-4.8000488-1.5
		c-1.5999756-1-3.4000244-2.0999756-5.5999756-3.4000244s-4.6999512-2.4000244-7.6999512-3.4000244s-6.6999512-1.5-11.0999756-1.5
		c-5.5999756,0-10.5999756,1-14.8000488,3.0999756c-4.1999512,2-7.8000488,5-10.5999756,8.8000488
		c-2.8000488,3.8000488-4.9000244,8.4000244-6.3000488,13.8000488s-2.0999756,11.5-2.0999756,18.4000244
		c0,7.0999756,0.8000488,13.4000244,2.3000488,19c1.5,5.5,3.6999512,10.1999512,6.5999756,14
		s6.3000488,6.5999756,10.4000244,8.5999756s8.6999512,2.9000244,13.8000488,2.9000244
		c5.0999756,0,9.1999512-0.5999756,12.4000244-1.9000244c3.1999512-1.3000488,5.8000488-2.5999756,8-4.1999512
		c2.1999512-1.5,4.0999756-2.9000244,5.6999512-4.1999512c1.5999756-1.3000488,3.4000244-1.9000244,5.4000244-1.9000244
		c2.5999756,0,4.5,1,5.8000488,3l9.1999512,11.6999512c-3.5999756,4.1999512-7.4000244,7.6999512-11.5999756,10.5
		s-8.5,5.0999756-12.9000244,6.8000488c-4.5,1.6999512-9.0999756,2.9000244-13.8000488,3.5999756
		c-4.8000488,0.6999512-9.5,1-14.1999512,1c-8.1999512,0-16-1.5-23.3000488-4.5999756s-13.5999756-7.5999756-19-13.5
		s-9.6999512-13.0999756-12.9000244-21.5999756c-3.1999512-8.5-4.6999512-18.3000488-4.6999512-29.1999512
		c0-9.8000488,1.4000244-18.9000244,4.1999512-27.1999512c2.8000488-8.4000244,7-15.5999756,12.4000244-21.6999512
		c5.5-6.0999756,12.1999512-10.9000244,20.3000488-14.4000244c8.0999756-3.5,17.3000488-5.1999512,27.8000488-5.1999512
		c10,0,18.6999512,1.5999756,26.1999512,4.8000488c7.5,3.1999512,14.1999512,7.8000488,20.1999512,13.8000488L919.8998413,1707z"/>
	<path class="st2" d="M950.1998901,1812.1999512V1619h32.0999756v74.1999512
		c5.1999512-4.9000244,10.9000244-8.9000244,17.1999512-12c6.1999512-3,13.5999756-4.5,22-4.5
		c7.2999878,0,13.6998901,1.1999512,19.4000854,3.6999512c5.5998535,2.5,10.3000488,5.9000244,14.0998535,10.4000244
		c3.8000488,4.5,6.6000977,9.8000488,8.6000977,16c1.8999023,6.1999512,2.8999023,13,2.8999023,20.5v84.9000244h-32.0998535
		v-84.9000244c0-8.0999756-1.9001465-14.5-5.6999512-18.9000244c-3.8000488-4.5-9.4000854-6.6999512-17.000061-6.6999512
		c-5.5,0-10.6999512,1.3000488-15.5999756,3.8000488s-9.4000244,5.9000244-13.8000488,10.3000488v96.5h-32.0999756V1812.1999512z"/>
	<path class="st2" d="M1202.5,1812.1999512h-14.4001465c-3,0-5.3999023-0.5-7.1999512-1.4000244
		c-1.6999512-0.9000244-3-2.8000488-3.8999023-5.5l-2.9001465-9.5c-3.3999023,3-6.6999512,5.6999512-9.8999023,8
		s-6.6000977,4.1999512-10.1000977,5.8000488c-3.5,1.5999756-7.1999512,2.6999512-11.0998535,3.5
		c-3.9001465,0.8000488-8.1999512,1.1999512-13,1.1999512c-5.6000977,0-10.8000488-0.8000488-15.6000977-2.3000488
		s-8.8999023-3.8000488-12.3000488-6.8000488c-3.3999023-3-6.0998535-6.8000488-8-11.3000488
		c-1.8999023-4.5-2.8999023-9.8000488-2.8999023-15.8000488c0-5,1.3000488-10,4-14.9000244
		c2.5998535-4.9000244,7-9.3000488,13.1999512-13.3000488s14.3000488-7.1999512,24.5998535-9.8000488
		c10.1999512-2.5999756,22.9001465-3.9000244,38.1000977-3.9000244v-7.9000244c0-9-1.9001465-15.6999512-5.6999512-20
		c-3.8000488-4.3000488-9.3000488-6.5-16.4001465-6.5c-5.1999512,0-9.5,0.5999756-13,1.8000488
		c-3.5,1.1999512-6.5,2.5999756-9,4.0999756c-2.5998535,1.5-4.8999023,2.9000244-7.0998535,4.0999756
		s-4.5,1.8000488-7.1000977,1.8000488c-2.1999512,0-4-0.5999756-5.5998535-1.6999512
		c-1.6000977-1.0999756-2.8000488-2.5-3.8000488-4.1999512l-5.9001465-10.3000488
		c15.3000488-14,33.8000488-21.0999756,55.5-21.0999756c7.8000488,0,14.8000488,1.3000488,20.9001465,3.8000488
		c6.0998535,2.5999756,11.3000488,6.0999756,15.5,10.6999512c4.1999512,4.5,7.5,10,9.6999512,16.3000488
		s3.3000488,13.3000488,3.3000488,20.8000488v84.3001709H1202.5z M1140.0998535,1792.1999512
		c3.3000488,0,6.3000488-0.3000488,9.1000977-0.9000244s5.3999023-1.5,7.8999023-2.6999512s4.9001465-2.6999512,7.1000977-4.4000244
		c2.3000488-1.6999512,4.5998535-3.8000488,7-6.1999512v-22.3000488c-9.4001465,0-17.1999512,0.5999756-23.5,1.8000488
		c-6.3000488,1.1999512-11.3000488,2.6999512-15.1000977,4.5s-6.5,4-8.0998535,6.4000244
		c-1.6000977,2.4000244-2.4001465,5.0999756-2.4001465,8c0,5.6999512,1.6999512,9.6999512,5,12.1999512
		C1130.3999023,1791,1134.7998047,1792.1999512,1140.0998535,1792.1999512z"/>
	<path class="st2" d="M1277.8999023,1814.3000488c-11.5,0-20.4001465-3.3000488-26.6999512-9.8000488
		c-6.1999512-6.5-9.4001465-15.5999756-9.4001465-27.0999756v-74.5h-13.5c-1.6999512,0-3.1999512-0.5999756-4.5-1.6999512
		s-1.8999023-2.8000488-1.8999023-5.0999756v-12.6999512l21.5-3.5l6.8000488-36.4000244
		c0.3000488-1.6999512,1.0998535-3.0999756,2.3999023-4c1.3000488-1,2.8000488-1.4000244,4.6999512-1.4000244h16.6000977v42
		h35.0998535v22.9000244h-35.0998535v72.3000488c0,4.1999512,1,7.4000244,3.0998535,9.8000488
		c2.1000977,2.3000488,4.9001465,3.5,8.3000488,3.5c2,0,3.6999512-0.1999512,5-0.6999512s2.5-1,3.5-1.5s1.9001465-1,2.6999512-1.5
		c0.8000488-0.5,1.6000977-0.6999512,2.3000488-0.6999512c1,0,1.6999512,0.1999512,2.3000488,0.6999512
		s1.3000488,1.1999512,1.9001465,2.0999756l9.5998535,15.5999756c-4.6999512,3.9000244-10.0998535,6.8000488-16.0998535,8.8000488
		C1290.6999512,1813.3000488,1284.3999023,1814.3000488,1277.8999023,1814.3000488z"/>
	<path class="st2" d="M1413.8999023,1704.8000488c-0.9001465,1.4000244-1.8000488,2.4000244-2.6999512,2.9000244
		c-1,0.5999756-2.1999512,0.8000488-3.6000977,0.8000488c-1.5998535,0-3.1999512-0.4000244-5-1.3000488
		s-3.8000488-1.8000488-6.1999512-2.9000244c-2.3000488-1.0999756-5-2.0999756-8-2.9000244
		c-3-0.9000244-6.5-1.3000488-10.5998535-1.3000488c-6.3000488,0-11.3000488,1.3000488-14.9001465,4
		c-3.5998535,2.6999512-5.5,6.1999512-5.5,10.5c0,2.9000244,0.9001465,5.3000488,2.8000488,7.1999512
		c1.9001465,2,4.3000488,3.6999512,7.4001465,5.0999756c3.0998535,1.5,6.5998535,2.8000488,10.5,4
		c3.8999023,1.1999512,7.8999023,2.5,12,3.8000488c4.0998535,1.4000244,8.0998535,3,12,4.6999512
		c3.8999023,1.8000488,7.3999023,4,10.5,6.8000488c3.0998535,2.6999512,5.5,6,7.3999023,9.8000488
		c1.9001465,3.8000488,2.8000488,8.4000244,2.8000488,13.8000488c0,6.4000244-1.1999512,12.3000488-3.5,17.6999512
		C1417,1792.9000244,1413.5,1797.5999756,1409,1801.5s-10.0998535,7-16.6999512,9.1999512
		C1385.7001953,1812.8999023,1378.1000977,1814,1369.5,1814c-4.5998535,0-9.0998535-0.4000244-13.5-1.1999512
		c-4.3999023-0.8000488-8.5998535-2-12.5998535-3.4000244c-4-1.5-7.8000488-3.1999512-11.1999512-5.1999512
		c-3.4001465-2-6.4001465-4.1999512-9-6.5l7.3999023-12.1999512c1-1.5,2.1000977-2.5999756,3.4001465-3.4000244
		s2.8999023-1.1999512,4.8999023-1.1999512s3.9001465,0.5999756,5.6999512,1.6999512
		c1.8000488,1.0999756,3.8000488,2.3000488,6.1999512,3.5999756s5.1000977,2.5,8.3000488,3.5999756
		s7.1999512,1.6999512,12,1.6999512c3.8000488,0,7.1000977-0.5,9.8000488-1.4000244
		c2.7001953-0.9000244,5-2.0999756,6.8000488-3.5999756s3.1000977-3.1999512,3.9001465-5.0999756
		c0.8000488-2,1.1999512-4,1.1999512-6c0-3.0999756-0.9001465-5.6999512-2.8000488-7.6999512
		c-1.9001465-2-4.3000488-3.6999512-7.4001465-5.1999512c-3.0998535-1.5-6.5998535-2.8000488-10.5-4
		c-3.8999023-1.1999512-8-2.4000244-12.0998535-3.8000488c-4.1000977-1.4000244-8.1000977-3-12.1000977-4.9000244
		c-3.8999023-1.9000244-7.5-4.1999512-10.5-7.0999756s-5.5-6.4000244-7.3999023-10.5
		c-1.9001465-4.0999756-2.8000488-9.1999512-2.8000488-15.0999756c0-5.5,1.0998535-10.6999512,3.1999512-15.5999756
		c2.1999512-4.9000244,5.3999023-9.1999512,9.5998535-12.9000244c4.1999512-3.6999512,9.4001465-6.5999756,15.6999512-8.8000488
		C1362,1677.6000977,1369.1999512,1676.5,1377.5,1676.5c9.1999512,0,17.6000977,1.5,25.1000977,4.5s13.8000488,7,18.8000488,12
		L1413.8999023,1704.8000488z"/>
</g>
<path class="st3" d="M879.6613159,1195.9293213c0,52.645874-43.4900513,96.2706299-96.1359863,96.2706299
	s-96.1359863-43.6247559-96.1359863-96.2706299s43.6246948-96.1359863,96.1359863-96.1359863
	C836.0365601,1099.793335,879.6613159,1143.4180908,879.6613159,1195.9293213z M1552.8826904,1195.9293213
	c0,52.645874-43.4901123,96.2706299-96.1361084,96.2706299s-96.1359863-43.6247559-96.1359863-96.2706299
	s43.6247559-96.1359863,96.1359863-96.1359863S1552.8826904,1143.4180908,1552.8826904,1195.9293213z M1649.1533203,378.5039978
	v384.6786804c0,24.1013794-18.8502197,45.105835-42.8168945,48.0680542l-784.4375,91.692688
	c3.7700195,17.2344971,9.694397,34.6036377,9.694397,52.645874c0,17.2344971-10.5021973,32.987854-18.0422974,48.0680542
	h691.2636719c26.3902588,0,48.0679932,21.8123779,48.0679932,48.0679932s-21.6776123,48.0679932-48.0679932,48.0679932H735.4572754
	c-26.2556152,0-48.0679932-21.8123779-48.0679932-48.0679932c0-23.293457,33.7957153-79.7094116,45.7790527-103.0028687
	l-132.8938599-618.286499H446.9146423c-26.2556458,0-48.0679932-21.8123474-48.0679932-48.0679932
	c0-26.2556152,21.8123474-48.0679932,48.0679932-48.0679932h192.4066467c50.3569336,0,51.8380737,60.0513611,59.3781738,96.1359863
	h902.3858643C1627.3409424,330.4359741,1649.1533203,352.2483521,1649.1533203,378.5039978L1649.1533203,378.5039978z"/>
</svg>
