<?xml version="1.0" encoding="utf-8"?>
<!-- Generator: Adobe Illustrator 23.0.2, SVG Export Plug-In . SVG Version: 6.00 Build 0)  -->
<svg version="1.1" id="Calque_1" xmlns="http://www.w3.org/2000/svg" xmlns:xlink="http://www.w3.org/1999/xlink" x="0px" y="0px"
	 viewBox="0 0 660 700" style="enable-background:new 0 0 660 700;" xml:space="preserve">
<style type="text/css">
	.st0{fill:#8CC63F;}
</style>
<path class="st0" d="M658.8278198,196.3822784c0,10.6441345-4.2576904,21.288269-11.8605957,28.8912354L339.7317505,532.4329224
	l-57.7064514,57.7064819C274.4223633,597.8183594,263.7782288,602,253.2101135,602
	c-10.5681,0-21.2122498-4.1816406-28.8912354-11.8605957l-57.6304016-57.7064819L13.0327253,378.853241
	c-7.6029568-7.6029663-11.860611-18.2471008-11.860611-28.8152466c0-10.5681152,4.2576542-21.2122192,11.860611-28.8912354
	l57.7064323-57.7064209c7.6789932-7.602951,18.2470932-11.860611,28.8912354-11.860611s21.2122421,4.2576599,28.8151932,11.860611
	l124.7645264,125.1446533l278.3442688-278.7243652C539.1573486,102.2576599,549.8014526,98,560.3696289,98
	c10.5681152,0,21.2122192,4.2576599,28.8912354,11.8606186l57.7064209,57.7064285
	c7.6029663,7.6029663,11.8605957,18.2471008,11.8605957,28.8152008L658.8278198,196.3822784z"/>
</svg>
