<?xml version="1.0" encoding="utf-8"?>
<!-- Generator: Adobe Illustrator 24.3.0, SVG Export Plug-In . SVG Version: 6.00 Build 0)  -->
<svg version="1.1" id="Calque_1" xmlns="http://www.w3.org/2000/svg" xmlns:xlink="http://www.w3.org/1999/xlink" x="0px" y="0px"
	 viewBox="0 0 2048 2048" style="enable-background:new 0 0 2048 2048;" xml:space="preserve">
<style type="text/css">
	.st0{fill:url(#SVGID_1_);}
	.st1{fill:#DCDCDC;}
	.st2{fill:#333333;}
</style>
<g>
	
		<linearGradient id="SVGID_1_" gradientUnits="userSpaceOnUse" x1="1024" y1="-4104.1533" x2="1024" y2="-6127.1533" gradientTransform="matrix(1 0 0 1 0 6139.6533)">
		<stop  offset="0" style="stop-color:#E8E8E8"/>
		<stop  offset="1" style="stop-color:#F9F9F9"/>
	</linearGradient>
	<path class="st0" d="M50,2035.5c-20.7,0-37.5-16.8-37.5-37.5V50c0-20.7,16.8-37.5,37.5-37.5h1948c20.7,0,37.5,16.8,37.5,37.5v1948
		c0,20.7-16.8,37.5-37.5,37.5H50z"/>
	<path class="st1" d="M1998,25c13.8,0,25,11.2,25,25v1948c0,13.8-11.2,25-25,25H50c-13.8,0-25-11.2-25-25V50c0-13.8,11.2-25,25-25
		H1998 M1998,0H50C22.5,0,0,22.5,0,50v1948c0,27.5,22.5,50,50,50h1948c27.5,0,50-22.5,50-50V50C2048,22.5,2025.5,0,1998,0L1998,0z"
		/>
</g>
<path class="st2" d="M1024,1293.8c149.1,0,269.9-120.8,269.9-269.9V574.2c0-149.1-120.8-269.9-269.9-269.9S754.1,425.1,754.1,574.2
	V1024C754.1,1172.9,874.9,1293.8,1024,1293.8z M1473.8,844.1h-45c-24.9,0-45,20.1-45,45V1024c0,210.2-181.3,378.9-395.7,358
	c-187-18.3-323.9-186.2-323.9-374.1V889.1c0-24.9-20.1-45-45-45h-45c-24.9,0-45,20.1-45,45V1002c0,252,179.8,476.7,427.3,510.7v96
	H799.1c-24.9,0-45,20.1-45,45v45c0,24.9,20.1,45,45,45h449.8c24.9,0,45-20.1,45-45v-45c0-24.9-20.1-45-45-45h-157.4v-95
	c240.9-33.1,427.3-239.8,427.3-489.7V889C1518.7,864.1,1498.7,844.1,1473.8,844.1z"/>
</svg>
