<?xml version="1.0" encoding="utf-8"?>
<!-- Generator: Adobe Illustrator 23.0.6, SVG Export Plug-In . SVG Version: 6.00 Build 0)  -->
<svg version="1.1" id="Calque_1" xmlns="http://www.w3.org/2000/svg" xmlns:xlink="http://www.w3.org/1999/xlink" x="0px" y="0px"
	 viewBox="0 0 2048 2048" style="enable-background:new 0 0 2048 2048;" xml:space="preserve">
<style type="text/css">
	.st0{fill:url(#SVGID_1_);}
	.st1{fill:#DCDCDC;}
	.st2{fill:#333333;}
</style>
<g>
	
		<linearGradient id="SVGID_1_" gradientUnits="userSpaceOnUse" x1="1024" y1="3108.5" x2="1024" y2="5131.5" gradientTransform="matrix(1 0 0 -1 0 5144)">
		<stop  offset="0" style="stop-color:#E8E8E8"/>
		<stop  offset="1" style="stop-color:#F9F9F9"/>
	</linearGradient>
	<path class="st0" d="M50,2035.5c-20.7,0-37.5-16.8-37.5-37.5V50c0-20.7,16.8-37.5,37.5-37.5h1948c20.7,0,37.5,16.8,37.5,37.5v1948
		c0,20.7-16.8,37.5-37.5,37.5H50z"/>
	<path class="st1" d="M1998,25c13.8,0,25,11.2,25,25v1948c0,13.8-11.2,25-25,25H50c-13.8,0-25-11.2-25-25V50c0-13.8,11.2-25,25-25
		H1998 M1998,0H50C22.5,0,0,22.5,0,50v1948c0,27.5,22.5,50,50,50h1948c27.5,0,50-22.5,50-50V50C2048,22.5,2025.5,0,1998,0L1998,0z"
		/>
</g>
<path class="st2" d="M1468.8,682.5c-48.1,19-106.3,37.2-164.2,47.5v155.3c57.3-9.4,110.6-29.5,164.2-50.7V682.5z M1468.8,1136.9
	v-152c-35.9,22.7-100.1,46-164.2,54.5v154C1370.2,1186.6,1429.9,1161.5,1468.8,1136.9z M647.6,875c34.6-21.8,100.3-44.3,164.2-53.5
	v-155c-65.7,6.8-125.3,31.9-164.2,56.5V875z M647.6,1160.5c49.4-16.5,107.6-28,164.2-34.2V972.9c-55.6,5.8-111.2,18-164.2,35.5
	V1160.5z M1140.3,1025.5c-53.7-14.8-106.1-35.5-164.2-47.5v149.1c59.2,10.1,111.2,29.9,164.2,45.8V1025.5
	c58.8,16.3,106.3,21.6,164.2,13.9V885.2c-52.2,8.6-103.9,7.7-164.2-5.3L1140.3,1025.5z M1498.5,557.4
	c-78.7,36.6-184.6,78.9-285.5,78.9c-121.3,0-218.1-74.2-367.6-74.2c-60.9,0-114.8,11.3-164.7,30.8c8.8-63.5-42.1-118.7-105.6-116.3
	c-52.6,2.1-95.6,44.5-98.4,96.9c-2.6,47.3,26.7,87.9,68.2,102.6v869.7c0,14.1,11.5,25.7,25.7,25.7h17.1c14.1,0,25.7-11.5,25.7-25.7
	v-260c67.1-31,154.2-62.2,290.2-62.2c121,0,217.9,74.2,367.4,74.2c109.7,0,196.5-36.8,278-92c14.1-9.6,22.5-25.4,22.5-42.6V603.8
	C1571.4,566.4,1532.5,541.6,1498.5,557.4z M579.2,622c-23.5,0-42.8-19.2-42.8-42.8s19.2-42.8,42.8-42.8s42.8,19.2,42.8,42.8
	S602.7,622,579.2,622z M1503,1155.1c-49.4,35.7-137.9,74.2-232,74.2c-136,0-231.4-74.2-367.4-74.2c-98.4,0-218.8,21.8-290.2,55.6
	v-506c49.4-35.7,137.9-74.2,232-74.2c136,0,231.4,74.2,367.4,74.2c98.2,0,218.6-40.2,290.2-74.2V1155.1z M1140.3,732.6
	c-59.2-10.1-111.8-30.4-164.2-45.8V832c54.1,14.3,106.1,35.1,164.2,47.9V732.6z M811.8,821.3v151.6c73.1-7.7,120.2-3.6,164.2,5.3
	V832C912.6,815.3,866.4,813.4,811.8,821.3L811.8,821.3z"/>
</svg>
