<?xml version="1.0" encoding="utf-8"?>
<!-- Generator: Adobe Illustrator 24.3.0, SVG Export Plug-In . SVG Version: 6.00 Build 0)  -->
<svg version="1.1" id="Calque_1" xmlns="http://www.w3.org/2000/svg" xmlns:xlink="http://www.w3.org/1999/xlink" x="0px" y="0px"
	 viewBox="0 0 2048 2048" style="enable-background:new 0 0 2048 2048;" xml:space="preserve">
<style type="text/css">
	.st0{fill:url(#SVGID_1_);}
	.st1{fill:#DCDCDC;}
	.st2{fill:#333333;}
</style>
<g>
	
		<linearGradient id="SVGID_1_" gradientUnits="userSpaceOnUse" x1="1024" y1="3108.5" x2="1024" y2="5131.5" gradientTransform="matrix(1 0 0 -1 0 5144)">
		<stop  offset="0" style="stop-color:#E8E8E8"/>
		<stop  offset="1" style="stop-color:#F9F9F9"/>
	</linearGradient>
	<path class="st0" d="M50,2035.5c-20.7,0-37.5-16.8-37.5-37.5V50c0-20.7,16.8-37.5,37.5-37.5h1948c20.7,0,37.5,16.8,37.5,37.5v1948
		c0,20.7-16.8,37.5-37.5,37.5H50z"/>
	<path class="st1" d="M1998,25c13.8,0,25,11.2,25,25v1948c0,13.8-11.2,25-25,25H50c-13.8,0-25-11.2-25-25V50c0-13.8,11.2-25,25-25
		H1998 M1998,0H50C22.5,0,0,22.5,0,50v1948c0,27.5,22.5,50,50,50h1948c27.5,0,50-22.5,50-50V50C2048,22.5,2025.5,0,1998,0L1998,0z"
		/>
</g>
<g>
	<path class="st2" d="M715.5,769.5h-252c-29.7,0-54-24.3-54-54v-252c0-29.7,24.3-54,54-54h252c29.7,0,54,24.3,54,54v252
		C769.5,745.2,745.2,769.5,715.5,769.5z"/>
	<path class="st2" d="M1150,769.5H898c-29.7,0-54-24.3-54-54v-252c0-29.7,24.3-54,54-54h252c29.7,0,54,24.3,54,54v252
		C1204,745.2,1179.7,769.5,1150,769.5z"/>
	<path class="st2" d="M1584.5,769.5h-252c-29.7,0-54-24.3-54-54v-252c0-29.7,24.3-54,54-54h252c29.7,0,54,24.3,54,54v252
		C1638.5,745.2,1614.2,769.5,1584.5,769.5z"/>
	<path class="st2" d="M769.5,1332.5v252c0,29.7-24.3,54-54,54h-252c-29.7,0-54-24.3-54-54v-252c0-29.7,24.3-54,54-54h252
		C745.2,1278.5,769.5,1302.8,769.5,1332.5z"/>
	<path class="st2" d="M769.5,898v252c0,29.7-24.3,54-54,54h-252c-29.7,0-54-24.3-54-54V898c0-29.7,24.3-54,54-54h252
		C745.2,844,769.5,868.3,769.5,898z"/>
	<path class="st2" d="M1638.5,1332.5v252c0,29.7-24.3,54-54,54h-252c-29.7,0-54-24.3-54-54v-252c0-29.7,24.3-54,54-54h252
		C1614.2,1278.5,1638.5,1302.8,1638.5,1332.5z"/>
	<path class="st2" d="M1638.5,898v252c0,29.7-24.3,54-54,54h-252c-29.7,0-54-24.3-54-54V898c0-29.7,24.3-54,54-54h252
		C1614.2,844,1638.5,868.3,1638.5,898z"/>
	<path class="st2" d="M1204,1332.5v252c0,29.7-24.3,54-54,54H898c-29.7,0-54-24.3-54-54v-252c0-29.7,24.3-54,54-54h252
		C1179.7,1278.5,1204,1302.8,1204,1332.5z"/>
	<path class="st2" d="M1204,898v252c0,29.7-24.3,54-54,54H898c-29.7,0-54-24.3-54-54V898c0-29.7,24.3-54,54-54h252
		C1179.7,844,1204,868.3,1204,898z"/>
</g>
</svg>
