<?xml version="1.0" encoding="utf-8"?>
<!-- Generator: Adobe Illustrator 24.0.2, SVG Export Plug-In . SVG Version: 6.00 Build 0)  -->
<svg version="1.1" id="Calque_1" xmlns="http://www.w3.org/2000/svg" xmlns:xlink="http://www.w3.org/1999/xlink" x="0px" y="0px"
	 viewBox="0 0 500 500" style="enable-background:new 0 0 500 500;" xml:space="preserve">
<style type="text/css">
	.st0{fill:#476BA8;}
	.st1{fill:#FFFFFF;}
	.st2{fill:#E9E9E0;}
	.st3{fill:#CC4B4C;}
</style>
<circle class="st0" cx="250" cy="250" r="250"/>
<g>
	<path class="st1" d="M87.9453125,81.6411133l4.9042969,4.4677734l-13.3813477,14.6899414l9.8085938,8.9345703
		l11.2939453-12.3979492l4.9272461,4.4882812l-11.2939453,12.3979492l13.4980469,12.2958984l-5.6572266,6.2109375
		l-33.1381836-30.1865234L87.9453125,81.6411133z"/>
	<path class="st1" d="M132.4326172,102.7788086l-6.4194336,5.3710938L97.2495117,73.7695312l6.4194336-5.3710938
		L132.4326172,102.7788086z"/>
	<path class="st1" d="M159.5009766,72.2094727c0.3881836-0.2353516,0.8154297-0.2885742,1.2802734-0.159668l4.6582031,1.3457031
		c-0.3876953,2.8691406-1.4067383,5.5048828-3.0566406,7.9057617c-1.6499023,2.4018555-4.0654297,4.5664062-7.246582,6.4946289
		c-2.8457031,1.7246094-5.6987305,2.7890625-8.5585938,3.1933594c-2.8603516,0.4047852-5.6196289,0.2285156-8.2773438-0.5292969
		c-2.6582031-0.7573242-5.1445312-2.0776367-7.4584961-3.9624023c-2.3139648-1.8833008-4.3330078-4.2485352-6.0576172-7.0942383
		c-1.7456055-2.8808594-2.8671875-5.8076172-3.3647461-8.78125c-0.496582-2.9731445-0.4042969-5.8505859,0.277832-8.6328125
		c0.6826172-2.78125,1.9379883-5.3847656,3.7666016-7.8105469c1.8291016-2.425293,4.2011719-4.5219727,7.1176758-6.2890625
		c2.8452148-1.7246094,5.6088867-2.7768555,8.2900391-3.1577148c2.6816406-0.3803711,5.2373047-0.2797852,7.6679688,0.3007812
		l-0.3774414,4.7597656c-0.0131836,0.2978516-0.0820312,0.5932617-0.2060547,0.8862305
		c-0.125,0.2929688-0.3818359,0.5576172-0.7700195,0.7929688c-0.4067383,0.246582-0.918457,0.3388672-1.5351562,0.277832
		c-0.6171875-0.0610352-1.3652344-0.0786133-2.2441406-0.0537109c-0.8789062,0.0253906-1.9140625,0.1816406-3.1054688,0.4682617
		c-1.1914062,0.2871094-2.5556641,0.8964844-4.0932617,1.8286133c-1.8027344,1.0927734-3.2695312,2.4106445-4.4003906,3.9536133
		c-1.1308594,1.543457-1.8862305,3.2275391-2.2666016,5.0527344c-0.3798828,1.8256836-0.3686523,3.7578125,0.0341797,5.7978516
		c0.4023438,2.0395508,1.2358398,4.1025391,2.4995117,6.1879883c1.3071289,2.15625,2.7739258,3.8891602,4.4013672,5.1982422
		c1.6274414,1.3100586,3.3100586,2.2231445,5.0493164,2.7397461c1.7392578,0.5170898,3.5,0.6518555,5.2841797,0.4042969
		c1.7832031-0.2470703,3.487793-0.8632812,5.1137695-1.8491211c0.972168-0.5888672,1.8193359-1.1748047,2.5415039-1.7578125
		c0.722168-0.5825195,1.3452148-1.1894531,1.8686523-1.8212891c0.5239258-0.6308594,0.9716797-1.3071289,1.3442383-2.0288086
		c0.3725586-0.7207031,0.6894531-1.5234375,0.9516602-2.4072266c0.0800781-0.2661133,0.1879883-0.5063477,0.3237305-0.7216797
		C159.0883789,72.5263672,159.2709961,72.3491211,159.5009766,72.2094727z"/>
	<path class="st1" d="M207.4287109,65.496582l-7.956543,2.6962891l-6.2875977-18.5561523l-19.90625,6.7451172L179.5654297,74.9375
		l-7.956543,2.6958008l-14.3847656-42.4550781l7.956543-2.6958008l6.1875,18.262207l19.9067383-6.7451172l-6.1879883-18.2617188
		l7.956543-2.6962891L207.4287109,65.496582z"/>
	<path class="st1" d="M223.6875,63.4243164l-8.262207,1.3413086l-7.1835938-44.246582l8.2617188-1.3417969L223.6875,63.4243164z"/>
	<path class="st1" d="M259.3671875,16.5322266l0.1582031,6.6318359l-19.8652344,0.4755859l0.2978516,12.4277344l15.6503906-0.375
		l0.1533203,6.4150391l-15.6503906,0.375l0.3037109,12.675293l19.8652344-0.4755859l0.1601562,6.6630859l-28.2641602,0.6767578
		l-1.0732422-44.8129883L259.3671875,16.5322266z"/>
	<path class="st1" d="M276.4443359,45.6914062l-2.8291016,17.2851562l-8.2294922-1.3466797l7.2402344-44.237793
		l13.4912109,2.2084961c3.0185547,0.4936523,5.5527344,1.2280273,7.6025391,2.2021484
		c2.0498047,0.9746094,3.671875,2.1352539,4.8642578,3.4819336c1.1933594,1.347168,1.9833984,2.8535156,2.3710938,4.519043
		c0.3867188,1.6650391,0.4267578,3.4360352,0.1191406,5.3125c-0.2431641,1.4887695-0.6933594,2.8603516-1.3486328,4.1142578
		s-1.484375,2.3540039-2.4873047,3.2993164c-1.0029297,0.9462891-2.1787109,1.7275391-3.5253906,2.3442383
		c-1.3466797,0.6176758-2.8359375,1.0439453-4.4658203,1.2797852c0.9433594,0.7617188,1.7021484,1.7548828,2.2773438,2.9799805
		l8.4003906,18.1489258l-7.4033203-1.2114258c-0.7138672-0.1171875-1.2978516-0.3588867-1.75-0.7265625
		c-0.453125-0.3671875-0.8095703-0.8442383-1.0693359-1.4316406l-6.9824219-15.6865234
		c-0.2597656-0.5869141-0.5810547-1.0268555-0.9619141-1.3198242c-0.3818359-0.2924805-0.9804688-0.5058594-1.7958984-0.6391602
		L276.4443359,45.6914062z M277.4101562,39.7871094l5.1396484,0.8413086c1.5498047,0.253418,2.9326172,0.28125,4.1494141,0.0820312
		c1.2148438-0.1987305,2.2509766-0.5786133,3.1074219-1.1401367s1.5449219-1.28125,2.0654297-2.159668
		c0.5205078-0.8774414,0.8730469-1.8774414,1.0566406-2.9995117c0.3671875-2.2431641-0.0908203-4.0874023-1.3720703-5.5332031
		c-1.2822266-1.4453125-3.4423828-2.4169922-6.4804688-2.9140625l-5.2626953-0.8613281L277.4101562,39.7871094z"/>
	<path class="st1" d="M328.1650391,61.2666016l-6.4882812,14.3833008l-7.6015625-3.4291992l18.4326172-40.8608398
		l13.3095703,6.0039062c2.7304688,1.2319336,4.9501953,2.6191406,6.6591797,4.1601562
		c1.7070312,1.5410156,2.9521484,3.1801758,3.734375,4.9150391c0.78125,1.7358398,1.1210938,3.5444336,1.0205078,5.4257812
		c-0.1005859,1.8818359-0.5800781,3.7744141-1.4384766,5.6767578c-0.8916016,1.9780273-2.0400391,3.6425781-3.4423828,4.9936523
		c-1.4033203,1.3510742-3.0322266,2.3222656-4.8857422,2.9145508c-1.8544922,0.5917969-3.9189453,0.7714844-6.1943359,0.5385742
		s-4.7412109-0.9487305-7.3974609-2.1469727L328.1650391,61.2666016z M330.8417969,55.3325195l5.7080078,2.574707
		c1.3935547,0.6289062,2.6875,1.0029297,3.8808594,1.121582s2.2763672,0.0063477,3.2470703-0.3378906
		c0.9716797-0.34375,1.8369141-0.9057617,2.5966797-1.6850586c0.7597656-0.7797852,1.3994141-1.7441406,1.9179688-2.8930664
		c0.4921875-1.0922852,0.7685547-2.1582031,0.8291016-3.1967773c0.0605469-1.0380859-0.1083984-2.0214844-0.5058594-2.9487305
		c-0.3974609-0.9277344-1.0410156-1.7900391-1.9277344-2.5869141c-0.8876953-0.796875-2.0283203-1.5102539-3.421875-2.1391602
		l-5.7089844-2.574707L330.8417969,55.3325195z"/>
	<path class="st1" d="M391.6328125,92.496582c-1.9443359,2.6489258-4.171875,4.7578125-6.6806641,6.3251953
		c-2.5097656,1.5678711-5.1503906,2.5644531-7.9238281,2.9902344c-2.7734375,0.425293-5.6083984,0.2543945-8.5058594-0.5136719
		c-2.8974609-0.7670898-5.7128906-2.1542969-8.4443359-4.159668l-13.7958984-10.125l26.5234375-36.137207l13.7949219,10.125
		c2.7324219,2.0053711,4.8955078,4.2792969,6.4912109,6.8212891c1.5947266,2.5424805,2.6083984,5.1958008,3.0400391,7.9609375
		s0.2753906,5.5795898-0.4677734,8.4433594S393.5771484,89.8476562,391.6328125,92.496582z M384.7597656,87.4526367
		c1.4550781-1.9829102,2.4941406-3.9570312,3.1162109-5.9228516c0.6230469-1.9658203,0.8427734-3.8549805,0.6611328-5.6674805
		c-0.1826172-1.8129883-0.7636719-3.5273438-1.7431641-5.144043c-0.9804688-1.6162109-2.3525391-3.0727539-4.1191406-4.3686523
		l-7.0224609-5.1542969l-18.671875,25.4414062l7.0224609,5.1538086c1.765625,1.2958984,3.5664062,2.1694336,5.4023438,2.6196289
		s3.6455078,0.4902344,5.4296875,0.1206055s3.5205078-1.1464844,5.2089844-2.3295898
		C381.7333984,91.0180664,383.3046875,89.4355469,384.7597656,87.4526367z"/>
	<path class="st1" d="M432.7841797,104.3989258l-4.9042969,4.4672852l-13.3808594-14.6899414l-9.8085938,8.9350586
		l11.2939453,12.3979492l-4.9277344,4.4882812l-11.2939453-12.3979492l-13.4980469,12.2958984l-5.6572266-6.2109375
		l33.1386719-30.1865234L432.7841797,104.3989258z"/>
</g>
<g>
	<path class="st1" d="M64.5253906,285.9619141c0.0341797,0.2480469,0.0322266,0.4785156-0.0068359,0.6923828
		c-0.0385742,0.2138672-0.1186523,0.4335938-0.2397461,0.6582031c-0.121582,0.2255859-0.2924805,0.4853516-0.5126953,0.7802734
		l-22.831543,30.5117188c0.6767578-0.2685547,1.3457031-0.5068359,2.0063477-0.7167969
		c0.6601562-0.2099609,1.2797852-0.3925781,1.8588867-0.5488281l26.3125-7.0820312l1.909668,7.0947266l-43.2856445,11.6503906
		l-1.1201172-4.1611328c-0.171875-0.6386719-0.2143555-1.1943359-0.1274414-1.6669922
		c0.0864258-0.4726562,0.3354492-0.9785156,0.7470703-1.5175781l22.7363281-30.3886719
		c-0.6230469,0.2314453-1.2441406,0.4472656-1.8647461,0.6464844c-0.6206055,0.1982422-1.1904297,0.3681641-1.7089844,0.5078125
		l-26.5820312,7.1542969l-1.909668-7.0947266l43.2856445-11.6503906l1.1362305,4.2216797
		C64.425293,285.4111328,64.4907227,285.7148438,64.5253906,285.9619141z"/>
	<path class="st1" d="M75.8725586,370.9365234c-2.8833008,1.5771484-5.815918,2.5566406-8.7983398,2.9394531
		c-2.9829102,0.3828125-5.847168,0.1943359-8.5942383-0.5644531s-5.2929688-2.0869141-7.6381836-3.984375
		s-4.3310547-4.3330078-5.9570312-7.3066406c-1.6264648-2.9736328-2.6083984-5.9638672-2.9458008-8.9716797
		c-0.3374023-3.0068359-0.0869141-5.8759766,0.7509766-8.6074219c0.8378906-2.7324219,2.2226562-5.25,4.1542969-7.5546875
		c1.9306641-2.3046875,4.3383789-4.2451172,7.2211914-5.8222656c2.8833008-1.5761719,5.8154297-2.5566406,8.7983398-2.9394531
		c2.9824219-0.3828125,5.8496094-0.1904297,8.6015625,0.578125c2.7519531,0.7675781,5.3032227,2.1054688,7.6533203,4.0117188
		s4.3378906,4.3466797,5.9643555,7.3203125S87.684082,345.9970703,88.0078125,349
		c0.3232422,3.0039062,0.0678711,5.8642578-0.7661133,8.5810547c-0.8339844,2.7177734-2.2167969,5.2285156-4.1479492,7.5332031
		C81.1621094,367.4189453,78.7553711,369.3603516,75.8725586,370.9365234z M71.7670898,363.4306641
		c2.1572266-1.1806641,3.9370117-2.5244141,5.3378906-4.0332031c1.4013672-1.5078125,2.4077148-3.1240234,3.019043-4.8486328
		c0.6118164-1.7246094,0.8154297-3.5263672,0.612793-5.4052734c-0.2036133-1.8798828-0.8310547-3.7802734-1.8818359-5.7021484
		c-1.0512695-1.921875-2.315918-3.4804688-3.7929688-4.6738281c-1.4780273-1.1943359-3.1098633-2.0039062-4.8964844-2.4277344
		c-1.7871094-0.4248047-3.6958008-0.4580078-5.7265625-0.1015625s-4.125,1.1259766-6.2827148,2.3056641
		c-2.1582031,1.1806641-3.9345703,2.5283203-5.3305664,4.0458984c-1.3964844,1.5175781-2.3935547,3.140625-2.9907227,4.8691406
		c-0.5981445,1.7285156-0.7924805,3.5361328-0.5839844,5.4248047c0.2080078,1.8886719,0.8378906,3.7939453,1.8891602,5.7158203
		c1.0507812,1.921875,2.3125,3.4755859,3.7856445,4.6601562c1.472168,1.1855469,3.0947266,1.9873047,4.8681641,2.4082031
		c1.7719727,0.4199219,3.671875,0.4472656,5.6977539,0.0810547
		C67.5175781,365.3837891,69.6088867,364.6103516,71.7670898,363.4306641z"/>
	<path class="st1" d="M117.4111328,384.9287109l-5.2348633,4.4199219l-8.6992188-10.3037109l-29.0166016,24.4970703
		l-5.3793945-6.3710938l29.0166016-24.4980469l-8.7392578-10.3515625l5.2348633-4.4189453L117.4111328,384.9287109z"/>
	<path class="st1" d="M141.5488281,404.7441406l-4.230957,5.109375l-15.3046875-12.6738281l-7.9287109,9.5742188
		l12.0576172,9.9853516l-4.0927734,4.9423828l-12.0576172-9.9853516l-8.0864258,9.765625l15.3046875,12.6738281
		l-4.2509766,5.1337891l-21.7753906-18.0322266l28.590332-34.5253906L141.5488281,404.7441406z"/>
	<path class="st1" d="M162.5668945,426.4345703c-0.4238281,0.2802734-0.8120117,0.4267578-1.1640625,0.4384766
		c-0.3525391,0.0126953-0.7080078-0.0849609-1.0664062-0.2910156s-0.6821289-0.5761719-0.9702148-1.1113281
		c-0.2885742-0.5351562-0.6396484-1.1484375-1.0527344-1.8388672c-0.4135742-0.6904297-0.9482422-1.4091797-1.6035156-2.1552734
		c-0.65625-0.7460938-1.5390625-1.4384766-2.6499023-2.0771484c-1.0039062-0.5771484-1.9467773-0.9580078-2.8291016-1.1435547
		c-0.8828125-0.1855469-1.7026367-0.2099609-2.4604492-0.0732422s-1.4350586,0.4326172-2.0307617,0.8886719
		c-0.5961914,0.4560547-1.0996094,1.0429688-1.5117188,1.7597656c-0.5249023,0.9130859-0.7075195,1.8222656-0.546875,2.7246094
		c0.1601562,0.9023438,0.5380859,1.8105469,1.1333008,2.7246094c0.5947266,0.9140625,1.3320312,1.8505859,2.2114258,2.8085938
		c0.8793945,0.9589844,1.7680664,1.9521484,2.6665039,2.9814453c0.8984375,1.0283203,1.7387695,2.1074219,2.5200195,3.2363281
		c0.7817383,1.1279297,1.3691406,2.3242188,1.7636719,3.5878906c0.394043,1.2626953,0.5224609,2.6064453,0.3842773,4.0283203
		c-0.1381836,1.4228516-0.6708984,2.9404297-1.5976562,4.5527344c-1.0092773,1.7558594-2.2543945,3.2275391-3.7348633,4.4140625
		c-1.4814453,1.1865234-3.1264648,2.0175781-4.9360352,2.4912109s-3.7353516,0.5585938-5.777832,0.2539062
		c-2.0419922-0.3037109-4.1381836-1.0732422-6.2885742-2.3085938c-1.2363281-0.7109375-2.3852539-1.5322266-3.4467773-2.4638672
		c-1.0615234-0.9326172-2.0141602-1.9384766-2.8588867-3.0205078c-0.8447266-1.0800781-1.565918-2.2099609-2.1640625-3.3886719
		c-0.5981445-1.1777344-1.0517578-2.3681641-1.3618164-3.5712891l4.0893555-2.2626953
		c0.3413086-0.1376953,0.6992188-0.2109375,1.0751953-0.2216797c0.3754883-0.0107422,0.7333984,0.0810547,1.0742188,0.2773438
		c0.4477539,0.2568359,0.8256836,0.71875,1.1347656,1.3847656c0.3081055,0.6660156,0.6870117,1.4267578,1.1381836,2.28125
		c0.449707,0.8544922,1.0488281,1.7412109,1.7963867,2.6601562c0.7470703,0.9179688,1.793457,1.7626953,3.137207,2.5351562
		c2.0600586,1.1845703,3.9355469,1.6132812,5.6259766,1.2851562c1.6899414-0.3271484,3.0600586-1.4052734,4.1108398-3.2324219
		c0.5869141-1.0214844,0.8105469-2.0019531,0.6704102-2.9404297c-0.1396484-0.9384766-0.5048828-1.8691406-1.0947266-2.7919922
		s-1.3344727-1.8457031-2.234375-2.7685547c-0.9003906-0.921875-1.8027344-1.8818359-2.7075195-2.8789062
		c-0.9052734-0.9970703-1.7509766-2.0546875-2.5375977-3.1748047c-0.7866211-1.1191406-1.3696289-2.3242188-1.7480469-3.6152344
		c-0.3789062-1.2900391-0.4755859-2.6865234-0.2915039-4.1894531c0.1845703-1.5029297,0.7866211-3.1416016,1.8061523-4.9150391
		c0.8134766-1.4160156,1.8891602-2.6337891,3.2255859-3.6533203c1.3369141-1.0185547,2.8457031-1.7363281,4.5273438-2.1533203
		c1.6811523-0.4160156,3.4902344-0.484375,5.4277344-0.2050781c1.9370117,0.2792969,3.9179688,1,5.9428711,2.1640625
		c2.293457,1.3183594,4.2016602,2.8925781,5.7250977,4.7207031c1.5234375,1.8291016,2.5947266,3.7802734,3.215332,5.8525391
		L162.5668945,426.4345703z"/>
	<path class="st1" d="M216.159668,459.1386719c-0.8442383,3.1757812-2.1489258,5.9511719-3.9135742,8.3261719
		s-3.8603516,4.265625-6.2875977,5.6738281c-2.4267578,1.4082031-5.1293945,2.2822266-8.1069336,2.6240234
		c-2.9780273,0.3427734-6.1049805,0.078125-9.3803711-0.7929688l-16.5375977-4.3955078l11.515625-43.3222656l16.5375977,4.3964844
		c3.2753906,0.8701172,6.1196289,2.1982422,8.5317383,3.9833984c2.4125977,1.7861328,4.3237305,3.8867188,5.734375,6.3037109
		c1.4101562,2.4169922,2.2915039,5.0947266,2.644043,8.0322266
		C217.2495117,452.90625,217.0039062,455.9628906,216.159668,459.1386719z M207.9208984,456.9482422
		c0.6313477-2.3769531,0.878418-4.59375,0.7412109-6.6513672c-0.1376953-2.0576172-0.621582-3.8964844-1.4521484-5.5175781
		c-0.8310547-1.6220703-1.9970703-3.0058594-3.4985352-4.1542969c-1.5024414-1.1474609-3.3120117-2.0029297-5.4287109-2.5654297
		l-8.4189453-2.2382812l-8.1069336,30.4990234l8.4189453,2.2382812c2.1166992,0.5625,4.1118164,0.71875,5.9858398,0.46875
		c1.8735352-0.2509766,3.5732422-0.8730469,5.0996094-1.8681641c1.5258789-0.9951172,2.859375-2.3515625,4.0004883-4.0693359
		C206.4023438,461.3720703,207.2890625,459.3251953,207.9208984,456.9482422z"/>
	<path class="st1" d="M253.9228516,438.8994141l-0.3847656,6.6230469l-19.8374023-1.1513672l-0.7202148,12.4101562
		l15.6289062,0.90625l-0.371582,6.40625l-15.6289062-0.90625l-0.734375,12.6572266l19.8374023,1.1513672l-0.3857422,6.6533203
		l-28.2246094-1.6376953l2.5966797-44.75L253.9228516,438.8994141z"/>
	<path class="st1" d="M266.2099609,438.9394531l6.5927734-1.3369141c0.7089844-0.1445312,1.3212891-0.0888672,1.8369141,0.1650391
		c0.5146484,0.2539062,0.9394531,0.6318359,1.2734375,1.1337891l15.7636719,24.7011719
		c0.5214844,0.8007812,1.0439453,1.6914062,1.5703125,2.6708984c0.5253906,0.9794922,1.046875,2.0175781,1.5644531,3.1142578
		c-0.0068359-2.4228516,0.1533203-4.5957031,0.4814453-6.5185547l4.8642578-28.8847656
		c0.0878906-0.5029297,0.3251953-0.9941406,0.7138672-1.4736328c0.3876953-0.4785156,0.9257812-0.7890625,1.6142578-0.9287109
		l6.5927734-1.3369141l-8.8330078,47.5302734l-7.3828125,1.4970703L266.2099609,438.9394531z"/>
	<path class="st1" d="M336.7382812,417.9169922l2.5683594,6.1162109l-18.3212891,7.6933594l4.8134766,11.4619141
		l14.4335938-6.0615234l2.484375,5.9169922l-14.4335938,6.0615234l4.9082031,11.6894531l18.3212891-7.6933594l2.5810547,6.1455078
		l-26.0673828,10.9462891l-17.3554688-41.3300781L336.7382812,417.9169922z"/>
	<path class="st1" d="M363.1308594,433.7783203l9.6845703,14.59375l-6.9482422,4.6103516l-24.7861328-37.3496094
		l11.390625-7.5595703c2.5488281-1.6904297,4.9052734-2.8759766,7.0703125-3.5576172
		c2.1660156-0.6796875,4.1435547-0.9316406,5.9345703-0.7568359c1.7910156,0.1757812,3.3945312,0.7421875,4.8115234,1.7001953
		c1.4160156,0.9570312,2.6503906,2.2285156,3.7011719,3.8125c0.8349609,1.2568359,1.4375,2.5683594,1.8105469,3.9326172
		c0.3720703,1.3652344,0.5126953,2.7353516,0.4208984,4.1103516c-0.0908203,1.3759766-0.4208984,2.7480469-0.9882812,4.1171875
		c-0.5673828,1.3681641-1.3691406,2.6933594-2.4033203,3.9755859c1.2099609-0.0830078,2.4414062,0.1279297,3.6962891,0.6347656
		l18.5029297,7.5888672l-6.25,4.1474609c-0.6035156,0.4003906-1.1953125,0.6201172-1.7773438,0.6582031
		c-0.5820312,0.0390625-1.1679688-0.0673828-1.7578125-0.3212891l-15.7880859-6.7480469
		c-0.5898438-0.2539062-1.1240234-0.3574219-1.6025391-0.3134766c-0.4794922,0.0449219-1.0634766,0.2958984-1.7519531,0.7529297
		L363.1308594,433.7783203z M359.8222656,428.7929688l4.3388672-2.8798828
		c1.3085938-0.8681641,2.3417969-1.7890625,3.0976562-2.7617188c0.7548828-0.9726562,1.2558594-1.9560547,1.5019531-2.9501953
		c0.2451172-0.9941406,0.2607422-1.9902344,0.0449219-2.9882812c-0.2158203-0.9970703-0.6376953-1.9697266-1.2666016-2.9169922
		c-1.2568359-1.8945312-2.8466797-2.9345703-4.7695312-3.1220703s-4.1669922,0.5693359-6.7324219,2.2724609l-4.4423828,2.9482422
		L359.8222656,428.7929688z"/>
	<path class="st1" d="M395.0273438,383.1240234c0.1513672,0.4853516,0.1845703,0.8984375,0.0986328,1.2402344
		c-0.0869141,0.3427734-0.2792969,0.6572266-0.5761719,0.9433594c-0.2978516,0.2880859-0.7431641,0.4960938-1.3378906,0.6240234
		c-0.59375,0.1279297-1.2802734,0.2949219-2.0585938,0.5c-0.7783203,0.2060547-1.6162109,0.5205078-2.515625,0.9423828
		c-0.8994141,0.4228516-1.8095703,1.0791016-2.7314453,1.96875c-0.8330078,0.8037109-1.4609375,1.6035156-1.8837891,2.4003906
		c-0.4238281,0.7958984-0.6748047,1.5771484-0.7539062,2.3427734c-0.0800781,0.7666016,0.0166016,1.4990234,0.2890625,2.1982422
		c0.2734375,0.6992188,0.6962891,1.3457031,1.2705078,1.9404297c0.7324219,0.7578125,1.5537109,1.1855469,2.4658203,1.2822266
		s1.8886719-0.0136719,2.9326172-0.3320312c1.0429688-0.3173828,2.1474609-0.765625,3.3125-1.34375
		c1.1650391-0.5791016,2.3662109-1.1572266,3.6044922-1.734375c1.2373047-0.5771484,2.5068359-1.0849609,3.8085938-1.5224609
		c1.3007812-0.4375,2.6132812-0.6689453,3.9365234-0.6972656c1.3232422-0.0273438,2.6484375,0.2216797,3.9765625,0.75
		c1.328125,0.5273438,2.6376953,1.4609375,3.9296875,2.7988281c1.4072266,1.4580078,2.4746094,3.0625,3.203125,4.8144531
		c0.7294922,1.7519531,1.0703125,3.5634766,1.0224609,5.4326172c-0.0478516,1.8710938-0.5009766,3.7441406-1.3603516,5.6220703
		c-0.859375,1.8769531-2.1806641,3.6767578-3.9648438,5.3994141c-1.0263672,0.9902344-2.1347656,1.8662109-3.3242188,2.6269531
		c-1.1904297,0.7607422-2.421875,1.3964844-3.6953125,1.9072266c-1.2724609,0.5117188-2.5585938,0.890625-3.8564453,1.1376953
		c-1.2978516,0.2480469-2.5673828,0.3535156-3.8095703,0.3164062l-1.0371094-4.5566406
		c-0.0371094-0.3652344-0.0087891-0.7304688,0.0849609-1.0947266c0.09375-0.3632812,0.2822266-0.6816406,0.5654297-0.9541016
		c0.3710938-0.3583984,0.9199219-0.59375,1.6455078-0.7060547c0.7255859-0.1103516,1.5615234-0.2636719,2.5078125-0.4589844
		c0.9453125-0.1953125,1.9638672-0.5244141,3.0537109-0.9873047s2.1923828-1.2333984,3.3076172-2.3095703
		c1.7089844-1.6503906,2.6425781-3.3330078,2.796875-5.0478516s-0.5-3.3300781-1.9648438-4.8466797
		c-0.8173828-0.8476562-1.6972656-1.3349609-2.6376953-1.4609375s-1.9355469-0.0341797-2.9863281,0.2753906
		c-1.0507812,0.3115234-2.1435547,0.7705078-3.2802734,1.3779297c-1.1357422,0.609375-2.3085938,1.2099609-3.5175781,1.8017578
		c-1.2089844,0.5927734-2.4599609,1.1113281-3.7548828,1.5556641c-1.2929688,0.4453125-2.6132812,0.6699219-3.9580078,0.6757812
		s-2.7128906-0.2890625-4.1054688-0.8837891s-2.7998047-1.6279297-4.2207031-3.1005859
		c-1.1337891-1.1738281-2.0048828-2.5458984-2.6132812-4.1132812c-0.6074219-1.5673828-0.8779297-3.2158203-0.8105469-4.9472656
		c0.0673828-1.7294922,0.5039062-3.4873047,1.3095703-5.2705078c0.8066406-1.7832031,2.0498047-3.4863281,3.7294922-5.1083984
		c1.9033203-1.8369141,3.9453125-3.2333984,6.125-4.1884766c2.1806641-0.9550781,4.3525391-1.4433594,6.515625-1.4638672
		L395.0273438,383.1240234z"/>
	<path class="st1" d="M435.2480469,391.6904297l-5.2070312,6.5527344l-35.0947266-27.8876953l5.2080078-6.5527344
		L435.2480469,391.6904297z"/>
	<path class="st1" d="M445.9492188,331.0371094c2.8828125,1.5771484,5.2900391,3.5175781,7.2207031,5.8222656
		c1.9316406,2.3046875,3.3193359,4.8183594,4.1621094,7.5410156c0.8427734,2.7216797,1.0986328,5.5820312,0.765625,8.5810547
		c-0.3320312,2.9980469-1.3115234,5.9833984-2.9375,8.9570312c-1.6269531,2.9746094-3.6152344,5.4140625-5.9648438,7.3203125
		c-2.3505859,1.9072266-4.9013672,3.2441406-7.6533203,4.0117188c-2.7519531,0.7685547-5.6191406,0.9609375-8.6015625,0.578125
		s-5.9150391-1.3623047-8.7988281-2.9394531c-2.8828125-1.5761719-5.2900391-3.5166016-7.2207031-5.8222656
		c-1.9316406-2.3046875-3.3164062-4.8222656-4.1542969-7.5537109s-1.0888672-5.6005859-0.7509766-8.6083984
		c0.3369141-3.0068359,1.3193359-5.9970703,2.9453125-8.9716797c1.6259766-2.9736328,3.6171875-5.40625,5.9707031-7.2988281
		c2.3544922-1.8925781,4.9003906-3.2207031,7.6386719-3.984375s5.5976562-0.9541016,8.5800781-0.5722656
		C440.1337891,328.4804688,443.0664062,329.4599609,445.9492188,331.0371094z M441.84375,338.5439453
		c-2.1582031-1.1806641-4.25-1.953125-6.2753906-2.3193359c-2.0263672-0.3662109-3.9296875-0.3408203-5.7119141,0.0742188
		s-3.4082031,1.2158203-4.8818359,2.4003906c-1.4716797,1.1855469-2.734375,2.7392578-3.7851562,4.6601562
		c-1.0517578,1.9228516-1.6806641,3.828125-1.8896484,5.7158203c-0.2080078,1.8886719-0.0087891,3.6992188,0.5976562,5.4326172
		s1.6083984,3.3583984,3.0048828,4.8759766c1.3955078,1.5175781,3.1728516,2.8662109,5.3300781,4.0458984
		c2.1582031,1.1806641,4.2519531,1.9492188,6.2832031,2.3056641c2.0302734,0.3574219,3.9355469,0.3212891,5.7128906-0.1083984
		c1.7773438-0.4287109,3.4052734-1.2412109,4.8828125-2.4355469c1.4775391-1.1933594,2.7412109-2.7519531,3.7929688-4.6738281
		c1.0507812-1.921875,1.6787109-3.8222656,1.8818359-5.7021484c0.203125-1.8789062,0.0039062-3.6777344-0.5986328-5.3974609
		s-1.6044922-3.3330078-3.0058594-4.8417969C445.7802734,341.0683594,444.0009766,339.7236328,441.84375,338.5439453z"/>
	<path class="st1" d="M428.4013672,312.2451172c0.09375-0.2314453,0.2119141-0.4296875,0.3525391-0.5957031
		c0.140625-0.1650391,0.3203125-0.3154297,0.5380859-0.4492188c0.21875-0.1337891,0.4960938-0.2724609,0.8349609-0.4169922
		l35.0615234-14.9296875c-0.7197266-0.1083984-1.4179688-0.2373047-2.0947266-0.3876953
		c-0.6757812-0.1494141-1.3037109-0.3027344-1.8828125-0.4580078l-26.3125-7.0820312l1.9091797-7.0947266l43.2861328,11.6503906
		l-1.1201172,4.1611328c-0.171875,0.6386719-0.4140625,1.140625-0.7265625,1.5058594
		c-0.3115234,0.3652344-0.78125,0.6777344-1.4082031,0.9365234l-34.9179688,14.8720703
		c0.6552734,0.1123047,1.3007812,0.2382812,1.9375,0.3769531c0.6367188,0.1396484,1.2148438,0.2792969,1.7333984,0.4189453
		l26.5820312,7.1542969l-1.9091797,7.0947266l-43.2861328-11.6503906l1.1357422-4.2207031
		C428.2109375,312.7714844,428.3066406,312.4765625,428.4013672,312.2451172z"/>
</g>
<circle class="st2" cx="250" cy="250" r="175"/>
<path class="st3" d="M173.5414581,354.2134094h152.9170685v-43.6731262H173.5414581V354.2134094L173.5414581,354.2134094z
	 M173.5414581,245.0000153h152.9170685v-65.5402679h-27.3109741c-9.0526733,0-16.3927002-7.3400269-16.3927002-16.3927155
	v-27.2804108H173.5414581V245V245.0000153z M370.1316528,255.9182892c0-5.9637756-4.9239197-10.9182892-10.9182739-10.9182892
	s-10.9183044,4.9545135-10.9183044,10.9182892c0,5.9637604,4.9545288,10.9182892,10.9183044,10.9182892
	C365.177124,266.8365784,370.1316528,261.8820496,370.1316528,255.9182892z M391.9988098,255.9182892v71.0146942
	c0,2.8748474-2.5690308,5.4438477-5.4744568,5.4438477h-38.2292786v27.3109741
	c0,9.0527039-7.3399963,16.3927307-16.3927002,16.3927307H168.0670166c-9.02211,0-16.3621368-7.3400269-16.3621368-16.3927307
	v-27.3109741h-38.2292633c-2.905426,0-5.4744339-2.5690002-5.4744339-5.4438477v-71.0146942
	c0-17.9218903,14.8329544-32.754837,32.7548447-32.754837h10.9488525v-92.8512573
	c0-9.0526962,7.3400269-16.3927155,16.3621368-16.3927155h114.6878052c9.0527039,0,21.5001526,5.1380081,27.9838257,11.6216965
	l25.965332,25.9347458c6.4837036,6.4836731,11.5911255,18.9311218,11.5911255,27.9838257v43.7037048h10.9182739
	C377.1352539,223.1634521,391.9988098,237.9963989,391.9988098,255.9182892L391.9988098,255.9182892z"/>
</svg>
