<?xml version="1.0" encoding="utf-8"?>
<!-- Generator: Adobe Illustrator 21.1.0, SVG Export Plug-In . SVG Version: 6.00 Build 0)  -->
<svg version="1.1" id="Calque_1" xmlns="http://www.w3.org/2000/svg" xmlns:xlink="http://www.w3.org/1999/xlink" x="0px" y="0px"
	 viewBox="0 0 2048 2048" style="enable-background:new 0 0 2048 2048;" xml:space="preserve">
<style type="text/css">
	.st0{fill:url(#SVGID_1_);}
	.st1{fill:#DCDCDC;}
	.st2{fill:#333333;stroke:#333333;}
	.st3{fill:#333333;}
</style>
<g>
	
		<linearGradient id="SVGID_1_" gradientUnits="userSpaceOnUse" x1="1024" y1="12.5" x2="1024" y2="2035.5" gradientTransform="matrix(1 0 0 -1 0 2048)">
		<stop  offset="0" style="stop-color:#E8E8E8"/>
		<stop  offset="1" style="stop-color:#F9F9F9"/>
	</linearGradient>
	<path class="st0" d="M50,2035.5c-20.7,0-37.5-16.8-37.5-37.5V50c0-20.7,16.8-37.5,37.5-37.5h1948c20.7,0,37.5,16.8,37.5,37.5v1948
		c0,20.7-16.8,37.5-37.5,37.5H50z"/>
	<path class="st1" d="M1998,25c13.8,0,25,11.2,25,25v1948c0,13.8-11.2,25-25,25H50c-13.8,0-25-11.2-25-25V50c0-13.8,11.2-25,25-25
		H1998 M1998,0H50C22.5,0,0,22.5,0,50v1948c0,27.5,22.5,50,50,50h1948c27.5,0,50-22.5,50-50V50C2048,22.5,2025.5,0,1998,0L1998,0z"
		/>
</g>
<g>
	<path class="st2" d="M410.2,1767.9c1.9,0,3.6,0.7,4.9,2.2l13.8,15c-7.6,9.4-17,16.7-28.1,21.7c-11.1,5-24.5,7.5-40.1,7.5
		c-14,0-26.5-2.4-37.6-7.2c-11.1-4.8-20.6-11.4-28.5-19.9c-7.9-8.5-13.9-18.6-18.1-30.4c-4.2-11.8-6.3-24.7-6.3-38.6
		c0-14.1,2.3-27.1,7-38.8c4.7-11.7,11.3-21.9,19.8-30.4c8.5-8.5,18.7-15.1,30.5-19.8c11.8-4.7,24.9-7.1,39.2-7.1
		c14,0,26.2,2.2,36.6,6.7c10.4,4.5,19.4,10.4,26.8,17.7l-11.7,16.2c-0.7,1-1.6,2-2.7,2.7c-1.1,0.8-2.6,1.2-4.5,1.2
		c-2,0-4-0.8-6.1-2.3c-2.1-1.6-4.7-3.2-7.9-5.1c-3.2-1.8-7.3-3.5-12.2-5.1c-4.9-1.6-11.1-2.3-18.7-2.3c-8.8,0-17,1.5-24.4,4.6
		c-7.4,3.1-13.8,7.5-19.1,13.2c-5.3,5.7-9.5,12.7-12.5,20.9c-3,8.2-4.5,17.4-4.5,27.6c0,10.6,1.5,20,4.5,28.2
		c3,8.2,7,15.2,12.2,20.8c5.1,5.6,11.1,9.9,18.1,12.9c6.9,3,14.4,4.5,22.4,4.5c4.8,0,9.1-0.3,12.9-0.8c3.9-0.5,7.4-1.3,10.7-2.5
		c3.2-1.1,6.3-2.6,9.2-4.4c2.9-1.8,5.8-4,8.6-6.6c0.9-0.8,1.8-1.4,2.7-1.9C408,1768.1,409.1,1767.9,410.2,1767.9z"/>
	<path class="st2" d="M510.4,1676.7c10,0,19,1.6,27.1,4.8c8.1,3.2,15,7.8,20.7,13.7c5.7,5.9,10.1,13.1,13.3,21.6
		c3.1,8.5,4.7,18,4.7,28.5c0,10.6-1.6,20.1-4.7,28.6c-3.1,8.5-7.5,15.7-13.3,21.7c-5.7,6-12.6,10.6-20.7,13.8
		c-8.1,3.2-17.1,4.8-27.1,4.8c-10,0-19-1.6-27.2-4.8c-8.1-3.2-15.1-7.8-20.9-13.8c-5.8-6-10.2-13.2-13.4-21.7
		c-3.2-8.5-4.7-18-4.7-28.6c0-10.5,1.6-20,4.7-28.5c3.2-8.5,7.6-15.7,13.4-21.6c5.8-5.9,12.7-10.4,20.9-13.7
		C491.4,1678.3,500.5,1676.7,510.4,1676.7z M510.4,1789.4c11.1,0,19.3-3.7,24.6-11.2c5.3-7.5,8-18.4,8-32.8c0-14.4-2.7-25.3-8-32.9
		s-13.5-11.3-24.6-11.3c-11.3,0-19.6,3.8-25,11.4c-5.4,7.6-8.1,18.5-8.1,32.8s2.7,25.2,8.1,32.7
		C490.9,1785.7,499.2,1789.4,510.4,1789.4z"/>
	<path class="st2" d="M601.3,1812.2v-133.4h19.6c4.2,0,6.9,1.9,8.2,5.8l2.1,9.9c2.3-2.6,4.8-5,7.3-7.1c2.6-2.2,5.3-4,8.2-5.6
		c2.9-1.6,6-2.8,9.4-3.7c3.3-0.9,7-1.4,11-1.4c8.4,0,15.3,2.3,20.7,6.8c5.4,4.5,9.5,10.6,12.2,18.1c2.1-4.4,4.7-8.2,7.8-11.4
		c3.1-3.2,6.5-5.7,10.3-7.7c3.7-2,7.7-3.5,11.9-4.4c4.2-1,8.4-1.4,12.7-1.4c7.4,0,13.9,1.1,19.6,3.4c5.7,2.3,10.5,5.5,14.4,9.9
		c3.9,4.3,6.9,9.6,8.9,15.9c2,6.2,3.1,13.4,3.1,21.4v84.9h-32.1v-84.9c0-8.5-1.9-14.9-5.6-19.2c-3.7-4.3-9.2-6.4-16.4-6.4
		c-3.3,0-6.3,0.6-9.2,1.7c-2.8,1.1-5.3,2.8-7.4,4.9c-2.1,2.1-3.8,4.8-5,8c-1.2,3.2-1.8,6.9-1.8,11v84.9h-32.2v-84.9
		c0-8.9-1.8-15.4-5.4-19.5c-3.6-4.1-8.9-6.1-15.9-6.1c-4.6,0-8.9,1.1-12.9,3.4c-4,2.3-7.8,5.4-11.2,9.4v97.6H601.3z"/>
	<path class="st2" d="M820.2,1855.7v-176.9h19.6c2.1,0,3.9,0.5,5.3,1.4c1.5,1,2.4,2.4,2.9,4.4l2.6,12.3c5.4-6.2,11.5-11.1,18.5-14.9
		c7-3.8,15.1-5.7,24.5-5.7c7.3,0,13.9,1.5,20,4.6c6,3,11.2,7.4,15.6,13.2c4.4,5.8,7.8,12.9,10.1,21.3c2.4,8.5,3.6,18.1,3.6,29.1
		c0,10-1.3,19.2-4,27.7c-2.7,8.5-6.5,15.9-11.5,22.1c-5,6.2-11,11.1-18.1,14.6c-7.1,3.5-15,5.3-23.7,5.3c-7.5,0-13.9-1.2-19.2-3.4
		c-5.2-2.3-9.9-5.5-14.1-9.6v54.6H820.2z M882.6,1701.7c-6.7,0-12.4,1.4-17.1,4.2c-4.7,2.8-9.1,6.8-13.2,11.9v59.8
		c3.6,4.5,7.6,7.6,11.9,9.4c4.3,1.8,8.9,2.7,13.8,2.7c4.9,0,9.3-0.9,13.2-2.7c3.9-1.8,7.3-4.6,10-8.3c2.7-3.7,4.8-8.4,6.3-14.1
		c1.5-5.7,2.2-12.4,2.2-20.1c0-7.8-0.6-14.4-1.9-19.8c-1.3-5.4-3.1-9.8-5.4-13.2c-2.3-3.4-5.2-5.9-8.5-7.4
		C890.7,1702.5,886.9,1701.7,882.6,1701.7z"/>
	<path class="st2" d="M1011.1,1814.3c-11.5,0-20.4-3.3-26.7-9.8c-6.2-6.5-9.4-15.6-9.4-27.1v-74.5h-13.5c-1.7,0-3.2-0.6-4.5-1.7
		c-1.3-1.1-1.9-2.8-1.9-5.1v-12.7l21.5-3.5l6.8-36.4c0.3-1.7,1.1-3.1,2.4-4c1.3-1,2.8-1.4,4.7-1.4h16.6v42h35.1v22.9h-35.1v72.3
		c0,4.2,1,7.4,3.1,9.8c2.1,2.3,4.9,3.5,8.3,3.5c2,0,3.7-0.2,5-0.7c1.3-0.5,2.5-1,3.5-1.5c1-0.5,1.9-1,2.7-1.5
		c0.8-0.5,1.6-0.7,2.3-0.7c1,0,1.7,0.2,2.3,0.7c0.6,0.5,1.3,1.2,2,2.1l9.6,15.6c-4.7,3.9-10.1,6.8-16.1,8.8
		C1023.9,1813.3,1017.6,1814.3,1011.1,1814.3z"/>
	<path class="st2" d="M1172.4,1812.2H1158c-3,0-5.4-0.5-7.1-1.4c-1.7-0.9-3-2.8-3.9-5.5l-2.9-9.5c-3.4,3-6.7,5.7-9.9,8
		c-3.2,2.3-6.6,4.2-10.1,5.8c-3.5,1.6-7.1,2.7-11,3.5c-3.9,0.8-8.2,1.2-13,1.2c-5.6,0-10.8-0.8-15.6-2.3c-4.8-1.5-8.9-3.8-12.3-6.8
		c-3.4-3-6.1-6.8-8-11.3c-1.9-4.5-2.9-9.8-2.9-15.8c0-5,1.3-10,4-14.9c2.6-4.9,7-9.3,13.2-13.3c6.2-4,14.3-7.2,24.6-9.8
		c10.2-2.6,22.9-3.9,38.1-3.9v-7.9c0-9-1.9-15.7-5.7-20c-3.8-4.3-9.3-6.5-16.4-6.5c-5.2,0-9.5,0.6-13,1.8c-3.5,1.2-6.5,2.6-9,4.1
		c-2.6,1.5-4.9,2.9-7.1,4.1c-2.2,1.2-4.5,1.8-7.2,1.8c-2.2,0-4-0.6-5.6-1.7c-1.6-1.1-2.8-2.5-3.8-4.2l-5.8-10.3
		c15.3-14,33.8-21.1,55.5-21.1c7.8,0,14.8,1.3,20.9,3.8c6.1,2.6,11.3,6.1,15.5,10.7c4.2,4.5,7.5,10,9.7,16.3
		c2.2,6.3,3.3,13.3,3.3,20.8V1812.2z M1110,1792.2c3.3,0,6.3-0.3,9.1-0.9c2.8-0.6,5.4-1.5,7.9-2.7c2.5-1.2,4.9-2.7,7.2-4.4
		c2.3-1.7,4.6-3.8,7-6.2v-22.3c-9.4,0-17.2,0.6-23.5,1.8c-6.3,1.2-11.3,2.7-15.1,4.5c-3.8,1.8-6.5,4-8.1,6.4c-1.6,2.4-2.4,5.1-2.4,8
		c0,5.7,1.7,9.7,5,12.2C1100.3,1791,1104.6,1792.2,1110,1792.2z"/>
	<path class="st2" d="M1204.4,1812.2V1619h32.1v76.2c5.3-5.6,11.3-10.1,17.9-13.5c6.7-3.3,14.5-5,23.4-5c7.3,0,13.9,1.5,20,4.5
		c6,3,11.2,7.3,15.6,13.1c4.4,5.7,7.8,12.8,10.1,21.2c2.4,8.4,3.6,18.1,3.6,29c0,10-1.3,19.2-4,27.7c-2.7,8.5-6.5,15.9-11.5,22.1
		c-5,6.2-11,11.1-18.1,14.6c-7.1,3.5-15,5.3-23.7,5.3c-4.1,0-7.8-0.4-11.2-1.2c-3.4-0.8-6.5-2-9.2-3.4c-2.8-1.5-5.4-3.3-7.7-5.4
		c-2.4-2.1-4.7-4.5-6.8-7.1l-1.4,9c-0.5,2.3-1.4,3.9-2.7,4.8c-1.3,1-3,1.4-5.1,1.4H1204.4z M1266.8,1701.7c-6.7,0-12.4,1.4-17.1,4.2
		c-4.7,2.8-9.1,6.8-13.2,11.9v59.8c3.6,4.5,7.6,7.6,11.9,9.4c4.3,1.8,8.9,2.7,14,2.7c4.9,0,9.2-0.9,13.1-2.7
		c3.9-1.8,7.2-4.6,9.9-8.3c2.7-3.7,4.8-8.4,6.3-14.1c1.5-5.7,2.2-12.4,2.2-20.1c0-7.8-0.6-14.4-1.9-19.8c-1.3-5.4-3.1-9.8-5.4-13.2
		s-5.2-5.9-8.5-7.4C1274.8,1702.5,1271,1701.7,1266.8,1701.7z"/>
	<path class="st2" d="M1391.2,1639.9c0,2.8-0.6,5.4-1.7,7.8c-1.1,2.4-2.6,4.5-4.5,6.4c-1.9,1.8-4.1,3.3-6.6,4.4
		c-2.5,1.1-5.2,1.6-8.1,1.6c-2.8,0-5.4-0.5-7.9-1.6c-2.5-1.1-4.6-2.5-6.4-4.4c-1.8-1.8-3.3-3.9-4.4-6.4c-1.1-2.4-1.6-5-1.6-7.8
		c0-2.9,0.5-5.5,1.6-8.1c1.1-2.5,2.5-4.7,4.4-6.5c1.8-1.8,4-3.3,6.4-4.4c2.5-1.1,5.1-1.6,7.9-1.6c2.9,0,5.5,0.5,8.1,1.6
		c2.5,1.1,4.7,2.5,6.6,4.4c1.9,1.8,3.4,4,4.5,6.5C1390.6,1634.4,1391.2,1637.1,1391.2,1639.9z M1386.4,1678.8v133.4h-32.1v-133.4
		H1386.4z"/>
	<path class="st2" d="M1456.8,1619v193.2h-32.1V1619H1456.8z"/>
	<path class="st2" d="M1532.1,1639.9c0,2.8-0.6,5.4-1.7,7.8c-1.1,2.4-2.6,4.5-4.5,6.4c-1.9,1.8-4.1,3.3-6.6,4.4
		c-2.5,1.1-5.2,1.6-8.1,1.6c-2.8,0-5.4-0.5-7.9-1.6c-2.5-1.1-4.6-2.5-6.4-4.4c-1.8-1.8-3.3-3.9-4.4-6.4c-1.1-2.4-1.6-5-1.6-7.8
		c0-2.9,0.5-5.5,1.6-8.1c1.1-2.5,2.5-4.7,4.4-6.5c1.8-1.8,4-3.3,6.4-4.4c2.5-1.1,5.1-1.6,7.9-1.6c2.9,0,5.5,0.5,8.1,1.6
		c2.5,1.1,4.7,2.5,6.6,4.4c1.9,1.8,3.4,4,4.5,6.5C1531.5,1634.4,1532.1,1637.1,1532.1,1639.9z M1527.3,1678.8v133.4h-32.1v-133.4
		H1527.3z"/>
	<path class="st2" d="M1607.4,1814.3c-11.5,0-20.4-3.3-26.7-9.8c-6.2-6.5-9.4-15.6-9.4-27.1v-74.5h-13.5c-1.7,0-3.2-0.6-4.5-1.7
		c-1.3-1.1-1.9-2.8-1.9-5.1v-12.7l21.4-3.5l6.8-36.4c0.3-1.7,1.1-3.1,2.4-4c1.3-1,2.8-1.4,4.7-1.4h16.6v42h35.1v22.9h-35.1v72.3
		c0,4.2,1,7.4,3.1,9.8c2.1,2.3,4.9,3.5,8.3,3.5c2,0,3.7-0.2,5-0.7c1.3-0.5,2.5-1,3.5-1.5c1-0.5,1.9-1,2.7-1.5
		c0.8-0.5,1.6-0.7,2.3-0.7c1,0,1.7,0.2,2.3,0.7c0.6,0.5,1.3,1.2,2,2.1l9.6,15.6c-4.7,3.9-10.1,6.8-16.1,8.8
		C1620.2,1813.3,1613.9,1814.3,1607.4,1814.3z"/>
	<path class="st2" d="M1719.3,1676.7c8.4,0,16.1,1.3,23.2,4c7.1,2.7,13.2,6.6,18.3,11.8c5.1,5.2,9.1,11.5,12,19
		c2.9,7.5,4.3,16.1,4.3,25.7c0,2.4-0.1,4.4-0.3,6c-0.2,1.6-0.6,2.9-1.2,3.8c-0.6,0.9-1.3,1.6-2.3,2c-1,0.4-2.2,0.6-3.6,0.6h-82.4
		c1,13.7,4.6,23.7,11,30.2c6.4,6.4,14.9,9.6,25.5,9.6c5.2,0,9.7-0.6,13.5-1.8c3.8-1.2,7.1-2.6,9.9-4c2.8-1.5,5.3-2.8,7.4-4
		c2.1-1.2,4.2-1.8,6.2-1.8c1.3,0,2.4,0.3,3.4,0.8c1,0.5,1.8,1.3,2.5,2.2l9.4,11.7c-3.6,4.2-7.5,7.7-12,10.5c-4.4,2.8-9,5.1-13.8,6.8
		c-4.8,1.7-9.7,2.9-14.7,3.6c-5,0.7-9.8,1-14.5,1c-9.3,0-17.9-1.5-25.9-4.6c-8-3.1-14.9-7.6-20.8-13.7c-5.9-6-10.5-13.5-13.9-22.4
		c-3.4-8.9-5.1-19.2-5.1-30.9c0-9.1,1.5-17.7,4.4-25.7c2.9-8,7.2-15,12.7-20.9c5.5-5.9,12.2-10.6,20.1-14.1
		C1700.4,1678.5,1709.3,1676.7,1719.3,1676.7z M1719.9,1699.7c-9.4,0-16.7,2.6-22,7.9c-5.3,5.3-8.7,12.8-10.1,22.5h60.3
		c0-4.2-0.6-8.1-1.7-11.8c-1.1-3.7-2.9-6.9-5.2-9.7c-2.3-2.8-5.3-5-8.8-6.6C1728.9,1700.5,1724.7,1699.7,1719.9,1699.7z
		 M1765.1,1622.1l-32.1,33.9c-1.6,1.7-3.2,2.9-4.7,3.6c-1.5,0.7-3.5,1-5.9,1H1703l18.5-31.6c1.3-2.3,2.8-4,4.5-5.1
		c1.7-1.2,4.3-1.8,7.8-1.8H1765.1z"/>
</g>
<path class="st3" d="M889.6,942.5h268.8v-67.2h-89.6V561.6H989l-103.6,95.9l53.9,56c19.6-17.3,32.4-30.6,38.5-39.9h1.4v201.6h-89.6
	V942.5z M1248,763.2c0,32.7-4.9,65.8-14.7,99.4c-9.8,33.6-23.7,64.9-41.7,93.8c-18,28.9-41.7,52.5-71.1,70.7
	c-29.4,18.2-61.6,27.3-96.6,27.3s-67.2-9.1-96.6-27.3c-29.4-18.2-53.1-41.8-71.1-70.7c-18-28.9-31.8-60.2-41.6-93.8
	c-9.8-33.6-14.7-66.7-14.7-99.4s4.9-65.8,14.7-99.4c9.8-33.6,23.7-64.9,41.6-93.8c18-28.9,41.7-52.5,71.1-70.7
	C956.8,481.1,989,472,1024,472s67.2,9.1,96.6,27.3c29.4,18.2,53.1,41.8,71.1,70.7c18,28.9,31.8,60.2,41.7,93.8
	C1243.1,697.5,1248,730.6,1248,763.2z M1606.4,942.5V584c-49.5,0-91.7-17.5-126.7-52.5s-52.5-77.2-52.5-126.7H620.8
	c0,49.5-17.5,91.7-52.5,126.7S491.1,584,441.6,584v358.4c49.5,0,91.7,17.5,126.7,52.5c35,35,52.5,77.2,52.5,126.7h806.4
	c0-49.5,17.5-91.7,52.5-126.7C1514.7,960,1556.9,942.5,1606.4,942.5z M1696,360v806.4c0,12.1-4.4,22.6-13.3,31.5
	c-8.9,8.9-19.4,13.3-31.5,13.3H396.8c-12.1,0-22.6-4.4-31.5-13.3c-8.9-8.9-13.3-19.4-13.3-31.5V360c0-12.1,4.4-22.6,13.3-31.5
	c8.9-8.9,19.4-13.3,31.5-13.3h1254.4c12.1,0,22.6,4.4,31.5,13.3C1691.6,337.4,1696,347.9,1696,360z"/>
</svg>
