<?xml version="1.0" encoding="utf-8"?>
<!-- Generator: Adobe Illustrator 23.0.2, SVG Export Plug-In . SVG Version: 6.00 Build 0)  -->
<svg version="1.1" id="Calque_1" xmlns="http://www.w3.org/2000/svg" xmlns:xlink="http://www.w3.org/1999/xlink" x="0px" y="0px"
	 viewBox="0 0 653.4000244 292" style="enable-background:new 0 0 653.4000244 292;" xml:space="preserve">
<style type="text/css">
	.st0{fill:url(#SVGID_1_);}
	.st1{fill:url(#SVGID_2_);}
	.st2{opacity:0.8;}
	.st3{fill:#FFFFFF;}
	.st4{fill:#333333;}
</style>
<g>
	
		<linearGradient id="SVGID_1_" gradientUnits="userSpaceOnUse" x1="-5049.2998047" y1="3728" x2="-5049.2998047" y2="3436" gradientTransform="matrix(-1 0 0 1 -4722.6000977 -3436)">
		<stop  offset="0" style="stop-color:#BBBBBB"/>
		<stop  offset="1" style="stop-color:#DCDCDC"/>
	</linearGradient>
	<path class="st0" d="M24.9999886,282c-8,0-15.000001-7-15.000001-15V25c0-8,7.000001-15,15.000001-15h603.5c8,0,15,7,15,15v242
		c0,8-7,15-15,15H24.9999886z M628.4000244,292c14,0,25-11,25-25V25c0-14-11-25-25-25H24.9999886c-14.000001,0-25,11-25,25v242
		c0,14,11,25,25,25H628.4000244z"/>
</g>
<linearGradient id="SVGID_2_" gradientUnits="userSpaceOnUse" x1="-5049.2998047" y1="-718" x2="-5049.2998047" y2="-446" gradientTransform="matrix(-1 0 0 -1 -4722.6000977 -436)">
	<stop  offset="0" style="stop-color:#E8E8E8"/>
	<stop  offset="1" style="stop-color:#F9F9F9"/>
</linearGradient>
<path class="st1" d="M24.9500008,282c-8,0-15.000001-7-15.000001-15V25c0-8,7.000001-15,15.000001-15h603.5c8,0,15,7,15,15v242
	c0,8-7,15-15,15H24.9500008z"/>
<g>
	<g class="st2">
		<path class="st3" d="M112.0373993,102.4792938h15.1904297c1.6328125,0,2.9628906,0.3984375,3.9897461,1.1914062
			c1.0258789,0.7929688,1.7958984,1.8193359,2.3100586,3.0791016l23.7998047,61.7402344
			c0.7929688,2.0068359,1.5512695,4.2119141,2.2753906,6.6142578c0.7226562,2.4042969,1.4106445,4.9355469,2.0649414,7.5957031
			c1.0727539-5.3652344,2.402832-10.1035156,3.9897461-14.2099609l23.7299805-61.7402344
			c0.4199219-1.0732422,1.1660156-2.0527344,2.2402344-2.9404297c1.0727539-0.8847656,2.402832-1.3300781,3.9897461-1.3300781
			h15.1899414L169.927536,203.6999969h-17.0097656L112.0373993,102.4792938z"/>
		<path class="st3" d="M268.067688,203.6999969h-7.7700195c-1.6342773,0-2.9169922-0.2451172-3.8500977-0.7353516
			c-0.9340973-0.4892578-1.6338043-1.4804688-2.1001129-2.9746094l-1.5400391-5.1103516
			c-1.8198242,1.6347656-3.6049805,3.0693359-5.3549805,4.3056641s-3.559082,2.2744141-5.4248047,3.1142578
			c-1.8671875,0.8408203-3.8500977,1.4707031-5.9501953,1.890625c-2.0996094,0.4199219-4.434082,0.6298828-7,0.6298828
			c-3.0336914,0-5.8339844-0.4101562-8.3999023-1.2285156c-2.5668945-0.8193359-4.7719727-2.0488281-6.6147461-3.6865234
			c-1.8442383-1.6386719-3.2792969-3.6767578-4.3051758-6.1113281c-1.0268555-2.4345703-1.5400391-5.2675781-1.5400391-8.4980469
			c0-2.7158203,0.7109375-5.3964844,2.1352539-8.0429688c1.4228516-2.6445312,3.7905273-5.03125,7.1049805-7.1621094
			c3.3129883-2.1308594,7.7226562-3.8984375,13.2299805-5.3027344c5.5058594-1.4042969,12.3427734-2.1074219,20.5097656-2.1074219
			v-4.2324219c0-4.8427734-1.0151367-8.4296875-3.0449219-10.7568359s-4.9819336-3.4912109-8.8549805-3.4912109
			c-2.7998047,0-5.1342773,0.3271484-7,0.9804688c-1.8671875,0.6542969-3.4892578,1.3886719-4.8652344,2.2050781
			c-1.3769531,0.8164062-2.6489258,1.5507812-3.8149414,2.2050781c-1.1669922,0.6533203-2.449707,0.9794922-3.8496094,0.9794922
			c-1.1674805,0-2.1704102-0.3037109-3.0102539-0.9101562s-1.5170898-1.3525391-2.0297852-2.2392578l-3.1503906-5.53125
			c8.2602539-7.5595703,18.2231445-11.3398438,29.8901367-11.3398438c4.2001953,0,7.9453125,0.6894531,11.2348633,2.0654297
			c3.2900391,1.3769531,6.0781403,3.2900391,8.3652496,5.7392578c2.2861328,2.4511719,4.0249023,5.3798828,5.2148438,8.7851562
			c1.1899414,3.4082031,1.7851562,7.140625,1.7851562,11.2011719V203.6999969z M234.4675751,192.9197235
			c1.7729492,0,3.40625-0.1601562,4.8999023-0.4824219c1.4931641-0.3212891,2.9052734-0.8037109,4.2353516-1.4462891
			c1.3295898-0.6435547,2.612793-1.4355469,3.8496094-2.3769531c1.2363281-0.9414062,2.4853516-2.0566406,3.7451172-3.3427734
			v-12.0214844c-5.0400391,0-9.2519531,0.3173828-12.6347656,0.9521484
			c-3.3842773,0.6337891-6.1020508,1.4453125-8.1552734,2.4316406c-2.0537109,0.9882812-3.5117188,2.1396484-4.375,3.4560547
			c-0.8637695,1.3154297-1.2949219,2.7480469-1.2949219,4.2988281c0,3.0566406,0.8979492,5.2412109,2.6948242,6.5576172
			C229.2288055,192.2624969,231.5735321,192.9197235,234.4675751,192.9197235z"/>
		<path class="st3" d="M303.4871216,99.6804657v104.0195312h-17.2900391V99.6804657H303.4871216z"/>
		<path class="st3" d="M344.0169067,110.9499969c0,1.4941406-0.3041992,2.8945312-0.9101562,4.2001953
			c-0.6069336,1.3066406-1.4121094,2.4501953-2.4150391,3.4296875c-1.0039062,0.9794922-2.1821289,1.7626953-3.5351562,2.3447266
			c-1.3540039,0.5839844-2.7998047,0.875-4.3398438,0.875c-1.4941406,0-2.9052734-0.2910156-4.2348633-0.875
			c-1.3300781-0.5820312-2.4853516-1.3652344-3.465332-2.3447266s-1.7617188-2.1230469-2.3447266-3.4296875
			c-0.5839844-1.3056641-0.875-2.7060547-0.875-4.2001953c0-1.5400391,0.2910156-2.9863281,0.875-4.3398438
			c0.5830078-1.3535156,1.3647461-2.5195312,2.3447266-3.5s2.1352539-1.7617188,3.465332-2.3457031
			c1.3295898-0.5820312,2.7407227-0.875,4.2348633-0.875c1.5400391,0,2.9858398,0.2929688,4.3398438,0.875
			c1.3530273,0.5839844,2.53125,1.3652344,3.5351562,2.3457031c1.0029297,0.9804688,1.8081055,2.1464844,2.4150391,3.5
			C343.7127075,107.9636688,344.0169067,109.4099579,344.0169067,110.9499969z M341.4265747,131.8796844v71.8203125h-17.2900391
			v-71.8203125H341.4265747z"/>
		<path class="st3" d="M411.4954224,203.6999969c-2.2402344,0-3.7089844-1.0498047-4.4101562-3.1503906l-1.4003906-6.9296875
			c-1.4941406,1.6796875-3.0566406,3.1972656-4.6894531,4.5498047c-1.6347656,1.3544922-3.3945312,2.5205078-5.2851562,3.5
			c-1.8886719,0.9804688-3.9199219,1.7392578-6.0898438,2.2753906s-4.515625,0.8046875-7.0351562,0.8046875
			c-3.9199219,0-7.5131836-0.8164062-10.7792969-2.4501953c-3.2670898-1.6328125-6.0791016-4.0009766-8.4350586-7.1044922
			c-2.3569336-3.1035156-4.1767578-6.9414062-5.4599609-11.5146484c-1.2836914-4.5732422-1.9248047-9.8007812-1.9248047-15.6806641
			c0-5.3193359,0.7231445-10.265625,2.1699219-14.8398438c1.4458008-4.5732422,3.5229492-8.5400391,6.2299805-11.8994141
			c2.7060547-3.3603516,5.9501953-5.9853516,9.730957-7.875c3.7788086-1.890625,8.0249023-2.8359375,12.737793-2.8359375
			c4.0136719,0,7.4433594,0.6425781,10.2910156,1.9257812c2.8457031,1.2832031,5.390625,2.9980469,7.6289062,5.1445312V99.6804657
			h17.2910156v104.0195312H411.4954224z M388.4661255,191.0300751c3.5917969,0,6.6503906-0.7460938,9.1699219-2.2402344
			c2.5195312-1.4931641,4.9003906-3.6162109,7.1386719-6.3701172v-32.2001953
			c-1.9589844-2.3789062-4.09375-4.0595703-6.4042969-5.0390625c-2.3105469-0.9804688-4.7949219-1.4707031-7.4550781-1.4707031
			c-2.6132812,0-4.9824219,0.4902344-7.1054688,1.4707031c-2.1230469,0.9794922-3.9199219,2.4609375-5.3886719,4.4443359
			c-1.4702148,1.984375-2.6030273,4.5048828-3.3959961,7.5595703c-0.7929688,3.0576172-1.1894531,6.6621094-1.1894531,10.8154297
			c0,4.2001953,0.3378906,7.7587891,1.015625,10.6748047c0.6757812,2.9169922,1.6445312,5.2978516,2.9038086,7.140625
			c1.2597656,1.84375,2.8007812,3.1738281,4.6210938,3.9902344S386.2258911,191.0300751,388.4661255,191.0300751z"/>
		<path class="st3" d="M470.4348755,130.7605438c4.5273438,0,8.6914062,0.7236328,12.4960938,2.1699219
			c3.8027344,1.4472656,7.0800781,3.5585938,9.8339844,6.3339844c2.7539062,2.7773438,4.9003906,6.1845703,6.4414062,10.2207031
			c1.5390625,4.0371094,2.3085938,8.6445312,2.3085938,13.8242188c0,1.3076172-0.0585938,2.3925781-0.1738281,3.2558594
			c-0.1171875,0.8632812-0.328125,1.5390625-0.6308594,2.0292969c-0.3046875,0.4902344-0.7109375,0.8398438-1.2246094,1.0507812
			c-0.5136719,0.2089844-1.1679688,0.3144531-1.9609375,0.3144531H453.145813
			c0.5117188,7.375,2.4960938,12.7871094,5.9492188,16.2402344c3.453125,3.4541016,8.0253906,5.1796875,13.7207031,5.1796875
			c2.7988281,0,5.2148438-0.3251953,7.2441406-0.9794922c2.03125-0.6533203,3.8027344-1.3759766,5.3203125-2.1699219
			c1.515625-0.7929688,2.8457031-1.5166016,3.9902344-2.1699219c1.1425781-0.6533203,2.25-0.9804688,3.3242188-0.9804688
			c0.7011719,0,1.3066406,0.1396484,1.8203125,0.4199219s0.9570312,0.6767578,1.3300781,1.1904297l5.0410156,6.2998047
			c-1.9140625,2.2402344-4.0605469,4.1191406-6.4414062,5.6347656c-2.3789062,1.5175781-4.8632812,2.7304688-7.4550781,3.640625
			c-2.5898438,0.9091797-5.2265625,1.5507812-7.9082031,1.9248047c-2.6855469,0.3730469-5.2851562,0.5595703-7.8066406,0.5595703
			c-4.9941406,0-9.6367188-0.8291016-13.9296875-2.484375c-4.2929688-1.65625-8.0273438-4.1064453-11.1992188-7.3505859
			c-3.1738281-3.2431641-5.6699219-7.2558594-7.4902344-12.0400391c-1.8203125-4.7822266-2.7304688-10.3251953-2.7304688-16.625
			c0-4.8994141,0.7929688-9.5078125,2.3808594-13.8251953c1.5859375-4.3154297,3.8613281-8.0722656,6.8242188-11.2695312
			c2.9628906-3.1953125,6.5800781-5.7285156,10.8496094-7.5957031
			C460.2512817,131.6941376,465.067688,130.7605438,470.4348755,130.7605438z M470.7844849,143.1501923
			c-5.0390625,0-8.9824219,1.4238281-11.828125,4.2705078c-2.8476562,2.8457031-4.6679688,6.8828125-5.4609375,12.109375h32.4804688
			c0-2.2402344-0.3046875-4.3515625-0.9101562-6.3349609c-0.6074219-1.9833984-1.5410156-3.7216797-2.8007812-5.2158203
			c-1.2597656-1.4921875-2.8457031-2.6699219-4.7597656-3.5341797
			C475.5911255,143.5818329,473.3508911,143.1501923,470.7844849,143.1501923z"/>
		<path class="st3" d="M515.583313,203.6999969v-71.8203125h10.1484375c1.7734375,0,3.0117188,0.3271484,3.7109375,0.9804688
			c0.6992188,0.6542969,1.1660156,1.7734375,1.4003906,3.359375l1.0488281,8.6806641
			c2.5664062-4.4326172,5.5761719-7.9326172,9.03125-10.5c3.453125-2.5654297,7.3261719-3.8505859,11.6191406-3.8505859
			c3.546875,0,6.4863281,0.8173828,8.8203125,2.4501953l-2.2402344,12.9501953
			c-0.140625,0.8398438-0.4433594,1.4355469-0.9101562,1.7851562s-1.0957031,0.5253906-1.8886719,0.5253906
			c-0.7011719,0-1.6582031-0.1640625-2.8710938-0.4902344c-1.2148438-0.3261719-2.8242188-0.4902344-4.8300781-0.4902344
			c-3.59375,0-6.6738281,0.9921875-9.2402344,2.9746094c-2.5664062,1.984375-4.7363281,4.8886719-6.5097656,8.7148438v44.7304688
			H515.583313z"/>
	</g>
	<g>
		<g>
			<path class="st4" d="M102.0373993,92.4792938h15.1904297c1.6328125,0,2.9628906,0.3984375,3.9897461,1.1914062
				c1.0258789,0.7929688,1.7958984,1.8193359,2.3100586,3.0791016l23.7998047,61.7402344
				c0.7929688,2.0068359,1.5512695,4.2119141,2.2753906,6.6142578c0.7226562,2.4042969,1.4106445,4.9355469,2.0649414,7.5957031
				c1.0727539-5.3652344,2.402832-10.1035156,3.9897461-14.2099609l23.7299805-61.7402344
				c0.4199219-1.0732422,1.1660156-2.0527344,2.2402344-2.9404297c1.0727539-0.8847656,2.402832-1.3300781,3.9897461-1.3300781
				h15.1899414L159.927536,193.6999969h-17.0097656L102.0373993,92.4792938z"/>
			<path class="st4" d="M258.067688,193.6999969h-7.7700348c-1.6342773,0-2.9169922-0.2451172-3.8500977-0.7353516
				c-0.934082-0.4892578-1.6337891-1.4804688-2.1000977-2.9746094l-1.5400391-5.1103516
				c-1.8198242,1.6347656-3.6049805,3.0693359-5.3549805,4.3056641s-3.559082,2.2744141-5.4248047,3.1142578
				c-1.8671875,0.8408203-3.8500977,1.4707031-5.9501953,1.890625c-2.0996094,0.4199219-4.434082,0.6298828-7,0.6298828
				c-3.0336914,0-5.8339844-0.4101562-8.3999023-1.2285156c-2.5668945-0.8193359-4.7719727-2.0488281-6.6147461-3.6865234
				c-1.8442383-1.6386719-3.2792969-3.6767578-4.3051758-6.1113281c-1.0268555-2.4345703-1.5400391-5.2675781-1.5400391-8.4980469
				c0-2.7158203,0.7109375-5.3964844,2.1352539-8.0429688c1.4228516-2.6445312,3.7905273-5.03125,7.1049805-7.1621094
				c3.3129883-2.1308594,7.7226562-3.8984375,13.2299805-5.3027344c5.5058594-1.4042969,12.3427734-2.1074219,20.5097656-2.1074219
				v-4.2324219c0-4.8427734-1.0151367-8.4296875-3.0449219-10.7568359s-4.9819336-3.4912109-8.8549805-3.4912109
				c-2.7998047,0-5.1342773,0.3271484-7,0.9804688c-1.8671875,0.6542969-3.4892578,1.3886719-4.8652344,2.2050781
				c-1.3769531,0.8164062-2.6489258,1.5507812-3.8149414,2.2050781c-1.1669922,0.6533203-2.449707,0.9794922-3.8496094,0.9794922
				c-1.1674805,0-2.1704102-0.3037109-3.0102539-0.9101562s-1.5170898-1.3525391-2.0297852-2.2392578l-3.1503906-5.53125
				c8.2602539-7.5595703,18.2231445-11.3398438,29.8901367-11.3398438c4.2001953,0,7.9453125,0.6894531,11.2348633,2.0654297
				c3.2900391,1.3769531,6.078125,3.2900391,8.3652344,5.7392578c2.2861328,2.4511719,4.0249023,5.3798828,5.214859,8.7851562
				c1.1899414,3.4082031,1.7851562,7.140625,1.7851562,11.2011719V193.6999969z M224.4675751,182.9197235
				c1.7729492,0,3.40625-0.1601562,4.8999023-0.4824219c1.4931641-0.3212891,2.9052734-0.8037109,4.2353516-1.4462891
				c1.3295898-0.6435547,2.612793-1.4355469,3.8496094-2.3769531c1.2363281-0.9414062,2.4853516-2.0566406,3.7451172-3.3427734
				v-12.0214844c-5.0400391,0-9.2519531,0.3173828-12.6347656,0.9521484
				c-3.3842773,0.6337891-6.1020508,1.4453125-8.1552734,2.4316406c-2.0537109,0.9882812-3.5117188,2.1396484-4.375,3.4560547
				c-0.8637695,1.3154297-1.2949219,2.7480469-1.2949219,4.2988281c0,3.0566406,0.8979492,5.2412109,2.6948242,6.5576172
				C219.2288055,182.2624969,221.5735321,182.9197235,224.4675751,182.9197235z"/>
			<path class="st4" d="M293.4871216,89.6804657v104.0195312h-17.2900391V89.6804657H293.4871216z"/>
			<path class="st4" d="M334.0169067,100.9499969c0,1.4941406-0.3041992,2.8945312-0.9101562,4.2001953
				c-0.6069336,1.3066406-1.4121094,2.4501953-2.4150391,3.4296875c-1.0039062,0.9794922-2.1821289,1.7626953-3.5351562,2.3447266
				c-1.3540039,0.5839844-2.7998047,0.875-4.3398438,0.875c-1.4941406,0-2.9052734-0.2910156-4.2348633-0.875
				c-1.3300781-0.5820312-2.4853516-1.3652344-3.465332-2.3447266s-1.7617188-2.1230469-2.3447266-3.4296875
				c-0.5839844-1.3056641-0.875-2.7060547-0.875-4.2001953c0-1.5400391,0.2910156-2.9863281,0.875-4.3398438
				c0.5830078-1.3535156,1.3647461-2.5195312,2.3447266-3.5s2.1352539-1.7617188,3.465332-2.3457031
				c1.3295898-0.5820312,2.7407227-0.875,4.2348633-0.875c1.5400391,0,2.9858398,0.2929688,4.3398438,0.875
				c1.3530273,0.5839844,2.53125,1.3652344,3.5351562,2.3457031c1.0029297,0.9804688,1.8081055,2.1464844,2.4150391,3.5
				C333.7127075,97.9636688,334.0169067,99.4099579,334.0169067,100.9499969z M331.4265747,121.8796844v71.8203125h-17.2900391
				v-71.8203125H331.4265747z"/>
			<path class="st4" d="M401.4954224,193.6999969c-2.2402344,0-3.7089844-1.0498047-4.4101562-3.1503906l-1.4003906-6.9296875
				c-1.4941406,1.6796875-3.0566406,3.1972656-4.6894531,4.5498047c-1.6347656,1.3544922-3.3945312,2.5205078-5.2851562,3.5
				c-1.8886719,0.9804688-3.9199219,1.7392578-6.0898438,2.2753906s-4.515625,0.8046875-7.0351562,0.8046875
				c-3.9199219,0-7.5131836-0.8164062-10.7792969-2.4501953c-3.2670898-1.6328125-6.0791016-4.0009766-8.4350586-7.1044922
				c-2.3569336-3.1035156-4.1767578-6.9414062-5.4599609-11.5146484c-1.2836914-4.5732422-1.9248047-9.8007812-1.9248047-15.6806641
				c0-5.3193359,0.7231445-10.265625,2.1699219-14.8398438c1.4458008-4.5732422,3.5229492-8.5400391,6.2299805-11.8994141
				c2.7060547-3.3603516,5.9501953-5.9853516,9.730957-7.875c3.7788086-1.890625,8.0249023-2.8359375,12.737793-2.8359375
				c4.0136719,0,7.4433594,0.6425781,10.2910156,1.9257812c2.8457031,1.2832031,5.390625,2.9980469,7.6289062,5.1445312V89.6804657
				h17.2910156v104.0195312H401.4954224z M378.4661255,181.0300751c3.5917969,0,6.6503906-0.7460938,9.1699219-2.2402344
				c2.5195312-1.4931641,4.9003906-3.6162109,7.1386719-6.3701172v-32.2001953
				c-1.9589844-2.3789062-4.09375-4.0595703-6.4042969-5.0390625c-2.3105469-0.9804688-4.7949219-1.4707031-7.4550781-1.4707031
				c-2.6132812,0-4.9824219,0.4902344-7.1054688,1.4707031c-2.1230469,0.9794922-3.9199219,2.4609375-5.3886719,4.4443359
				c-1.4702148,1.984375-2.6030273,4.5048828-3.3959961,7.5595703c-0.7929688,3.0576172-1.1894531,6.6621094-1.1894531,10.8154297
				c0,4.2001953,0.3378906,7.7587891,1.015625,10.6748047c0.6757812,2.9169922,1.6445312,5.2978516,2.9038086,7.140625
				c1.2597656,1.84375,2.8007812,3.1738281,4.6210938,3.9902344S376.2258911,181.0300751,378.4661255,181.0300751z"/>
			<path class="st4" d="M460.4348755,120.7605438c4.5273438,0,8.6914062,0.7236328,12.4960938,2.1699219
				c3.8027344,1.4472656,7.0800781,3.5585938,9.8339844,6.3339844c2.7539062,2.7773438,4.9003906,6.1845703,6.4414062,10.2207031
				c1.5390625,4.0371094,2.3085938,8.6445312,2.3085938,13.8242188c0,1.3076172-0.0585938,2.3925781-0.1738281,3.2558594
				c-0.1171875,0.8632812-0.328125,1.5390625-0.6308594,2.0292969c-0.3046875,0.4902344-0.7109375,0.8398438-1.2246094,1.0507812
				c-0.5136719,0.2089844-1.1679688,0.3144531-1.9609375,0.3144531H443.145813
				c0.5117188,7.375,2.4960938,12.7871094,5.9492188,16.2402344c3.453125,3.4541016,8.0253906,5.1796875,13.7207031,5.1796875
				c2.7988281,0,5.2148438-0.3251953,7.2441406-0.9794922c2.03125-0.6533203,3.8027344-1.3759766,5.3203125-2.1699219
				c1.515625-0.7929688,2.8457031-1.5166016,3.9902344-2.1699219c1.1425781-0.6533203,2.25-0.9804688,3.3242188-0.9804688
				c0.7011719,0,1.3066406,0.1396484,1.8203125,0.4199219s0.9570312,0.6767578,1.3300781,1.1904297l5.0410156,6.2998047
				c-1.9140625,2.2402344-4.0605469,4.1191406-6.4414062,5.6347656c-2.3789062,1.5175781-4.8632812,2.7304688-7.4550781,3.640625
				c-2.5898438,0.9091797-5.2265625,1.5507812-7.9082031,1.9248047c-2.6855469,0.3730469-5.2851562,0.5595703-7.8066406,0.5595703
				c-4.9941406,0-9.6367188-0.8291016-13.9296875-2.484375c-4.2929688-1.65625-8.0273438-4.1064453-11.1992188-7.3505859
				c-3.1738281-3.2431641-5.6699219-7.2558594-7.4902344-12.0400391c-1.8203125-4.7822266-2.7304688-10.3251953-2.7304688-16.625
				c0-4.8994141,0.7929688-9.5078125,2.3808594-13.8251953c1.5859375-4.3154297,3.8613281-8.0722656,6.8242188-11.2695312
				c2.9628906-3.1953125,6.5800781-5.7285156,10.8496094-7.5957031
				C450.2512817,121.6941376,455.067688,120.7605438,460.4348755,120.7605438z M460.7844849,133.1501923
				c-5.0390625,0-8.9824219,1.4238281-11.828125,4.2705078c-2.8476562,2.8457031-4.6679688,6.8828125-5.4609375,12.109375
				h32.4804688c0-2.2402344-0.3046875-4.3515625-0.9101562-6.3349609c-0.6074219-1.9833984-1.5410156-3.7216797-2.8007812-5.2158203
				c-1.2597656-1.4921875-2.8457031-2.6699219-4.7597656-3.5341797
				C465.5911255,133.5818329,463.3508911,133.1501923,460.7844849,133.1501923z"/>
			<path class="st4" d="M505.583313,193.6999969v-71.8203125h10.1484375c1.7734375,0,3.0117188,0.3271484,3.7109375,0.9804688
				c0.6992188,0.6542969,1.1660156,1.7734375,1.4003906,3.359375l1.0488281,8.6806641
				c2.5664062-4.4326172,5.5761719-7.9326172,9.03125-10.5c3.453125-2.5654297,7.3261719-3.8505859,11.6191406-3.8505859
				c3.546875,0,6.4863281,0.8173828,8.8203125,2.4501953l-2.2402344,12.9501953
				c-0.140625,0.8398438-0.4433594,1.4355469-0.9101562,1.7851562s-1.0957031,0.5253906-1.8886719,0.5253906
				c-0.7011719,0-1.6582031-0.1640625-2.8710938-0.4902344c-1.2148438-0.3261719-2.8242188-0.4902344-4.8300781-0.4902344
				c-3.59375,0-6.6738281,0.9921875-9.2402344,2.9746094c-2.5664062,1.984375-4.7363281,4.8886719-6.5097656,8.7148438v44.7304688
				H505.583313z"/>
		</g>
	</g>
</g>
</svg>
