<?xml version="1.0" encoding="utf-8"?>
<!-- Generator: Adobe Illustrator 26.0.2, SVG Export Plug-In . SVG Version: 6.00 Build 0)  -->
<svg version="1.1"
	 id="svg4" inkscape:version="0.92.5 (2060ec1f9f, 2020-04-08)" sodipodi:docname="ufa41-warehouse-full.svg" xmlns:cc="http://creativecommons.org/ns#" xmlns:dc="http://purl.org/dc/elements/1.1/" xmlns:inkscape="http://www.inkscape.org/namespaces/inkscape" xmlns:rdf="http://www.w3.org/1999/02/22-rdf-syntax-ns#" xmlns:sodipodi="http://sodipodi.sourceforge.net/DTD/sodipodi-0.dtd" xmlns:svg="http://www.w3.org/2000/svg"
	 xmlns="http://www.w3.org/2000/svg" xmlns:xlink="http://www.w3.org/1999/xlink" x="0px" y="0px" viewBox="0 0 1000 1000"
	 style="enable-background:new 0 0 1000 1000;" xml:space="preserve">
<style type="text/css">
	.st0{fill:#333333;}
</style>
<sodipodi:namedview  bordercolor="#666666" borderopacity="1" gridtolerance="10" guidetolerance="10" id="namedview6" inkscape:current-layer="svg4" inkscape:cx="-136.67797" inkscape:cy="256" inkscape:pageopacity="0" inkscape:pageshadow="2" inkscape:window-height="1016" inkscape:window-maximized="1" inkscape:window-width="1920" inkscape:window-x="0" inkscape:window-y="27" inkscape:zoom="0.4609375" objecttolerance="10" pagecolor="#ffffff" showgrid="false">
	</sodipodi:namedview>
<path id="path2" inkscape:connector-curvature="0" class="st0" d="M0,860.6V365.7c0-40.8,24.9-77.7,62.9-92.8l418.5-167.4
	c11.9-4.8,25.3-4.8,37.2,0l418.6,167.4c38,15.2,62.8,52,62.8,92.8v494.8c0,20.8-16.7,37.5-37.5,37.5h-75
	c-20.8,0-37.5-16.7-37.5-37.5V446.7c0-26.3-22.3-50-50-50H200c-27.7,0-50,23.8-50,50v413.9c0,20.8-16.8,37.5-37.5,37.5h-75
	C16.8,898.1,0,881.4,0,860.6z M762.5,698.1c20.8,0,37.5,16.7,37.5,37.5v125c0,20.8-16.7,37.5-37.5,37.5h-175
	c-20.8,0-37.5-16.7-37.5-37.5v-125c0-20.8,16.7-37.5,37.5-37.5H762.5z M200,484.2c0-19.4,16.7-37.5,37.5-37.5h225
	c20.8,0,37.5,18.1,37.5,37.5v126.4c0,20.8-16.7,37.5-37.5,37.5h-225c-20.8,0-37.5-16.7-37.5-37.5L200,484.2z M462.5,698.1
	c20.8,0,37.5,16.7,37.5,37.5v125c0,20.8-16.7,37.5-37.5,37.5h-225c-20.8,0-37.5-16.7-37.5-37.5v-125c0-20.8,16.7-37.5,37.5-37.5
	H462.5z"/>
</svg>
